# wavefront obj file written by the visualization toolkit


v 10145 5541.94 4366.11
v 10132.7 5576.38 4365.12
v 10176.8 5567.33 4371.5
v 10172.6 5603.24 4384.18
v 10150.4 5603.95 4415.32
v 10213.7 5541.49 4421.29
v 10167.9 5525.06 4415.59
v 10132.6 5545.63 4401.98
v 10233.7 5588.42 4430.81
v 10126 5570.42 4413.64
v 10233.8 5619.48 4449.06
v 10225 5616.39 4457.94
v 10158.8 5575.43 4464.01
v 10183.8 5530.34 4458.41
v 10233.2 5542.38 4465.51
v 10156.2 5555.2 4450.63
v 10263.3 5572.56 4490.63
v 10267.5 5614.51 4495.14
v 10257.4 5604.33 4489
v 10229.6 5589.9 4490.5
v 10215.2 5556.28 4486.92
v 10235.2 5554.13 4487.5
v 10258.9 5594.08 4497.35
v 10243.2 5573.48 4486.16
v 10223.9 5573.74 6857.86
v 10228.8 5542.16 6873.76
v 10177 5539.97 6897.2
v 10281 5590.27 6872.41
v 10257.7 5545.92 6902.16
v 10283 5574.11 6890.05
v 10251.1 5620.24 6903.81
v 10254 5590.02 6929.36
v 10201 5605.95 6914.03
v 10144.4 5570.02 6931.29
v 10175.7 5517.51 6939.94
v 10136.4 5534.52 6954.78
v 10186.9 5623.22 6974.11
v 10219 5528.96 6921.6
v 10112.8 5560.07 6975.3
v 10246 5561.9 6940.26
v 10114.1 5579.17 6979.96
v 10143.1 5592.02 6978.81
v 10216.3 5611.51 6968.39
v 10128.1 5533.3 6983
v 10206.7 5544.59 6965.38
v 10118.4 5550.73 6984.74
v 10204.4 5583.37 6986.47
v 10153.5 5550.96 6997.67
v 10129 5572.44 6990.7
v 10173.7 5610.17 6998.7
v 10159.1 5597.75 6997.6
v 10176.7 5564.88 6999.95
v 10166.8 5580.28 6992.51
v 10271.6 5578.14 6850.39
vn -0.119598 -0.692899 -0.711046
vn -0.678408 0.282084 -0.678374
vn 0.441393 0.00550195 -0.897297
vn 0.134607 0.795895 -0.590281
vn -0.555166 0.807875 0.197809
vn 0.643735 -0.597939 -0.47757
vn -0.0260181 -0.995674 -0.089203
vn -0.790909 -0.607998 0.0692855
vn 0.807916 0.107379 -0.579432
vn -0.961172 0.0711634 0.266616
vn 0.557428 0.732962 -0.389924
vn -0.201575 0.955955 0.213347
vn -0.63917 0.171755 0.749641
vn -0.273908 -0.805948 0.524807
vn 0.418866 -0.89839 0.132087
vn -0.669732 -0.401181 0.624911
vn 0.853922 -0.416281 0.312294
vn 0.481607 0.733636 0.479409
vn 0.982104 0.137358 -0.128858
vn -0.287206 0.346729 0.892912
vn -0.24526 -0.259985 0.933946
vn 0.167523 -0.557967 0.812778
vn 0.458176 -0.112431 0.881722
vn 0.0580362 -0.204182 0.977211
vn -0.333024 0.159884 -0.929264
vn 0.158361 -0.784425 -0.599666
vn -0.5371 -0.514289 -0.668604
vn 0.370846 -0.0161627 -0.928554
vn 0.652098 -0.758122 0.00433599
vn 0.973439 -0.125107 0.19174
vn 0.430501 0.901786 -0.038098
vn 0.829 0.327802 0.453105
vn -0.369583 0.782765 -0.500688
vn -0.745055 0.311925 -0.589573
vn -0.0278848 -0.998199 0.0531204
vn -0.736669 -0.590914 -0.328845
vn -0.19305 0.96047 0.200574
vn 0.362807 -0.927275 0.0923685
vn -0.995469 -0.0945036 0.0104797
vn 0.744124 -0.310623 0.591434
vn -0.806036 0.574485 0.142383
vn -0.574698 0.816057 0.0614251
vn 0.576928 0.56819 0.586783
vn -0.468619 -0.695708 0.544413
vn 0.474046 -0.651967 0.591793
vn -0.847654 -0.367792 0.382375
vn 0.545995 0.00699902 0.837759
vn -0.00589065 -0.42384 0.905718
vn -0.506204 0.149116 0.849425
vn 0.124217 0.397768 0.909038
vn -0.435125 0.494844 0.752194
vn 0.243006 -0.106696 0.964139
vn -0.0405244 0.0696667 0.996747
vn 0.818653 0.561637 0.119881

g grp1
usemtl mtl1
f 1//1 2//2 3//3 
f 4//4 3//3 2//2 
f 4//4 2//2 5//5 
f 1//1 6//6 7//7 
f 3//3 6//6 1//1 
f 1//1 8//8 2//2 
f 6//6 3//3 9//9 
f 10//10 2//2 8//8 
f 3//3 4//4 9//9 
f 11//11 9//9 4//4 
f 5//5 2//2 10//10 
f 12//12 4//4 5//5 
f 11//11 4//4 12//12 
f 1//1 7//7 8//8 
f 10//10 13//13 5//5 
f 8//8 7//7 14//14 
f 7//7 6//6 15//15 
f 14//14 16//16 8//8 
f 15//15 6//6 17//17 
f 8//8 16//16 10//10 
f 9//9 17//17 6//6 
f 18//18 11//11 12//12 
f 16//16 13//13 10//10 
f 9//9 11//11 19//19 
f 7//7 15//15 14//14 
f 17//17 9//9 19//19 
f 5//5 13//13 20//20 
f 5//5 20//20 12//12 
f 19//19 11//11 18//18 
f 14//14 21//21 16//16 
f 22//22 15//15 17//17 
f 12//12 20//20 18//18 
f 15//15 22//22 14//14 
f 16//16 21//21 13//13 
f 17//17 19//19 23//23 
f 21//21 14//14 22//22 
f 20//20 13//13 21//21 
f 23//23 19//19 18//18 
f 21//21 22//22 24//24 
f 24//24 22//22 17//17 
f 17//17 23//23 24//24 
f 23//23 18//18 20//20 
f 24//24 20//20 21//21 
f 23//23 20//20 24//24 
f 25//25 26//26 27//27 
f 26//26 28//28 29//29 
f 28//28 26//26 25//25 
f 29//29 28//28 30//30 
f 31//31 32//32 54//54 
f 25//25 33//33 28//28 
f 31//31 28//28 33//33 
f 34//34 25//25 27//27 
f 30//30 54//54 32//32 
f 25//25 34//34 33//33 
f 27//27 35//35 36//36 
f 27//27 26//26 35//35 
f 34//34 27//27 36//36 
f 33//33 37//37 31//31 
f 38//38 35//35 26//26 
f 26//26 29//29 38//38 
f 34//34 36//36 39//39 
f 32//32 40//40 30//30 
f 40//40 29//29 30//30 
f 41//41 34//34 39//39 
f 34//34 41//41 42//42 
f 33//33 34//34 42//42 
f 33//33 42//42 37//37 
f 43//43 32//32 31//31 
f 35//35 44//44 36//36 
f 45//45 35//35 38//38 
f 29//29 45//45 38//38 
f 29//29 40//40 45//45 
f 39//39 36//36 46//46 
f 43//43 31//31 37//37 
f 36//36 44//44 46//46 
f 40//40 32//32 47//47 
f 32//32 43//43 47//47 
f 35//35 48//48 44//44 
f 45//45 48//48 35//35 
f 46//46 49//49 39//39 
f 39//39 49//49 41//41 
f 47//47 45//45 40//40 
f 41//41 49//49 42//42 
f 47//47 43//43 50//50 
f 42//42 51//51 37//37 
f 37//37 50//50 43//43 
f 46//46 44//44 49//49 
f 48//48 45//45 52//52 
f 45//45 47//47 52//52 
f 42//42 49//49 51//51 
f 51//51 50//50 37//37 
f 49//49 44//44 48//48 
f 53//53 49//49 48//48 
f 52//52 53//53 48//48 
f 52//52 47//47 53//53 
f 51//51 49//49 53//53 
f 47//47 50//50 53//53 
f 50//50 51//51 53//53 
