# wavefront obj file written by the visualization toolkit


v 12549 4900.23 5450.1
v 12617.2 4904.39 5458.44
v 12533.8 4875.14 5478.75
v 12637.7 4938.28 5451.45
v 12555.4 4930.93 5459.88
v 12714.1 4950.69 5472.27
v 12650 5013.08 5491.06
v 12749.5 5009.42 5487.64
v 12796.9 5008.17 5509.33
v 12484.4 4889.79 5487.04
v 12609.5 4876.02 5508.59
v 12703.3 4920.69 5518.74
v 12488.2 4939.57 5494.95
v 12552.8 4993.91 5506.56
v 12760 5075.12 5525.05
v 12428.7 4870.88 5535.68
v 12473.3 4857.74 5533.63
v 12536.6 4848.73 5547.92
v 12439.9 4907.21 5528.2
v 12791.8 4982.71 5539.42
v 12825.7 5089.17 5538.03
v 12601.6 4855.91 5606.46
v 12409.2 4884.13 5668.92
v 12684.6 4894.68 5638.02
v 12455.9 4948.79 5537.13
v 12509.5 5009.73 5545.89
v 12590.1 5092.97 5572.3
v 12839.9 5065.07 5540.23
v 12842.1 5036.5 5554.92
v 12697.8 5113.52 5562.85
v 12417.4 4859.39 5685.48
v 12435.6 4940.43 5629.13
v 12883.6 5127.27 5584.79
v 12801.2 5148 5588.37
v 12441 4850.01 5635.52
v 12557.2 4839.92 5671.87
v 12776.1 4953.41 5649.79
v 12480.8 5015.88 5596.96
v 12860.4 5036.72 5646.28
v 12527 5085.06 5604.55
v 12882.5 5093.31 5598.46
v 12494.9 4839.69 5686.73
v 12502.4 5084.77 5639.07
v 12916.5 5148.61 5630.76
v 12696.1 5168.94 5614.38
v 12892.7 5173.45 5632.47
v 12795.5 5192.34 5634.63
v 12461.1 5014.35 5690.42
v 12912.1 5114.46 5670.72
v 12577.2 5152.47 5647.13
v 12506.5 5094.03 5705.6
v 12922.1 5165.62 5687.35
v 12712.7 5205.03 5660.13
v 12630.7 5206.52 5684.03
v 12835.3 5199.48 5681.8
v 12635.1 4869.69 5734.45
v 12719 4921.64 5794.37
v 12884.5 5059.1 5739.58
v 12577.1 5173.41 5702.28
v 12736.6 5218.79 5697.52
v 12559.9 4854.23 5800.1
v 12436.4 4946.27 5761.5
v 12811.8 4994.52 5766
v 12903.4 5110.08 5757.65
v 12917.8 5149.05 5747.65
v 12534 5115.93 5745.97
v 12655.4 5209.49 5711.52
v 12821.5 5205.78 5731.57
v 12500.5 4845.29 5803.25
v 12461 4856.21 5790.4
v 12422.6 4870.24 5771.44
v 12471.1 5021.76 5752.43
v 12883.4 5167.29 5740.59
v 12594.9 5134.48 5768.94
v 12739.8 5212.31 5727.15
v 12427.6 4892.3 5796.06
v 12500 5057.5 5770.41
v 12690.8 5171.85 5759.42
v 12757 5173.14 5767.91
v 12804.4 5127.02 5808.79
v 12474.1 4986.37 5821.27
v 12526.1 5047.39 5811.35
v 12845.7 5040 5820.21
v 12864 5079.6 5833.56
v 12873 5119.93 5787.67
v 12694 5116.89 5811.29
v 12605.8 5036.84 5862.39
v 12450.6 4881.87 5845.88
v 12638.8 4888.82 5838.07
v 12827.4 5071.48 5855.33
v 12522.8 4860.73 5848.86
v 12454 4916.8 5843.01
v 12760.9 4980.16 5869.38
v 12531.5 4959.83 5882.3
v 12827.3 5052.58 5872.89
v 12721.2 5036.5 5881.34
v 12500.3 4877.99 5875.75
v 12589.2 4899.49 5890.24
v 12674.4 4927.23 5867.03
v 12808.8 5035.54 5873.72
v 12493.4 4904.08 5875.66
v 12628.2 4984.93 5903.79
v 12793.9 5037.09 5880.12
v 12547.3 4915.68 5892.32
v 12752.8 5007.64 5888.2
v 12592.1 4941.45 5902.1
v 12673.1 4969.01 5883.83
vn -0.158972 -0.257501 -0.953111
vn 0.280424 -0.67501 -0.682439
vn -0.0512237 -0.827605 -0.558968
vn 0.0871824 0.101389 -0.991019
vn -0.297597 0.384873 -0.873676
vn 0.492341 -0.453456 -0.742952
vn -0.127419 0.547784 -0.82686
vn 0.246089 0.251942 -0.93593
vn 0.649242 -0.29179 -0.702384
vn -0.514314 -0.239304 -0.823538
vn 0.326854 -0.900713 -0.286153
vn 0.513794 -0.815741 -0.265674
vn -0.531029 0.421421 -0.735128
vn -0.323821 0.589185 -0.740271
vn -0.0085845 0.580515 -0.814204
vn -0.750421 -0.538314 -0.383519
vn -0.218247 -0.913548 -0.343219
vn 0.0724452 -0.977409 -0.198551
vn -0.853406 0.241427 -0.461964
vn 0.675343 -0.685359 -0.272387
vn 0.25004 0.459764 -0.852113
vn 0.341804 -0.935815 -0.0861357
vn -0.998269 0.0565158 -0.0162813
vn 0.488285 -0.871062 -0.0531918
vn -0.763508 0.505472 -0.401937
vn -0.533969 0.604071 -0.591587
vn -0.305241 0.652262 -0.693817
vn 0.664865 -0.0137277 -0.746838
vn 0.813099 -0.438628 -0.382721
vn -0.113023 0.652115 -0.749647
vn -0.69486 -0.718784 0.0227866
vn -0.91286 0.391935 -0.114341
vn 0.577011 0.335756 -0.744531
vn 0.0564002 0.688786 -0.722768
vn -0.316858 -0.94704 -0.0521187
vn 0.173159 -0.984843 0.010012
vn 0.621939 -0.782501 -0.0297199
vn -0.798797 0.507032 -0.323794
vn 0.776769 -0.622221 -0.0973193
vn -0.575204 0.61923 -0.534504
vn 0.867363 -0.314402 -0.38579
vn -0.084366 -0.996434 0.00126798
vn -0.768893 0.59254 -0.240209
vn 0.90998 0.120161 -0.396861
vn -0.145585 0.740727 -0.655842
vn 0.391707 0.789893 -0.471842
vn 0.062479 0.856723 -0.511979
vn -0.899817 0.434725 -0.0366504
vn 0.936737 -0.343078 -0.0694354
vn -0.483184 0.753984 -0.445017
vn -0.793955 0.605427 0.0556205
vn 0.866957 0.496919 0.038169
vn -0.0703984 0.881643 -0.466638
vn -0.306461 0.928278 -0.210672
vn 0.274101 0.955479 -0.109221
vn 0.39173 -0.917046 0.0746645
vn 0.54409 -0.818516 0.184385
vn 0.817538 -0.567592 0.0973219
vn -0.589831 0.789939 0.16762
vn 0.0157369 0.999128 -0.0386799
vn 0.208523 -0.955621 0.208101
vn -0.917884 0.362887 0.160632
vn 0.665573 -0.735878 0.124481
vn 0.928319 -0.185773 0.322045
vn 0.745785 0.38088 0.546566
vn -0.619877 0.65845 0.426844
vn -0.245369 0.876528 0.414117
vn 0.207054 0.881611 0.424135
vn -0.0875954 -0.974085 0.208531
vn -0.354611 -0.902421 0.244721
vn -0.839422 -0.488217 0.238777
vn -0.855556 0.479824 0.194404
vn 0.390078 0.796445 0.462077
vn -0.322383 0.691231 0.646738
vn -0.0493029 0.853154 0.519325
vn -0.952066 0.0822656 0.294624
vn -0.736099 0.56696 0.369749
vn -0.152417 0.696922 0.700763
vn -0.0302656 0.692545 0.720739
vn 0.119341 0.663999 0.738149
vn -0.729406 0.481806 0.485623
vn -0.490235 0.594108 0.637735
vn 0.756372 -0.566321 0.327388
vn 0.772303 0.047863 0.633449
vn 0.469785 0.517993 0.714832
vn -0.114694 0.654823 0.747029
vn -0.249978 0.593312 0.765174
vn -0.712619 -0.360426 0.601887
vn 0.38255 -0.86211 0.332297
vn 0.182852 0.610211 0.770849
vn -0.0219695 -0.903132 0.4288
vn -0.765832 0.263591 0.586534
vn 0.500486 -0.643306 0.579372
vn -0.405733 0.338884 0.848846
vn 0.43801 0.123142 0.890496
vn -0.00826572 0.41836 0.908244
vn -0.259339 -0.591786 0.763238
vn 0.203809 -0.624937 0.753602
vn 0.413445 -0.647836 0.639822
vn 0.567105 -0.419877 0.708587
vn -0.467606 0.0265196 0.883539
vn -0.0170098 0.186567 0.982295
vn 0.146413 0.186203 0.971541
vn -0.195027 -0.115623 0.973959
vn 0.184482 -0.177119 0.966745
vn 0.00193772 -0.113455 0.993541
vn 0.230493 -0.267339 0.93563

g grp1
usemtl mtl1
f 1//1 2//2 3//3 
f 4//4 2//2 1//1 
f 4//4 1//1 5//5 
f 6//6 2//2 4//4 
f 5//5 7//7 4//4 
f 8//8 4//4 7//7 
f 6//6 4//4 8//8 
f 9//9 6//6 8//8 
f 3//3 10//10 1//1 
f 3//3 2//2 11//11 
f 2//2 6//6 12//12 
f 1//1 10//10 5//5 
f 5//5 10//10 13//13 
f 5//5 13//13 14//14 
f 5//5 14//14 7//7 
f 7//7 15//15 8//8 
f 16//16 10//10 17//17 
f 10//10 3//3 17//17 
f 17//17 3//3 18//18 
f 11//11 18//18 3//3 
f 2//2 12//12 11//11 
f 10//10 19//19 13//13 
f 6//6 20//20 12//12 
f 6//6 9//9 20//20 
f 15//15 21//21 8//8 
f 11//11 22//22 18//18 
f 23//23 19//19 16//16 
f 16//16 19//19 10//10 
f 24//24 11//11 12//12 
f 13//13 19//19 25//25 
f 13//13 25//25 26//26 
f 14//14 13//13 26//26 
f 14//14 26//26 27//27 
f 14//14 27//27 7//7 
f 9//9 8//8 28//28 
f 28//28 29//29 9//9 
f 21//21 28//28 8//8 
f 7//7 27//27 30//30 
f 15//15 7//7 30//30 
f 23//23 16//16 31//31 
f 23//23 32//32 19//19 
f 19//19 32//32 25//25 
f 20//20 9//9 29//29 
f 21//21 33//33 28//28 
f 15//15 30//30 34//34 
f 34//34 21//21 15//15 
f 17//17 35//35 16//16 
f 22//22 36//36 18//18 
f 11//11 24//24 22//22 
f 12//12 37//37 24//24 
f 12//12 20//20 37//37 
f 26//26 25//25 38//38 
f 20//20 29//29 39//39 
f 26//26 38//38 40//40 
f 27//27 26//26 40//40 
f 28//28 41//41 29//29 
f 33//33 41//41 28//28 
f 33//33 21//21 34//34 
f 16//16 35//35 31//31 
f 42//42 35//35 17//17 
f 18//18 42//42 17//17 
f 36//36 42//42 18//18 
f 25//25 32//32 38//38 
f 20//20 39//39 37//37 
f 40//40 38//38 43//43 
f 29//29 41//41 39//39 
f 41//41 33//33 44//44 
f 45//45 30//30 27//27 
f 34//34 46//46 33//33 
f 34//34 30//30 45//45 
f 46//46 34//34 47//47 
f 48//48 38//38 32//32 
f 38//38 48//48 43//43 
f 39//39 41//41 49//49 
f 40//40 43//43 50//50 
f 41//41 44//44 49//49 
f 40//40 50//50 27//27 
f 44//44 33//33 46//46 
f 27//27 50//50 45//45 
f 34//34 45//45 47//47 
f 48//48 51//51 43//43 
f 52//52 49//49 44//44 
f 44//44 46//46 52//52 
f 53//53 50//50 54//54 
f 53//53 45//45 50//50 
f 45//45 53//53 47//47 
f 47//47 55//55 46//46 
f 55//55 47//47 53//53 
f 24//24 56//56 22//22 
f 37//37 57//57 24//24 
f 58//58 39//39 49//49 
f 50//50 43//43 51//51 
f 50//50 51//51 59//59 
f 55//55 52//52 46//46 
f 53//53 54//54 60//60 
f 53//53 60//60 55//55 
f 36//36 61//61 42//42 
f 56//56 36//36 22//22 
f 32//32 23//23 62//62 
f 37//37 63//63 57//57 
f 62//62 48//48 32//32 
f 49//49 64//64 58//58 
f 49//49 52//52 64//64 
f 64//64 52//52 65//65 
f 51//51 66//66 59//59 
f 50//50 59//59 54//54 
f 54//54 67//67 60//60 
f 55//55 60//60 68//68 
f 42//42 69//69 70//70 
f 42//42 61//61 69//69 
f 35//35 70//70 31//31 
f 42//42 70//70 35//35 
f 36//36 56//56 61//61 
f 31//31 71//71 23//23 
f 63//63 37//37 39//39 
f 39//39 58//58 63//63 
f 72//72 51//51 48//48 
f 52//52 73//73 65//65 
f 59//59 74//74 67//67 
f 59//59 67//67 54//54 
f 73//73 52//52 55//55 
f 60//60 67//67 75//75 
f 68//68 60//60 75//75 
f 31//31 70//70 71//71 
f 71//71 76//76 23//23 
f 57//57 56//56 24//24 
f 23//23 76//76 62//62 
f 48//48 62//62 72//72 
f 72//72 77//77 51//51 
f 77//77 66//66 51//51 
f 74//74 59//59 66//66 
f 74//74 78//78 67//67 
f 75//75 78//78 79//79 
f 75//75 79//79 68//68 
f 75//75 67//67 78//78 
f 55//55 68//68 73//73 
f 68//68 80//80 73//73 
f 68//68 79//79 80//80 
f 72//72 81//81 77//77 
f 81//81 82//82 77//77 
f 83//83 58//58 64//64 
f 84//84 83//83 64//64 
f 77//77 82//82 66//66 
f 85//85 84//84 64//64 
f 64//64 65//65 85//85 
f 74//74 66//66 82//82 
f 85//85 65//65 73//73 
f 86//86 79//79 78//78 
f 81//81 72//72 62//62 
f 83//83 63//63 58//58 
f 82//82 87//87 74//74 
f 86//86 74//74 87//87 
f 78//78 74//74 86//86 
f 85//85 73//73 80//80 
f 88//88 71//71 70//70 
f 56//56 89//89 61//61 
f 57//57 89//89 56//56 
f 86//86 80//80 79//79 
f 85//85 80//80 90//90 
f 69//69 91//91 70//70 
f 61//61 91//91 69//69 
f 71//71 88//88 76//76 
f 76//76 92//92 62//62 
f 81//81 62//62 92//92 
f 93//93 57//57 63//63 
f 81//81 94//94 82//82 
f 84//84 85//85 90//90 
f 95//95 84//84 90//90 
f 80//80 86//86 96//96 
f 70//70 97//97 88//88 
f 91//91 97//97 70//70 
f 61//61 98//98 91//91 
f 61//61 89//89 98//98 
f 88//88 92//92 76//76 
f 99//99 89//89 57//57 
f 57//57 93//93 99//99 
f 63//63 83//83 93//93 
f 81//81 92//92 94//94 
f 94//94 87//87 82//82 
f 100//100 83//83 84//84 
f 95//95 100//100 84//84 
f 96//96 90//90 80//80 
f 97//97 101//101 88//88 
f 88//88 101//101 92//92 
f 100//100 93//93 83//83 
f 87//87 94//94 102//102 
f 96//96 87//87 102//102 
f 100//100 95//95 103//103 
f 96//96 86//86 87//87 
f 90//90 96//96 103//103 
f 95//95 90//90 103//103 
f 97//97 104//104 101//101 
f 98//98 97//97 91//91 
f 94//94 101//101 104//104 
f 89//89 99//99 98//98 
f 92//92 101//101 94//94 
f 93//93 100//100 105//105 
f 100//100 103//103 105//105 
f 104//104 97//97 98//98 
f 98//98 106//106 104//104 
f 107//107 106//106 98//98 
f 98//98 99//99 107//107 
f 107//107 99//99 93//93 
f 106//106 94//94 104//104 
f 106//106 102//102 94//94 
f 93//93 105//105 107//107 
f 107//107 102//102 106//106 
f 96//96 102//102 107//107 
f 105//105 96//96 107//107 
f 103//103 96//96 105//105 
