# wavefront obj file written by the visualization toolkit


v 6377.73 7073.66 3648.6
v 6327.88 7081.94 3664.13
v 6354.45 7142.99 3647.97
v 6423.73 7088.21 3687.37
v 6304.53 7135.57 3672.54
v 6298.71 7084.33 3688.9
v 6394.94 7140.77 3667.74
v 6384.29 7145.74 3706.9
v 6383.95 7003.62 3715.09
v 6329.3 7142.75 3699.81
v 6339.11 6996.84 3740.43
v 6422.92 7022.85 3718.09
v 6307.5 7043.2 3720.24
v 6424.69 7116.7 3713.44
v 6295.98 7069.5 3732.22
v 6305.84 7100.08 3748.87
v 6459.04 7019.12 3769.81
v 6452.79 7072.57 3763.74
v 6425.44 6974.39 3790.87
v 6426.26 7108.24 3759.26
v 6357.92 7104.26 3788.76
v 6379.5 6963.61 3801.1
v 6460.81 7016.12 3838.16
v 6304.1 7034.65 3809.77
v 6411.7 7100.63 3789.48
v 6329.32 6995.45 3808.49
v 6438.37 7055.2 3829.77
v 6329.39 7058.78 3825.18
v 6419.99 6953.85 3849.22
v 6440.72 6983.17 3832.04
v 6326.44 6992.33 3861.61
v 6403.47 7062.89 3843.36
v 6342.23 6972.83 3869.31
v 6385.19 6970.04 3866.32
v 6334.79 7016.48 3861.11
v 6445.55 6999.46 3879.52
v 6367 7035.69 3858.22
v 6428.55 6983.34 3863.12
v 6371.16 6992.38 3875.4
v 6410.56 7015.63 3867.25
v 6410.81 6993.37 3867.42
v 6413.85 6976.45 7499.46
v 6358.54 6973.99 7499.54
v 6374.94 7007.84 7501.6
v 6416.48 7050.69 7540.68
v 6383.03 6954.67 7531.64
v 6328.15 6988.37 7535.02
v 6438.76 6975.2 7562.46
v 6328.11 7038.08 7545.81
v 6448.34 7018.15 7552.17
v 6360.75 7063.14 7546.51
v 6401.03 6943.65 7562.54
v 6450.39 7068.66 7596.91
v 6371.81 6946.1 7576.02
v 6326.32 7105.02 7594.98
v 6361.91 7109.56 7596.84
v 6330.66 6989.12 7586.2
v 6303.24 7060.99 7613.98
v 6453.17 7038.56 7607.43
v 6390.13 7120.63 7639.26
v 6306.38 7112.45 7630.1
v 6399.14 6965.32 7603.92
v 6352.66 6996.43 7639.33
v 6422.83 7029.79 7656.71
v 6312.68 7070.78 7672.93
v 6328.49 7144.5 7668.71
v 6409.95 7105.77 7686.44
v 6381.95 7019.81 7674.37
v 6308.37 7133.5 7695.46
v 6347.33 7154.31 7716.68
v 6341.26 7073.3 7710.8
v 6379.24 7082.67 7724.12
v 6402.87 7097.74 7715.27
v 6364.76 7142.9 7743.06
v 6323.38 7153.64 7713.8
v 6318.47 7124.14 7727.55
v 6386.2 7120.44 7730.29
v 6333.79 7141.09 7726.56
v 6352.55 7118.42 7732.68
v 6379.02 7116.26 7727.16
vn 0.239707 -0.347349 -0.906581
vn -0.466601 -0.398089 -0.789816
vn 0.0182778 0.606233 -0.795077
vn 0.792846 0.0418479 -0.607983
vn -0.852441 0.408454 -0.326359
vn -0.865 -0.248629 -0.435842
vn 0.614589 0.657308 -0.43615
vn 0.230898 0.958744 0.16582
vn 0.0321695 -0.794125 -0.606903
vn -0.319114 0.929975 0.182516
vn -0.478348 -0.772187 -0.418223
vn 0.581506 -0.543838 -0.605054
vn -0.785353 -0.53148 -0.31741
vn 0.792048 0.602529 -0.0980724
vn -0.993136 -0.116907 -0.00379139
vn -0.749924 0.55165 0.365098
vn 0.897406 -0.338615 -0.282849
vn 0.930174 0.367062 0.00642425
vn 0.487122 -0.802683 -0.34411
vn 0.61752 0.738306 0.271245
vn -0.193033 0.802466 0.564612
vn -0.212332 -0.963856 -0.160924
vn 0.962249 -0.108361 0.249671
vn -0.944009 0.0654401 0.323365
vn 0.274936 0.823447 0.496332
vn -0.714216 -0.697637 -0.0565435
vn 0.570576 0.606667 0.553533
vn -0.516495 0.583442 0.626761
vn 0.398909 -0.890975 0.216876
vn 0.818072 -0.569828 0.0778055
vn -0.773467 -0.20431 0.600006
vn 0.136257 0.658186 0.740422
vn -0.433604 -0.706543 0.559272
vn -0.0635057 -0.773675 0.630392
vn -0.496982 0.340797 0.798039
vn 0.389481 -0.0265604 0.920651
vn -0.151133 0.527697 0.83588
vn 0.506295 -0.57737 0.640554
vn -0.0817064 -0.00824748 0.996622
vn 0.0839931 0.342754 0.935663
vn 0.0428191 -0.265888 0.963052
vn 0.504572 -0.260022 -0.823284
vn -0.453465 -0.316912 -0.833028
vn -0.113388 0.397565 -0.910541
vn 0.395204 0.623129 -0.674925
vn -0.149723 -0.922132 -0.356729
vn -0.852655 -0.44174 -0.279009
vn 0.784597 -0.619996 -0.0035515
vn -0.706098 0.302073 -0.640451
vn 0.917731 0.0763965 -0.389787
vn -0.14631 0.645806 -0.749352
vn 0.314222 -0.949219 0.015738
vn 0.826483 0.528996 -0.192584
vn -0.326802 -0.921918 0.208009
vn -0.382599 0.702411 -0.600197
vn 0.0950713 0.834063 -0.543415
vn -0.771613 -0.6246 0.120365
vn -0.993066 -0.0993265 -0.0628794
vn 0.970995 -0.0796255 0.22545
vn 0.419679 0.867039 -0.268538
vn -0.819956 0.46853 -0.328865
vn 0.283673 -0.79264 0.539677
vn -0.419223 -0.722858 0.549298
vn 0.713359 -0.416844 0.563348
vn -0.84018 -0.397051 0.369389
vn -0.262374 0.913403 -0.311214
vn 0.842695 0.469762 0.263038
vn 0.0893986 -0.693356 0.715028
vn -0.931191 0.317529 0.179049
vn 0.20015 0.960625 0.192716
vn -0.368367 -0.538959 0.757515
vn 0.224665 -0.393597 0.891408
vn 0.684265 -0.121239 0.719085
vn 0.264439 0.362453 0.8937
vn -0.514593 0.808177 0.286433
vn -0.658128 -0.0767318 0.748986
vn 0.634778 0.0892662 0.767521
vn -0.444032 0.442243 0.779267
vn -0.122922 -0.180817 0.975805
vn 0.246715 -0.231067 0.941137

g grp1
usemtl mtl1
f 1//1 2//2 3//3 
f 4//4 1//1 3//3 
f 5//5 2//2 6//6 
f 3//3 2//2 5//5 
f 4//4 3//3 7//7 
f 8//8 7//7 3//3 
f 1//1 9//9 2//2 
f 5//5 10//10 3//3 
f 10//10 8//8 3//3 
f 9//9 11//11 2//2 
f 12//12 9//9 1//1 
f 1//1 4//4 12//12 
f 11//11 13//13 2//2 
f 2//2 13//13 6//6 
f 7//7 14//14 4//4 
f 7//7 8//8 14//14 
f 6//6 15//15 5//5 
f 5//5 16//16 10//10 
f 12//12 4//4 17//17 
f 6//6 13//13 15//15 
f 18//18 17//17 4//4 
f 4//4 14//14 18//18 
f 15//15 16//16 5//5 
f 19//19 9//9 12//12 
f 19//19 12//12 17//17 
f 8//8 20//20 14//14 
f 10//10 16//16 21//21 
f 22//22 11//11 9//9 
f 23//23 17//17 18//18 
f 24//24 16//16 15//15 
f 20//20 18//18 14//14 
f 21//21 25//25 8//8 
f 25//25 20//20 8//8 
f 8//8 10//10 21//21 
f 11//11 22//22 26//26 
f 19//19 22//22 9//9 
f 11//11 26//26 13//13 
f 15//15 26//26 24//24 
f 15//15 13//13 26//26 
f 27//27 18//18 20//20 
f 21//21 16//16 28//28 
f 22//22 19//19 29//29 
f 19//19 17//17 30//30 
f 26//26 31//31 24//24 
f 17//17 23//23 30//30 
f 16//16 24//24 28//28 
f 18//18 27//27 23//23 
f 25//25 27//27 20//20 
f 21//21 32//32 25//25 
f 26//26 33//33 31//31 
f 22//22 34//34 26//26 
f 26//26 34//34 33//33 
f 29//29 19//19 30//30 
f 24//24 35//35 28//28 
f 27//27 36//36 23//23 
f 32//32 27//27 25//25 
f 22//22 29//29 34//34 
f 31//31 35//35 24//24 
f 28//28 37//37 21//21 
f 32//32 21//21 37//37 
f 29//29 38//38 34//34 
f 30//30 38//38 29//29 
f 23//23 38//38 30//30 
f 35//35 31//31 39//39 
f 36//36 38//38 23//23 
f 28//28 35//35 37//37 
f 40//40 36//36 27//27 
f 27//27 32//32 40//40 
f 33//33 39//39 31//31 
f 37//37 40//40 32//32 
f 33//33 34//34 39//39 
f 34//34 38//38 41//41 
f 41//41 39//39 34//34 
f 38//38 36//36 41//41 
f 36//36 40//40 41//41 
f 37//37 35//35 39//39 
f 40//40 37//37 39//39 
f 39//39 41//41 40//40 
f 42//42 43//43 44//44 
f 42//42 44//44 45//45 
f 43//43 46//46 47//47 
f 43//43 42//42 46//46 
f 46//46 42//42 48//48 
f 43//43 49//49 44//44 
f 47//47 49//49 43//43 
f 45//45 50//50 42//42 
f 49//49 51//51 44//44 
f 45//45 44//44 51//51 
f 46//46 48//48 52//52 
f 48//48 42//42 50//50 
f 50//50 45//45 53//53 
f 54//54 46//46 52//52 
f 55//55 51//51 49//49 
f 51//51 56//56 45//45 
f 46//46 57//57 47//47 
f 47//47 57//57 58//58 
f 48//48 50//50 59//59 
f 47//47 58//58 49//49 
f 50//50 53//53 59//59 
f 45//45 56//56 60//60 
f 45//45 60//60 53//53 
f 56//56 51//51 55//55 
f 54//54 57//57 46//46 
f 61//61 49//49 58//58 
f 55//55 49//49 61//61 
f 52//52 62//62 54//54 
f 54//54 63//63 57//57 
f 62//62 63//63 54//54 
f 48//48 62//62 52//52 
f 48//48 64//64 62//62 
f 65//65 58//58 57//57 
f 55//55 61//61 66//66 
f 55//55 66//66 56//56 
f 48//48 59//59 64//64 
f 59//59 53//53 67//67 
f 67//67 53//53 60//60 
f 60//60 56//56 66//66 
f 62//62 68//68 63//63 
f 63//63 65//65 57//57 
f 58//58 69//69 61//61 
f 68//68 62//62 64//64 
f 58//58 65//65 69//69 
f 69//69 66//66 61//61 
f 60//60 66//66 70//70 
f 71//71 63//63 68//68 
f 63//63 71//71 65//65 
f 64//64 72//72 68//68 
f 64//64 59//59 67//67 
f 60//60 70//70 67//67 
f 73//73 64//64 67//67 
f 74//74 67//67 70//70 
f 75//75 66//66 69//69 
f 70//70 66//66 75//75 
f 71//71 68//68 72//72 
f 64//64 73//73 72//72 
f 65//65 76//76 69//69 
f 67//67 77//77 73//73 
f 67//67 74//74 77//77 
f 65//65 71//71 76//76 
f 76//76 78//78 69//69 
f 78//78 75//75 69//69 
f 71//71 72//72 79//79 
f 71//71 79//79 76//76 
f 72//72 80//80 79//79 
f 73//73 80//80 72//72 
f 73//73 77//77 80//80 
f 78//78 76//76 79//79 
f 77//77 74//74 80//80 
f 78//78 74//74 70//70 
f 70//70 75//75 78//78 
f 80//80 74//74 79//79 
f 74//74 78//78 79//79 
