# wavefront obj file written by the visualization toolkit


v 8677.82 3123.98 3645.46
v 8748.41 3131.5 3648.32
v 8684.22 3098.68 3684.87
v 8732.86 3163.2 3637.95
v 8666.21 3155.96 3666.7
v 8768.02 3164.61 3657.26
v 8716.68 3171.48 3674.75
v 8739.88 3112.66 3664.29
v 8775.27 3154.02 3670.96
v 8606.79 3102.69 3712.85
v 8722.94 3122.08 3690.25
v 8617.62 3128.78 3704.19
v 8753.57 3168.37 3678.2
v 8638.73 3148.61 3721.26
v 8704.97 3158.28 3709.43
v 8631.78 3089.49 3736.67
v 8602.48 3094.72 3740.77
v 8600.19 3106.03 3748.72
v 8709.38 3145.79 3709.39
v 8632.22 3105.58 3749.17
v 8634.81 3131.74 3742.97
v 8606.15 3096.97 3751.55
v 8607.48 3119.03 3751.34
v 8613.52 3112.51 3745.6
v 8582.36 3103.91 7622.49
v 8592.78 3096.16 7647.09
v 8594.29 3120.85 7649.85
v 8646.34 3110.2 7650.74
v 8689.21 3134.63 7657.39
v 8659.95 3150.16 7669.7
v 8668.39 3099.31 7676.72
v 8620.94 3121.19 7695.14
v 8687.04 3113.87 7717.25
v 8731.41 3118.12 7683.95
v 8768.6 3141.1 7695.98
v 8663.48 3155.21 7709.94
v 8739.54 3162.62 7699.19
v 8740.43 3116.34 7708.1
v 8772.15 3134.66 7715.23
v 8718.57 3171.9 7715.12
v 8675.23 3137.22 7739.99
v 8771.01 3156.73 7724.34
v 8752.9 3170.91 7735.67
v 8752.94 3144.9 7733.4
v 8686.95 3148.4 7740.81
v 8728.84 3162.37 7739.98
v 8748.8 3158.54 7740.53
v 8711.96 3147.5 7733.58
vn -0.377367 -0.239299 -0.894612
vn 0.614082 -0.510263 -0.602108
vn 0.0540383 -0.963959 -0.260505
vn 0.0181061 0.519395 -0.854342
vn -0.489714 0.727635 -0.480342
vn 0.637864 0.660452 -0.396149
vn -0.0470886 0.998886 -0.00317423
vn 0.677018 -0.721164 0.146865
vn 0.901847 -0.114099 0.416718
vn -0.771503 -0.417801 -0.479818
vn 0.619695 -0.550226 0.559669
vn -0.813803 0.433226 -0.38735
vn 0.447872 0.727219 0.520158
vn -0.409226 0.876779 0.252571
vn 0.172047 0.715456 0.677143
vn 0.209607 -0.878318 0.429677
vn -0.543024 -0.838593 0.0434425
vn -0.891831 0.141905 0.429536
vn 0.482166 0.0689663 0.873361
vn 0.301001 -0.16216 0.939735
vn 0.143648 0.380484 0.913563
vn -0.2457 -0.368907 0.896403
vn -0.252943 0.312395 0.915658
vn -0.0377774 0.0239039 0.999
vn -0.295542 0.0681629 -0.952895
vn -0.489688 -0.861844 0.132023
vn -0.834321 0.537382 0.123
vn 0.273619 -0.684441 -0.675777
vn 0.332683 0.168895 -0.927791
vn -0.146311 0.88365 -0.444696
vn 0.161763 -0.979775 -0.117789
vn -0.708817 -0.0416037 0.704165
vn -0.0405849 -0.766966 0.640402
vn 0.467261 -0.691117 -0.551385
vn 0.765337 0.0873112 -0.63768
vn -0.464534 0.820802 0.332402
vn 0.332342 0.807504 -0.487325
vn 0.319001 -0.911049 0.261207
vn 0.790963 -0.595428 0.140867
vn -0.122152 0.991731 0.0393549
vn -0.156147 -0.337806 0.928173
vn 0.894899 0.309646 0.321364
vn 0.320892 0.856877 0.403473
vn 0.326215 -0.483867 0.812069
vn -0.296769 0.2972 0.907525
vn -0.134245 0.528661 0.838151
vn 0.273292 0.0194705 0.961734
vn 0.0720885 -0.31157 0.947485

g grp1
usemtl mtl1
f 1//1 2//2 3//3 
f 4//4 1//1 5//5 
f 2//2 1//1 4//4 
f 4//4 6//6 2//2 
f 7//7 4//4 5//5 
f 6//6 4//4 7//7 
f 2//2 8//8 3//3 
f 6//6 9//9 2//2 
f 3//3 10//10 1//1 
f 11//11 2//2 9//9 
f 1//1 12//12 5//5 
f 10//10 12//12 1//1 
f 2//2 11//11 8//8 
f 6//6 13//13 9//9 
f 12//12 14//14 5//5 
f 5//5 14//14 7//7 
f 7//7 13//13 6//6 
f 7//7 15//15 13//13 
f 8//8 11//11 3//3 
f 3//3 11//11 16//16 
f 7//7 14//14 15//15 
f 3//3 17//17 10//10 
f 10//10 17//17 18//18 
f 10//10 18//18 12//12 
f 11//11 9//9 19//19 
f 12//12 18//18 14//14 
f 9//9 13//13 19//19 
f 13//13 15//15 19//19 
f 3//3 16//16 17//17 
f 16//16 11//11 20//20 
f 11//11 19//19 20//20 
f 14//14 21//21 15//15 
f 21//21 19//19 15//15 
f 16//16 22//22 17//17 
f 19//19 21//21 20//20 
f 14//14 18//18 23//23 
f 23//23 21//21 14//14 
f 17//17 22//22 18//18 
f 16//16 20//20 22//22 
f 22//22 20//20 24//24 
f 22//22 24//24 18//18 
f 18//18 24//24 23//23 
f 20//20 21//21 24//24 
f 21//21 23//23 24//24 
f 25//25 26//26 27//27 
f 26//26 25//25 28//28 
f 29//29 28//28 25//25 
f 29//29 25//25 30//30 
f 28//28 31//31 26//26 
f 27//27 30//30 25//25 
f 26//26 32//32 27//27 
f 33//33 32//32 26//26 
f 28//28 34//34 31//31 
f 29//29 34//34 28//28 
f 34//34 29//29 35//35 
f 36//36 30//30 27//27 
f 35//35 29//29 37//37 
f 30//30 37//37 29//29 
f 31//31 34//34 38//38 
f 38//38 34//34 39//39 
f 39//39 34//34 35//35 
f 30//30 36//36 40//40 
f 37//37 30//30 40//40 
f 26//26 31//31 33//33 
f 33//33 41//41 32//32 
f 27//27 32//32 36//36 
f 35//35 37//37 42//42 
f 40//40 43//43 37//37 
f 31//31 38//38 33//33 
f 39//39 35//35 42//42 
f 43//43 42//42 37//37 
f 39//39 44//44 38//38 
f 44//44 39//39 42//42 
f 36//36 32//32 45//45 
f 45//45 46//46 36//36 
f 36//36 46//46 40//40 
f 47//47 42//42 43//43 
f 43//43 40//40 46//46 
f 38//38 44//44 33//33 
f 32//32 41//41 45//45 
f 46//46 47//47 43//43 
f 33//33 44//44 48//48 
f 41//41 33//33 48//48 
f 48//48 45//45 41//41 
f 44//44 42//42 47//47 
f 44//44 47//47 48//48 
f 48//48 46//46 45//45 
f 47//47 46//46 48//48 
