# wavefront obj file written by the visualization toolkit


v 10367.2 4156.92 5296.17
v 10330.7 4059.69 5328.02
v 10315.3 4126.8 5313.84
v 10423.2 4103.36 5318.78
v 10445.1 4213.01 5312.11
v 10311.3 4190.91 5330.2
v 10388.3 4252.03 5323.83
v 10272 4097.45 5353.01
v 10396.8 3990.54 5368.75
v 10488.8 4157.44 5332.45
v 10513.7 4254.69 5343.28
v 10345 4270.03 5353.52
v 10465.4 4301.89 5346.75
v 10417.6 4328.04 5373.17
v 10301.6 3975.93 5394.11
v 10484.4 4068.67 5367.73
v 10249.8 4135.07 5379.88
v 10553.3 4178.2 5382.61
v 10291.9 4224.59 5390.58
v 10531.4 4326 5373.63
v 10360.2 3929.53 5428.66
v 10260.7 4028.54 5386.66
v 10539.3 4070.8 5417.75
v 10571.7 4290.71 5395.2
v 10492 4367.81 5409.53
v 10425.1 4363.75 5412.48
v 10435.5 3940.34 5438.39
v 10474.6 4007 5411.87
v 10229.3 4064.48 5412.43
v 10243.7 4156.32 5453.87
v 10612.3 4262.55 5442.65
v 10367 4320.31 5418.35
v 10559.4 4344.19 5413.54
v 10591.2 4328.79 5438.1
v 10298.6 3931.92 5468.01
v 10242.9 3997.9 5455.18
v 10588.5 4161.52 5442.19
v 10306.6 4264.02 5461.48
v 10355.2 3912.29 5470.12
v 10394.1 3921.03 5493.87
v 10511.3 4003.82 5468.86
v 10221.1 4062.61 5493.22
v 10557.8 4370.42 5464.22
v 10425.4 4371.55 5452.97
v 10480.9 4383.02 5486.13
v 10457.5 3952.58 5495.34
v 10571.6 4100.67 5470.45
v 10606.6 4186.53 5502.35
v 10602 4330.94 5485.58
v 10357.3 4318.77 5514.09
v 10341.6 3919.56 5501.67
v 10252.3 3962.72 5506.12
v 10500.6 3988.12 5526.04
v 10238.8 4139.12 5542.77
v 10613.3 4278.29 5508.43
v 10299.4 3939.93 5518.5
v 10234.3 4006.11 5517.84
v 10553.3 4078.34 5529.82
v 10289.6 4226.96 5531.12
v 10573 4356.69 5524.3
v 10419.7 4360.67 5520.08
v 10516.2 4366.63 5538.35
v 10587.8 4309.6 5551.6
v 10452.9 4351.98 5562.16
v 10344.4 3949.58 5555.79
v 10439.8 3974.91 5555.52
v 10277.7 3984.69 5556.89
v 10507.9 4035.69 5571.28
v 10243.9 4063.28 5560.29
v 10586.3 4159.77 5556.29
v 10583.5 4218.24 5570.85
v 10396.3 4323.04 5569.33
v 10250.6 4130.89 5583.41
v 10285.6 4183.87 5600.01
v 10349.4 4264.05 5585.94
v 10312.8 4002.26 5604.78
v 10281.6 4045.92 5602.27
v 10523.6 4115.01 5604.04
v 10524.1 4320.89 5589.15
v 10479.5 4334.45 5583.38
v 10389.6 4029.42 5620.28
v 10461.2 4041.6 5601.65
v 10278.5 4109.08 5608.73
v 10528.4 4206.55 5627.64
v 10543 4261.91 5600.23
v 10349.8 4224.55 5632.94
v 10431.1 4287.57 5606.74
v 10324.3 4078.61 5627.99
v 10444 4092.86 5638.28
v 10337.1 4158.26 5637.47
v 10483.5 4241.08 5630.08
v 10393.1 4120.51 5647.1
v 10463.4 4165.72 5636.52
v 10408.1 4199.83 5630.85
v 10344.9 4000.52 5766.25
v 10311.4 4069.61 5750.03
v 10405.3 4100.45 5736.66
v 10354.5 4161.05 5734.98
v 10423.7 4207 5731.08
v 10496.6 4183.04 5742.99
v 10357.2 4225.31 5747.87
v 10502.2 4277.52 5758.23
v 10425.7 3990.25 5790.67
v 10496 4086.6 5773.9
v 10294.1 4144.04 5769.74
v 10560 4160.88 5787.93
v 10565.1 4257.46 5788.9
v 10428.1 4287.31 5762.43
v 10375.4 4292.09 5779.3
v 10377 3937.59 5832.22
v 10283.8 3998.68 5794.06
v 10491.9 4006.9 5822.38
v 10246.6 4050.5 5812.98
v 10534.8 4068.16 5821.85
v 10315 4232.47 5792.73
v 10251.8 4150.36 5840.1
v 10566.1 4329.34 5815.38
v 10425.9 4347 5807.71
v 10497.5 4340.48 5807.89
v 10311.2 3950.65 5836.21
v 10579.5 4114.05 5862.59
v 10603.2 4224.74 5837.32
v 10361.8 4313.61 5828.23
v 10601.8 4293.04 5839.35
v 10255.4 3979.14 5856.3
v 10418.2 3936.5 5843.34
v 10456.7 3956.84 5864.04
v 10212.4 4064.93 5871.99
v 10303.8 4261.2 5876.32
v 10547.2 4374.67 5865.35
v 10413.8 4369.57 5867.89
v 10470.1 4376.25 5866.6
v 10615.3 4187.51 5888.8
v 10594.4 4338.76 5879.9
v 10344.5 3918.32 5878.58
v 10406.2 3931.05 5895.78
v 10301.7 3935.38 5902.04
v 10515 4017.49 5875.3
v 10218.1 4014.64 5889.47
v 10250.7 4188.56 5918.13
v 10612.3 4264.24 5898.55
v 10363 4331.59 5911.13
v 10254.6 3973.54 5938.08
v 10202.5 4048.36 5919.24
v 10223.4 4111.55 5917.91
v 10438.1 4375.68 5923.83
v 10516.2 4383.76 5927.33
v 10357.7 3926.67 5925.41
v 10480.3 3990.37 5940.61
v 10217.1 4026.27 5942.23
v 10564.2 4095.42 5934.29
v 10597.8 4147.46 5904.35
v 10603.1 4191.08 5929.54
v 10299.5 4251.17 5967.21
v 10563 4368.55 5920.12
v 10605 4260.1 5956.17
v 10584.7 4324 5938.77
v 10329.6 3942.75 5958.15
v 10400 3970.19 5976.57
v 10219.6 4077.28 5963.82
v 10248.2 4154 5972.68
v 10548.7 4355.32 5967.48
v 10292.9 3986.34 6002.98
v 10250.4 4044.18 5996.44
v 10524.2 4101.7 6007.1
v 10574 4193.6 5979.02
v 10558.2 4282.3 5996.91
v 10391.7 4322.99 5995.73
v 10482.6 4354.04 5981.05
v 10350.9 3990.54 6014.11
v 10251 4116.18 6007.93
v 10288.7 4040.28 6034.23
v 10461.2 4043.44 6012.59
v 10283.5 4190.21 6022.63
v 10337.9 4260.39 6027.73
v 10508.3 4324.79 6012.46
v 10325.9 4051.34 6048.9
v 10397.6 4070.97 6049.07
v 10524 4202.8 6034.92
v 10397.3 4281.83 6053.75
v 10456.6 4313.43 6022.54
v 10295.2 4117.08 6041.16
v 10471.6 4137.55 6048.75
v 10477.2 4267.63 6042.86
v 10342.5 4206.89 6058.66
v 10458.5 4203.14 6068.26
v 10362.1 4142.52 6068.46
v 10417.9 4158.97 6067.64
v 10409.6 4209.82 6059.11
vn -0.112208 0.0238434 -0.993399
vn -0.24764 -0.389915 -0.886928
vn -0.480127 -0.0527747 -0.87561
vn 0.264158 -0.300822 -0.916366
vn 0.215021 0.121357 -0.96904
vn -0.599133 0.304794 -0.740365
vn -0.188613 0.433105 -0.881388
vn -0.684651 -0.0985812 -0.722174
vn 0.213371 -0.595233 -0.774707
vn 0.496533 -0.172687 -0.850667
vn 0.479097 0.126505 -0.868598
vn -0.549669 0.601637 -0.579566
vn 0.0790752 0.501927 -0.861288
vn -0.266843 0.698223 -0.664289
vn -0.407145 -0.656261 -0.635259
vn 0.540392 -0.422896 -0.727417
vn -0.860834 0.238552 -0.449508
vn 0.718246 -0.178495 -0.672505
vn -0.796455 0.524338 -0.301212
vn 0.394323 0.498486 -0.772023
vn 0.00709799 -0.873714 -0.486388
vn -0.665466 -0.402706 -0.628477
vn 0.748545 -0.452615 -0.484582
vn 0.705991 0.190501 -0.682119
vn 0.0719532 0.873879 -0.48079
vn -0.343896 0.849388 -0.400344
vn 0.466802 -0.804567 -0.367107
vn 0.579533 -0.576741 -0.575771
vn -0.932499 -0.0887467 -0.3501
vn -0.92593 0.371675 -0.0671608
vn 0.942239 0.0252346 -0.333991
vn -0.643766 0.725376 -0.243713
vn 0.537101 0.643951 -0.544839
vn 0.780407 0.477896 -0.403211
vn -0.474543 -0.860801 -0.183933
vn -0.839225 -0.474567 -0.265494
vn 0.891654 -0.285479 -0.351361
vn -0.799442 0.599607 -0.0369306
vn -0.0435942 -0.993279 -0.107217
vn 0.268608 -0.947497 0.173494
vn 0.761365 -0.624225 -0.175119
vn -0.997778 -0.0324207 0.0582093
vn 0.434274 0.893008 -0.118077
vn -0.384196 0.920696 -0.0686525
vn -0.047941 0.993812 0.100198
vn 0.530097 -0.836587 0.138272
vn 0.891395 -0.441469 -0.102569
vn 0.968832 -0.230208 0.0914847
vn 0.879881 0.474268 0.0296568
vn -0.671202 0.719282 0.179224
vn -0.159002 -0.944574 0.287225
vn -0.722527 -0.666954 0.182008
vn 0.670458 -0.68303 0.289752
vn -0.931054 0.289211 0.222474
vn 0.971608 0.0865492 0.220198
vn -0.396079 -0.83026 0.392161
vn -0.905799 -0.323164 0.274033
vn 0.848447 -0.462075 0.258118
vn -0.80086 0.560379 0.211185
vn 0.541861 0.745333 0.388413
vn -0.388729 0.880424 0.271557
vn 0.145193 0.885804 0.440762
vn 0.750151 0.325713 0.575487
vn -0.171916 0.810194 0.560384
vn -0.0593013 -0.787494 0.613463
vn 0.335362 -0.728702 0.597098
vn -0.59681 -0.544485 0.589368
vn 0.595307 -0.521622 0.611163
vn -0.856043 -0.147686 0.495357
vn 0.847799 -0.278013 0.451603
vn 0.808459 -0.0204382 0.588198
vn -0.44173 0.692237 0.570686
vn -0.827928 0.116026 0.548701
vn -0.698993 0.392176 0.598002
vn -0.578686 0.621236 0.528382
vn -0.303467 -0.49734 0.812749
vn -0.615667 -0.254301 0.745845
vn 0.585121 -0.302935 0.75224
vn 0.273779 0.526052 0.80518
vn -0.00126851 0.66428 0.747483
vn 0.0953488 -0.481449 0.871272
vn 0.379004 -0.508211 0.773355
vn -0.596201 -0.0154378 0.802687
vn 0.454348 0.0223947 0.890543
vn 0.519268 0.252197 0.816552
vn -0.298603 0.391264 0.870488
vn -0.14866 0.498467 0.854067
vn -0.280036 -0.173966 0.944095
vn 0.276661 -0.266002 0.923419
vn -0.294108 0.0833672 0.952129
vn 0.10477 0.262418 0.95925
vn -0.024776 -0.0483797 0.998522
vn 0.166976 -0.0049597 0.985949
vn -0.00936574 0.186574 0.982396
vn -0.098127 -0.559603 -0.822931
vn -0.420748 -0.147991 -0.895025
vn 0.112845 -0.227638 -0.967185
vn -0.282758 0.0679913 -0.956779
vn -0.00202806 0.1639 -0.986475
vn 0.377919 -0.0667344 -0.92343
vn -0.405727 0.349652 -0.844469
vn 0.243905 0.373497 -0.894992
vn 0.344624 -0.592413 -0.728205
vn 0.481419 -0.382445 -0.788652
vn -0.685837 0.193357 -0.701599
vn 0.716395 -0.241542 -0.65455
vn 0.648414 0.109755 -0.753335
vn -0.0839058 0.511286 -0.855305
vn -0.463154 0.587982 -0.663149
vn 0.0327481 -0.868351 -0.494867
vn -0.54831 -0.503979 -0.667354
vn 0.633111 -0.600485 -0.488456
vn -0.807628 -0.126374 -0.575993
vn 0.743912 -0.481794 -0.463108
vn -0.735151 0.468625 -0.48984
vn -0.872681 0.338936 -0.351496
vn 0.53177 0.547664 -0.645976
vn -0.219562 0.787221 -0.57626
vn 0.0999209 0.734446 -0.671271
vn -0.369949 -0.80286 -0.467498
vn 0.872146 -0.439423 -0.215103
vn 0.909133 -0.0805143 -0.408651
vn -0.651527 0.686931 -0.321929
vn 0.887977 0.217328 -0.405298
vn -0.692841 -0.651232 -0.309626
vn 0.33794 -0.870407 -0.358034
vn 0.606588 -0.776546 -0.170376
vn -0.948344 0.0828218 -0.306241
vn -0.799796 0.580983 -0.150947
vn 0.327156 0.894416 -0.304941
vn -0.41022 0.894792 -0.176258
vn -0.0409568 0.961318 -0.272379
vn 0.980961 -0.193529 -0.0161774
vn 0.842506 0.531247 -0.0892219
vn -0.105787 -0.98574 -0.130866
vn 0.320049 -0.939659 0.120873
vn -0.443221 -0.895549 0.0393413
vn 0.783273 -0.617959 -0.0679015
vn -0.877363 -0.446064 -0.176808
vn -0.892338 0.45134 0.00502049
vn 0.990841 0.125243 0.0504913
vn -0.653229 0.753635 0.0729845
vn -0.66146 -0.697507 0.275597
vn -0.996815 -0.0415635 0.0680553
vn -0.945603 0.325034 0.013741
vn -0.275286 0.938957 0.206344
vn 0.104844 0.974395 0.198901
vn 0.0345367 -0.944836 0.325718
vn 0.614113 -0.699438 0.365586
vn -0.84783 -0.389568 0.359751
vn 0.832597 -0.466142 0.299156
vn 0.903009 -0.396807 0.164681
vn 0.914357 -0.203512 0.350049
vn -0.767431 0.598166 0.230754
vn 0.602102 0.775557 0.189694
vn 0.884492 0.0834456 0.459033
vn 0.832575 0.410771 0.3716
vn -0.157183 -0.857005 0.49075
vn 0.297521 -0.735759 0.608391
vn -0.911594 0.0826766 0.402691
vn -0.889704 0.360443 0.280192
vn 0.466136 0.672959 0.574321
vn -0.391954 -0.609089 0.68948
vn -0.718279 -0.266261 0.642791
vn 0.647213 -0.37905 0.661389
vn 0.777055 -0.175064 0.604597
vn 0.629312 0.223501 0.744321
vn -0.408636 0.785599 0.464598
vn -0.0413944 0.818498 0.573017
vn 0.0795145 -0.62807 0.774083
vn -0.775629 0.100092 0.623203
vn -0.502545 -0.260107 0.824496
vn 0.40705 -0.521005 0.750243
vn -0.72564 0.335607 0.600678
vn -0.59354 0.561055 0.576999
vn 0.251254 0.533802 0.80742
vn -0.150385 -0.317477 0.936265
vn 0.199545 -0.384025 0.901502
vn 0.565585 -0.0248362 0.824316
vn -0.141002 0.470448 0.87109
vn -0.00604242 0.653137 0.757216
vn -0.513098 0.00224896 0.858327
vn 0.364846 -0.268979 0.891369
vn 0.242359 0.304859 0.921045
vn -0.351241 0.205789 0.91339
vn 0.186519 0.0706171 0.97991
vn -0.112276 -0.0343387 0.993084
vn 0.0752632 -0.086644 0.993392
vn -0.0316824 0.171616 0.984654

g grp1
usemtl mtl1
f 1//1 2//2 3//3 
f 4//4 2//2 1//1 
f 4//4 1//1 5//5 
f 1//1 3//3 6//6 
f 6//6 7//7 1//1 
f 5//5 1//1 7//7 
f 3//3 2//2 8//8 
f 4//4 9//9 2//2 
f 3//3 8//8 6//6 
f 10//10 4//4 5//5 
f 10//10 5//5 11//11 
f 12//12 7//7 6//6 
f 7//7 13//13 5//5 
f 11//11 5//5 13//13 
f 14//14 7//7 12//12 
f 13//13 7//7 14//14 
f 9//9 15//15 2//2 
f 9//9 4//4 16//16 
f 4//4 10//10 16//16 
f 17//17 6//6 8//8 
f 18//18 10//10 11//11 
f 6//6 17//17 19//19 
f 12//12 6//6 19//19 
f 13//13 20//20 11//11 
f 9//9 21//21 15//15 
f 2//2 15//15 22//22 
f 2//2 22//22 8//8 
f 23//23 16//16 18//18 
f 18//18 16//16 10//10 
f 18//18 11//11 24//24 
f 11//11 20//20 24//24 
f 25//25 14//14 26//26 
f 13//13 14//14 25//25 
f 20//20 13//13 25//25 
f 21//21 9//9 27//27 
f 27//27 9//9 28//28 
f 9//9 16//16 28//28 
f 8//8 22//22 29//29 
f 17//17 8//8 29//29 
f 30//30 17//17 29//29 
f 19//19 17//17 30//30 
f 24//24 31//31 18//18 
f 12//12 19//19 32//32 
f 24//24 20//20 33//33 
f 33//33 34//34 24//24 
f 32//32 14//14 12//12 
f 26//26 14//14 32//32 
f 15//15 35//35 36//36 
f 35//35 15//15 21//21 
f 15//15 36//36 22//22 
f 28//28 16//16 23//23 
f 37//37 23//23 18//18 
f 37//37 18//18 31//31 
f 24//24 34//34 31//31 
f 32//32 19//19 38//38 
f 25//25 33//33 20//20 
f 35//35 21//21 39//39 
f 27//27 40//40 21//21 
f 41//41 28//28 23//23 
f 29//29 22//22 36//36 
f 29//29 36//36 42//42 
f 30//30 29//29 42//42 
f 30//30 38//38 19//19 
f 34//34 33//33 43//43 
f 26//26 32//32 44//44 
f 26//26 44//44 25//25 
f 25//25 44//44 45//45 
f 40//40 39//39 21//21 
f 27//27 46//46 40//40 
f 27//27 41//41 46//46 
f 28//28 41//41 27//27 
f 37//37 47//47 23//23 
f 47//47 37//37 48//48 
f 37//37 31//31 48//48 
f 31//31 34//34 49//49 
f 32//32 50//50 44//44 
f 33//33 25//25 43//43 
f 25//25 45//45 43//43 
f 39//39 51//51 35//35 
f 35//35 52//52 36//36 
f 53//53 46//46 41//41 
f 47//47 41//41 23//23 
f 42//42 54//54 30//30 
f 55//55 48//48 31//31 
f 31//31 49//49 55//55 
f 32//32 38//38 50//50 
f 34//34 43//43 49//49 
f 40//40 51//51 39//39 
f 56//56 35//35 51//51 
f 56//56 52//52 35//35 
f 57//57 36//36 52//52 
f 36//36 57//57 42//42 
f 58//58 41//41 47//47 
f 30//30 59//59 38//38 
f 38//38 59//59 50//50 
f 43//43 60//60 49//49 
f 44//44 50//50 61//61 
f 44//44 61//61 45//45 
f 43//43 45//45 62//62 
f 62//62 60//60 43//43 
f 53//53 41//41 58//58 
f 47//47 48//48 58//58 
f 54//54 59//59 30//30 
f 55//55 49//49 63//63 
f 63//63 49//49 60//60 
f 61//61 64//64 45//45 
f 45//45 64//64 62//62 
f 51//51 65//65 56//56 
f 40//40 65//65 51//51 
f 40//40 66//66 65//65 
f 46//46 66//66 40//40 
f 56//56 67//67 52//52 
f 53//53 66//66 46//46 
f 53//53 68//68 66//66 
f 52//52 67//67 57//57 
f 42//42 69//69 54//54 
f 58//58 48//48 70//70 
f 70//70 48//48 71//71 
f 48//48 55//55 71//71 
f 71//71 55//55 63//63 
f 50//50 72//72 61//61 
f 65//65 67//67 56//56 
f 68//68 53//53 58//58 
f 57//57 67//67 69//69 
f 42//42 57//57 69//69 
f 69//69 73//73 54//54 
f 73//73 74//74 54//54 
f 59//59 54//54 74//74 
f 75//75 50//50 59//59 
f 75//75 72//72 50//50 
f 61//61 72//72 64//64 
f 76//76 67//67 65//65 
f 77//77 69//69 67//67 
f 78//78 68//68 58//58 
f 58//58 70//70 78//78 
f 71//71 78//78 70//70 
f 74//74 75//75 59//59 
f 60//60 79//79 63//63 
f 62//62 64//64 80//80 
f 79//79 62//62 80//80 
f 60//60 62//62 79//79 
f 76//76 65//65 81//81 
f 81//81 65//65 66//66 
f 67//67 76//76 77//77 
f 66//66 68//68 82//82 
f 68//68 78//78 82//82 
f 69//69 83//83 73//73 
f 83//83 74//74 73//73 
f 84//84 78//78 71//71 
f 85//85 84//84 71//71 
f 71//71 63//63 85//85 
f 85//85 63//63 79//79 
f 66//66 82//82 81//81 
f 69//69 77//77 83//83 
f 74//74 86//86 75//75 
f 87//87 79//79 80//80 
f 87//87 64//64 72//72 
f 80//80 64//64 87//87 
f 76//76 88//88 77//77 
f 88//88 76//76 81//81 
f 81//81 82//82 89//89 
f 83//83 77//77 88//88 
f 88//88 90//90 83//83 
f 78//78 89//89 82//82 
f 83//83 90//90 74//74 
f 74//74 90//90 86//86 
f 91//91 84//84 85//85 
f 75//75 86//86 87//87 
f 85//85 79//79 91//91 
f 75//75 87//87 72//72 
f 87//87 91//91 79//79 
f 92//92 88//88 81//81 
f 89//89 92//92 81//81 
f 93//93 92//92 89//89 
f 89//89 78//78 93//93 
f 90//90 88//88 92//92 
f 78//78 84//84 93//93 
f 92//92 94//94 90//90 
f 94//94 86//86 90//90 
f 93//93 84//84 91//91 
f 87//87 86//86 94//94 
f 91//91 87//87 94//94 
f 93//93 94//94 92//92 
f 91//91 94//94 93//93 
f 95//95 96//96 97//97 
f 97//97 96//96 98//98 
f 97//97 98//98 99//99 
f 100//100 97//97 99//99 
f 99//99 98//98 101//101 
f 100//100 99//99 102//102 
f 103//103 95//95 97//97 
f 97//97 104//104 103//103 
f 97//97 100//100 104//104 
f 98//98 96//96 105//105 
f 106//106 104//104 100//100 
f 105//105 101//101 98//98 
f 100//100 102//102 107//107 
f 99//99 101//101 108//108 
f 108//108 101//101 109//109 
f 102//102 99//99 108//108 
f 95//95 103//103 110//110 
f 95//95 111//111 96//96 
f 112//112 103//103 104//104 
f 113//113 96//96 111//111 
f 112//112 104//104 114//114 
f 96//96 113//113 105//105 
f 104//104 106//106 114//114 
f 115//115 105//105 116//116 
f 105//105 115//115 101//101 
f 100//100 107//107 106//106 
f 101//101 115//115 109//109 
f 117//117 107//107 102//102 
f 118//118 108//108 109//109 
f 119//119 108//108 118//118 
f 102//102 108//108 119//119 
f 117//117 102//102 119//119 
f 95//95 110//110 120//120 
f 95//95 120//120 111//111 
f 105//105 113//113 116//116 
f 121//121 114//114 106//106 
f 122//122 106//106 107//107 
f 109//109 115//115 123//123 
f 117//117 124//124 107//107 
f 123//123 118//118 109//109 
f 111//111 120//120 125//125 
f 103//103 126//126 110//110 
f 126//126 103//103 127//127 
f 127//127 103//103 112//112 
f 113//113 111//111 125//125 
f 128//128 116//116 113//113 
f 116//116 129//129 115//115 
f 121//121 106//106 122//122 
f 107//107 124//124 122//122 
f 117//117 119//119 130//130 
f 118//118 123//123 131//131 
f 119//119 118//118 132//132 
f 133//133 121//121 122//122 
f 115//115 129//129 123//123 
f 117//117 130//130 134//134 
f 124//124 117//117 134//134 
f 118//118 131//131 132//132 
f 130//130 119//119 132//132 
f 110//110 135//135 120//120 
f 126//126 136//136 110//110 
f 110//110 136//136 135//135 
f 120//120 137//137 125//125 
f 138//138 127//127 112//112 
f 113//113 125//125 139//139 
f 112//112 114//114 138//138 
f 113//113 139//139 128//128 
f 121//121 138//138 114//114 
f 116//116 140//140 129//129 
f 133//133 122//122 141//141 
f 122//122 124//124 141//141 
f 123//123 129//129 142//142 
f 120//120 135//135 137//137 
f 126//126 127//127 136//136 
f 125//125 137//137 143//143 
f 125//125 143//143 139//139 
f 139//139 144//144 128//128 
f 128//128 145//145 116//116 
f 141//141 124//124 134//134 
f 131//131 123//123 142//142 
f 132//132 131//131 146//146 
f 130//130 132//132 147//147 
f 135//135 148//148 137//137 
f 127//127 138//138 149//149 
f 150//150 139//139 143//143 
f 138//138 121//121 151//151 
f 151//151 121//121 152//152 
f 121//121 133//133 152//152 
f 116//116 145//145 140//140 
f 133//133 141//141 153//153 
f 154//154 129//129 140//140 
f 129//129 154//154 142//142 
f 131//131 142//142 146//146 
f 155//155 134//134 130//130 
f 132//132 146//146 147//147 
f 147//147 155//155 130//130 
f 136//136 148//148 135//135 
f 136//136 127//127 149//149 
f 150//150 144//144 139//139 
f 128//128 144//144 145//145 
f 153//153 152//152 133//133 
f 156//156 153//153 141//141 
f 141//141 134//134 157//157 
f 134//134 155//155 157//157 
f 148//148 158//158 137//137 
f 148//148 136//136 159//159 
f 136//136 149//149 159//159 
f 149//149 138//138 151//151 
f 144//144 160//160 145//145 
f 153//153 151//151 152//152 
f 145//145 161//161 140//140 
f 156//156 141//141 157//157 
f 147//147 162//162 155//155 
f 158//158 143//143 137//137 
f 158//158 163//163 143//143 
f 143//143 164//164 150//150 
f 165//165 149//149 151//151 
f 166//166 151//151 153//153 
f 160//160 161//161 145//145 
f 161//161 154//154 140//140 
f 167//167 156//156 157//157 
f 168//168 142//142 154//154 
f 155//155 162//162 157//157 
f 142//142 168//168 146//146 
f 162//162 147//147 169//169 
f 158//158 148//148 159//159 
f 159//159 170//170 158//158 
f 163//163 164//164 143//143 
f 144//144 150//150 160//160 
f 160//160 150//150 164//164 
f 166//166 165//165 151//151 
f 160//160 171//171 161//161 
f 153//153 156//156 166//166 
f 157//157 162//162 167//167 
f 146//146 168//168 169//169 
f 169//169 147//147 146//146 
f 163//163 172//172 164//164 
f 173//173 159//159 149//149 
f 149//149 165//165 173//173 
f 161//161 174//174 154//154 
f 166//166 156//156 167//167 
f 175//175 168//168 154//154 
f 167//167 162//162 176//176 
f 158//158 170//170 163//163 
f 177//177 172//172 163//163 
f 170//170 177//177 163//163 
f 159//159 178//178 170//170 
f 159//159 173//173 178//178 
f 160//160 164//164 171//171 
f 166//166 179//179 165//165 
f 171//171 174//174 161//161 
f 174//174 175//175 154//154 
f 175//175 180//180 168//168 
f 168//168 181//181 169//169 
f 162//162 169//169 176//176 
f 178//178 177//177 170//170 
f 172//172 182//182 164//164 
f 165//165 183//183 173//173 
f 164//164 182//182 171//171 
f 165//165 179//179 183//183 
f 166//166 167//167 179//179 
f 167//167 184//184 179//179 
f 185//185 180//180 175//175 
f 167//167 176//176 184//184 
f 184//184 176//176 181//181 
f 181//181 168//168 180//180 
f 176//176 169//169 181//181 
f 182//182 172//172 177//177 
f 183//183 178//178 173//173 
f 171//171 182//182 174//174 
f 183//183 179//179 186//186 
f 182//182 185//185 174//174 
f 174//174 185//185 175//175 
f 179//179 184//184 186//186 
f 184//184 181//181 180//180 
f 177//177 187//187 182//182 
f 178//178 187//187 177//177 
f 188//188 187//187 178//178 
f 183//183 188//188 178//178 
f 187//187 185//185 182//182 
f 183//183 186//186 188//188 
f 185//185 187//187 189//189 
f 189//189 188//188 186//186 
f 180//180 185//185 189//189 
f 180//180 189//189 184//184 
f 186//186 184//184 189//189 
f 188//188 189//189 187//187 
