# wavefront obj file written by the visualization toolkit


v 6335.69 4523.36 5387.42
v 6278.68 4487.6 5405.57
v 6232.89 4537.44 5411.03
v 6298.76 4587.13 5399.61
v 6400.4 4521.76 5396.81
v 6386.23 4567.34 5417.43
v 6279.93 4455.75 5434.93
v 6352.11 4495.01 5409.39
v 6406.16 4499.69 5433.57
v 6419.24 4530.8 5475.44
v 6208.8 4598.19 5423.2
v 6274.8 4626.49 5414.5
v 6340.83 4618.67 5429.64
v 6210.3 4487.68 5445.31
v 6348.4 4469.43 5444.05
v 6216.5 4637.7 5438.11
v 6395.46 4603.06 5490.38
v 6293.53 4644.04 5448.71
v 6207.71 4457.06 5475.79
v 6228.65 4445.35 5543.02
v 6314.28 4457.5 5529.37
v 6167.87 4545.74 5455.12
v 6422.39 4509.26 5539.09
v 6420.94 4568.06 5576.6
v 6151.89 4598.42 5469.72
v 6171.31 4631.97 5499.98
v 6360.87 4622.46 5508.19
v 6237.15 4640.89 5503.56
v 6149.3 4498 5561.46
v 6383.63 4484.86 5532.43
v 6123.39 4546.26 5612.15
v 6183.66 4463.11 5599.42
v 6116.62 4587.57 5656.15
v 6141.54 4603.9 5582.05
v 6328.94 4624.24 5567.54
v 6352.38 4469.16 5645.36
v 6124.03 4519.29 5675.94
v 6429.08 4524.23 5689.45
v 6400.45 4603.73 5691.4
v 6167.06 4618.7 5630.35
v 6207.23 4629.24 5562.9
v 6400.46 4495.07 5638.69
v 6249.47 4625.58 5611.11
v 6275.51 4451.23 5658.42
v 6127.96 4513.31 5750.66
v 6133.88 4602.35 5687.18
v 6430.66 4560.01 5752.86
v 6319.21 4618.58 5686.46
v 6218.68 4446.08 5724.89
v 6163.71 4474.04 5730.23
v 6146 4616.45 5752.15
v 6372.4 4623.81 5772.62
v 6321.05 4449.34 5784.09
v 6224.18 4631.52 5745.74
v 6384.69 4479.84 5762.9
v 6270.82 4441.46 5769.41
v 6295.13 4645.75 5819.87
v 6122.93 4577.69 5799.58
v 6129.18 4608.77 5780.54
v 6386.21 4628.49 5823.96
v 6155.29 4479.72 5843.19
v 6439.02 4540.48 5844.66
v 6424.42 4574.31 5865.99
v 6180.26 4639.36 5846.83
v 6256.76 4447.33 5864.22
v 6190.88 4461.85 5817.14
v 6358.95 4469.81 5892.28
v 6148.67 4620.69 5861.21
v 6347.49 4642.2 5870.74
v 6413.74 4509.51 5856.33
v 6241.09 4648.57 5835
v 6266.55 4647 5893.47
v 6189.76 4473.57 5882.96
v 6382.67 4616.78 5886.66
v 6405.63 4507.13 5942.53
v 6177.63 4513.85 5891.97
v 6185.93 4586.42 5911.55
v 6219.36 4624.2 5912.34
v 6257.91 4475.09 5928.12
v 6311.51 4470.15 5921.75
v 6419.07 4540.44 5918.22
v 6389.64 4571.43 5954.23
v 6329.56 4633.47 5925.53
v 6340.34 4495.58 5952.2
v 6294.17 4622.3 5953.19
v 6277.66 4505.99 5954.93
v 6388.69 4525.77 5952.82
v 6253.27 4549.11 5953.29
v 6275.55 4589.01 5957.49
v 6340.25 4608.83 5945.08
v 6336.35 4587.12 5963
v 6323.76 4547.28 5953.1
vn 0.0492679 -0.0732915 -0.996093
vn -0.188878 -0.496911 -0.846997
vn -0.393376 -0.111704 -0.912566
vn 0.0299068 0.292716 -0.955732
vn 0.650133 -0.177698 -0.73875
vn 0.655332 0.450662 -0.606172
vn -0.0381107 -0.894276 -0.445889
vn 0.212876 -0.688032 -0.693755
vn 0.671954 -0.683083 -0.286139
vn 0.983881 0.0497498 -0.171764
vn -0.443167 0.213575 -0.870625
vn -0.0106127 0.624487 -0.780963
vn 0.401965 0.747349 -0.52905
vn -0.589799 -0.493744 -0.639026
vn 0.330143 -0.91173 -0.244446
vn -0.323754 0.826065 -0.461302
vn 0.71529 0.675122 -0.18047
vn 0.146012 0.973231 -0.177488
vn -0.517974 -0.803071 -0.294585
vn -0.094388 -0.994455 -0.0463723
vn 0.235721 -0.971582 -0.0215328
vn -0.78855 -0.211545 -0.57744
vn 0.804954 -0.592441 -0.0326005
vn 0.941234 0.323752 -0.096245
vn -0.843928 0.362695 -0.395269
vn -0.428067 0.902608 -0.0453621
vn 0.363477 0.930631 -0.0425484
vn -0.0520335 0.996144 0.0706394
vn -0.812806 -0.554764 -0.177717
vn 0.4678 -0.883757 -0.0117165
vn -0.98628 -0.119591 -0.1138
vn -0.520391 -0.853026 -0.0392358
vn -0.901177 0.429327 -0.0596472
vn -0.665768 0.744816 -0.0447491
vn 0.141423 0.985945 0.0889473
vn 0.366542 -0.929981 -0.0279638
vn -0.936241 -0.349368 -0.0373517
vn 0.935642 -0.352455 -0.0186919
vn 0.608011 0.793614 -0.0223541
vn -0.301185 0.95344 0.0154766
vn -0.105492 0.98707 0.120681
vn 0.593254 -0.80501 0.00296356
vn 0.000951674 0.997972 0.0636436
vn 0.13693 -0.98982 -0.03882
vn -0.930324 -0.352338 0.101764
vn -0.571404 0.81842 -0.0607106
vn 0.947832 0.316909 -0.0343959
vn 0.12872 0.988649 -0.077482
vn -0.233522 -0.972324 0.00737618
vn -0.607173 -0.794526 -0.00834779
vn -0.398897 0.914189 -0.0716939
vn 0.224327 0.962852 -0.150308
vn 0.262645 -0.96488 0.00496467
vn -0.0807836 0.990258 -0.113418
vn 0.572219 -0.820099 0.00167681
vn 0.0412026 -0.999103 -0.00973696
vn 0.0828722 0.990542 -0.109355
vn -0.971534 -0.00406218 0.236866
vn -0.724412 0.689179 0.016131
vn 0.557991 0.829842 -0.00279851
vn -0.740273 -0.62669 0.243423
vn 0.990422 -0.0992612 0.0959757
vn 0.863873 0.475016 0.167579
vn -0.328693 0.94052 0.085921
vn -0.0713574 -0.976661 0.202589
vn -0.384615 -0.918091 0.095818
vn 0.371124 -0.90278 0.217383
vn -0.738117 0.532783 0.413914
vn 0.272601 0.959112 0.0761063
vn 0.771286 -0.630988 0.0834972
vn -0.0683197 0.99586 -0.0599555
vn -0.0605666 0.970938 0.23154
vn -0.472954 -0.755604 0.453187
vn 0.673175 0.684792 0.279096
vn 0.65272 -0.542048 0.529284
vn -0.728786 -0.242856 0.640227
vn -0.659971 0.122882 0.741174
vn -0.398088 0.664418 0.632515
vn -0.249867 -0.694197 0.675024
vn 0.0989053 -0.884618 0.455706
vn 0.906305 -0.0314381 0.421452
vn 0.552357 0.32758 0.766546
vn 0.300739 0.851824 0.428896
vn 0.119419 -0.557958 0.821232
vn -0.0277716 0.659024 0.751609
vn -0.229687 -0.273228 0.934125
vn 0.379672 -0.0804753 0.921614
vn -0.333792 -0.0686479 0.940144
vn -0.260466 0.155782 0.952832
vn 0.391644 0.642798 0.65835
vn 0.118741 0.194113 0.973766
vn 0.0213154 -0.0838433 0.996251

g grp1
usemtl mtl1
f 1//1 2//2 3//3 
f 4//4 1//1 3//3 
f 5//5 1//1 6//6 
f 6//6 1//1 4//4 
f 7//7 2//2 8//8 
f 8//8 2//2 1//1 
f 5//5 8//8 1//1 
f 5//5 9//9 8//8 
f 5//5 10//10 9//9 
f 10//10 5//5 6//6 
f 4//4 3//3 11//11 
f 4//4 11//11 12//12 
f 4//4 13//13 6//6 
f 4//4 12//12 13//13 
f 7//7 14//14 2//2 
f 15//15 8//8 9//9 
f 2//2 14//14 3//3 
f 12//12 11//11 16//16 
f 13//13 17//17 6//6 
f 18//18 12//12 16//16 
f 13//13 12//12 18//18 
f 19//19 7//7 20//20 
f 7//7 21//21 20//20 
f 7//7 15//15 21//21 
f 7//7 19//19 14//14 
f 8//8 15//15 7//7 
f 22//22 3//3 14//14 
f 23//23 9//9 10//10 
f 22//22 11//11 3//3 
f 10//10 6//6 24//24 
f 25//25 11//11 22//22 
f 17//17 24//24 6//6 
f 11//11 25//25 16//16 
f 25//25 26//26 16//16 
f 13//13 27//27 17//17 
f 28//28 16//16 26//26 
f 18//18 16//16 28//28 
f 13//13 18//18 27//27 
f 14//14 19//19 29//29 
f 14//14 29//29 22//22 
f 15//15 9//9 30//30 
f 30//30 9//9 23//23 
f 22//22 31//31 25//25 
f 19//19 32//32 29//29 
f 31//31 33//33 25//25 
f 33//33 34//34 25//25 
f 26//26 25//25 34//34 
f 18//18 28//28 35//35 
f 27//27 18//18 35//35 
f 19//19 20//20 32//32 
f 15//15 30//30 21//21 
f 22//22 29//29 31//31 
f 30//30 36//36 21//21 
f 29//29 37//37 31//31 
f 38//38 23//23 10//10 
f 39//39 24//24 17//17 
f 34//34 40//40 26//26 
f 39//39 17//17 27//27 
f 26//26 41//41 28//28 
f 30//30 42//42 36//36 
f 41//41 43//43 28//28 
f 28//28 43//43 35//35 
f 21//21 44//44 20//20 
f 21//21 36//36 44//44 
f 29//29 45//45 37//37 
f 42//42 30//30 23//23 
f 42//42 23//23 38//38 
f 10//10 24//24 38//38 
f 33//33 46//46 34//34 
f 24//24 39//39 47//47 
f 26//26 40//40 41//41 
f 43//43 48//48 35//35 
f 27//27 35//35 39//39 
f 20//20 49//49 32//32 
f 34//34 46//46 40//40 
f 39//39 35//35 48//48 
f 20//20 44//44 49//49 
f 29//29 50//50 45//45 
f 50//50 29//29 32//32 
f 46//46 51//51 40//40 
f 40//40 43//43 41//41 
f 32//32 49//49 50//50 
f 39//39 48//48 52//52 
f 36//36 53//53 44//44 
f 43//43 40//40 54//54 
f 43//43 54//54 48//48 
f 36//36 55//55 53//53 
f 38//38 24//24 47//47 
f 40//40 51//51 54//54 
f 44//44 53//53 56//56 
f 38//38 55//55 42//42 
f 37//37 45//45 31//31 
f 48//48 54//54 57//57 
f 48//48 57//57 52//52 
f 44//44 56//56 49//49 
f 42//42 55//55 36//36 
f 45//45 58//58 31//31 
f 31//31 58//58 33//33 
f 33//33 58//58 59//59 
f 59//59 46//46 33//33 
f 59//59 51//51 46//46 
f 60//60 39//39 52//52 
f 50//50 61//61 45//45 
f 38//38 47//47 62//62 
f 47//47 39//39 63//63 
f 59//59 64//64 51//51 
f 53//53 65//65 56//56 
f 50//50 66//66 61//61 
f 66//66 50//50 49//49 
f 53//53 55//55 67//67 
f 59//59 58//58 68//68 
f 51//51 64//64 54//54 
f 52//52 57//57 69//69 
f 52//52 69//69 60//60 
f 56//56 65//65 49//49 
f 53//53 67//67 65//65 
f 55//55 38//38 70//70 
f 38//38 62//62 70//70 
f 62//62 47//47 63//63 
f 59//59 68//68 64//64 
f 54//54 71//71 57//57 
f 71//71 72//72 57//57 
f 69//69 57//57 72//72 
f 54//54 64//64 71//71 
f 65//65 66//66 49//49 
f 73//73 61//61 66//66 
f 74//74 39//39 60//60 
f 67//67 55//55 70//70 
f 63//63 39//39 74//74 
f 74//74 60//60 69//69 
f 65//65 73//73 66//66 
f 75//75 67//67 70//70 
f 73//73 76//76 61//61 
f 61//61 76//76 45//45 
f 45//45 76//76 58//58 
f 58//58 77//77 68//68 
f 78//78 64//64 68//68 
f 71//71 64//64 72//72 
f 64//64 78//78 72//72 
f 65//65 79//79 73//73 
f 65//65 67//67 80//80 
f 75//75 70//70 81//81 
f 62//62 81//81 70//70 
f 62//62 63//63 81//81 
f 82//82 63//63 74//74 
f 77//77 78//78 68//68 
f 74//74 69//69 83//83 
f 72//72 83//83 69//69 
f 65//65 80//80 79//79 
f 67//67 84//84 80//80 
f 73//73 79//79 76//76 
f 76//76 77//77 58//58 
f 63//63 82//82 81//81 
f 72//72 78//78 85//85 
f 83//83 72//72 85//85 
f 75//75 84//84 67//67 
f 76//76 79//79 86//86 
f 87//87 75//75 81//81 
f 86//86 88//88 76//76 
f 88//88 77//77 76//76 
f 81//81 82//82 87//87 
f 77//77 88//88 89//89 
f 89//89 78//78 77//77 
f 90//90 82//82 74//74 
f 85//85 78//78 89//89 
f 85//85 90//90 83//83 
f 74//74 83//83 90//90 
f 79//79 80//80 84//84 
f 86//86 79//79 84//84 
f 87//87 84//84 75//75 
f 91//91 85//85 89//89 
f 90//90 85//85 91//91 
f 88//88 86//86 92//92 
f 86//86 84//84 92//92 
f 84//84 87//87 92//92 
f 92//92 89//89 88//88 
f 92//92 91//91 89//89 
f 92//92 82//82 91//91 
f 87//87 82//82 92//92 
f 82//82 90//90 91//91 
