# wavefront obj file written by the visualization toolkit


v 7554.39 3458.28 2982.78
v 7679.18 3528.99 2983.78
v 7589.47 3464.55 2989.91
v 7520.82 3457.82 2987.74
v 7654.45 3554.48 2990.66
v 7820.09 3635.25 2998.09
v 7513.74 3425.17 2995.63
v 7484.35 3419.52 3004.36
v 7544.37 3435.1 3002.45
v 7467.72 3438.66 3014.59
v 7548.91 3547.54 3027.13
v 7684.2 3516.85 2992.96
v 7783.55 3587.87 3001.34
v 7716.26 3534.1 3012.04
v 7648.64 3705.95 3080.69
v 7901.9 3665.25 3016.98
v 7856.62 3627.48 3017.4
v 7786.29 3752.58 3073.2
v 7937.8 3718.75 3025.13
v 7898.6 3737.53 3038.06
v 7439.7 3417.01 3029.86
v 7483.33 3425.04 3019.23
v 7430.31 3469.5 3066.66
v 7620.83 3480.14 3006.96
v 7474.58 3552.66 3080.6
v 7900.05 3654.56 3034.77
v 7958.01 3699.08 3048.21
v 7990.29 3743.59 3062.13
v 7971.31 3790.65 3060
v 7418.4 3467.49 3079.66
v 7567.18 3458.7 3025.98
v 7660.56 3506.46 3024.79
v 7812.62 3605.21 3032.23
v 7724.63 3554.81 3041.02
v 7539.77 3672.84 3117.45
v 8010.29 3804.95 3080.04
v 7903.47 3825.34 3097.86
v 7433.69 3436.95 3055.59
v 7420.06 3470.56 3081.43
v 7418.78 3498.82 3102.27
v 7442.19 3564.16 3124.69
v 7888.43 3660.74 3067.3
v 7946.12 3694.03 3065.38
v 7988.95 3734.01 3084.65
v 7695.96 3840.94 3159.42
v 8048.83 3822.21 3110.79
v 7507.31 3481.43 3075.75
v 7626.77 3531.37 3070.5
v 7484.86 3623.62 3126.16
v 7755.38 3644.71 3121.64
v 7615.76 3783.1 3152.61
v 8025.35 3776.81 3103.24
v 7977.62 3875.48 3130.36
v 8033.29 3846.16 3116.51
v 7426.66 3534.71 3127.79
v 8021.82 3772.12 3119.58
v 8053.17 3826.41 3144.11
v 7817.96 3888.23 3174.35
v 8048.04 3875.7 3143.21
v 7450.29 3508.02 3112.31
v 7552.67 3577.54 3143.56
v 7938.13 3744.04 3136.65
v 8058.47 3866.3 3149.24
v 8006.49 3914.54 3171.41
v 7452.19 3618.1 3176.58
v 7493.65 3661.89 3158.58
v 7564.42 3772.01 3189.64
v 8044.66 3896.85 3170.21
v 7940.17 3917.6 3183
v 7435.13 3587.26 3168.76
v 7798.87 3771.03 3220.74
v 8014.96 3803.26 3161.15
v 8038.79 3854.85 3186.68
v 8049.94 3872.42 3167.65
v 7632.26 3846.42 3203.67
v 7987.45 3920.25 3193.41
v 7457.52 3582.98 3161.25
v 7480.38 3651.59 3197.63
v 7634.54 3668.16 3191.91
v 7510.92 3698.84 3198.88
v 7969.99 3823.01 3195.77
v 7599.96 3830.24 3220.48
v 7704.19 3888.82 3216.65
v 7565.73 3782.06 3223.4
v 8025.61 3891.87 3190.9
v 7769.93 3916 3221.92
v 7872.94 3919.86 3221.48
v 7542.31 3657.69 3199.67
v 7540.28 3733.48 3224.69
v 8003.99 3877.58 3206.46
v 7638.41 3851.66 3233.01
v 7965.58 3902.52 3215.05
v 7580.19 3745.99 3240.02
v 7644.41 3728.45 3226.52
v 7613.82 3813.87 3243.93
v 7912.68 3872.54 3232.9
v 7890.01 3911.43 3236.92
v 7752.87 3903.74 3234.63
v 7813.76 3908.69 3246.86
v 7711.13 3794.28 3249.55
v 7793.66 3841.68 3251.86
v 7726.54 3877.43 3249.35
v 7802.01 3881.85 3248.96
v 7704.14 3825.98 3246.35
v 7673.92 3749.47 8142.83
v 7565.23 3725.59 8143.22
v 7682.45 3824.89 8129.13
v 7803.67 3819.26 8133.38
v 7581.05 3792.79 8148.44
v 7657.64 3871.44 8136.59
v 7823.84 3871.31 8126.45
v 7743.16 3898.31 8133.13
v 7879.05 3849.24 8135
v 7929.14 3873.61 8146.01
v 7858.91 3912.11 8141.48
v 7805.23 3935.82 8146.67
v 7923.32 3935.88 8160.53
v 7491.83 3654.84 8167.47
v 7520.88 3707.65 8160.42
v 7566.88 3671.09 8171.96
v 7788.85 3741.12 8184.98
v 7924.17 3779.84 8206.94
v 7625.3 3862.36 8151.32
v 7980.63 3902.95 8168.92
v 7706.36 3901.08 8146.99
v 7929.67 3942.25 8165.13
v 7511.04 3580.72 8223.7
v 7468.28 3654.7 8181.64
v 7513.35 3718.32 8177.68
v 7569.04 3794.55 8174.68
v 7607.04 3846.12 8167.63
v 8008.97 3852.98 8193.96
v 7660.94 3875.35 8174.2
v 8009.98 3920.16 8189.38
v 7770.99 3921.98 8165.62
v 7883.24 3939.5 8165.6
v 7444.41 3587.02 8214.8
v 7440.56 3604.09 8214.11
v 7468.07 3652.95 8202.28
v 7678.55 3635.49 8238.75
v 8024.77 3798.79 8240.74
v 8033.23 3890.45 8200.11
v 8049.65 3855.48 8225.66
v 7789.34 3873.52 8227.38
v 7970.87 3931.59 8191.14
v 7432 3531.72 8245.12
v 7417.21 3490.61 8272.9
v 7823.03 3663.71 8273.93
v 7509.03 3707.95 8205.95
v 7977.75 3740.19 8274.96
v 7588.87 3789.36 8206.79
v 8046.89 3886.22 8217.16
v 8037.18 3895.71 8221.06
v 7891.18 3918.4 8201.52
v 7418.79 3465.27 8289.64
v 7468.43 3476.95 8292.2
v 7585.84 3498.75 8320.62
v 7426.1 3516.09 8269.72
v 7459.16 3580.19 8264.32
v 7736.83 3576.42 8325.35
v 7918.95 3701.77 8286.25
v 8047.49 3815 8252.76
v 7697.05 3770.16 8275.21
v 7915.56 3854.98 8271.46
v 7981.1 3884.02 8243.84
v 7428.88 3419.99 8327.18
v 7817.83 3615.23 8326.94
v 7533.31 3642.19 8285.15
v 7609.77 3667.71 8313.39
v 8044.09 3830.9 8259.88
v 7426.6 3414.82 8332.37
v 8012.87 3769.71 8288.01
v 8023.68 3850.26 8266.83
v 7470.8 3416.24 8352.76
v 7422.49 3443.38 8317.23
v 7436.81 3475.31 8319.31
v 7954.89 3707.92 8318.25
v 8026.3 3789.61 8303.4
v 8023.03 3815.86 8293.86
v 7859.71 3760.16 8327.46
v 7978.55 3817.56 8297.57
v 7436.06 3408.96 8350.98
v 7484.56 3509.08 8340.79
v 7805.65 3594.35 8349.08
v 7867.16 3649.83 8330.8
v 7566.47 3563.25 8360.25
v 7984.72 3746.22 8329.07
v 7558.41 3444.31 8370.14
v 7617.29 3476.98 8364.6
v 7665.84 3513.09 8364.6
v 7746.94 3562.36 8364.17
v 7906.6 3679.69 8351.63
v 8006.23 3785.35 8312.35
v 7451.58 3400.15 8357.79
v 7495.8 3418.76 8372.74
v 7453.48 3433.05 8347.36
v 7615.41 3477.2 8379.89
v 7809.1 3606.62 8364.01
v 7702.65 3645.3 8357.61
v 7959.93 3764.69 8326.95
v 7565.86 3451.58 8384.43
v 7903.69 3704.9 8352.54
v 7508.14 3431.34 8374.89
v 7535.87 3487.81 8375.25
v 7692.53 3535.24 8380.65
v 7815.06 3624.39 8372.92
v 7801.75 3658.18 8364.74
v 7606.87 3496.61 8388.61
v 7625.12 3550.79 8378.77
v 7708.42 3582.8 8372.33
vn 0.0208941 -0.256103 -0.966424
vn 0.227116 -0.276274 -0.933858
vn 0.392249 -0.733712 -0.554803
vn -0.329191 0.167096 -0.929361
vn -0.176149 0.341147 -0.923358
vn 0.0718226 0.119566 -0.990225
vn 0.1705 -0.872773 -0.45738
vn -0.25705 -0.591207 -0.764461
vn 0.392853 -0.916739 0.0724947
vn -0.586712 0.218894 -0.77965
vn -0.425327 0.475599 -0.770002
vn 0.488519 -0.75423 -0.438732
vn 0.503713 -0.661172 -0.55599
vn 0.543942 -0.83451 0.0878638
vn -0.321753 0.521036 -0.790567
vn 0.541343 -0.460801 -0.703285
vn 0.534978 -0.812278 -0.232386
vn -0.196997 0.541667 -0.817184
vn 0.300529 0.149642 -0.94196
vn -0.128575 0.484793 -0.865127
vn -0.729007 -0.653636 -0.203248
vn 0.14625 -0.942786 0.29961
vn -0.767976 0.287241 -0.572456
vn 0.485494 -0.871873 0.0642942
vn -0.580917 0.467274 -0.666476
vn 0.568627 -0.822497 0.012756
vn 0.715567 -0.667171 -0.206993
vn 0.746481 -0.299003 -0.594444
vn 0.0446017 0.523455 -0.850885
vn -0.984161 -0.172312 0.041655
vn 0.354819 -0.78275 0.511278
vn 0.432281 -0.788273 0.437904
vn 0.48765 -0.834946 0.255075
vn 0.435136 -0.730172 0.526788
vn -0.528946 0.540887 -0.653955
vn 0.406912 0.34836 -0.844433
vn -0.160088 0.613129 -0.773592
vn -0.0695984 -0.781187 0.620405
vn -0.551528 -0.575374 0.603955
vn -0.95569 0.237913 -0.173363
vn -0.807294 0.448561 -0.383496
vn 0.413337 -0.782874 0.465037
vn 0.53414 -0.774479 0.338936
vn 0.685049 -0.715476 0.13712
vn -0.284241 0.658398 -0.696936
vn 0.823629 0.0550798 -0.564448
vn 0.245974 -0.682913 0.687843
vn 0.329729 -0.672145 0.662948
vn -0.641815 0.529081 -0.555109
vn 0.329912 -0.684254 0.65035
vn -0.459159 0.587322 -0.666503
vn 0.847788 -0.511589 -0.139759
vn 0.0254643 0.678462 -0.734194
vn 0.335997 0.526296 -0.781101
vn -0.84307 -0.191934 0.502388
vn 0.626652 -0.691776 0.358822
vn 0.891654 -0.37314 0.25636
vn -0.166911 0.762939 -0.624552
vn 0.50068 0.608629 -0.615541
vn -0.0330558 -0.583814 0.811214
vn 0.20601 -0.60577 0.768506
vn 0.359194 -0.703834 0.61286
vn 0.976181 0.202285 -0.078428
vn 0.211217 0.89176 -0.40019
vn -0.902989 0.422707 0.0770062
vn -0.728538 0.573023 -0.375335
vn -0.710098 0.602924 -0.363653
vn 0.738232 0.658205 0.14758
vn -0.077024 0.921711 -0.380152
vn -0.624752 -0.184444 0.758726
vn 0.238721 -0.509667 0.826591
vn 0.462319 -0.611946 0.641704
vn 0.623793 -0.239857 0.743876
vn 0.876417 0.0790332 0.475023
vn -0.501179 0.770827 -0.39325
vn 0.279011 0.898349 0.339297
vn -0.0362283 -0.521816 0.852288
vn -0.484305 -0.0194714 0.874683
vn 0.202491 -0.577291 0.791033
vn -0.838067 0.523461 0.15373
vn 0.297663 -0.483787 0.823011
vn -0.686953 0.726538 0.0154564
vn -0.385499 0.892634 -0.233656
vn -0.752094 0.528629 0.393581
vn 0.584557 0.346199 0.733784
vn -0.200061 0.973422 -0.11147
vn 0.00990783 0.975285 0.22073
vn 0.0553585 -0.477963 0.876634
vn -0.632104 0.273995 0.724825
vn 0.375551 -0.0361633 0.926096
vn -0.487424 0.746695 0.452619
vn 0.309001 0.473372 0.824886
vn -0.122489 -0.156965 0.979979
vn 0.117794 -0.459176 0.880501
vn -0.346096 0.26221 0.900813
vn 0.237459 -0.114713 0.9646
vn 0.184405 0.448813 0.874392
vn -0.256446 0.843951 0.47115
vn -0.0351996 0.607624 0.793444
vn 0.05761 -0.232558 0.970875
vn 0.0934207 -0.121044 0.988241
vn -0.162986 0.343046 0.92507
vn 0.0504158 0.075824 0.995846
vn -0.0545484 0.0232972 0.998239
vn 0.148998 -0.447471 -0.881799
vn -0.135565 -0.122139 -0.983211
vn -0.0765434 -0.00798901 -0.997034
vn 0.161584 -0.383817 -0.909162
vn -0.558144 0.346956 -0.753722
vn -0.324366 0.450666 -0.831677
vn 0.0788567 0.0532054 -0.995465
vn -0.103014 0.404581 -0.908682
vn 0.25198 -0.325173 -0.911465
vn 0.326576 -0.118704 -0.937687
vn 0.129563 0.314981 -0.940213
vn -0.0999724 0.861496 -0.497825
vn 0.230807 0.511462 -0.827729
vn -0.222524 -0.283628 -0.932759
vn -0.552764 0.251873 -0.794363
vn 0.171225 -0.531186 -0.829774
vn 0.271975 -0.613385 -0.741477
vn 0.336516 -0.603801 -0.722621
vn -0.621085 0.73792 -0.264061
vn 0.405478 0.14672 -0.902253
vn -0.363599 0.886474 -0.286285
vn 0.153774 0.952842 -0.261622
vn 0.152031 -0.573023 -0.805314
vn -0.788683 0.264938 -0.554786
vn -0.797389 0.548576 -0.251467
vn -0.794811 0.606772 0.0101764
vn -0.642173 0.701591 0.308843
vn 0.493112 -0.346659 -0.797915
vn -0.395666 0.780575 0.483892
vn 0.560217 0.709793 -0.427026
vn -0.242416 0.896205 0.371552
vn -0.0818119 0.953732 0.289313
vn -0.64691 -0.223791 -0.728989
vn -0.956554 0.288109 -0.0446916
vn -0.82729 0.53636 0.167062
vn 0.279921 -0.636335 -0.718834
vn 0.593751 -0.598788 -0.537506
vn 0.691028 0.0579019 -0.720505
vn 0.892859 -0.181574 -0.412109
vn -0.214607 0.66305 0.717154
vn 0.132158 0.909228 0.394764
vn -0.189687 -0.483773 -0.85439
vn -0.931753 -0.147695 -0.331696
vn 0.361213 -0.697151 -0.619278
vn -0.713388 0.578981 0.39479
vn 0.521539 -0.739063 -0.426359
vn -0.510218 0.587189 0.6284
vn 0.926093 0.365309 -0.0943484
vn 0.51201 0.708657 0.485439
vn -0.0958511 0.781197 0.616882
vn -0.381634 -0.577893 -0.721384
vn 0.213123 -0.624407 -0.751462
vn 0.354182 -0.685273 -0.636362
vn -0.943767 0.269556 0.191423
vn -0.70102 0.47315 0.533572
vn 0.385557 -0.762244 -0.519932
vn 0.410579 -0.766419 -0.49399
vn 0.928622 -0.369321 -0.0355438
vn -0.289268 0.566844 0.77137
vn -0.0722916 0.640696 0.764384
vn 0.0658795 0.700949 0.710162
vn -0.0890217 -0.794897 -0.600179
vn 0.462444 -0.730883 -0.501952
vn -0.525285 0.516202 0.67647
vn -0.358406 0.531896 0.767224
vn 0.894924 0.151139 0.419843
vn -0.866338 -0.494531 0.0699816
vn 0.808747 -0.583694 0.0723117
vn 0.357214 0.585837 0.727457
vn 0.285897 -0.865723 -0.410836
vn -0.881686 0.139666 0.450693
vn -0.699797 0.352299 0.621425
vn 0.641457 -0.767136 0.00602425
vn 0.778632 -0.0623342 0.624377
vn 0.441125 0.444968 0.779366
vn -0.110017 0.484431 0.867884
vn 0.0592608 0.546131 0.835601
vn -0.181461 -0.957212 -0.225426
vn -0.529068 0.391706 0.752764
vn 0.54566 -0.829012 -0.122451
vn 0.578698 -0.795877 -0.178013
vn -0.350581 0.417542 0.838303
vn 0.567942 -0.225555 0.791559
vn 0.417014 -0.902958 -0.103759
vn 0.505882 -0.808133 -0.30167
vn 0.553222 -0.818483 -0.155018
vn 0.508667 -0.855816 0.0940044
vn 0.553248 -0.543988 0.630867
vn 0.271287 0.309991 0.911213
vn -0.324538 -0.753364 0.571943
vn 0.21871 -0.86344 0.454574
vn -0.57453 0.147854 0.805018
vn 0.52682 -0.808525 0.262201
vn 0.559498 -0.681773 0.471325
vn -0.174745 0.400154 0.899634
vn 0.0985669 0.353123 0.93037
vn 0.254452 -0.587423 0.768237
vn 0.143556 0.164965 0.975796
vn -0.205807 -0.120887 0.971097
vn -0.326226 0.230983 0.916637
vn 0.392534 -0.510233 0.765232
vn 0.203439 -0.114954 0.972316
vn -0.05985 0.273649 0.959966
vn -0.0163675 0.0193819 0.999678
vn -0.132242 0.260955 0.95625
vn -0.0088976 0.148128 0.988928

g grp1
usemtl mtl1
f 1//1 2//2 3//3 
f 4//4 5//5 1//1 
f 2//2 1//1 5//5 
f 6//6 2//2 5//5 
f 1//1 7//7 8//8 
f 9//9 7//7 3//3 
f 3//3 7//7 1//1 
f 8//8 10//10 4//4 
f 1//1 8//8 4//4 
f 10//10 11//11 4//4 
f 3//3 2//2 12//12 
f 12//12 13//13 14//14 
f 5//5 4//4 11//11 
f 2//2 13//13 12//12 
f 11//11 15//15 5//5 
f 6//6 13//13 2//2 
f 16//16 13//13 6//6 
f 17//17 13//13 16//16 
f 6//6 5//5 18//18 
f 5//5 15//15 18//18 
f 19//19 16//16 6//6 
f 20//20 6//6 18//18 
f 20//20 19//19 6//6 
f 21//21 8//8 22//22 
f 8//8 7//7 22//22 
f 23//23 10//10 21//21 
f 21//21 10//10 8//8 
f 3//3 24//24 9//9 
f 10//10 23//23 25//25 
f 11//11 10//10 25//25 
f 3//3 12//12 24//24 
f 12//12 14//14 24//24 
f 17//17 16//16 26//26 
f 16//16 27//27 26//26 
f 27//27 16//16 28//28 
f 28//28 16//16 19//19 
f 19//19 20//20 29//29 
f 22//22 7//7 9//9 
f 21//21 30//30 23//23 
f 24//24 31//31 9//9 
f 24//24 32//32 31//31 
f 14//14 32//32 24//24 
f 13//13 33//33 14//14 
f 14//14 33//33 34//34 
f 25//25 35//35 11//11 
f 17//17 33//33 13//13 
f 11//11 35//35 15//15 
f 17//17 26//26 33//33 
f 28//28 19//19 36//36 
f 18//18 37//37 20//20 
f 20//20 37//37 29//29 
f 29//29 36//36 19//19 
f 38//38 39//39 21//21 
f 21//21 39//39 30//30 
f 22//22 38//38 21//21 
f 9//9 31//31 22//22 
f 40//40 23//23 30//30 
f 25//25 23//23 41//41 
f 41//41 23//23 40//40 
f 34//34 32//32 14//14 
f 26//26 42//42 33//33 
f 27//27 43//43 26//26 
f 44//44 27//27 28//28 
f 18//18 15//15 45//45 
f 36//36 46//46 28//28 
f 38//38 22//22 47//47 
f 22//22 31//31 47//47 
f 31//31 32//32 48//48 
f 34//34 48//48 32//32 
f 25//25 41//41 49//49 
f 33//33 50//50 34//34 
f 26//26 43//43 42//42 
f 35//35 51//51 15//15 
f 44//44 43//43 27//27 
f 28//28 52//52 44//44 
f 45//45 15//15 51//51 
f 46//46 52//52 28//28 
f 37//37 53//53 29//29 
f 29//29 53//53 36//36 
f 53//53 54//54 36//36 
f 36//36 54//54 46//46 
f 31//31 48//48 47//47 
f 40//40 30//30 55//55 
f 55//55 30//30 39//39 
f 48//48 34//34 50//50 
f 50//50 33//33 42//42 
f 25//25 49//49 35//35 
f 44//44 52//52 56//56 
f 52//52 46//46 57//57 
f 37//37 18//18 58//58 
f 59//59 46//46 54//54 
f 59//59 54//54 53//53 
f 38//38 60//60 39//39 
f 60//60 55//55 39//39 
f 48//48 61//61 47//47 
f 62//62 50//50 42//42 
f 42//42 43//43 62//62 
f 44//44 62//62 43//43 
f 44//44 56//56 62//62 
f 57//57 46//46 63//63 
f 46//46 59//59 63//63 
f 53//53 37//37 58//58 
f 53//53 64//64 59//59 
f 55//55 41//41 40//40 
f 61//61 48//48 50//50 
f 65//65 41//41 55//55 
f 49//49 41//41 66//66 
f 66//66 41//41 65//65 
f 49//49 66//66 35//35 
f 67//67 35//35 66//66 
f 56//56 52//52 57//57 
f 35//35 67//67 51//51 
f 45//45 58//58 18//18 
f 59//59 68//68 63//63 
f 59//59 64//64 68//68 
f 53//53 58//58 69//69 
f 64//64 53//53 69//69 
f 60//60 38//38 47//47 
f 47//47 61//61 60//60 
f 55//55 70//70 65//65 
f 62//62 71//71 50//50 
f 56//56 72//72 62//62 
f 56//56 57//57 72//72 
f 57//57 73//73 72//72 
f 73//73 57//57 74//74 
f 51//51 67//67 75//75 
f 51//51 75//75 45//45 
f 57//57 63//63 74//74 
f 63//63 68//68 74//74 
f 76//76 64//64 69//69 
f 64//64 76//76 68//68 
f 60//60 77//77 55//55 
f 60//60 61//61 77//77 
f 78//78 65//65 70//70 
f 50//50 79//79 61//61 
f 65//65 80//80 66//66 
f 67//67 66//66 80//80 
f 72//72 81//81 62//62 
f 75//75 67//67 82//82 
f 83//83 45//45 75//75 
f 45//45 83//83 58//58 
f 77//77 70//70 55//55 
f 80//80 65//65 78//78 
f 79//79 50//50 71//71 
f 81//81 71//71 62//62 
f 80//80 84//84 67//67 
f 72//72 73//73 81//81 
f 84//84 82//82 67//67 
f 85//85 73//73 74//74 
f 85//85 74//74 68//68 
f 83//83 86//86 58//58 
f 68//68 76//76 85//85 
f 58//58 86//86 87//87 
f 69//69 58//58 87//87 
f 69//69 87//87 76//76 
f 77//77 78//78 70//70 
f 88//88 78//78 77//77 
f 77//77 61//61 88//88 
f 88//88 61//61 79//79 
f 78//78 89//89 80//80 
f 80//80 89//89 84//84 
f 81//81 73//73 90//90 
f 91//91 82//82 84//84 
f 73//73 85//85 90//90 
f 75//75 82//82 91//91 
f 85//85 92//92 90//90 
f 75//75 91//91 83//83 
f 85//85 76//76 92//92 
f 76//76 87//87 92//92 
f 88//88 93//93 78//78 
f 93//93 89//89 78//78 
f 88//88 94//94 93//93 
f 88//88 79//79 94//94 
f 79//79 71//71 94//94 
f 95//95 89//89 93//93 
f 84//84 89//89 95//95 
f 95//95 91//91 84//84 
f 81//81 96//96 71//71 
f 81//81 90//90 96//96 
f 96//96 92//92 97//97 
f 96//96 90//90 92//92 
f 83//83 91//91 98//98 
f 83//83 98//98 86//86 
f 87//87 86//86 98//98 
f 99//99 87//87 98//98 
f 97//97 87//87 99//99 
f 92//92 87//87 97//97 
f 100//100 93//93 94//94 
f 100//100 94//94 71//71 
f 96//96 101//101 71//71 
f 95//95 102//102 91//91 
f 96//96 103//103 101//101 
f 96//96 97//97 103//103 
f 102//102 98//98 91//91 
f 99//99 102//102 103//103 
f 99//99 98//98 102//102 
f 97//97 99//99 103//103 
f 100//100 104//104 93//93 
f 71//71 101//101 100//100 
f 93//93 104//104 95//95 
f 101//101 104//104 100//100 
f 102//102 95//95 104//104 
f 103//103 104//104 101//101 
f 103//103 102//102 104//104 
f 105//105 106//106 107//107 
f 108//108 105//105 107//107 
f 107//107 106//106 109//109 
f 109//109 110//110 107//107 
f 108//108 107//107 111//111 
f 111//111 107//107 112//112 
f 113//113 108//108 111//111 
f 114//114 113//113 111//111 
f 112//112 107//107 110//110 
f 115//115 111//111 112//112 
f 115//115 114//114 111//111 
f 115//115 112//112 116//116 
f 117//117 115//115 116//116 
f 106//106 118//118 119//119 
f 120//120 118//118 106//106 
f 119//119 109//109 106//106 
f 105//105 120//120 106//106 
f 108//108 121//121 105//105 
f 122//122 121//121 108//108 
f 122//122 108//108 113//113 
f 109//109 123//123 110//110 
f 114//114 122//122 113//113 
f 115//115 124//124 114//114 
f 125//125 110//110 123//123 
f 110//110 125//125 112//112 
f 124//124 115//115 117//117 
f 112//112 125//125 116//116 
f 126//126 117//117 116//116 
f 118//118 120//120 127//127 
f 118//118 128//128 119//119 
f 119//119 128//128 129//129 
f 119//119 129//129 109//109 
f 129//129 130//130 109//109 
f 130//130 123//123 109//109 
f 131//131 123//123 130//130 
f 132//132 122//122 114//114 
f 124//124 132//132 114//114 
f 131//131 133//133 123//123 
f 125//125 123//123 133//133 
f 117//117 134//134 124//124 
f 116//116 125//125 135//135 
f 125//125 133//133 135//135 
f 116//116 135//135 136//136 
f 126//126 116//116 136//136 
f 134//134 117//117 126//126 
f 118//118 127//127 137//137 
f 138//138 128//128 137//137 
f 137//137 128//128 118//118 
f 139//139 128//128 138//138 
f 105//105 140//140 120//120 
f 139//139 129//129 128//128 
f 121//121 140//140 105//105 
f 132//132 141//141 122//122 
f 142//142 143//143 132//132 
f 132//132 124//124 142//142 
f 134//134 142//142 124//124 
f 133//133 144//144 135//135 
f 126//126 136//136 145//145 
f 145//145 134//134 126//126 
f 146//146 147//147 137//137 
f 127//127 146//146 137//137 
f 127//127 120//120 140//140 
f 140//140 121//121 148//148 
f 122//122 148//148 121//121 
f 149//149 130//130 129//129 
f 122//122 141//141 150//150 
f 149//149 151//151 130//130 
f 132//132 143//143 141//141 
f 151//151 131//131 130//130 
f 133//133 131//131 151//151 
f 152//152 143//143 142//142 
f 142//142 134//134 152//152 
f 145//145 153//153 134//134 
f 153//153 152//152 134//134 
f 154//154 136//136 135//135 
f 146//146 155//155 147//147 
f 146//146 127//127 156//156 
f 155//155 146//146 156//156 
f 127//127 140//140 157//157 
f 158//158 137//137 147//147 
f 138//138 137//137 158//158 
f 159//159 139//139 138//138 
f 148//148 160//160 140//140 
f 139//139 149//149 129//129 
f 161//161 148//148 122//122 
f 161//161 122//122 150//150 
f 143//143 162//162 141//141 
f 133//133 151//151 163//163 
f 163//163 144//144 133//133 
f 154//154 135//135 144//144 
f 164//164 154//154 144//144 
f 154//154 165//165 145//145 
f 145//145 165//165 153//153 
f 145//145 136//136 154//154 
f 156//156 166//166 155//155 
f 157//157 140//140 160//160 
f 158//158 159//159 138//138 
f 160//160 148//148 167//167 
f 159//159 149//149 139//139 
f 149//149 168//168 151//151 
f 151//151 169//169 163//163 
f 162//162 143//143 170//170 
f 143//143 152//152 170//170 
f 153//153 170//170 152//152 
f 154//154 164//164 165//165 
f 166//166 171//171 155//155 
f 127//127 157//157 156//156 
f 159//159 168//168 149//149 
f 150//150 141//141 172//172 
f 169//169 151//151 168//168 
f 141//141 162//162 172//172 
f 153//153 173//173 170//170 
f 165//165 173//173 153//153 
f 166//166 156//156 174//174 
f 155//155 171//171 147//147 
f 174//174 156//156 157//157 
f 175//175 158//158 147//147 
f 176//176 159//159 158//158 
f 161//161 150//150 177//177 
f 177//177 150//150 172//172 
f 170//170 172//172 162//162 
f 170//170 178//178 172//172 
f 179//179 178//178 170//170 
f 173//173 179//179 170//170 
f 164//164 144//144 180//180 
f 181//181 165//165 164//164 
f 166//166 182//182 171//171 
f 166//166 174//174 182//182 
f 171//171 175//175 147//147 
f 175//175 176//176 158//158 
f 176//176 183//183 159//159 
f 167//167 184//184 160//160 
f 159//159 183//183 168//168 
f 167//167 148//148 185//185 
f 148//148 161//161 185//185 
f 161//161 177//177 185//185 
f 168//168 186//186 169//169 
f 187//187 177//177 172//172 
f 178//178 187//187 172//172 
f 144//144 163//163 180//180 
f 180//180 181//181 164//164 
f 179//179 173//173 181//181 
f 173//173 165//165 181//181 
f 174//174 157//157 188//188 
f 157//157 189//189 188//188 
f 157//157 190//190 189//189 
f 157//157 160//160 190//190 
f 160//160 191//191 190//190 
f 160//160 184//184 191//191 
f 183//183 186//186 168//168 
f 167//167 185//185 184//184 
f 192//192 185//185 177//177 
f 177//177 187//187 192//192 
f 178//178 179//179 193//193 
f 179//179 181//181 193//193 
f 182//182 194//194 171//171 
f 174//174 194//194 182//182 
f 174//174 195//195 194//194 
f 174//174 188//188 195//195 
f 175//175 171//171 196//196 
f 196//196 176//176 175//175 
f 188//188 189//189 197//197 
f 189//189 190//190 197//197 
f 184//184 198//198 191//191 
f 184//184 185//185 198//198 
f 185//185 192//192 198//198 
f 169//169 186//186 199//199 
f 169//169 199//199 163//163 
f 163//163 199//199 180//180 
f 178//178 193//193 187//187 
f 187//187 193//193 200//200 
f 181//181 180//180 200//200 
f 193//193 181//181 200//200 
f 194//194 196//196 171//171 
f 197//197 201//201 188//188 
f 202//202 192//192 187//187 
f 187//187 200//200 202//202 
f 200//200 180//180 202//202 
f 203//203 194//194 195//195 
f 203//203 196//196 194//194 
f 195//195 188//188 201//201 
f 201//201 203//203 195//195 
f 204//204 196//196 203//203 
f 183//183 176//176 196//196 
f 183//183 196//196 204//204 
f 197//197 205//205 201//201 
f 205//205 197//197 190//190 
f 190//190 191//191 205//205 
f 183//183 204//204 186//186 
f 205//205 191//191 198//198 
f 205//205 198//198 206//206 
f 206//206 198//198 192//192 
f 202//202 207//207 206//206 
f 207//207 180//180 199//199 
f 192//192 202//202 206//206 
f 202//202 180//180 207//207 
f 203//203 201//201 208//208 
f 208//208 204//204 203//203 
f 201//201 205//205 208//208 
f 208//208 209//209 204//204 
f 209//209 186//186 204//204 
f 205//205 210//210 208//208 
f 210//210 209//209 208//208 
f 199//199 186//186 209//209 
f 205//205 206//206 210//210 
f 210//210 199//199 209//209 
f 210//210 206//206 207//207 
f 207//207 199//199 210//210 
