# wavefront obj file written by the visualization toolkit


v 8645.15 3645.83 5235.44
v 8573.57 3712.67 5242.15
v 8654.63 3716.4 5224.42
v 8679.92 3662.86 5237.98
v 8572.43 3775.44 5229.44
v 8616.18 3790.06 5225.01
v 8707.94 3719.65 5257.79
v 8701.5 3778.12 5261.14
v 8633.73 3841.9 5258.18
v 8586.06 3826.95 5237.56
v 8508.98 3856.72 5246.24
v 8636.82 3636.69 5274.89
v 8561.72 3696.15 5280.18
v 8671.17 3646.59 5258.21
v 8461.88 3834.04 5255.71
v 8384.32 3926.92 5255.94
v 8525.55 3906.95 5259.81
v 8409.54 3965.24 5258.11
v 8700.33 3680.33 5273.57
v 8395.32 3825.34 5298.42
v 8720.87 3733.41 5304.62
v 8717.55 3784.27 5303.82
v 8695.02 3829.11 5296.65
v 8310.32 3942.8 5274.76
v 8513.78 3994.63 5299.17
v 8642.75 3905.1 5329.4
v 8316.95 4010.93 5263.76
v 8415.37 4024.45 5274.34
v 8307.63 4074.55 5276.26
v 8223.16 4068.85 5288.27
v 8671.95 3659.86 5296.03
v 8476.58 3750.73 5328.38
v 8280.2 3913.92 5299.53
v 8209.2 3991.86 5308.53
v 8155.98 4074.8 5314.87
v 8342.91 4117.83 5307.37
v 8416.67 4095.74 5326.24
v 8147.87 4126.05 5322.65
v 8207.22 4159.78 5329.48
v 8561.12 3694.69 5323.84
v 8613.07 3681.78 5329.53
v 8695.88 3715.53 5327.64
v 8264.86 3909.54 5328.89
v 8546.83 4004.38 5355.96
v 8137.91 4043.72 5349.28
v 8123.42 4114.4 5351.64
v 8279 4186.54 5348.73
v 8398.53 3808.48 5350.68
v 8328.08 3858.4 5350.41
v 8694.59 3840.08 5348.36
v 8196.22 3966.79 5358.8
v 8599.64 3960.91 5372.94
v 8436.61 4095.38 5349.36
v 8117.2 4100.38 5372.11
v 8144.05 4170.89 5367.58
v 8358.26 4142 5343.98
v 8172.54 4212.86 5383.85
v 8232.48 4212.54 5384.09
v 8647.84 3711.98 5346.27
v 8552.01 3721.95 5357.38
v 8702 3779.56 5343.75
v 8265.38 3909.73 5374.49
v 8631.5 3918.77 5381.65
v 8341.18 4162.63 5378.87
v 8466.17 3782.09 5369.86
v 8210.26 3964.08 5394.91
v 8163.94 4014.15 5382.59
v 8133.09 4082.81 5390.76
v 8441.3 4095.38 5384.55
v 8137.37 4147.08 5397.29
v 8565.42 3787.12 5390.68
v 8659.86 3784.25 5374.11
v 8348.58 3866.58 5385.96
v 8659.58 3854.51 5382.9
v 8505.46 4037.23 5407.35
v 8164.61 4200.88 5401.69
v 8202.9 4218.54 5414.01
v 8273.61 4201.84 5410.86
v 8262.56 3957.7 5416.56
v 8580.67 3943.63 5418.55
v 8154 4119.27 5426.55
v 8360.38 4148.03 5415.84
v 8591.47 3871.69 5417.95
v 8512.03 3877.48 5432.03
v 8406.8 3918.31 5427.06
v 8188.29 4047.88 5419.17
v 8461.34 4047.01 5446.48
v 8370.74 4131.65 5439.65
v 8196.59 4178.96 5435.66
v 8281.5 4178.96 5428.77
v 8520.15 3964.87 5443.34
v 8263.07 4050.19 5448.21
v 8203.3 4116.1 5441.09
v 8468.18 3955.33 5446.29
v 8348.43 4053.29 5458.85
v 8418.01 4042.51 5453.93
v 8329.44 4117.26 5447.82
v 8266.98 4102.56 5445.72
v 8376.54 3960.99 5928.34
v 8502.58 3959.14 5930.6
v 8495.04 3871.36 5954.08
v 8363.08 4041.6 5916.24
v 8257.56 4069.3 5926.39
v 8403.75 4073.19 5924.11
v 8494.39 4020.37 5939.42
v 8290.1 4132.77 5921.01
v 8210.16 4149.68 5933.23
v 8310.7 4172.59 5943.84
v 8237.62 4185.52 5939.44
v 8418.99 3841.86 5980.95
v 8611 3849.48 5974.89
v 8580.92 3943.53 5960.61
v 8655.09 3888.33 5988.74
v 8267.54 3973.68 5964.33
v 8171.65 4095.47 5968.11
v 8439.25 4082.2 5953.29
v 8539.53 4000.09 5962.8
v 8178.89 4185.41 5965.95
v 8379.99 4144.01 5988.8
v 8232.93 4206.84 5963.06
v 8554.32 3792.81 5991.42
v 8602.72 3949.23 5983.42
v 8132.37 4148.54 5993.97
v 8140.54 4189.84 5998.25
v 8277.38 4200.47 5990.46
v 8186.89 4204.23 6000.6
v 8530.97 3745.3 6021.44
v 8417.5 3801.36 6018.42
v 8686.46 3818.53 6021.07
v 8644.37 3727.55 6040.85
v 8285.64 3901.66 6012.28
v 8182.74 4005.49 6011.05
v 8531.42 4020.6 6005.13
v 8137.61 4082.44 6018.55
v 8707.59 3736.82 6070.95
v 8660.83 3889.11 6042.53
v 8191.48 3974.6 6041.65
v 8134.3 4154.23 6027.89
v 8436.49 4095.26 6031.75
v 8149.46 4189.48 6015.29
v 8333.71 4157.69 6038.08
v 8486.15 3740.81 6052.84
v 8592.81 3676.66 6076.91
v 8692.25 3688.49 6082.41
v 8372.39 3830.11 6053.68
v 8276.43 3906.67 6055.07
v 8707.58 3794.39 6078.2
v 8591.78 3955.65 6059.19
v 8159.89 4029.35 6034.1
v 8233.93 4187.64 6043.03
v 8668.2 3662.71 6101.91
v 8475.29 3757.25 6087.35
v 8499.89 4029.12 6056.16
v 8168.9 4177.4 6040.51
v 8606.41 3647.98 6113.05
v 8548.97 3696.36 6098.07
v 8700.61 3692.95 6108.57
v 8709.01 3744.65 6097.46
v 8425.57 3816.35 6100.44
v 8317.66 3893.04 6085.99
v 8697.52 3827.5 6094.38
v 8224.26 3964.02 6071.66
v 8646.37 3876.72 6095.4
v 8170.6 4057.38 6058.46
v 8549.18 3959.14 6098.19
v 8166.31 4135.52 6064.2
v 8272.91 4137.12 6083.38
v 8640.6 3647.05 6119.2
v 8537.81 3714.32 6117.99
v 8415.43 4059.47 6079.54
v 8202.03 4148.5 6066.91
v 8670.38 3655.94 6125.54
v 8585.89 3684.32 6132.85
v 8688.83 3771.47 6116.59
v 8279.22 3980.62 6102.29
v 8238.67 4086.79 6089.75
v 8644.7 3663.58 6138.58
v 8513.14 3763.58 6126.99
v 8408.83 3870.2 6117.28
v 8407.64 3926.53 6132.15
v 8483.89 3965.12 6123.95
v 8602.28 3853.02 6134.02
v 8334.41 4003.76 6117.87
v 8363.47 4031.92 6104.9
v 8674.23 3697.55 6139.02
v 8519.08 3817.21 6147.27
v 8513.49 3879.27 6142.64
v 8420.41 3960.7 6124.07
v 8595.42 3728.05 6149.99
v 8646.4 3719 6156.51
v 8648.21 3760.54 6145.5
v 8588.09 3791.53 6145.15
vn -0.138501 -0.711384 -0.689021
vn -0.417664 -0.387062 -0.822034
vn 0.226357 0.00989469 -0.973994
vn 0.627868 -0.439391 -0.642431
vn -0.167364 -0.00540961 -0.98588
vn 0.145349 0.247081 -0.958032
vn 0.86097 -0.0578178 -0.505358
vn 0.679608 0.299166 -0.669801
vn 0.409422 0.466555 -0.784028
vn 0.0525974 0.30971 -0.949375
vn -0.0550647 0.107694 -0.992658
vn -0.16428 -0.969581 0.181452
vn -0.598785 -0.758191 -0.258078
vn 0.506189 -0.858457 -0.0826114
vn -0.321252 -0.228313 -0.919059
vn -0.152877 -0.0659506 -0.986042
vn 0.184404 0.33979 -0.922246
vn 0.0561408 0.178405 -0.982354
vn 0.847951 -0.527059 0.0564626
vn -0.554387 -0.67423 -0.487923
vn 0.959888 -0.195672 0.200818
vn 0.977369 0.200958 -0.066076
vn 0.756364 0.532197 -0.380367
vn -0.35487 -0.266168 -0.896227
vn 0.46207 0.586185 -0.665492
vn 0.700615 0.653764 -0.285887
vn -0.149298 0.0396956 -0.987995
vn 0.231032 0.392835 -0.890115
vn 0.00952684 0.34423 -0.938837
vn -0.282281 0.0803363 -0.955962
vn 0.419759 -0.730729 0.538366
vn -0.568804 -0.81626 0.100906
vn -0.522544 -0.52451 -0.672188
vn -0.589182 -0.411403 -0.695422
vn -0.627967 -0.131377 -0.767071
vn 0.248687 0.592254 -0.766414
vn 0.452759 0.683773 -0.572244
vn -0.510717 0.335569 -0.791557
vn -0.133066 0.588628 -0.797377
vn -0.449025 -0.821416 0.351642
vn -0.0247255 -0.687501 0.725762
vn 0.614752 -0.434827 0.658032
vn -0.645325 -0.719679 -0.256162
vn 0.641547 0.742051 -0.194367
vn -0.881159 -0.425363 -0.206459
vn -0.923145 0.144644 -0.356204
vn 0.24585 0.802637 -0.543445
vn -0.550071 -0.805139 0.22175
vn -0.573977 -0.81281 0.0994506
vn 0.883793 0.389959 0.258539
vn -0.734005 -0.677042 -0.0533901
vn 0.716273 0.695114 0.0613974
vn 0.566517 0.767493 -0.300022
vn -0.985951 -0.0639631 0.154306
vn -0.761374 0.559038 -0.328308
vn 0.439575 0.781535 -0.442693
vn -0.390694 0.869851 -0.301194
vn 0.157014 0.937213 -0.311414
vn 0.218909 -0.502626 0.836329
vn -0.207442 -0.636963 0.74246
vn 0.78463 -0.0556729 0.617459
vn -0.554504 -0.753056 0.354164
vn 0.750491 0.531465 0.392821
vn 0.488747 0.863598 -0.123795
vn -0.351688 -0.644041 0.679357
vn -0.584735 -0.577752 0.569462
vn -0.757017 -0.494955 0.426551
vn -0.798982 -0.271815 0.536418
vn 0.607592 0.793363 0.0375134
vn -0.867769 0.273335 0.415049
vn -0.00421908 -0.434035 0.900886
vn 0.38536 -0.264919 0.883921
vn -0.389472 -0.651381 0.651163
vn 0.624494 0.101523 0.774403
vn 0.634385 0.690976 0.346566
vn -0.703326 0.588087 0.399357
vn -0.0864682 0.874954 0.476422
vn 0.370667 0.889117 0.268473
vn -0.321712 -0.464221 0.825228
vn 0.557744 0.316653 0.767237
vn -0.575481 -0.0370298 0.816976
vn 0.515282 0.802037 0.302029
vn 0.274305 -0.138025 0.951686
vn -0.0181879 -0.309298 0.950791
vn -0.169346 -0.380429 0.909173
vn -0.464497 -0.318085 0.826477
vn 0.369402 0.365863 0.854217
vn 0.386112 0.614501 0.687973
vn -0.261948 0.297983 0.917927
vn 0.20634 0.597211 0.775089
vn 0.245647 0.0422639 0.968438
vn -0.194701 -0.173147 0.965459
vn -0.219827 -0.0528544 0.974106
vn 0.0208862 -0.152739 0.988046
vn -0.046643 -0.0360201 0.998262
vn 0.112197 0.0905689 0.98955
vn 0.0647969 0.241833 0.968152
vn -0.0751828 0.0842007 0.993608
vn -0.152658 -0.31698 -0.936066
vn 0.192791 -0.0365228 -0.98056
vn -0.00286942 -0.367534 -0.930006
vn 0.00343601 -0.0282999 -0.999594
vn -0.289441 -0.193987 -0.937333
vn 0.280705 0.327813 -0.902077
vn 0.455588 0.406324 -0.792048
vn 0.0200239 0.207679 -0.977992
vn -0.381058 0.110623 -0.917909
vn 0.351613 0.710885 -0.609107
vn -0.097004 0.539031 -0.836681
vn -0.270415 -0.542792 -0.795143
vn 0.295538 -0.234227 -0.926172
vn 0.495855 0.261127 -0.828215
vn 0.723089 0.282235 -0.630464
vn -0.452617 -0.466366 -0.760027
vn -0.634649 -0.223855 -0.739669
vn 0.553523 0.674439 -0.488614
vn 0.616699 0.61183 -0.495325
vn -0.501801 0.502617 -0.703968
vn 0.55928 0.827703 -0.0459713
vn -0.0321462 0.910514 -0.412226
vn 0.0203529 -0.472758 -0.880957
vn 0.698489 0.618629 -0.359739
vn -0.889105 0.0456054 -0.455427
vn -0.731862 0.66478 -0.149819
vn 0.290341 0.952686 0.0899517
vn -0.181137 0.977257 0.110269
vn -0.174882 -0.653482 -0.736463
vn -0.480925 -0.744826 -0.462543
vn 0.793259 -0.0239125 -0.608414
vn 0.245423 -0.507802 -0.825775
vn -0.586629 -0.712584 -0.384825
vn -0.718415 -0.505714 -0.477633
vn 0.662434 0.749096 -0.00611235
vn -0.960093 -0.273744 -0.0573208
vn 0.883524 -0.217252 -0.414954
vn 0.8177 0.575422 0.016003
vn -0.771453 -0.609038 0.18421
vn -0.861642 0.212709 0.46079
vn 0.54233 0.742774 0.39264
vn -0.505323 0.740867 0.442453
vn 0.390524 0.769917 0.504697
vn -0.530401 -0.821885 -0.207797
vn -0.176584 -0.811426 -0.557141
vn 0.625932 -0.577674 -0.523929
vn -0.617975 -0.765863 0.177653
vn -0.616988 -0.742598 0.260525
vn 0.979804 0.195475 0.0421067
vn 0.627327 0.69515 0.351037
vn -0.896728 -0.409323 0.168327
vn 0.0380863 0.793931 0.606814
vn 0.385195 -0.807277 -0.447134
vn -0.626172 -0.667019 0.403727
vn 0.529759 0.706811 0.4688
vn -0.319956 0.643977 0.694926
vn -0.378318 -0.900245 0.215488
vn -0.606416 -0.785235 0.125162
vn 0.902534 -0.363046 0.231581
vn 0.954373 0.0186692 0.298033
vn -0.527387 -0.554746 0.643521
vn -0.495647 -0.544643 0.676534
vn 0.802916 0.409429 0.433237
vn -0.578667 -0.449347 0.680611
vn 0.558303 0.537831 0.631693
vn -0.664791 -0.171611 0.727051
vn 0.441107 0.589136 0.67701
vn -0.457673 0.21399 0.862986
vn 0.0904608 0.471539 0.877193
vn 0.0957303 -0.995176 -0.0214435
vn -0.598141 -0.595506 0.536283
vn 0.334503 0.581372 0.741697
vn -0.166291 0.440125 0.882404
vn 0.545327 -0.735963 0.401219
vn -0.448084 -0.533243 0.717546
vn 0.669521 0.1909 0.717843
vn -0.357522 -0.165009 0.919212
vn -0.207238 0.135337 0.968884
vn 0.0135454 -0.549202 0.83558
vn -0.472059 -0.389179 0.791012
vn -0.38411 -0.315469 0.86772
vn -0.164388 -0.00651513 0.986374
vn 0.171212 0.39075 0.904434
vn 0.319729 0.324146 0.890338
vn -0.0738259 0.175287 0.981745
vn 0.0780383 0.339803 0.937253
vn 0.581232 -0.119861 0.804862
vn -0.18564 -0.104947 0.976997
vn 0.0470645 0.164333 0.985281
vn 0.0196268 0.242244 0.970017
vn -0.199138 -0.184102 0.962523
vn 0.163437 -0.0320705 0.986032
vn 0.375447 0.213792 0.90185
vn 0.0576813 0.126186 0.990328

g grp1
usemtl mtl1
f 1//1 2//2 3//3 
f 4//4 1//1 3//3 
f 3//3 2//2 5//5 
f 3//3 5//5 6//6 
f 7//7 4//4 3//3 
f 8//8 7//7 3//3 
f 6//6 9//9 3//3 
f 8//8 3//3 9//9 
f 6//6 5//5 10//10 
f 10//10 5//5 11//11 
f 10//10 9//9 6//6 
f 1//1 12//12 13//13 
f 12//12 1//1 14//14 
f 13//13 2//2 1//1 
f 14//14 1//1 4//4 
f 2//2 15//15 5//5 
f 5//5 15//15 11//11 
f 11//11 15//15 16//16 
f 10//10 17//17 9//9 
f 11//11 16//16 18//18 
f 17//17 11//11 18//18 
f 10//10 11//11 17//17 
f 4//4 19//19 14//14 
f 4//4 7//7 19//19 
f 20//20 2//2 13//13 
f 21//21 19//19 7//7 
f 20//20 15//15 2//2 
f 22//22 21//21 7//7 
f 8//8 22//22 7//7 
f 22//22 8//8 23//23 
f 8//8 9//9 23//23 
f 15//15 24//24 16//16 
f 17//17 25//25 9//9 
f 23//23 9//9 26//26 
f 26//26 9//9 25//25 
f 16//16 24//24 27//27 
f 18//18 16//16 27//27 
f 18//18 28//28 17//17 
f 18//18 27//27 29//29 
f 27//27 24//24 30//30 
f 18//18 29//29 28//28 
f 29//29 27//27 30//30 
f 14//14 31//31 12//12 
f 14//14 19//19 31//31 
f 20//20 13//13 32//32 
f 15//15 20//20 24//24 
f 20//20 33//33 24//24 
f 33//33 34//34 24//24 
f 28//28 25//25 17//17 
f 30//30 34//34 35//35 
f 34//34 30//30 24//24 
f 36//36 25//25 28//28 
f 28//28 29//29 36//36 
f 37//37 25//25 36//36 
f 35//35 38//38 30//30 
f 39//39 30//30 38//38 
f 30//30 39//39 29//29 
f 39//39 36//36 29//29 
f 13//13 12//12 40//40 
f 12//12 41//41 40//40 
f 12//12 31//31 41//41 
f 32//32 13//13 40//40 
f 31//31 19//19 42//42 
f 19//19 21//21 42//42 
f 20//20 43//43 33//33 
f 43//43 34//34 33//33 
f 26//26 25//25 44//44 
f 34//34 45//45 35//35 
f 35//35 45//45 46//46 
f 38//38 35//35 46//46 
f 36//36 39//39 47//47 
f 48//48 20//20 32//32 
f 49//49 20//20 48//48 
f 22//22 23//23 50//50 
f 49//49 43//43 20//20 
f 26//26 50//50 23//23 
f 51//51 34//34 43//43 
f 52//52 26//26 44//44 
f 45//45 34//34 51//51 
f 44//44 25//25 53//53 
f 37//37 53//53 25//25 
f 46//46 45//45 54//54 
f 38//38 46//46 55//55 
f 38//38 55//55 39//39 
f 37//37 36//36 56//56 
f 57//57 39//39 55//55 
f 36//36 47//47 56//56 
f 58//58 39//39 57//57 
f 58//58 47//47 39//39 
f 41//41 31//31 59//59 
f 41//41 60//60 40//40 
f 31//31 42//42 59//59 
f 61//61 42//42 21//21 
f 21//21 22//22 61//61 
f 62//62 43//43 49//49 
f 43//43 62//62 51//51 
f 63//63 50//50 26//26 
f 37//37 56//56 53//53 
f 64//64 56//56 47//47 
f 32//32 40//40 65//65 
f 65//65 48//48 32//32 
f 22//22 50//50 61//61 
f 51//51 62//62 66//66 
f 63//63 26//26 52//52 
f 45//45 51//51 67//67 
f 67//67 51//51 66//66 
f 68//68 45//45 67//67 
f 45//45 68//68 54//54 
f 53//53 69//69 44//44 
f 54//54 70//70 46//46 
f 46//46 70//70 55//55 
f 64//64 53//53 56//56 
f 64//64 47//47 58//58 
f 41//41 59//59 71//71 
f 40//40 60//60 65//65 
f 41//41 71//71 60//60 
f 59//59 42//42 72//72 
f 42//42 61//61 72//72 
f 65//65 73//73 48//48 
f 48//48 73//73 49//49 
f 73//73 62//62 49//49 
f 50//50 74//74 61//61 
f 50//50 63//63 74//74 
f 75//75 52//52 44//44 
f 44//44 69//69 75//75 
f 69//69 53//53 64//64 
f 76//76 57//57 55//55 
f 77//77 58//58 57//57 
f 64//64 58//58 78//78 
f 78//78 58//58 77//77 
f 60//60 71//71 65//65 
f 72//72 71//71 59//59 
f 74//74 72//72 61//61 
f 73//73 79//79 62//62 
f 63//63 52//52 75//75 
f 80//80 63//63 75//75 
f 68//68 70//70 54//54 
f 70//70 68//68 81//81 
f 69//69 82//82 75//75 
f 82//82 69//69 64//64 
f 70//70 76//76 55//55 
f 76//76 77//77 57//57 
f 72//72 83//83 71//71 
f 83//83 84//84 71//71 
f 72//72 74//74 83//83 
f 71//71 85//85 65//65 
f 79//79 73//73 85//85 
f 85//85 73//73 65//65 
f 74//74 63//63 80//80 
f 74//74 80//80 83//83 
f 66//66 62//62 79//79 
f 66//66 86//86 67//67 
f 66//66 79//79 86//86 
f 67//67 86//86 68//68 
f 75//75 87//87 80//80 
f 68//68 86//86 81//81 
f 75//75 88//88 87//87 
f 75//75 82//82 88//88 
f 70//70 81//81 89//89 
f 82//82 64//64 78//78 
f 78//78 77//77 90//90 
f 84//84 85//85 71//71 
f 80//80 91//91 83//83 
f 79//79 85//85 92//92 
f 92//92 86//86 79//79 
f 91//91 80//80 87//87 
f 93//93 86//86 92//92 
f 81//81 86//86 93//93 
f 93//93 89//89 81//81 
f 89//89 76//76 70//70 
f 88//88 82//82 90//90 
f 90//90 82//82 78//78 
f 89//89 77//77 76//76 
f 89//89 90//90 77//77 
f 94//94 84//84 83//83 
f 85//85 84//84 94//94 
f 83//83 91//91 94//94 
f 94//94 95//95 85//85 
f 94//94 96//96 95//95 
f 91//91 87//87 96//96 
f 91//91 96//96 94//94 
f 95//95 92//92 85//85 
f 96//96 87//87 97//97 
f 87//87 88//88 97//97 
f 92//92 98//98 93//93 
f 98//98 89//89 93//93 
f 97//97 88//88 90//90 
f 98//98 97//97 89//89 
f 97//97 90//90 89//89 
f 95//95 98//98 92//92 
f 97//97 98//98 95//95 
f 96//96 97//97 95//95 
f 99//99 100//100 101//101 
f 100//100 99//99 102//102 
f 99//99 103//103 102//102 
f 100//100 102//102 104//104 
f 105//105 100//100 104//104 
f 102//102 103//103 106//106 
f 104//104 102//102 106//106 
f 106//106 103//103 107//107 
f 104//104 106//106 108//108 
f 106//106 107//107 109//109 
f 109//109 108//108 106//106 
f 110//110 99//99 101//101 
f 111//111 101//101 100//100 
f 112//112 111//111 100//100 
f 112//112 113//113 111//111 
f 99//99 114//114 103//103 
f 100//100 105//105 112//112 
f 103//103 114//114 115//115 
f 116//116 105//105 104//104 
f 117//117 105//105 116//116 
f 103//103 115//115 107//107 
f 108//108 116//116 104//104 
f 107//107 115//115 118//118 
f 119//119 116//116 108//108 
f 107//107 118//118 109//109 
f 109//109 120//120 108//108 
f 120//120 109//109 118//118 
f 121//121 101//101 111//111 
f 121//121 110//110 101//101 
f 99//99 110//110 114//114 
f 112//112 105//105 117//117 
f 122//122 112//112 117//117 
f 115//115 123//123 118//118 
f 123//123 124//124 118//118 
f 125//125 108//108 120//120 
f 119//119 108//108 125//125 
f 126//126 120//120 118//118 
f 127//127 128//128 110//110 
f 121//121 127//127 110//110 
f 129//129 130//130 111//111 
f 128//128 131//131 110//110 
f 113//113 129//129 111//111 
f 110//110 131//131 114//114 
f 114//114 131//131 132//132 
f 113//113 112//112 122//122 
f 114//114 132//132 115//115 
f 133//133 122//122 117//117 
f 115//115 132//132 134//134 
f 115//115 134//134 123//123 
f 116//116 119//119 133//133 
f 133//133 117//117 116//116 
f 118//118 124//124 126//126 
f 111//111 130//130 121//121 
f 129//129 135//135 130//130 
f 113//113 136//136 129//129 
f 132//132 131//131 137//137 
f 113//113 122//122 136//136 
f 122//122 133//133 136//136 
f 123//123 134//134 138//138 
f 139//139 133//133 119//119 
f 138//138 124//124 123//123 
f 138//138 140//140 124//124 
f 119//119 125//125 141//141 
f 126//126 124//124 140//140 
f 125//125 120//120 126//126 
f 127//127 142//142 128//128 
f 143//143 142//142 127//127 
f 130//130 127//127 121//121 
f 144//144 130//130 135//135 
f 128//128 145//145 131//131 
f 145//145 128//128 142//142 
f 131//131 145//145 146//146 
f 129//129 136//136 147//147 
f 146//146 137//137 131//131 
f 136//136 133//133 148//148 
f 149//149 132//132 137//137 
f 132//132 149//149 134//134 
f 141//141 139//139 119//119 
f 150//150 125//125 126//126 
f 130//130 143//143 127//127 
f 151//151 143//143 130//130 
f 151//151 130//130 144//144 
f 142//142 152//152 145//145 
f 135//135 129//129 147//147 
f 148//148 133//133 153//153 
f 153//153 133//133 139//139 
f 138//138 154//154 140//140 
f 150//150 141//141 125//125 
f 140//140 154//154 126//126 
f 126//126 154//154 150//150 
f 155//155 156//156 143//143 
f 156//156 142//142 143//143 
f 157//157 135//135 158//158 
f 142//142 156//156 152//152 
f 159//159 145//145 152//152 
f 135//135 147//147 158//158 
f 160//160 146//146 145//145 
f 159//159 160//160 145//145 
f 147//147 136//136 161//161 
f 162//162 137//137 146//146 
f 148//148 163//163 136//136 
f 137//137 162//162 164//164 
f 137//137 164//164 149//149 
f 165//165 148//148 153//153 
f 134//134 149//149 164//164 
f 138//138 134//134 164//164 
f 166//166 138//138 164//164 
f 166//166 154//154 138//138 
f 167//167 141//141 150//150 
f 143//143 168//168 155//155 
f 143//143 151//151 168//168 
f 135//135 157//157 144//144 
f 152//152 156//156 169//169 
f 160//160 162//162 146//146 
f 163//163 161//161 136//136 
f 165//165 153//153 170//170 
f 170//170 153//153 139//139 
f 167//167 170//170 141//141 
f 139//139 141//141 170//170 
f 171//171 154//154 166//166 
f 150//150 154//154 171//171 
f 167//167 150//150 171//171 
f 172//172 168//168 151//151 
f 151//151 157//157 172//172 
f 144//144 157//157 151//151 
f 173//173 156//156 155//155 
f 156//156 173//173 169//169 
f 157//157 158//158 174//174 
f 158//158 147//147 174//174 
f 174//174 147//147 161//161 
f 175//175 162//162 160//160 
f 163//163 148//148 165//165 
f 162//162 175//175 164//164 
f 176//176 164//164 175//175 
f 164//164 176//176 166//166 
f 171//171 166//166 176//176 
f 177//177 155//155 168//168 
f 177//177 173//173 155//155 
f 152//152 169//169 178//178 
f 152//152 178//178 159//159 
f 179//179 159//159 178//178 
f 159//159 179//179 160//160 
f 160//160 179//179 175//175 
f 180//180 175//175 179//179 
f 181//181 182//182 165//165 
f 163//163 165//165 182//182 
f 165//165 170//170 181//181 
f 183//183 176//176 175//175 
f 170//170 184//184 181//181 
f 184//184 176//176 183//183 
f 170//170 167//167 184//184 
f 184//184 167//167 176//176 
f 167//167 171//171 176//176 
f 177//177 168//168 172//172 
f 185//185 177//177 172//172 
f 172//172 157//157 185//185 
f 173//173 178//178 169//169 
f 174//174 185//185 157//157 
f 179//179 178//178 186//186 
f 174//174 163//163 182//182 
f 174//174 161//161 163//163 
f 179//179 186//186 180//180 
f 180//180 186//186 187//187 
f 187//187 188//188 180//180 
f 181//181 188//188 187//187 
f 181//181 187//187 182//182 
f 180//180 183//183 175//175 
f 188//188 183//183 180//180 
f 188//188 184//184 183//183 
f 181//181 184//184 188//188 
f 177//177 189//189 173//173 
f 190//190 189//189 177//177 
f 185//185 190//190 177//177 
f 178//178 173//173 189//189 
f 185//185 191//191 190//190 
f 185//185 174//174 191//191 
f 189//189 186//186 178//178 
f 192//192 191//191 182//182 
f 174//174 182//182 191//191 
f 192//192 187//187 186//186 
f 182//182 187//187 192//192 
f 190//190 192//192 189//189 
f 190//190 191//191 192//192 
f 189//189 192//192 186//186 
