# wavefront obj file written by the visualization toolkit


v 9612.16 3776.77 5394.89
v 9582.05 3754.93 5408.06
v 9584.51 3788.47 5422.38
v 9579.58 3752.91 5433.54
v 9567.98 3782.67 5440.48
v 9605.06 3773.57 5424.9
v 9577.58 3811.86 5451.96
v 9612.94 3803.84 5437.01
v 9607.35 3801.93 5431.18
v 9592.43 3803.82 5455.39
v 9573.35 3791.82 5461.63
v 9592.26 3790.07 5458.16
v 9600.51 3798.08 5460.13
v 9582.36 3784.87 5457.15
v 9589.31 3793.64 5455.28
v 9588.31 3766.69 5929.76
v 9565.35 3772.2 5915.84
v 9589.37 3801.13 5918.94
v 9565.28 3793.33 5938.83
v 9564.53 3746.1 5947.02
v 9611.52 3798.95 5946.21
v 9568.02 3810.7 5959.03
v 9593.07 3802.73 5953.95
v 9564.56 3749.41 5959.5
v 9572.37 3776.14 5977.97
v 9578.54 3752.58 5975.71
v 9602.28 3786.61 5966.78
v 9595.06 3795.72 5974.39
v 9576.44 3761.27 5982.39
v 9584.2 3791.29 5975.77
v 9581.63 3777.4 5972.4
vn 0.560659 0.232241 -0.794812
vn -0.391219 -0.639571 -0.661737
vn -0.45057 0.645682 -0.616508
vn -0.0809059 -0.868816 0.48848
vn -0.982427 -0.162843 0.0912069
vn 0.759822 -0.637014 0.12994
vn -0.583812 0.804724 0.107625
vn 0.913312 0.310485 0.263555
vn 0.118227 0.938758 -0.32366
vn 0.0972654 0.86771 0.487461
vn -0.319888 0.100829 0.942075
vn 0.426459 -0.404914 0.808812
vn 0.272158 0.181202 0.945037
vn -0.194841 -0.417881 0.887363
vn -0.0078466 0.0704657 0.997483
vn 0.674778 -0.56956 -0.469336
vn -0.591046 -0.249032 -0.767234
vn 0.165689 0.631813 -0.757205
vn -0.822328 0.531518 -0.203139
vn -0.16121 -0.961188 -0.223894
vn 0.915566 0.401946 -0.0133873
vn -0.430179 0.817933 0.382011
vn 0.119663 0.988689 0.0904138
vn -0.850752 -0.427184 0.306162
vn -0.581548 0.16111 0.797399
vn 0.414022 -0.720534 0.556253
vn 0.799236 -0.273456 0.535204
vn 0.454219 0.40565 0.793179
vn -0.0862236 -0.214808 0.972843
vn 0.0224538 0.45204 0.891715
vn 0.35243 -0.03915 0.935019

g grp1
usemtl mtl1
f 1//1 2//2 3//3 
f 2//2 4//4 5//5 
f 4//4 2//2 6//6 
f 1//1 6//6 2//2 
f 3//3 2//2 5//5 
f 7//7 3//3 5//5 
f 8//8 6//6 1//1 
f 9//9 8//8 1//1 
f 3//3 9//9 1//1 
f 3//3 7//7 10//10 
f 9//9 3//3 10//10 
f 7//7 11//11 10//10 
f 6//6 12//12 4//4 
f 6//6 8//8 12//12 
f 10//10 8//8 9//9 
f 5//5 11//11 7//7 
f 13//13 8//8 10//10 
f 4//4 12//12 14//14 
f 14//14 5//5 4//4 
f 5//5 14//14 11//11 
f 8//8 13//13 12//12 
f 14//14 12//12 15//15 
f 11//11 14//14 15//15 
f 12//12 13//13 15//15 
f 11//11 15//15 10//10 
f 15//15 13//13 10//10 
f 16//16 17//17 18//18 
f 17//17 19//19 18//18 
f 20//20 17//17 16//16 
f 16//16 18//18 21//21 
f 19//19 22//22 23//23 
f 18//18 19//19 23//23 
f 21//21 18//18 23//23 
f 17//17 20//20 24//24 
f 25//25 19//19 24//24 
f 24//24 19//19 17//17 
f 19//19 25//25 22//22 
f 24//24 20//20 26//26 
f 20//20 16//16 26//26 
f 16//16 21//21 27//27 
f 27//27 21//21 28//28 
f 28//28 21//21 23//23 
f 29//29 24//24 26//26 
f 27//27 26//26 16//16 
f 22//22 30//30 23//23 
f 28//28 23//23 30//30 
f 25//25 30//30 22//22 
f 24//24 29//29 25//25 
f 31//31 27//27 28//28 
f 30//30 31//31 28//28 
f 29//29 26//26 31//31 
f 26//26 27//27 31//31 
f 31//31 25//25 29//29 
f 31//31 30//30 25//25 
