# wavefront obj file written by the visualization toolkit


v 10759.8 4297.07 4680.21
v 10683 4308.13 4691.15
v 10711.8 4343.84 4672.62
v 10744.7 4343.07 4677.99
v 10729.6 4217.49 4739.83
v 10774 4288.84 4720
v 10663.1 4366.11 4690.31
v 10691.5 4374.17 4688.96
v 10724.7 4361.57 4701.21
v 10761 4225.21 4739.5
v 10643.6 4318.8 4725.96
v 10659.5 4373.96 4706.8
v 10691.7 4378.31 4714.22
v 10672 4214.97 4763.55
v 10742.7 4341.56 4723.58
v 10739.7 4172.65 4771.68
v 10760 4316.34 4735.9
v 10652.6 4310.47 4741.58
v 10709.3 4170.39 4781.63
v 10744.9 4191.3 4771.03
v 10749.5 4274.95 4752.72
v 10655.5 4230.05 4767.36
v 10727.6 4315.13 4745.56
v 10686.1 4178.54 4784.7
v 10687.3 4272.41 4767.73
v 10711.2 4168.87 4779.53
v 10708.7 4238.84 4776.17
v 10681.4 4213.38 4794.07
v 10678.2 4221.21 4780.09
v 10696.8 4198.25 4777.41
v 10687.5 4148.71 6571.38
v 10715.2 4152.95 6583.24
v 10701.1 4164.83 6595.21
v 10669.3 4182.88 6588.79
v 10669 4190.81 6592.92
v 10707.1 4209.49 6602.56
v 10755.8 4187.65 6611.9
v 10648.1 4273.05 6637.67
v 10764.6 4262.38 6638.47
v 10655.5 4295.13 6629.39
v 10753.8 4195.2 6621.56
v 10778.3 4240.2 6651.4
v 10636.4 4340.4 6656.9
v 10703.7 4315.23 6637.81
v 10657.5 4352.96 6656.1
v 10738.5 4224.46 6658.22
v 10699.6 4241.84 6653.7
v 10750.3 4333.3 6673.71
v 10686.7 4372.75 6677
v 10778.2 4287.01 6678.83
v 10660.1 4368.26 6679.27
v 10698.1 4381.33 6698.82
v 10769.9 4272.36 6682.2
v 10656.5 4342.64 6680.88
v 10729.6 4361.57 6700.16
v 10727.4 4277.88 6691.58
v 10693.3 4310.23 6689.15
v 10750.8 4330.38 6695.95
v 10701.3 4358.86 6699.47
v 10728.3 4355.89 6703.18
v 10729.6 4318.78 6691.51
v 10712 4215.08 4801.28
vn 0.413693 -0.293404 -0.861843
vn -0.419364 -0.374392 -0.827021
vn -0.0552827 0.145749 -0.987776
vn 0.615764 0.533898 -0.579472
vn -0.0461135 -0.618042 -0.784791
vn 0.97171 0.21542 0.0968209
vn -0.594334 0.277726 -0.754741
vn 0.0641368 0.867349 -0.49355
vn 0.617612 0.786161 -0.0225086
vn 0.807819 -0.475143 -0.348809
vn -0.971958 -0.0545687 -0.228734
vn -0.656567 0.74775 0.0989464
vn 0.0806884 0.807357 0.58452
vn -0.621373 -0.5633 -0.544599
vn 0.61264 0.679688 0.403357
vn 0.495902 -0.861139 -0.111895
vn 0.633588 0.413961 0.653608
vn -0.576514 0.341691 0.742213
vn -0.261404 -0.918032 -0.298137
vn 0.647709 -0.116769 0.752887
vn 0.544334 0.188457 0.817425
vn -0.919809 -0.186686 0.345109
vn 0.213619 0.433942 0.875249
vn -0.541082 -0.556666 0.630359
vn -0.179786 0.390274 0.902975
vn 0.150469 -0.584894 0.797031
vn 0.279723 0.173602 0.944255
vn -0.265466 -0.117513 0.956932
vn -0.587276 -0.0284075 0.808888
vn 0.182158 -0.0255391 0.982938
vn -0.478206 -0.58757 -0.652748
vn 0.516908 -0.787652 -0.335277
vn -0.196107 -0.793767 0.57574
vn -0.825685 -0.505189 0.251053
vn -0.677045 0.0909583 -0.730299
vn 0.190917 0.255264 -0.947835
vn 0.810436 -0.230948 -0.538383
vn -0.92842 -0.283162 0.24053
vn 0.659847 0.296195 -0.690558
vn -0.432604 0.271492 -0.859736
vn 0.484996 -0.727537 0.485251
vn 0.954845 -0.279257 0.101422
vn -0.939639 0.297251 -0.169472
vn 0.20575 0.470755 -0.857938
vn -0.273543 0.667731 -0.692321
vn 0.00468226 -0.630482 0.77619
vn -0.451704 -0.50626 0.734619
vn 0.701562 0.609818 -0.368691
vn 0.150477 0.873874 -0.462278
vn 0.967517 0.21017 0.140496
vn -0.624593 0.717601 0.30811
vn -0.0190885 0.778505 0.627348
vn 0.443475 -0.329216 0.833635
vn -0.653756 -0.05613 0.754621
vn 0.63141 0.735718 0.245031
vn -0.109558 -0.329438 0.9378
vn -0.354756 -0.282457 0.891272
vn 0.644008 0.205077 0.737019
vn -0.270591 0.0137408 0.962596
vn 0.200546 0.142686 0.969238
vn 0.0396006 -0.152781 0.987466
vn -0.540492 -0.827102 -0.154182

g grp1
usemtl mtl1
f 1//1 2//2 3//3 
f 4//4 1//1 3//3 
f 5//5 2//2 1//1 
f 6//6 1//1 4//4 
f 2//2 7//7 3//3 
f 3//3 7//7 8//8 
f 3//3 8//8 4//4 
f 4//4 8//8 9//9 
f 10//10 1//1 6//6 
f 7//7 2//2 11//11 
f 4//4 9//9 6//6 
f 12//12 7//7 11//11 
f 12//12 8//8 7//7 
f 13//13 8//8 12//12 
f 5//5 1//1 10//10 
f 2//2 14//14 11//11 
f 9//9 15//15 6//6 
f 13//13 9//9 8//8 
f 15//15 9//9 13//13 
f 5//5 10//10 16//16 
f 5//5 14//14 2//2 
f 15//15 17//17 6//6 
f 11//11 18//18 12//12 
f 14//14 5//5 19//19 
f 16//16 19//19 5//5 
f 16//16 10//10 20//20 
f 21//21 6//6 17//17 
f 22//22 18//18 11//11 
f 17//17 15//15 23//23 
f 12//12 18//18 13//13 
f 15//15 13//13 23//23 
f 24//24 14//14 19//19 
f 22//22 14//14 24//24 
f 10//10 6//6 20//20 
f 20//20 6//6 21//21 
f 14//14 22//22 11//11 
f 23//23 13//13 25//25 
f 25//25 13//13 18//18 
f 24//24 19//19 26//26 
f 19//19 16//16 26//26 
f 20//20 26//26 16//16 
f 21//21 23//23 27//27 
f 21//21 17//17 23//23 
f 27//27 25//25 28//28 
f 22//22 29//29 18//18 
f 23//23 25//25 27//27 
f 28//28 25//25 29//29 
f 18//18 29//29 25//25 
f 24//24 29//29 22//22 
f 20//20 21//21 27//27 
f 24//24 26//26 30//30 
f 29//29 24//24 30//30 
f 26//26 20//20 30//30 
f 20//20 27//27 30//30 
f 27//27 28//28 30//30 
f 28//28 29//29 62//62 
f 31//31 32//32 33//33 
f 34//34 31//31 33//33 
f 35//35 31//31 34//34 
f 32//32 31//31 36//36 
f 36//36 37//37 32//32 
f 36//36 31//31 35//35 
f 35//35 34//34 38//38 
f 39//39 37//37 36//36 
f 40//40 35//35 38//38 
f 36//36 35//35 40//40 
f 41//41 33//33 32//32 
f 32//32 37//37 41//41 
f 39//39 42//42 37//37 
f 40//40 38//38 43//43 
f 44//44 39//39 36//36 
f 36//36 40//40 44//44 
f 44//44 40//40 45//45 
f 33//33 41//41 46//46 
f 34//34 33//33 47//47 
f 34//34 47//47 38//38 
f 45//45 40//40 43//43 
f 39//39 44//44 48//48 
f 48//48 44//44 49//49 
f 45//45 49//49 44//44 
f 47//47 33//33 46//46 
f 37//37 42//42 41//41 
f 42//42 39//39 50//50 
f 39//39 48//48 50//50 
f 45//45 43//43 51//51 
f 45//45 51//51 49//49 
f 49//49 51//51 52//52 
f 53//53 41//41 42//42 
f 53//53 42//42 50//50 
f 38//38 54//54 43//43 
f 43//43 54//54 51//51 
f 48//48 49//49 55//55 
f 55//55 49//49 52//52 
f 46//46 56//56 47//47 
f 53//53 56//56 46//46 
f 41//41 53//53 46//46 
f 38//38 57//57 54//54 
f 38//38 47//47 57//57 
f 50//50 48//48 58//58 
f 48//48 55//55 58//58 
f 56//56 57//57 47//47 
f 58//58 53//53 50//50 
f 59//59 54//54 57//57 
f 59//59 51//51 54//54 
f 55//55 60//60 58//58 
f 59//59 52//52 51//51 
f 60//60 52//52 59//59 
f 55//55 52//52 60//60 
f 53//53 61//61 56//56 
f 57//57 56//56 61//61 
f 58//58 61//61 53//53 
f 61//61 59//59 57//57 
f 61//61 60//60 59//59 
f 58//58 60//60 61//61 
