# wavefront obj file written by the visualization toolkit


v 8255.46 4378.33 3237.27
v 8190.28 4408.93 3241.41
v 8253.1 4446.56 3223.66
v 8308.88 4448.98 3235.13
v 8320.47 4423.96 3248.79
v 8219.19 4471.69 3242.35
v 8287.21 4488.64 3291.46
v 8322.6 4460.89 3287.51
v 8203.5 4355.93 3270.13
v 8222.32 4340.11 3269.56
v 8306.31 4390.81 3267.75
v 8175.13 4442.05 3272.63
v 8221.52 4492.28 3304.44
v 8251.75 4495.53 3320.73
v 8215.13 4341.47 3297.59
v 8259.55 4369.16 3294.25
v 8179.45 4397.65 3285.66
v 8325.64 4440.57 3311.4
v 8309.08 4412.98 3319.67
v 8209.88 4474.17 3342.36
v 8197.34 4436.6 3335.18
v 8263.13 4489.16 3366.39
v 8310.74 4466.74 3345.67
v 8239.38 4394.91 3352.47
v 8212.09 4395.72 3321.07
v 8311.56 4441.19 3356.01
v 8285.34 4429.26 3366.96
v 8233.04 4470.25 3378.08
v 8238.53 4443.12 3378.94
v 8284.16 4461.84 3384.43
v 8264.45 4446.12 3386.54
v 8256.77 4460.2 3376.74
v 8308.15 4499.17 8014.72
v 8276.83 4478.3 7974.94
v 8233.87 4486.24 8053.17
v 8297.11 4449.08 8008.12
v 8330.37 4460.48 8043.05
v 8248.8 4422.84 8009.1
v 8208.12 4430.7 8039.77
v 8305.86 4412.23 8064.35
v 8250.7 4390.6 8037.74
v 8208.39 4377.41 8051.3
v 8184.04 4450.12 8095.44
v 8330.61 4458.69 8090.86
v 8258.01 4497.05 8107.39
v 8243.81 4363.33 8091.42
v 8182.18 4382.71 8086.48
v 8314.76 4479.39 8106.73
v 8193.61 4358.71 8094.59
v 8181.91 4361.67 8112.82
v 8213.82 4480.88 8102.05
v 8205.43 4359.61 8121.81
v 8271.18 4379.8 8140.09
v 8307.85 4421.33 8119.03
v 8203.2 4407.56 8136.58
v 8319.52 4455.03 8133.66
v 8227.46 4463.63 8133.25
v 8255.09 4400.21 8153.1
v 8282.94 4427.72 8152.73
v 8248.06 4436.37 8161.38
v 8246.27 4447.34 8154.74
v 8270.29 4455.14 8134.79
vn 0.193972 -0.571503 -0.797345
vn -0.646194 -0.134127 -0.751294
vn 0.00281415 0.333963 -0.942582
vn 0.545054 0.337961 -0.767267
vn 0.868985 -0.216141 -0.445138
vn -0.293383 0.762866 -0.576162
vn 0.345268 0.908317 -0.236114
vn 0.876344 0.464704 -0.126771
vn -0.736955 -0.626449 -0.253887
vn 0.0684535 -0.949977 -0.304726
vn 0.710034 -0.699069 -0.0845793
vn -0.933671 0.347745 -0.0856281
vn -0.430453 0.902576 0.00813755
vn 0.00834185 0.996643 -0.0814482
vn -0.341565 -0.837735 0.426066
vn 0.479939 -0.844256 0.238519
vn -0.922501 -0.344436 0.174227
vn 0.980569 -0.136429 0.140965
vn 0.682322 -0.640554 0.352316
vn -0.708261 0.601973 0.368776
vn -0.830584 -0.0806811 0.551017
vn 0.0314977 0.865175 0.50048
vn 0.77182 0.549175 0.32047
vn -0.0998961 -0.642865 0.759438
vn -0.70733 -0.425295 0.564631
vn 0.80662 -0.225 0.54657
vn 0.430534 -0.600416 0.6739
vn -0.425642 0.322228 0.845575
vn -0.453234 -0.187117 0.871531
vn 0.375441 0.206543 0.903539
vn -0.0141683 -0.172298 0.984943
vn -0.103877 0.315686 0.943161
vn 0.590837 0.746551 -0.305899
vn -0.174952 0.211707 -0.961547
vn -0.523687 0.802997 -0.284514
vn 0.584447 -0.416137 -0.6966
vn 0.926141 -0.149171 -0.346425
vn -0.145896 -0.487007 -0.861126
vn -0.775825 0.0856404 -0.625109
vn 0.729562 -0.650236 -0.211971
vn 0.284954 -0.762216 -0.58123
vn -0.381763 -0.652513 -0.654587
vn -0.906996 0.408177 0.103685
vn 0.992293 0.0451939 0.115379
vn -0.0569448 0.912323 0.405493
vn 0.344613 -0.928048 -0.141315
vn -0.959925 -0.175604 -0.21842
vn 0.51041 0.735986 0.444754
vn -0.373995 -0.898448 -0.230041
vn -0.792822 -0.523199 0.312563
vn -0.552831 0.796752 0.244058
vn -0.14021 -0.806703 0.574082
vn 0.457026 -0.687358 0.564505
vn 0.799353 -0.533786 0.275874
vn -0.655865 0.0389775 0.753872
vn 0.67371 0.231492 0.701802
vn -0.385201 0.609519 0.692897
vn -0.0400412 -0.346158 0.937321
vn 0.445325 -0.0403894 0.894457
vn -0.0021482 0.228809 0.973469
vn -0.189744 0.561586 0.805369
vn 0.18298 0.6307 0.754145

g grp1
usemtl mtl1
f 1//1 2//2 3//3 
f 4//4 1//1 3//3 
f 5//5 1//1 4//4 
f 3//3 2//2 6//6 
f 3//3 7//7 4//4 
f 7//7 8//8 4//4 
f 7//7 3//3 6//6 
f 9//9 1//1 10//10 
f 1//1 9//9 2//2 
f 1//1 5//5 11//11 
f 2//2 12//12 6//6 
f 13//13 6//6 12//12 
f 5//5 4//4 8//8 
f 6//6 13//13 14//14 
f 7//7 6//6 14//14 
f 10//10 15//15 9//9 
f 10//10 1//1 16//16 
f 1//1 11//11 16//16 
f 9//9 17//17 2//2 
f 17//17 12//12 2//2 
f 18//18 11//11 5//5 
f 5//5 8//8 18//18 
f 15//15 10//10 16//16 
f 11//11 18//18 19//19 
f 12//12 20//20 13//13 
f 11//11 19//19 16//16 
f 17//17 21//21 12//12 
f 22//22 14//14 13//13 
f 23//23 8//8 7//7 
f 7//7 14//14 22//22 
f 15//15 24//24 25//25 
f 15//15 16//16 24//24 
f 25//25 9//9 15//15 
f 19//19 18//18 26//26 
f 21//21 20//20 12//12 
f 13//13 20//20 22//22 
f 9//9 25//25 17//17 
f 16//16 27//27 24//24 
f 19//19 27//27 16//16 
f 17//17 25//25 21//21 
f 18//18 8//8 23//23 
f 27//27 19//19 26//26 
f 20//20 21//21 28//28 
f 23//23 26//26 18//18 
f 7//7 22//22 23//23 
f 29//29 25//25 24//24 
f 27//27 26//26 30//30 
f 25//25 29//29 21//21 
f 29//29 28//28 21//21 
f 23//23 30//30 26//26 
f 31//31 29//29 24//24 
f 27//27 31//31 24//24 
f 27//27 30//30 31//31 
f 29//29 32//32 28//28 
f 28//28 32//32 22//22 
f 20//20 28//28 22//22 
f 30//30 23//23 22//22 
f 31//31 32//32 29//29 
f 32//32 31//31 30//30 
f 30//30 22//22 32//32 
f 33//33 34//34 35//35 
f 34//34 33//33 36//36 
f 33//33 37//37 36//36 
f 38//38 39//39 34//34 
f 36//36 38//38 34//34 
f 40//40 36//36 37//37 
f 38//38 36//36 41//41 
f 41//41 36//36 40//40 
f 42//42 38//38 41//41 
f 38//38 42//42 39//39 
f 43//43 35//35 39//39 
f 35//35 34//34 39//39 
f 37//37 33//33 44//44 
f 33//33 35//35 45//45 
f 46//46 42//42 41//41 
f 39//39 42//42 47//47 
f 48//48 44//44 33//33 
f 42//42 49//49 47//47 
f 46//46 49//49 42//42 
f 39//39 47//47 43//43 
f 40//40 37//37 44//44 
f 47//47 49//49 50//50 
f 46//46 41//41 40//40 
f 43//43 51//51 35//35 
f 33//33 45//45 48//48 
f 49//49 52//52 50//50 
f 49//49 46//46 52//52 
f 35//35 51//51 45//45 
f 46//46 53//53 52//52 
f 46//46 54//54 53//53 
f 54//54 46//46 40//40 
f 50//50 55//55 47//47 
f 47//47 55//55 43//43 
f 40//40 44//44 54//54 
f 56//56 44//44 48//48 
f 52//52 55//55 50//50 
f 54//54 44//44 56//56 
f 55//55 57//57 43//43 
f 43//43 57//57 51//51 
f 51//51 57//57 45//45 
f 52//52 53//53 58//58 
f 52//52 58//58 55//55 
f 54//54 56//56 59//59 
f 58//58 60//60 55//55 
f 53//53 59//59 58//58 
f 53//53 54//54 59//59 
f 60//60 61//61 55//55 
f 57//57 55//55 61//61 
f 59//59 56//56 62//62 
f 56//56 48//48 62//62 
f 57//57 62//62 45//45 
f 48//48 45//45 62//62 
f 58//58 59//59 60//60 
f 62//62 61//61 60//60 
f 59//59 62//62 60//60 
f 62//62 57//57 61//61 
