# wavefront obj file written by the visualization toolkit


v 8034.31 2343.74 5186.34
v 8066.74 2372.59 5181.62
v 8102.71 2304.06 5207.31
v 7994.18 2435.26 5190.67
v 8074.38 2435.26 5201.8
v 8018.32 2493.62 5209.08
v 7989.41 2500.18 5209.48
v 8115.96 2362.55 5210.07
v 7985.51 2364.75 5214.64
v 7939.72 2429.86 5238.5
v 7958.22 2498.99 5241.13
v 8129.98 2235.76 5257.16
v 8038.43 2301.6 5236.46
v 8154.22 2313.54 5245.11
v 8135.2 2418.72 5253.48
v 8065.21 2490.94 5239.18
v 8007.03 2527.19 5259.29
v 8085 2235.02 5282.34
v 7965.63 2362.1 5262.64
v 8191.12 2329.96 5299.57
v 7946.24 2533.8 5300.98
v 7984.86 2552.88 5308.63
v 8124.03 2213.71 5294.84
v 8020.79 2296.44 5297.06
v 8177.34 2262.61 5300.91
v 7926.24 2430.2 5288.85
v 7935.13 2478.15 5282.33
v 8114.89 2216.27 5314.04
v 8149.69 2232.05 5325.26
v 8076.73 2252.79 5330.87
v 8166.37 2417.26 5323.61
v 8090.78 2488.02 5292.6
v 8196.92 2273.89 5338.54
v 7960.88 2388.31 5322.29
v 7949.92 2469 5343.05
v 7971.06 2549.07 5333.79
v 8028.77 2527.64 5333.48
v 8181.68 2255.38 5337.43
v 8188.31 2331.98 5358.56
v 7964.91 2523.14 5354.01
v 8112.25 2468.08 5358.65
v 8116.48 2263.16 5371.67
v 8031.41 2337.34 5366.54
v 8155.12 2400.63 5378.96
v 8168.55 2285.42 5367.89
v 7983.79 2406.43 5363.42
v 8058.81 2497.85 5386.46
v 8006.2 2515.2 5372.11
v 8110.1 2430.2 5410.11
v 8007.8 2476.25 5394.42
v 8075.12 2346.77 5412.87
v 8149.84 2357.29 5400.43
v 8020.89 2407.67 5388.45
v 8117.31 2342.02 5408.75
v 8052.39 2466.59 5401.76
v 8073.82 2409.52 5408.44
v 8114.94 2385.37 5405.61
v 8135.37 2291.17 5959.37
v 8070.56 2364.21 5955.66
v 8109.23 2363.76 5949.51
v 8162.51 2321.04 5966.6
v 8116.14 2415.63 5972.66
v 8044.37 2438.56 5972.48
v 8164.56 2273.18 5983.16
v 8059.96 2317.42 5995.58
v 8186.5 2273.85 6023.81
v 7992.62 2433.11 5994.7
v 8175.88 2360.06 6009.78
v 7985.73 2501.6 5998.9
v 8041.77 2512.86 6027.46
v 8130.21 2446.97 6022.37
v 8134.75 2256.95 6019.94
v 7982.01 2360.17 6044.44
v 7943.56 2500.71 6021.99
v 8112 2494.31 6062.42
v 7954.84 2523.24 6044.35
v 8056.04 2273.9 6056.55
v 8197.12 2341.69 6058.03
v 7935.08 2448.06 6057.27
v 7928.18 2493.88 6067.26
v 8111.36 2229.77 6077.15
v 8158.61 2242.28 6074.3
v 8156.48 2425.98 6062.89
v 8184.12 2298.53 6095.9
v 7993.2 2312.62 6090.04
v 8070.75 2529.82 6089.07
v 7974.62 2545.94 6080.36
v 8017.47 2540.45 6095.23
v 8055.6 2258.03 6104.66
v 8155.72 2249.35 6121.98
v 7949.54 2378.42 6100.31
v 7932.32 2454.11 6124.35
v 8121.74 2478.44 6103.09
v 7949.47 2515.1 6103.62
v 8117.03 2242.37 6115.44
v 8164.78 2394.78 6100.86
v 7984.15 2528.78 6133.17
v 8041.09 2301.54 6155.77
v 7993.76 2325.69 6121.12
v 7970.5 2387.81 6152.38
v 8117.81 2442.94 6150.07
v 8045.83 2507.08 6135.71
v 8116.51 2291.77 6160.16
v 8154.67 2313.24 6143.16
v 8149.81 2366.19 6137.06
v 7959.36 2481.43 6159.86
v 7958.58 2438.77 6163.77
v 8001.77 2485.04 6178.83
v 8056.13 2339.26 6187.73
v 8098.16 2388.1 6174.93
v 8054.94 2457.56 6172.56
v 8011.57 2405.04 6177.77
v 8057.23 2374.47 6185.26
v 8045.24 2423 6176.72
vn -0.297449 -0.419112 -0.857828
vn 0.22536 0.0172228 -0.974123
vn 0.236896 -0.411932 -0.879882
vn -0.325767 0.112728 -0.938706
vn 0.437582 0.362038 -0.823074
vn 0.235519 0.582003 -0.778334
vn -0.25333 0.628034 -0.735797
vn 0.618719 0.0974054 -0.77955
vn -0.679489 -0.441462 -0.586008
vn -0.871402 -0.0798888 -0.484021
vn -0.687088 0.478242 -0.546986
vn 0.300461 -0.719145 -0.62654
vn -0.503432 -0.705612 -0.498667
vn 0.742356 -0.104403 -0.661821
vn 0.760153 0.408914 -0.504932
vn 0.544224 0.693996 -0.471371
vn 0.128069 0.909348 -0.395835
vn -0.528481 -0.82029 -0.218705
vn -0.808094 -0.571422 -0.143045
vn 0.948442 0.0940869 -0.302666
vn -0.768023 0.63493 -0.0836957
vn 0.0276987 0.98995 -0.138682
vn 0.0948083 -0.979822 -0.175955
vn -0.737372 -0.664771 0.119841
vn 0.786204 -0.503431 -0.358385
vn -0.976213 -0.191461 0.101737
vn -0.972215 0.214923 -0.0927643
vn -0.224475 -0.91344 0.339468
vn 0.470371 -0.844427 0.25631
vn -0.599151 -0.689129 0.407577
vn 0.861559 0.507645 -0.00362133
vn 0.614663 0.774386 -0.150053
vn 0.930819 -0.304141 0.202666
vn -0.792762 -0.447595 0.413747
vn -0.829881 -0.00996798 0.557852
vn -0.189237 0.889808 0.415248
vn 0.422406 0.891001 0.166406
vn 0.639913 -0.713928 0.284286
vn 0.89886 0.109301 0.424388
vn -0.622194 0.419813 0.660781
vn 0.651114 0.707043 0.275935
vn -0.107225 -0.63791 0.762609
vn -0.620836 -0.486152 0.614995
vn 0.768755 0.400433 0.498667
vn 0.474404 -0.42185 0.772647
vn -0.659636 -0.269279 0.70169
vn 0.306965 0.713067 0.630324
vn -0.0346304 0.669225 0.742253
vn 0.349671 0.301304 0.8871
vn -0.382545 0.133158 0.914291
vn -0.312253 -0.265327 0.912195
vn 0.508169 0.00786719 0.861221
vn -0.521671 -0.156804 0.838613
vn 0.174252 -0.167367 0.970374
vn -0.0337672 0.323824 0.945515
vn -0.101048 0.0215018 0.994649
vn 0.129338 0.0115507 0.991533
vn -0.0761642 -0.502912 -0.860975
vn -0.392102 -0.172892 -0.903529
vn 0.12751 0.123547 -0.984113
vn 0.672594 0.0289977 -0.739443
vn 0.476296 0.486411 -0.732494
vn -0.0654167 0.325713 -0.943203
vn 0.468731 -0.661424 -0.5855
vn -0.55522 -0.569712 -0.605936
vn 0.870576 -0.427209 -0.244111
vn -0.596426 -0.172021 -0.784019
vn 0.86181 0.311465 -0.400341
vn -0.227919 0.51003 -0.829411
vn 0.247968 0.805932 -0.537575
vn 0.680881 0.578735 -0.44885
vn -0.054921 -0.894651 -0.443378
vn -0.73428 -0.474433 -0.485537
vn -0.764836 0.226115 -0.603239
vn 0.680128 0.695885 -0.230588
vn -0.496186 0.80428 -0.327007
vn -0.54083 -0.730531 -0.416926
vn 0.983783 0.178072 0.0214938
vn -0.913357 -0.232751 -0.334074
vn -0.949123 0.309811 -0.0564195
vn -0.168652 -0.978658 -0.117408
vn 0.510947 -0.859568 0.00875964
vn 0.871543 0.485183 -0.070783
vn 0.922159 -0.142319 0.359677
vn -0.744154 -0.65957 -0.105841
vn 0.447294 0.888778 0.100006
vn -0.256739 0.965681 -0.039323
vn 0.180297 0.972232 0.149191
vn -0.537072 -0.82219 0.188565
vn 0.565943 -0.595532 0.570131
vn -0.897314 -0.436874 0.0629979
vn -0.947838 -0.0243823 0.31782
vn 0.733404 0.605214 0.309572
vn -0.75863 0.595467 0.264385
vn -0.0401862 -0.867891 0.495126
vn 0.875917 0.310988 0.368857
vn -0.196663 0.817057 0.541979
vn -0.427287 -0.579516 0.693964
vn -0.714155 -0.594079 0.370206
vn -0.691973 -0.384744 0.610856
vn 0.61767 0.408511 0.672014
vn 0.354343 0.714979 0.6027
vn 0.217395 -0.367412 0.904294
vn 0.669913 -0.0580305 0.740168
vn 0.767236 0.161472 0.620706
vn -0.593863 0.310896 0.742072
vn -0.623221 -0.111556 0.774049
vn 0.000863934 0.369279 0.929318
vn -0.130163 -0.246542 0.960351
vn 0.387698 0.104446 0.91585
vn 0.297818 0.344974 0.890111
vn -0.293566 -0.0841824 0.952225
vn 0.13186 0.0636507 0.989223
vn 0.0807204 0.114009 0.990195

g grp1
usemtl mtl1
f 1//1 2//2 3//3 
f 2//2 1//1 4//4 
f 5//5 2//2 4//4 
f 6//6 5//5 4//4 
f 6//6 4//4 7//7 
f 8//8 3//3 2//2 
f 1//1 9//9 4//4 
f 10//10 4//4 9//9 
f 2//2 5//5 8//8 
f 11//11 4//4 10//10 
f 7//7 4//4 11//11 
f 12//12 13//13 3//3 
f 3//3 13//13 1//1 
f 14//14 12//12 3//3 
f 14//14 3//3 8//8 
f 13//13 9//9 1//1 
f 8//8 5//5 15//15 
f 15//15 5//5 16//16 
f 6//6 16//16 5//5 
f 7//7 17//17 6//6 
f 17//17 7//7 11//11 
f 16//16 6//6 17//17 
f 13//13 12//12 18//18 
f 13//13 19//19 9//9 
f 14//14 8//8 15//15 
f 15//15 20//20 14//14 
f 10//10 9//9 19//19 
f 21//21 17//17 11//11 
f 22//22 17//17 21//21 
f 23//23 18//18 12//12 
f 13//13 18//18 24//24 
f 12//12 14//14 25//25 
f 24//24 19//19 13//13 
f 25//25 14//14 20//20 
f 10//10 19//19 26//26 
f 27//27 11//11 10//10 
f 27//27 21//21 11//11 
f 23//23 28//28 18//18 
f 23//23 12//12 29//29 
f 12//12 25//25 29//29 
f 30//30 24//24 18//18 
f 20//20 15//15 31//31 
f 26//26 27//27 10//10 
f 16//16 32//32 15//15 
f 32//32 16//16 17//17 
f 18//18 28//28 30//30 
f 25//25 20//20 33//33 
f 24//24 34//34 19//19 
f 19//19 34//34 26//26 
f 32//32 31//31 15//15 
f 27//27 35//35 21//21 
f 36//36 22//22 21//21 
f 37//37 32//32 17//17 
f 17//17 22//22 37//37 
f 23//23 29//29 28//28 
f 38//38 29//29 25//25 
f 25//25 33//33 38//38 
f 33//33 20//20 39//39 
f 20//20 31//31 39//39 
f 40//40 21//21 35//35 
f 32//32 37//37 41//41 
f 21//21 40//40 36//36 
f 28//28 42//42 30//30 
f 24//24 30//30 43//43 
f 43//43 34//34 24//24 
f 26//26 34//34 35//35 
f 26//26 35//35 27//27 
f 31//31 41//41 44//44 
f 41//41 31//31 32//32 
f 36//36 37//37 22//22 
f 29//29 42//42 28//28 
f 45//45 42//42 29//29 
f 29//29 38//38 45//45 
f 42//42 43//43 30//30 
f 38//38 33//33 45//45 
f 39//39 45//45 33//33 
f 43//43 46//46 34//34 
f 39//39 31//31 44//44 
f 34//34 46//46 35//35 
f 47//47 41//41 37//37 
f 36//36 40//40 48//48 
f 36//36 48//48 37//37 
f 41//41 49//49 44//44 
f 40//40 35//35 50//50 
f 49//49 41//41 47//47 
f 50//50 48//48 40//40 
f 37//37 48//48 47//47 
f 42//42 51//51 43//43 
f 52//52 45//45 39//39 
f 44//44 52//52 39//39 
f 46//46 53//53 35//35 
f 53//53 50//50 35//35 
f 42//42 45//45 54//54 
f 54//54 45//45 52//52 
f 43//43 51//51 53//53 
f 46//46 43//43 53//53 
f 52//52 44//44 49//49 
f 49//49 47//47 55//55 
f 55//55 48//48 50//50 
f 47//47 48//48 55//55 
f 42//42 54//54 51//51 
f 53//53 51//51 56//56 
f 57//57 54//54 52//52 
f 52//52 49//49 57//57 
f 56//56 50//50 53//53 
f 56//56 57//57 49//49 
f 55//55 50//50 56//56 
f 49//49 55//55 56//56 
f 54//54 56//56 51//51 
f 57//57 56//56 54//54 
f 58//58 59//59 60//60 
f 61//61 58//58 60//60 
f 61//61 60//60 62//62 
f 60//60 59//59 63//63 
f 62//62 60//60 63//63 
f 58//58 61//61 64//64 
f 58//58 65//65 59//59 
f 61//61 66//66 64//64 
f 67//67 59//59 65//65 
f 68//68 66//66 61//61 
f 62//62 68//68 61//61 
f 59//59 67//67 63//63 
f 63//63 67//67 69//69 
f 63//63 70//70 62//62 
f 70//70 71//71 62//62 
f 70//70 63//63 69//69 
f 65//65 58//58 72//72 
f 73//73 67//67 65//65 
f 62//62 71//71 68//68 
f 74//74 69//69 67//67 
f 71//71 70//70 75//75 
f 69//69 74//74 76//76 
f 70//70 69//69 76//76 
f 77//77 65//65 72//72 
f 64//64 72//72 58//58 
f 72//72 64//64 66//66 
f 65//65 77//77 73//73 
f 66//66 68//68 78//78 
f 67//67 79//79 74//74 
f 80//80 74//74 79//79 
f 77//77 72//72 81//81 
f 82//82 72//72 66//66 
f 71//71 83//83 68//68 
f 73//73 79//79 67//67 
f 74//74 80//80 76//76 
f 84//84 82//82 66//66 
f 84//84 66//66 78//78 
f 73//73 77//77 85//85 
f 78//78 68//68 83//83 
f 75//75 83//83 71//71 
f 70//70 86//86 75//75 
f 70//70 76//76 87//87 
f 70//70 87//87 88//88 
f 86//86 70//70 88//88 
f 72//72 82//82 81//81 
f 89//89 77//77 81//81 
f 77//77 89//89 85//85 
f 82//82 84//84 90//90 
f 73//73 85//85 91//91 
f 73//73 91//91 79//79 
f 79//79 91//91 92//92 
f 79//79 92//92 80//80 
f 93//93 83//83 75//75 
f 80//80 94//94 76//76 
f 76//76 94//94 87//87 
f 81//81 95//95 89//89 
f 81//81 82//82 95//95 
f 78//78 83//83 96//96 
f 83//83 93//93 96//96 
f 92//92 94//94 80//80 
f 93//93 75//75 86//86 
f 94//94 97//97 87//87 
f 87//87 97//97 88//88 
f 89//89 95//95 98//98 
f 82//82 90//90 95//95 
f 99//99 85//85 89//89 
f 85//85 99//99 91//91 
f 84//84 78//78 96//96 
f 92//92 91//91 100//100 
f 93//93 101//101 96//96 
f 88//88 102//102 86//86 
f 103//103 98//98 95//95 
f 89//89 98//98 99//99 
f 90//90 104//104 103//103 
f 90//90 84//84 104//104 
f 105//105 104//104 84//84 
f 84//84 96//96 105//105 
f 100//100 91//91 99//99 
f 94//94 92//92 106//106 
f 97//97 94//94 106//106 
f 102//102 93//93 86//86 
f 97//97 102//102 88//88 
f 103//103 95//95 90//90 
f 100//100 99//99 98//98 
f 96//96 101//101 105//105 
f 100//100 107//107 92//92 
f 101//101 93//93 102//102 
f 108//108 102//102 97//97 
f 98//98 103//103 109//109 
f 110//110 103//103 104//104 
f 104//104 105//105 110//110 
f 110//110 105//105 101//101 
f 107//107 106//106 92//92 
f 110//110 101//101 111//111 
f 101//101 102//102 111//111 
f 108//108 97//97 106//106 
f 102//102 108//108 111//111 
f 98//98 109//109 112//112 
f 109//109 103//103 113//113 
f 103//103 110//110 113//113 
f 112//112 100//100 98//98 
f 100//100 112//112 107//107 
f 112//112 109//109 113//113 
f 113//113 110//110 114//114 
f 107//107 112//112 106//106 
f 110//110 111//111 114//114 
f 112//112 108//108 106//106 
f 114//114 108//108 112//112 
f 111//111 108//108 114//114 
f 112//112 113//113 114//114 
