# wavefront obj file written by the visualization toolkit


v 8529.15 4839.69 4417.8
v 8520.38 4798.03 4406.35
v 8499.37 4814.37 4411.56
v 8490.4 4815.5 4422.63
v 8535.25 4826.65 4424.03
v 8457.77 4857.79 4444.18
v 8469.84 4901.8 4444.56
v 8530.26 4883.12 4458.88
v 8499.43 4951.99 4468.68
v 8512.59 4924.94 4473.12
v 8418.98 5054.56 4508.11
v 8462.42 4845.44 4449.07
v 8483.37 4860.64 4463.52
v 8523.66 4850.93 4443.44
v 8386.42 5010.21 4502.64
v 8402.18 4949.69 4497.5
v 8441.04 5095.39 4545.08
v 8371.95 5080.26 4525.16
v 8493.61 4936.12 4504.81
v 8423.82 4930.9 4508.7
v 8478.22 5021.85 4536.42
v 8353.81 5029.62 4535.27
v 8344.1 5098.81 4548.87
v 8444.06 5014.6 4570.97
v 8354.2 5035.96 4562.96
v 8358.72 5136.47 4554.91
v 8367.71 5080.44 4612.44
v 8468.81 5012.56 4554.87
v 8310.31 5141.87 4593.43
v 8324.59 5196.77 4592.33
v 8366.15 5233.93 4611.29
v 8422.39 5157.71 4594.22
v 8303.01 5308.38 4641.33
v 8454.17 5074.58 4587.71
v 8423.63 5158.4 4617.15
v 8282.55 5268.17 4636.56
v 8303.13 5190.49 4648.95
v 8274.88 5259.24 4651.17
v 8377.08 5261.61 4655.52
v 8254.16 5423.57 4697.7
v 8380.26 5137.42 4652
v 8405.18 5148.59 4635.57
v 8246.92 5367.06 4691.06
v 8293.78 5436.18 4710.27
v 8323.28 5399.97 4721.15
v 8380.38 5228.7 4664.71
v 8252.76 5345.38 4703.59
v 8221.26 5449.95 4722.07
v 8334.28 5195.99 4672.02
v 8347.21 5305.87 4699.91
v 8191.24 5506.69 4754.95
v 8209.18 5523.19 4744.62
v 8223.8 5577.16 4765.14
v 8135.75 5870.38 4751.53
v 8130.85 5863.44 4765.01
v 8140.23 5880.38 4755.24
v 8156.49 5862.87 4781.11
v 8347.88 5248.21 4686.11
v 8287.3 5326.18 4715.31
v 8139.05 5771.89 4780
v 8159.27 5807.93 4789.48
v 8305 5398.1 4744.17
v 8216.78 5485.99 4780.31
v 8174.89 5621.03 4775.48
v 8272.09 5547.34 4785.03
v 8121.43 5779.27 4809.59
v 8153.21 5863.91 4789.67
v 8283.81 5508.92 4800.21
v 8143.04 5680.08 4801.47
v 8185.74 5711.59 4799.75
v 8183.63 5787.92 4822.15
v 8145.18 5822.06 4829.5
v 8167 5837.56 4812.13
v 8260.01 5485.78 4798.84
v 8277.34 5497.29 4803.58
v 8158.39 5637.64 4819.08
v 8223.67 5658.11 4822.25
v 8135.07 5719.32 4826.32
v 8200.33 5629.55 4846.92
v 8252.36 5575.6 4831.77
v 8248.29 5596.1 4825.3
v 8155.16 5733.8 4842.48
v 8168.99 5804.22 4834.31
v 8197.53 5699.08 4842.99
v 8167.52 5759.26 4847.42
v 8179.72 5705.93 4843.31
v 8204.21 5694.04 6511.68
v 8167.41 5770.35 6513.84
v 8178.43 5803.99 6547.72
v 8244.82 5584.54 6539.83
v 8189.23 5612.48 6544.9
v 8155.54 5742.61 6531.62
v 8246.58 5620.85 6535.89
v 8221.47 5706.84 6544.04
v 8155.49 5809.53 6550.66
v 8245.45 5525.64 6571.85
v 8273.04 5524.95 6580.55
v 8143.48 5675.97 6576.08
v 8269.79 5553.21 6597.67
v 8139.74 5813.83 6586.58
v 8197.98 5773.74 6568.87
v 8214.79 5506.62 6608.76
v 8224.84 5661.87 6588.02
v 8280.89 5438.96 6624.15
v 8161.83 5585.79 6608.24
v 8134.02 5693.78 6601.33
v 8133.01 5799.81 6615.84
v 8189.08 5762.61 6597.04
v 8163.48 5841.17 6609.45
v 8147.44 5847.14 6609.6
v 8295.16 5447 6631.85
v 8144.14 5861.99 6632.38
v 8281.97 5338.66 6656.63
v 8330.42 5322.39 6673.94
v 8238.55 5380.54 6664.89
v 8205.11 5489.44 6645.92
v 8246.31 5539.64 6635.38
v 8306.09 5406.14 6667.4
v 8165.34 5623.69 6616.47
v 8185.38 5671.6 6612.79
v 8152.87 5775.24 6624.61
v 8168.82 5791.83 6619.76
v 8143.6 5869.84 6633.66
v 8320.66 5186.29 6705.04
v 8270.54 5278.74 6690.88
v 8345.72 5225.59 6693.72
v 8258.69 5280.88 6714.76
v 8145.94 5846.81 6627.71
v 8151.19 5828.05 6621.08
v 8395.71 5187.24 6723.91
v 8242.09 5373.58 6693.36
v 8274.93 5394.69 6699.49
v 8219.42 5522.85 6647.95
v 8298.51 5172.23 6744.84
v 8377.14 5137.48 6736.75
v 8438.78 5141 6773.65
v 8377.87 5250.82 6727.93
v 8241 5413.24 6686.31
v 8445.64 5048.39 6808.79
v 8369.23 5066.65 6791.29
v 8356.65 5277.12 6744.29
v 8307.15 5153.58 6795.73
v 8421.5 5159.19 6800.59
v 8279.8 5296.42 6735.65
v 8438.3 4915.22 6876.14
v 8456.56 4956.36 6852.69
v 8337.27 5074.07 6815.44
v 8325.8 5264.8 6762.13
v 8383.33 5151.59 6825.07
v 8389.72 4975.67 6862.23
v 8507.29 4914.15 6888.62
v 8455.39 5060.76 6872.29
v 8469.98 5044.01 6854.15
v 8329.36 5189.68 6796.34
v 8508.36 4929.42 6906.36
v 8366.6 5028.01 6859.64
v 8373.03 5084.49 6852.51
v 8499.59 4852.29 6922.66
v 8487.23 4824.74 6944.94
v 8413.56 4931.42 6904.71
v 8442.66 4889.89 6914.97
v 8518.87 4836.85 6947.41
v 8490 4946.91 6925.65
v 8426.71 5025.42 6891.95
v 8506.27 4804.68 6968.55
v 8416.66 4965.84 6906.38
v 8467.04 4868.37 6945.8
v 8516.12 4846.5 6955.88
v 8466.17 4920.54 6935.34
v 8509.87 4805.94 6967.82
v 8511.94 4816.81 6965.64
v 8495.85 4864.2 6946.78
vn 0.622167 0.24341 -0.744083
vn 0.338851 -0.940374 0.0295924
vn -0.400848 -0.208351 -0.892138
vn -0.561224 -0.825041 0.0658442
vn 0.929391 -0.319762 0.184351
vn -0.856969 -0.353875 -0.37467
vn -0.307347 0.230688 -0.923212
vn 0.955342 0.0376741 0.293092
vn 0.57215 0.506978 -0.644684
vn 0.878225 0.403193 -0.257209
vn 0.0281162 0.43925 -0.897925
vn -0.588233 -0.704731 0.396657
vn 0.0634481 -0.626956 0.776467
vn 0.42408 -0.495157 0.758272
vn -0.550335 0.0752327 -0.831547
vn -0.863387 -0.384873 -0.326245
vn 0.636538 0.550673 -0.539981
vn -0.344748 0.299108 -0.889766
vn 0.586148 -0.306014 0.750191
vn -0.51099 -0.649021 0.563613
vn 0.954668 0.274702 0.114664
vn -0.885607 -0.229254 -0.403909
vn -0.631405 0.163419 -0.758038
vn 0.279281 -0.443803 0.851493
vn -0.775341 -0.544223 0.320418
vn -0.212044 0.427125 -0.878978
vn -0.308433 -0.566905 0.763864
vn 0.744568 -0.175013 0.644196
vn -0.930621 -0.150246 -0.333723
vn -0.380993 0.314603 -0.869407
vn 0.393648 0.552333 -0.734827
vn 0.82232 0.502937 -0.266166
vn -0.091416 0.402918 -0.910659
vn 0.754938 -0.0728199 0.65174
vn 0.905552 0.226488 0.358719
vn -0.662949 0.136679 -0.736082
vn -0.715497 -0.462148 0.523912
vn -0.966381 -0.227461 -0.119871
vn 0.920094 0.387033 0.0602756
vn -0.278855 0.311662 -0.908354
vn 0.1908 -0.359806 0.91331
vn 0.591181 -0.127489 0.796399
vn -0.849414 -0.0483335 -0.525509
vn 0.451749 0.50647 -0.734446
vn 0.950486 0.306234 0.0528907
vn 0.731575 0.0182182 0.681517
vn -0.850119 -0.408668 0.332096
vn -0.600224 0.121006 -0.790625
vn -0.21878 -0.415919 0.882693
vn 0.751402 0.0154895 0.659663
vn -0.923177 -0.180978 -0.339103
vn -0.375899 0.225178 -0.898885
vn 0.325491 0.424254 -0.845023
vn 0.184588 0.105214 -0.977168
vn -0.918837 0.388709 -0.0681475
vn 0.0374091 0.972374 -0.230411
vn 0.874905 0.415626 -0.248589
vn 0.318363 -0.226792 0.92044
vn -0.238616 -0.43917 0.866136
vn -0.372955 -0.132849 -0.918289
vn 0.699343 -0.0224005 -0.714435
vn 0.496455 -0.260878 0.827934
vn -0.600055 -0.458024 0.655856
vn -0.277524 0.121316 -0.953028
vn 0.857429 0.445982 -0.256739
vn -0.982114 -0.0110173 0.187964
vn 0.0899094 0.813977 0.573897
vn 0.872587 0.0743846 0.482762
vn -0.937751 -0.19321 -0.288606
vn 0.570721 0.209359 -0.794006
vn 0.963139 0.267952 -0.023756
vn -0.450193 0.384358 0.805975
vn 0.709129 0.557476 0.43169
vn -0.0570282 -0.421493 0.905037
vn 0.396685 -0.292003 0.870273
vn -0.78392 -0.328786 0.526658
vn 0.902668 0.394997 -0.170787
vn -0.863927 -0.178329 0.470987
vn -0.169262 -0.187828 0.967508
vn 0.471954 -0.0380253 0.880803
vn 0.885264 0.32027 0.337246
vn -0.473341 -0.0483794 0.87955
vn 0.437435 0.423652 0.793203
vn 0.59076 0.200001 0.781667
vn 0.00566257 0.0953176 0.995431
vn 0.0121195 -0.0145149 0.999821
vn 0.235914 0.0285364 -0.971355
vn -0.223064 0.329033 -0.917595
vn 0.572056 0.633706 -0.520738
vn 0.192274 -0.315533 -0.929231
vn -0.533258 -0.380479 -0.755561
vn -0.776186 -0.0669891 -0.626936
vn 0.826512 0.105601 -0.552925
vn 0.918202 0.348187 -0.188867
vn -0.548566 0.5589 -0.621857
vn -0.125966 -0.524251 -0.842196
vn 0.713606 -0.191625 -0.67383
vn -0.914396 -0.195526 -0.35447
vn 0.945617 0.299637 0.126595
vn -0.917939 0.242179 -0.314223
vn 0.927997 0.353656 0.117255
vn -0.633528 -0.46682 -0.617026
vn 0.798205 0.30963 0.516718
vn 0.218007 -0.371241 -0.902581
vn -0.939335 -0.337966 0.0585613
vn -0.877331 -0.133401 0.460971
vn -0.914969 -0.0170502 0.403163
vn 0.808463 0.185439 0.558569
vn 0.828184 0.502676 0.247847
vn -0.17556 0.859579 -0.479899
vn 0.910218 0.0402641 -0.412168
vn -0.860658 0.446244 0.245223
vn -0.168201 -0.334699 -0.927192
vn 0.688653 0.0147653 -0.724941
vn -0.870143 -0.337181 -0.359389
vn -0.889834 -0.152228 0.430143
vn 0.51745 0.396786 0.75816
vn 0.866823 0.421454 0.266446
vn -0.462014 -0.0289964 0.886398
vn 0.36678 0.148158 0.918434
vn -0.0777019 -0.0420555 0.996089
vn 0.575967 0.125806 0.807734
vn 0.323049 0.664507 0.673847
vn -0.289841 -0.494113 -0.819661
vn -0.702607 -0.402431 -0.58685
vn 0.248095 -0.255977 -0.934304
vn -0.967392 -0.210907 0.140255
vn -0.147451 -0.0356778 0.988426
vn 0.514919 0.067623 0.854567
vn 0.639146 -0.0835985 -0.764528
vn -0.866255 -0.0514693 0.496944
vn 0.124617 0.439416 0.889598
vn -0.18265 0.245298 0.952086
vn -0.810088 -0.487605 -0.325575
vn 0.178011 -0.470903 -0.864038
vn 0.930496 0.21053 -0.299758
vn 0.900736 0.413691 -0.13242
vn -0.47342 0.203576 0.856989
vn 0.608417 -0.242883 -0.755538
vn -0.299964 -0.602111 -0.739922
vn 0.533379 0.57606 0.619404
vn -0.825617 -0.0320719 0.563319
vn 0.721895 0.565405 0.398979
vn -0.507864 0.22337 0.831974
vn -0.3733 -0.644997 -0.666803
vn 0.147441 -0.460113 -0.875533
vn -0.868888 -0.481232 -0.115968
vn -0.0439732 0.453325 0.89026
vn 0.0640264 0.509993 0.857793
vn -0.802392 -0.555519 -0.218097
vn 0.703195 -0.239142 -0.669574
vn 0.476786 0.545826 0.68902
vn 0.942284 0.328752 0.0634286
vn -0.328291 0.33931 0.881529
vn 0.971423 0.237318 0.00426917
vn -0.834428 -0.142867 0.532276
vn -0.409847 0.272309 0.870559
vn 0.227534 -0.603655 -0.764087
vn -0.632949 -0.760322 -0.145895
vn -0.852461 -0.318725 0.414397
vn -0.814608 -0.580008 -0.00204575
vn 0.95634 -0.24341 -0.161756
vn 0.435528 0.418483 0.796986
vn -0.117698 0.38473 0.915495
vn 0.431177 -0.897291 -0.0946323
vn -0.503157 0.139542 0.852854
vn -0.60201 -0.130355 0.787777
vn 0.668197 0.258096 0.697782
vn -0.133243 0.249548 0.959152
vn -0.256259 -0.325802 0.910046
vn 0.633952 -0.0853016 0.768654
vn -0.00839301 0.253453 0.967311

g grp1
usemtl mtl1
f 1//1 2//2 3//3 
f 2//2 4//4 3//3 
f 1//1 5//5 2//2 
f 6//6 3//3 4//4 
f 7//7 3//3 6//6 
f 1//1 3//3 7//7 
f 1//1 8//8 5//5 
f 7//7 9//9 1//1 
f 10//10 1//1 9//9 
f 9//9 7//7 11//11 
f 12//12 4//4 13//13 
f 2//2 13//13 4//4 
f 14//14 2//2 5//5 
f 4//4 12//12 6//6 
f 1//1 10//10 8//8 
f 7//7 15//15 11//11 
f 13//13 2//2 14//14 
f 14//14 5//5 8//8 
f 7//7 6//6 16//16 
f 15//15 7//7 16//16 
f 11//11 17//17 9//9 
f 15//15 18//18 11//11 
f 8//8 19//19 14//14 
f 12//12 20//20 6//6 
f 6//6 20//20 16//16 
f 13//13 14//14 19//19 
f 12//12 13//13 20//20 
f 21//21 19//19 8//8 
f 10//10 21//21 8//8 
f 15//15 16//16 22//22 
f 23//23 15//15 22//22 
f 18//18 15//15 23//23 
f 24//24 13//13 19//19 
f 16//16 20//20 25//25 
f 16//16 25//25 22//22 
f 10//10 9//9 21//21 
f 17//17 21//21 9//9 
f 23//23 26//26 18//18 
f 11//11 18//18 26//26 
f 13//13 24//24 20//20 
f 25//25 20//20 27//27 
f 19//19 21//21 28//28 
f 29//29 23//23 22//22 
f 30//30 23//23 29//29 
f 23//23 30//30 26//26 
f 26//26 31//31 11//11 
f 11//11 31//31 17//17 
f 20//20 24//24 27//27 
f 19//19 28//28 24//24 
f 17//17 32//32 21//21 
f 32//32 17//17 31//31 
f 26//26 30//30 31//31 
f 30//30 33//33 31//31 
f 28//28 34//34 24//24 
f 28//28 21//21 34//34 
f 22//22 25//25 29//29 
f 21//21 35//35 34//34 
f 21//21 32//32 35//35 
f 30//30 29//29 36//36 
f 30//30 36//36 33//33 
f 25//25 27//27 37//37 
f 25//25 37//37 29//29 
f 29//29 38//38 36//36 
f 39//39 32//32 31//31 
f 33//33 36//36 40//40 
f 24//24 41//41 27//27 
f 34//34 42//42 24//24 
f 38//38 29//29 37//37 
f 34//34 35//35 42//42 
f 32//32 39//39 35//35 
f 43//43 36//36 38//38 
f 43//43 40//40 36//36 
f 33//33 44//44 31//31 
f 45//45 31//31 44//44 
f 33//33 40//40 44//44 
f 24//24 42//42 41//41 
f 46//46 42//42 35//35 
f 47//47 38//38 37//37 
f 39//39 46//46 35//35 
f 38//38 47//47 43//43 
f 31//31 45//45 39//39 
f 48//48 40//40 43//43 
f 37//37 27//27 49//49 
f 41//41 49//49 27//27 
f 46//46 39//39 50//50 
f 43//43 47//47 51//51 
f 39//39 45//45 50//50 
f 48//48 43//43 51//51 
f 52//52 48//48 51//51 
f 48//48 52//52 40//40 
f 44//44 40//40 53//53 
f 54//54 55//55 56//56 
f 57//57 54//54 56//56 
f 41//41 58//58 49//49 
f 41//41 42//42 58//58 
f 59//59 37//37 49//49 
f 42//42 46//46 58//58 
f 37//37 59//59 47//47 
f 46//46 50//50 58//58 
f 52//52 53//53 40//40 
f 54//54 60//60 55//55 
f 57//57 61//61 54//54 
f 58//58 59//59 49//49 
f 58//58 50//50 62//62 
f 47//47 59//59 63//63 
f 47//47 63//63 51//51 
f 45//45 62//62 50//50 
f 52//52 51//51 64//64 
f 65//65 44//44 53//53 
f 53//53 52//52 64//64 
f 61//61 60//60 54//54 
f 55//55 60//60 66//66 
f 67//67 56//56 55//55 
f 57//57 56//56 67//67 
f 62//62 59//59 58//58 
f 62//62 45//45 68//68 
f 64//64 51//51 69//69 
f 44//44 65//65 45//45 
f 53//53 64//64 70//70 
f 60//60 64//64 69//69 
f 60//60 70//70 64//64 
f 66//66 60//60 69//69 
f 70//70 60//60 61//61 
f 57//57 71//71 61//61 
f 55//55 72//72 67//67 
f 57//57 67//67 73//73 
f 62//62 74//74 59//59 
f 59//59 74//74 63//63 
f 62//62 75//75 74//74 
f 62//62 68//68 75//75 
f 51//51 76//76 69//69 
f 45//45 65//65 68//68 
f 77//77 53//53 70//70 
f 66//66 69//69 78//78 
f 70//70 61//61 71//71 
f 71//71 57//57 73//73 
f 63//63 76//76 51//51 
f 65//65 53//53 77//77 
f 77//77 70//70 71//71 
f 66//66 72//72 55//55 
f 63//63 74//74 79//79 
f 75//75 80//80 74//74 
f 63//63 79//79 76//76 
f 81//81 68//68 65//65 
f 69//69 76//76 78//78 
f 77//77 81//81 65//65 
f 78//78 82//82 66//66 
f 66//66 82//82 72//72 
f 67//67 72//72 83//83 
f 73//73 67//67 83//83 
f 79//79 74//74 80//80 
f 75//75 68//68 80//80 
f 80//80 68//68 81//81 
f 77//77 84//84 81//81 
f 84//84 77//77 71//71 
f 85//85 72//72 82//82 
f 73//73 83//83 71//71 
f 78//78 76//76 82//82 
f 71//71 83//83 84//84 
f 83//83 72//72 85//85 
f 80//80 84//84 79//79 
f 80//80 81//81 84//84 
f 84//84 86//86 79//79 
f 79//79 82//82 76//76 
f 82//82 79//79 86//86 
f 86//86 85//85 82//82 
f 84//84 85//85 86//86 
f 84//84 83//83 85//85 
f 87//87 88//88 89//89 
f 90//90 91//91 87//87 
f 91//91 92//92 87//87 
f 93//93 90//90 87//87 
f 94//94 93//93 87//87 
f 87//87 92//92 88//88 
f 87//87 89//89 94//94 
f 92//92 95//95 88//88 
f 95//95 89//89 88//88 
f 90//90 96//96 91//91 
f 97//97 96//96 90//90 
f 97//97 90//90 93//93 
f 92//92 91//91 98//98 
f 93//93 94//94 99//99 
f 92//92 98//98 100//100 
f 92//92 100//100 95//95 
f 94//94 89//89 101//101 
f 102//102 91//91 96//96 
f 98//98 91//91 102//102 
f 94//94 103//103 99//99 
f 103//103 94//94 101//101 
f 96//96 97//97 104//104 
f 97//97 93//93 99//99 
f 105//105 106//106 98//98 
f 102//102 105//105 98//98 
f 98//98 107//107 100//100 
f 108//108 103//103 101//101 
f 101//101 89//89 109//109 
f 95//95 110//110 89//89 
f 110//110 109//109 89//89 
f 95//95 100//100 110//110 
f 99//99 111//111 97//97 
f 106//106 107//107 98//98 
f 101//101 109//109 108//108 
f 110//110 100//100 112//112 
f 113//113 104//104 114//114 
f 113//113 102//102 104//104 
f 104//104 102//102 96//96 
f 104//104 97//97 111//111 
f 102//102 115//115 116//116 
f 105//105 102//102 116//116 
f 99//99 117//117 118//118 
f 105//105 119//119 106//106 
f 117//117 99//99 103//103 
f 117//117 103//103 120//120 
f 103//103 108//108 120//120 
f 119//119 121//121 106//106 
f 108//108 122//122 120//120 
f 106//106 121//121 107//107 
f 122//122 108//108 109//109 
f 107//107 112//112 100//100 
f 110//110 112//112 123//123 
f 124//124 125//125 113//113 
f 126//126 124//124 113//113 
f 126//126 113//113 114//114 
f 125//125 115//115 113//113 
f 127//127 115//115 125//125 
f 102//102 113//113 115//115 
f 114//114 104//104 111//111 
f 99//99 118//118 111//111 
f 116//116 119//119 105//105 
f 120//120 121//121 119//119 
f 120//120 122//122 121//121 
f 121//121 128//128 107//107 
f 121//121 122//122 129//129 
f 109//109 129//129 122//122 
f 109//109 110//110 123//123 
f 123//123 129//129 109//109 
f 114//114 130//130 126//126 
f 114//114 111//111 118//118 
f 127//127 131//131 115//115 
f 131//131 116//116 115//115 
f 118//118 117//117 132//132 
f 116//116 133//133 119//119 
f 132//132 117//117 133//133 
f 120//120 119//119 133//133 
f 117//117 120//120 133//133 
f 128//128 121//121 129//129 
f 107//107 128//128 112//112 
f 124//124 134//134 125//125 
f 126//126 135//135 124//124 
f 126//126 130//130 135//135 
f 136//136 130//130 137//137 
f 125//125 134//134 127//127 
f 130//130 114//114 137//137 
f 137//137 114//114 118//118 
f 131//131 138//138 116//116 
f 116//116 138//138 133//133 
f 132//132 133//133 138//138 
f 112//112 128//128 123//123 
f 129//129 123//123 128//128 
f 139//139 135//135 130//130 
f 140//140 134//134 124//124 
f 135//135 140//140 124//124 
f 130//130 136//136 139//139 
f 118//118 141//141 137//137 
f 141//141 118//118 132//132 
f 139//139 140//140 135//135 
f 134//134 142//142 127//127 
f 136//136 137//137 143//143 
f 142//142 144//144 127//127 
f 131//131 127//127 144//144 
f 138//138 131//131 144//144 
f 132//132 138//138 144//144 
f 145//145 140//140 146//146 
f 140//140 139//139 146//146 
f 140//140 147//147 134//134 
f 147//147 142//142 134//134 
f 137//137 141//141 143//143 
f 148//148 132//132 144//144 
f 141//141 132//132 148//148 
f 143//143 141//141 149//149 
f 141//141 148//148 149//149 
f 145//145 150//150 140//140 
f 139//139 151//151 146//146 
f 140//140 150//150 147//147 
f 143//143 152//152 153//153 
f 143//143 153//153 136//136 
f 142//142 154//154 144//144 
f 148//148 144//144 154//154 
f 139//139 155//155 151//151 
f 150//150 156//156 147//147 
f 153//153 155//155 139//139 
f 139//139 136//136 153//153 
f 156//156 142//142 147//147 
f 156//156 157//157 142//142 
f 157//157 154//154 142//142 
f 149//149 152//152 143//143 
f 149//149 148//148 154//154 
f 145//145 146//146 158//158 
f 159//159 145//145 158//158 
f 146//146 151//151 158//158 
f 160//160 150//150 161//161 
f 145//145 161//161 150//150 
f 149//149 154//154 157//157 
f 158//158 151//151 162//162 
f 159//159 161//161 145//145 
f 151//151 155//155 162//162 
f 160//160 156//156 150//150 
f 163//163 153//153 152//152 
f 164//164 149//149 157//157 
f 152//152 149//149 164//164 
f 159//159 158//158 165//165 
f 165//165 158//158 162//162 
f 156//156 166//166 157//157 
f 164//164 157//157 166//166 
f 159//159 167//167 161//161 
f 161//161 167//167 160//160 
f 166//166 160//160 167//167 
f 162//162 155//155 168//168 
f 160//160 166//166 156//156 
f 155//155 163//163 168//168 
f 163//163 155//155 153//153 
f 164//164 166//166 169//169 
f 163//163 152//152 164//164 
f 159//159 165//165 170//170 
f 170//170 165//165 171//171 
f 159//159 170//170 167//167 
f 171//171 165//165 162//162 
f 171//171 162//162 168//168 
f 167//167 169//169 166//166 
f 163//163 164//164 169//169 
f 171//171 168//168 172//172 
f 172//172 169//169 167//167 
f 172//172 168//168 163//163 
f 163//163 169//169 172//172 
f 170//170 171//171 172//172 
f 170//170 172//172 167//167 
