# wavefront obj file written by the visualization toolkit


v 8706.29 3607.23 5413
v 8671.53 3643.36 5388
v 8729.55 3652.98 5419.93
v 8572.87 3663.73 5392.83
v 8634.38 3695.04 5390.56
v 8695.94 3694.34 5402.24
v 8645.77 3611.29 5418.06
v 8533.13 3650.25 5423.13
v 8469.98 3708.48 5410.71
v 8536.68 3734.21 5406.2
v 8638.59 3758.46 5418.07
v 8721.52 3731.57 5443.3
v 8702.53 3589.16 5462.88
v 8493.32 3651.45 5447.4
v 8415.23 3713.79 5431.74
v 8394.13 3780.07 5423.36
v 8501.83 3799.75 5426.92
v 8667.34 3806.18 5455.49
v 8342.39 3934.43 5444.87
v 8255.13 3869.48 5436.6
v 8188.41 3943.25 5441.66
v 8170.52 4058.02 5453.15
v 8603.23 3609.19 5476.75
v 8730.37 3618.41 5455.14
v 8388.54 3710.82 5455.32
v 8742.36 3675.96 5488.79
v 8299.56 3794.43 5449.89
v 8689.2 3808.57 5472.22
v 8544.24 3855.3 5451.7
v 8237.5 3819.91 5487.47
v 8196.65 3893.57 5470.03
v 8129.81 4010.96 5465.38
v 8098.53 4092.25 5461.52
v 8118.83 4078.39 5460.57
v 8122.05 4136.39 5467.03
v 8448.43 3678.57 5497.8
v 8717.21 3769.2 5498.14
v 8597.39 3879.41 5481.69
v 8467.84 3959.05 5478.29
v 8368.99 4042.85 5486.68
v 8262.8 4109.53 5482.16
v 8107.21 4141.94 5475.04
v 8170.46 4152.37 5475.56
v 8139.1 4175.52 5490.74
v 8330.55 3753.62 5490.83
v 8200.51 3874.29 5520.47
v 8653.97 3847.77 5507.13
v 8139.55 3980.82 5508.4
v 8510.87 3968.12 5502.07
v 8113.67 4084.34 5487.38
v 8429.47 4031.21 5510.47
v 8336.69 4099.35 5513.45
v 8121.97 4139.3 5513.94
v 8199.17 4179.5 5509.4
v 8688.57 3585.93 5512.58
v 8722.36 3616.54 5514.7
v 8553.65 3635.39 5538.33
v 8284.34 3792.46 5528.82
v 8556.73 3935.41 5518.95
v 8477.91 4002.04 5526.78
v 8265.34 4154.05 5516.53
v 8165.04 4171.83 5533
v 8238.59 4181.62 5533.84
v 8629.37 3607.18 5535.76
v 8740.93 3658.79 5532.57
v 8369.04 3738.55 5538.73
v 8725.33 3715.79 5544.12
v 8678.96 3808.28 5534.79
v 8598.48 3889.12 5549.91
v 8138.67 4055.98 5548.26
v 8380.02 4077.71 5543.68
v 8291.73 4139.87 5534.75
v 8214.38 4178.45 5544.48
v 8676.09 3617.44 5559.46
v 8714.99 3658.45 5558.1
v 8463.65 3720.91 5586.09
v 8484.22 3987.43 5553.82
v 8194.39 3956.42 5587.65
v 8172.68 4108.35 5581.02
v 8282.63 4123.48 5581.12
v 8597.67 3651.72 5576.18
v 8325.47 3804.34 5587.25
v 8248.65 3869.39 5573.03
v 8618.17 3825.93 5584.78
v 8501 3949.32 5584.37
v 8398.92 4027.92 5592.47
v 8213.84 4124.6 5591.99
v 8645.01 3651.4 5593.54
v 8666.09 3676.73 5595.55
v 8675.58 3723.78 5581.81
v 8255.05 3913.12 5639.79
v 8211.37 4004.05 5675.53
v 8186.83 4040.71 5609.63
v 8580.97 3715.45 5611.74
v 8589.22 3778.86 5609.79
v 8480.18 3785.79 5643.25
v 8373.08 3831.86 5651.31
v 8481.59 3906.78 5631.61
v 8352.56 4028.35 5653.86
v 8214.68 4075.67 5653.16
v 8268.04 4081.83 5655.17
v 8510.77 3817.84 5637.65
v 8453.83 3814.83 5711.49
v 8462.85 3885.04 5677.7
v 8298.11 3888.13 5692.38
v 8232.74 3929.77 5726.82
v 8370.95 3816 5727.14
v 8470.15 3842.34 5687.37
v 8481.63 3883.67 5723.8
v 8440.84 3951.2 5712.76
v 8205.45 4058.68 5717.97
v 8336.71 4070.73 5743.34
v 8234.1 4106.87 5741.87
v 8599.67 3741.48 5753.45
v 8531.05 3757.48 5748.83
v 8539.87 3807.65 5742.09
v 8297.05 3847.22 5749.45
v 8163.58 4022.03 5773.22
v 8604.93 3677.44 5775.06
v 8518.3 3672.23 5804.92
v 8471.9 3747.06 5763.37
v 8679.19 3690.16 5780.91
v 8624.31 3780.99 5772.27
v 8358.66 3779.65 5792.39
v 8541.29 3885.41 5770.3
v 8239.85 3869.79 5799.84
v 8460.04 3997.9 5796.42
v 8166.06 4108.38 5788.66
v 8267.98 4151.02 5806.12
v 8356.92 4092.41 5812.69
v 8695.48 3632.32 5811.49
v 8639.32 3625.42 5816.46
v 8723.53 3672.78 5815.66
v 8692.85 3748.26 5807.21
v 8636.75 3825.56 5804.86
v 8177.55 3946.12 5805.78
v 8604.54 3888.04 5836.81
v 8177 4175.61 5832.87
v 8695.75 3596.51 5853.76
v 8738.63 3711.83 5854.34
v 8691.75 3794.47 5846.61
v 8125.58 3999.05 5852.78
v 8514.29 3972.11 5839.74
v 8118.17 4083.64 5845.11
v 8130.29 4145.73 5852.41
v 8592.46 3614.38 5862.78
v 8732.18 3643.25 5872.1
v 8425.55 3700.28 5862.71
v 8271.72 3813.03 5860.98
v 8180.85 3911.74 5857.3
v 8417.18 4053.58 5849.25
v 8203.42 4197.96 5859.5
v 8678.72 3586.35 5901.28
v 8532.64 3626.09 5917.28
v 8733.88 3748.94 5902.61
v 8686.7 3813.04 5889.21
v 8292.69 4143.83 5849.07
v 8130.52 4182.79 5877.3
v 8164.1 4196.22 5867.12
v 8628.55 3595.43 5923.47
v 8717.43 3608 5923.82
v 8744.03 3690.2 5913.28
v 8312.15 3769.76 5917.6
v 8639.07 3861.53 5892.35
v 8130.35 3963.84 5898.78
v 8535.89 3947.87 5871.12
v 8105.07 4041.29 5901.57
v 8110.96 4118.22 5890.65
v 8220.87 4189.38 5875.24
v 8161.48 4192.37 5881.01
v 8433.49 3688.44 5928.12
v 8197.94 3881.2 5914.99
v 8606.55 3875.92 5909.66
v 8438.81 4022.62 5881.28
v 8102.2 4096.03 5916.32
v 8315.14 4112.3 5881.03
v 8669.34 3595.7 5951.48
v 8736.15 3651.14 5948.12
v 8235.14 3842.28 5942.3
v 8676.83 3798.65 5926.71
v 8138.99 3965.64 5928.67
v 8456.77 3922.81 5919.21
v 8360.28 4033.16 5902.62
v 8254.85 4086.49 5914.94
v 8125.23 4134.42 5905.93
v 8199.97 4136.92 5897.79
v 8596.86 3609.77 5956.26
v 8702.55 3625.63 5975.51
v 8511.32 3654.14 5964.05
v 8389.68 3728.84 5951.71
v 8187.61 3903.6 5942.04
v 8579.13 3804.17 5955.15
v 8301.6 4002.22 5928.65
v 8204.54 4035.68 5932.72
v 8452.65 3703.82 5976.07
v 8725.61 3709.77 5947.84
v 8298.42 3799.73 5947.65
v 8301.4 3908.96 5951.56
v 8452.93 3805.5 5965.23
v 8133.73 4039.98 5921.31
v 8715.8 3667.95 5978.42
v 8368.45 3788.07 5962.67
v 8665.63 3709.46 5980.67
v 8566.36 3721.49 5988.5
v 8254.17 3864.89 5950.56
v 8200.61 3950.91 5936.1
v 8631.29 3631 5985.33
v 8551.74 3678.19 5987.78
v 8478.33 3737.28 5975.55
v 8681.19 3656.64 5988.13
v 8619.61 3678.25 5985.17
vn 0.437993 -0.655295 -0.615427
vn 0.166797 -0.219092 -0.961341
vn 0.806426 -0.0422697 -0.589822
vn -0.190419 -0.284629 -0.939536
vn 0.0454195 0.213567 -0.975872
vn 0.407235 0.280125 -0.869304
vn -0.183035 -0.815833 -0.548558
vn -0.334703 -0.72622 -0.600481
vn -0.276529 -0.242795 -0.929829
vn -0.0544765 0.212286 -0.975688
vn 0.192067 0.424709 -0.884722
vn 0.735132 0.398469 -0.548455
vn 0.292805 -0.947224 -0.130504
vn -0.418017 -0.857956 -0.29862
vn -0.41254 -0.511204 -0.753977
vn -0.170719 -0.0313711 -0.98482
vn 0.0433675 0.285105 -0.957515
vn 0.372401 0.521871 -0.767443
vn 0.100883 0.223335 -0.969507
vn -0.313521 -0.226686 -0.922127
vn -0.350585 -0.146427 -0.925013
vn -0.0363518 0.120694 -0.992024
vn -0.302458 -0.950726 -0.0681165
vn 0.874963 -0.46712 -0.127434
vn -0.559117 -0.782532 -0.273919
vn 0.999156 0.0227269 -0.0342177
vn -0.529555 -0.544239 -0.650673
vn 0.672668 0.632073 -0.38471
vn 0.192635 0.423636 -0.885113
vn -0.702058 -0.697318 -0.144442
vn -0.745421 -0.493994 -0.447569
vn -0.743494 -0.303345 -0.595985
vn -0.798916 -0.00143149 -0.601441
vn -0.207243 -0.0203806 -0.978077
vn -0.219481 0.362377 -0.90582
vn -0.467529 -0.861227 0.199261
vn 0.889006 0.454472 0.0558881
vn 0.463605 0.641527 -0.611158
vn 0.294948 0.459741 -0.837642
vn 0.327422 0.471066 -0.81908
vn 0.28474 0.457914 -0.842163
vn -0.902066 0.405954 -0.146554
vn 0.131406 0.502748 -0.854387
vn -0.3887 0.877076 -0.282224
vn -0.581948 -0.813215 -0.0042882
vn -0.787602 -0.555613 0.266415
vn 0.707609 0.706589 -0.00461587
vn -0.917579 -0.366073 0.155048
vn 0.521388 0.684307 -0.509782
vn -0.963641 -0.12783 0.234641
vn 0.491197 0.695279 -0.524702
vn 0.504739 0.699375 -0.506076
vn -0.825055 0.326506 0.461171
vn 0.114257 0.915503 -0.385746
vn 0.134525 -0.951313 0.27732
vn 0.754344 -0.581944 0.303821
vn -0.372425 -0.839223 0.396238
vn -0.603675 -0.710299 0.362011
vn 0.656546 0.751552 -0.064162
vn 0.61844 0.782449 -0.0728369
vn 0.454095 0.719719 -0.525169
vn -0.398819 0.775258 0.489815
vn 0.38374 0.921915 0.0530754
vn -0.231453 -0.873599 0.428083
vn 0.911191 -0.167159 0.376548
vn -0.484948 -0.786928 0.381536
vn 0.80821 0.264075 0.526366
vn 0.735028 0.535415 0.416011
vn 0.644185 0.648592 0.405406
vn -0.856846 -0.0802753 0.509285
vn 0.591133 0.797968 0.117513
vn 0.592706 0.805294 -0.0142086
vn -0.021093 0.879979 0.474544
vn 0.23425 -0.673501 0.701088
vn 0.634746 -0.217109 0.741594
vn -0.331729 -0.685216 0.64841
vn 0.602793 0.71102 0.362064
vn -0.804428 -0.376666 0.459367
vn -0.670228 0.339734 0.65983
vn 0.39782 0.761533 0.511671
vn -0.238693 -0.670641 0.70233
vn -0.507862 -0.655932 0.558416
vn -0.65285 -0.570007 0.498878
vn 0.557652 0.394278 0.730458
vn 0.541017 0.582209 0.606905
vn 0.549605 0.656437 0.516744
vn -0.174009 0.70965 0.682728
vn 0.00785687 -0.511549 0.859218
vn 0.377059 -0.136633 0.916056
vn 0.542471 0.175491 0.82154
vn -0.698026 -0.653827 0.292012
vn -0.985509 -0.169597 -0.00288019
vn -0.862371 -0.00596727 0.506242
vn 0.0229007 -0.294867 0.955264
vn 0.363454 0.131955 0.92222
vn 0.137173 -0.564875 0.813695
vn -0.426648 -0.847807 0.314953
vn 0.664807 0.44061 0.603236
vn 0.634583 0.758713 0.147169
vn -0.762977 0.566507 0.311346
vn 0.198999 0.964692 0.172535
vn 0.550427 0.033728 0.834202
vn 0.119428 -0.835189 -0.536839
vn 0.951268 0.26125 0.16382
vn -0.589506 -0.775816 -0.224928
vn -0.751549 -0.566291 -0.338362
vn -0.369233 -0.795681 -0.480165
vn 0.984436 -0.175679 0.00482822
vn 0.723224 0.269798 -0.635733
vn 0.777532 0.544925 -0.313848
vn -0.853552 0.332602 -0.40103
vn 0.509316 0.773029 -0.378185
vn -0.217335 0.834942 -0.505607
vn 0.200176 -0.0852301 -0.976046
vn 0.0150619 -0.337288 -0.941281
vn 0.384083 0.0352253 -0.922626
vn -0.559492 -0.689726 -0.459616
vn -0.855593 -0.118594 -0.503882
vn -0.0369534 -0.490259 -0.870793
vn -0.34061 -0.742359 -0.576965
vn -0.224523 -0.617181 -0.754107
vn 0.427447 -0.0792835 -0.900557
vn 0.471148 0.278256 -0.837015
vn -0.487992 -0.744885 -0.454984
vn 0.57315 0.434855 -0.694551
vn -0.667343 -0.653425 -0.357336
vn 0.617175 0.672902 -0.407795
vn -0.672239 0.361962 -0.645816
vn 0.32895 0.829407 -0.451526
vn 0.579347 0.770946 -0.264573
vn 0.421987 -0.558602 -0.714066
vn -0.113256 -0.778307 -0.617585
vn 0.798123 -0.110241 -0.592323
vn 0.682288 0.324317 -0.655212
vn 0.611964 0.495136 -0.616717
vn -0.780452 -0.47706 -0.404114
vn 0.674883 0.683706 -0.277631
vn -0.32087 0.706853 -0.630398
vn 0.333611 -0.870151 -0.362684
vn 0.939543 0.176919 -0.293188
vn 0.773168 0.531875 -0.345428
vn -0.885778 -0.326884 -0.329461
vn 0.655121 0.748217 -0.104827
vn -0.910451 0.0644111 -0.408571
vn -0.789566 0.358677 -0.497931
vn -0.290474 -0.910991 -0.292781
vn 0.90776 -0.368621 -0.200227
vn -0.516868 -0.822114 -0.238698
vn -0.646952 -0.730095 -0.220032
vn -0.761397 -0.602675 -0.238866
vn 0.614084 0.784279 0.0883601
vn 0.184836 0.974871 -0.124344
vn 0.0751619 -0.997108 -0.0112646
vn -0.427107 -0.902984 0.0468969
vn 0.88072 0.447791 0.154324
vn 0.751879 0.654189 0.0819475
vn 0.55866 0.827887 0.0500237
vn -0.72872 0.684771 -0.00745649
vn -0.255875 0.953368 -0.160053
vn -0.221868 -0.973152 0.0612434
vn 0.659544 -0.734949 0.157648
vn 0.992035 0.0441553 0.117968
vn -0.613647 -0.773988 0.156145
vn 0.644731 0.719221 0.258927
vn -0.87298 -0.487369 0.0194139
vn 0.571875 0.724542 0.384705
vn -0.972661 -0.138623 0.186319
vn -0.962112 0.271954 -0.0195265
vn 0.342289 0.743093 0.575022
vn -0.0914872 0.77504 0.625254
vn -0.537716 -0.824896 0.174377
vn -0.757588 -0.644495 0.103374
vn 0.379029 0.607154 0.698356
vn 0.451783 0.565337 0.690135
vn -0.770681 0.172494 0.613431
vn 0.414394 0.599643 0.684621
vn 0.0918106 -0.891796 0.443025
vn 0.91395 -0.204638 0.350455
vn -0.564003 -0.550776 0.615261
vn 0.537273 0.546292 0.642575
vn -0.661335 -0.241957 0.709995
vn 0.229223 0.404525 0.885334
vn 0.278891 0.371673 0.885482
vn 0.186981 0.36345 0.912657
vn -0.331166 0.410609 0.849546
vn 0.118689 0.389 0.91356
vn -0.257424 -0.857365 0.445711
vn 0.439547 -0.503809 0.743623
vn -0.38581 -0.693446 0.60851
vn -0.490031 -0.608847 0.623839
vn -0.490691 -0.269927 0.82847
vn 0.17392 0.412792 0.894066
vn 0.180069 0.264503 0.947425
vn -0.0174738 0.19783 0.980081
vn -0.286553 -0.283979 0.91501
vn 0.7387 0.332409 0.586367
vn -0.391247 -0.456796 0.798913
vn 0.0145632 0.15627 0.987607
vn 0.0138196 0.232541 0.972488
vn -0.312567 0.0290215 0.949452
vn 0.556668 0.0766079 0.827195
vn -0.181321 -0.079684 0.98019
vn 0.234692 0.307337 0.922206
vn 0.0091113 0.145611 0.9893
vn -0.182991 -0.077811 0.98003
vn -0.142016 0.0711491 0.987304
vn -0.0650647 -0.433851 0.898632
vn -0.111753 -0.154454 0.981659
vn -0.106909 0.073359 0.991559
vn 0.131097 -0.0426456 0.990452
vn 0.0218758 0.0170917 0.999615

g grp1
usemtl mtl1
f 1//1 2//2 3//3 
f 2//2 4//4 5//5 
f 6//6 3//3 2//2 
f 6//6 2//2 5//5 
f 7//7 8//8 4//4 
f 2//2 7//7 4//4 
f 1//1 7//7 2//2 
f 8//8 9//9 4//4 
f 4//4 9//9 10//10 
f 4//4 10//10 5//5 
f 5//5 11//11 6//6 
f 11//11 12//12 6//6 
f 1//1 13//13 7//7 
f 8//8 14//14 15//15 
f 8//8 15//15 9//9 
f 3//3 6//6 12//12 
f 16//16 9//9 15//15 
f 10//10 9//9 16//16 
f 11//11 10//10 17//17 
f 10//10 11//11 5//5 
f 12//12 11//11 18//18 
f 10//10 16//16 17//17 
f 17//17 16//16 19//19 
f 19//19 16//16 20//20 
f 20//20 21//21 19//19 
f 19//19 21//21 22//22 
f 8//8 23//23 14//14 
f 7//7 23//23 8//8 
f 1//1 3//3 24//24 
f 25//25 15//15 14//14 
f 26//26 3//3 12//12 
f 15//15 25//25 27//27 
f 27//27 20//20 16//16 
f 15//15 27//27 16//16 
f 12//12 18//18 28//28 
f 29//29 18//18 11//11 
f 27//27 30//30 31//31 
f 27//27 31//31 20//20 
f 31//31 21//21 20//20 
f 21//21 31//31 32//32 
f 21//21 32//32 22//22 
f 33//33 34//34 32//32 
f 32//32 34//34 22//22 
f 22//22 34//34 35//35 
f 34//34 33//33 35//35 
f 7//7 13//13 23//23 
f 14//14 23//23 36//36 
f 24//24 13//13 1//1 
f 25//25 14//14 36//36 
f 24//24 3//3 26//26 
f 26//26 12//12 37//37 
f 12//12 28//28 37//37 
f 29//29 38//38 18//18 
f 19//19 29//29 17//17 
f 11//11 17//17 29//29 
f 29//29 19//19 39//39 
f 39//39 19//19 40//40 
f 19//19 22//22 41//41 
f 40//40 19//19 41//41 
f 35//35 33//33 42//42 
f 22//22 35//35 43//43 
f 43//43 41//41 22//22 
f 42//42 44//44 35//35 
f 43//43 35//35 44//44 
f 25//25 36//36 45//45 
f 25//25 45//45 27//27 
f 27//27 45//45 30//30 
f 46//46 31//31 30//30 
f 28//28 18//18 38//38 
f 47//47 28//28 38//38 
f 39//39 38//38 29//29 
f 31//31 48//48 32//32 
f 49//49 38//38 39//39 
f 48//48 50//50 32//32 
f 32//32 50//50 33//33 
f 51//51 49//49 39//39 
f 51//51 39//39 40//40 
f 51//51 40//40 52//52 
f 52//52 40//40 41//41 
f 50//50 42//42 33//33 
f 44//44 42//42 53//53 
f 54//54 41//41 43//43 
f 43//43 44//44 54//54 
f 13//13 55//55 23//23 
f 56//56 55//55 13//13 
f 57//57 36//36 23//23 
f 24//24 56//56 13//13 
f 56//56 24//24 26//26 
f 58//58 30//30 45//45 
f 28//28 47//47 37//37 
f 48//48 31//31 46//46 
f 47//47 38//38 59//59 
f 38//38 49//49 59//59 
f 49//49 51//51 60//60 
f 41//41 61//61 52//52 
f 50//50 53//53 42//42 
f 61//61 41//41 54//54 
f 44//44 53//53 62//62 
f 61//61 54//54 63//63 
f 44//44 62//62 54//54 
f 23//23 55//55 64//64 
f 56//56 26//26 65//65 
f 45//45 36//36 66//66 
f 26//26 37//37 67//67 
f 66//66 58//58 45//45 
f 37//37 68//68 67//67 
f 58//58 46//46 30//30 
f 37//37 47//47 68//68 
f 69//69 47//47 59//59 
f 49//49 60//60 59//59 
f 48//48 70//70 50//50 
f 51//51 52//52 71//71 
f 61//61 72//72 52//52 
f 63//63 72//72 61//61 
f 54//54 62//62 73//73 
f 63//63 54//54 73//73 
f 64//64 57//57 23//23 
f 56//56 74//74 55//55 
f 56//56 75//75 74//74 
f 56//56 65//65 75//75 
f 57//57 76//76 36//36 
f 76//76 66//66 36//36 
f 26//26 67//67 65//65 
f 47//47 69//69 68//68 
f 77//77 69//69 59//59 
f 48//48 78//78 70//70 
f 60//60 77//77 59//59 
f 60//60 71//71 77//77 
f 51//51 71//71 60//60 
f 70//70 53//53 50//50 
f 70//70 79//79 53//53 
f 79//79 62//62 53//53 
f 73//73 80//80 63//63 
f 64//64 55//55 74//74 
f 81//81 57//57 64//64 
f 81//81 76//76 57//57 
f 82//82 58//58 66//66 
f 76//76 82//82 66//66 
f 58//58 82//82 83//83 
f 58//58 83//83 46//46 
f 68//68 69//69 84//84 
f 46//46 78//78 48//48 
f 80//80 71//71 72//72 
f 52//52 72//72 71//71 
f 63//63 80//80 72//72 
f 81//81 64//64 74//74 
f 67//67 75//75 65//65 
f 84//84 67//67 68//68 
f 46//46 83//83 78//78 
f 84//84 69//69 85//85 
f 69//69 77//77 85//85 
f 77//77 86//86 85//85 
f 77//77 71//71 86//86 
f 71//71 80//80 86//86 
f 73//73 62//62 87//87 
f 80//80 73//73 87//87 
f 81//81 74//74 88//88 
f 74//74 75//75 89//89 
f 89//89 88//88 74//74 
f 89//89 75//75 90//90 
f 75//75 67//67 90//90 
f 90//90 67//67 84//84 
f 91//91 78//78 83//83 
f 91//91 92//92 78//78 
f 78//78 93//93 70//70 
f 79//79 70//70 93//93 
f 87//87 62//62 79//79 
f 88//88 94//94 81//81 
f 89//89 94//94 88//88 
f 94//94 76//76 81//81 
f 94//94 89//89 95//95 
f 90//90 95//95 89//89 
f 96//96 76//76 94//94 
f 82//82 76//76 97//97 
f 97//97 76//76 96//96 
f 90//90 84//84 95//95 
f 82//82 91//91 83//83 
f 91//91 82//82 97//97 
f 95//95 84//84 98//98 
f 84//84 85//85 98//98 
f 78//78 92//92 93//93 
f 86//86 99//99 98//98 
f 85//85 86//86 98//98 
f 93//93 100//100 79//79 
f 80//80 87//87 101//101 
f 99//99 80//80 101//101 
f 86//86 80//80 99//99 
f 87//87 79//79 100//100 
f 94//94 95//95 102//102 
f 102//102 96//96 94//94 
f 103//103 97//97 96//96 
f 95//95 98//98 102//102 
f 102//102 98//98 104//104 
f 105//105 91//91 97//97 
f 91//91 106//106 92//92 
f 100//100 93//93 92//92 
f 101//101 87//87 100//100 
f 103//103 107//107 97//97 
f 103//103 96//96 108//108 
f 102//102 104//104 108//108 
f 102//102 108//108 96//96 
f 105//105 97//97 107//107 
f 104//104 109//109 108//108 
f 105//105 106//106 91//91 
f 104//104 110//110 109//109 
f 98//98 110//110 104//104 
f 92//92 111//111 100//100 
f 112//112 110//110 99//99 
f 98//98 99//99 110//110 
f 101//101 112//112 99//99 
f 101//101 100//100 113//113 
f 114//114 115//115 116//116 
f 116//116 115//115 103//103 
f 103//103 108//108 116//116 
f 107//107 117//117 105//105 
f 108//108 109//109 116//116 
f 117//117 106//106 105//105 
f 106//106 118//118 92//92 
f 118//118 111//111 92//92 
f 112//112 101//101 113//113 
f 100//100 111//111 113//113 
f 119//119 120//120 121//121 
f 122//122 119//119 114//114 
f 123//123 122//122 114//114 
f 115//115 121//121 103//103 
f 119//119 121//121 115//115 
f 114//114 119//119 115//115 
f 121//121 124//124 107//107 
f 103//103 121//121 107//107 
f 114//114 116//116 123//123 
f 124//124 117//117 107//107 
f 116//116 125//125 123//123 
f 117//117 126//126 106//106 
f 109//109 125//125 116//116 
f 110//110 125//125 109//109 
f 125//125 110//110 127//127 
f 127//127 110//110 112//112 
f 128//128 111//111 118//118 
f 111//111 128//128 113//113 
f 112//112 129//129 130//130 
f 131//131 132//132 119//119 
f 132//132 120//120 119//119 
f 131//131 119//119 122//122 
f 122//122 133//133 131//131 
f 133//133 122//122 134//134 
f 121//121 120//120 124//124 
f 122//122 123//123 134//134 
f 117//117 124//124 126//126 
f 125//125 135//135 123//123 
f 134//134 123//123 135//135 
f 126//126 136//136 106//106 
f 135//135 125//125 137//137 
f 136//136 118//118 106//106 
f 125//125 127//127 137//137 
f 112//112 130//130 127//127 
f 112//112 113//113 129//129 
f 113//113 138//138 129//129 
f 113//113 128//128 138//138 
f 132//132 131//131 139//139 
f 133//133 134//134 140//140 
f 134//134 135//135 141//141 
f 142//142 118//118 136//136 
f 137//137 127//127 143//143 
f 144//144 118//118 142//142 
f 118//118 144//144 128//128 
f 128//128 145//145 138//138 
f 139//139 146//146 132//132 
f 132//132 146//146 120//120 
f 131//131 133//133 147//147 
f 120//120 146//146 148//148 
f 140//140 147//147 133//133 
f 124//124 120//120 148//148 
f 134//134 141//141 140//140 
f 124//124 149//149 126//126 
f 126//126 149//149 150//150 
f 135//135 137//137 141//141 
f 126//126 150//150 136//136 
f 143//143 127//127 151//151 
f 130//130 151//151 127//127 
f 145//145 128//128 144//144 
f 152//152 129//129 138//138 
f 139//139 153//153 146//146 
f 147//147 139//139 131//131 
f 146//146 154//154 148//148 
f 149//149 124//124 148//148 
f 140//140 141//141 155//155 
f 156//156 141//141 137//137 
f 136//136 150//150 142//142 
f 130//130 129//129 157//157 
f 145//145 158//158 138//138 
f 129//129 152//152 157//157 
f 159//159 138//138 158//158 
f 159//159 152//152 138//138 
f 160//160 146//146 153//153 
f 139//139 147//147 161//161 
f 147//147 140//140 162//162 
f 163//163 149//149 148//148 
f 155//155 141//141 156//156 
f 156//156 137//137 164//164 
f 142//142 150//150 165//165 
f 143//143 166//166 137//137 
f 143//143 151//151 166//166 
f 144//144 142//142 167//167 
f 167//167 168//168 144//144 
f 144//144 168//168 145//145 
f 151//151 130//130 157//157 
f 158//158 145//145 168//168 
f 152//152 169//169 157//157 
f 152//152 159//159 170//170 
f 152//152 170//170 169//169 
f 139//139 161//161 153//153 
f 146//146 160//160 154//154 
f 154//154 171//171 148//148 
f 148//148 171//171 163//163 
f 140//140 155//155 162//162 
f 149//149 163//163 172//172 
f 172//172 150//150 149//149 
f 150//150 172//172 165//165 
f 164//164 166//166 173//173 
f 137//137 166//166 164//164 
f 165//165 167//167 142//142 
f 166//166 151//151 174//174 
f 167//167 175//175 168//168 
f 151//151 176//176 174//174 
f 176//176 151//151 157//157 
f 157//157 169//169 176//176 
f 161//161 177//177 153//153 
f 147//147 162//162 178//178 
f 163//163 179//179 172//172 
f 156//156 164//164 180//180 
f 156//156 180//180 155//155 
f 181//181 165//165 172//172 
f 173//173 166//166 182//182 
f 165//165 181//181 167//167 
f 166//166 174//174 182//182 
f 182//182 174//174 183//183 
f 183//183 174//174 176//176 
f 183//183 176//176 184//184 
f 185//185 168//168 175//175 
f 168//168 185//185 158//158 
f 184//184 176//176 186//186 
f 176//176 169//169 186//186 
f 159//159 158//158 170//170 
f 169//169 170//170 186//186 
f 153//153 177//177 160//160 
f 160//160 177//177 187//187 
f 160//160 187//187 154//154 
f 188//188 177//177 161//161 
f 154//154 189//189 171//171 
f 161//161 178//178 188//188 
f 178//178 161//161 147//147 
f 189//189 190//190 171//171 
f 190//190 163//163 171//171 
f 191//191 172//172 179//179 
f 164//164 173//173 180//180 
f 172//172 191//191 181//181 
f 173//173 182//182 192//192 
f 182//182 183//183 193//193 
f 183//183 184//184 193//193 
f 193//193 184//184 194//194 
f 184//184 186//186 194//194 
f 170//170 158//158 185//185 
f 186//186 170//170 185//185 
f 189//189 154//154 187//187 
f 195//195 190//190 189//189 
f 178//178 162//162 196//196 
f 163//163 190//190 197//197 
f 155//155 196//196 162//162 
f 163//163 197//197 179//179 
f 155//155 180//180 196//196 
f 198//198 199//199 182//182 
f 182//182 199//199 192//192 
f 180//180 173//173 192//192 
f 182//182 193//193 198//198 
f 198//198 193//193 194//194 
f 181//181 200//200 167//167 
f 167//167 200//200 175//175 
f 175//175 200//200 185//185 
f 194//194 185//185 200//200 
f 194//194 186//186 185//185 
f 178//178 196//196 201//201 
f 202//202 190//190 195//195 
f 197//197 190//190 202//202 
f 196//196 180//180 203//203 
f 204//204 203//203 192//192 
f 192//192 199//199 204//204 
f 179//179 197//197 205//205 
f 205//205 197//197 202//202 
f 180//180 192//192 203//203 
f 179//179 205//205 191//191 
f 198//198 205//205 202//202 
f 199//199 198//198 202//202 
f 191//191 205//205 206//206 
f 198//198 206//206 205//205 
f 181//181 191//191 206//206 
f 181//181 206//206 200//200 
f 194//194 200//200 206//206 
f 194//194 206//206 198//198 
f 187//187 177//177 207//207 
f 187//187 207//207 189//189 
f 188//188 207//207 177//177 
f 178//178 201//201 188//188 
f 195//195 189//189 208//208 
f 208//208 209//209 195//195 
f 209//209 202//202 195//195 
f 196//196 203//203 201//201 
f 199//199 202//202 209//209 
f 204//204 199//199 209//209 
f 210//210 207//207 188//188 
f 189//189 207//207 208//208 
f 211//211 208//208 207//207 
f 210//210 211//211 207//207 
f 188//188 201//201 210//210 
f 204//204 209//209 208//208 
f 211//211 204//204 208//208 
f 210//210 203//203 211//211 
f 201//201 203//203 210//210 
f 211//211 203//203 204//204 
