# wavefront obj file written by the visualization toolkit


v 12297.2 5741.36 5285.18
v 12387.2 5773.37 5285.08
v 12296.1 5730.24 5299.52
v 12384.3 5788.31 5282.43
v 12279.9 5757.68 5303.21
v 12450.8 5809.11 5291.03
v 12439.4 5835.19 5307.24
v 12199.1 5684.68 5311.15
v 12209 5695.05 5312.06
v 12366.8 5761.03 5302.61
v 12436.2 5797.84 5301.09
v 12543.3 5848.12 5310.58
v 12331.5 5840.96 5354.78
v 12700.7 5888.79 5322.86
v 12668.8 5887.13 5312.48
v 12749.1 5902.49 5336.36
v 12594.1 5896.95 5335.83
v 12148.7 5646.7 5363.8
v 12135.3 5637.22 5353.48
v 12224.5 5696.03 5351.06
v 12155.8 5650.75 5337.94
v 12164.4 5675.89 5347.13
v 12562.5 5870.68 5343.77
v 12772.3 5904.57 5339.73
v 12717.5 5920.81 5343.5
v 12765.6 5906.7 5345.55
v 12116.3 5626.79 5390.58
v 12129.4 5637.49 5375.33
v 12349.7 5771.48 5366.34
v 12211.2 5748.94 5381.98
v 12286.9 5835.72 5402.83
v 12722.6 5922.62 5324.19
v 12484.4 5903.78 5368.69
v 12626.4 5923.76 5360.59
v 12743.2 5947.42 5329.87
v 12138 5664.97 5391.41
v 12374 5886.15 5405.75
v 12698.6 5929.1 5342.96
v 12140.9 5655.7 5425.62
v 12122.9 5636.36 5411.34
v 12219 5705.5 5408
v 12443 5850.38 5410.54
v 12566.1 5915.01 5380.27
v 12664.5 5924.02 5346.74
v 12707.5 5934.22 5334.47
v 12456.5 5918.75 5413.01
v 12534 5919.9 5390.19
v 12617.6 5921.07 5359.17
v 12222.3 5773.93 5439.57
v 12309.2 5847.67 5432.91
v 12133.8 5655.47 5429
v 12310.7 5775.55 5429.06
v 12160.5 5685.63 5428.3
v 12375.2 5882.81 5436.76
v 12456.5 5892.08 5425.93
v 12439.6 5900.74 5423.99
v 12205.4 5749.84 5454.59
v 12293.4 5823.65 5449.91
v 12218.6 5725.34 5443.98
v 12195.9 5725.55 5444.81
v 12347.3 5822.24 5443.55
v 12363.2 5856.08 5442.28
v 12267.4 5786.02 5445.1
v 12181.8 5716.1 5915.37
v 12255.7 5792.64 5918.23
v 12242.3 5764.83 5914.99
v 12349.7 5843.05 5926.04
v 12314 5778.74 5966.99
v 12182 5696.28 5947.35
v 12135.2 5664.48 5947.22
v 12172.9 5717.47 5950.3
v 12236.9 5791.37 5943.67
v 12445.5 5879.12 5958.31
v 12298.6 5842.74 5943.71
v 12379.1 5876.61 5941.22
v 12448.3 5894.43 5955.23
v 12126.7 5646.07 5979.52
v 12119.4 5632.38 5985.52
v 12127.5 5647.82 5983.3
v 12476.4 5844.71 6018.97
v 12530.8 5911.77 5993.15
v 12368.2 5885.48 5981.7
v 12474.8 5905.93 5977.61
v 12343.4 5755.15 6045.02
v 12227.7 5776.51 5989.78
v 12487.1 5908.85 6022.83
v 12124.8 5635.86 6014.94
v 12148.8 5679.95 5999.46
v 12212.8 5693.24 6026.92
v 12619.8 5915.96 6026.86
v 12132.5 5642.05 6009.79
v 12311.7 5838.61 6029
v 12634.5 5893.25 6046.03
v 12173.2 5696.85 6028.81
v 12438.6 5795.1 6074.28
v 12247.3 5768.52 6045.08
v 12387.2 5871.82 6040.57
v 12579.7 5906.52 6051.21
v 12696 5905.02 6052.34
v 12722.4 5902.95 6066.66
v 12183.7 5677.37 6041.91
v 12562.5 5849.32 6068.04
v 12658 5876.88 6069.42
v 12720 5905.98 6072.27
v 12749.5 5917.93 6057.63
v 12748.4 5895.34 6059.59
v 12462.4 5862.7 6075.59
v 12318.3 5738.11 6077.49
v 12264.7 5745.96 6070.5
v 12490.9 5817.39 6090.53
v 12344.1 5816.83 6062.65
v 12602.3 5859.12 6079.33
v 12685.9 5887.58 6071.79
v 12238.7 5705.97 6061.59
v 12399.2 5780.27 6089.8
v 12732.3 5905.87 6059.42
v 12591.5 5875.93 6077.82
v 12677.6 5883.93 6065.24
v 12293.5 5738.33 6078.09
v 12394 5780.28 6092.99
v 12586.1 5854.05 6080.45
v 12370.5 5790.63 6083.71
v 12483.7 5827.09 6081.19
v 12747.8 5906.01 5298.28
v 12765.8 5921.2 5297.61
v 12758.4 5936.9 5311.38
v 12745.8 5913.29 5352.47
vn -0.0686104 -0.191878 -0.979018
vn 0.342259 -0.667626 -0.661161
vn 0.376343 -0.892483 -0.248678
vn -0.0565975 0.226358 -0.972398
vn -0.456748 0.572204 -0.681149
vn 0.292586 -0.20205 -0.934649
vn -0.119608 0.571307 -0.811974
vn 0.1088 -0.68995 -0.715634
vn -0.486871 0.237964 -0.840434
vn 0.431886 -0.901924 0.00295928
vn 0.489179 -0.861369 -0.136918
vn 0.298244 -0.450484 -0.841495
vn -0.426051 0.735393 -0.526951
vn 0.144135 0.0963699 -0.984854
vn 0.314074 -0.948911 -0.0304089
vn 0.275651 -0.472181 -0.837294
vn -0.0783808 0.621107 -0.779796
vn 0.451048 -0.89232 -0.0179267
vn -0.371448 -0.676089 -0.63634
vn 0.492547 -0.869644 0.0334269
vn -0.637039 0.0613683 -0.768385
vn -0.718023 0.514985 -0.468224
vn 0.383263 -0.788059 0.481738
vn 0.181453 0.197599 -0.963343
vn 0.0923903 0.898823 -0.428463
vn 0.160836 0.738377 -0.654929
vn -0.490993 -0.852424 0.179723
vn -0.917024 0.155029 -0.367468
vn 0.463572 -0.840239 0.281245
vn -0.712904 0.650979 -0.260757
vn -0.607846 0.779105 -0.153356
vn 0.34956 -0.552748 0.75649
vn -0.182069 0.874463 -0.449628
vn 0.000562573 0.999028 0.0440741
vn 0.325702 -0.42024 0.846946
vn -0.835416 0.540357 -0.100467
vn -0.408333 0.903757 -0.128402
vn 0.230405 0.49118 0.840033
vn 0.346976 -0.787054 0.510053
vn -0.958098 0.180121 0.22272
vn 0.522095 -0.790266 0.320774
vn 0.446747 -0.58523 0.6767
vn 0.387058 -0.109952 0.915476
vn 0.303255 -0.265985 0.915035
vn 0.289238 -0.326982 0.89968
vn -0.124657 0.958351 0.256951
vn 0.187858 0.744235 0.640955
vn 0.236116 0.42425 0.874221
vn -0.700566 0.661526 0.267564
vn -0.515239 0.793129 0.324768
vn -0.400545 -0.249292 0.881712
vn 0.466893 -0.689637 0.553545
vn -0.785573 0.455739 0.418541
vn -0.229916 0.695331 0.680922
vn 0.290943 0.0375996 0.956001
vn 0.0985646 0.468872 0.87775
vn -0.328483 0.129922 0.935532
vn -0.230537 0.389222 0.891829
vn 0.280059 -0.458169 0.843593
vn -0.149463 -0.109309 0.982707
vn 0.268451 -0.290062 0.918585
vn 0.0711536 0.122033 0.989972
vn 0.117627 -0.127204 0.984877
vn -0.252088 -0.0597201 -0.96586
vn -0.381231 0.4911 -0.783252
vn 0.308009 -0.380967 -0.871777
vn 0.239219 -0.0787858 -0.967764
vn 0.481344 -0.712519 -0.510513
vn 0.428893 -0.73601 -0.523776
vn -0.563565 -0.310064 -0.765673
vn -0.79249 0.565408 -0.228636
vn -0.689356 0.693417 -0.20967
vn 0.454343 -0.433945 -0.777988
vn -0.533224 0.809723 -0.244992
vn -0.178546 0.738118 -0.650618
vn 0.224683 0.381299 -0.896732
vn 0.276281 -0.890345 -0.361877
vn -0.850703 -0.513291 -0.113302
vn -0.934526 0.355787 -0.00873472
vn 0.416461 -0.71954 -0.555718
vn 0.415764 0.0293589 -0.908999
vn -0.395442 0.917569 0.0411357
vn -0.00968279 0.912279 -0.409454
vn 0.443649 -0.854283 -0.270881
vn -0.686205 0.703046 0.18668
vn -0.15169 0.948642 0.277613
vn -0.115667 -0.878416 0.463688
vn -0.812449 0.539824 0.220266
vn 0.450064 -0.892633 -0.0254753
vn 0.218896 0.855166 -0.469868
vn -0.82234 0.150294 0.548788
vn -0.51635 0.723658 0.457933
vn 0.346976 -0.499613 -0.793722
vn -0.670735 0.419977 0.611338
vn 0.420486 -0.904985 -0.0647536
vn -0.558756 0.573989 0.598605
vn -0.321323 0.762473 0.561593
vn -0.0527605 0.850356 0.523557
vn 0.109935 0.897478 0.427139
vn 0.415346 0.492463 -0.764832
vn -0.21705 -0.365733 0.905057
vn 0.330612 -0.903384 -0.273116
vn 0.359621 -0.914383 -0.185947
vn 0.507766 -0.821319 -0.260019
vn 0.916382 -0.166994 0.363808
vn 0.188374 0.734132 0.652354
vn -0.159349 0.532058 0.831578
vn 0.312918 -0.847764 0.428227
vn -0.378239 0.272414 0.884718
vn 0.301714 -0.65627 0.691577
vn -0.340691 0.514435 0.786947
vn 0.326506 -0.853148 0.406857
vn 0.350456 -0.565147 0.746853
vn 0.168962 -0.80447 0.569455
vn 0.325995 -0.790779 0.51807
vn 0.400403 -0.254058 0.880416
vn 0.0125922 0.395721 0.918284
vn 0.0725307 0.332296 0.940382
vn -0.09298 -0.234927 0.967556
vn 0.0541271 -0.215497 0.975003
vn 0.127429 -0.0971248 0.987081
vn -0.177339 0.276659 0.944463
vn -0.0210907 0.164582 0.986138
vn 0.326729 -0.615942 0.716842
vn 0.444325 -0.48109 0.755731
vn 0.456646 -0.494247 0.739726
vn 0.219196 0.97273 -0.0758318

g grp1
usemtl mtl1
f 1//1 2//2 3//3 
f 2//2 1//1 4//4 
f 1//1 5//5 4//4 
f 6//6 2//2 4//4 
f 7//7 4//4 5//5 
f 6//6 4//4 7//7 
f 1//1 8//8 9//9 
f 3//3 8//8 1//1 
f 3//3 2//2 10//10 
f 9//9 5//5 1//1 
f 2//2 11//11 10//10 
f 6//6 11//11 2//2 
f 11//11 6//6 12//12 
f 5//5 13//13 7//7 
f 12//12 6//6 7//7 
f 12//12 14//14 15//15 
f 15//15 14//14 16//16 
f 12//12 7//7 17//17 
f 14//14 12//12 17//17 
f 8//8 18//18 19//19 
f 8//8 20//20 18//18 
f 8//8 21//21 9//9 
f 19//19 21//21 8//8 
f 3//3 20//20 8//8 
f 9//9 21//21 22//22 
f 9//9 22//22 5//5 
f 11//11 12//12 23//23 
f 12//12 15//15 23//23 
f 16//16 14//14 24//24 
f 17//17 25//25 14//14 
f 24//24 14//14 26//26 
f 26//26 14//14 25//25 
f 19//19 27//27 28//28 
f 27//27 19//19 18//18 
f 21//21 19//19 28//28 
f 20//20 3//3 29//29 
f 10//10 29//29 3//3 
f 5//5 22//22 30//30 
f 10//10 11//11 29//29 
f 13//13 5//5 30//30 
f 13//13 30//30 31//31 
f 124//124 125//125 32//32 
f 13//13 33//33 7//7 
f 33//33 17//17 7//7 
f 125//125 126//126 32//32 
f 25//25 17//17 34//34 
f 126//126 35//35 32//32 
f 36//36 22//22 28//28 
f 28//28 22//22 21//21 
f 11//11 23//23 29//29 
f 32//32 23//23 15//15 
f 15//15 124//124 32//32 
f 13//13 31//31 37//37 
f 13//13 37//37 33//33 
f 33//33 34//34 17//17 
f 25//25 127//127 26//26 
f 25//25 34//34 38//38 
f 127//127 25//25 38//38 
f 27//27 18//18 39//39 
f 28//28 40//40 36//36 
f 20//20 41//41 18//18 
f 22//22 36//36 30//30 
f 23//23 42//42 29//29 
f 43//43 23//23 44//44 
f 23//23 32//32 44//44 
f 44//44 32//32 45//45 
f 32//32 35//35 45//45 
f 33//33 37//37 46//46 
f 34//34 33//33 47//47 
f 34//34 47//47 48//48 
f 34//34 48//48 38//38 
f 28//28 27//27 40//40 
f 39//39 18//18 41//41 
f 20//20 29//29 41//41 
f 49//49 31//31 30//30 
f 31//31 50//50 37//37 
f 48//48 43//43 44//44 
f 45//45 38//38 44//44 
f 38//38 48//48 44//44 
f 35//35 38//38 45//45 
f 33//33 46//46 47//47 
f 27//27 51//51 40//40 
f 52//52 41//41 29//29 
f 53//53 30//30 36//36 
f 31//31 49//49 50//50 
f 43//43 42//42 23//23 
f 37//37 54//54 46//46 
f 48//48 47//47 43//43 
f 39//39 51//51 27//27 
f 40//40 53//53 36//36 
f 53//53 49//49 30//30 
f 29//29 42//42 52//52 
f 42//42 43//43 55//55 
f 37//37 50//50 54//54 
f 43//43 47//47 55//55 
f 46//46 54//54 56//56 
f 47//47 46//46 56//56 
f 51//51 53//53 40//40 
f 57//57 49//49 53//53 
f 49//49 58//58 50//50 
f 50//50 58//58 54//54 
f 47//47 56//56 55//55 
f 51//51 39//39 59//59 
f 51//51 59//59 60//60 
f 39//39 41//41 59//59 
f 60//60 53//53 51//51 
f 53//53 60//60 57//57 
f 52//52 59//59 41//41 
f 57//57 58//58 49//49 
f 42//42 61//61 52//52 
f 58//58 62//62 54//54 
f 42//42 55//55 61//61 
f 55//55 62//62 61//61 
f 55//55 56//56 62//62 
f 56//56 54//54 62//62 
f 59//59 63//63 60//60 
f 63//63 57//57 60//60 
f 58//58 57//57 63//63 
f 59//59 52//52 61//61 
f 61//61 63//63 59//59 
f 62//62 58//58 63//63 
f 61//61 62//62 63//63 
f 64//64 65//65 66//66 
f 67//67 68//68 66//66 
f 67//67 66//66 65//65 
f 69//69 70//70 64//64 
f 66//66 69//69 64//64 
f 71//71 64//64 70//70 
f 66//66 68//68 69//69 
f 65//65 71//71 72//72 
f 64//64 71//71 65//65 
f 73//73 68//68 67//67 
f 65//65 72//72 74//74 
f 65//65 75//75 67//67 
f 76//76 73//73 67//67 
f 75//75 65//65 74//74 
f 76//76 67//67 75//75 
f 70//70 77//77 78//78 
f 70//70 69//69 77//77 
f 78//78 79//79 70//70 
f 79//79 71//71 70//70 
f 68//68 73//73 80//80 
f 73//73 76//76 81//81 
f 75//75 74//74 82//82 
f 83//83 75//75 82//82 
f 83//83 76//76 75//75 
f 80//80 84//84 68//68 
f 72//72 85//85 74//74 
f 83//83 82//82 86//86 
f 83//83 81//81 76//76 
f 87//87 78//78 77//77 
f 71//71 79//79 88//88 
f 89//89 69//69 68//68 
f 72//72 71//71 85//85 
f 74//74 85//85 82//82 
f 81//81 80//80 73//73 
f 90//90 81//81 83//83 
f 91//91 78//78 87//87 
f 89//89 77//77 69//69 
f 89//89 68//68 84//84 
f 88//88 85//85 71//71 
f 82//82 85//85 92//92 
f 81//81 93//93 80//80 
f 90//90 93//93 81//81 
f 83//83 86//86 90//90 
f 89//89 87//87 77//77 
f 78//78 91//91 79//79 
f 94//94 85//85 88//88 
f 84//84 80//80 95//95 
f 92//92 85//85 96//96 
f 82//82 92//92 97//97 
f 82//82 97//97 86//86 
f 98//98 99//99 90//90 
f 93//93 90//90 100//100 
f 98//98 90//90 86//86 
f 99//99 100//100 90//90 
f 87//87 101//101 91//91 
f 91//91 88//88 79//79 
f 94//94 96//96 85//85 
f 80//80 102//102 95//95 
f 93//93 102//102 80//80 
f 103//103 102//102 93//93 
f 104//104 103//103 93//93 
f 93//93 100//100 104//104 
f 104//104 100//100 105//105 
f 105//105 100//100 106//106 
f 97//97 107//107 86//86 
f 98//98 86//86 107//107 
f 99//99 106//106 100//100 
f 101//101 87//87 89//89 
f 91//91 94//94 88//88 
f 89//89 84//84 108//108 
f 109//109 96//96 94//94 
f 95//95 102//102 110//110 
f 92//92 96//96 111//111 
f 102//102 103//103 112//112 
f 103//103 104//104 113//113 
f 92//92 111//111 97//97 
f 101//101 89//89 114//114 
f 91//91 101//101 94//94 
f 114//114 89//89 108//108 
f 109//109 94//94 101//101 
f 95//95 108//108 84//84 
f 109//109 111//111 96//96 
f 95//95 110//110 115//115 
f 102//102 112//112 110//110 
f 103//103 113//113 112//112 
f 116//116 113//113 104//104 
f 105//105 116//116 104//104 
f 99//99 98//98 117//117 
f 118//118 116//116 106//106 
f 116//116 105//105 106//106 
f 106//106 99//99 118//118 
f 101//101 114//114 119//119 
f 119//119 109//109 101//101 
f 114//114 108//108 119//119 
f 108//108 115//115 120//120 
f 95//95 115//115 108//108 
f 112//112 121//121 110//110 
f 112//112 113//113 121//121 
f 111//111 107//107 97//97 
f 113//113 118//118 121//121 
f 113//113 116//116 118//118 
f 118//118 117//117 121//121 
f 117//117 98//98 107//107 
f 117//117 118//118 99//99 
f 119//119 108//108 120//120 
f 119//119 122//122 109//109 
f 120//120 122//122 119//119 
f 115//115 110//110 120//120 
f 109//109 122//122 111//111 
f 110//110 123//123 120//120 
f 110//110 121//121 123//123 
f 107//107 122//122 123//123 
f 107//107 111//111 122//122 
f 121//121 117//117 123//123 
f 117//117 107//107 123//123 
f 123//123 122//122 120//120 
