# wavefront obj file written by the visualization toolkit


v 4915.85 6513.65 5636.66
v 4885.57 6609.43 5644.34
v 4921.02 6579.8 5648.89
v 4936.33 6426.57 5651.62
v 4910.71 6475.4 5660.44
v 4953.14 6468.9 5663.39
v 4860.83 6587 5680.69
v 4893.5 6650.28 5673.51
v 4928.79 6589.61 5684.77
v 4883.51 6640.1 5680.36
v 4990.75 6354.68 5684.43
v 4973.79 6367.8 5684.3
v 4877.8 6473.23 5693.8
v 4963.36 6467.63 5696.46
v 4999.39 6295.72 5705.8
v 4999.23 6279.37 5689.53
v 4989.68 6332.5 5700.84
v 4986.51 6326.18 5698.34
v 4926.96 6412.75 5699.36
v 4980.42 6378.84 5696.77
v 4854.1 6542.4 5704.31
v 4876.07 6645.75 5705.48
v 4860.31 6571.39 5712.81
v 4935.49 6538.94 5720.67
v 4901.17 6618.28 5703.54
v 4990.18 6324.68 5697.88
v 4889.92 6492.7 5720.4
v 4964.05 6394.33 5705.93
v 4941.16 6412.8 5711.13
v 4877 6572.95 5727.62
v 4914.43 6499.9 5727.2
v 4889.43 6556.43 5732.16
v 4894.95 6571.26 5718.17
vn -0.0065664 -0.062684 -0.998012
vn -0.439719 0.26625 -0.857764
vn 0.633166 0.310509 -0.709003
vn -0.111327 -0.353984 -0.928602
vn -0.719283 -0.364735 -0.59127
vn 0.735936 0.0674892 -0.673679
vn -0.944136 0.104122 -0.312676
vn 0.367344 0.8908 -0.267456
vn 0.917735 0.39612 0.0291906
vn -0.708374 0.619455 -0.338351
vn 0.93913 0.0378088 -0.341476
vn -0.385409 -0.513389 -0.766741
vn -0.888754 -0.435678 -0.14248
vn 0.937764 0.219501 0.269106
vn 0.269275 -0.610829 -0.744567
vn 0.352391 -0.465137 0.812076
vn -0.693238 -0.525783 0.492923
vn 0.877467 0.0566838 0.476276
vn -0.781946 -0.618822 0.0749651
vn 0.810493 0.138472 0.569145
vn -0.94986 -0.150616 0.274008
vn -0.40329 0.668413 0.624965
vn -0.830425 0.0934148 0.549243
vn 0.582251 0.229585 0.77992
vn 0.546207 0.507936 0.666077
vn 0.205616 -0.0998905 0.973521
vn -0.539216 -0.283853 0.792889
vn 0.37415 -0.019423 0.927165
vn -0.284853 -0.326715 0.901175
vn -0.233202 0.189715 0.953743
vn 0.145075 -0.0334892 0.988854
vn 0.107739 0.135934 0.984842
vn 0.313849 0.320033 0.893912

g grp1
usemtl mtl1
f 1//1 2//2 3//3 
f 4//4 5//5 1//1 
f 6//6 4//4 1//1 
f 6//6 1//1 3//3 
f 1//1 5//5 2//2 
f 5//5 7//7 2//2 
f 8//8 9//9 3//3 
f 7//7 10//10 2//2 
f 2//2 8//8 3//3 
f 10//10 8//8 2//2 
f 6//6 11//11 12//12 
f 12//12 5//5 4//4 
f 6//6 12//12 4//4 
f 5//5 13//13 7//7 
f 6//6 3//3 9//9 
f 9//9 14//14 6//6 
f 15//15 16//16 17//17 
f 12//12 15//15 17//17 
f 11//11 18//18 15//15 
f 11//11 15//15 12//12 
f 12//12 17//17 19//19 
f 19//19 5//5 12//12 
f 5//5 19//19 13//13 
f 11//11 6//6 14//14 
f 11//11 14//14 20//20 
f 13//13 21//21 7//7 
f 22//22 10//10 7//7 
f 8//8 10//10 22//22 
f 21//21 23//23 7//7 
f 14//14 9//9 24//24 
f 9//9 8//8 25//25 
f 7//7 23//23 22//22 
f 8//8 22//22 25//25 
f 15//15 18//18 16//16 
f 16//16 26//26 17//17 
f 26//26 16//16 18//18 
f 18//18 11//11 20//20 
f 13//13 19//19 27//27 
f 13//13 27//27 21//21 
f 14//14 28//28 20//20 
f 23//23 21//21 27//27 
f 28//28 14//14 24//24 
f 25//25 24//24 9//9 
f 17//17 26//26 28//28 
f 19//19 17//17 29//29 
f 28//28 29//29 17//17 
f 26//26 18//18 28//28 
f 18//18 20//20 28//28 
f 29//29 27//27 19//19 
f 27//27 30//30 23//23 
f 27//27 29//29 31//31 
f 28//28 31//31 29//29 
f 32//32 27//27 31//31 
f 32//32 30//30 27//27 
f 28//28 24//24 31//31 
f 24//24 25//25 33//33 
f 22//22 23//23 30//30 
f 33//33 22//22 30//30 
f 25//25 22//22 33//33 
f 31//31 33//33 32//32 
f 31//31 24//24 33//33 
f 33//33 30//30 32//32 
