# wavefront obj file written by the visualization toolkit


v 9519.26 3894.13 5281.81
v 9598.76 3902.72 5276.11
v 9513.33 3860.35 5303.91
v 9585.45 3863.33 5310.16
v 9681.69 3921.89 5294.64
v 9576.29 3935.94 5286.71
v 9677.63 3949.87 5291.18
v 9715.69 3954.78 5303.52
v 9638.67 3966.99 5319.9
v 9473.07 3857.65 5332.66
v 9490.21 3901.48 5322.42
v 9652.09 3885.71 5328.9
v 9532.68 3936.8 5326.03
v 9710.29 3956.35 5316.37
v 9508.56 3851.14 5346.28
v 9696.08 3935.96 5333.46
v 9605.1 3876.21 5351.32
v 9473.49 3858.28 5358.43
v 9664.53 3906.33 5348.79
v 9485.63 3912.54 5351.53
v 9681.04 3961.84 5343.37
v 9555.89 3942.91 5353.56
v 9484.55 3882.68 5365.3
v 9607.57 3947.3 5360.9
v 9551.49 3923.81 5370
v 9634.51 3904.2 5365.18
v 9594.27 3917.42 5368.77
v 9538.85 3882.89 5363.74
v 9540.05 3904.19 5365.42
v 9522.04 3871.54 5999.59
v 9466.46 3863.5 6032.83
v 9490.29 3886.56 6002.59
v 9614.08 3908.45 5999.56
v 9608.83 3879.67 6018.89
v 9575.21 3923.23 6004.76
v 9514.18 3919.27 6034.02
v 9675.39 3949.97 6020.03
v 9551.18 3855.81 6041.91
v 9679.94 3926.18 6032.38
v 9638.65 3962.8 6041.41
v 9645.74 3887.64 6055.3
v 9484.82 3898.8 6064.38
v 9520.63 3935.99 6058.48
v 9577.84 3957.89 6058.09
v 9699.29 3953.02 6048.87
v 9637.53 3977.58 6076.28
v 9506.92 3849.94 6065.39
v 9578.85 3863.14 6075.04
v 9491.23 3866.24 6073
v 9698.69 3935.21 6071.1
v 9682.98 3959.9 6079.19
v 9650.34 3901.58 6089.78
v 9560.38 3940.41 6082.22
v 9634.41 3958.41 6097.17
v 9567.05 3888.72 6095.53
v 9687.32 3944.63 6098.44
v 9533.95 3903.56 6086.9
v 9656.42 3945.44 6106.69
v 9609.89 3929.79 6099.9
v 9635.43 3924.84 6096.93
vn -0.461311 0.0305053 -0.886714
vn 0.0987899 -0.259469 -0.960685
vn -0.138427 -0.776144 -0.615174
vn 0.248853 -0.915906 -0.314942
vn 0.564534 -0.57239 -0.594703
vn -0.262007 0.646352 -0.716646
vn 0.182116 0.526876 -0.830202
vn 0.919252 0.0647653 -0.388305
vn -0.0726672 0.995402 -0.0623992
vn -0.866125 -0.401722 -0.2974
vn -0.807741 0.463002 -0.364944
vn 0.569791 -0.816807 0.0903624
vn -0.431761 0.875418 -0.217315
vn 0.585707 0.80542 0.0908093
vn 0.00122088 -0.969652 0.244486
vn 0.769584 -0.227228 0.596748
vn 0.263132 -0.793192 0.549188
vn -0.419898 -0.589447 0.6901
vn 0.544337 -0.590635 0.595691
vn -0.661665 0.67608 0.324214
vn 0.341457 0.563254 0.752431
vn -0.26988 0.868292 0.416214
vn -0.640801 0.0873088 0.762726
vn -0.0230589 0.662491 0.748715
vn -0.149671 0.320663 0.935293
vn 0.286617 -0.246662 0.925748
vn 0.125856 0.0627844 0.99006
vn 0.0410894 -0.353668 0.934468
vn -0.0282103 -0.113278 0.993163
vn -0.0517912 -0.515092 -0.855569
vn -0.864322 -0.457817 -0.208207
vn -0.524346 0.301559 -0.796319
vn 0.263214 -0.191213 -0.945598
vn 0.372066 -0.760448 -0.532247
vn -0.127114 0.52191 -0.843476
vn -0.535153 0.746669 -0.39509
vn 0.368191 0.412586 -0.833192
vn 0.125644 -0.969576 -0.210084
vn 0.70173 -0.455624 -0.547706
vn 0.0149844 0.906591 -0.421744
vn 0.516808 -0.855626 -0.028528
vn -0.762165 0.463242 0.45223
vn -0.539671 0.83481 0.108846
vn -0.321884 0.937349 -0.133297
vn 0.810298 0.508286 -0.291655
vn -0.0638665 0.973916 0.217736
vn -0.157636 -0.893445 0.420604
vn 0.228233 -0.877117 0.422582
vn -0.531494 -0.267262 0.803794
vn 0.933336 -0.310898 0.179516
vn 0.508826 0.783664 0.356324
vn 0.379139 -0.618576 0.688199
vn -0.371535 0.631256 0.680792
vn -0.0712101 0.606749 0.791697
vn -0.0339955 -0.334472 0.941793
vn 0.537148 -0.0619748 0.841208
vn -0.333478 0.186221 0.924183
vn 0.108319 0.226121 0.968058
vn -0.157004 0.0982174 0.982702
vn 0.0966497 -0.298393 0.949537

g grp1
usemtl mtl1
f 1//1 2//2 3//3 
f 3//3 2//2 4//4 
f 2//2 5//5 4//4 
f 2//2 1//1 6//6 
f 5//5 2//2 7//7 
f 8//8 5//5 7//7 
f 7//7 2//2 6//6 
f 9//9 7//7 6//6 
f 3//3 10//10 1//1 
f 11//11 1//1 10//10 
f 4//4 5//5 12//12 
f 1//1 11//11 6//6 
f 13//13 6//6 11//11 
f 8//8 7//7 14//14 
f 7//7 9//9 14//14 
f 15//15 3//3 4//4 
f 5//5 8//8 16//16 
f 16//16 8//8 14//14 
f 6//6 13//13 9//9 
f 4//4 17//17 15//15 
f 15//15 18//18 10//10 
f 3//3 15//15 10//10 
f 4//4 12//12 17//17 
f 12//12 16//16 19//19 
f 5//5 16//16 12//12 
f 11//11 20//20 13//13 
f 16//16 14//14 21//21 
f 13//13 22//22 9//9 
f 14//14 9//9 21//21 
f 12//12 19//19 17//17 
f 23//23 10//10 18//18 
f 10//10 23//23 11//11 
f 11//11 23//23 20//20 
f 13//13 20//20 22//22 
f 9//9 22//22 24//24 
f 9//9 24//24 21//21 
f 23//23 25//25 20//20 
f 26//26 17//17 19//19 
f 19//19 16//16 26//26 
f 25//25 22//22 20//20 
f 22//22 25//25 24//24 
f 27//27 26//26 16//16 
f 16//16 21//21 27//27 
f 21//21 24//24 27//27 
f 18//18 15//15 28//28 
f 28//28 15//15 17//17 
f 23//23 18//18 28//28 
f 28//28 29//29 23//23 
f 29//29 25//25 23//23 
f 17//17 26//26 28//28 
f 28//28 26//26 27//27 
f 25//25 27//27 24//24 
f 27//27 29//29 28//28 
f 27//27 25//25 29//29 
f 30//30 31//31 32//32 
f 33//33 34//34 30//30 
f 30//30 32//32 35//35 
f 35//35 32//32 36//36 
f 30//30 35//35 33//33 
f 37//37 33//33 35//35 
f 38//38 31//31 30//30 
f 30//30 34//34 38//38 
f 32//32 31//31 36//36 
f 34//34 33//33 39//39 
f 36//36 40//40 35//35 
f 39//39 33//33 37//37 
f 35//35 40//40 37//37 
f 34//34 39//39 41//41 
f 36//36 31//31 42//42 
f 42//42 43//43 36//36 
f 36//36 43//43 44//44 
f 36//36 44//44 40//40 
f 37//37 45//45 39//39 
f 40//40 44//44 46//46 
f 37//37 40//40 45//45 
f 47//47 31//31 38//38 
f 34//34 41//41 38//38 
f 38//38 41//41 48//48 
f 31//31 49//49 42//42 
f 39//39 50//50 41//41 
f 39//39 45//45 50//50 
f 45//45 40//40 51//51 
f 40//40 46//46 51//51 
f 38//38 48//48 47//47 
f 49//49 31//31 47//47 
f 41//41 50//50 52//52 
f 44//44 43//43 53//53 
f 50//50 45//45 51//51 
f 46//46 44//44 53//53 
f 46//46 54//54 51//51 
f 47//47 55//55 49//49 
f 48//48 55//55 47//47 
f 41//41 52//52 48//48 
f 50//50 56//56 52//52 
f 42//42 53//53 43//43 
f 56//56 50//50 51//51 
f 46//46 53//53 54//54 
f 49//49 55//55 57//57 
f 52//52 55//55 48//48 
f 42//42 49//49 57//57 
f 42//42 57//57 53//53 
f 58//58 51//51 54//54 
f 59//59 57//57 55//55 
f 60//60 55//55 52//52 
f 52//52 56//56 60//60 
f 53//53 57//57 59//59 
f 56//56 51//51 58//58 
f 60//60 56//56 58//58 
f 53//53 59//59 54//54 
f 54//54 59//59 58//58 
f 60//60 59//59 55//55 
f 58//58 59//59 60//60 
