# wavefront obj file written by the visualization toolkit


v 9586.5 3625.17 3456.52
v 9448.01 3709.9 3465.99
v 9496.33 3741.62 3455.89
v 9570.66 3720.99 3461.15
v 9630.37 3658.25 3463.1
v 9617.33 3712.02 3476.27
v 9402.62 3820.12 3463.92
v 9641.33 3603.48 3486.14
v 9596.35 3580.67 3492.18
v 9522.98 3619.55 3485.36
v 9629.83 3583.15 3495.3
v 9647.78 3663.78 3492.21
v 9329.02 3851.67 3480.61
v 9528.77 3811.15 3504.25
v 9435.2 3852.93 3477.71
v 9344.17 3904.05 3483.55
v 9523.42 3600.88 3499.32
v 9433.32 3672.1 3514.84
v 9658.31 3623.07 3507.96
v 9340.45 3786 3508.16
v 9275.47 3890.09 3512.8
v 9423.36 3921.88 3510.51
v 9271.09 3959.18 3513.78
v 9325.37 3997.25 3540.52
v 9611.47 3599.84 3515.2
v 9603.34 3727.8 3517.12
v 9637.18 3666.47 3520.71
v 9447.92 3917.39 3537.07
v 9232.19 3960.53 3546.56
v 9222.17 4014.07 3552.87
v 9377.08 3990.17 3562.52
v 9236.33 4050.16 3575.51
v 9522.02 3616.43 3516.06
v 9428.81 3697.65 3564.3
v 9374.93 3725.92 3553.61
v 9335.45 3771.82 3550.86
v 9277.61 3867.33 3546.8
v 9468.84 3891.96 3558.26
v 9245.46 4093.98 3611.43
v 9627.37 3645.14 3530.93
v 9511.46 3818.14 3560.01
v 9378.65 3997.85 3605.39
v 9203.79 4044.51 3603.38
v 9526.75 3655.04 3555.32
v 9578.78 3657.67 3547.61
v 9548.02 3716.65 3558.07
v 9339.03 3794.59 3586.39
v 9252.15 3927.85 3612.14
v 9227.19 3973.57 3593.08
v 9292.52 4069.1 3625.31
v 9211.18 4097.86 3638.66
v 9472.01 3724.8 3582.65
v 9530.93 3687.43 3560.27
v 9373.16 3844.52 3620.34
v 9432.23 3911.04 3597.42
v 9434.73 3850.96 3602.5
v 9205.65 4030.77 3633.44
v 9297.36 4053.49 3668.34
v 9202.31 4078.31 3653.04
v 9234.54 4105.3 3653.61
v 9280.41 3955.82 3652.52
v 9366.89 3955.16 3634.62
v 9225.37 4039.49 3659.9
v 9371.04 3912.36 3634.96
v 9224.06 4091.85 3665.65
v 9251.74 4080.84 3664.13
v 9313.15 3981.94 3662.36
v 9267.9 4039.27 3666.92
v 9294.91 4026.59 3664.99
v 9241.22 4031.51 7710.08
v 9263.77 4067.01 7694.96
v 9285.3 4025.74 7707.78
v 9236.76 4104.27 7702.65
v 9316.58 4036.52 7728.8
v 9207.69 4107.88 7729.86
v 9261.78 4103.53 7722.09
v 9230.62 4114.83 7719.38
v 9326.54 3955.66 7738.49
v 9206.56 4036.44 7753.53
v 9200.88 4065.98 7784.22
v 9305.92 4074.14 7749.12
v 9365.69 3860.59 7753.54
v 9307.76 3891.02 7755.62
v 9411.02 3880.22 7762.79
v 9252.97 3931.07 7773.71
v 9398.56 3940.32 7771.96
v 9204.76 4107.94 7759.73
v 9229.99 4103.42 7760.7
v 9467.22 3782.69 7786.38
v 9394.5 3776.32 7786.68
v 9489.39 3834.49 7802.32
v 9353.17 4018.22 7778.94
v 9292.38 4069.04 7778.78
v 9489.38 3697.97 7808.47
v 9423.31 3689.43 7827.58
v 9540.15 3712 7809.44
v 9322.68 3818.35 7801.46
v 9270.8 3857.06 7825.65
v 9230.24 3969.03 7808.92
v 9591.55 3649.22 7837.58
v 9532.14 3638.17 7835.4
v 9568.76 3734.4 7831.62
v 9550.05 3795.32 7843.01
v 9451.03 3903.06 7821.59
v 9218.61 4073.38 7797.2
v 9391.24 3965.27 7842.42
v 9287.55 4023.45 7837.76
v 9587.5 3595.34 7858.65
v 9517.62 3614.61 7864.26
v 9637.79 3653.68 7870.54
v 9347.38 3755.77 7839.93
v 9242.31 3990.46 7838.85
v 9589.47 3583 7876.07
v 9617.88 3602 7877.7
v 9419.1 3680.06 7865.81
v 9601.45 3726.69 7868.33
v 9329.45 3780.88 7866.4
v 9534.93 3802.04 7878.66
v 9270.8 3892.24 7856.3
v 9509.29 3630.7 7894.55
v 9608.93 3598.23 7901.05
v 9640.01 3625.77 7900.75
v 9615.52 3690.14 7886.92
v 9273.58 3914.98 7877.49
v 9377.1 3961.32 7870.88
v 9391.97 3726.51 7892.06
v 9330.01 3835.19 7894.39
v 9423.4 3909.34 7884.26
v 9308.06 3929.5 7880.32
v 9374.81 3918.38 7888.93
v 9552.6 3643.45 7920.23
v 9609.79 3639.96 7917.08
v 9454.89 3725.05 7912.52
v 9575.14 3711.51 7907.89
v 9477.62 3812.21 7905.5
v 9420 3817.82 7903.86
v 9515.71 3723.93 7910.43
vn 0.0134992 -0.315353 -0.948878
vn -0.39398 -0.346692 -0.851225
vn 0.0134948 0.0763041 -0.996993
vn 0.270798 0.315075 -0.909613
vn 0.557872 0.0755202 -0.826484
vn 0.696983 0.537493 -0.474674
vn -0.07789 0.0890425 -0.992978
vn 0.751079 -0.486667 -0.446134
vn -0.0707904 -0.97439 -0.213432
vn -0.396316 -0.605174 -0.690433
vn 0.540441 -0.795272 0.274711
vn 0.945048 0.283905 -0.162119
vn -0.43593 -0.120379 -0.891894
vn 0.693488 0.63768 -0.335318
vn 0.233635 0.408745 -0.882237
vn -0.021816 0.329898 -0.943764
vn -0.462033 -0.883894 -0.0725015
vn -0.653065 -0.74509 -0.135449
vn 0.862469 -0.238271 0.446513
vn -0.71813 -0.503232 -0.480673
vn -0.749535 -0.2836 -0.598137
vn 0.436793 0.613074 -0.658295
vn -0.347783 0.252071 -0.903054
vn 0.208727 0.639928 -0.739544
vn 0.249667 -0.607868 0.753765
vn 0.769176 0.529268 0.358111
vn 0.723233 0.297186 0.62339
vn 0.70518 0.676252 -0.213085
vn -0.891304 -0.231621 -0.38978
vn -0.663645 0.269388 -0.697858
vn 0.530426 0.761517 -0.372479
vn -0.311142 0.597961 -0.73867
vn -0.277525 -0.770154 0.57432
vn -0.323762 -0.61673 0.717511
vn -0.626782 -0.693851 0.354563
vn -0.79821 -0.599514 0.0586934
vn -0.872567 -0.478082 -0.100321
vn 0.809263 0.53747 0.237105
vn 0.109165 0.865509 -0.488852
vn 0.431755 -0.114048 0.894752
vn 0.71624 0.377527 0.586919
vn 0.743183 0.602398 0.291197
vn -0.957607 0.0957066 -0.271715
vn 0.015226 -0.451718 0.892031
vn 0.218216 -0.211149 0.952784
vn 0.419888 0.0947324 0.902619
vn -0.500899 -0.527111 0.68648
vn -0.762168 -0.491934 0.420834
vn -0.924074 -0.381623 0.0212668
vn 0.566357 0.823844 -0.0228418
vn -0.643985 0.74979 -0.151984
vn 0.147707 -0.215712 0.965221
vn 0.22625 -0.132807 0.964973
vn 0.0197352 -0.302095 0.953074
vn 0.661145 0.292678 0.690817
vn 0.431611 0.0153915 0.901929
vn -0.903601 -0.320491 0.284239
vn 0.397114 0.312283 0.863006
vn -0.899054 0.112442 0.423153
vn 0.159604 0.936077 0.313508
vn -0.288411 -0.353125 0.890012
vn 0.557514 0.144598 0.817478
vn -0.494794 -0.263795 0.828004
vn 0.370371 -0.0758933 0.925778
vn -0.295635 0.385465 0.874081
vn 0.30893 0.519555 0.796634
vn 0.156781 -0.104172 0.982124
vn -0.0480333 -0.0445125 0.997853
vn 0.0483741 -0.0423043 0.997933
vn -0.43589 -0.299717 -0.848628
vn 0.28628 0.153738 -0.945732
vn 0.249531 -0.205711 -0.946265
vn -0.164824 0.486431 -0.858031
vn 0.669749 0.285734 -0.685414
vn -0.785605 0.502051 -0.361622
vn 0.519226 0.815379 -0.256048
vn -0.0434766 0.983903 -0.173335
vn 0.221065 -0.127835 -0.966845
vn -0.921451 -0.263984 -0.285027
vn -0.940968 0.0795912 0.329005
vn 0.695451 0.713244 -0.0873574
vn 0.0219813 -0.235143 -0.971712
vn -0.338657 -0.425082 -0.839414
vn 0.393717 0.0754494 -0.91613
vn -0.751748 -0.470662 -0.4619
vn 0.654487 0.34044 -0.67509
vn -0.50801 0.772307 0.381404
vn 0.123556 0.912607 0.389722
vn 0.264602 -0.0821602 -0.960851
vn -0.218642 -0.434289 -0.873836
vn 0.621575 0.310908 -0.719013
vn 0.768627 0.632278 -0.0971481
vn 0.454427 0.797331 0.397189
vn -0.00902795 -0.36077 -0.932611
vn -0.437175 -0.644372 -0.627425
vn 0.326469 -0.0660161 -0.9429
vn -0.576402 -0.544607 -0.609233
vn -0.864055 -0.497053 -0.0796727
vn -0.942768 -0.283065 0.176247
vn 0.396157 -0.23448 -0.887738
vn -0.104625 -0.543968 -0.832558
vn 0.621823 0.225148 -0.750096
vn 0.777407 0.55078 -0.303774
vn 0.764926 0.620766 -0.171862
vn -0.312836 0.540989 0.780682
vn 0.607089 0.722266 0.331323
vn 0.0759606 0.6155 0.784468
vn 0.129046 -0.674106 -0.727274
vn -0.417093 -0.863619 -0.283188
vn 0.915159 0.111146 -0.387467
vn -0.723003 -0.650966 -0.231322
vn -0.640414 0.128991 0.75712
vn 0.00694647 -0.999909 0.011573
vn 0.691307 -0.629921 -0.353969
vn -0.64795 -0.748376 0.141758
vn 0.855417 0.511461 -0.0816727
vn -0.759564 -0.512095 0.401025
vn 0.662484 0.595355 0.454606
vn -0.831339 -0.290177 0.473997
vn -0.40265 -0.667214 0.626656
vn 0.22066 -0.708532 0.670292
vn 0.846531 -0.0774367 0.526678
vn 0.769551 0.448457 0.454618
vn -0.58368 -0.0331739 0.811306
vn 0.320292 0.625111 0.711793
vn -0.514626 -0.456724 0.725647
vn -0.420115 -0.156742 0.893832
vn 0.433791 0.515529 0.738955
vn -0.161484 0.240174 0.957204
vn 0.0251588 0.30044 0.953469
vn -0.108018 -0.240936 0.964511
vn 0.245468 -0.0141193 0.969302
vn -0.185193 -0.119124 0.975455
vn 0.413395 0.331978 0.847877
vn 0.197667 0.257849 0.945749
vn -0.0515091 0.0937114 0.994266
vn 0.0451406 0.112475 0.992629

g grp1
usemtl mtl1
f 1//1 2//2 3//3 
f 4//4 1//1 3//3 
f 5//5 1//1 4//4 
f 4//4 6//6 5//5 
f 3//3 2//2 7//7 
f 1//1 8//8 9//9 
f 10//10 1//1 9//9 
f 9//9 8//8 11//11 
f 5//5 8//8 1//1 
f 1//1 10//10 2//2 
f 12//12 8//8 5//5 
f 5//5 6//6 12//12 
f 2//2 13//13 7//7 
f 4//4 14//14 6//6 
f 4//4 3//3 15//15 
f 7//7 15//15 3//3 
f 14//14 4//4 15//15 
f 7//7 13//13 16//16 
f 15//15 7//7 16//16 
f 17//17 10//10 9//9 
f 10//10 17//17 18//18 
f 10//10 18//18 2//2 
f 8//8 12//12 19//19 
f 2//2 18//18 20//20 
f 2//2 20//20 13//13 
f 21//21 13//13 20//20 
f 22//22 14//14 15//15 
f 13//13 21//21 23//23 
f 13//13 23//23 16//16 
f 16//16 24//24 15//15 
f 24//24 22//22 15//15 
f 24//24 16//16 23//23 
f 25//25 11//11 8//8 
f 12//12 26//26 27//27 
f 27//27 19//19 12//12 
f 6//6 26//26 12//12 
f 6//6 14//14 26//26 
f 22//22 28//28 14//14 
f 23//23 21//21 29//29 
f 30//30 23//23 29//29 
f 22//22 24//24 31//31 
f 28//28 22//22 31//31 
f 32//32 23//23 30//30 
f 24//24 23//23 32//32 
f 17//17 9//9 33//33 
f 11//11 25//25 9//9 
f 18//18 17//17 33//33 
f 19//19 25//25 8//8 
f 34//34 18//18 33//33 
f 18//18 35//35 36//36 
f 20//20 18//18 36//36 
f 20//20 36//36 37//37 
f 20//20 37//37 21//21 
f 38//38 14//14 28//28 
f 21//21 37//37 29//29 
f 32//32 39//39 24//24 
f 25//25 33//33 9//9 
f 25//25 19//19 40//40 
f 18//18 34//34 35//35 
f 27//27 40//40 19//19 
f 41//41 26//26 14//14 
f 14//14 38//38 41//41 
f 42//42 38//38 28//28 
f 31//31 42//42 28//28 
f 29//29 43//43 30//30 
f 30//30 43//43 32//32 
f 44//44 33//33 25//25 
f 25//25 45//45 44//44 
f 40//40 45//45 25//25 
f 33//33 44//44 34//34 
f 46//46 45//45 40//40 
f 27//27 46//46 40//40 
f 36//36 35//35 47//47 
f 48//48 36//36 47//47 
f 27//27 26//26 46//46 
f 26//26 41//41 46//46 
f 36//36 48//48 37//37 
f 37//37 49//49 29//29 
f 29//29 49//49 43//43 
f 24//24 50//50 31//31 
f 39//39 50//50 24//24 
f 39//39 32//32 51//51 
f 34//34 44//44 52//52 
f 52//52 44//44 53//53 
f 45//45 53//53 44//44 
f 45//45 46//46 53//53 
f 35//35 34//34 47//47 
f 34//34 54//54 47//47 
f 37//37 48//48 49//49 
f 55//55 38//38 42//42 
f 42//42 31//31 50//50 
f 32//32 43//43 51//51 
f 52//52 54//54 34//34 
f 53//53 46//46 52//52 
f 46//46 56//56 52//52 
f 46//46 41//41 56//56 
f 55//55 56//56 41//41 
f 41//41 38//38 55//55 
f 49//49 57//57 43//43 
f 58//58 42//42 50//50 
f 51//51 43//43 59//59 
f 39//39 51//51 60//60 
f 52//52 56//56 54//54 
f 61//61 47//47 54//54 
f 47//47 61//61 48//48 
f 62//62 56//56 55//55 
f 48//48 61//61 63//63 
f 48//48 63//63 57//57 
f 48//48 57//57 49//49 
f 42//42 62//62 55//55 
f 42//42 58//58 62//62 
f 60//60 50//50 39//39 
f 56//56 64//64 54//54 
f 56//56 62//62 64//64 
f 43//43 57//57 59//59 
f 65//65 51//51 59//59 
f 51//51 65//65 60//60 
f 60//60 66//66 50//50 
f 54//54 67//67 61//61 
f 67//67 54//54 64//64 
f 67//67 68//68 61//61 
f 62//62 67//67 64//64 
f 58//58 67//67 62//62 
f 57//57 63//63 59//59 
f 58//58 50//50 66//66 
f 67//67 69//69 68//68 
f 68//68 63//63 61//61 
f 58//58 69//69 67//67 
f 63//63 65//65 59//59 
f 60//60 65//65 66//66 
f 69//69 58//58 68//68 
f 63//63 68//68 65//65 
f 66//66 65//65 68//68 
f 68//68 58//58 66//66 
f 70//70 71//71 72//72 
f 71//71 70//70 73//73 
f 74//74 72//72 71//71 
f 75//75 73//73 70//70 
f 74//74 71//71 76//76 
f 73//73 76//76 71//71 
f 77//77 73//73 75//75 
f 76//76 73//73 77//77 
f 78//78 70//70 72//72 
f 74//74 78//78 72//72 
f 70//70 79//79 75//75 
f 80//80 75//75 79//79 
f 74//74 76//76 81//81 
f 82//82 83//83 78//78 
f 84//84 82//82 78//78 
f 83//83 70//70 78//78 
f 70//70 83//83 85//85 
f 84//84 78//78 86//86 
f 86//86 78//78 74//74 
f 85//85 79//79 70//70 
f 75//75 87//87 88//88 
f 77//77 75//75 88//88 
f 76//76 77//77 88//88 
f 89//89 90//90 82//82 
f 90//90 83//83 82//82 
f 89//89 82//82 84//84 
f 84//84 91//91 89//89 
f 86//86 74//74 92//92 
f 74//74 81//81 92//92 
f 80//80 87//87 75//75 
f 76//76 93//93 81//81 
f 93//93 76//76 88//88 
f 90//90 94//94 95//95 
f 96//96 94//94 89//89 
f 89//89 94//94 90//90 
f 90//90 97//97 83//83 
f 85//85 83//83 97//97 
f 91//91 84//84 86//86 
f 85//85 98//98 99//99 
f 85//85 99//99 79//79 
f 100//100 101//101 94//94 
f 100//100 94//94 96//96 
f 94//94 101//101 95//95 
f 90//90 95//95 97//97 
f 102//102 100//100 96//96 
f 102//102 96//96 89//89 
f 102//102 89//89 91//91 
f 102//102 91//91 103//103 
f 85//85 97//97 98//98 
f 91//91 86//86 104//104 
f 99//99 80//80 79//79 
f 105//105 87//87 80//80 
f 92//92 81//81 93//93 
f 106//106 92//92 93//93 
f 105//105 107//107 88//88 
f 88//88 87//87 105//105 
f 93//93 88//88 107//107 
f 101//101 108//108 109//109 
f 100//100 108//108 101//101 
f 102//102 110//110 100//100 
f 95//95 111//111 97//97 
f 97//97 111//111 98//98 
f 91//91 104//104 103//103 
f 86//86 92//92 104//104 
f 99//99 112//112 80//80 
f 112//112 105//105 80//80 
f 107//107 106//106 93//93 
f 109//109 108//108 113//113 
f 108//108 114//114 113//113 
f 95//95 101//101 109//109 
f 109//109 115//115 95//95 
f 114//114 100//100 110//110 
f 108//108 100//100 114//114 
f 95//95 115//115 111//111 
f 110//110 102//102 116//116 
f 102//102 103//103 116//116 
f 117//117 98//98 111//111 
f 103//103 104//104 118//118 
f 98//98 119//119 99//99 
f 104//104 92//92 106//106 
f 99//99 119//119 112//112 
f 120//120 109//109 113//113 
f 113//113 114//114 121//121 
f 109//109 120//120 115//115 
f 110//110 122//122 114//114 
f 111//111 115//115 117//117 
f 110//110 116//116 123//123 
f 118//118 116//116 103//103 
f 98//98 117//117 119//119 
f 104//104 106//106 118//118 
f 119//119 124//124 112//112 
f 107//107 125//125 106//106 
f 107//107 105//105 112//112 
f 114//114 122//122 121//121 
f 122//122 110//110 123//123 
f 117//117 115//115 126//126 
f 116//116 118//118 123//123 
f 117//117 127//127 119//119 
f 118//118 106//106 128//128 
f 106//106 125//125 128//128 
f 129//129 107//107 112//112 
f 121//121 120//120 113//113 
f 115//115 120//120 126//126 
f 126//126 127//127 117//117 
f 127//127 124//124 119//119 
f 129//129 112//112 124//124 
f 128//128 125//125 130//130 
f 130//130 107//107 129//129 
f 125//125 107//107 130//130 
f 120//120 121//121 131//131 
f 132//132 121//121 122//122 
f 132//132 131//131 121//121 
f 131//131 133//133 120//120 
f 122//122 123//123 134//134 
f 132//132 122//122 134//134 
f 126//126 120//120 133//133 
f 123//123 118//118 134//134 
f 126//126 133//133 127//127 
f 134//134 118//118 135//135 
f 118//118 128//128 135//135 
f 136//136 127//127 133//133 
f 136//136 129//129 127//127 
f 128//128 130//130 135//135 
f 127//127 129//129 124//124 
f 136//136 135//135 130//130 
f 136//136 130//130 129//129 
f 132//132 137//137 131//131 
f 134//134 137//137 132//132 
f 137//137 133//133 131//131 
f 137//137 136//136 133//133 
f 137//137 135//135 136//136 
f 134//134 135//135 137//137 
