# wavefront obj file written by the visualization toolkit


v 6143.42 6620.62 4173.51
v 6120.06 6607.87 4179.59
v 6085.62 6669.4 4196.28
v 6139.82 6562.54 4201.83
v 6119.5 6550.51 4207.99
v 6151.41 6578.62 4196.32
v 6129.57 6595.85 4233.42
v 6060.22 6651.03 4205.46
v 6087.94 6676.21 4204.34
v 6096.19 6650.86 4227.44
v 6064.47 6604.91 4219.86
v 5975.52 6689.89 4274.22
v 6020.86 6695.72 4242.89
v 6122.28 6533.92 4229.48
v 6064.52 6561.83 4262.85
v 6022.15 6707.75 4252.84
v 6114.31 6554.87 4251.53
v 5964.13 6646.91 4308.67
v 6031.42 6698.88 4277.7
v 6090.11 6546.28 4271.58
v 5944.21 6620.66 4377.88
v 5960.37 6727.44 4298.93
v 6039.29 6566.7 4325.96
v 6077.56 6592.09 4335.44
v 6056.95 6651.56 4315.34
v 5893.65 6725.44 4358.44
v 5927.98 6731.6 4326.84
v 5948.42 6746.73 4356.34
v 6054.32 6570.98 4344.01
v 5980.82 6599.11 4403.25
v 5858.44 6705.93 4425.43
v 5992.08 6701.58 4404.89
v 5890.99 6756.67 4385.63
v 6002.29 6627.93 4454.89
v 6021.2 6651.39 4405.57
v 5873.64 6782.59 4445.65
v 5996.21 6605.34 4420.72
v 5894.42 6648.95 4484.1
v 5848.91 6689.5 4484.04
v 5824.96 6764.23 4462.57
v 5903.38 6765.36 4509.23
v 5810.95 6796.6 4504.38
v 5953.47 6634.52 4480.45
v 5968.21 6694.59 4497.02
v 5810.56 6816.7 4568.37
v 5795.84 6747.52 4529.33
v 5937 6677.96 4562.65
v 5947.16 6693.21 4563.34
v 5744.86 6807.04 4594.46
v 5883.56 6685.48 4571.15
v 5807.04 6728.64 4584.74
v 5734.56 6849 4642.34
v 5895.95 6754.97 4605.41
v 5738.62 6787.66 4630.59
v 5809.38 6829.21 4654.15
v 5761.2 6853.05 4656.76
v 5866.55 6725.58 4646.5
v 5806.94 6745.19 4654.42
v 5881.18 6744.6 4645.3
v 5647.26 6872.96 4720.44
v 5728.42 6796.33 4699.16
v 5671.56 6840.11 4705.1
v 5824.78 6804.83 4702.91
v 5663.59 6892.36 4728.18
v 5805.13 6776.48 4705.67
v 5699.99 6887.99 4740.29
v 5845.8 6759.4 4682.05
v 5810.12 6792.95 4716.01
v 5598.81 6887.49 4776.33
v 5761.83 6836.05 4764.38
v 5628.54 6872.59 4808.58
v 5747.68 6853.66 4758.33
v 5583.66 6909.63 4798.92
v 5623.09 6910.65 4780.72
v 5729.24 6834.9 4766.74
v 5581.51 6915.6 4829.24
v 5617.16 6929.09 4838.58
v 5686.94 6881.86 4821.98
v 5671.08 6899.42 4812.11
v 5583.34 6918.23 4844.34
v 5647.43 6883.17 4839.76
v 5615.46 6916.01 4865.61
v 5600.23 6901.74 4874.17
v 5589.66 6916.71 4862.27
v 5595.42 6917.61 4864.11
v 5619.87 6901.08 4864.55
v 5603.13 6908.32 4862.91
v 5588.62 6917.68 6496.91
v 5637.08 6908.37 6514.21
v 5680.9 6867.54 6555.51
v 5627.65 6932.19 6531.45
v 5584.01 6925.98 6519.17
v 5575.57 6918.39 6522.82
v 5610.1 6892.26 6543.47
v 5596.64 6941.01 6547.72
v 5595.47 6910.45 6573.22
v 5610.63 6885.36 6578.98
v 5721.21 6869.48 6569.56
v 5704.01 6890.77 6571.39
v 5643.84 6923.87 6591.66
v 5667.78 6849.17 6600.11
v 5762.02 6834.12 6603.64
v 5705.47 6893.35 6621.16
v 5656.91 6892.4 6639.5
v 5761.51 6807.35 6637
v 5783.51 6831.96 6625.64
v 5650.38 6849.62 6635.8
v 5785.37 6844.57 6680.3
v 5641.6 6865.27 6636.96
v 5721.7 6798.28 6702.95
v 5833.29 6787.96 6672
v 5658.24 6866.6 6658.41
v 5855.94 6745.33 6716.05
v 5803.22 6739.36 6752.56
v 5770.96 6851.43 6738.53
v 5913.55 6721.31 6769.95
v 5868.51 6774.6 6763.1
v 5700.01 6829.94 6721.17
v 5712.08 6872.65 6693.71
v 5887.73 6684.69 6809.73
v 5922.27 6690.35 6805.97
v 5775.61 6741.39 6804.94
v 5715.28 6847.37 6737.61
v 5976.15 6656.69 6869.77
v 5753.48 6778.03 6803.32
v 5855.39 6684.92 6877.76
v 5953.61 6710.38 6882.47
v 5858.33 6799.89 6860.65
v 5929.91 6756.33 6934.01
v 5968.71 6637.63 6885.29
v 5784.79 6825.2 6817.41
v 5797.02 6786.15 6875.11
v 5943.95 6626.98 6917.38
v 6020.72 6610.49 6945.05
v 6017.36 6651.74 6980.25
v 6016.68 6584.36 6987.99
v 5927.34 6627.59 6981.24
v 5814.27 6733.17 6887.07
v 5886.26 6772.44 6972.55
v 6000.93 6578.41 7023.88
v 5873.68 6682.53 6957.98
v 5954.86 6750.16 7023.19
v 5888.5 6713.16 7006.65
v 6044 6552.69 7048.15
v 6078.06 6588.29 7067.26
v 5999.62 6705.27 7011.72
v 5905.51 6742.66 7021.13
v 6069.27 6548.01 7076.8
v 6063.67 6665.02 7084.96
v 5997.46 6600.07 7083.77
v 5932.26 6656.73 7031.39
v 6077.09 6549.84 7113.03
v 6114.34 6547.88 7128.77
v 5986.31 6657.19 7109.11
v 5974.89 6699.11 7100.3
v 6139.37 6594.79 7160.15
v 6114.7 6640.98 7155.95
v 5999.42 6713.01 7104.09
v 6056.34 6687.68 7122.65
v 6129.45 6550.34 7162.41
v 6143.48 6581.93 7181.88
v 6083.34 6596.15 7166.47
v 6117.17 6561.35 7162.86
v 6141.91 6618.57 7191.49
v 6052.77 6664.73 7157.36
v 6128.18 6641.1 7191.55
v 6079.58 6666.61 7161.49
v 6137.3 6589.31 7186.43
v 6142.35 6615.44 7192.51
v 6109.26 6630.47 7173.74
vn 0.778465 0.363001 -0.512078
vn -0.197892 -0.208186 -0.957861
vn -0.122193 0.517295 -0.847039
vn 0.585789 -0.597669 -0.547397
vn -0.296043 -0.652705 -0.697378
vn 0.973467 -0.213803 0.0815522
vn 0.875838 0.271669 0.398878
vn -0.535813 0.002529 -0.844333
vn 0.533324 0.836132 -0.128253
vn 0.761119 0.573392 0.303183
vn -0.63297 -0.389703 -0.66894
vn -0.66898 0.0176914 -0.74307
vn -0.430781 0.450012 -0.782252
vn 0.208094 -0.976112 -0.0624684
vn -0.571858 -0.756557 -0.317176
vn 0.101286 0.911008 -0.399756
vn 0.767476 -0.4633 0.443096
vn -0.730757 -0.434375 -0.526605
vn 0.633078 0.751542 0.185463
vn 0.0395033 -0.961812 0.270846
vn -0.641797 -0.740616 -0.198961
vn -0.332839 0.70371 -0.627702
vn -0.332923 -0.939339 0.0824938
vn 0.859444 -0.0274009 0.510496
vn 0.796938 0.503155 0.334253
vn -0.775277 0.0492519 -0.629698
vn -0.604002 0.40821 -0.684505
vn 0.326113 0.937072 -0.124683
vn 0.300794 -0.822384 0.482915
vn -0.241729 -0.938722 0.245698
vn -0.816458 -0.401258 -0.415196
vn 0.743221 0.631898 0.219835
vn -0.408499 0.732824 -0.544148
vn 0.69329 -0.408943 0.593393
vn 0.859433 0.341152 0.380776
vn 0.122042 0.961969 -0.244379
vn 0.0995004 -0.87164 0.479941
vn -0.459149 -0.874055 0.158775
vn -0.736625 -0.660635 -0.144724
vn -0.815857 0.13885 -0.561335
vn 0.605347 0.792873 0.0700576
vn -0.406592 0.762424 -0.503381
vn -0.0077506 -0.894128 0.447744
vn 0.850316 0.43931 0.289776
vn 0.231884 0.948181 -0.217214
vn -0.839042 -0.458881 -0.292297
vn 0.362956 -0.688374 0.628016
vn 0.850601 0.0533239 0.523101
vn -0.831008 0.0342143 -0.555207
vn -0.224958 -0.895481 0.384068
vn -0.598582 -0.796873 0.0818154
vn -0.186172 0.843743 -0.503426
vn 0.789151 0.547996 0.277383
vn -0.75447 -0.631317 -0.179483
vn 0.56114 0.826413 0.046502
vn 0.244717 0.941496 -0.231731
vn 0.159131 -0.74534 0.647415
vn -0.31244 -0.869744 0.382004
vn 0.725845 -0.0949651 0.681272
vn -0.650868 0.332494 -0.682509
vn -0.444658 -0.858732 0.254672
vn -0.746549 -0.610635 -0.264178
vn 0.768763 0.408155 0.492353
vn -0.150761 0.860997 -0.485752
vn -0.0148707 -0.740906 0.671444
vn 0.328408 0.936231 -0.124977
vn 0.430904 -0.450226 0.782061
vn 0.488306 -0.316707 0.813175
vn -0.839929 -0.464921 -0.279942
vn 0.612838 -0.0368487 0.789349
vn -0.469963 -0.845265 0.254286
vn 0.648612 0.693457 0.313718
vn -0.802038 0.42955 -0.414996
vn -0.2013 0.899106 -0.388698
vn 0.0760455 -0.726143 0.683326
vn -0.95445 -0.27784 0.10877
vn 0.119881 0.985559 0.119593
vn 0.613212 0.0599308 0.787642
vn 0.589148 0.751989 0.295665
vn -0.654961 0.751926 0.0750564
vn 0.181874 -0.700999 0.689581
vn 0.328133 0.503543 0.799233
vn -0.148231 -0.342991 0.927569
vn -0.754993 -0.0184318 0.655474
vn -0.273882 0.612246 0.741717
vn 0.324927 -0.0676063 0.94332
vn -0.0574124 0.247365 0.96722
vn -0.363741 -0.328282 -0.871736
vn 0.409069 0.324627 -0.852807
vn 0.065523 -0.704094 -0.707078
vn 0.321504 0.897839 -0.300866
vn -0.505456 0.763324 -0.402306
vn -0.955242 -0.280069 -0.0952557
vn -0.427503 -0.851568 -0.303437
vn -0.373282 0.889709 0.262829
vn -0.861524 0.187697 0.471749
vn -0.74385 -0.663675 0.0788838
vn 0.610377 0.0632715 -0.78958
vn 0.634457 0.692864 -0.342642
vn 0.105216 0.944099 0.31242
vn -0.369946 -0.884148 -0.285346
vn 0.455601 -0.387742 -0.801302
vn 0.41721 0.906116 0.0699213
vn -0.43716 0.663108 0.607601
vn -0.0813872 -0.836478 -0.541923
vn 0.769848 0.435479 -0.466574
vn -0.698401 -0.706534 0.114219
vn 0.616557 0.782447 -0.0873765
vn -0.856296 -0.272324 0.438859
vn -0.609807 -0.789557 -0.0688163
vn 0.674315 -0.153473 -0.72232
vn -0.750927 0.218954 0.623031
vn 0.15497 -0.741775 -0.652498
vn -0.368878 -0.872837 -0.319506
vn 0.286794 0.939943 0.185086
vn 0.798014 -0.0233091 -0.602188
vn 0.749537 0.624944 -0.218263
vn -0.85602 -0.217146 0.469123
vn -0.0385543 0.909655 0.413572
vn -0.187739 -0.884462 -0.427179
vn 0.322908 -0.686352 -0.651653
vn -0.696811 -0.713435 0.0739268
vn -0.581809 0.547298 0.601635
vn 0.798013 -0.144623 -0.585029
vn -0.860976 -0.373856 0.344895
vn -0.596728 -0.802084 -0.0240259
vn 0.817854 0.506372 -0.273317
vn 0.429141 0.901436 0.0570129
vn 0.67558 0.719295 -0.161882
vn 0.176978 -0.80239 -0.569956
vn -0.14309 0.890218 0.432478
vn -0.754111 0.267544 0.599781
vn -0.335708 -0.90333 -0.26701
vn 0.742987 -0.37566 -0.55394
vn 0.861059 0.354752 -0.364318
vn 0.185468 -0.854917 -0.484478
vn -0.669242 -0.726436 0.156223
vn -0.822731 -0.418919 0.384216
vn -0.168079 0.877685 0.448798
vn -0.494695 -0.868988 -0.0117366
vn -0.781206 -0.52865 0.332033
vn 0.426009 0.901338 0.07814
vn -0.800132 -0.145854 0.581821
vn -0.179251 -0.967641 -0.177595
vn 0.839792 -0.060054 -0.539577
vn 0.737585 0.626344 -0.252312
vn -0.578755 0.466985 0.668556
vn 0.393858 -0.828166 -0.39877
vn 0.790635 0.485411 -0.373193
vn -0.672232 -0.592198 0.444304
vn -0.764078 -0.44656 0.465584
vn -0.360204 -0.888733 0.283561
vn 0.671676 -0.676763 -0.301403
vn -0.690867 -0.224457 0.687257
vn -0.594883 0.237638 0.767882
vn 0.928917 0.0618263 -0.365091
vn 0.782605 0.538638 -0.312089
vn -0.110843 0.790334 0.602566
vn 0.528468 0.848155 0.0368115
vn 0.145517 -0.850461 0.505511
vn 0.861723 -0.358745 0.358797
vn -0.502003 -0.327343 0.800525
vn -0.400909 -0.592102 0.699062
vn 0.93352 0.309685 0.180653
vn -0.381226 0.209376 0.90046
vn 0.355488 0.669773 0.651945
vn -0.0615613 0.624834 0.778327
vn -0.0984711 -0.338731 0.935716
vn 0.273305 -0.0105642 0.96187
vn -0.323533 0.0626052 0.944143

g grp1
usemtl mtl1
f 1//1 2//2 3//3 
f 4//4 5//5 2//2 
f 1//1 4//4 2//2 
f 4//4 1//1 6//6 
f 6//6 1//1 7//7 
f 2//2 8//8 3//3 
f 3//3 9//9 1//1 
f 1//1 9//9 10//10 
f 7//7 1//1 10//10 
f 5//5 11//11 2//2 
f 8//8 11//11 12//12 
f 11//11 8//8 2//2 
f 3//3 8//8 13//13 
f 5//5 4//4 14//14 
f 15//15 5//5 14//14 
f 5//5 15//15 11//11 
f 8//8 12//12 13//13 
f 3//3 13//13 16//16 
f 9//9 3//3 16//16 
f 17//17 14//14 4//4 
f 4//4 6//6 17//17 
f 11//11 15//15 18//18 
f 7//7 17//17 6//6 
f 12//12 11//11 18//18 
f 9//9 19//19 10//10 
f 19//19 9//9 16//16 
f 20//20 15//15 14//14 
f 15//15 21//21 18//18 
f 12//12 22//22 13//13 
f 16//16 13//13 22//22 
f 15//15 20//20 23//23 
f 17//17 20//20 14//14 
f 21//21 15//15 23//23 
f 24//24 17//17 7//7 
f 7//7 10//10 25//25 
f 12//12 18//18 26//26 
f 27//27 12//12 26//26 
f 10//10 19//19 25//25 
f 12//12 27//27 22//22 
f 25//25 24//24 7//7 
f 22//22 28//28 16//16 
f 28//28 19//19 16//16 
f 20//20 29//29 23//23 
f 17//17 24//24 29//29 
f 20//20 17//17 29//29 
f 30//30 21//21 23//23 
f 18//18 21//21 31//31 
f 31//31 26//26 18//18 
f 32//32 25//25 19//19 
f 19//19 28//28 32//32 
f 27//27 26//26 33//33 
f 27//27 33//33 22//22 
f 33//33 28//28 22//22 
f 23//23 29//29 30//30 
f 29//29 24//24 34//34 
f 35//35 25//25 32//32 
f 33//33 36//36 28//28 
f 29//29 37//37 30//30 
f 21//21 30//30 38//38 
f 21//21 38//38 39//39 
f 31//31 21//21 39//39 
f 26//26 40//40 33//33 
f 28//28 41//41 32//32 
f 33//33 42//42 36//36 
f 28//28 36//36 41//41 
f 34//34 37//37 29//29 
f 34//34 24//24 35//35 
f 24//24 25//25 35//35 
f 40//40 42//42 33//33 
f 37//37 43//43 30//30 
f 35//35 32//32 44//44 
f 26//26 31//31 40//40 
f 42//42 45//45 36//36 
f 38//38 30//30 43//43 
f 31//31 39//39 46//46 
f 31//31 46//46 40//40 
f 44//44 32//32 41//41 
f 37//37 34//34 43//43 
f 34//34 47//47 43//43 
f 44//44 48//48 34//34 
f 34//34 35//35 44//44 
f 40//40 46//46 49//49 
f 40//40 49//49 42//42 
f 41//41 36//36 45//45 
f 43//43 47//47 50//50 
f 38//38 50//50 51//51 
f 43//43 50//50 38//38 
f 48//48 47//47 34//34 
f 38//38 51//51 39//39 
f 51//51 46//46 39//39 
f 52//52 45//45 42//42 
f 52//52 42//42 49//49 
f 48//48 44//44 53//53 
f 46//46 51//51 54//54 
f 41//41 53//53 44//44 
f 45//45 55//55 41//41 
f 45//45 52//52 56//56 
f 55//55 45//45 56//56 
f 50//50 47//47 57//57 
f 50//50 58//58 51//51 
f 57//57 58//58 50//50 
f 48//48 59//59 47//47 
f 49//49 46//46 54//54 
f 55//55 53//53 41//41 
f 52//52 49//49 60//60 
f 57//57 47//47 59//59 
f 59//59 48//48 53//53 
f 54//54 51//51 61//61 
f 58//58 61//61 51//51 
f 49//49 54//54 62//62 
f 63//63 53//53 55//55 
f 60//60 49//49 62//62 
f 62//62 54//54 61//61 
f 52//52 60//60 64//64 
f 58//58 57//57 65//65 
f 63//63 59//59 53//53 
f 52//52 64//64 66//66 
f 52//52 66//66 56//56 
f 67//67 65//65 57//57 
f 57//57 59//59 67//67 
f 65//65 61//61 58//58 
f 59//59 63//63 68//68 
f 67//67 59//59 68//68 
f 69//69 60//60 62//62 
f 56//56 66//66 55//55 
f 63//63 70//70 68//68 
f 71//71 69//69 62//62 
f 55//55 66//66 72//72 
f 72//72 63//63 55//55 
f 60//60 73//73 74//74 
f 60//60 69//69 73//73 
f 74//74 64//64 60//60 
f 68//68 75//75 65//65 
f 67//67 68//68 65//65 
f 61//61 71//71 62//62 
f 70//70 63//63 72//72 
f 74//74 66//66 64//64 
f 65//65 75//75 61//61 
f 68//68 70//70 75//75 
f 76//76 73//73 69//69 
f 77//77 66//66 74//74 
f 75//75 70//70 78//78 
f 61//61 75//75 71//71 
f 71//71 76//76 69//69 
f 79//79 72//72 66//66 
f 74//74 73//73 80//80 
f 66//66 77//77 79//79 
f 77//77 74//74 80//80 
f 81//81 75//75 78//78 
f 75//75 81//81 71//71 
f 70//70 72//72 78//78 
f 78//78 72//72 79//79 
f 76//76 80//80 73//73 
f 77//77 82//82 79//79 
f 81//81 83//83 71//71 
f 84//84 76//76 71//71 
f 80//80 76//76 84//84 
f 77//77 80//80 85//85 
f 77//77 85//85 82//82 
f 83//83 84//84 71//71 
f 78//78 86//86 81//81 
f 78//78 79//79 82//82 
f 84//84 85//85 80//80 
f 87//87 84//84 83//83 
f 86//86 83//83 81//81 
f 78//78 82//82 86//86 
f 87//87 83//83 86//86 
f 87//87 85//85 84//84 
f 86//86 82//82 87//87 
f 82//82 85//85 87//87 
f 88//88 89//89 90//90 
f 91//91 89//89 92//92 
f 92//92 89//89 88//88 
f 93//93 88//88 94//94 
f 90//90 94//94 88//88 
f 88//88 93//93 92//92 
f 91//91 92//92 95//95 
f 93//93 96//96 92//92 
f 92//92 96//96 95//95 
f 97//97 93//93 94//94 
f 90//90 89//89 98//98 
f 99//99 98//98 89//89 
f 89//89 91//91 99//99 
f 91//91 95//95 100//100 
f 90//90 101//101 94//94 
f 90//90 98//98 102//102 
f 100//100 103//103 91//91 
f 95//95 96//96 104//104 
f 95//95 104//104 100//100 
f 101//101 90//90 105//105 
f 90//90 102//102 105//105 
f 97//97 94//94 101//101 
f 98//98 106//106 102//102 
f 98//98 99//99 106//106 
f 99//99 91//91 103//103 
f 107//107 97//97 101//101 
f 99//99 108//108 106//106 
f 97//97 96//96 93//93 
f 96//96 97//97 109//109 
f 108//108 99//99 103//103 
f 110//110 101//101 105//105 
f 102//102 111//111 105//105 
f 107//107 109//109 97//97 
f 96//96 109//109 112//112 
f 104//104 96//96 112//112 
f 105//105 111//111 113//113 
f 110//110 105//105 114//114 
f 107//107 101//101 110//110 
f 111//111 102//102 106//106 
f 108//108 103//103 115//115 
f 114//114 105//105 113//113 
f 111//111 116//116 113//113 
f 116//116 111//111 117//117 
f 118//118 107//107 110//110 
f 117//117 111//111 106//106 
f 118//118 109//109 107//107 
f 117//117 106//106 108//108 
f 104//104 119//119 100//100 
f 100//100 119//119 103//103 
f 103//103 119//119 115//115 
f 114//114 113//113 120//120 
f 113//113 116//116 121//121 
f 122//122 110//110 114//114 
f 109//109 118//118 112//112 
f 123//123 104//104 112//112 
f 104//104 123//123 119//119 
f 120//120 113//113 121//121 
f 121//121 116//116 124//124 
f 118//118 110//110 125//125 
f 126//126 114//114 120//120 
f 124//124 116//116 127//127 
f 110//110 122//122 125//125 
f 127//127 116//116 117//117 
f 117//117 128//128 129//129 
f 108//108 128//128 117//117 
f 112//112 118//118 123//123 
f 130//130 120//120 121//121 
f 122//122 114//114 126//126 
f 119//119 123//123 131//131 
f 128//128 108//108 115//115 
f 121//121 124//124 130//130 
f 125//125 132//132 118//118 
f 132//132 123//123 118//118 
f 115//115 119//119 131//131 
f 115//115 131//131 128//128 
f 129//129 127//127 117//117 
f 126//126 120//120 133//133 
f 130//130 133//133 120//120 
f 130//130 124//124 134//134 
f 135//135 124//124 127//127 
f 123//123 132//132 131//131 
f 133//133 130//130 136//136 
f 130//130 134//134 136//136 
f 126//126 133//133 137//137 
f 126//126 138//138 122//122 
f 125//125 122//122 138//138 
f 128//128 131//131 139//139 
f 140//140 133//133 136//136 
f 135//135 134//134 124//124 
f 126//126 141//141 138//138 
f 138//138 132//132 125//125 
f 129//129 128//128 142//142 
f 140//140 137//137 133//133 
f 132//132 138//138 143//143 
f 128//128 139//139 142//142 
f 132//132 139//139 131//131 
f 140//140 136//136 144//144 
f 126//126 137//137 141//141 
f 134//134 135//135 145//145 
f 146//146 135//135 127//127 
f 141//141 143//143 138//138 
f 146//146 127//127 129//129 
f 142//142 146//146 129//129 
f 147//147 132//132 143//143 
f 148//148 144//144 136//136 
f 145//145 135//135 149//149 
f 135//135 146//146 149//149 
f 132//132 147//147 139//139 
f 150//150 137//137 140//140 
f 151//151 141//141 137//137 
f 136//136 145//145 148//148 
f 136//136 134//134 145//145 
f 137//137 150//150 151//151 
f 152//152 144//144 148//148 
f 148//148 145//145 153//153 
f 152//152 150//150 140//140 
f 151//151 143//143 141//141 
f 151//151 154//154 143//143 
f 155//155 143//143 154//154 
f 143//143 155//155 147//147 
f 148//148 153//153 152//152 
f 140//140 144//144 152//152 
f 145//145 156//156 153//153 
f 149//149 157//157 145//145 
f 147//147 158//158 139//139 
f 139//139 158//158 142//142 
f 154//154 151//151 150//150 
f 149//149 146//146 159//159 
f 147//147 155//155 158//158 
f 153//153 160//160 152//152 
f 153//153 156//156 161//161 
f 156//156 145//145 157//157 
f 150//150 162//162 154//154 
f 146//146 142//142 159//159 
f 163//163 152//152 160//160 
f 161//161 160//160 153//153 
f 152//152 163//163 162//162 
f 152//152 162//162 150//150 
f 161//161 156//156 164//164 
f 156//156 157//157 164//164 
f 149//149 159//159 157//157 
f 142//142 158//158 159//159 
f 155//155 154//154 165//165 
f 165//165 158//158 155//155 
f 166//166 157//157 159//159 
f 158//158 167//167 159//159 
f 163//163 160//160 168//168 
f 160//160 161//161 168//168 
f 161//161 169//169 168//168 
f 154//154 162//162 165//165 
f 166//166 164//164 157//157 
f 159//159 167//167 166//166 
f 162//162 163//163 168//168 
f 161//161 164//164 169//169 
f 169//169 164//164 166//166 
f 167//167 158//158 165//165 
f 168//168 170//170 162//162 
f 162//162 170//170 165//165 
f 168//168 169//169 170//170 
f 170//170 167//167 165//165 
f 166//166 167//167 170//170 
f 170//170 169//169 166//166 
