# wavefront obj file written by the visualization toolkit


v 7602.29 4442.33 3053.1
v 7544.15 4430.39 3079.89
v 7597.92 4499.41 3071.68
v 7693.42 4480.41 3076.13
v 7624.75 4436.17 3079.91
v 7521.35 4491.63 3103.4
v 7714.85 4458.44 3098.42
v 7768.53 4492.02 3100.58
v 7773.41 4532.96 3112.87
v 7541.1 4548.32 3121.45
v 7602.35 4578.17 3123.02
v 7680.54 4559.92 3119.37
v 7551.18 4417.7 3100.15
v 7520.78 4426.91 3103.97
v 7628 4434.13 3114.42
v 7506.28 4474.11 3127.02
v 7801.52 4522.61 3128.86
v 7801.88 4560.44 3156.4
v 7782.4 4502.97 3129.65
v 7511.9 4544.17 3154.71
v 7659.01 4615.63 3170.83
v 7749.53 4587.96 3173.93
v 7509.16 4468.37 3138.28
v 7561.29 4449 3135.99
v 7713.42 4472.74 3134.61
v 7504.27 4521.85 3162.26
v 7804.54 4551.34 3163.41
v 7577.26 4591.48 3172.94
v 7665.15 4484.2 3161.65
v 7756.86 4523.64 3168.57
v 7702.3 4619.34 3191.56
v 7583.29 4510.8 3179.48
v 7527.97 4539.31 3181.29
v 7543.98 4564.82 3186.3
v 7789.21 4573.26 3183.69
v 7664.73 4617.38 3192.59
v 7686.94 4548.58 3198.44
v 7762.53 4575.43 3192.24
v 7711.83 4604.82 3194.15
v 7608.71 4568.63 3200.75
v 7640.89 4595.42 3193.03
v 7682.93 4578.42 3194.34
v 7666.2 4554.61 8175.23
v 7590.72 4595.19 8162.3
v 7663.86 4613.77 8165.99
v 7742.05 4592.7 8182.08
v 7587.95 4616.97 8169.88
v 7531.78 4520.98 8202.31
v 7538.53 4587.65 8188.43
v 7782.35 4545.27 8213.88
v 7559.23 4613.3 8195.09
v 7631.6 4622.12 8197.27
v 7713.25 4610.02 8198.14
v 7775.93 4579.18 8216.87
v 7627.37 4461.75 8232.95
v 7734.62 4498.7 8225.77
v 7494.54 4486.56 8223.54
v 7502.06 4519.1 8231.22
v 7521.01 4576.38 8216.56
v 7524.57 4449.2 8251.36
v 7714.4 4459.8 8254.25
v 7770.51 4490.18 8259.01
v 7800.36 4552.59 8236.22
v 7790.16 4559.88 8248.92
v 7534.45 4585.13 8236.07
v 7742.4 4590.79 8238.33
v 7505.3 4460.15 8255.17
v 7786.43 4526.04 8257.92
v 7577.06 4601.93 8231.29
v 7650.29 4581.65 8258.49
v 7562.01 4418 8271.3
v 7530.61 4429.06 8281.35
v 7636.1 4430.88 8280.48
v 7513.73 4541.41 8252.21
v 7733.97 4560.33 8275.41
v 7716.1 4456.96 8287.78
v 7760.78 4487.11 8284.06
v 7532.42 4483.2 8284.96
v 7558.74 4553.55 8262.37
v 7577.43 4421.18 8293.45
v 7738.03 4514.53 8291.88
v 7634.97 4440.05 8312.32
v 7703.16 4473.26 8302.33
v 7609.55 4516.35 8305.12
v 7678.76 4531.29 8296.02
v 7571.94 4441.61 8300.03
v 7600.7 4470.58 8309.95
v 7660.85 4489.51 8301.6
vn 0.036191 -0.361496 -0.931671
vn -0.481565 -0.43361 -0.761628
vn -0.168778 0.377463 -0.910514
vn 0.289619 -0.0747757 -0.954217
vn 0.216586 -0.872948 -0.437096
vn -0.680564 0.237749 -0.693042
vn 0.41995 -0.88215 -0.213196
vn 0.621543 -0.418906 -0.661969
vn 0.382265 0.469451 -0.795921
vn -0.475749 0.636358 -0.607217
vn -0.155242 0.744649 -0.649152
vn 0.146997 0.620775 -0.770084
vn -0.120948 -0.978521 0.16694
vn -0.750456 -0.657093 -0.071025
vn 0.19392 -0.907501 0.372609
vn -0.969314 -0.0715358 -0.235189
vn 0.929216 -0.144519 -0.340106
vn 0.779069 0.568213 -0.264925
vn 0.609973 -0.747252 0.263718
vn -0.833916 0.531382 -0.149055
vn -0.00227928 0.93083 -0.365444
vn 0.395602 0.876624 -0.273916
vn -0.532677 -0.537827 0.65345
vn -0.0697874 -0.683036 0.727043
vn 0.314407 -0.79763 0.514718
vn -0.88821 0.0589864 0.455636
vn 0.806932 -0.253875 0.533299
vn -0.443424 0.890813 0.0991336
vn 0.114541 -0.63261 0.765953
vn 0.319485 -0.56871 0.757957
vn 0.287342 0.911924 0.292967
vn -0.098561 -0.445163 0.890009
vn -0.390242 -0.164412 0.905914
vn -0.519453 0.495983 0.695823
vn 0.637685 0.589102 0.496303
vn -0.160792 0.759194 0.63069
vn 0.0812849 -0.269283 0.959625
vn 0.273931 -0.0705821 0.959156
vn 0.228058 0.460637 0.85779
vn -0.0969059 0.0451257 0.99427
vn -0.150712 0.389848 0.908463
vn 0.0366246 0.117475 0.9924
vn 0.127562 -0.342068 -0.930977
vn -0.200665 0.0284655 -0.979246
vn 0.153242 0.613255 -0.774878
vn 0.502878 0.381663 -0.77553
vn -0.267948 0.754258 -0.599415
vn -0.348407 -0.295596 -0.889514
vn -0.703677 0.299109 -0.644494
vn 0.692357 -0.296061 -0.65802
vn -0.465232 0.885179 0.00420978
vn 0.0148604 0.990999 0.133043
vn 0.274321 0.96141 0.020955
vn 0.697875 0.69211 -0.184269
vn 0.0631331 -0.673531 -0.736458
vn 0.310675 -0.604798 -0.733281
vn -0.786893 -0.305143 -0.536365
vn -0.984965 0.158456 -0.0688115
vn -0.849746 0.527181 0.00333624
vn -0.372398 -0.723836 -0.580845
vn 0.328494 -0.846661 -0.418637
vn 0.701443 -0.688527 -0.184139
vn 0.98954 0.120191 -0.079784
vn 0.640094 0.498344 0.58475
vn -0.490108 0.687117 0.536343
vn 0.279951 0.855927 0.43476
vn -0.925156 -0.327474 0.191955
vn 0.905462 -0.203745 0.372327
vn -0.150218 0.795382 0.587198
vn -0.0113464 0.73998 0.672533
vn -0.107841 -0.952932 -0.283356
vn -0.609828 -0.665867 0.429804
vn 0.231286 -0.971596 -0.0500744
vn -0.724577 0.367055 0.583317
vn 0.200978 0.568734 0.79759
vn 0.438178 -0.818229 0.372157
vn 0.634298 -0.362355 0.682909
vn -0.578654 0.116552 0.807202
vn -0.264295 0.512993 0.816692
vn -0.0779281 -0.840553 0.536095
vn 0.342276 0.173898 0.923367
vn 0.109329 -0.448155 0.887245
vn 0.260343 -0.168942 0.950621
vn -0.121834 0.347876 0.929591
vn 0.0695529 0.358189 0.931055
vn -0.302345 -0.248849 0.920142
vn -0.130926 0.0427008 0.990472
vn 0.0888564 0.112111 0.989715

g grp1
usemtl mtl1
f 1//1 2//2 3//3 
f 4//4 5//5 1//1 
f 4//4 1//1 3//3 
f 1//1 5//5 2//2 
f 2//2 6//6 3//3 
f 7//7 5//5 4//4 
f 8//8 7//7 4//4 
f 8//8 4//4 9//9 
f 6//6 10//10 3//3 
f 11//11 12//12 3//3 
f 3//3 12//12 4//4 
f 4//4 12//12 9//9 
f 3//3 10//10 11//11 
f 2//2 13//13 14//14 
f 2//2 5//5 13//13 
f 5//5 7//7 15//15 
f 2//2 16//16 6//6 
f 14//14 16//16 2//2 
f 8//8 9//9 17//17 
f 18//18 17//17 9//9 
f 5//5 15//15 13//13 
f 8//8 19//19 7//7 
f 8//8 17//17 19//19 
f 16//16 20//20 6//6 
f 20//20 10//10 6//6 
f 11//11 21//21 12//12 
f 9//9 12//12 22//22 
f 22//22 12//12 21//21 
f 14//14 13//13 23//23 
f 15//15 24//24 13//13 
f 7//7 25//25 15//15 
f 7//7 19//19 25//25 
f 16//16 26//26 20//20 
f 19//19 17//17 27//27 
f 17//17 18//18 27//27 
f 11//11 10//10 28//28 
f 11//11 28//28 21//21 
f 23//23 13//13 24//24 
f 14//14 23//23 16//16 
f 15//15 29//29 24//24 
f 16//16 23//23 26//26 
f 19//19 27//27 30//30 
f 10//10 20//20 28//28 
f 18//18 9//9 22//22 
f 29//29 15//15 25//25 
f 19//19 30//30 25//25 
f 21//21 31//31 22//22 
f 23//23 24//24 32//32 
f 33//33 23//23 32//32 
f 30//30 29//29 25//25 
f 23//23 33//33 26//26 
f 34//34 20//20 26//26 
f 27//27 18//18 35//35 
f 34//34 28//28 20//20 
f 35//35 18//18 22//22 
f 21//21 28//28 36//36 
f 31//31 21//21 36//36 
f 24//24 29//29 32//32 
f 32//32 29//29 37//37 
f 37//37 29//29 30//30 
f 30//30 27//27 38//38 
f 26//26 33//33 34//34 
f 35//35 38//38 27//27 
f 22//22 31//31 39//39 
f 39//39 35//35 22//22 
f 32//32 40//40 33//33 
f 37//37 40//40 32//32 
f 40//40 34//34 33//33 
f 38//38 37//37 30//30 
f 38//38 35//35 39//39 
f 34//34 41//41 28//28 
f 28//28 41//41 36//36 
f 36//36 39//39 31//31 
f 41//41 39//39 36//36 
f 37//37 42//42 40//40 
f 38//38 42//42 37//37 
f 39//39 42//42 38//38 
f 40//40 41//41 34//34 
f 42//42 41//41 40//40 
f 39//39 41//41 42//42 
f 43//43 44//44 45//45 
f 46//46 43//43 45//45 
f 45//45 44//44 47//47 
f 43//43 48//48 44//44 
f 44//44 48//48 49//49 
f 46//46 50//50 43//43 
f 47//47 44//44 49//49 
f 51//51 47//47 49//49 
f 52//52 47//47 51//51 
f 47//47 52//52 45//45 
f 53//53 46//46 45//45 
f 54//54 46//46 53//53 
f 53//53 45//45 52//52 
f 43//43 55//55 48//48 
f 56//56 55//55 43//43 
f 50//50 56//56 43//43 
f 48//48 57//57 58//58 
f 48//48 58//58 49//49 
f 58//58 59//59 49//49 
f 50//50 46//46 54//54 
f 49//49 59//59 51//51 
f 55//55 60//60 48//48 
f 60//60 57//57 48//48 
f 61//61 56//56 62//62 
f 56//56 50//50 62//62 
f 50//50 54//54 63//63 
f 64//64 63//63 54//54 
f 51//51 59//59 65//65 
f 54//54 53//53 66//66 
f 61//61 55//55 56//56 
f 60//60 67//67 57//57 
f 68//68 62//62 50//50 
f 57//57 67//67 58//58 
f 68//68 50//50 63//63 
f 66//66 64//64 54//54 
f 51//51 65//65 69//69 
f 52//52 51//51 69//69 
f 52//52 70//70 53//53 
f 69//69 70//70 52//52 
f 70//70 66//66 53//53 
f 60//60 55//55 71//71 
f 72//72 60//60 71//71 
f 60//60 72//72 67//67 
f 55//55 61//61 73//73 
f 74//74 59//59 58//58 
f 59//59 74//74 65//65 
f 75//75 64//64 66//66 
f 55//55 73//73 71//71 
f 61//61 76//76 73//73 
f 62//62 68//68 77//77 
f 67//67 78//78 58//58 
f 78//78 74//74 58//58 
f 68//68 63//63 64//64 
f 74//74 79//79 65//65 
f 65//65 79//79 69//69 
f 71//71 80//80 72//72 
f 71//71 73//73 80//80 
f 78//78 67//67 72//72 
f 62//62 76//76 61//61 
f 76//76 62//62 77//77 
f 64//64 81//81 68//68 
f 66//66 70//70 75//75 
f 73//73 82//82 80//80 
f 73//73 76//76 82//82 
f 76//76 83//83 82//82 
f 68//68 81//81 77//77 
f 74//74 78//78 79//79 
f 81//81 64//64 75//75 
f 79//79 84//84 70//70 
f 84//84 85//85 70//70 
f 70//70 85//85 75//75 
f 70//70 69//69 79//79 
f 72//72 80//80 86//86 
f 82//82 86//86 80//80 
f 78//78 72//72 86//86 
f 76//76 77//77 83//83 
f 83//83 77//77 81//81 
f 78//78 84//84 79//79 
f 81//81 75//75 85//85 
f 78//78 86//86 87//87 
f 82//82 87//87 86//86 
f 88//88 87//87 82//82 
f 83//83 88//88 82//82 
f 87//87 84//84 78//78 
f 87//87 88//88 84//84 
f 83//83 81//81 88//88 
f 85//85 84//84 88//88 
f 81//81 85//85 88//88 
