# wavefront obj file written by the visualization toolkit


v 5432.47 6818.08 4761.6
v 5375.27 6876.31 4760.66
v 5437.12 6882.74 4750.96
v 5465.45 6850.91 4763.22
v 5463.74 6901.01 4763.53
v 5488.03 6836.36 4795.56
v 5397.03 6926.55 4773.54
v 5451.48 6939.9 4799.46
v 5459.6 6787.59 4794.34
v 5355.05 6745.28 4834.56
v 5341.33 6820.44 4795.67
v 5267.64 6857.03 4813.15
v 5285.97 6915.2 4805.71
v 5299.78 6952.41 4816.04
v 5350.67 6969.45 4852.77
v 5432.04 6736.31 4848.65
v 5477.46 6779.12 4840.57
v 5486.91 6891.78 4827.42
v 5493.18 6832.87 4854.24
v 5427.84 6963.56 4874.56
v 5364.45 6718.85 4873.94
v 5248.82 6789.98 4851.05
v 5204.43 6827.75 4855.31
v 5177.41 6871.67 4869.07
v 5467.26 6933.03 4870.21
v 5192.14 6932.64 4869.91
v 5222.23 6970.82 4921.57
v 5198.83 6735.29 4923.96
v 5303.94 6718.85 4902.58
v 5451.99 6742.07 4896.11
v 5160.94 6804.04 4902.52
v 5360.33 6722.18 4905.56
v 5483.26 6801.97 4903.17
v 5481.26 6878.87 4903.16
v 5102.8 6909.53 4936.1
v 5141.25 6946.67 4948.09
v 5438.2 6941.07 4927.28
v 5364.58 6974.04 4938.19
v 5457.42 6769.94 4938.55
v 5086.72 6825.47 4961.87
v 5285.42 6984.06 4954.74
v 5351.73 6744.66 4967.97
v 5114.22 6766.1 4968.78
v 5244.22 6727.3 4960.95
v 5466.93 6825.21 4952.15
v 5058.6 6874.01 5012.68
v 5091.92 6925.4 5010.79
v 5153.89 6961.49 5010.54
v 5223.78 6979.67 4999.97
v 5136.12 6744.49 5008.31
v 5080.31 6779.02 5020.94
v 5450.43 6890.86 4965.27
v 5424.8 6791.17 4976.57
v 5060.84 6821.34 5031.1
v 5374.19 6944.98 5000.85
v 5285.7 6971.8 5008.8
v 5247.28 6748.77 5008
v 5331.71 6790.5 5020.12
v 5420.63 6845.61 4994.68
v 5399.45 6898.93 5011.34
v 5070.55 6894.19 5061.08
v 5333.52 6871.81 5049.78
v 5061.87 6844.45 5058.03
v 5333.19 6924.99 5046.31
v 5119.47 6937.84 5052.27
v 5290.11 6950.49 5047.77
v 5199.58 6773.17 5047.07
v 5115.95 6773.8 5050.21
v 5083.48 6813.03 5059.57
v 5248.01 6820.05 5065.67
v 5207.6 6951.88 5044.73
v 5101.37 6864.94 5081.45
v 5244.05 6916.52 5072.21
v 5151.64 6912.27 5068.99
v 5167.17 6830.91 5073.72
v 5235.11 6868.98 5075.21
v 5179.22 6878.85 5073.6
v 5142.66 6802.87 6294.4
v 5091.6 6852.59 6286.57
v 5161.17 6873.81 6280.17
v 5255.89 6844.46 6306.22
v 5141.38 6917.21 6289.45
v 5248.37 6914.08 6304.43
v 5078.98 6782.66 6324.13
v 5289.48 6774.32 6351.36
v 5055.55 6843.97 6316.99
v 5083.71 6899.12 6316.21
v 5350.07 6879.37 6335.12
v 5138.66 6953.39 6335.24
v 5217.45 6959.77 6327.92
v 5307.09 6958.26 6350.4
v 5175.55 6748.5 6354.02
v 5061.97 6761.28 6354.2
v 5051.85 6810.29 6361.07
v 5370.78 6821.21 6359.39
v 5060.17 6882.84 6374.33
v 5384.02 6927.61 6368.52
v 5207.76 6980.01 6406.24
v 5389.48 6775.09 6388.41
v 5426.9 6866.04 6388.42
v 5102.46 6934 6375.77
v 5381.09 6962.87 6398.1
v 5327.57 6973.75 6432.54
v 5105.66 6746.7 6373.85
v 5293 6728.59 6402.91
v 5090.19 6768.6 6399.27
v 5455.41 6915.78 6429.94
v 5419.99 6945.36 6422.99
v 5143.37 6960.31 6410.26
v 5228.25 6723.36 6420.71
v 5385.33 6744.46 6424.15
v 5435.03 6791.27 6427.38
v 5052.21 6848.84 6396.27
v 5188.18 6739.69 6449.05
v 5087.09 6825.56 6428.12
v 5474.69 6853.56 6463.68
v 5088.59 6879.78 6440.29
v 5130.76 6928.62 6449.2
v 5349.1 6718.84 6461.74
v 5429.9 6949.54 6475.45
v 5293.45 6980.78 6495.29
v 5434.09 6742.62 6496.3
v 5472.69 6800.96 6503.14
v 5476.06 6904.44 6522.04
v 5221.44 6963.18 6483.37
v 5305.73 6722.79 6490.73
v 5163.45 6793.74 6476.7
v 5288.43 6766.5 6531.17
v 5188.62 6896.2 6522.78
v 5390.24 6963 6550.88
v 5390.09 6726.51 6518.98
v 5156.69 6850.37 6488.43
v 5487.23 6845.22 6552.64
v 5400.5 6752.58 6562.58
v 5470.63 6786.85 6556.58
v 5435.37 6754.41 6545.44
v 5257.12 6937.16 6547.5
v 5453.06 6931.2 6561.07
v 5322.85 6959.81 6554.42
v 5456.82 6792.64 6582.95
v 5251.14 6831.85 6542.01
v 5363.88 6819.43 6590.66
v 5472.76 6830.98 6597.36
v 5465.83 6889.43 6594.33
v 5326.65 6890.98 6591.36
v 5400.44 6948.22 6602.36
v 5431.73 6929.63 6591.72
v 5361.97 6928.2 6599.91
v 5432.73 6809.85 6596.06
v 5397.25 6898.19 6626
v 5417.32 6867.11 6605.33
v 5409.79 6911.69 6601.52
vn -0.0125997 -0.409115 -0.912396
vn -0.301546 -0.0179093 -0.953284
vn 0.0964589 0.116652 -0.988478
vn 0.543579 -0.191112 -0.817312
vn 0.622628 0.372329 -0.688263
vn 0.913027 -0.141104 -0.382716
vn -0.060146 0.609659 -0.790379
vn 0.485776 0.801122 -0.349608
vn 0.466452 -0.615544 -0.635238
vn -0.171161 -0.721387 -0.671048
vn -0.34343 -0.400079 -0.849702
vn -0.448171 -0.176044 -0.876442
vn -0.431029 0.239664 -0.869928
vn -0.262998 0.747939 -0.609442
vn 0.0294993 0.963929 -0.264519
vn 0.333405 -0.895361 -0.295245
vn 0.842289 -0.512652 -0.166546
vn 0.945244 0.30794 -0.108105
vn 0.997677 -0.0638468 0.0237504
vn 0.401915 0.915425 0.0215088
vn 0.0297383 -0.972608 -0.23054
vn -0.413495 -0.477596 -0.775192
vn -0.535432 -0.285733 -0.794776
vn -0.613652 -0.0193622 -0.789339
vn 0.794675 0.599299 0.0966033
vn -0.516328 0.553909 -0.653139
vn -0.250204 0.93809 -0.239551
vn -0.36939 -0.821576 -0.434239
vn -0.116726 -0.980226 -0.159787
vn 0.578453 -0.795443 0.180731
vn -0.589933 -0.390317 -0.706846
vn 0.161839 -0.969953 0.181655
vn 0.941966 -0.25622 0.216913
vn 0.935442 0.22575 0.272003
vn -0.7599 0.372856 -0.532476
vn -0.490873 0.822705 -0.286708
vn 0.650763 0.674121 0.349382
vn 0.265626 0.946846 0.181454
vn 0.655687 -0.537186 0.530572
vn -0.810499 -0.232123 -0.537782
vn 0.0256244 0.99958 0.0135231
vn 0.256497 -0.806897 0.532096
vn -0.627862 -0.645568 -0.434776
vn -0.00741458 -0.976517 0.215312
vn 0.808513 -0.100447 0.579842
vn -0.97258 0.19392 -0.128386
vn -0.68242 0.72995 -0.0384206
vn -0.324939 0.938759 0.114658
vn -0.0959962 0.972365 0.212815
vn -0.235853 -0.941987 0.238817
vn -0.74781 -0.656216 0.1008
vn 0.756882 0.29299 0.584197
vn 0.486774 -0.427784 0.761611
vn -0.943847 -0.322336 0.0724734
vn 0.481838 0.690901 0.538969
vn 0.15016 0.911854 0.382065
vn 0.130162 -0.815787 0.563515
vn 0.32774 -0.504015 0.799097
vn 0.568469 -0.129677 0.81242
vn 0.59104 0.206687 0.779713
vn -0.661497 0.454479 0.596549
vn 0.375677 -0.093434 0.922028
vn -0.827829 -0.106965 0.550688
vn 0.404049 0.333989 0.851584
vn -0.330212 0.770583 0.545126
vn 0.193306 0.692582 0.694955
vn 0.0951407 -0.637122 0.764868
vn -0.235716 -0.646358 0.725713
vn -0.492336 -0.439002 0.751586
vn 0.196371 -0.323821 0.925515
vn -0.0512196 0.767726 0.638728
vn -0.205531 0.0128127 0.978567
vn 0.0937291 0.272192 0.957667
vn -0.0849683 0.389715 0.917007
vn -0.00150108 -0.248494 0.968632
vn 0.10934 -0.0414455 0.99314
vn 0.0133372 0.0709966 0.997387
vn 0.0283445 -0.473771 -0.880192
vn -0.401668 -0.00235963 -0.915782
vn 0.0802511 0.00419542 -0.996766
vn 0.284193 -0.218872 -0.93345
vn -0.173505 0.506863 -0.844385
vn 0.256574 0.319561 -0.912168
vn -0.467628 -0.579041 -0.667859
vn 0.245676 -0.602397 -0.759448
vn -0.887975 0.0407768 -0.45808
vn -0.685467 0.559109 -0.466404
vn 0.445785 0.0218825 -0.894873
vn -0.378024 0.869897 -0.316825
vn 0.0485718 0.848105 -0.527597
vn 0.239921 0.768929 -0.592609
vn -0.00596787 -0.838999 -0.5441
vn -0.733323 -0.677087 -0.0615639
vn -0.975632 -0.207313 0.0718582
vn 0.483274 -0.288159 -0.826686
vn -0.897842 0.431341 0.0884558
vn 0.523848 0.424722 -0.738373
vn -0.134237 0.990628 -0.0252231
vn 0.488454 -0.519956 -0.700756
vn 0.700878 -0.04653 -0.711762
vn -0.691086 0.721484 0.0431248
vn 0.3872 0.853062 -0.349801
vn 0.141234 0.983453 -0.113459
vn -0.276099 -0.95826 -0.0742119
vn 0.138093 -0.879749 -0.454942
vn -0.636747 -0.55505 0.535231
vn 0.805159 0.425796 -0.412816
vn 0.606471 0.693839 -0.388306
vn -0.462197 0.867235 0.185143
vn -0.102087 -0.992975 -0.0598187
vn 0.406863 -0.775766 -0.482338
vn 0.740054 -0.411271 -0.532142
vn -0.917337 -0.00362469 0.398095
vn -0.375539 -0.791291 0.482524
vn -0.702834 -0.274655 0.656193
vn 0.940129 -0.0595753 -0.335573
vn -0.741832 0.173733 0.64769
vn -0.625456 0.608629 0.488237
vn 0.151224 -0.980905 -0.122296
vn 0.527495 0.846928 -0.0667966
vn -0.0662114 0.977934 0.198145
vn 0.605942 -0.784659 -0.130937
vn 0.906545 -0.370236 -0.202734
vn 0.909847 0.414945 -0.000257404
vn -0.350774 0.840722 0.412485
vn -0.171575 -0.907284 0.383924
vn -0.519052 -0.403809 0.753342
vn -0.361382 -0.553542 0.75033
vn -0.558019 0.100622 0.823705
vn 0.252094 0.949337 0.187639
vn 0.181011 -0.949518 0.256224
vn -0.5739 -0.196488 0.795004
vn 0.994126 -0.0303845 0.10388
vn -0.022213 -0.701563 0.712261
vn 0.815899 -0.533946 0.221835
vn 0.447909 -0.811437 0.37543
vn -0.43623 0.52577 0.730253
vn 0.650907 0.724 0.228354
vn -0.219874 0.824589 0.521257
vn 0.400952 -0.610961 0.682615
vn -0.455253 -0.270117 0.8484
vn -0.253883 -0.312511 0.915358
vn 0.601466 -0.208944 0.77109
vn 0.667985 0.30635 0.678193
vn -0.381757 -0.0658302 0.921916
vn 0.121373 0.632206 0.765235
vn 0.487197 0.603491 0.63122
vn -0.228036 0.447647 0.864645
vn 0.0400628 -0.353257 0.934668
vn 0.121314 0.170574 0.977848
vn 0.131353 -0.107738 0.985464
vn 0.342258 0.267829 0.900626

g grp1
usemtl mtl1
f 1//1 2//2 3//3 
f 4//4 1//1 3//3 
f 5//5 6//6 4//4 
f 3//3 2//2 7//7 
f 5//5 3//3 7//7 
f 5//5 4//4 3//3 
f 5//5 7//7 8//8 
f 9//9 10//10 1//1 
f 9//9 1//1 4//4 
f 9//9 4//4 6//6 
f 1//1 11//11 2//2 
f 2//2 12//12 13//13 
f 13//13 7//7 2//2 
f 13//13 14//14 7//7 
f 15//15 7//7 14//14 
f 8//8 7//7 15//15 
f 16//16 10//10 9//9 
f 10//10 11//11 1//1 
f 9//9 6//6 17//17 
f 11//11 12//12 2//2 
f 6//6 18//18 19//19 
f 6//6 5//5 18//18 
f 8//8 18//18 5//5 
f 8//8 15//15 20//20 
f 21//21 10//10 16//16 
f 10//10 22//22 11//11 
f 22//22 23//23 12//12 
f 11//11 22//22 12//12 
f 17//17 6//6 19//19 
f 24//24 13//13 12//12 
f 18//18 8//8 25//25 
f 13//13 26//26 14//14 
f 14//14 27//27 15//15 
f 12//12 23//23 24//24 
f 13//13 24//24 26//26 
f 26//26 27//27 14//14 
f 28//28 10//10 29//29 
f 29//29 10//10 21//21 
f 10//10 28//28 22//22 
f 16//16 17//17 30//30 
f 9//9 17//17 16//16 
f 22//22 31//31 23//23 
f 8//8 20//20 25//25 
f 29//29 21//21 32//32 
f 16//16 32//32 21//21 
f 16//16 30//30 32//32 
f 33//33 30//30 17//17 
f 28//28 31//31 22//22 
f 23//23 31//31 24//24 
f 19//19 18//18 34//34 
f 26//26 35//35 36//36 
f 26//26 24//24 35//35 
f 34//34 18//18 25//25 
f 26//26 36//36 27//27 
f 20//20 37//37 25//25 
f 20//20 15//15 38//38 
f 39//39 30//30 33//33 
f 33//33 17//17 19//19 
f 31//31 40//40 24//24 
f 40//40 35//35 24//24 
f 15//15 27//27 41//41 
f 15//15 41//41 38//38 
f 20//20 38//38 37//37 
f 30//30 42//42 32//32 
f 30//30 39//39 42//42 
f 31//31 28//28 43//43 
f 31//31 43//43 40//40 
f 33//33 19//19 34//34 
f 25//25 37//37 34//34 
f 29//29 32//32 44//44 
f 44//44 28//28 29//29 
f 45//45 39//39 33//33 
f 45//45 33//33 34//34 
f 40//40 46//46 35//35 
f 47//47 35//35 46//46 
f 35//35 47//47 36//36 
f 36//36 48//48 27//27 
f 27//27 48//48 49//49 
f 41//41 27//27 49//49 
f 43//43 28//28 50//50 
f 50//50 28//28 44//44 
f 51//51 40//40 43//43 
f 52//52 45//45 34//34 
f 37//37 52//52 34//34 
f 43//43 50//50 51//51 
f 32//32 42//42 44//44 
f 53//53 42//42 39//39 
f 39//39 45//45 53//53 
f 40//40 51//51 54//54 
f 46//46 40//40 54//54 
f 52//52 37//37 55//55 
f 36//36 47//47 48//48 
f 56//56 55//55 38//38 
f 55//55 37//37 38//38 
f 38//38 41//41 56//56 
f 44//44 57//57 50//50 
f 42//42 57//57 44//44 
f 42//42 53//53 58//58 
f 53//53 45//45 59//59 
f 45//45 52//52 59//59 
f 60//60 59//59 52//52 
f 46//46 61//61 47//47 
f 52//52 55//55 60//60 
f 49//49 56//56 41//41 
f 42//42 58//58 57//57 
f 53//53 59//59 58//58 
f 58//58 59//59 62//62 
f 54//54 63//63 46//46 
f 59//59 60//60 62//62 
f 60//60 55//55 64//64 
f 47//47 61//61 65//65 
f 47//47 65//65 48//48 
f 55//55 66//66 64//64 
f 55//55 56//56 66//66 
f 50//50 57//57 67//67 
f 51//51 50//50 68//68 
f 67//67 68//68 50//50 
f 54//54 51//51 69//69 
f 69//69 51//51 68//68 
f 69//69 63//63 54//54 
f 62//62 70//70 58//58 
f 63//63 61//61 46//46 
f 64//64 62//62 60//60 
f 48//48 65//65 71//71 
f 48//48 71//71 49//49 
f 58//58 67//67 57//57 
f 70//70 67//67 58//58 
f 72//72 61//61 63//63 
f 62//62 64//64 73//73 
f 64//64 66//66 73//73 
f 65//65 74//74 71//71 
f 71//71 66//66 56//56 
f 56//56 49//49 71//71 
f 68//68 67//67 75//75 
f 75//75 69//69 68//68 
f 75//75 67//67 70//70 
f 69//69 72//72 63//63 
f 70//70 76//76 75//75 
f 70//70 62//62 76//76 
f 72//72 74//74 61//61 
f 76//76 62//62 73//73 
f 65//65 61//61 74//74 
f 74//74 73//73 71//71 
f 73//73 66//66 71//71 
f 75//75 72//72 69//69 
f 75//75 77//77 72//72 
f 76//76 77//77 75//75 
f 77//77 74//74 72//72 
f 76//76 73//73 77//77 
f 73//73 74//74 77//77 
f 78//78 79//79 80//80 
f 81//81 78//78 80//80 
f 80//80 79//79 82//82 
f 81//81 80//80 83//83 
f 83//83 80//80 82//82 
f 78//78 84//84 79//79 
f 81//81 85//85 78//78 
f 79//79 84//84 86//86 
f 79//79 86//86 87//87 
f 79//79 87//87 82//82 
f 88//88 81//81 83//83 
f 89//89 82//82 87//87 
f 82//82 90//90 83//83 
f 90//90 91//91 83//83 
f 82//82 89//89 90//90 
f 84//84 78//78 92//92 
f 84//84 93//93 94//94 
f 84//84 94//94 86//86 
f 95//95 85//85 81//81 
f 88//88 95//95 81//81 
f 86//86 96//96 87//87 
f 97//97 88//88 83//83 
f 83//83 91//91 97//97 
f 98//98 90//90 89//89 
f 92//92 78//78 85//85 
f 95//95 99//99 85//85 
f 96//96 86//86 94//94 
f 97//97 100//100 88//88 
f 89//89 87//87 101//101 
f 102//102 97//97 91//91 
f 91//91 90//90 103//103 
f 104//104 93//93 84//84 
f 92//92 104//104 84//84 
f 105//105 92//92 85//85 
f 93//93 106//106 94//94 
f 100//100 95//95 88//88 
f 107//107 100//100 97//97 
f 87//87 96//96 101//101 
f 108//108 107//107 97//97 
f 98//98 89//89 109//109 
f 98//98 103//103 90//90 
f 102//102 91//91 103//103 
f 92//92 110//110 104//104 
f 105//105 110//110 92//92 
f 106//106 93//93 104//104 
f 85//85 111//111 105//105 
f 111//111 85//85 99//99 
f 111//111 99//99 112//112 
f 112//112 99//99 95//95 
f 94//94 113//113 96//96 
f 100//100 112//112 95//95 
f 89//89 101//101 109//109 
f 97//97 102//102 108//108 
f 104//104 110//110 114//114 
f 114//114 106//106 104//104 
f 94//94 106//106 115//115 
f 113//113 94//94 115//115 
f 100//100 116//116 112//112 
f 113//113 117//117 96//96 
f 107//107 116//116 100//100 
f 118//118 101//101 96//96 
f 101//101 118//118 109//109 
f 119//119 110//110 105//105 
f 105//105 111//111 119//119 
f 117//117 118//118 96//96 
f 102//102 103//103 120//120 
f 98//98 121//121 103//103 
f 111//111 112//112 122//122 
f 112//112 116//116 123//123 
f 115//115 117//117 113//113 
f 116//116 107//107 124//124 
f 120//120 108//108 102//102 
f 120//120 107//107 108//108 
f 98//98 109//109 125//125 
f 98//98 125//125 121//121 
f 119//119 126//126 110//110 
f 110//110 126//126 114//114 
f 111//111 122//122 119//119 
f 127//127 106//106 114//114 
f 128//128 127//127 114//114 
f 127//127 115//115 106//106 
f 117//117 129//129 118//118 
f 107//107 120//120 124//124 
f 109//109 118//118 125//125 
f 121//121 130//130 103//103 
f 119//119 131//131 126//126 
f 114//114 126//126 128//128 
f 122//122 112//112 123//123 
f 127//127 132//132 115//115 
f 123//123 116//116 133//133 
f 132//132 129//129 117//117 
f 115//115 132//132 117//117 
f 116//116 124//124 133//133 
f 120//120 103//103 130//130 
f 134//134 128//128 126//126 
f 119//119 122//122 131//131 
f 135//135 122//122 123//123 
f 122//122 136//136 131//131 
f 122//122 135//135 136//136 
f 135//135 123//123 133//133 
f 129//129 137//137 118//118 
f 124//124 120//120 138//138 
f 125//125 118//118 137//137 
f 121//121 125//125 139//139 
f 131//131 134//134 126//126 
f 131//131 136//136 134//134 
f 135//135 140//140 136//136 
f 128//128 141//141 127//127 
f 127//127 141//141 132//132 
f 129//129 132//132 141//141 
f 125//125 137//137 139//139 
f 120//120 130//130 138//138 
f 130//130 121//121 139//139 
f 142//142 128//128 134//134 
f 142//142 141//141 128//128 
f 135//135 133//133 143//143 
f 143//143 133//133 144//144 
f 145//145 129//129 141//141 
f 133//133 124//124 144//144 
f 145//145 137//137 129//129 
f 124//124 138//138 144//144 
f 130//130 139//139 146//146 
f 134//134 136//136 140//140 
f 144//144 138//138 147//147 
f 148//148 137//137 145//145 
f 137//137 148//148 139//139 
f 146//146 147//147 130//130 
f 138//138 130//130 147//147 
f 142//142 134//134 149//149 
f 149//149 134//134 140//140 
f 140//140 143//143 149//149 
f 135//135 143//143 140//140 
f 142//142 145//145 141//141 
f 150//150 148//148 145//145 
f 146//146 139//139 148//148 
f 149//149 151//151 142//142 
f 145//145 142//142 151//151 
f 149//149 143//143 151//151 
f 143//143 144//144 151//151 
f 150//150 145//145 151//151 
f 151//151 144//144 152//152 
f 152//152 144//144 147//147 
f 148//148 150//150 152//152 
f 152//152 146//146 148//148 
f 147//147 146//146 152//152 
f 150//150 151//151 152//152 
