# wavefront obj file written by the visualization toolkit


v 11719.2 6528.95 4241.45
v 11579.8 6521.91 4231.41
v 11662.7 6556.82 4225.99
v 11501.2 6544.79 4230.19
v 11577.5 6577.22 4224.67
v 11474.4 6570.22 4246.24
v 11613.3 6605.89 4248.25
v 11774.9 6615.88 4252.26
v 11758.5 6649.1 4270.13
v 11477.6 6516.05 4251.1
v 11587.2 6497.81 4270.99
v 11741.8 6514.66 4269.72
v 11860.5 6558.52 4274.1
v 11446.6 6540.98 4266.69
v 11843.5 6586.31 4265.38
v 11880.2 6675.99 4294.79
v 11469.4 6515.07 4284.9
v 11679.7 6496.4 4296.71
v 11447.7 6562.68 4279.15
v 11550 6594.11 4281.71
v 12032.1 6656.81 4304.63
v 11698.8 6644.8 4292.09
v 11777.1 6664.06 4292.59
v 11450.8 6540.39 4296.92
v 11852.6 6552.44 4294.2
v 11941.7 6588.75 4307.95
v 12020.8 6609.82 4318.32
v 11591.1 6488.68 4306.17
v 11519.9 6500.32 4305.13
v 11809 6556.52 4320.14
v 11504.1 6564.27 4309.43
v 12220.9 6654.67 4354.25
v 12252.1 6696.44 4346.1
v 11654.8 6612.93 4325.2
v 11854.7 6682.88 4323.34
v 12146.4 6700.44 4327.66
v 12058.8 6697.57 4321.9
v 12076.3 6715.47 4345.05
v 12202.2 6713.35 4347.85
v 11482.2 6522.89 4315.13
v 11682.3 6523.57 4325.02
v 11989.8 6603.68 4352.25
v 12087.7 6612.04 4359.36
v 12190 6634.19 4372.64
v 12350.5 6692.16 4381.51
v 11766.6 6653.78 4324.05
v 11577.9 6515.73 4323.94
v 11485.7 6540.18 4317.31
v 12350.1 6717.8 4386.45
v 12259.3 6729.35 4377.5
v 11583.2 6552.16 4326.69
v 11673.9 6554.45 4335.96
v 11780 6586.95 4345.29
v 11941.4 6622.61 4367.48
v 11737.3 6607.54 4341.95
v 12196.2 6640.87 4399.36
v 12322.4 6674.26 4399.49
v 11847.7 6663.15 4346.05
v 12398.8 6706.1 4418.78
v 12411.3 6720.62 4412.08
v 12034.3 6705.43 4371.21
v 12256 6728.31 4401.07
v 12348.2 6724.73 4403.31
v 11901.6 6643.82 4366.92
v 12089.5 6641.07 4396.21
v 12387.2 6692.17 4420.89
v 12006.4 6683.26 4383.4
v 12086.9 6670.74 4404.63
v 12168.7 6706.7 4410.95
v 12370.7 6721.34 4419.34
v 12227.1 6673.61 4426.85
v 12326.2 6683.19 4421.8
v 12372.5 6708.67 4421.72
v 12296.9 6714.74 4426.03
v 12226.1 6692.55 4425.87
v 12290.1 6694.66 4423.04
v 12341 6722.15 6949.08
v 12367.4 6700.32 6944.66
v 12262.2 6695.97 6947.69
v 12314.6 6674.61 6956.65
v 12186 6667.11 6971.8
v 12342.2 6663.72 6969.95
v 12384 6695.55 6972.51
v 12151.8 6693.05 6968.05
v 12190.7 6713.47 6970.86
v 12394.2 6717 6970.41
v 12348.6 6734.24 6981.09
v 12226.9 6652.12 7001.43
v 12096.3 6642.45 7010.87
v 12071.7 6665.48 6992.86
v 12053.3 6693.91 7000.85
v 12198 6726.74 7002.61
v 11974 6623.47 7026.02
v 11912.7 6645.14 7019.91
v 12314.3 6668.11 6995.85
v 12389.9 6715.18 6988.05
v 12112.9 6714.37 7004.19
v 12361.2 6725.19 6993.75
v 11723.9 6598.92 7031.6
v 11808 6578.79 7037.3
v 11794.9 6642.22 7030.41
v 11891.1 6680.25 7035.31
v 12316.9 6690.14 7012.71
v 12025.4 6704.65 7029.15
v 11490.6 6513.74 7068.04
v 11639.6 6538.8 7052.24
v 11589.7 6498.43 7074.91
v 11752.1 6533.6 7071.46
v 11553.6 6569.15 7067.63
v 11672.2 6621.89 7054.93
v 11890.6 6579.96 7056.06
v 11987.8 6605.12 7056.2
v 12088.8 6634.32 7051.31
v 12203.2 6663.7 7035.27
v 11753.8 6656.68 7063.89
v 11884.4 6687.68 7062.05
v 12263.9 6724.67 7019.21
v 11516.1 6498.88 7100.82
v 11667.2 6507.37 7094.33
v 11446 6539.88 7091.65
v 11873.6 6560.6 7084.31
v 11566.3 6605.77 7100.63
v 11668.6 6631.17 7083.13
v 12301.5 6707.91 7018.14
v 11775.6 6661.31 7097.84
v 12069.2 6704.5 7049.5
v 11449 6526.49 7098.6
v 11763.6 6525.47 7103.13
v 11424 6538.3 7111.24
v 11474.8 6565.47 7109.63
v 11674.7 6631.13 7109.92
v 12193.6 6686.72 7050.55
v 12179.6 6703.32 7044.66
v 11445.6 6521.88 7118.32
v 11941.8 6593.41 7097.79
v 11495 6585.2 7130.55
v 12071 6648.31 7071.62
v 12020 6672.21 7077.8
v 11896.2 6670.23 7092.18
v 11682.5 6524.15 7130.13
v 11819.5 6551.51 7112.06
v 11468 6560.24 7141.47
v 11899.8 6647.66 7111.5
v 11531.6 6530.18 7140.46
v 11465.6 6540.52 7133.91
v 11800.5 6572.17 7134.99
v 11886.1 6624.01 7116.61
v 11592.3 6597.45 7140.53
v 11778.3 6635.05 7118.5
v 11614 6556.33 7156.9
v 11511.9 6553.3 7149.54
v 11580.4 6572.73 7152.5
v 11708.1 6590.91 7135.77
v 12396 6697.54 4390.86
vn 0.191534 -0.573578 -0.796444
vn -0.0111972 -0.572182 -0.82005
vn 0.0958247 -0.0670434 -0.993138
vn -0.278268 -0.100488 -0.955233
vn -0.0801737 0.405628 -0.910515
vn -0.458735 0.656794 -0.598485
vn -0.174815 0.821546 -0.54268
vn 0.0891329 0.362877 -0.927564
vn -0.10581 0.768769 -0.630713
vn -0.366705 -0.734422 -0.571096
vn -0.0281388 -0.946937 -0.320186
vn 0.256121 -0.952472 -0.164923
vn 0.371525 -0.769983 -0.518744
vn -0.890735 -0.19666 -0.409775
vn 0.263199 -0.151959 -0.952699
vn -0.00507389 0.744312 -0.667812
vn -0.538228 -0.837562 0.0938105
vn 0.197683 -0.952257 0.232653
vn -0.710406 0.677995 0.188802
vn -0.313472 0.939471 0.13831
vn 0.184056 0.0375901 -0.982197
vn -0.289899 0.956986 0.0116573
vn -0.16294 0.934264 -0.317178
vn -0.795428 -0.0232566 0.605602
vn 0.307345 -0.946666 0.0967625
vn 0.293041 -0.953884 -0.0650571
vn 0.31472 -0.720376 -0.61807
vn -0.00897022 -0.896895 0.442154
vn -0.224611 -0.899392 0.375026
vn 0.17499 -0.772508 0.610418
vn -0.330068 0.600249 0.72853
vn 0.305684 -0.632397 -0.71178
vn 0.257077 0.115781 -0.95943
vn -0.273523 0.63908 0.718861
vn -0.208602 0.967518 0.142809
vn 0.108452 0.462734 -0.879838
vn 0.0365329 0.639102 -0.768254
vn -0.065628 0.963695 -0.258815
vn 0.101884 0.722187 -0.684153
vn -0.353023 -0.419261 0.836418
vn 0.10366 -0.559334 0.822435
vn 0.0940893 -0.869779 0.484388
vn 0.177328 -0.983638 0.0318129
vn 0.270561 -0.94667 -0.174966
vn 0.476558 -0.414031 -0.775545
vn -0.278885 0.826882 0.488353
vn -0.0688099 -0.40156 0.913244
vn -0.325785 0.207832 0.922318
vn 0.354931 0.532248 -0.768593
vn 0.0659934 0.943893 -0.323589
vn -0.133586 0.0994068 0.986039
vn -0.0482322 -0.156811 0.98645
vn -0.0138932 -0.304859 0.952296
vn -0.0691053 -0.454852 0.887882
vn -0.152436 0.141468 0.978136
vn 0.120562 -0.856701 0.501525
vn 0.342029 -0.936823 -0.0733384
vn -0.244977 0.586966 0.771659
vn 0.607635 -0.444697 -0.658046
vn 0.67568 0.711026 0.194675
vn -0.199784 0.854064 0.480272
vn -0.0666864 0.942923 0.326267
vn 0.114826 0.989659 -0.0859645
vn -0.185615 0.0575908 0.980933
vn -0.0783082 -0.545284 0.834586
vn 0.53691 -0.594555 0.598525
vn -0.235206 0.438559 0.867378
vn -0.17851 -0.00986298 0.983889
vn -0.174765 0.557103 0.811846
vn 0.104858 0.765957 0.634282
vn -0.0189615 -0.29054 0.956675
vn 0.130706 -0.538044 0.832721
vn 0.305802 0.0353165 0.95144
vn -0.0232371 0.393285 0.919123
vn -0.0805963 0.127046 0.988617
vn 0.0481851 -0.0598047 0.997046
vn 0.062625 0.722012 -0.68904
vn 0.396264 -0.192265 -0.89778
vn -0.103628 -0.0215228 -0.994383
vn 0.119404 -0.690351 -0.713554
vn -0.0862911 -0.630262 -0.771572
vn 0.32624 -0.930358 -0.167335
vn 0.745262 -0.666496 0.0191521
vn -0.231189 0.0732923 -0.970144
vn -0.183452 0.702112 -0.688029
vn 0.787179 0.57518 -0.222524
vn 0.160638 0.986185 0.0404309
vn 0.108072 -0.991531 -0.0720218
vn 0.0551955 -0.868253 -0.493042
vn -0.158475 -0.334676 -0.928912
vn -0.254677 0.523336 -0.813178
vn -0.0952491 0.992295 -0.0792404
vn 0.0607753 -0.647546 -0.759599
vn -0.101856 0.000212252 -0.994799
vn 0.338178 -0.776661 0.531445
vn 0.667616 0.0669382 0.741491
vn -0.200656 0.879517 -0.431494
vn 0.348971 0.726017 0.592554
vn -0.143624 0.0533738 -0.988192
vn 0.0691905 -0.507962 -0.858596
vn -0.196646 0.501763 -0.842356
vn -0.207903 0.736826 -0.643323
vn 0.379246 -0.399633 0.834546
vn -0.166223 0.963495 -0.209873
vn -0.314753 -0.485133 -0.815829
vn -0.0288411 -0.360829 -0.932186
vn 0.0436152 -0.8706 -0.490055
vn 0.184822 -0.837073 -0.514927
vn -0.300246 0.421737 -0.855564
vn -0.307126 0.693737 -0.651462
vn 0.203825 -0.808336 -0.552312
vn 0.26062 -0.93622 -0.235733
vn 0.282843 -0.912667 0.295025
vn 0.269479 -0.672571 0.689224
vn -0.27481 0.926704 -0.25632
vn -0.14271 0.984533 0.10163
vn 0.0861003 0.788569 0.608889
vn -0.132308 -0.980699 0.143959
vn 0.139589 -0.98884 0.0520577
vn -0.615382 0.232108 -0.75328
vn 0.323747 -0.945589 -0.0324034
vn -0.321396 0.929245 -0.182233
vn -0.287592 0.946344 -0.147393
vn 0.25882 0.272607 0.926659
vn -0.146073 0.878613 0.454645
vn -0.0177761 0.856552 0.515754
vn -0.597826 -0.702528 -0.386081
vn 0.249561 -0.954427 0.163672
vn -0.982634 0.0346097 0.182296
vn -0.532396 0.796697 -0.286056
vn -0.214985 0.916286 0.337936
vn 0.232083 -0.018965 0.972511
vn 0.112374 0.509559 0.853066
vn -0.448574 -0.76661 0.459447
vn 0.361751 -0.67433 0.643751
vn -0.4174 0.879313 0.229316
vn 0.278723 -0.29974 0.912397
vn 0.139492 0.378139 0.915179
vn 0.00616159 0.723659 0.69013
vn 0.124006 -0.744878 0.655575
vn 0.293384 -0.756296 0.584758
vn -0.449109 0.447764 0.773181
vn 0.0889222 0.41486 0.905529
vn -0.0760586 -0.607448 0.79071
vn -0.364087 -0.311415 0.877759
vn 0.197704 -0.229654 0.952981
vn 0.16988 0.0933321 0.981035
vn -0.110705 0.692157 0.713206
vn -0.0171293 0.521431 0.853122
vn 0.0398129 -0.128462 0.990915
vn -0.148946 -0.128464 0.980465
vn -0.0452308 0.3272 0.943872
vn 0.0639723 0.310327 0.948475
vn 0.740426 -0.0368233 0.671129

g grp1
usemtl mtl1
f 1//1 2//2 3//3 
f 3//3 2//2 4//4 
f 5//5 4//4 6//6 
f 3//3 4//4 5//5 
f 5//5 6//6 7//7 
f 3//3 5//5 8//8 
f 8//8 5//5 7//7 
f 8//8 7//7 9//9 
f 10//10 2//2 11//11 
f 2//2 1//1 11//11 
f 2//2 10//10 4//4 
f 12//12 1//1 13//13 
f 4//4 14//14 6//6 
f 10//10 14//14 4//4 
f 1//1 15//15 13//13 
f 15//15 1//1 3//3 
f 15//15 3//3 8//8 
f 16//16 8//8 9//9 
f 17//17 10//10 11//11 
f 11//11 12//12 18//18 
f 10//10 17//17 14//14 
f 12//12 11//11 1//1 
f 6//6 14//14 19//19 
f 6//6 19//19 20//20 
f 7//7 6//6 20//20 
f 21//21 15//15 8//8 
f 22//22 7//7 20//20 
f 9//9 7//7 22//22 
f 21//21 8//8 16//16 
f 16//16 9//9 23//23 
f 14//14 17//17 24//24 
f 13//13 25//25 12//12 
f 13//13 26//26 25//25 
f 24//24 19//19 14//14 
f 26//26 13//13 27//27 
f 13//13 15//15 27//27 
f 15//15 21//21 27//27 
f 23//23 9//9 22//22 
f 11//11 28//28 29//29 
f 18//18 28//28 11//11 
f 29//29 17//17 11//11 
f 12//12 30//30 18//18 
f 12//12 25//25 30//30 
f 24//24 31//31 19//19 
f 19//19 31//31 20//20 
f 21//21 32//32 27//27 
f 33//33 32//32 21//21 
f 20//20 34//34 22//22 
f 23//23 22//22 35//35 
f 33//33 21//21 36//36 
f 35//35 16//16 23//23 
f 16//16 37//37 21//21 
f 36//36 21//21 37//37 
f 38//38 16//16 35//35 
f 37//37 16//16 38//38 
f 39//39 36//36 37//37 
f 29//29 40//40 17//17 
f 18//18 41//41 28//28 
f 18//18 30//30 41//41 
f 25//25 42//42 30//30 
f 26//26 42//42 25//25 
f 26//26 43//43 42//42 
f 27//27 43//43 26//26 
f 43//43 27//27 44//44 
f 31//31 34//34 20//20 
f 27//27 32//32 44//44 
f 32//32 33//33 45//45 
f 46//46 22//22 34//34 
f 35//35 22//22 46//46 
f 33//33 36//36 39//39 
f 39//39 37//37 38//38 
f 47//47 40//40 29//29 
f 28//28 47//47 29//29 
f 41//41 47//47 28//28 
f 17//17 40//40 24//24 
f 40//40 48//48 24//24 
f 48//48 31//31 24//24 
f 45//45 33//33 49//49 
f 49//49 33//33 39//39 
f 39//39 38//38 50//50 
f 49//49 39//39 50//50 
f 40//40 47//47 51//51 
f 51//51 48//48 40//40 
f 52//52 51//51 47//47 
f 41//41 52//52 47//47 
f 41//41 53//53 52//52 
f 31//31 48//48 51//51 
f 41//41 30//30 53//53 
f 53//53 30//30 54//54 
f 30//30 42//42 54//54 
f 51//51 55//55 34//34 
f 56//56 42//42 43//43 
f 43//43 44//44 56//56 
f 34//34 31//31 51//51 
f 32//32 57//57 44//44 
f 55//55 58//58 34//34 
f 45//45 57//57 32//32 
f 58//58 46//46 34//34 
f 45//45 59//59 57//57 
f 35//35 46//46 58//58 
f 59//59 45//45 49//49 
f 59//59 49//49 60//60 
f 35//35 58//58 61//61 
f 35//35 61//61 38//38 
f 38//38 61//61 62//62 
f 50//50 38//38 62//62 
f 63//63 49//49 50//50 
f 52//52 55//55 51//51 
f 52//52 53//53 55//55 
f 53//53 64//64 55//55 
f 65//65 54//54 42//42 
f 56//56 65//65 42//42 
f 64//64 58//58 55//55 
f 54//54 64//64 53//53 
f 59//59 66//66 57//57 
f 58//58 67//67 61//61 
f 49//49 63//63 60//60 
f 63//63 50//50 62//62 
f 44//44 57//57 56//56 
f 54//54 68//68 64//64 
f 67//67 64//64 68//68 
f 64//64 67//67 58//58 
f 69//69 61//61 67//67 
f 61//61 69//69 62//62 
f 70//70 60//60 63//63 
f 65//65 56//56 71//71 
f 68//68 54//54 65//65 
f 57//57 72//72 56//56 
f 57//57 66//66 72//72 
f 73//73 66//66 154//154 
f 69//69 67//67 68//68 
f 73//73 154//154 60//60 
f 70//70 73//73 60//60 
f 62//62 69//69 74//74 
f 62//62 74//74 70//70 
f 63//63 62//62 70//70 
f 71//71 68//68 65//65 
f 56//56 72//72 71//71 
f 75//75 69//69 68//68 
f 71//71 75//75 68//68 
f 72//72 66//66 73//73 
f 75//75 74//74 69//69 
f 74//74 73//73 70//70 
f 72//72 76//76 71//71 
f 72//72 73//73 76//76 
f 76//76 75//75 71//71 
f 76//76 73//73 74//74 
f 74//74 75//75 76//76 
f 77//77 78//78 79//79 
f 80//80 81//81 79//79 
f 78//78 80//80 79//79 
f 82//82 80//80 83//83 
f 83//83 80//80 78//78 
f 79//79 81//81 84//84 
f 79//79 84//84 85//85 
f 85//85 77//77 79//79 
f 83//83 78//78 86//86 
f 86//86 78//78 77//77 
f 86//86 77//77 87//87 
f 81//81 80//80 88//88 
f 89//89 81//81 88//88 
f 88//88 80//80 82//82 
f 81//81 90//90 84//84 
f 84//84 90//90 91//91 
f 84//84 91//91 85//85 
f 77//77 85//85 92//92 
f 92//92 87//87 77//77 
f 93//93 94//94 90//90 
f 89//89 93//93 90//90 
f 81//81 89//89 90//90 
f 91//91 90//90 94//94 
f 82//82 83//83 95//95 
f 86//86 96//96 83//83 
f 85//85 91//91 97//97 
f 85//85 97//97 92//92 
f 87//87 98//98 86//86 
f 99//99 94//94 100//100 
f 100//100 94//94 93//93 
f 82//82 95//95 88//88 
f 94//94 99//99 101//101 
f 94//94 101//101 102//102 
f 83//83 103//103 95//95 
f 94//94 102//102 91//91 
f 83//83 96//96 103//103 
f 97//97 104//104 92//92 
f 96//96 86//86 98//98 
f 105//105 106//106 107//107 
f 100//100 108//108 106//106 
f 100//100 106//106 99//99 
f 106//106 105//105 109//109 
f 99//99 106//106 109//109 
f 110//110 99//99 109//109 
f 111//111 93//93 112//112 
f 93//93 89//89 112//112 
f 89//89 113//113 112//112 
f 89//89 88//88 113//113 
f 111//111 100//100 93//93 
f 88//88 95//95 114//114 
f 101//101 99//99 110//110 
f 110//110 115//115 101//101 
f 102//102 101//101 115//115 
f 104//104 102//102 116//116 
f 91//91 102//102 104//104 
f 97//97 91//91 104//104 
f 87//87 92//92 117//117 
f 98//98 87//87 117//117 
f 118//118 105//105 107//107 
f 107//107 108//108 119//119 
f 108//108 107//107 106//106 
f 111//111 108//108 100//100 
f 105//105 120//120 109//109 
f 111//111 112//112 121//121 
f 122//122 110//110 109//109 
f 88//88 114//114 113//113 
f 123//123 110//110 122//122 
f 110//110 123//123 115//115 
f 114//114 95//95 103//103 
f 103//103 96//96 124//124 
f 115//115 125//125 116//116 
f 115//115 116//116 102//102 
f 96//96 98//98 124//124 
f 92//92 104//104 126//126 
f 92//92 126//126 117//117 
f 98//98 117//117 124//124 
f 118//118 107//107 119//119 
f 105//105 118//118 127//127 
f 108//108 128//128 119//119 
f 127//127 120//120 105//105 
f 129//129 120//120 127//127 
f 108//108 111//111 121//121 
f 120//120 129//129 130//130 
f 120//120 130//130 109//109 
f 109//109 130//130 122//122 
f 115//115 123//123 131//131 
f 103//103 132//132 114//114 
f 115//115 131//131 125//125 
f 103//103 124//124 132//132 
f 124//124 133//133 132//132 
f 126//126 133//133 117//117 
f 124//124 117//117 133//133 
f 134//134 127//127 118//118 
f 108//108 121//121 128//128 
f 112//112 135//135 121//121 
f 113//113 135//135 112//112 
f 122//122 130//130 136//136 
f 113//113 137//137 135//135 
f 137//137 113//113 114//114 
f 132//132 137//137 114//114 
f 123//123 122//122 131//131 
f 133//133 138//138 132//132 
f 116//116 125//125 139//139 
f 104//104 116//116 126//126 
f 133//133 126//126 138//138 
f 128//128 140//140 119//119 
f 134//134 129//129 127//127 
f 128//128 121//121 141//141 
f 141//141 121//121 135//135 
f 130//130 129//129 142//142 
f 139//139 143//143 138//138 
f 132//132 138//138 137//137 
f 126//126 139//139 138//138 
f 126//126 116//116 139//139 
f 118//118 119//119 140//140 
f 118//118 144//144 134//134 
f 140//140 144//144 118//118 
f 134//134 144//144 145//145 
f 128//128 141//141 140//140 
f 134//134 145//145 129//129 
f 145//145 142//142 129//129 
f 135//135 146//146 141//141 
f 135//135 147//147 146//146 
f 135//135 137//137 147//147 
f 130//130 142//142 136//136 
f 122//122 136//136 148//148 
f 122//122 148//148 131//131 
f 131//131 149//149 125//125 
f 125//125 149//149 139//139 
f 147//147 138//138 143//143 
f 137//137 138//138 147//147 
f 143//143 139//139 149//149 
f 141//141 146//146 140//140 
f 136//136 142//142 148//148 
f 148//148 149//149 131//131 
f 143//143 149//149 147//147 
f 144//144 140//140 150//150 
f 144//144 151//151 145//145 
f 150//150 151//151 144//144 
f 140//140 146//146 150//150 
f 151//151 142//142 145//145 
f 152//152 142//142 151//151 
f 146//146 153//153 150//150 
f 148//148 142//142 152//152 
f 148//148 153//153 149//149 
f 147//147 149//149 153//153 
f 146//146 147//147 153//153 
f 150//150 152//152 151//151 
f 153//153 152//152 150//150 
f 153//153 148//148 152//152 
