# wavefront obj file written by the visualization toolkit


v 5230.19 6447.59 4915.76
v 5179.47 6461.07 4909.27
v 5203.86 6496.55 4904.3
v 5240.4 6511.38 4914.81
v 5132.61 6506.46 4927.14
v 5188.85 6542.15 4919.21
v 5225.88 6559.05 4932.45
v 5151.17 6408.73 4947.86
v 5192.86 6378.04 4971.66
v 5104.95 6450.45 4952.55
v 5260.33 6471.31 4936.73
v 5253.53 6523.86 4950.21
v 5113.86 6558.98 4950.39
v 5228.68 6569.41 4956.1
v 5161.4 6583.58 4958.9
v 5240.01 6410.42 4968.9
v 5071.2 6528.26 4964.72
v 5031.31 6478.15 4997.7
v 5198.67 6583.31 4969.55
v 5087.36 6337.84 5033.28
v 5043.82 6406.29 5014.27
v 5205.02 6362.3 4994.48
v 5261.19 6467.54 4977.53
v 5000.01 6534.74 5042.8
v 5077.87 6584.58 5023.72
v 5162.61 6327.29 5042.93
v 5220.87 6388.45 5052.65
v 5251.59 6514.31 5002.56
v 5202.43 6563.46 5013.39
v 5144.46 6588.41 5016.68
v 5092.68 6282.04 5099.3
v 5201.37 6360.31 5025.8
v 4970.52 6330.06 5112.24
v 4943.85 6402.71 5097.29
v 5231.84 6453.36 5049.52
v 4943.58 6468.15 5084.58
v 5188.39 6468.8 5114.15
v 5175.11 6324.69 5100.48
v 5170.61 6334.69 5163.16
v 5189.15 6392.13 5130.54
v 4912.42 6489.46 5123.38
v 4924.11 6526.26 5140.34
v 5132.25 6532.53 5144.85
v 4995.29 6567.17 5118.91
v 5074.55 6589.07 5074.74
v 5102.07 6576.14 5093.8
v 5020.24 6267.55 5140.14
v 5115.88 6260.94 5161.75
v 4876.6 6415.41 5179.94
v 5035.06 6573.53 5143.65
v 5047.71 6223.77 5191.37
v 4897.14 6329.37 5199.85
v 5118.01 6434.68 5237.95
v 4991.74 6201.87 5242.07
v 4947.5 6255.08 5221.99
v 5050.42 6542.51 5196.91
v 5130.98 6278.07 5223.56
v 4876.98 6475.53 5206.36
v 4925.52 6528.18 5191.89
v 5024.05 6179.47 5276.36
v 5066.1 6201.35 5268.19
v 5129.41 6344.15 5251.31
v 4840.63 6400.19 5258.04
v 4965.61 6528.39 5235.35
v 4945.6 6200.04 5306.08
v 5094.13 6226.3 5276.18
v 4851.76 6336.57 5279.68
v 4890.41 6487.7 5261.58
v 5068.11 6468.6 5270.05
v 4847.85 6427 5285.56
v 4898.22 6257.75 5312.59
v 4839.71 6361.58 5324.73
v 5053.45 6378.18 5346.5
v 5006.9 6477.47 5304.42
v 4991.7 6177.02 5341.48
v 5056.86 6190.92 5349.79
v 5034.09 6183.97 5328.55
v 4845.61 6392.66 5349
v 4871.79 6443.49 5329.87
v 4908.49 6475.79 5315.22
v 5080.98 6251.81 5334.67
v 4862.38 6302.33 5348.83
v 5074.12 6310.42 5344.07
v 5027.94 6439.12 5328.34
v 4940.01 6445.55 5354.88
v 4940.55 6206.33 5372.31
v 4887.69 6427.32 5362.74
v 5020.12 6184 5372.34
v 4865.37 6392.81 5374.73
v 4998.36 6422.66 5353.93
v 4987.39 6197.02 5397.85
v 5026.27 6215.49 5389.52
v 4899.86 6261.73 5390.21
v 4871.87 6342.37 5379.34
v 4945.91 6234.15 5412.9
v 4907.53 6370.61 5402.14
v 5017.35 6293.77 5395.2
v 4974.64 6372.58 5384.45
v 4967.76 6255.56 5416.9
v 4921.28 6296.13 5407.71
v 4956.48 6316.48 5400.6
v 4977.92 6235.77 5941.14
v 4928.59 6296.19 5942.04
v 4982.23 6314.06 5957.22
v 5027.83 6237.29 5971.15
v 5007.42 6205.6 5968.3
v 4918.92 6253.23 5960.16
v 4881.32 6323.59 5971.39
v 4916.75 6362.34 5970.03
v 4970.41 6420.98 6010.23
v 4911.42 6218.14 5988.93
v 4978.55 6194.11 5994.72
v 5047.8 6314.1 5997.43
v 4869.75 6277.49 6000.91
v 5021.04 6384.87 6012.35
v 4866.68 6391.63 6008.11
v 4935.32 6192.53 6021.39
v 5035.07 6202.81 6009.53
v 5081.4 6269.69 6048.23
v 4847.49 6353.94 6033.43
v 4912.9 6442.85 6029.35
v 4879.32 6464.19 6065.74
v 4978.37 6175.56 6066.4
v 5030.09 6187.21 6065.51
v 4887.97 6235.81 6034.82
v 5106.96 6377.61 6100.19
v 5069.15 6414.21 6074.92
v 4852.07 6429.07 6086.78
v 5058.09 6492.85 6133.16
v 4930.27 6206.36 6082.17
v 5080.09 6226.78 6093.03
v 4850.18 6312.82 6069.81
v 4921.58 6506.39 6090.81
v 4973.06 6502.51 6102.95
v 4889.02 6276.03 6120.58
v 5145.29 6352.43 6158.59
v 5124.41 6286.59 6143.78
v 5071.57 6209.06 6133.81
v 4845.89 6385.02 6119.44
v 5140.86 6479.65 6200.14
v 4916.13 6527.59 6142.25
v 4998.28 6208.08 6160.58
v 4869.56 6344.79 6157.45
v 4878.03 6490.53 6144.16
v 4967.49 6544.12 6155.45
v 5038.11 6203.14 6140.62
v 4961.1 6264.81 6198.49
v 5114.63 6256.24 6177.23
v 5183.86 6439.3 6231.78
v 4862.15 6444.18 6157.73
v 5086.11 6234.45 6192.97
v 4923.94 6539.89 6204.79
v 5052.94 6561.08 6222.11
v 4922.41 6328.55 6220.71
v 5167.98 6326.64 6233.19
v 4891.11 6408.9 6212
v 5204.22 6398.82 6264.77
v 4907.61 6493.21 6226.34
v 4993.59 6566.43 6239.76
v 5077.84 6247.31 6233.34
v 5155.87 6555.09 6294.94
v 5072.48 6293.34 6296.94
v 5144.78 6292.25 6265.09
v 5010.56 6330.47 6296.8
v 5211.36 6516.14 6314.69
v 5198.05 6338.89 6306.81
v 5244.21 6459.43 6342.67
v 4959.16 6475.19 6314.68
v 4978.05 6555.48 6282.44
v 5229.07 6391.6 6335.81
v 4982.65 6525.42 6321.13
v 5060.02 6590.76 6336.63
v 5095.74 6583.93 6319.49
v 5145.89 6309.56 6322.27
v 5090.51 6377.14 6383.97
v 5209.12 6363.83 6363.59
v 5003.69 6408.45 6328.7
v 5263.28 6444.98 6383.35
v 5030.92 6525.04 6384.06
v 5059.12 6563.57 6373.85
v 5213.02 6559.06 6361.22
v 5117.19 6587.1 6382.07
v 5050.32 6486.83 6398.98
v 5181.92 6568.14 6388.72
v 5176.66 6378.27 6397.15
v 5256.41 6441.06 6413.7
v 5263.3 6481.13 6406.9
v 5232.86 6523.09 6395.72
v 5093.87 6446.14 6416.87
v 5228.43 6409.36 6412.9
v 5243.86 6495.12 6450.85
v 5088.03 6535.69 6421.11
v 5208.64 6539.47 6439.83
v 5144.7 6547.93 6425.49
v 5220.5 6443.71 6442.63
v 5159.05 6441.86 6438.15
v 5140.67 6496.08 6443.48
v 5198.52 6480.87 6454.42
v 5190.57 6512.03 6440.7
vn 0.335347 -0.428513 -0.838999
vn -0.240722 -0.260378 -0.935017
vn -0.00352169 0.0757393 -0.997121
vn 0.538191 0.220037 -0.813593
vn -0.420793 0.0687064 -0.904551
vn -0.0759957 0.44739 -0.891105
vn 0.409908 0.693916 -0.591993
vn -0.257146 -0.549214 -0.795135
vn 0.145776 -0.741168 -0.655301
vn -0.501523 -0.271729 -0.821363
vn 0.908029 -0.133363 -0.397112
vn 0.917829 0.383785 -0.101483
vn -0.423244 0.556956 -0.714608
vn 0.682151 0.731211 -0.000694039
vn -0.0767082 0.885081 -0.459073
vn 0.780851 -0.570108 -0.255439
vn -0.603087 0.210411 -0.769424
vn -0.640965 -0.0835985 -0.763004
vn 0.295003 0.953934 -0.0546172
vn -0.243629 -0.685676 -0.685925
vn -0.527123 -0.394695 -0.752568
vn 0.531831 -0.78069 -0.328145
vn 0.985943 -0.0992986 0.134373
vn -0.667535 0.481306 -0.568104
vn -0.331108 0.900656 -0.2814
vn 0.330469 -0.862176 -0.383983
vn 0.912564 -0.354354 0.204106
vn 0.877609 0.316705 0.359861
vn 0.604787 0.694565 0.389631
vn 0.150555 0.982514 0.109538
vn 0.040443 -0.83852 -0.543368
vn 0.73661 -0.675796 -0.0265512
vn -0.557036 -0.525825 -0.642821
vn -0.695604 -0.269334 -0.666029
vn 0.900317 -0.00576651 0.435196
vn -0.746311 0.00939936 -0.665531
vn 0.8012 0.275434 0.531239
vn 0.768054 -0.640359 -0.00582599
vn 0.913044 -0.263838 0.31103
vn 0.898473 -0.0127611 0.438843
vn -0.828784 0.246803 -0.5022
vn -0.702615 0.665325 -0.25234
vn 0.593186 0.609313 0.526182
vn -0.401321 0.91514 -0.0382004
vn -0.0342625 0.994104 0.102875
vn 0.319699 0.871485 0.371895
vn -0.335492 -0.72557 -0.600827
vn 0.557677 -0.802755 -0.211141
vn -0.860533 -0.105657 -0.498317
vn 0.00649994 0.946651 0.322197
vn 0.0968996 -0.87839 -0.468019
vn -0.740772 -0.464807 -0.484986
vn 0.751517 0.330802 0.570782
vn -0.348258 -0.833276 -0.429381
vn -0.619211 -0.624263 -0.476312
vn 0.291613 0.802165 0.52105
vn 0.886035 -0.409319 0.217714
vn -0.875448 0.455849 -0.160597
vn -0.543995 0.831444 0.113009
vn 0.111014 -0.969485 -0.218575
vn 0.495442 -0.856446 -0.145043
vn 0.869242 0.045115 0.492325
vn -0.976978 0.0450206 -0.208537
vn -0.132359 0.895629 0.424652
vn -0.598423 -0.773184 -0.209945
vn 0.822672 -0.558101 0.108324
vn -0.883231 -0.388449 -0.262699
vn -0.613524 0.758686 0.219055
vn 0.55407 0.561423 0.614662
vn -0.907102 0.41085 0.0914829
vn -0.778267 -0.607802 -0.157725
vn -0.983024 -0.100109 0.153757
vn 0.607891 0.324005 0.724907
vn 0.266887 0.714931 0.646255
vn -0.185221 -0.980866 0.0599583
vn 0.662001 -0.677743 0.320029
vn 0.293825 -0.955181 0.0360111
vn -0.888508 0.214896 0.40543
vn -0.651115 0.634064 0.417148
vn -0.294601 0.808057 0.510151
vn 0.83366 -0.140586 0.534085
vn -0.893407 -0.408843 0.186205
vn 0.750608 0.0927932 0.654199
vn 0.454723 0.538425 0.709454
vn 0.0732768 0.65151 0.755093
vn -0.593084 -0.758614 0.269733
vn -0.315588 0.624762 0.714196
vn 0.269044 -0.858812 0.435956
vn -0.610458 0.331729 0.719234
vn 0.319099 0.49522 0.808043
vn -0.0273409 -0.68327 0.729654
vn 0.525354 -0.263282 0.809126
vn -0.742 -0.423899 0.51937
vn -0.731209 -0.0962768 0.675325
vn -0.366427 -0.391437 0.844102
vn -0.135404 0.271453 0.952879
vn 0.471761 0.138672 0.870754
vn 0.26579 0.335098 0.903916
vn 0.132356 -0.0152188 0.991085
vn -0.292413 0.010263 0.956237
vn 0.147044 0.207475 0.967126
vn 0.0476249 -0.343335 -0.938005
vn -0.219377 0.0855454 -0.971883
vn 0.334646 0.299481 -0.893489
vn 0.675508 -0.145304 -0.722894
vn 0.349887 -0.692411 -0.630988
vn -0.494564 -0.422404 -0.759593
vn -0.675257 0.044668 -0.736228
vn -0.153297 0.454345 -0.877537
vn 0.220181 0.605299 -0.76494
vn -0.572719 -0.674159 -0.466371
vn -0.0640603 -0.89018 -0.451083
vn 0.693233 0.210371 -0.689327
vn -0.865029 -0.326166 -0.381235
vn 0.493711 0.470667 -0.731247
vn -0.659269 0.417313 -0.625472
vn -0.468419 -0.876505 -0.11101
vn 0.633763 -0.687149 -0.355206
vn 0.87155 -0.179034 -0.45645
vn -0.965328 0.0237181 -0.25996
vn -0.130013 0.66176 -0.738356
vn -0.615957 0.650033 -0.445033
vn -0.103964 -0.989993 0.0954203
vn 0.380241 -0.921155 -0.0830054
vn -0.791223 -0.609704 0.0471999
vn 0.798688 0.19451 -0.569442
vn 0.641751 0.430429 -0.634733
vn -0.937173 0.322597 -0.13281
vn 0.449643 0.650085 -0.612544
vn -0.58159 -0.748126 0.31947
vn 0.791226 -0.572416 -0.215178
vn -0.938776 -0.324954 0.114474
vn -0.134904 0.803892 -0.579274
vn 0.220435 0.747398 -0.626741
vn -0.742804 -0.539464 0.39651
vn 0.890312 -0.0937363 -0.4456
vn 0.888783 -0.357166 -0.287224
vn 0.541633 -0.836845 0.0795269
vn -0.976904 -0.0249561 0.212215
vn 0.666305 0.460787 -0.58627
vn -0.457285 0.856518 -0.239304
vn -0.228311 -0.847039 0.479999
vn -0.847159 -0.299134 0.439137
vn -0.840668 0.540998 0.0244759
vn 0.00501532 0.91089 -0.412619
vn 0.177137 -0.941439 0.286906
vn -0.522948 -0.634549 0.569098
vn 0.776306 -0.629052 -0.0405345
vn 0.828091 0.177117 -0.531879
vn -0.935672 0.203313 0.288413
vn 0.449823 -0.855239 0.257344
vn -0.646641 0.75095 0.133901
vn 0.224692 0.874954 -0.428915
vn -0.679372 -0.402301 0.613683
vn 0.867439 -0.427613 -0.254356
vn -0.82373 -0.10262 0.557618
vn 0.901906 -0.137609 -0.409426
vn -0.837249 0.330943 0.435306
vn -0.201599 0.971277 -0.126408
vn 0.177255 -0.884935 0.430663
vn 0.443941 0.78362 -0.434576
vn -0.209305 -0.729414 0.651266
vn 0.600289 -0.786808 0.143481
vn -0.508187 -0.514847 0.690419
vn 0.786305 0.415107 -0.457614
vn 0.780382 -0.623991 -0.0404817
vn 0.903846 0.14723 -0.401729
vn -0.762776 0.00819688 0.646611
vn -0.621405 0.702538 0.346837
vn 0.90137 -0.396257 -0.174677
vn -0.728309 0.443461 0.522407
vn -0.274031 0.947824 0.1629
vn 0.176799 0.964016 -0.198533
vn 0.246844 -0.833127 0.494942
vn -0.35792 -0.511098 0.781455
vn 0.601473 -0.731577 0.320974
vn -0.630757 -0.30279 0.714468
vn 0.974875 -0.17803 -0.133879
vn -0.657446 0.297523 0.692275
vn -0.477984 0.661312 0.578099
vn 0.654889 0.735217 -0.174859
vn -0.0280904 0.926266 0.375823
vn -0.563605 -0.110334 0.818643
vn 0.340284 0.924437 0.172111
vn 0.0609188 -0.686783 0.724305
vn 0.816837 -0.421276 0.394086
vn 0.970822 0.236356 0.0405123
vn 0.814356 0.580091 0.0178652
vn -0.454636 -0.264052 0.850637
vn 0.436969 -0.651544 0.62012
vn 0.557957 0.212778 0.802128
vn -0.404898 0.351911 0.843929
vn 0.29415 0.666628 0.684896
vn -0.107459 0.601003 0.79199
vn 0.244528 -0.437333 0.865417
vn -0.17867 -0.372058 0.910851
vn -0.252628 0.0809883 0.964168
vn -0.0326882 0.00795274 0.999434
vn -0.0651616 0.307477 0.949322

g grp1
usemtl mtl1
f 1//1 2//2 3//3 
f 4//4 1//1 3//3 
f 2//2 5//5 3//3 
f 5//5 6//6 3//3 
f 7//7 4//4 6//6 
f 6//6 4//4 3//3 
f 8//8 1//1 9//9 
f 8//8 10//10 2//2 
f 1//1 8//8 2//2 
f 2//2 10//10 5//5 
f 1//1 4//4 11//11 
f 12//12 11//11 4//4 
f 4//4 7//7 12//12 
f 5//5 13//13 6//6 
f 12//12 7//7 14//14 
f 13//13 15//15 6//6 
f 7//7 6//6 15//15 
f 9//9 1//1 16//16 
f 16//16 1//1 11//11 
f 17//17 5//5 18//18 
f 10//10 18//18 5//5 
f 5//5 17//17 13//13 
f 19//19 7//7 15//15 
f 14//14 7//7 19//19 
f 20//20 8//8 9//9 
f 20//20 21//21 8//8 
f 9//9 16//16 22//22 
f 8//8 21//21 10//10 
f 10//10 21//21 18//18 
f 16//16 11//11 23//23 
f 23//23 11//11 12//12 
f 17//17 24//24 13//13 
f 13//13 24//24 25//25 
f 13//13 25//25 15//15 
f 20//20 9//9 26//26 
f 26//26 9//9 22//22 
f 23//23 27//27 16//16 
f 23//23 12//12 28//28 
f 17//17 18//18 24//24 
f 12//12 29//29 28//28 
f 29//29 12//12 14//14 
f 14//14 19//19 29//29 
f 15//15 25//25 30//30 
f 15//15 30//30 19//19 
f 31//31 20//20 26//26 
f 32//32 22//22 16//16 
f 27//27 32//32 16//16 
f 19//19 30//30 29//29 
f 26//26 22//22 32//32 
f 33//33 21//21 20//20 
f 21//21 34//34 18//18 
f 35//35 27//27 23//23 
f 23//23 28//28 35//35 
f 34//34 36//36 18//18 
f 36//36 24//24 18//18 
f 37//37 35//35 28//28 
f 28//28 29//29 37//37 
f 38//38 26//26 32//32 
f 38//38 32//32 27//27 
f 39//39 38//38 27//27 
f 33//33 34//34 21//21 
f 27//27 35//35 40//40 
f 24//24 36//36 41//41 
f 24//24 41//41 42//42 
f 29//29 43//43 37//37 
f 24//24 44//44 25//25 
f 30//30 25//25 45//45 
f 46//46 29//29 30//30 
f 20//20 31//31 47//47 
f 26//26 48//48 31//31 
f 20//20 47//47 33//33 
f 40//40 39//39 27//27 
f 24//24 42//42 44//44 
f 43//43 29//29 46//46 
f 25//25 44//44 45//45 
f 30//30 45//45 46//46 
f 48//48 26//26 38//38 
f 36//36 34//34 49//49 
f 41//41 36//36 49//49 
f 44//44 50//50 45//45 
f 47//47 31//31 51//51 
f 51//51 31//31 48//48 
f 49//49 34//34 52//52 
f 52//52 34//34 33//33 
f 35//35 37//37 40//40 
f 37//37 43//43 53//53 
f 45//45 50//50 46//46 
f 54//54 55//55 47//47 
f 47//47 55//55 33//33 
f 55//55 52//52 33//33 
f 46//46 50//50 56//56 
f 54//54 47//47 51//51 
f 57//57 48//48 38//38 
f 38//38 39//39 57//57 
f 58//58 41//41 49//49 
f 58//58 42//42 41//41 
f 59//59 42//42 58//58 
f 42//42 59//59 44//44 
f 43//43 46//46 56//56 
f 54//54 51//51 60//60 
f 60//60 51//51 61//61 
f 61//61 51//51 48//48 
f 40//40 62//62 39//39 
f 37//37 62//62 40//40 
f 37//37 53//53 62//62 
f 58//58 49//49 63//63 
f 44//44 59//59 64//64 
f 44//44 64//64 50//50 
f 50//50 64//64 56//56 
f 54//54 65//65 55//55 
f 66//66 61//61 48//48 
f 48//48 57//57 66//66 
f 62//62 57//57 39//39 
f 52//52 67//67 49//49 
f 67//67 63//63 49//49 
f 58//58 68//68 59//59 
f 43//43 69//69 53//53 
f 58//58 70//70 68//68 
f 69//69 43//43 56//56 
f 59//59 68//68 64//64 
f 52//52 55//55 71//71 
f 71//71 55//55 65//65 
f 67//67 72//72 63//63 
f 72//72 70//70 63//63 
f 70//70 58//58 63//63 
f 53//53 73//73 62//62 
f 53//53 69//69 73//73 
f 69//69 56//56 74//74 
f 74//74 56//56 64//64 
f 54//54 75//75 65//65 
f 75//75 54//54 60//60 
f 76//76 77//77 61//61 
f 61//61 66//66 76//76 
f 52//52 71//71 67//67 
f 78//78 79//79 70//70 
f 70//70 79//79 68//68 
f 80//80 68//68 79//79 
f 68//68 80//80 64//64 
f 75//75 60//60 77//77 
f 60//60 61//61 77//77 
f 66//66 81//81 76//76 
f 66//66 57//57 81//81 
f 67//67 71//71 82//82 
f 67//67 82//82 72//72 
f 73//73 83//83 62//62 
f 73//73 69//69 84//84 
f 69//69 74//74 84//84 
f 80//80 85//85 64//64 
f 64//64 85//85 74//74 
f 65//65 75//75 86//86 
f 71//71 65//65 86//86 
f 81//81 57//57 62//62 
f 72//72 78//78 70//70 
f 80//80 79//79 87//87 
f 76//76 88//88 77//77 
f 81//81 62//62 83//83 
f 89//89 79//79 78//78 
f 79//79 89//89 87//87 
f 80//80 87//87 85//85 
f 85//85 90//90 74//74 
f 84//84 74//74 90//90 
f 75//75 91//91 86//86 
f 88//88 91//91 75//75 
f 77//77 88//88 75//75 
f 92//92 88//88 76//76 
f 71//71 86//86 93//93 
f 81//81 92//92 76//76 
f 71//71 93//93 82//82 
f 82//82 94//94 72//72 
f 72//72 94//94 78//78 
f 94//94 89//89 78//78 
f 95//95 86//86 91//91 
f 86//86 95//95 93//93 
f 82//82 93//93 94//94 
f 73//73 84//84 90//90 
f 89//89 96//96 87//87 
f 96//96 85//85 87//87 
f 88//88 92//92 91//91 
f 97//97 92//92 81//81 
f 81//81 83//83 97//97 
f 83//83 73//73 97//97 
f 94//94 96//96 89//89 
f 97//97 73//73 98//98 
f 73//73 90//90 98//98 
f 98//98 85//85 96//96 
f 90//90 85//85 98//98 
f 95//95 91//91 99//99 
f 99//99 91//91 92//92 
f 95//95 100//100 93//93 
f 92//92 97//97 99//99 
f 93//93 100//100 94//94 
f 96//96 94//94 100//100 
f 101//101 96//96 100//100 
f 101//101 98//98 96//96 
f 99//99 100//100 95//95 
f 99//99 101//101 100//100 
f 97//97 98//98 101//101 
f 99//99 97//97 101//101 
f 102//102 103//103 104//104 
f 105//105 106//106 102//102 
f 102//102 107//107 103//103 
f 102//102 104//104 105//105 
f 103//103 107//107 108//108 
f 104//104 103//103 109//109 
f 108//108 109//109 103//103 
f 110//110 104//104 109//109 
f 111//111 107//107 112//112 
f 102//102 112//112 107//107 
f 106//106 112//112 102//102 
f 105//105 104//104 113//113 
f 108//108 107//107 114//114 
f 104//104 115//115 113//113 
f 110//110 115//115 104//104 
f 109//109 108//108 116//116 
f 117//117 111//111 112//112 
f 118//118 112//112 106//106 
f 106//106 105//105 118//118 
f 118//118 105//105 119//119 
f 114//114 107//107 111//111 
f 119//119 105//105 113//113 
f 114//114 120//120 108//108 
f 116//116 108//108 120//120 
f 116//116 121//121 109//109 
f 121//121 116//116 122//122 
f 110//110 109//109 121//121 
f 112//112 123//123 117//117 
f 118//118 124//124 112//112 
f 112//112 124//124 123//123 
f 111//111 117//117 125//125 
f 111//111 125//125 114//114 
f 126//126 119//119 113//113 
f 113//113 127//127 126//126 
f 113//113 115//115 127//127 
f 128//128 116//116 120//120 
f 129//129 127//127 115//115 
f 116//116 128//128 122//122 
f 125//125 117//117 130//130 
f 118//118 119//119 131//131 
f 114//114 125//125 132//132 
f 120//120 114//114 132//132 
f 115//115 110//110 129//129 
f 133//133 121//121 122//122 
f 121//121 134//134 110//110 
f 110//110 134//134 129//129 
f 134//134 121//121 133//133 
f 130//130 117//117 123//123 
f 124//124 118//118 131//131 
f 125//125 135//135 132//132 
f 119//119 126//126 136//136 
f 119//119 136//136 137//137 
f 138//138 124//124 131//131 
f 125//125 130//130 135//135 
f 119//119 137//137 131//131 
f 132//132 139//139 120//120 
f 120//120 139//139 128//128 
f 126//126 127//127 140//140 
f 133//133 122//122 141//141 
f 130//130 123//123 142//142 
f 132//132 135//135 143//143 
f 129//129 140//140 127//127 
f 122//122 128//128 144//144 
f 122//122 144//144 141//141 
f 145//145 133//133 141//141 
f 134//134 133//133 145//145 
f 123//123 146//146 142//142 
f 124//124 146//146 123//123 
f 124//124 138//138 146//146 
f 142//142 147//147 130//130 
f 135//135 130//130 147//147 
f 148//148 138//138 131//131 
f 143//143 139//139 132//132 
f 136//136 126//126 149//149 
f 150//150 128//128 139//139 
f 128//128 150//150 144//144 
f 138//138 151//151 146//146 
f 126//126 140//140 149//149 
f 141//141 144//144 152//152 
f 134//134 153//153 129//129 
f 134//134 145//145 153//153 
f 138//138 148//148 151//151 
f 148//148 131//131 137//137 
f 147//147 154//154 135//135 
f 137//137 136//136 155//155 
f 156//156 139//139 143//143 
f 136//136 149//149 157//157 
f 150//150 158//158 144//144 
f 144//144 158//158 152//152 
f 141//141 152//152 159//159 
f 145//145 141//141 159//159 
f 142//142 146//146 160//160 
f 148//148 137//137 155//155 
f 135//135 154//154 143//143 
f 136//136 157//157 155//155 
f 139//139 156//156 150//150 
f 129//129 161//161 140//140 
f 161//161 129//129 153//153 
f 145//145 159//159 153//153 
f 162//162 147//147 142//142 
f 142//142 160//160 162//162 
f 146//146 151//151 160//160 
f 163//163 151//151 148//148 
f 164//164 154//154 147//147 
f 156//156 158//158 150//150 
f 165//165 149//149 140//140 
f 151//151 163//163 160//160 
f 163//163 148//148 155//155 
f 166//166 163//163 155//155 
f 154//154 156//156 143//143 
f 157//157 149//149 167//167 
f 156//156 168//168 158//158 
f 169//169 152//152 158//158 
f 165//165 140//140 161//161 
f 169//169 159//159 152//152 
f 162//162 164//164 147//147 
f 155//155 157//157 170//170 
f 158//158 171//171 169//169 
f 159//159 169//169 172//172 
f 153//153 159//159 173//173 
f 160//160 174//174 162//162 
f 160//160 163//163 174//174 
f 166//166 155//155 170//170 
f 167//167 170//170 157//157 
f 158//158 168//168 171//171 
f 167//167 149//149 165//165 
f 161//161 153//153 173//173 
f 162//162 175//175 164//164 
f 176//176 163//163 166//166 
f 154//154 177//177 156//156 
f 156//156 177//177 168//168 
f 159//159 172//172 173//173 
f 163//163 176//176 174//174 
f 164//164 177//177 154//154 
f 170//170 167//167 178//178 
f 168//168 179//179 171//171 
f 171//171 180//180 169//169 
f 161//161 181//181 165//165 
f 169//169 180//180 172//172 
f 173//173 172//172 182//182 
f 164//164 175//175 177//177 
f 176//176 166//166 170//170 
f 183//183 179//179 168//168 
f 177//177 183//183 168//168 
f 181//181 161//161 184//184 
f 184//184 161//161 173//173 
f 174//174 185//185 162//162 
f 176//176 185//185 174//174 
f 170//170 186//186 176//176 
f 170//170 178//178 186//186 
f 178//178 167//167 187//187 
f 167//167 165//165 188//188 
f 167//167 188//188 187//187 
f 165//165 181//181 188//188 
f 181//181 184//184 188//188 
f 172//172 180//180 182//182 
f 185//185 175//175 162//162 
f 177//177 175//175 189//189 
f 177//177 189//189 183//183 
f 178//178 187//187 186//186 
f 179//179 180//180 171//171 
f 173//173 182//182 184//184 
f 176//176 190//190 185//185 
f 176//176 186//186 190//190 
f 186//186 187//187 191//191 
f 183//183 192//192 179//179 
f 180//180 179//179 192//192 
f 191//191 187//187 188//188 
f 188//188 184//184 193//193 
f 182//182 180//180 194//194 
f 184//184 182//182 194//194 
f 186//186 195//195 190//190 
f 188//188 193//193 191//191 
f 194//194 180//180 192//192 
f 194//194 193//193 184//184 
f 175//175 185//185 196//196 
f 189//189 175//175 196//196 
f 195//195 196//196 185//185 
f 190//190 195//195 185//185 
f 196//196 197//197 189//189 
f 186//186 191//191 195//195 
f 189//189 197//197 183//183 
f 183//183 197//197 192//192 
f 192//192 197//197 194//194 
f 195//195 198//198 196//196 
f 198//198 197//197 196//196 
f 195//195 191//191 198//198 
f 199//199 197//197 198//198 
f 199//199 198//198 191//191 
f 199//199 194//194 197//197 
f 191//191 193//193 199//199 
f 193//193 194//194 199//199 
