# wavefront obj file written by the visualization toolkit


v 10657.3 4343.69 4824.98
v 10691.8 4312.47 4848.4
v 10642.8 4305.44 4853.17
v 10613.4 4357.59 4853.98
v 10692.2 4390.57 4854.58
v 10712.4 4338.6 4866.23
v 10635.8 4423.32 4866.97
v 10614.6 4313.88 4868.24
v 10714.5 4375.09 4886.58
v 10662.2 4456.04 4889.73
v 10695.9 4429.84 4894.58
v 10624.7 4452.59 4896.34
v 10624.1 4301.79 4877.54
v 10696.1 4323.56 4891.53
v 10602.3 4344.57 4890.12
v 10612.8 4410.36 4904.41
v 10652.9 4309.64 4887.45
v 10620.5 4333.17 4912.79
v 10609.8 4377.96 4926
v 10698.5 4424.88 4916.66
v 10673.4 4451.21 4916.14
v 10687.1 4385.13 4927.01
v 10645 4438.88 4922.85
v 10652 4354.78 4926.3
v 10673.1 4424.2 4929.14
v 10624.1 4398.65 4937.87
v 10628.1 4376.34 4934.93
v 10649.3 4396.69 4927.62
v 10665.8 4369.56 6442.3
v 10621.8 4353.87 6460.79
v 10641.5 4428.58 6451.46
v 10670.9 4408.57 6443.79
v 10681.7 4413.52 6458.94
v 10663 4301.75 6484.99
v 10709.4 4373.39 6478.96
v 10609.2 4420.52 6481.26
v 10630.7 4460.84 6475.76
v 10660.9 4451.66 6484.24
v 10638.9 4297.69 6499.61
v 10620 4342.47 6513.8
v 10695.9 4324.59 6498.04
v 10702.2 4411.49 6500.54
v 10708.5 4353.1 6515.82
v 10640.1 4448.75 6509.68
v 10670.2 4300.09 6520.27
v 10641.7 4316.47 6533.31
v 10678.8 4433.37 6519.06
v 10695.5 4336.76 6534.19
v 10622.7 4393.11 6526.68
v 10635.7 4362.79 6543.22
v 10678.9 4396.62 6535.49
v 10652.1 4400.25 6539.71
v 10663.3 4419.25 6524.29
v 10661.3 4351.46 6530.96
vn -0.0729706 -0.0351432 -0.996715
vn 0.542145 -0.687993 -0.482435
vn -0.235449 -0.794439 -0.559848
vn -0.784954 0.0154931 -0.61936
vn 0.57512 0.337365 -0.745266
vn 0.944687 -0.214579 -0.248036
vn -0.411177 0.492133 -0.767293
vn -0.779823 -0.492416 -0.386527
vn 0.990328 0.0518214 0.128705
vn 0.139536 0.939273 -0.313521
vn 0.785268 0.588404 -0.192705
vn -0.635749 0.770647 -0.0438906
vn -0.479439 -0.858697 0.181045
vn 0.625012 -0.595143 0.505139
vn -0.966542 -0.227647 0.118213
vn -0.934244 0.342197 0.100445
vn 0.146528 -0.903221 0.403387
vn -0.386307 -0.569274 0.725737
vn -0.775414 -0.087272 0.625393
vn 0.765041 0.334947 0.550021
vn 0.357558 0.800348 0.481243
vn 0.463855 -0.130888 0.876189
vn -0.267577 0.601712 0.752559
vn 0.153239 -0.403243 0.902171
vn 0.169003 0.241567 0.955554
vn -0.357124 0.232998 0.90453
vn -0.102825 -0.209454 0.972397
vn 0.117778 0.0383227 0.9923
vn 0.332371 -0.231401 -0.914321
vn -0.676653 -0.315033 -0.665504
vn -0.157277 0.446977 -0.880611
vn 0.396642 0.308334 -0.864642
vn 0.672375 0.439837 -0.595361
vn 0.158044 -0.817336 -0.554061
vn 0.908721 -0.036591 -0.415797
vn -0.965096 0.249676 -0.0790672
vn -0.369091 0.894164 -0.253462
vn 0.45462 0.872383 -0.179638
vn -0.555435 -0.83156 0.000274021
vn -0.925188 -0.248391 0.28693
vn 0.792059 -0.578146 -0.195933
vn 0.885896 0.445555 0.129112
vn 0.944841 -0.0600407 0.321981
vn -0.2536 0.718107 0.648082
vn 0.280862 -0.80829 0.517478
vn -0.304759 -0.488115 0.817842
vn 0.393887 0.654716 0.645136
vn 0.543252 -0.325564 0.773877
vn -0.735837 0.217282 0.641352
vn -0.349934 -0.0757917 0.933703
vn 0.415767 0.230737 0.879715
vn -0.0264956 0.279887 0.959667
vn 0.0934754 0.494593 0.864083
vn 0.14433 -0.164264 0.9758

g grp1
usemtl mtl1
f 1//1 2//2 3//3 
f 1//1 3//3 4//4 
f 2//2 1//1 5//5 
f 5//5 6//6 2//2 
f 1//1 4//4 7//7 
f 5//5 1//1 7//7 
f 8//8 4//4 3//3 
f 9//9 6//6 5//5 
f 7//7 10//10 5//5 
f 5//5 10//10 11//11 
f 10//10 7//7 12//12 
f 13//13 8//8 3//3 
f 2//2 6//6 14//14 
f 4//4 8//8 15//15 
f 16//16 4//4 15//15 
f 4//4 16//16 7//7 
f 5//5 11//11 9//9 
f 12//12 7//7 16//16 
f 2//2 17//17 3//3 
f 17//17 2//2 14//14 
f 15//15 8//8 13//13 
f 17//17 13//13 3//3 
f 18//18 15//15 13//13 
f 14//14 6//6 9//9 
f 15//15 19//19 16//16 
f 9//9 11//11 20//20 
f 21//21 11//11 10//10 
f 13//13 17//17 18//18 
f 15//15 18//18 19//19 
f 22//22 14//14 9//9 
f 21//21 20//20 11//11 
f 12//12 23//23 10//10 
f 10//10 23//23 21//21 
f 17//17 24//24 18//18 
f 17//17 14//14 24//24 
f 22//22 24//24 14//14 
f 20//20 22//22 9//9 
f 25//25 22//22 20//20 
f 23//23 16//16 26//26 
f 25//25 20//20 21//21 
f 16//16 23//23 12//12 
f 23//23 25//25 21//21 
f 18//18 27//27 19//19 
f 19//19 26//26 16//16 
f 27//27 18//18 24//24 
f 24//24 22//22 28//28 
f 28//28 27//27 24//24 
f 27//27 26//26 19//19 
f 22//22 25//25 28//28 
f 28//28 23//23 26//26 
f 25//25 23//23 28//28 
f 27//27 28//28 26//26 
f 29//29 30//30 31//31 
f 32//32 33//33 29//29 
f 29//29 31//31 32//32 
f 29//29 34//34 30//30 
f 33//33 35//35 29//29 
f 30//30 36//36 31//31 
f 37//37 31//31 36//36 
f 32//32 31//31 33//33 
f 31//31 38//38 33//33 
f 39//39 40//40 30//30 
f 34//34 39//39 30//30 
f 41//41 34//34 29//29 
f 29//29 35//35 41//41 
f 36//36 30//30 40//40 
f 42//42 35//35 33//33 
f 37//37 38//38 31//31 
f 43//43 41//41 35//35 
f 35//35 42//42 43//43 
f 44//44 37//37 36//36 
f 38//38 42//42 33//33 
f 37//37 44//44 38//38 
f 45//45 39//39 34//34 
f 34//34 41//41 45//45 
f 39//39 46//46 40//40 
f 47//47 42//42 38//38 
f 48//48 45//45 41//41 
f 41//41 43//43 48//48 
f 49//49 44//44 36//36 
f 38//38 44//44 47//47 
f 45//45 46//46 39//39 
f 40//40 46//46 50//50 
f 43//43 51//51 48//48 
f 40//40 49//49 36//36 
f 49//49 40//40 50//50 
f 51//51 43//43 42//42 
f 44//44 49//49 52//52 
f 47//47 44//44 53//53 
f 51//51 42//42 47//47 
f 51//51 47//47 53//53 
f 44//44 52//52 53//53 
f 45//45 54//54 46//46 
f 54//54 50//50 46//46 
f 48//48 54//54 45//45 
f 54//54 48//48 51//51 
f 50//50 52//52 49//49 
f 51//51 53//53 52//52 
f 54//54 52//52 50//50 
f 51//51 52//52 54//54 
