# wavefront obj file written by the visualization toolkit


v 9021.8 3664.54 5667.86
v 8962.11 3703.84 5648.1
v 9011.46 3738.42 5664.29
v 8858.18 3748.82 5647.71
v 8858.35 3806 5645.15
v 8662.04 3925.63 5644.72
v 8723.33 3912.07 5639.88
v 8903.39 3831.8 5656.51
v 8763.55 3922 5651.69
v 8620.62 4028.73 5641.98
v 8514.4 4105.7 5638.73
v 8656.05 4043.43 5658.5
v 8433.12 4160.89 5644.59
v 8475.52 4201.96 5641.81
v 8547.28 4176.17 5666.97
v 8546.5 4150.76 5653.84
v 8408.78 4249.4 5640.97
v 8296.34 4320 5647.87
v 8323.56 4348.38 5644.72
v 8355.46 4363.13 5653.97
v 8451.63 4272.99 5663.89
v 8262.8 4403.07 5652.5
v 8275.97 4426.29 5658.35
v 8907.85 3703.66 5667.26
v 8747.36 3807.8 5676.06
v 9048.86 3697.14 5687.48
v 8955.64 3820.78 5688.08
v 9029.14 3756.87 5705.69
v 8527.52 4012.9 5678.23
v 8844.09 3892.25 5685.6
v 8724.52 3991.37 5691.2
v 8624.15 4095.53 5683.32
v 8349.87 4214.88 5675.33
v 8449.36 4295.03 5689.24
v 8254.48 4360.23 5675.48
v 8353.92 4397.6 5686.18
v 8236.32 4450.9 5683.49
v 8281.54 4442.66 5685.73
v 8979.94 3669.71 5693.32
v 9035.46 3679.19 5698.45
v 8870.3 3715.03 5701.74
v 8794.17 3764.29 5718.96
v 8664.38 3874.39 5712.3
v 8474.46 4051.82 5708.93
v 8416.43 4125.14 5700.81
v 8346.5 4204.27 5708.88
v 8546.67 4180.95 5696.43
v 8290.49 4285.54 5705.03
v 8239.78 4369.11 5711.23
v 8229.23 4420.55 5700.98
v 8225.24 4462.31 5707.39
v 8243.46 4466.07 5707.37
v 8977.11 3808.4 5725.43
v 8841.7 3893.77 5723.52
v 8557.51 3973 5714.4
v 8780.47 3942.45 5710.81
v 8614.93 4104.55 5708.44
v 8390.39 4358.93 5710.72
v 8309.77 4419.95 5712.65
v 9020.38 3688.47 5724.29
v 8937.31 3695.11 5726.61
v 8873.56 3721.29 5725.44
v 9037.64 3727.41 5713.72
v 9022.47 3763.28 5722.79
v 8613.89 3923.8 5732.71
v 8687.94 4026.42 5720.75
v 8522.35 4030.6 5737.09
v 8413.35 4142.33 5727.55
v 8541.51 4181.96 5714.67
v 8328.63 4244.63 5727.61
v 8235.96 4422.61 5722.9
v 8258.9 4438.9 5723.23
v 8860.31 3741.06 5740.06
v 8717.4 3853.6 5740.05
v 8281.63 4330.49 5727.78
v 8432.64 4282.76 5734.03
v 8944.01 3736.83 5745.59
v 8986.09 3761.12 5734.21
v 8857.71 3848.53 5747.85
v 8614.56 3957.61 5746.88
v 8596.78 4082.62 5741.67
v 8449.81 4133.13 5748.89
v 8359.08 4255.59 5743.91
v 8395.49 4280.13 5749.12
v 8330.64 4369.05 5734.65
v 8309.71 4350.14 5732.21
v 8835.57 3805.76 5754.82
v 8888.24 3795.11 5750.19
v 8815.46 3843.49 5754.95
v 8711.98 3921.28 5749.28
v 8552.81 4052.58 5746.62
v 8469.79 4160.75 5745.33
vn 0.315594 -0.732543 -0.603143
vn 0.00668208 -0.278687 -0.960359
vn 0.498959 0.267067 -0.824449
vn -0.279808 -0.432614 -0.85706
vn 0.0843797 0.0588097 -0.994697
vn -0.250961 -0.275586 -0.927939
vn 0.0642995 0.0531926 -0.996512
vn 0.38867 0.49353 -0.778052
vn 0.38779 0.444137 -0.807689
vn 0.180816 0.16392 -0.969761
vn -0.0338363 -0.0337161 -0.998859
vn 0.550124 0.501732 -0.667554
vn -0.327639 -0.28049 -0.902207
vn 0.262083 0.242184 -0.934162
vn 0.659783 0.596201 -0.457417
vn 0.411794 0.372694 -0.83158
vn 0.0274673 0.0597865 -0.997833
vn -0.482193 -0.27077 -0.833171
vn -0.00262893 0.0860581 -0.996287
vn 0.368324 0.442358 -0.817715
vn 0.550834 0.513771 -0.65774
vn -0.427605 0.0605819 -0.901933
vn 0.104345 0.51539 -0.850579
vn -0.370579 -0.801398 -0.469503
vn -0.575791 -0.721162 -0.385213
vn 0.977928 -0.0504927 -0.202749
vn 0.591654 0.745097 -0.307857
vn 0.840146 0.533544 -0.0973964
vn -0.64048 -0.632844 -0.43508
vn 0.566499 0.77559 -0.27846
vn 0.679787 0.703829 -0.206187
vn 0.726643 0.661957 -0.183859
vn -0.715029 -0.551559 -0.429553
vn 0.739693 0.662756 -0.116661
vn -0.834947 -0.318248 -0.448979
vn 0.6309 0.743882 -0.220464
vn -0.534951 0.510747 -0.673027
vn 0.395424 0.840468 -0.370478
vn -0.129478 -0.973379 0.189127
vn 0.631448 -0.67969 0.373224
vn -0.45927 -0.887282 0.0424431
vn -0.55328 -0.758618 0.344065
vn -0.650623 -0.748078 0.13065
vn -0.727505 -0.661327 0.182712
vn -0.758635 -0.647887 -0.0686726
vn -0.77477 -0.612339 0.157394
vn 0.744415 0.667131 0.0279742
vn -0.8366 -0.530037 0.138424
vn -0.89137 -0.353164 0.284139
vn -0.989824 -0.098669 -0.102531
vn -0.757923 0.522899 0.390038
vn 0.147006 0.973821 0.173383
vn 0.551808 0.655036 0.516174
vn 0.571197 0.764127 0.29974
vn -0.690535 -0.704668 0.163108
vn 0.647744 0.761208 -0.0314844
vn 0.72733 0.68229 0.0739671
vn 0.647177 0.657194 0.386339
vn 0.482279 0.693509 0.535212
vn 0.301829 -0.458241 0.836011
vn -0.200844 -0.742683 0.638814
vn -0.397067 -0.793273 0.461581
vn 0.794465 0.0163864 0.607089
vn 0.670373 0.35253 0.652934
vn -0.541086 -0.590142 0.599131
vn 0.669938 0.704294 0.234848
vn -0.473352 -0.435892 0.765465
vn -0.613962 -0.507002 0.604979
vn 0.684064 0.617601 0.388105
vn -0.622556 -0.420905 0.659745
vn -0.573358 -0.0177073 0.819114
vn 0.0157792 0.387663 0.921666
vn -0.270448 -0.504387 0.820032
vn -0.353964 -0.436045 0.82739
vn -0.498734 -0.242712 0.832079
vn 0.443428 0.44958 0.775402
vn 0.0620846 -0.181334 0.98146
vn 0.299185 0.11348 0.947423
vn 0.245025 0.301413 0.921473
vn -0.218576 -0.221925 0.950249
vn 0.310617 0.318783 0.895485
vn -0.237497 -0.194856 0.951644
vn -0.255723 -0.130248 0.957936
vn 0.0523303 0.118906 0.991526
vn 0.177713 0.312846 0.93303
vn -0.147509 0.0328241 0.988516
vn -0.07183 -0.123441 0.989749
vn 0.146898 0.0857638 0.985427
vn 0.0733883 0.0958707 0.992685
vn -0.0206904 0.00845528 0.99975
vn -0.0411424 -0.0331227 0.998604
vn 0.0233286 0.0192125 0.999543

g grp1
usemtl mtl1
f 1//1 2//2 3//3 
f 2//2 4//4 5//5 
f 3//3 2//2 5//5 
f 4//4 6//6 5//5 
f 5//5 6//6 7//7 
f 8//8 3//3 5//5 
f 9//9 5//5 7//7 
f 8//8 5//5 9//9 
f 7//7 6//6 10//10 
f 9//9 7//7 10//10 
f 6//6 11//11 10//10 
f 9//9 10//10 12//12 
f 6//6 13//13 11//11 
f 10//10 11//11 14//14 
f 15//15 12//12 16//16 
f 16//16 12//12 10//10 
f 10//10 14//14 16//16 
f 11//11 13//13 17//17 
f 11//11 17//17 14//14 
f 13//13 18//18 19//19 
f 17//17 13//13 19//19 
f 14//14 17//17 20//20 
f 21//21 14//14 20//20 
f 17//17 19//19 20//20 
f 18//18 22//22 19//19 
f 20//20 19//19 23//23 
f 23//23 19//19 22//22 
f 1//1 24//24 2//2 
f 4//4 24//24 25//25 
f 24//24 4//4 2//2 
f 3//3 26//26 1//1 
f 3//3 8//8 27//27 
f 27//27 28//28 3//3 
f 4//4 25//25 6//6 
f 25//25 29//29 6//6 
f 30//30 8//8 9//9 
f 27//27 8//8 30//30 
f 9//9 12//12 31//31 
f 9//9 31//31 30//30 
f 6//6 29//29 13//13 
f 31//31 12//12 32//32 
f 12//12 15//15 32//32 
f 13//13 29//29 33//33 
f 16//16 14//14 21//21 
f 21//21 15//15 16//16 
f 13//13 33//33 18//18 
f 34//34 15//15 21//21 
f 35//35 18//18 33//33 
f 18//18 35//35 22//22 
f 36//36 21//21 20//20 
f 37//37 22//22 35//35 
f 38//38 20//20 23//23 
f 23//23 22//22 37//37 
f 23//23 37//37 38//38 
f 1//1 39//39 24//24 
f 1//1 40//40 39//39 
f 41//41 25//25 24//24 
f 26//26 3//3 28//28 
f 41//41 42//42 25//25 
f 43//43 25//25 42//42 
f 25//25 43//43 29//29 
f 44//44 45//45 29//29 
f 45//45 33//33 29//29 
f 45//45 46//46 33//33 
f 47//47 32//32 15//15 
f 33//33 46//46 48//48 
f 47//47 15//15 34//34 
f 49//49 35//35 48//48 
f 35//35 33//33 48//48 
f 34//34 21//21 36//36 
f 35//35 49//49 50//50 
f 37//37 35//35 50//50 
f 51//51 37//37 50//50 
f 20//20 38//38 36//36 
f 38//38 37//37 52//52 
f 40//40 1//1 26//26 
f 39//39 41//41 24//24 
f 53//53 28//28 27//27 
f 27//27 54//54 53//53 
f 29//29 43//43 55//55 
f 27//27 30//30 54//54 
f 44//44 29//29 55//55 
f 30//30 56//56 54//54 
f 56//56 30//30 31//31 
f 57//57 31//31 32//32 
f 32//32 47//47 57//57 
f 36//36 58//58 34//34 
f 59//59 36//36 38//38 
f 52//52 37//37 51//51 
f 39//39 60//60 61//61 
f 40//40 60//60 39//39 
f 61//61 41//41 39//39 
f 62//62 41//41 61//61 
f 40//40 63//63 60//60 
f 63//63 40//40 26//26 
f 42//42 41//41 62//62 
f 26//26 28//28 63//63 
f 64//64 28//28 53//53 
f 43//43 65//65 55//55 
f 31//31 66//66 56//56 
f 67//67 44//44 55//55 
f 31//31 57//57 66//66 
f 44//44 67//67 68//68 
f 45//45 44//44 68//68 
f 45//45 68//68 46//46 
f 47//47 69//69 57//57 
f 46//46 70//70 48//48 
f 47//47 34//34 69//69 
f 69//69 34//34 58//58 
f 49//49 71//71 50//50 
f 51//51 50//50 71//71 
f 72//72 51//51 71//71 
f 58//58 36//36 59//59 
f 72//72 52//52 51//51 
f 52//52 59//59 38//38 
f 73//73 62//62 61//61 
f 62//62 73//73 42//42 
f 64//64 63//63 28//28 
f 42//42 74//74 43//43 
f 65//65 67//67 55//55 
f 56//56 66//66 54//54 
f 66//66 57//57 69//69 
f 46//46 68//68 70//70 
f 48//48 70//70 75//75 
f 48//48 75//75 49//49 
f 49//49 75//75 71//71 
f 69//69 58//58 76//76 
f 76//76 58//58 59//59 
f 59//59 52//52 72//72 
f 73//73 61//61 77//77 
f 60//60 77//77 61//61 
f 60//60 63//63 78//78 
f 73//73 74//74 42//42 
f 63//63 64//64 78//78 
f 78//78 53//53 79//79 
f 64//64 53//53 78//78 
f 43//43 74//74 65//65 
f 79//79 53//53 54//54 
f 80//80 65//65 74//74 
f 81//81 79//79 54//54 
f 67//67 65//65 80//80 
f 54//54 66//66 81//81 
f 68//68 67//67 82//82 
f 83//83 68//68 82//82 
f 66//66 69//69 81//81 
f 70//70 68//68 83//83 
f 69//69 76//76 81//81 
f 81//81 76//76 84//84 
f 75//75 70//70 83//83 
f 84//84 76//76 85//85 
f 86//86 71//71 75//75 
f 76//76 59//59 85//85 
f 86//86 72//72 71//71 
f 86//86 85//85 72//72 
f 59//59 72//72 85//85 
f 60//60 78//78 77//77 
f 73//73 77//77 87//87 
f 77//77 78//78 88//88 
f 88//88 87//87 77//77 
f 74//74 73//73 87//87 
f 88//88 89//89 87//87 
f 78//78 79//79 88//88 
f 74//74 90//90 80//80 
f 74//74 87//87 90//90 
f 88//88 79//79 89//89 
f 89//89 90//90 87//87 
f 89//89 79//79 90//90 
f 79//79 81//81 90//90 
f 90//90 91//91 80//80 
f 67//67 80//80 91//91 
f 67//67 91//91 82//82 
f 90//90 81//81 91//91 
f 91//91 92//92 82//82 
f 83//83 82//82 92//92 
f 81//81 92//92 91//91 
f 81//81 84//84 92//92 
f 92//92 84//84 83//83 
f 83//83 86//86 75//75 
f 84//84 86//86 83//83 
f 84//84 85//85 86//86 
