# wavefront obj file written by the visualization toolkit


v 7505.54 2158.49 5473.09
v 7398.79 2228.88 5470.48
v 7484.91 2242.3 5458.04
v 7585.5 2153.89 5468.72
v 7561.15 2211.44 5468.21
v 7471.12 2276.18 5460.93
v 7379.45 2285.29 5464.74
v 7366.76 2317.67 5465.68
v 7242.66 2315.03 5477.12
v 7244.44 2337.77 5483.44
v 7641.54 2093.02 5484.27
v 7600.94 2104.4 5485.75
v 7623.83 2131.1 5481.1
v 7322.67 2158.67 5501.25
v 7598.21 2175.28 5479.53
v 7256.55 2234.45 5487.67
v 7538.53 2228.23 5471.02
v 6977.12 2363.54 5465.89
v 6967.53 2327.51 5475.9
v 6871.34 2347.68 5485.7
v 7091.1 2332.55 5477.31
v 7082.68 2356.86 5478.72
v 6952.6 2371.53 5478.97
v 6887.93 2379.47 5494
v 6994.03 2374.43 5484.57
v 7636.72 2080.68 5492.55
v 7556.92 2093.23 5504.87
v 7644 2091.15 5485.24
v 7403.22 2109.25 5520.99
v 7622.09 2114.63 5499.23
v 7054.41 2257.13 5492.82
v 6890.92 2265.27 5500.35
v 6815.43 2297.18 5506.1
v 7459.25 2274.59 5474.18
v 6816.27 2344.01 5519.47
v 7352.03 2311 5482.8
v 7072.77 2363.79 5490.79
v 7484.23 2082.58 5533.01
v 7588.52 2079.07 5514.48
v 7625.1 2085.02 5494.96
v 7159.05 2124.12 5539.17
v 7141.54 2185.69 5509.88
v 6948.89 2184.73 5530.8
v 6829.15 2244.6 5521.05
v 6782.95 2276.49 5534.23
v 6764.95 2298.13 5563.14
v 7066.2 2346.94 5528.99
v 6852.25 2373.33 5530.41
v 6959.85 2369.28 5509.1
v 7322.19 2095.69 5552.61
v 7018.51 2128.46 5567.84
v 6810.27 2211.08 5551.42
v 7534 2210.94 5490.44
v 6761.86 2232.14 5572.75
v 7428.54 2253.46 5509.61
v 7274.89 2295.43 5519.23
v 7186.95 2269.3 5570.19
v 6797.8 2335.95 5562.98
v 6924.06 2351.85 5553.99
v 7596.97 2084.02 5516.59
v 7462.69 2087.34 5549.09
v 7174.61 2104.65 5580.18
v 7586.88 2109.37 5523.22
v 7524.44 2156.87 5528.57
v 6893.44 2157.1 5582.88
v 6794.12 2192.55 5586.82
v 6761.65 2296.98 5592.04
v 7531.3 2111 5538.99
v 7312.15 2096.29 5583.21
v 7438.38 2143.74 5569.09
v 6764.2 2205.54 5604.72
v 7353.19 2218 5551.31
v 6845.33 2330.58 5584.11
v 7364.39 2096.52 5588.4
v 7440.03 2108.74 5566.91
v 7052.78 2120.31 5601.56
v 6987.27 2134.79 5621.39
v 6853.14 2174.92 5617.38
v 7246.21 2191.7 5598.06
v 6760.77 2251.26 5597.93
v 7028.97 2281.37 5589.08
v 6785.65 2299.06 5606.95
v 7202.86 2109.11 5606.71
v 7341.34 2125.69 5593.52
v 6790.4 2223.05 5624.74
v 6774.32 2269.22 5610.98
v 7096.63 2122.64 5617.27
v 7268.68 2117.59 5610.87
v 7224.71 2148.53 5619.32
v 7083.18 2197.43 5627.04
v 6908.18 2250.19 5624.72
v 7106.71 2138.72 5623.2
v 6962.75 2153.67 5632.46
v 6891.61 2183.16 5636.96
v 6813.14 2252.34 5624.33
v 6961.19 2188.02 5633.62
v 6870.95 2217.55 5628.2
v 7059.4 2165.36 5734.98
v 6956.66 2156.32 5733.61
v 6898.71 2201.93 5729.32
v 6844.65 2184.81 5733.53
v 7000.78 2213.88 5740.5
v 6800.13 2221.73 5742.67
v 6871.94 2260.73 5750.82
v 6880.85 2152.6 5751.04
v 7034.87 2122.34 5757.1
v 6929.72 2130.24 5777.45
v 7151.98 2126.85 5755.2
v 7225.75 2141.89 5760.75
v 6798.11 2186.24 5760.19
v 7173.85 2188.94 5763.79
v 6758.35 2222.92 5774.5
v 7050.53 2247.27 5769.98
v 6787.2 2277.68 5774.26
v 7081.2 2108.32 5794.44
v 7254.52 2102.2 5787.75
v 7294.07 2122.5 5779.32
v 6824.08 2161.71 5783.41
v 7367.02 2148.12 5798.94
v 6778.46 2192.54 5779.66
v 6766.74 2294.04 5806.33
v 7016.85 2302.84 5801.58
v 6796.84 2343.95 5820.87
v 6861.75 2316 5798.04
v 7239.11 2093.01 5810.57
v 7410.32 2103.7 5815.09
v 6771.37 2200.78 5803.65
v 7239.6 2241.64 5813.17
v 6986.94 2353.41 5854.16
v 7181.79 2099.27 5820.17
v 7363.5 2089.51 5820.67
v 6933.06 2134.43 5799.93
v 7512.15 2107.49 5834.96
v 7457.98 2177.09 5840.96
v 6762.92 2262.56 5822.45
v 7200.05 2321.18 5862.88
v 6783.13 2327.12 5850.73
v 7322.13 2094.23 5833.82
v 7520.38 2082.98 5849.32
v 7600 2081.29 5861.38
v 7012.24 2131.07 5827.85
v 7587.64 2115.19 5862.43
v 6845.4 2169.73 5817.61
v 7409.48 2262.2 5875.9
v 6874.01 2368.98 5885.47
v 7458.61 2085.91 5853.01
v 7634.28 2084.91 5879.65
v 7619.88 2083.83 5872.15
v 6781.91 2223.97 5836.17
v 7558.4 2179.88 5879.69
v 6777.54 2282.64 5853.86
v 7564.23 2083.08 5871.45
v 7635.29 2099.16 5884.88
v 7228.33 2122.08 5850.44
v 7435.54 2099.07 5867.27
v 7620.09 2124.94 5891.45
v 7004.94 2178.05 5859.15
v 6871.25 2194.96 5848.53
v 7594.6 2189.43 5906.7
v 7517.79 2247.71 5908.72
v 7448.79 2293.29 5913.43
v 6794.06 2324.52 5879.33
v 7339.56 2320.09 5908.11
v 7181.67 2354.61 5902.4
v 6831.74 2354.58 5892.68
v 7029.73 2373.11 5900.26
v 7547.12 2110.4 5895.16
v 7619.13 2150.77 5909.2
v 7184.52 2195.28 5879.95
v 7382.88 2175.76 5896.35
v 6898.71 2267.79 5890.19
v 6824.78 2278.66 5871.85
v 7075.13 2266.05 5899.81
v 7548.29 2239.22 5915.34
v 7515.81 2261.39 5917.29
v 6899.16 2377.56 5905.37
v 7166.47 2365.79 5918.7
v 6967.02 2373.65 5906.27
v 7246.92 2255.93 5909.03
v 7560.67 2221.05 5921.33
v 6921.61 2342.76 5900.71
v 7269.4 2344.66 5919.5
v 7605.05 2147.04 5911.57
v 7516.94 2196.01 5922.95
v 7593.12 2182.52 5918.5
v 7401.03 2269.94 5925.49
v 7045.55 2312.36 5908.72
v 7211.39 2301.28 5918.11
v 7475.65 2275.54 5919.58
v 7377.71 2305.08 5914.53
v 7202.18 2363.12 5921.21
v 7050.19 2366.69 5905.49
v 7566.48 2194.12 5923.1
v 7509.88 2228.68 5926.35
v 7488.45 2249.52 5921.66
v 7271.17 2327.79 5917.99
v 7117.77 2338.32 5910.99
vn -0.122432 -0.37628 -0.918381
vn -0.123036 -0.201161 -0.971801
vn 0.0418046 0.0229244 -0.998863
vn 0.177575 -0.0513221 -0.982768
vn 0.559689 0.499394 -0.661327
vn 0.377508 0.697002 -0.609653
vn -0.0541829 0.0598531 -0.996736
vn 0.194979 0.857159 -0.47672
vn -0.018769 0.16711 -0.98576
vn 0.171146 0.984786 -0.0300915
vn 0.466083 -0.251628 -0.848204
vn -0.110391 -0.497387 -0.860477
vn 0.829525 0.395703 -0.394091
vn -0.116378 -0.387089 -0.914669
vn 0.731693 0.631899 0.255597
vn -0.0925774 -0.204447 -0.97449
vn 0.574932 0.79149 0.207358
vn -0.0268168 0.245745 -0.968964
vn -0.0652063 -0.216138 -0.974183
vn -0.291851 0.180841 -0.939212
vn 0.0409306 -0.0455361 -0.998124
vn 0.120544 0.658209 -0.743122
vn -0.0547933 0.698936 -0.713083
vn -0.209507 0.894075 -0.3959
vn 0.0830302 0.968006 -0.236791
vn 0.303392 -0.905143 -0.297773
vn -0.152746 -0.736682 -0.658762
vn 0.974553 -0.139456 0.175495
vn -0.125782 -0.66775 -0.733681
vn 0.649394 0.283043 0.705815
vn -0.0452013 -0.268111 -0.962327
vn -0.135895 -0.305743 -0.942366
vn -0.444761 -0.0826039 -0.891832
vn 0.402988 0.814884 0.416612
vn -0.660707 0.532517 -0.529048
vn 0.251746 0.815599 0.520982
vn 0.141706 0.988532 0.0521875
vn -0.0923328 -0.952486 -0.290251
vn 0.126276 -0.970668 0.204595
vn 0.571153 -0.49054 0.658146
vn -0.119194 -0.7109 -0.693119
vn -0.0901903 -0.366181 -0.926163
vn -0.166247 -0.56318 -0.809438
vn -0.323488 -0.422624 -0.846608
vn -0.677126 -0.133677 -0.723623
vn -0.923143 0.288021 -0.254659
vn 0.160955 0.789651 0.592069
vn -0.210533 0.944613 0.251757
vn 0.0866986 0.948608 0.304344
vn -0.0895211 -0.965841 -0.243181
vn -0.188233 -0.901655 -0.389342
vn -0.405677 -0.610443 -0.680284
vn 0.427477 0.570002 0.701685
vn -0.849209 -0.337482 -0.40614
vn 0.287751 0.582301 0.760346
vn 0.210396 0.672452 0.709607
vn 0.200276 0.568597 0.797864
vn -0.53517 0.807604 0.247726
vn 0.106552 0.778732 0.618243
vn 0.398228 -0.364724 0.84166
vn 0.121332 -0.815806 0.565455
vn -0.100996 -0.992848 -0.0636573
vn 0.405322 0.142115 0.90306
vn 0.351111 0.41233 0.840658
vn -0.285458 -0.931894 -0.223801
vn -0.475695 -0.843387 -0.249826
vn -0.792371 0.434567 0.428136
vn 0.291824 -0.0826756 0.952892
vn -0.0257606 -0.973353 0.227861
vn 0.286368 0.236642 0.928437
vn -0.759321 -0.562091 0.327849
vn 0.254358 0.509004 0.822324
vn -0.0152376 0.683351 0.729931
vn 0.160735 -0.558028 0.814106
vn 0.284711 -0.220444 0.932923
vn -0.142769 -0.974575 0.172686
vn -0.154503 -0.811301 0.563843
vn -0.314517 -0.780573 0.540171
vn 0.206341 0.396024 0.894756
vn -0.932007 0.000204804 0.362441
vn 0.141509 0.539932 0.829728
vn -0.240188 0.523164 0.817685
vn -0.0214966 -0.800777 0.598577
vn 0.238938 0.0571814 0.96935
vn -0.37076 -0.111471 0.922015
vn -0.524146 0.169792 0.834531
vn -0.0380174 -0.711128 0.702034
vn 0.11248 -0.284251 0.952129
vn 0.152043 0.0913214 0.984146
vn 0.104386 0.239486 0.965272
vn 0.0488457 0.330727 0.942461
vn 0.0275211 -0.288043 0.957222
vn -0.0727854 -0.414008 0.907359
vn -0.111882 -0.171545 0.978803
vn -0.115076 0.185252 0.97593
vn 0.0330823 0.0553544 0.997919
vn -0.0234053 0.131361 0.991058
vn 0.106384 0.0158907 -0.994198
vn -0.0421322 -0.43107 -0.901334
vn -0.0170113 0.115417 -0.993172
vn -0.2475 -0.37002 -0.895449
vn 0.124915 0.37841 -0.917171
vn -0.372851 0.0753163 -0.92483
vn 0.00678387 0.504776 -0.863224
vn -0.251328 -0.796575 -0.549821
vn -0.0692636 -0.837372 -0.542228
vn -0.206048 -0.971104 -0.120425
vn 0.0793528 -0.477884 -0.874831
vn 0.195016 -0.00970567 -0.980752
vn -0.528194 -0.609789 -0.590905
vn 0.206565 0.386309 -0.898942
vn -0.900724 -0.137448 -0.412074
vn 0.169308 0.531681 -0.82985
vn -0.39668 0.491845 -0.775069
vn -0.117592 -0.993061 -0.00112333
vn 0.0459555 -0.810937 -0.583326
vn 0.199441 -0.339574 -0.919191
vn -0.41772 -0.908448 0.0152759
vn 0.264315 0.177993 -0.947869
vn -0.694628 -0.693676 -0.19054
vn -0.881573 0.391307 -0.264022
vn 0.137679 0.647716 -0.749339
vn -0.358338 0.816383 -0.452894
vn 0.00979216 0.6813 -0.731939
vn -0.0520199 -0.997334 -0.0511697
vn 0.179151 -0.49326 -0.851234
vn -0.740255 -0.595212 0.312642
vn 0.225149 0.527467 -0.819199
vn 0.0792852 0.837825 -0.540151
vn -0.108675 -0.905256 0.410733
vn 0.0134917 -0.963563 -0.267142
vn -0.220134 -0.922728 0.316409
vn 0.250744 -0.100155 -0.962858
vn 0.288725 0.401622 -0.869102
vn -0.95486 -0.0407303 0.294251
vn 0.191398 0.709395 -0.678326
vn -0.81291 0.53367 0.23318
vn -0.0882796 -0.917578 0.38763
vn 0.0658479 -0.90262 -0.425371
vn 0.330129 -0.490309 -0.806605
vn -0.160153 -0.773625 0.613071
vn 0.436946 0.265252 -0.859488
vn -0.319339 -0.760071 0.565964
vn 0.265593 0.598087 -0.756143
vn -0.196421 0.978408 -0.0643133
vn -0.0750892 -0.968511 0.23738
vn 0.841809 -0.251674 -0.477512
vn 0.2621 -0.963864 0.047633
vn -0.540467 -0.434868 0.720268
vn 0.413599 0.472364 -0.778337
vn -0.743611 -0.126487 0.656539
vn -0.0206358 -0.875136 0.483437
vn 0.6114 -0.457076 0.645966
vn -0.108138 -0.601717 0.791355
vn -0.133368 -0.69722 0.704342
vn 0.818343 0.361257 -0.446999
vn -0.0956575 -0.463878 0.880719
vn -0.219818 -0.520623 0.825004
vn 0.729492 0.601968 -0.324771
vn 0.394164 0.649814 -0.649905
vn 0.340132 0.93786 -0.0687712
vn -0.53276 0.012622 0.846172
vn 0.266314 0.917262 -0.296154
vn 0.16617 0.898086 -0.407221
vn -0.466635 0.572579 0.674096
vn 0.0450022 0.998891 -0.0138235
vn -0.0560601 -0.506702 0.860297
vn 0.84074 0.281162 0.462713
vn -0.087362 -0.385266 0.918661
vn -0.125089 -0.364471 0.922775
vn -0.144446 -0.276405 0.950124
vn -0.292124 -0.286883 0.912339
vn -0.0652764 -0.302823 0.950809
vn 0.633705 0.765644 -0.110485
vn 0.491768 0.8529 0.175286
vn -0.131874 0.675797 0.725195
vn 0.0867404 0.958957 0.26996
vn 0.0257343 0.955944 0.292419
vn -0.07841 -0.292659 0.952997
vn 0.457062 0.458173 0.762346
vn -0.119997 -0.0332441 0.992218
vn 0.264087 0.877732 0.399806
vn 0.199863 -0.23642 0.950873
vn -0.0633653 -0.226479 0.971953
vn 0.404923 0.126451 0.905565
vn -0.00210252 0.0460314 0.998938
vn -0.0651768 -0.0935813 0.993476
vn -0.0557888 -0.0857549 0.994753
vn 0.197684 0.505756 0.839721
vn 0.190275 0.662471 0.724519
vn 0.0395178 0.408544 0.911883
vn -0.0203471 0.518601 0.854774
vn 0.115628 -0.016504 0.993155
vn 0.0786955 0.129818 0.98841
vn 0.115948 0.255551 0.959818
vn 0.0566679 0.182358 0.981598
vn -0.0585206 0.0413461 0.99743

g grp1
usemtl mtl1
f 1//1 2//2 3//3 
f 4//4 1//1 3//3 
f 5//5 4//4 3//3 
f 5//5 3//3 6//6 
f 3//3 2//2 7//7 
f 3//3 7//7 6//6 
f 6//6 7//7 8//8 
f 8//8 7//7 9//9 
f 8//8 9//9 10//10 
f 4//4 11//11 12//12 
f 4//4 12//12 1//1 
f 11//11 4//4 13//13 
f 1//1 14//14 2//2 
f 15//15 13//13 5//5 
f 5//5 13//13 4//4 
f 2//2 16//16 7//7 
f 7//7 16//16 9//9 
f 5//5 6//6 17//17 
f 18//18 19//19 20//20 
f 21//21 19//19 18//18 
f 22//22 21//21 18//18 
f 9//9 21//21 22//22 
f 23//23 18//18 20//20 
f 22//22 18//18 23//23 
f 22//22 10//10 9//9 
f 23//23 20//20 24//24 
f 22//22 23//23 25//25 
f 12//12 11//11 26//26 
f 27//27 12//12 26//26 
f 26//26 11//11 28//28 
f 14//14 1//1 29//29 
f 27//27 29//29 1//1 
f 12//12 27//27 1//1 
f 28//28 11//11 13//13 
f 13//13 15//15 30//30 
f 2//2 14//14 16//16 
f 5//5 17//17 15//15 
f 16//16 31//31 9//9 
f 31//31 32//32 19//19 
f 21//21 31//31 19//19 
f 9//9 31//31 21//21 
f 20//20 32//32 33//33 
f 19//19 32//32 20//20 
f 17//17 6//6 34//34 
f 20//20 33//33 35//35 
f 6//6 8//8 34//34 
f 8//8 36//36 34//34 
f 8//8 10//10 36//36 
f 20//20 35//35 24//24 
f 22//22 25//25 37//37 
f 37//37 10//10 22//22 
f 25//25 23//23 24//24 
f 38//38 27//27 39//39 
f 39//39 27//27 26//26 
f 26//26 28//28 40//40 
f 27//27 38//38 29//29 
f 41//41 14//14 29//29 
f 41//41 42//42 14//14 
f 28//28 13//13 30//30 
f 14//14 42//42 16//16 
f 43//43 44//44 32//32 
f 42//42 43//43 31//31 
f 31//31 43//43 32//32 
f 16//16 42//42 31//31 
f 33//33 44//44 45//45 
f 32//32 44//44 33//33 
f 35//35 33//33 45//45 
f 46//46 35//35 45//45 
f 37//37 47//47 10//10 
f 24//24 35//35 48//48 
f 25//25 49//49 37//37 
f 24//24 48//48 49//49 
f 25//25 24//24 49//49 
f 26//26 40//40 39//39 
f 41//41 29//29 50//50 
f 29//29 38//38 50//50 
f 40//40 28//28 30//30 
f 43//43 41//41 51//51 
f 42//42 41//41 43//43 
f 43//43 52//52 44//44 
f 30//30 15//15 53//53 
f 44//44 52//52 45//45 
f 45//45 52//52 54//54 
f 53//53 34//34 55//55 
f 53//53 17//17 34//34 
f 15//15 17//17 53//53 
f 36//36 56//56 55//55 
f 55//55 34//34 36//36 
f 47//47 57//57 56//56 
f 58//58 35//35 46//46 
f 56//56 10//10 47//47 
f 36//36 10//10 56//56 
f 35//35 58//58 48//48 
f 37//37 49//49 47//47 
f 49//49 59//59 47//47 
f 60//60 39//39 40//40 
f 39//39 61//61 38//38 
f 39//39 60//60 61//61 
f 62//62 41//41 50//50 
f 30//30 63//63 60//60 
f 60//60 40//40 30//30 
f 41//41 62//62 51//51 
f 30//30 64//64 63//63 
f 52//52 65//65 66//66 
f 43//43 65//65 52//52 
f 51//51 65//65 43//43 
f 30//30 53//53 64//64 
f 52//52 66//66 54//54 
f 64//64 53//53 55//55 
f 45//45 54//54 46//46 
f 46//46 67//67 58//58 
f 49//49 48//48 59//59 
f 50//50 38//38 61//61 
f 61//61 60//60 68//68 
f 50//50 69//69 62//62 
f 60//60 63//63 68//68 
f 63//63 64//64 68//68 
f 64//64 70//70 68//68 
f 54//54 66//66 71//71 
f 64//64 55//55 72//72 
f 57//57 72//72 56//56 
f 55//55 56//56 72//72 
f 58//58 73//73 48//48 
f 48//48 73//73 59//59 
f 69//69 50//50 61//61 
f 61//61 74//74 69//69 
f 61//61 68//68 75//75 
f 65//65 76//76 77//77 
f 51//51 76//76 65//65 
f 62//62 76//76 51//51 
f 68//68 70//70 75//75 
f 66//66 78//78 71//71 
f 78//78 66//66 65//65 
f 70//70 64//64 72//72 
f 79//79 72//72 57//57 
f 80//80 46//46 54//54 
f 67//67 46//46 80//80 
f 81//81 47//47 59//59 
f 82//82 58//58 67//67 
f 58//58 82//82 73//73 
f 62//62 83//83 76//76 
f 69//69 83//83 62//62 
f 74//74 83//83 69//69 
f 74//74 61//61 75//75 
f 74//74 75//75 84//84 
f 65//65 77//77 78//78 
f 70//70 84//84 75//75 
f 70//70 79//79 84//84 
f 85//85 71//71 78//78 
f 70//70 72//72 79//79 
f 71//71 85//85 80//80 
f 71//71 80//80 54//54 
f 57//57 81//81 79//79 
f 80//80 86//86 67//67 
f 57//57 47//47 81//81 
f 67//67 86//86 82//82 
f 59//59 73//73 81//81 
f 76//76 83//83 87//87 
f 83//83 74//74 88//88 
f 76//76 87//87 77//77 
f 84//84 88//88 74//74 
f 84//84 89//89 88//88 
f 79//79 89//89 84//84 
f 89//89 79//79 90//90 
f 73//73 91//91 81//81 
f 73//73 82//82 91//91 
f 87//87 83//83 92//92 
f 92//92 83//83 88//88 
f 78//78 77//77 93//93 
f 92//92 93//93 77//77 
f 87//87 92//92 77//77 
f 88//88 89//89 92//92 
f 93//93 94//94 78//78 
f 85//85 78//78 94//94 
f 89//89 90//90 92//92 
f 80//80 85//85 86//86 
f 91//91 90//90 81//81 
f 95//95 86//86 85//85 
f 90//90 79//79 81//81 
f 86//86 95//95 82//82 
f 91//91 82//82 95//95 
f 93//93 92//92 96//96 
f 94//94 93//93 96//96 
f 96//96 97//97 94//94 
f 92//92 90//90 96//96 
f 85//85 94//94 97//97 
f 90//90 91//91 96//96 
f 96//96 91//91 97//97 
f 97//97 95//95 85//85 
f 91//91 95//95 97//97 
f 98//98 99//99 100//100 
f 99//99 101//101 100//100 
f 102//102 98//98 100//100 
f 100//100 101//101 103//103 
f 104//104 100//100 103//103 
f 102//102 100//100 104//104 
f 105//105 106//106 107//107 
f 108//108 106//106 99//99 
f 98//98 108//108 99//99 
f 109//109 108//108 98//98 
f 106//106 105//105 99//99 
f 105//105 110//110 101//101 
f 99//99 105//105 101//101 
f 109//109 98//98 111//111 
f 101//101 110//110 103//103 
f 102//102 111//111 98//98 
f 112//112 103//103 110//110 
f 111//111 102//102 113//113 
f 114//114 103//103 112//112 
f 104//104 113//113 102//102 
f 104//104 103//103 114//114 
f 115//115 106//106 116//116 
f 106//106 108//108 116//116 
f 108//108 117//117 116//116 
f 109//109 117//117 108//108 
f 118//118 105//105 107//107 
f 119//119 117//117 109//109 
f 120//120 110//110 118//118 
f 118//118 110//110 105//105 
f 111//111 119//119 109//109 
f 110//110 120//120 112//112 
f 114//114 112//112 121//121 
f 104//104 122//122 113//113 
f 114//114 121//121 123//123 
f 114//114 124//124 104//104 
f 124//124 122//122 104//104 
f 124//124 114//114 123//123 
f 116//116 125//125 115//115 
f 117//117 126//126 116//116 
f 106//106 115//115 107//107 
f 119//119 126//126 117//117 
f 112//112 120//120 127//127 
f 119//119 111//111 128//128 
f 122//122 124//124 129//129 
f 115//115 125//125 130//130 
f 125//125 116//116 131//131 
f 126//126 131//131 116//116 
f 107//107 115//115 132//132 
f 107//107 132//132 118//118 
f 133//133 126//126 119//119 
f 120//120 118//118 127//127 
f 133//133 119//119 134//134 
f 134//134 119//119 128//128 
f 127//127 135//135 112//112 
f 112//112 135//135 121//121 
f 111//111 113//113 128//128 
f 122//122 128//128 113//113 
f 136//136 128//128 122//122 
f 137//137 123//123 121//121 
f 123//123 129//129 124//124 
f 125//125 131//131 138//138 
f 125//125 138//138 130//130 
f 126//126 139//139 131//131 
f 139//139 126//126 133//133 
f 140//140 139//139 133//133 
f 115//115 141//141 132//132 
f 130//130 141//141 115//115 
f 142//142 140//140 133//133 
f 118//118 143//143 127//127 
f 133//133 134//134 142//142 
f 134//134 128//128 144//144 
f 137//137 121//121 135//135 
f 122//122 129//129 136//136 
f 123//123 145//145 129//129 
f 138//138 131//131 146//146 
f 146//146 131//131 139//139 
f 140//140 147//147 148//148 
f 142//142 147//147 140//140 
f 118//118 132//132 143//143 
f 141//141 143//143 132//132 
f 143//143 149//149 127//127 
f 134//134 150//150 142//142 
f 135//135 127//127 149//149 
f 144//144 150//150 134//134 
f 135//135 151//151 137//137 
f 144//144 128//128 136//136 
f 123//123 137//137 145//145 
f 152//152 146//146 139//139 
f 139//139 148//148 152//152 
f 140//140 148//148 139//139 
f 148//148 147//147 153//153 
f 130//130 138//138 154//154 
f 138//138 155//155 154//154 
f 146//146 155//155 138//138 
f 156//156 153//153 147//147 
f 141//141 130//130 154//154 
f 157//157 141//141 154//154 
f 147//147 142//142 156//156 
f 143//143 141//141 158//158 
f 158//158 141//141 157//157 
f 142//142 150//150 156//156 
f 143//143 158//158 149//149 
f 150//150 159//159 156//156 
f 159//159 150//150 160//160 
f 135//135 149//149 151//151 
f 150//150 144//144 160//160 
f 160//160 144//144 161//161 
f 151//151 162//162 137//137 
f 144//144 136//136 163//163 
f 129//129 164//164 136//136 
f 163//163 136//136 164//164 
f 137//137 165//165 145//145 
f 164//164 129//129 166//166 
f 166//166 129//129 145//145 
f 152//152 155//155 146//146 
f 167//167 155//155 152//152 
f 153//153 156//156 168//168 
f 157//157 154//154 169//169 
f 155//155 170//170 154//154 
f 171//171 158//158 157//157 
f 156//156 159//159 168//168 
f 149//149 158//158 172//172 
f 171//171 172//172 158//158 
f 157//157 173//173 171//171 
f 169//169 173//173 157//157 
f 151//151 149//149 172//172 
f 159//159 160//160 174//174 
f 175//175 160//160 161//161 
f 161//161 144//144 163//163 
f 137//137 162//162 165//165 
f 165//165 176//176 145//145 
f 177//177 164//164 166//166 
f 145//145 176//176 178//178 
f 166//166 145//145 178//178 
f 148//148 153//153 152//152 
f 170//170 155//155 167//167 
f 170//170 169//169 154//154 
f 170//170 179//179 169//169 
f 159//159 180//180 168//168 
f 169//169 179//179 173//173 
f 180//180 159//159 174//174 
f 151//151 172//172 162//162 
f 174//174 160//160 175//175 
f 174//174 175//175 180//180 
f 162//162 172//172 181//181 
f 177//177 182//182 164//164 
f 163//163 164//164 182//182 
f 152//152 153//153 167//167 
f 167//167 153//153 183//183 
f 170//170 167//167 184//184 
f 153//153 168//168 183//183 
f 185//185 183//183 168//168 
f 184//184 186//186 170//170 
f 185//185 168//168 180//180 
f 186//186 179//179 170//170 
f 171//171 181//181 172//172 
f 171//171 173//173 187//187 
f 173//173 179//179 188//188 
f 187//187 181//181 171//171 
f 188//188 187//187 173//173 
f 186//186 188//188 179//179 
f 189//189 180//180 175//175 
f 190//190 189//189 161//161 
f 189//189 175//175 161//161 
f 182//182 190//190 163//163 
f 161//161 163//163 190//190 
f 162//162 181//181 165//165 
f 177//177 191//191 182//182 
f 176//176 165//165 181//181 
f 176//176 192//192 178//178 
f 177//177 166//166 192//192 
f 192//192 191//191 177//177 
f 192//192 166//166 178//178 
f 184//184 167//167 183//183 
f 183//183 193//193 184//184 
f 193//193 194//194 184//184 
f 185//185 193//193 183//183 
f 185//185 180//180 193//193 
f 186//186 184//184 194//194 
f 195//195 186//186 194//194 
f 193//193 180//180 194//194 
f 180//180 195//195 194//194 
f 189//189 186//186 195//195 
f 188//188 186//186 196//196 
f 180//180 189//189 195//195 
f 187//187 188//188 197//197 
f 196//196 197//197 188//188 
f 186//186 190//190 196//196 
f 189//189 190//190 186//186 
f 197//197 181//181 187//187 
f 182//182 196//196 190//190 
f 192//192 176//176 181//181 
f 197//197 192//192 181//181 
f 191//191 192//192 197//197 
f 196//196 191//191 197//197 
f 182//182 191//191 196//196 
