# wavefront obj file written by the visualization toolkit


v 12790 4957.55 5139.57
v 12738.7 4943.38 5143.29
v 12786.4 5006.4 5160.35
v 12749.8 4932.54 5157.06
v 12835.2 4956.32 5164.33
v 12722.8 4959.05 5168.65
v 12875.3 4983.87 5154.57
v 12861.7 5003.81 5155.06
v 12707.9 4993.42 5207.56
v 12741.3 5013.52 5192.9
v 12960.5 5030.18 5169.48
v 12738.2 4937.7 5197.78
v 12933.5 4995.9 5173.67
v 13007.6 5032.16 5183.55
v 12797.9 5070.32 5202.73
v 13055 5071.5 5189.79
v 12954.8 5090.06 5186.55
v 12885.3 5128.5 5227.54
v 13054.9 5106.92 5198.96
v 12854.8 4954.77 5234.93
v 12724.4 4972.89 5226.1
v 12973.6 5006.79 5216.24
v 13070.3 5069.44 5221.18
v 13097.9 5113.43 5221.28
v 12830.6 5123.1 5240.96
v 13005 5184.95 5252.06
v 13050.4 5164.86 5231.65
v 12764.3 4970.37 5274.52
v 12747.1 5020.12 5275.45
v 12791.7 5089.05 5259.13
v 13119.6 5108.81 5267.3
v 13106.3 5184.75 5261.9
v 13130.4 5157.33 5283.04
v 12809.4 4966.6 5285.64
v 12991 5007.58 5301.11
v 12771.2 5060.34 5285.61
v 12859.8 5168.96 5293.34
v 12896.8 5190.06 5293.55
v 13083.2 5083.23 5341.93
v 13137.5 5230.69 5328.47
v 13065.9 5249.35 5312.31
v 12952.3 4998.62 5345.3
v 12871.1 5189.95 5356.37
v 13135.3 5157.65 5375.4
v 13147.4 5238.37 5405.75
v 12986.4 5250.95 5336.45
v 12890.2 4991.95 5350.34
v 12782.8 5021.57 5319.03
v 12825 5118.27 5354.47
v 12912.3 5218.24 5343.53
v 12843.7 5019.06 5364.8
v 13041.5 5059.89 5413.25
v 12793.6 5061.59 5331.2
v 13146.7 5323.72 5449.89
v 13084 5341.99 5420.28
v 13115.6 5286.49 5377.62
v 12976.2 5039.96 5427.71
v 13032.1 5334.19 5434.65
v 12922.9 5048.33 5435.84
v 13150.8 5253.35 5509.88
v 12900.4 5204.54 5443.44
v 12962.9 5270.4 5414.13
v 13124.3 5355.62 5469.5
v 13040.2 5095.35 5500.62
v 12850 5095.14 5399.98
v 13096.1 5109.9 5453.58
v 13123.2 5204.87 5549.39
v 13150 5314.17 5522.95
v 13036.9 5352.72 5485.01
v 13073.2 5372.24 5490.02
v 12919.1 5109.84 5484.66
v 13076.9 5135.24 5520.39
v 12915.5 5177.87 5492.05
v 12993.6 5306.27 5501.69
v 13133.7 5366.78 5560.29
v 13106.1 5376.44 5518.81
v 12964.8 5260.08 5518.65
v 13008.1 5128.22 5534.42
v 12981 5198.53 5569.4
v 13081.3 5368.5 5562.78
v 13058.2 5142.47 5547.23
v 13003.4 5263.5 5577.25
v 13037.1 5318.29 5579.6
v 12990.8 5165.68 5558.49
v 13116.1 5372.36 5577.79
v 13078.7 5190.13 5601.23
v 13055.9 5313.69 5658.41
v 13046.8 5206.91 5628.27
v 13036.5 5254.08 5643.27
v 13143.5 5318.39 5657.53
v 13089 5355.59 5654.98
v 13117.3 5361.83 5641.24
v 13119.6 5219.92 5677.95
v 13137.8 5223.21 5735.33
v 13088.7 5199.74 5707.88
v 13048.7 5238.7 5702.43
v 13062.4 5209.58 5716.23
v 13017.4 5268.74 5754.87
v 13065.6 5345.06 5739.07
v 13133.6 5373.07 5738.85
v 13108.8 5381.33 5753.19
v 13044.7 5147.37 5810.81
v 13018.6 5204.96 5771.7
v 13152.7 5248.9 5840.78
v 13146.7 5322.24 5844.25
v 12967.8 5140.72 5838.9
v 12953.5 5183.33 5833.93
v 13105.1 5167.38 5798.48
v 12992.7 5301.75 5840.96
v 13056.8 5361.32 5829.07
v 13101.7 5388.78 5856.88
v 13126.2 5370.85 5837.76
v 13075.4 5121.62 5852.88
v 13040 5078.43 5911.51
v 12966.2 5065.83 5913.92
v 12932 5140.18 5861.52
v 13132.9 5150.56 5948.99
v 12914.1 5198.7 5902.24
v 12910.2 5091.12 5910.01
v 12881.5 5111.78 5928.89
v 13142.2 5301.52 5969.4
v 12982.3 5031.04 5964.2
v 12850.9 5047.37 5976.1
v 13090.2 5117.73 5898.17
v 12915.3 5234.57 5971.86
v 12995.9 5313.79 5919.29
v 13056.5 5357.87 5901.23
v 12852.8 5007.83 6014.83
v 13145.6 5228.46 5977.4
v 13080.6 5361.8 5929.08
v 13111.6 5349.01 5931.19
v 12832.7 5102.51 5998.46
v 13020.6 5316.98 5968.07
v 12921.5 4992.77 6038.04
v 13064.2 5068.75 5995.78
v 12807 5041.59 6023.28
v 12799.2 5000.55 6048.7
v 12997.9 5029.87 5999.87
v 12821.4 5124.2 6067.44
v 12953.1 5263.41 5999.24
v 13071.9 5309.31 5999.27
v 12892.8 5193.59 6066.13
v 13121.3 5268.75 6044
v 12998.2 5014.41 6071.78
v 12752.6 5029.38 6101.14
v 13081.3 5074.96 6095.9
v 13129 5158.72 6063.24
v 12991.1 5238.25 6062.44
v 13130.1 5208.31 6078.49
v 12767.9 4960.25 6107.67
v 12811.1 4954.23 6118.89
v 12743 4980.72 6119.47
v 12710.6 4988.4 6150.92
v 13066.4 5210.99 6109.01
v 12883.4 4961.8 6137.63
v 12973.2 5002.62 6162.58
v 12827 5118.51 6136.72
v 12986.6 5177.48 6133.84
v 12702 4989.52 6169.11
v 12734.9 5034.53 6159.35
v 13108.7 5213.29 6101.49
v 12730.2 4946.79 6181.43
v 13059.3 5058.33 6166.88
v 12775.5 5070.29 6158.93
v 12913.2 5147.74 6136.48
v 12791.5 4942.58 6180.61
v 12705.6 4974.54 6182.35
v 12838.6 4955.43 6200.68
v 13002.4 5027.28 6197.22
v 13099.5 5123.41 6130.58
v 12983.1 5138.82 6166.51
v 13073.8 5149.72 6141.87
v 12707 4984.79 6204.88
v 12740.1 5025.09 6197.53
v 12852.7 5070.16 6187
v 12711.2 4957.2 6211.36
v 12912.3 4990.66 6211.31
v 13043.7 5071.07 6178.56
v 12758.5 4951.57 6211.02
v 12972.9 5026.2 6208.76
v 12767.8 5003.07 6216.41
v 12966.9 5072.44 6187.35
v 12764 4968.68 6218.13
v 12827.1 4968.39 6213.48
v 12866.5 5010.85 6204.69
vn 0.0930368 -0.170208 -0.981006
vn -0.296038 -0.37724 -0.877526
vn -0.270535 0.461218 -0.845038
vn -0.217542 -0.945729 -0.241398
vn 0.304229 -0.832805 -0.462473
vn -0.893385 -0.172605 -0.414814
vn 0.27995 -0.349559 -0.894112
vn 0.0559853 0.22033 -0.973817
vn -0.945404 0.325666 0.0124176
vn -0.598565 0.569489 -0.563384
vn 0.220304 -0.0518616 -0.974052
vn -0.438713 -0.865777 0.24075
vn 0.399416 -0.685829 -0.608362
vn 0.49575 -0.652326 -0.573327
vn -0.461444 0.659212 -0.593724
vn 0.52929 -0.231822 -0.816156
vn -0.0344038 0.461896 -0.886267
vn -0.197983 0.667466 -0.717839
vn 0.247414 0.334829 -0.909217
vn 0.209477 -0.972954 0.0973632
vn -0.832676 -0.376855 0.405747
vn 0.485641 -0.864633 -0.128693
vn 0.68016 -0.688145 -0.252664
vn 0.75499 -0.0375763 -0.654659
vn -0.486705 0.731399 -0.477674
vn -0.125402 0.684157 -0.718473
vn 0.0772794 0.593538 -0.801087
vn -0.498316 -0.62536 0.600505
vn -0.853694 0.0933134 0.512347
vn -0.738808 0.662137 -0.12545
vn 0.874394 -0.458178 -0.159709
vn 0.479184 0.507443 -0.71616
vn 0.946919 0.0195547 -0.320877
vn -0.121338 -0.881772 0.455802
vn 0.491886 -0.869671 0.0414742
vn -0.837139 0.475677 0.270054
vn -0.596213 0.762677 -0.250707
vn -0.358961 0.797757 -0.48449
vn 0.719328 -0.692263 0.0577885
vn 0.812709 0.373964 -0.446829
vn 0.0777407 0.727857 -0.681308
vn 0.273078 -0.923046 0.270952
vn -0.728452 0.685083 0.00423447
vn 0.931409 -0.357156 0.0701276
vn 0.996554 -0.00889778 -0.0824654
vn -0.305275 0.794264 -0.525311
vn -0.0413311 -0.882084 0.469276
vn -0.710388 -0.209247 0.671986
vn -0.849125 0.416533 0.324787
vn -0.496967 0.826468 -0.264526
vn -0.447729 -0.569275 0.689539
vn 0.489849 -0.828763 0.270554
vn -0.822767 0.191952 0.534985
vn 0.856217 0.442984 -0.265816
vn 0.054754 0.849361 -0.524965
vn 0.430564 0.680094 -0.59337
vn 0.11588 -0.854234 0.50681
vn -0.434223 0.820988 -0.370715
vn -0.211307 -0.719775 0.661266
vn 0.981224 -0.175604 0.0797702
vn -0.82755 0.483805 0.284768
vn -0.636419 0.757836 -0.143721
vn 0.492268 0.787844 -0.3701
vn 0.286574 -0.793796 0.536435
vn -0.789247 0.00139074 0.614074
vn 0.724644 -0.646273 0.239212
vn 0.79467 -0.579112 0.182012
vn 0.98918 0.14665 -0.00412671
vn -0.597766 0.800707 -0.0392879
vn -0.241418 0.952277 -0.18678
vn -0.556863 -0.395692 0.730296
vn 0.548827 -0.709223 0.442484
vn -0.816432 0.144677 0.559023
vn -0.728995 0.662023 0.174047
vn 0.719585 0.694281 0.0130792
vn 0.150587 0.98083 -0.123678
vn -0.790903 0.459157 0.404533
vn -0.116889 -0.709222 0.695227
vn -0.704955 -0.144129 0.694453
vn -0.405653 0.89984 0.160417
vn 0.24787 -0.747592 0.616171
vn -0.826114 0.308751 0.471391
vn -0.751412 0.597557 0.279833
vn -0.443476 -0.509385 0.737466
vn 0.124878 0.986542 0.105544
vn 0.279667 -0.876113 0.392699
vn -0.877077 0.473889 0.0785215
vn -0.572547 -0.673187 0.467984
vn -0.951545 -0.0983022 0.291375
vn 0.991597 0.129168 0.00714044
vn -0.56719 0.823373 0.0187939
vn 0.29048 0.956639 0.0215434
vn 0.446691 -0.891825 -0.0715168
vn 0.845608 -0.522557 -0.109
vn -0.0227983 -0.980062 -0.197379
vn -0.89007 -0.426133 -0.161824
vn -0.62369 -0.722394 -0.298592
vn -0.910104 0.120561 -0.396455
vn -0.730988 0.656177 -0.187319
vn 0.7355 0.67454 -0.0635296
vn -0.110232 0.987924 -0.108885
vn -0.103343 -0.789346 -0.605188
vn -0.62488 -0.416685 -0.660226
vn 0.995353 -0.0931806 -0.0242798
vn 0.973585 0.223972 0.0443809
vn -0.388822 -0.517763 -0.762062
vn -0.725665 -0.0808685 -0.68328
vn 0.508908 -0.792813 -0.33535
vn -0.777067 0.583709 -0.23548
vn -0.578626 0.811598 -0.0806266
vn 0.0175038 0.98727 0.158084
vn 0.689636 0.712918 0.127088
vn 0.362455 -0.820724 -0.441631
vn 0.349231 -0.847264 -0.400226
vn -0.0863125 -0.781427 -0.617998
vn -0.624886 -0.292352 -0.723912
vn 0.87013 -0.486683 -0.0775491
vn -0.853751 0.330968 -0.401957
vn -0.44748 -0.53408 -0.717301
vn -0.770927 -0.0586471 -0.634217
vn 0.873118 0.410877 0.262382
vn 0.212441 -0.887999 -0.407832
vn -0.552077 -0.421531 -0.719391
vn 0.634879 -0.73636 -0.233885
vn -0.750994 0.660013 -0.0197677
vn -0.625998 0.776133 0.0757916
vn -0.480836 0.861077 0.165358
vn -0.191367 -0.773039 -0.604805
vn 0.995679 -0.0297485 0.0879654
vn -0.104016 0.890576 0.442782
vn 0.439291 0.784352 0.437966
vn -0.847062 0.266691 -0.459741
vn -0.396531 0.822081 0.40859
vn 0.150238 -0.929104 -0.337926
vn 0.601903 -0.781875 -0.162431
vn -0.772841 -0.0983974 -0.626924
vn -0.553607 -0.490461 -0.673029
vn 0.423452 -0.880027 -0.215039
vn -0.773919 0.629276 -0.0711447
vn -0.528768 0.787745 0.316009
vn -0.024737 0.78821 0.614909
vn -0.516748 0.774974 0.363849
vn 0.434163 0.67007 0.602087
vn 0.464892 -0.880608 -0.0916752
vn -0.843495 0.251766 -0.474478
vn 0.755804 -0.652355 0.0564983
vn 0.952539 -0.255978 0.164759
vn -0.259975 0.76595 0.587992
vn 0.866175 0.158058 0.474087
vn -0.376313 -0.768978 -0.51678
vn 0.00794971 -0.955023 -0.296427
vn -0.710926 -0.415448 -0.567439
vn -0.831506 -0.22487 -0.507968
vn 0.0303588 0.659941 0.750704
vn 0.280443 -0.958792 -0.045489
vn 0.470884 -0.864414 0.176231
vn -0.448828 0.749422 0.486744
vn -0.165446 0.699639 0.695077
vn -0.967558 0.204755 -0.148011
vn -0.769018 0.636654 0.0572961
vn 0.455353 0.449311 0.768618
vn -0.398159 -0.906948 -0.137533
vn 0.728862 -0.5189 0.446658
vn -0.515139 0.757515 0.401003
vn -0.259918 0.702271 0.662765
vn 0.0603528 -0.995304 0.075675
vn -0.880502 -0.449648 -0.150106
vn 0.246458 -0.861642 0.443658
vn 0.489141 -0.509276 0.708082
vn 0.82979 -0.115808 0.545928
vn -0.0190108 0.511964 0.858797
vn 0.38423 0.303355 0.871977
vn -0.737988 0.253115 0.625546
vn -0.443298 0.645248 0.622207
vn -0.13857 0.531084 0.835912
vn -0.58252 -0.552959 0.59574
vn 0.237982 -0.487719 0.839938
vn 0.440415 0.109662 0.891072
vn -0.0158468 -0.782198 0.622828
vn 0.156297 0.0821683 0.984286
vn -0.114192 0.285942 0.951419
vn 0.0627328 0.339339 0.93857
vn -0.0652045 -0.100266 0.992822
vn 0.101568 -0.321672 0.941388
vn 0.024877 0.184956 0.982432

g grp1
usemtl mtl1
f 1//1 2//2 3//3 
f 4//4 2//2 5//5 
f 4//4 6//6 2//2 
f 5//5 2//2 1//1 
f 7//7 5//5 1//1 
f 2//2 6//6 3//3 
f 8//8 7//7 1//1 
f 6//6 9//9 10//10 
f 6//6 10//10 3//3 
f 3//3 8//8 1//1 
f 11//11 7//7 8//8 
f 6//6 4//4 12//12 
f 13//13 5//5 7//7 
f 11//11 13//13 7//7 
f 14//14 13//13 11//11 
f 10//10 15//15 3//3 
f 16//16 14//14 11//11 
f 3//3 17//17 8//8 
f 18//18 17//17 3//3 
f 8//8 17//17 11//11 
f 3//3 15//15 18//18 
f 19//19 11//11 17//17 
f 16//16 11//11 19//19 
f 4//4 20//20 12//12 
f 5//5 20//20 4//4 
f 21//21 6//6 12//12 
f 5//5 13//13 22//22 
f 6//6 21//21 9//9 
f 14//14 16//16 23//23 
f 16//16 24//24 23//23 
f 24//24 16//16 19//19 
f 18//18 15//15 25//25 
f 26//26 17//17 18//18 
f 17//17 27//27 19//19 
f 26//26 27//27 17//17 
f 12//12 28//28 21//21 
f 22//22 20//20 5//5 
f 21//21 29//29 9//9 
f 13//13 14//14 22//22 
f 22//22 14//14 23//23 
f 10//10 9//9 30//30 
f 15//15 10//10 30//30 
f 31//31 23//23 24//24 
f 15//15 30//30 25//25 
f 24//24 19//19 32//32 
f 32//32 33//33 24//24 
f 27//27 32//32 19//19 
f 34//34 28//28 12//12 
f 12//12 20//20 34//34 
f 35//35 20//20 22//22 
f 29//29 36//36 9//9 
f 25//25 30//30 37//37 
f 31//31 24//24 33//33 
f 18//18 25//25 38//38 
f 39//39 22//22 23//23 
f 9//9 36//36 30//30 
f 23//23 31//31 39//39 
f 38//38 25//25 37//37 
f 33//33 32//32 40//40 
f 27//27 26//26 41//41 
f 41//41 32//32 27//27 
f 35//35 42//42 20//20 
f 22//22 39//39 35//35 
f 43//43 37//37 30//30 
f 31//31 33//33 44//44 
f 33//33 40//40 45//45 
f 38//38 46//46 18//18 
f 18//18 46//46 26//26 
f 41//41 26//26 46//46 
f 42//42 47//47 20//20 
f 20//20 47//47 34//34 
f 48//48 21//21 28//28 
f 29//29 21//21 48//48 
f 36//36 49//49 30//30 
f 49//49 43//43 30//30 
f 33//33 45//45 44//44 
f 38//38 37//37 50//50 
f 46//46 38//38 50//50 
f 28//28 34//34 51//51 
f 35//35 39//39 52//52 
f 53//53 29//29 48//48 
f 29//29 53//53 36//36 
f 31//31 44//44 39//39 
f 36//36 53//53 49//49 
f 45//45 40//40 54//54 
f 46//46 55//55 41//41 
f 41//41 56//56 32//32 
f 40//40 32//32 56//56 
f 40//40 56//56 54//54 
f 34//34 47//47 51//51 
f 28//28 51//51 48//48 
f 42//42 35//35 52//52 
f 37//37 43//43 50//50 
f 41//41 55//55 56//56 
f 42//42 52//52 57//57 
f 55//55 46//46 58//58 
f 59//59 51//51 47//47 
f 42//42 57//57 47//47 
f 47//47 57//57 59//59 
f 44//44 45//45 60//60 
f 61//61 43//43 49//49 
f 46//46 50//50 62//62 
f 46//46 62//62 58//58 
f 63//63 56//56 55//55 
f 52//52 64//64 57//57 
f 65//65 48//48 51//51 
f 39//39 66//66 52//52 
f 48//48 65//65 53//53 
f 39//39 67//67 66//66 
f 44//44 67//67 39//39 
f 53//53 65//65 49//49 
f 65//65 61//61 49//49 
f 45//45 54//54 68//68 
f 50//50 43//43 62//62 
f 58//58 62//62 69//69 
f 54//54 56//56 63//63 
f 70//70 55//55 58//58 
f 51//51 71//71 65//65 
f 43//43 61//61 62//62 
f 58//58 69//69 70//70 
f 59//59 71//71 51//51 
f 72//72 52//52 66//66 
f 65//65 73//73 61//61 
f 44//44 60//60 67//67 
f 74//74 62//62 61//61 
f 69//69 62//62 74//74 
f 68//68 54//54 75//75 
f 55//55 70//70 76//76 
f 63//63 55//55 76//76 
f 52//52 72//72 64//64 
f 71//71 73//73 65//65 
f 73//73 77//77 61//61 
f 45//45 68//68 60//60 
f 61//61 77//77 74//74 
f 75//75 54//54 63//63 
f 78//78 71//71 59//59 
f 57//57 78//78 59//59 
f 64//64 78//78 57//57 
f 73//73 71//71 79//79 
f 67//67 72//72 66//66 
f 80//80 70//70 69//69 
f 63//63 76//76 75//75 
f 64//64 81//81 78//78 
f 72//72 81//81 64//64 
f 77//77 82//82 83//83 
f 74//74 77//77 83//83 
f 74//74 80//80 69//69 
f 76//76 70//70 80//80 
f 71//71 78//78 84//84 
f 71//71 84//84 79//79 
f 82//82 77//77 73//73 
f 74//74 83//83 80//80 
f 76//76 80//80 85//85 
f 85//85 75//75 76//76 
f 72//72 86//86 81//81 
f 73//73 79//79 82//82 
f 82//82 87//87 83//83 
f 86//86 78//78 81//81 
f 72//72 67//67 86//86 
f 88//88 79//79 84//84 
f 88//88 89//89 79//79 
f 79//79 89//89 82//82 
f 82//82 89//89 87//87 
f 60//60 68//68 90//90 
f 83//83 87//87 91//91 
f 68//68 75//75 90//90 
f 85//85 92//92 75//75 
f 84//84 78//78 88//88 
f 88//88 78//78 86//86 
f 86//86 67//67 93//93 
f 94//94 93//93 67//67 
f 94//94 67//67 90//90 
f 90//90 67//67 60//60 
f 92//92 90//90 75//75 
f 80//80 83//83 91//91 
f 91//91 92//92 80//80 
f 80//80 92//92 85//85 
f 86//86 93//93 95//95 
f 89//89 88//88 96//96 
f 88//88 97//97 96//96 
f 95//95 88//88 86//86 
f 96//96 98//98 89//89 
f 89//89 98//98 87//87 
f 98//98 99//99 87//87 
f 87//87 99//99 91//91 
f 90//90 92//92 100//100 
f 92//92 91//91 101//101 
f 95//95 97//97 88//88 
f 99//99 101//101 91//91 
f 101//101 100//100 92//92 
f 95//95 102//102 97//97 
f 97//97 103//103 96//96 
f 96//96 103//103 98//98 
f 94//94 90//90 104//104 
f 90//90 100//100 105//105 
f 103//103 106//106 107//107 
f 102//102 106//106 103//103 
f 97//97 102//102 103//103 
f 102//102 95//95 108//108 
f 98//98 103//103 107//107 
f 99//99 98//98 109//109 
f 104//104 90//90 105//105 
f 110//110 101//101 99//99 
f 101//101 110//110 111//111 
f 100//100 101//101 112//112 
f 101//101 111//111 112//112 
f 113//113 102//102 108//108 
f 95//95 93//93 108//108 
f 93//93 94//94 108//108 
f 99//99 109//109 110//110 
f 102//102 113//113 114//114 
f 115//115 102//102 114//114 
f 102//102 115//115 106//106 
f 106//106 116//116 107//107 
f 94//94 117//117 108//108 
f 94//94 104//104 117//117 
f 98//98 118//118 109//109 
f 107//107 118//118 98//98 
f 112//112 105//105 100//100 
f 119//119 116//116 106//106 
f 115//115 119//119 106//106 
f 116//116 120//120 107//107 
f 118//118 107//107 120//120 
f 105//105 112//112 121//121 
f 114//114 122//122 115//115 
f 120//120 119//119 123//123 
f 116//116 119//119 120//120 
f 113//113 108//108 124//124 
f 117//117 124//124 108//108 
f 109//109 118//118 125//125 
f 109//109 125//125 126//126 
f 126//126 110//110 109//109 
f 127//127 110//110 126//126 
f 111//111 110//110 127//127 
f 115//115 128//128 119//119 
f 114//114 113//113 124//124 
f 129//129 104//104 105//105 
f 127//127 130//130 111//111 
f 112//112 111//111 131//131 
f 128//128 123//123 119//119 
f 118//118 120//120 132//132 
f 117//117 104//104 129//129 
f 133//133 127//127 126//126 
f 121//121 112//112 131//131 
f 130//130 131//131 111//111 
f 128//128 115//115 134//134 
f 122//122 134//134 115//115 
f 114//114 124//124 135//135 
f 123//123 136//136 120//120 
f 135//135 124//124 117//117 
f 136//136 132//132 120//120 
f 127//127 133//133 130//130 
f 123//123 128//128 137//137 
f 122//122 138//138 134//134 
f 122//122 114//114 138//138 
f 114//114 135//135 138//138 
f 136//136 123//123 137//137 
f 139//139 125//125 118//118 
f 126//126 125//125 140//140 
f 131//131 130//130 141//141 
f 139//139 118//118 132//132 
f 125//125 142//142 140//140 
f 129//129 105//105 121//121 
f 140//140 133//133 126//126 
f 133//133 141//141 130//130 
f 121//121 131//131 143//143 
f 143//143 131//131 141//141 
f 138//138 144//144 134//134 
f 144//144 138//138 135//135 
f 132//132 136//136 145//145 
f 135//135 117//117 146//146 
f 147//147 146//146 117//117 
f 147//147 117//117 129//129 
f 142//142 125//125 139//139 
f 133//133 140//140 148//148 
f 143//143 149//149 121//121 
f 137//137 128//128 150//150 
f 150//150 128//128 151//151 
f 128//128 134//134 151//151 
f 121//121 149//149 129//129 
f 141//141 133//133 148//148 
f 152//152 137//137 150//150 
f 152//152 136//136 137//137 
f 145//145 152//152 153//153 
f 152//152 145//145 136//136 
f 146//146 144//144 135//135 
f 132//132 145//145 139//139 
f 141//141 148//148 154//154 
f 143//143 141//141 154//154 
f 134//134 155//155 151//151 
f 134//134 144//144 155//155 
f 144//144 146//146 156//156 
f 157//157 142//142 139//139 
f 148//148 140//140 142//142 
f 158//158 154//154 148//148 
f 153//153 159//159 145//145 
f 159//159 160//160 145//145 
f 139//139 145//145 160//160 
f 154//154 161//161 143//143 
f 143//143 161//161 149//149 
f 162//162 152//152 150//150 
f 151//151 162//162 150//150 
f 155//155 144//144 156//156 
f 163//163 156//156 146//146 
f 139//139 160//160 164//164 
f 157//157 139//139 164//164 
f 147//147 129//129 149//149 
f 142//142 157//157 165//165 
f 142//142 165//165 148//148 
f 155//155 166//166 151//151 
f 152//152 162//162 167//167 
f 155//155 156//156 168//168 
f 153//153 152//152 167//167 
f 159//159 153//153 167//167 
f 156//156 163//163 169//169 
f 146//146 170//170 163//163 
f 170//170 146//146 147//147 
f 147//147 149//149 170//170 
f 171//171 154//154 158//158 
f 149//149 172//172 170//170 
f 149//149 161//161 172//172 
f 158//158 148//148 165//165 
f 151//151 166//166 162//162 
f 166//166 155//155 168//168 
f 167//167 173//173 159//159 
f 173//173 160//160 159//159 
f 174//174 164//164 160//160 
f 164//164 175//175 157//157 
f 165//165 171//171 158//158 
f 171//171 172//172 154//154 
f 161//161 154//154 172//172 
f 176//176 167//167 162//162 
f 168//168 156//156 177//177 
f 167//167 176//176 173//173 
f 156//156 169//169 177//177 
f 174//174 160//160 173//173 
f 163//163 178//178 169//169 
f 163//163 170//170 178//178 
f 164//164 174//174 175//175 
f 165//165 157//157 175//175 
f 171//171 165//165 175//175 
f 170//170 172//172 178//178 
f 162//162 166//166 179//179 
f 179//179 176//176 162//162 
f 169//169 180//180 177//177 
f 173//173 181//181 174//174 
f 169//169 178//178 180//180 
f 178//178 182//182 180//180 
f 182//182 171//171 175//175 
f 172//172 171//171 182//182 
f 178//178 172//172 182//182 
f 179//179 166//166 168//168 
f 179//179 183//183 176//176 
f 179//179 168//168 184//184 
f 184//184 168//168 177//177 
f 173//173 176//176 183//183 
f 177//177 185//185 184//184 
f 173//173 183//183 181//181 
f 177//177 180//180 185//185 
f 185//185 175//175 181//181 
f 175//175 174//174 181//181 
f 182//182 175//175 185//185 
f 182//182 185//185 180//180 
f 179//179 184//184 183//183 
f 184//184 185//185 183//183 
f 185//185 181//181 183//183 
