# wavefront obj file written by the visualization toolkit


v 6990.4 7259.08 5404.91
v 6959.8 7245.78 5411.94
v 6910.14 7265.99 5416.1
v 7023.78 7272.47 5411.3
v 6888.15 7245.95 5438.79
v 7001.4 7234.21 5430.82
v 7088.34 7242.37 5424.66
v 6816.85 7273.11 5453.54
v 7096.72 7262.43 5416.58
v 7199.78 7248.57 5431.07
v 6838.97 7285.25 5440.84
v 7165.27 7285.6 5431.62
v 6976.83 7312.43 5449.61
v 6964.5 7237.34 5490.91
v 7330.84 7230.91 5450.8
v 7260.65 7211.19 5457.35
v 7330.54 7266.57 5452.74
v 6757.19 7286.49 5490.3
v 6802.5 7308.34 5489.82
v 7229.93 7339.59 5481.9
v 7369.12 7311.95 5480.53
v 6846.36 7340.77 5504.99
v 7266.3 7181.84 5496.51
v 7355.93 7176.12 5496.43
v 7420.7 7205.98 5486.43
v 7120.32 7219.25 5470.21
v 6794.24 7262.69 5507.78
v 7418.76 7246.32 5471.94
v 6762.47 7280.57 5496.17
v 7450.91 7282.39 5487.8
v 6929.32 7364.15 5514.4
v 7074.22 7370.23 5513.7
v 7082.69 7225.98 5511.53
v 7170.15 7208.26 5534.13
v 7500.44 7245.67 5506.94
v 7489.64 7318.87 5521.81
v 7425.55 7352.73 5546.41
v 7277.84 7379.06 5547.31
v 7399.12 7154.75 5563.86
v 7468.88 7175.17 5534.41
v 7513.17 7208.06 5530.05
v 6859.29 7251.85 5631.61
v 7535.55 7287.16 5538.92
v 7568.64 7239.47 5568.74
v 6724.02 7282.02 5542.16
v 6706.25 7300.83 5580.17
v 6770.68 7334.21 5550.73
v 6828.12 7366.52 5568.53
v 7286.93 7183.12 5586.6
v 7552.13 7184.54 5589.92
v 7078.97 7232.79 5600.14
v 7582.35 7295.62 5603.51
v 6955.64 7398.7 5583.98
v 7138.63 7399.84 5577.64
v 7500.33 7157.41 5597
v 7530.28 7327.45 5587.65
v 7414.21 7387.52 5600.95
v 7493.72 7145.99 5678.83
v 7600.17 7214.7 5643.53
v 7203.46 7209.58 5620.82
v 6717.8 7273.17 5610.24
v 6697.29 7286.24 5599.23
v 7263.57 7408.21 5622.53
v 7076.96 7418.45 5640.57
v 7381.35 7160.76 5663.13
v 7549.75 7162.98 5657.78
v 7284.34 7189.25 5659.56
v 7602.66 7263.59 5657.88
v 6736.56 7342.56 5626.16
v 7494.82 7366.7 5629.42
v 6813.82 7381.28 5663.87
v 7416.74 7396.96 5673.94
v 6939.97 7413.99 5686.14
v 7583.9 7185.71 5674.25
v 6995.94 7242.16 5707.69
v 6679.89 7286.83 5660.04
v 7570.12 7323.42 5685.73
v 7186.69 7422.5 5694.41
v 7170.19 7210.6 5711.81
v 6685.15 7308.31 5684.38
v 6726.87 7342.55 5707.06
v 7559.92 7173.51 5740.48
v 7298.44 7169.42 5763.42
v 7597.17 7224.59 5724.59
v 6729.37 7268.6 5768.06
v 7597.09 7275.3 5732.59
v 7293.61 7412.75 5701.81
v 6689.15 7292.28 5738.52
v 7579.75 7300.6 5784.14
v 7495.88 7371.1 5722.71
v 6856.43 7399.21 5736.29
v 7076.24 7419.52 5742.25
v 7413.82 7149.56 5760.77
v 7485.81 7155.19 5772.87
v 6889.02 7248.91 5774.65
v 6777.16 7363.63 5757.94
v 7540.26 7339 5770.78
v 7347.88 7396.39 5763.61
v 6948.33 7409.9 5757.04
v 7212.63 7411.84 5747.98
v 7343.85 7158.42 5831.06
v 7030.72 7226.18 5802.17
v 6714.86 7315.13 5773.06
v 7583.19 7255.97 5798.04
v 6710.02 7291.06 5798.03
v 7458.18 7361.97 5804.55
v 6872.47 7379.1 5816.48
v 7270.17 7174.23 5840.16
v 7187.22 7194.34 5820.08
v 7558.86 7210.53 5809.2
v 7192.93 7401.66 5804.2
v 7432.52 7157.83 5818.47
v 7492.3 7175.89 5817.52
v 6945.52 7229.99 5861.19
v 6735.04 7295.94 5851.46
v 6955.28 7355.43 5901.29
v 7028.37 7390.12 5820.57
v 7316.29 7377.44 5830.37
v 7064.28 7210.11 5887.72
v 6736.79 7281.27 5846.88
v 6848.86 7244.07 5868.63
v 7556.13 7284.98 5838.97
v 7518.19 7320.56 5827.54
v 6785.8 7332.19 5839.21
v 7353.91 7340.31 5874.26
v 7229.92 7192.54 5879.28
v 7377.08 7190.18 5876.72
v 7489.89 7205.81 5857.57
v 6927.63 7228.11 5906.28
v 7523.46 7241.39 5856.97
v 6781.05 7266.83 5879.23
v 6863.46 7336.06 5892.81
v 7137.13 7358.66 5879.04
v 6769.17 7285.4 5888.02
v 7466.27 7284.21 5877.21
v 6810.64 7303.29 5898.41
v 7445.93 7216.55 5885.99
v 7087.44 7216 5931.46
v 6872.05 7247.78 5933.12
v 7437.7 7241.93 5895.32
v 7328.7 7302.83 5915.36
v 6887.9 7299.48 5942.31
v 7027.41 7313.69 5940.95
v 7193.97 7305.27 5931.08
v 7210.81 7223.11 5930.85
v 7361.12 7230.75 5910.8
v 6979.24 7229.15 5938.29
v 7353.58 7265.49 5917.56
v 6833.89 7276.6 5918.7
v 6936.69 7243.8 5964.35
v 7058.26 7245.06 5957.19
v 7268.52 7256.4 5935.97
v 7261.82 7280.2 5933.19
v 6896.2 7263.49 5949.97
v 7180.73 7262.53 5944.12
v 7081.27 7277.23 5953.94
v 6980.02 7271.05 5950.65
vn 0.0100765 -0.114443 -0.993379
vn -0.107428 -0.641501 -0.759563
vn -0.236831 0.0413556 -0.97067
vn 0.0153604 0.458372 -0.888628
vn -0.264417 -0.864572 -0.427316
vn -0.0550198 -0.948952 -0.310585
vn 0.0507794 -0.654587 -0.754279
vn -0.465123 -0.533596 -0.706354
vn 0.117111 -0.0308342 -0.99264
vn 0.116898 -0.178509 -0.976969
vn -0.340498 0.432642 -0.834795
vn 0.110672 0.434743 -0.893728
vn -0.0675303 0.703953 -0.707029
vn -0.117704 -0.992925 0.0156998
vn 0.174676 -0.285054 -0.942461
vn 0.0196202 -0.693191 -0.720487
vn 0.193341 0.198539 -0.960834
vn -0.696896 0.0651377 -0.714208
vn -0.371286 0.720272 -0.585965
vn 0.0817173 0.741855 -0.665563
vn 0.181746 0.582437 -0.792297
vn -0.252659 0.779753 -0.572843
vn -0.164031 -0.960188 -0.226128
vn 0.0719149 -0.824415 -0.561398
vn 0.274439 -0.50615 -0.817616
vn -0.119098 -0.968727 -0.217679
vn -0.291053 -0.941137 -0.171902
vn 0.311386 -0.0684138 -0.947818
vn -0.504459 -0.734217 -0.454364
vn 0.357183 0.274233 -0.89287
vn -0.119544 0.848827 -0.514979
vn -0.000142782 0.849265 -0.527967
vn -0.155217 -0.987004 0.0415997
vn -0.225313 -0.972757 0.0545766
vn 0.514236 -0.106103 -0.85106
vn 0.396892 0.645534 -0.652505
vn 0.244678 0.822555 -0.513357
vn 0.0871064 0.880347 -0.466263
vn -0.048289 -0.987635 -0.149146
vn 0.284514 -0.798552 -0.530441
vn 0.520056 -0.474344 -0.710309
vn -0.115697 -0.993276 0.00409957
vn 0.634109 0.345853 -0.691586
vn 0.809028 -0.124349 -0.574466
vn -0.700324 -0.594227 -0.395526
vn -0.805662 0.43949 -0.397187
vn -0.458173 0.776505 -0.432571
vn -0.287555 0.903011 -0.319192
vn -0.253231 -0.965256 0.064453
vn 0.5984 -0.685648 -0.414493
vn -0.148175 -0.988587 0.0271889
vn 0.80915 0.460889 -0.364496
vn -0.112959 0.949262 -0.2935
vn 0.0180711 0.935648 -0.352472
vn 0.256166 -0.931207 -0.259292
vn 0.522081 0.769808 -0.367188
vn 0.204776 0.925391 -0.318934
vn 0.109395 -0.993996 0.00226424
vn 0.923114 -0.323113 -0.208468
vn -0.224296 -0.974017 0.0313316
vn -0.369692 -0.925092 -0.0867898
vn -0.842012 -0.451246 -0.295621
vn 0.0762542 0.975729 -0.205278
vn -0.017384 0.988724 -0.148736
vn -0.202959 -0.978832 -0.02637
vn 0.440007 -0.89276 -0.0968134
vn -0.259636 -0.964712 -0.0438186
vn 0.979606 0.164035 -0.116038
vn -0.51983 0.832442 -0.191879
vn 0.425235 0.876361 -0.2262
vn -0.32682 0.940122 -0.0967444
vn 0.205551 0.97842 -0.0210299
vn -0.129584 0.990238 -0.0513509
vn 0.745211 -0.666048 -0.0322742
vn -0.127759 -0.990506 -0.0507539
vn -0.914611 -0.39704 -0.0764596
vn 0.712684 0.700276 -0.0411656
vn 0.0465143 0.998819 0.0140625
vn -0.205708 -0.974297 -0.0918161
vn -0.840389 0.541962 0.00480069
vn -0.548187 0.83428 0.0588803
vn 0.540197 -0.811194 0.223946
vn -0.223102 -0.971938 -0.0745835
vn 0.939486 -0.292182 0.178872
vn -0.412918 -0.906328 0.089822
vn 0.966278 0.230017 0.115753
vn 0.106282 0.992867 0.0540253
vn -0.962707 -0.118425 0.24325
vn 0.788572 0.532314 0.307888
vn 0.375471 0.921425 0.099988
vn -0.258009 0.959666 0.11168
vn -0.0153509 0.98778 0.155095
vn -0.053321 -0.99793 0.0359513
vn 0.213947 -0.952575 0.216397
vn -0.123741 -0.989329 -0.0769191
vn -0.437511 0.873036 0.215388
vn 0.520952 0.812392 0.261969
vn 0.150378 0.963233 0.222643
vn -0.0971351 0.969115 0.226674
vn 0.0703929 0.980801 0.181862
vn -0.081625 -0.964722 0.250298
vn -0.157911 -0.980521 -0.116799
vn -0.713248 0.637584 0.291142
vn 0.890476 -0.0824376 0.447499
vn -0.918383 -0.18569 0.349416
vn 0.271682 0.872569 0.40597
vn -0.227359 0.902428 0.365966
vn -0.222031 -0.969819 0.100767
vn -0.20818 -0.977865 -0.0209986
vn 0.66705 -0.536213 0.517224
vn 0.0437132 0.935806 0.349794
vn 0.1316 -0.920009 0.369141
vn 0.335681 -0.803157 0.492197
vn -0.143241 -0.983423 -0.111177
vn -0.732842 0.394506 0.554354
vn -0.08016 0.819865 0.566918
vn -0.0322837 0.922768 0.384002
vn 0.121719 0.874333 0.469814
vn -0.123563 -0.991196 0.0475655
vn -0.725388 -0.531405 0.437517
vn -0.222739 -0.974329 0.0327065
vn 0.633737 0.296373 0.714522
vn 0.406548 0.701 0.585933
vn -0.431878 0.791552 0.432349
vn 0.185495 0.720298 0.668402
vn -0.0865834 -0.937005 0.338415
vn 0.122638 -0.7598 0.638486
vn 0.37486 -0.634761 0.675691
vn -0.174619 -0.97895 0.105665
vn 0.532887 -0.197487 0.822819
vn -0.468511 -0.752119 0.46348
vn -0.307376 0.771219 0.557442
vn 0.0547003 0.8094 0.584705
vn -0.605354 -0.102781 0.789292
vn 0.338947 0.35563 0.871001
vn -0.43209 0.549759 0.714887
vn 0.28982 -0.46101 0.838733
vn -0.0292782 -0.858191 0.512494
vn -0.379914 -0.734933 0.561728
vn 0.318201 -0.0662312 0.945707
vn 0.202943 0.439102 0.875217
vn -0.23619 0.426799 0.872959
vn 0.0161778 0.528449 0.848811
vn 0.0941387 0.513304 0.853028
vn 0.0854571 -0.571338 0.816253
vn 0.18359 -0.363149 0.913465
vn -0.0970713 -0.898683 0.427721
vn 0.239727 0.0847582 0.967133
vn -0.476767 -0.0927139 0.874127
vn -0.149833 -0.325949 0.933438
vn 0.0447799 -0.307218 0.950585
vn 0.148376 -0.10579 0.983256
vn 0.13419 0.22725 0.964547
vn -0.306411 0.0307447 0.951403
vn 0.103338 0.0277055 0.99426
vn 0.0449544 0.216603 0.975224
vn -0.0251408 0.251849 0.96744

g grp1
usemtl mtl1
f 1//1 2//2 3//3 
f 1//1 3//3 4//4 
f 5//5 2//2 6//6 
f 2//2 7//7 6//6 
f 5//5 8//8 3//3 
f 2//2 5//5 3//3 
f 7//7 2//2 1//1 
f 9//9 7//7 1//1 
f 9//9 10//10 7//7 
f 8//8 11//11 3//3 
f 12//12 10//10 9//9 
f 3//3 13//13 4//4 
f 3//3 11//11 13//13 
f 9//9 1//1 4//4 
f 12//12 9//9 4//4 
f 6//6 14//14 5//5 
f 15//15 16//16 10//10 
f 10//10 16//16 7//7 
f 17//17 15//15 10//10 
f 18//18 11//11 8//8 
f 17//17 10//10 12//12 
f 19//19 11//11 18//18 
f 19//19 13//13 11//11 
f 4//4 13//13 12//12 
f 20//20 21//21 12//12 
f 17//17 12//12 21//21 
f 13//13 19//19 22//22 
f 20//20 12//12 13//13 
f 23//23 16//16 24//24 
f 16//16 25//25 24//24 
f 6//6 26//26 14//14 
f 26//26 16//16 23//23 
f 27//27 5//5 14//14 
f 7//7 26//26 6//6 
f 16//16 26//26 7//7 
f 25//25 16//16 15//15 
f 28//28 25//25 15//15 
f 28//28 15//15 17//17 
f 29//29 18//18 8//8 
f 28//28 17//17 30//30 
f 30//30 17//17 21//21 
f 13//13 22//22 31//31 
f 20//20 13//13 32//32 
f 26//26 33//33 14//14 
f 26//26 34//34 33//33 
f 35//35 25//25 28//28 
f 29//29 8//8 27//27 
f 5//5 27//27 8//8 
f 35//35 28//28 30//30 
f 21//21 36//36 30//30 
f 31//31 32//32 13//13 
f 37//37 21//21 20//20 
f 36//36 21//21 37//37 
f 38//38 20//20 32//32 
f 23//23 24//24 39//39 
f 24//24 40//40 39//39 
f 26//26 23//23 34//34 
f 40//40 24//24 25//25 
f 35//35 41//41 25//25 
f 14//14 42//42 27//27 
f 43//43 44//44 35//35 
f 18//18 29//29 45//45 
f 35//35 30//30 43//43 
f 18//18 45//45 46//46 
f 19//19 18//18 46//46 
f 19//19 46//46 47//47 
f 22//22 19//19 47//47 
f 22//22 47//47 48//48 
f 37//37 20//20 38//38 
f 39//39 49//49 23//23 
f 34//34 23//23 49//49 
f 41//41 40//40 25//25 
f 41//41 50//50 40//40 
f 14//14 33//33 51//51 
f 41//41 35//35 44//44 
f 44//44 43//43 52//52 
f 36//36 43//43 30//30 
f 22//22 48//48 31//31 
f 31//31 48//48 53//53 
f 31//31 53//53 32//32 
f 38//38 32//32 54//54 
f 40//40 55//55 39//39 
f 40//40 50//50 55//55 
f 50//50 41//41 44//44 
f 42//42 14//14 51//51 
f 34//34 51//51 33//33 
f 27//27 45//45 29//29 
f 36//36 56//56 43//43 
f 56//56 52//52 43//43 
f 37//37 56//56 36//36 
f 38//38 57//57 37//37 
f 53//53 54//54 32//32 
f 55//55 58//58 39//39 
f 50//50 44//44 59//59 
f 34//34 60//60 51//51 
f 45//45 27//27 61//61 
f 27//27 42//42 61//61 
f 45//45 62//62 46//46 
f 54//54 63//63 38//38 
f 38//38 63//63 57//57 
f 54//54 53//53 64//64 
f 54//54 64//64 63//63 
f 65//65 49//49 39//39 
f 39//39 58//58 65//65 
f 55//55 50//50 66//66 
f 60//60 34//34 49//49 
f 60//60 49//49 67//67 
f 59//59 44//44 68//68 
f 61//61 62//62 45//45 
f 44//44 52//52 68//68 
f 46//46 69//69 47//47 
f 48//48 47//47 69//69 
f 70//70 37//37 57//57 
f 37//37 70//70 56//56 
f 48//48 69//69 71//71 
f 53//53 48//48 71//71 
f 63//63 72//72 57//57 
f 53//53 71//71 73//73 
f 55//55 66//66 58//58 
f 67//67 49//49 65//65 
f 74//74 66//66 50//50 
f 59//59 74//74 50//50 
f 51//51 75//75 42//42 
f 62//62 76//76 46//46 
f 52//52 77//77 68//68 
f 77//77 52//52 56//56 
f 70//70 57//57 72//72 
f 73//73 64//64 53//53 
f 64//64 78//78 63//63 
f 51//51 60//60 79//79 
f 60//60 67//67 79//79 
f 75//75 51//51 79//79 
f 61//61 76//76 62//62 
f 46//46 76//76 80//80 
f 69//69 46//46 80//80 
f 81//81 69//69 80//80 
f 82//82 58//58 66//66 
f 83//83 67//67 65//65 
f 84//84 74//74 59//59 
f 59//59 68//68 84//84 
f 85//85 76//76 61//61 
f 86//86 68//68 77//77 
f 77//77 56//56 70//70 
f 63//63 78//78 87//87 
f 63//63 87//87 72//72 
f 82//82 66//66 74//74 
f 61//61 42//42 85//85 
f 88//88 76//76 85//85 
f 89//89 86//86 77//77 
f 69//69 81//81 71//71 
f 90//90 77//77 70//70 
f 70//70 72//72 90//90 
f 73//73 71//71 91//91 
f 64//64 73//73 92//92 
f 64//64 92//92 78//78 
f 83//83 65//65 93//93 
f 58//58 93//93 65//65 
f 58//58 94//94 93//93 
f 58//58 82//82 94//94 
f 67//67 83//83 79//79 
f 42//42 75//75 95//95 
f 88//88 80//80 76//76 
f 96//96 71//71 81//81 
f 97//97 77//77 90//90 
f 71//71 96//96 91//91 
f 98//98 90//90 72//72 
f 91//91 99//99 73//73 
f 78//78 92//92 100//100 
f 78//78 100//100 87//87 
f 72//72 87//87 98//98 
f 73//73 99//99 92//92 
f 83//83 93//93 101//101 
f 74//74 84//84 82//82 
f 79//79 102//102 75//75 
f 42//42 95//95 85//85 
f 84//84 68//68 86//86 
f 80//80 88//88 103//103 
f 103//103 81//81 80//80 
f 77//77 97//97 89//89 
f 84//84 86//86 104//104 
f 88//88 85//85 105//105 
f 90//90 106//106 97//97 
f 91//91 96//96 107//107 
f 90//90 98//98 106//106 
f 91//91 107//107 99//99 
f 87//87 100//100 98//98 
f 101//101 108//108 83//83 
f 83//83 108//108 109//109 
f 82//82 84//84 110//110 
f 109//109 79//79 83//83 
f 109//109 102//102 79//79 
f 84//84 104//104 110//110 
f 75//75 102//102 95//95 
f 105//105 103//103 88//88 
f 103//103 96//96 81//81 
f 100//100 92//92 111//111 
f 98//98 100//100 111//111 
f 93//93 112//112 101//101 
f 93//93 94//94 112//112 
f 82//82 113//113 94//94 
f 82//82 110//110 113//113 
f 95//95 102//102 114//114 
f 105//105 115//115 103//103 
f 86//86 89//89 104//104 
f 116//116 117//117 107//107 
f 111//111 118//118 98//98 
f 98//98 118//118 106//106 
f 107//107 117//117 99//99 
f 92//92 99//99 117//117 
f 92//92 117//117 111//111 
f 113//113 112//112 94//94 
f 109//109 119//119 102//102 
f 120//120 105//105 85//85 
f 114//114 121//121 95//95 
f 104//104 89//89 122//122 
f 123//123 122//122 89//89 
f 103//103 115//115 124//124 
f 103//103 124//124 96//96 
f 123//123 97//97 106//106 
f 89//89 97//97 123//123 
f 96//96 124//124 107//107 
f 118//118 125//125 106//106 
f 101//101 126//126 108//108 
f 127//127 126//126 101//101 
f 112//112 127//127 101//101 
f 112//112 113//113 127//127 
f 128//128 113//113 110//110 
f 114//114 119//119 129//129 
f 102//102 119//119 114//114 
f 110//110 130//130 128//128 
f 110//110 104//104 130//130 
f 131//131 120//120 85//85 
f 122//122 130//130 104//104 
f 120//120 115//115 105//105 
f 123//123 106//106 125//125 
f 124//124 132//132 107//107 
f 116//116 107//107 132//132 
f 116//116 133//133 117//117 
f 133//133 111//111 117//117 
f 126//126 109//109 108//108 
f 113//113 128//128 127//127 
f 109//109 126//126 119//119 
f 114//114 129//129 121//121 
f 95//95 121//121 85//85 
f 85//85 121//121 131//131 
f 120//120 134//134 115//115 
f 130//130 122//122 135//135 
f 122//122 123//123 135//135 
f 115//115 136//136 124//124 
f 135//135 123//123 125//125 
f 133//133 125//125 118//118 
f 118//118 111//111 133//133 
f 137//137 127//127 128//128 
f 126//126 138//138 119//119 
f 121//121 129//129 139//139 
f 140//140 137//137 130//130 
f 128//128 130//130 137//137 
f 131//131 134//134 120//120 
f 139//139 131//131 121//121 
f 130//130 135//135 140//140 
f 115//115 134//134 136//136 
f 135//135 125//125 141//141 
f 124//124 136//136 132//132 
f 132//132 142//142 116//116 
f 142//142 143//143 116//116 
f 133//133 144//144 125//125 
f 116//116 143//143 133//133 
f 145//145 126//126 127//127 
f 146//146 127//127 137//137 
f 119//119 147//147 129//129 
f 119//119 138//138 147//147 
f 145//145 138//138 126//126 
f 127//127 146//146 145//145 
f 129//129 147//147 139//139 
f 140//140 146//146 137//137 
f 146//146 140//140 148//148 
f 131//131 149//149 134//134 
f 140//140 135//135 148//148 
f 134//134 149//149 136//136 
f 135//135 141//141 148//148 
f 143//143 144//144 133//133 
f 141//141 125//125 144//144 
f 147//147 150//150 139//139 
f 138//138 151//151 147//147 
f 145//145 151//151 138//138 
f 146//146 152//152 145//145 
f 139//139 149//149 131//131 
f 146//146 148//148 152//152 
f 148//148 153//153 152//152 
f 148//148 141//141 153//153 
f 149//149 142//142 136//136 
f 153//153 141//141 144//144 
f 142//142 132//132 136//136 
f 139//139 150//150 154//154 
f 151//151 150//150 147//147 
f 139//139 154//154 149//149 
f 145//145 155//155 151//151 
f 155//155 156//156 151//151 
f 145//145 152//152 155//155 
f 152//152 153//153 155//155 
f 154//154 142//142 149//149 
f 144//144 143//143 156//156 
f 153//153 144//144 155//155 
f 155//155 144//144 156//156 
f 154//154 150//150 157//157 
f 151//151 157//157 150//150 
f 151//151 156//156 157//157 
f 157//157 142//142 154//154 
f 143//143 142//142 157//157 
f 156//156 143//143 157//157 
