# wavefront obj file written by the visualization toolkit


v 10692 4230.7 4629.4
v 10639.4 4273.6 4610.16
v 10672.1 4283.78 4611.73
v 10686.1 4290.98 4622.2
v 10612.1 4301.18 4625.84
v 10631.5 4331.3 4636.16
v 10591.2 4237.56 4643.31
v 10707.4 4256.14 4627.54
v 10565 4300.44 4662.4
v 10518.4 4243.71 4666.87
v 10733.2 4152.87 4691.51
v 10728.7 4228.47 4654.16
v 10600.4 4114.92 4695.65
v 10665.9 4279.17 4658.76
v 10432.6 4164.94 4699.86
v 10499 4133.77 4692.88
v 10732.1 4233.82 4661.57
v 10500.8 4001.61 4732.44
v 10435.2 4055.23 4726.97
v 10401.5 4089.66 4731.93
v 10748.1 4164.65 4706.52
v 10478.1 4227.52 4700.6
v 10508.9 4251.51 4714.04
v 10624.7 4215.13 4727.63
v 10062.3 3191.51 4715.51
v 10108.7 3146.36 4734.24
v 10015 3206.74 4736.22
v 10120.6 3238.56 4723.91
v 10164.2 3146.17 4747.58
v 10158.6 3220.33 4742
v 10046.5 3245 4733.08
v 10159.3 3274.06 4744.87
v 10170.2 3265.1 4749.84
v 10092.8 3268.41 4745.29
v 10586.3 4022.26 4741.8
v 10655.7 4045.67 4749.61
v 10724.2 4094 4750.09
v 10417.2 4137.37 4733.34
v 10715.1 4173.91 4721.54
v 10137.8 3107.92 4764.29
v 10113 3090.82 4762.13
v 10095.9 3109.84 4761.95
v 10039.8 3172.57 4751.14
v 9986.86 3225.19 4752.65
v 9998.28 3239.33 4751.14
v 10051.7 3267.08 4755.46
v 10434.5 3924.19 4760.2
v 10417 3992.08 4762.65
v 10712.6 4080.9 4780.5
v 10457.8 4186.76 4737.66
v 10112.3 3119.96 4745.78
v 10066.9 3163.6 4761.72
v 10143.1 3163.54 4745.75
v 10020.1 3255.15 4758.79
v 10122.2 3279.46 4754.97
v 10152.6 3272.19 4754.38
v 10477.5 3861.42 4787.24
v 10558.3 3943.39 4774.72
v 10422.5 3881.01 4787.05
v 10614.9 3936.83 4814.16
v 10411.4 4047.98 4759.08
v 10676.6 4131.18 4774.22
v 10014.3 3211.6 4765.98
v 10138.4 3232.66 4759.09
v 10072.2 3256.71 4766.74
v 10437.7 3823.45 4808.11
v 10524.8 3839.52 4839.33
v 10423.4 3936.1 4803.02
v 10661 4013.91 4799.57
v 10460.9 4073.71 4784.8
v 10608 4139.65 4788.44
v 10531.8 4158.55 4762.15
v 10099.7 3193.32 4768.46
v 10052.1 3219.51 4773.09
v 10090.1 3225.03 4766.33
v 10027.6 3232.4 4760.88
v 10458.8 3803.35 4832
v 10449.3 3792.43 4841.6
v 10440.4 3842.63 4820.93
v 10624.5 3943.55 4837.63
v 10474.1 3944.57 4841.45
v 10568.2 4070.45 4816.63
v 10484.5 3813.42 4871.75
v 10576.3 3882.44 4854.77
v 10617.8 3959.14 4847.28
v 10525.4 3992.87 4844.43
v 10631.8 4059.85 4813.44
v 9739.06 3344.09 4902.68
v 9753.43 3343.97 4898.26
v 9749.17 3343.58 4915.44
v 9769.01 3326.49 4902.85
v 9745.64 3349.39 4912.46
v 10530.3 3840.9 4860.92
v 10477.4 3862.24 4850.06
v 10537.8 3929.32 4861.22
v 10576 4001.12 4836.32
v 9760.37 3315.77 4912.92
v 9730.94 3338.04 4916.17
v 9761.24 3320.25 4906.95
v 10541.2 3876.22 4852.23
v 9222.26 2839.56 5014.65
v 9216.65 2842.75 5020.46
v 9208.7 2849.57 5017.02
v 9194.74 2816.59 5011.95
v 9213.97 2812.21 6337.95
v 9226.16 2840.03 6355.73
v 9175.92 2832.34 6367.03
v 9749.47 3311.71 6499.82
v 9753.27 3309.34 6499.79
v 9760.4 3319.93 6510.76
v 9759.47 3349.71 6498.26
v 9756.99 3346.77 6506.76
v 9764.44 3319.11 6490.08
v 10561.4 3880.66 6502.64
v 10482.8 3793.87 6517.14
v 10483.6 3869.46 6531.05
v 10549.2 3852.65 6516.47
v 10561 3973.25 6532.88
v 10619.4 3938.41 6531.32
v 10502.2 3809.02 6535.37
v 10452.7 3796.37 6540.24
v 10558.8 3880.27 6552.66
v 10493.8 4014.01 6562.43
v 10634.9 3996.6 6547.83
v 9755.02 3344.32 6488.03
v 10457.3 3795.15 6551.61
v 10449.1 3845.99 6560.94
v 10432.8 3956.25 6582.42
v 10688.8 4024 6579.07
v 10583.1 4076.53 6574.3
v 10505 3844.98 6569.37
v 10425.6 3892.56 6590.47
v 10637.9 3982.85 6586.31
v 10437.8 4056.52 6590.86
v 10674 4109.29 6609.78
v 10489.1 4130.84 6603.38
v 10027.9 3208.33 6609.88
v 10094.2 3213.73 6608.39
v 10077 3142.94 6621.83
v 10129.2 3161.28 6622.29
v 10040.6 3247.41 6611
v 10116.2 3263.29 6622.98
v 10445.9 3858.67 6584.68
v 10428.6 4123.4 6619.08
v 10115.8 3108.01 6633.76
v 10022.5 3163.5 6631.88
v 10000.1 3229.79 6623.96
v 10158.6 3160.73 6636.16
v 10153.4 3220.19 6634.02
v 10053.2 3264.82 6632.45
v 10160.7 3266.89 6646.62
v 10126.7 3272.84 6640.96
v 10430.3 3907.01 6600.53
v 10552.1 3938.56 6609.1
v 10419.8 3955.66 6609.87
v 10633.6 4035.32 6636.88
v 10414.7 4057.04 6622.95
v 10703.5 4089.03 6648.04
v 10739.5 4123.47 6653.32
v 10708.3 4212.3 6679.89
v 10474.6 4199.33 6642.02
v 10573.9 4213.72 6655.77
v 10073.2 3114.98 6645.19
v 10084.4 3118.18 6639.58
v 10111.1 3103.54 6638.75
v 10130.5 3122.78 6639.1
v 10010.2 3211.58 6646.91
v 10166.2 3221.91 6651.22
v 10013.9 3239.18 6636.42
v 10481.9 3867.26 6585.57
v 10438.8 4172.92 6658.91
v 10153.5 3163.57 6648.37
v 10042.8 3164.06 6647.76
v 10071.5 3254.43 6654.76
v 10131.1 3268.29 6651.99
v 10480.8 3987.63 6636.78
v 10761.4 4170.32 6698.54
v 10414.4 4116.24 6663.66
v 10751.6 4176.65 6688.67
v 10467.5 4215.48 6701.46
v 10500.9 4240.1 6679.95
v 10120.9 3147.82 6652.49
v 10074.6 3229.61 6667.75
v 10159.3 3254.8 6659.45
v 10114.7 3236.88 6665.56
v 10447 4075.68 6659.16
v 10731.8 4230.31 6719.13
v 10500.3 4257.74 6704.4
v 10643 4289.45 6722.61
v 10567 4291.09 6725.56
v 10087.1 3191.38 6657
v 10135.9 3203.87 6653.15
v 10515.4 4146.5 6709.04
v 10470 4166.15 6694.09
v 10631.4 4104.92 6689.26
v 10715.1 4146.01 6699.51
v 10688.4 4265.22 6727.23
v 10542.8 4286.37 6738.45
v 10711 4201.01 6732.78
v 10538.5 4238.1 6737.83
v 10719.4 4240.27 6738.69
v 10664 4290.15 6749.54
v 10616.6 4304.87 6744.54
v 10601.3 4300.96 6745.46
v 10622.5 4215.47 6742.15
v 10667.5 4257.42 6749.98
v 10606.2 4268.81 6740.94
v 10621.4 4325.3 4612.42
v 10153.4 3145.2 4721.7
v 10134.4 3105.61 4734.75
v 10113.2 3090.79 4730.94
v 10094.7 3111.64 4734.35
v 10495.9 3797.12 4854.44
v 9751.64 3314.82 4900.87
v 9758.16 3323.22 4914.24
v 9736.47 3329.96 4893.74
v 9734.86 3316.27 4911.27
v 9763.91 3329.87 4906.87
v 9741.89 3345.93 4899.38
v 9768.74 3323.73 4906.8
v 9750.51 3342.2 4927.4
v 9760.7 3338.95 4910.27
v 9749.8 3314.57 4922.22
v 9201.13 2812.2 5009.22
v 9195.52 2815.38 5015.03
v 9187.56 2822.21 5011.59
v 9740.01 3339.08 6498.4
v 9759.53 3314.26 6483.72
v 9737.43 3338.16 6490.33
v 9760.35 3342.34 6485.42
v 9761.63 3323.2 6484.29
v 9767.97 3326.89 6481.62
v 9753.38 3324.76 6514.61
v 9761.57 3346.51 6490.62
vn 0.201937 -0.394607 -0.896385
vn -0.17764 -0.125356 -0.976079
vn 0.209731 0.214359 -0.953972
vn 0.610121 0.668763 -0.424862
vn -0.314788 0.367313 -0.875208
vn -0.271796 0.460987 -0.844759
vn -0.265408 -0.282855 -0.921711
vn 0.61601 0.0343359 -0.786989
vn -0.403254 0.910599 0.0905248
vn -0.516585 0.209701 -0.83016
vn 0.536564 -0.495154 -0.683317
vn 0.840969 0.00302328 -0.541074
vn 0.0771335 -0.452153 -0.888599
vn 0.33638 0.723888 0.602358
vn -0.686418 0.16104 -0.709152
vn -0.175395 -0.251845 -0.951741
vn 0.785727 0.558477 0.265965
vn 0.0535148 -0.359507 -0.931607
vn -0.395482 -0.247288 -0.884558
vn -0.955383 -0.0257299 -0.294246
vn 0.992968 0.0383986 0.111979
vn -0.750454 0.658756 -0.0534606
vn -0.278223 0.687138 0.671143
vn 0.152096 0.620451 0.769355
vn -0.183651 -0.0951499 -0.978376
vn -0.0374797 -0.409761 -0.911423
vn -0.587636 -0.284933 -0.757296
vn 0.185995 0.201889 -0.961586
vn 0.212291 -0.232708 -0.949094
vn 0.932151 -0.117148 -0.342593
vn -0.257616 0.476137 -0.84079
vn 0.458155 0.735893 -0.498553
vn 0.86099 0.204248 0.465811
vn -0.099111 0.752588 -0.65099
vn 0.229576 -0.452524 -0.861694
vn 0.426011 -0.58389 -0.691076
vn 0.803395 -0.560739 -0.20032
vn -0.825305 0.415207 0.382721
vn 0.466342 0.528155 0.709632
vn 0.257511 -0.451778 -0.854157
vn -0.0508716 -0.451061 -0.891042
vn -0.420888 -0.423293 -0.802294
vn -0.682475 -0.730792 0.0130851
vn -0.900812 -0.028605 0.433267
vn -0.645938 0.6042 -0.466591
vn -0.286774 0.955525 -0.0688003
vn -0.411064 -0.317135 -0.854665
vn -0.936554 -0.161521 -0.311091
vn 0.737635 0.0303169 0.674518
vn -0.483044 0.521114 0.703639
vn 0.0582393 -0.371936 0.926429
vn -0.240835 -0.431553 0.869345
vn 0.606128 -0.175035 0.775868
vn -0.437322 0.606711 0.663815
vn -0.00259969 0.978243 0.207448
vn 0.312682 0.576734 0.754723
vn 0.202911 -0.528967 -0.824027
vn 0.347334 -0.510109 -0.78686
vn -0.964106 -0.213489 -0.157867
vn 0.68696 -0.621858 -0.376004
vn -0.866886 0.11247 0.485653
vn 0.329784 0.460681 0.824024
vn -0.425248 -0.17921 0.887157
vn 0.396943 -0.0384192 0.917039
vn -0.035301 0.375934 0.925974
vn -0.591379 -0.589906 -0.549801
vn 0.574234 -0.751343 -0.325176
vn -0.827658 0.0609957 0.557908
vn 0.850258 -0.526076 0.0174746
vn -0.420038 0.343191 0.840112
vn 0.0567837 0.483386 0.873564
vn -0.135878 0.474993 0.869436
vn 0.174017 -0.117455 0.977713
vn -0.0692572 0.0604853 0.995764
vn 0.148177 0.0999943 0.983893
vn -0.287895 0.23722 0.927816
vn 0.22812 -0.87049 -0.436129
vn -0.646568 -0.63127 0.428309
vn -0.888337 -0.0930925 0.449657
vn 0.849809 -0.419334 0.31935
vn -0.432227 0.194504 0.880539
vn -0.0641141 0.378983 0.92318
vn 0.459753 -0.888004 -0.00875272
vn 0.650661 -0.5081 0.564335
vn 0.429792 -0.0198593 0.902709
vn -0.134508 0.315723 0.939269
vn 0.194339 0.303376 0.932843
vn -0.016797 -0.9995 -0.0267869
vn -0.016797 -0.9995 -0.0267869
vn -0.016797 -0.9995 -0.0267869
vn -0.616548 0.753639 -0.227811
vn 0.677015 -0.7162 -0.169434
vn 0.436489 -0.485909 0.757212
vn -0.392555 0.0197699 0.919516
vn -0.0245438 0.0940093 0.995269
vn 0.0909795 0.283702 0.954587
vn -0.500134 0.863349 0.0670418
vn 0.879817 -0.46556 -0.0957877
vn -0.847869 0.463779 0.256957
vn 0.0364498 -0.010776 0.999277
vn -0.603781 -0.781938 -0.154987
vn -0.603781 -0.781938 -0.154987
vn -0.603781 -0.781938 -0.154987
vn 0.603781 0.781938 0.154987
vn 0.261904 -0.598723 0.756926
vn 0.261904 -0.598723 0.756926
vn 0.261904 -0.598723 0.756926
vn -0.061939 0.826809 -0.559062
vn -0.545533 0.834136 -0.0813069
vn -0.061939 0.826809 -0.559062
vn 0.447161 -0.890164 -0.0874967
vn 0.445149 -0.375961 -0.812709
vn -0.18215 0.760139 0.623707
vn 0.215564 -0.0666778 -0.974211
vn 0.06527 -0.756357 -0.650894
vn -0.494372 0.153434 -0.855602
vn 0.712619 -0.671098 -0.204455
vn -0.118889 0.312283 -0.94252
vn 0.806278 -0.495905 -0.322482
vn 0.549964 -0.773097 0.316006
vn -0.836368 -0.32947 -0.438107
vn 0.647248 -0.620575 0.44267
vn -0.284379 0.263121 -0.921898
vn 0.31854 0.245011 -0.915697
vn 0.164301 -0.748791 0.642119
vn -0.245353 -0.785174 0.568598
vn -0.958787 -0.188856 -0.212276
vn -0.783721 0.0542893 -0.618736
vn 0.876222 -0.309457 -0.36942
vn 0.031834 0.424408 -0.904911
vn 0.376206 -0.566845 0.732909
vn -0.939658 -0.299958 0.164523
vn 0.587784 -0.644806 0.488606
vn -0.547149 0.202689 -0.812124
vn 0.330907 0.413428 -0.848279
vn -0.149476 0.410582 -0.899488
vn -0.336094 -0.142656 -0.930962
vn 0.155185 0.0135048 -0.987793
vn -0.157166 -0.404449 -0.900955
vn 0.323992 -0.169312 -0.930786
vn -0.214002 0.470535 -0.856037
vn 0.205177 0.583999 -0.785397
vn -0.477527 -0.4851 0.732561
vn -0.667427 0.371692 -0.64528
vn 0.287835 -0.693933 -0.660006
vn -0.783843 -0.589949 -0.19378
vn -0.892909 0.335124 -0.300676
vn 0.877997 -0.336883 -0.340046
vn 0.633321 0.0847954 -0.769229
vn -0.308911 0.95102 -0.0116556
vn 0.705706 0.69608 -0.132104
vn 0.0758816 0.992196 -0.0989377
vn -0.481715 -0.325283 0.813721
vn 0.325532 -0.52373 0.787233
vn -0.835666 -0.18628 0.516685
vn 0.393314 -0.583141 0.71081
vn -0.996101 0.0106795 -0.0875767
vn 0.527578 -0.653538 0.542725
vn 0.867542 -0.0247495 -0.496747
vn 0.411082 0.555401 -0.72287
vn -0.335627 0.62023 -0.708991
vn 0.0605714 0.589572 -0.805441
vn -0.378375 -0.645953 0.663006
vn -0.387412 -0.78394 -0.48513
vn 0.118349 -0.950189 0.288332
vn 0.660834 -0.638142 0.395061
vn -0.601246 -0.0141582 0.798939
vn 0.933316 -0.0405416 0.35676
vn -0.60841 0.610592 0.506967
vn 0.0915477 -0.440253 0.893195
vn -0.83176 0.513822 -0.210147
vn 0.570186 -0.282906 0.771267
vn -0.441091 -0.306047 0.843667
vn -0.245441 0.558328 0.792483
vn 0.0220757 0.775809 0.630582
vn -0.115748 -0.36388 0.924226
vn 0.875014 -0.221207 0.430601
vn -0.795095 -0.0635078 0.603151
vn 0.779718 0.374908 -0.501482
vn -0.725807 0.261873 0.636102
vn -0.314918 0.747967 -0.58427
vn 0.160795 -0.272054 0.948753
vn -0.150744 0.074 0.985799
vn 0.429762 0.234065 0.872077
vn 0.0617086 0.115271 0.991416
vn -0.457891 -0.309157 0.833521
vn 0.76675 0.628429 -0.131044
vn -0.618751 0.774493 -0.131562
vn 0.246251 0.810426 -0.531573
vn -0.211303 0.91282 -0.349443
vn -0.0432241 -0.180993 0.982534
vn 0.222569 -0.136635 0.965295
vn -0.200892 -0.320357 0.92575
vn -0.391719 -0.185685 0.901153
vn 0.149298 -0.510927 0.84656
vn 0.29645 -0.583823 0.755823
vn 0.511661 0.777007 -0.366691
vn -0.447776 0.546485 0.707709
vn 0.218228 -0.340142 0.914702
vn -0.266942 -0.0745877 0.960822
vn 0.588489 0.180803 0.78803
vn 0.399136 0.714773 0.574274
vn 0.0310554 0.997629 0.0614238
vn -0.165368 0.643187 0.747639
vn -0.0398212 -0.237346 0.970609
vn 0.0586465 -0.0175671 0.998124
vn -0.0863988 0.0302329 0.995802
vn 0.303313 0.803695 0.511934
vn 0.829171 -0.177236 0.530154
vn 0.450738 -0.319331 0.833584
vn -0.0648829 -0.449033 0.891156
vn -0.351355 -0.525932 0.774561
vn -0.192928 0.0435004 0.980248
vn -0.735699 0.672969 0.0765465
vn -0.286908 0.186402 -0.939648
vn 0.952149 -0.199011 0.231964
vn 0.800419 0.560946 0.21135
vn -0.859545 -0.216041 0.463152
vn 0.933458 -0.357438 -0.0299079
vn -0.64304 0.75018 0.154045
vn 0.0631408 -0.646398 -0.760383
vn -0.820775 -0.517692 0.241504
vn -0.198247 0.875245 -0.441186
vn 0.603773 0.78194 0.155009
vn 0.603781 0.781946 0.154952
vn 0.60379 0.781929 0.155001
vn 0.478404 -0.737036 -0.477397
vn -0.637077 0.680991 0.361088
vn 0.359727 -0.812474 0.458784
vn -0.0590001 -0.454109 0.88899
vn 0.324177 0.624783 0.710321
vn -0.18215 0.760139 0.623707
vn 0.450282 0.437359 -0.778437
vn -0.0181039 -0.805145 0.592802

g grp1
usemtl mtl1
f 1//1 2//2 3//3 
f 4//4 3//3 5//5 
f 5//5 3//3 2//2 
f 4//4 5//5 6//6 
f 1//1 7//7 2//2 
f 8//8 1//1 3//3 
f 7//7 5//5 2//2 
f 3//3 4//4 8//8 
f 9//9 5//5 10//10 
f 5//5 9//9 6//6 
f 11//11 1//1 12//12 
f 1//1 13//13 7//7 
f 8//8 12//12 1//1 
f 14//14 4//4 208//208 
f 13//13 1//1 11//11 
f 15//15 10//10 16//16 
f 7//7 16//16 10//10 
f 7//7 10//10 5//5 
f 12//12 8//8 4//4 
f 12//12 4//4 17//17 
f 4//4 14//14 17//17 
f 208//208 9//9 14//14 
f 18//18 19//19 16//16 
f 13//13 18//18 16//16 
f 13//13 16//16 7//7 
f 15//15 19//19 20//20 
f 16//16 19//19 15//15 
f 11//11 12//12 21//21 
f 15//15 22//22 10//10 
f 21//21 12//12 17//17 
f 9//9 22//22 23//23 
f 10//10 22//22 9//9 
f 9//9 24//24 14//14 
f 23//23 24//24 9//9 
f 25//25 26//26 27//27 
f 26//26 25//25 28//28 
f 29//29 26//26 30//30 
f 30//30 26//26 28//28 
f 31//31 25//25 27//27 
f 28//28 25//25 31//31 
f 30//30 28//28 32//32 
f 32//32 33//33 30//30 
f 31//31 34//34 28//28 
f 32//32 28//28 34//34 
f 35//35 18//18 13//13 
f 36//36 11//11 37//37 
f 11//11 36//36 13//13 
f 11//11 21//21 37//37 
f 38//38 15//15 20//20 
f 22//22 15//15 38//38 
f 39//39 21//21 17//17 
f 39//39 14//14 24//24 
f 39//39 17//17 14//14 
f 26//26 40//40 41//41 
f 26//26 42//42 43//43 
f 29//29 40//40 26//26 
f 43//43 27//27 26//26 
f 44//44 45//45 27//27 
f 27//27 45//45 31//31 
f 46//46 31//31 45//45 
f 34//34 31//31 46//46 
f 47//47 48//48 19//19 
f 18//18 47//47 19//19 
f 48//48 20//20 19//19 
f 13//13 36//36 35//35 
f 21//21 49//49 37//37 
f 39//39 49//49 21//21 
f 50//50 22//22 38//38 
f 41//41 42//42 26//26 
f 210//210 51//51 211//211 
f 212//212 52//52 43//43 
f 44//44 27//27 43//43 
f 30//30 53//53 209//209 
f 54//54 45//45 44//44 
f 45//45 54//54 46//46 
f 34//34 46//46 55//55 
f 32//32 34//34 55//55 
f 32//32 55//55 56//56 
f 18//18 57//57 47//47 
f 57//57 18//18 58//58 
f 59//59 48//48 47//47 
f 35//35 58//58 18//18 
f 58//58 36//36 60//60 
f 35//35 36//36 58//58 
f 48//48 61//61 20//20 
f 61//61 38//38 20//20 
f 22//22 50//50 23//23 
f 62//62 39//39 24//24 
f 53//53 51//51 210//210 
f 210//210 209//209 53//53 
f 52//52 63//63 43//43 
f 43//43 63//63 44//44 
f 64//64 53//53 30//30 
f 30//30 33//33 64//64 
f 46//46 54//54 65//65 
f 33//33 56//56 64//64 
f 55//55 46//46 65//65 
f 33//33 32//32 56//56 
f 57//57 66//66 47//47 
f 67//67 57//57 58//58 
f 59//59 47//47 66//66 
f 48//48 59//59 68//68 
f 48//48 68//68 61//61 
f 36//36 37//37 69//69 
f 61//61 70//70 38//38 
f 49//49 39//39 62//62 
f 70//70 50//50 38//38 
f 62//62 24//24 71//71 
f 23//23 50//50 72//72 
f 24//24 23//23 72//72 
f 212//212 211//211 51//51 
f 51//51 52//52 212//212 
f 51//51 73//73 52//52 
f 51//51 53//53 73//73 
f 74//74 63//63 52//52 
f 73//73 74//74 52//52 
f 73//73 64//64 75//75 
f 73//73 53//53 64//64 
f 76//76 54//54 44//44 
f 63//63 76//76 44//44 
f 54//54 76//76 65//65 
f 56//56 65//65 64//64 
f 56//56 55//55 65//65 
f 66//66 57//57 77//77 
f 78//78 66//66 77//77 
f 77//77 57//57 67//67 
f 66//66 78//78 79//79 
f 66//66 79//79 59//59 
f 79//79 68//68 59//59 
f 58//58 60//60 67//67 
f 60//60 36//36 69//69 
f 49//49 69//69 37//37 
f 72//72 50//50 70//70 
f 24//24 72//72 71//71 
f 73//73 75//75 74//74 
f 63//63 74//74 76//76 
f 74//74 65//65 76//76 
f 75//75 65//65 74//74 
f 64//64 65//65 75//75 
f 80//80 60//60 69//69 
f 68//68 70//70 61//61 
f 81//81 70//70 68//68 
f 82//82 72//72 70//70 
f 71//71 72//72 82//82 
f 77//77 83//83 78//78 
f 77//77 67//67 83//83 
f 60//60 84//84 67//67 
f 80//80 84//84 60//60 
f 69//69 85//85 80//80 
f 86//86 70//70 81//81 
f 69//69 49//49 85//85 
f 86//86 82//82 70//70 
f 87//87 49//49 62//62 
f 62//62 71//71 87//87 
f 88//88 89//89 90//90 
f 215//215 214//214 91//91 
f 92//92 216//216 219//219 
f 67//67 93//93 83//83 
f 84//84 93//93 67//67 
f 68//68 79//79 94//94 
f 81//81 68//68 94//94 
f 80//80 85//85 84//84 
f 86//86 81//81 95//95 
f 85//85 49//49 87//87 
f 96//96 82//82 86//86 
f 82//82 96//96 87//87 
f 87//87 71//71 82//82 
f 91//91 214//214 97//97 
f 220//220 91//91 97//97 
f 213//213 94//94 78//78 
f 78//78 94//94 79//79 
f 95//95 81//81 94//94 
f 96//96 86//86 95//95 
f 85//85 87//87 96//96 
f 98//98 217//217 216//216 
f 216//216 92//92 98//98 
f 97//97 214//214 99//99 
f 98//98 92//92 221//221 
f 93//93 100//100 213//213 
f 94//94 213//213 100//100 
f 100//100 95//95 94//94 
f 100//100 93//93 84//84 
f 84//84 85//85 100//100 
f 85//85 95//95 100//100 
f 85//85 96//96 95//95 
f 218//218 222//222 99//99 
f 218//218 99//99 214//214 
f 223//223 97//97 99//99 
f 101//101 102//102 103//103 
f 224//224 104//104 225//225 
f 226//226 225//225 104//104 
f 226//226 104//104 224//224 
f 105//105 106//106 107//107 
f 108//108 109//109 110//110 
f 229//229 227//227 111//111 
f 111//111 227//227 112//112 
f 232//232 228//228 113//113 
f 108//108 110//110 233//233 
f 114//114 115//115 116//116 
f 117//117 115//115 114//114 
f 116//116 118//118 114//114 
f 114//114 119//119 117//117 
f 113//113 231//231 232//232 
f 115//115 117//117 120//120 
f 121//121 116//116 115//115 
f 122//122 117//117 119//119 
f 116//116 123//123 118//118 
f 119//119 114//114 124//124 
f 118//118 124//124 114//114 
f 125//125 229//229 111//111 
f 125//125 230//230 229//229 
f 111//111 234//234 125//125 
f 234//234 230//230 125//125 
f 126//126 121//121 115//115 
f 127//127 116//116 121//121 
f 120//120 117//117 122//122 
f 116//116 127//127 128//128 
f 123//123 116//116 128//128 
f 129//129 119//119 124//124 
f 118//118 123//123 130//130 
f 115//115 120//120 126//126 
f 121//121 126//126 127//127 
f 131//131 120//120 122//122 
f 128//128 127//127 132//132 
f 119//119 133//133 122//122 
f 134//134 123//123 128//128 
f 129//129 124//124 135//135 
f 136//136 123//123 134//134 
f 130//130 123//123 136//136 
f 124//124 118//118 130//130 
f 137//137 138//138 139//139 
f 139//139 138//138 140//140 
f 138//138 137//137 141//141 
f 142//142 138//138 141//141 
f 120//120 131//131 126//126 
f 126//126 143//143 127//127 
f 132//132 127//127 143//143 
f 133//133 119//119 129//129 
f 136//136 134//134 144//144 
f 130//130 135//135 124//124 
f 145//145 139//139 140//140 
f 137//137 139//139 146//146 
f 137//137 146//146 147//147 
f 148//148 140//140 149//149 
f 149//149 140//140 138//138 
f 137//137 147//147 141//141 
f 149//149 138//138 142//142 
f 150//150 141//141 147//147 
f 141//141 150//150 142//142 
f 142//142 151//151 149//149 
f 142//142 150//150 152//152 
f 153//153 132//132 143//143 
f 122//122 154//154 131//131 
f 122//122 133//133 154//154 
f 155//155 128//128 132//132 
f 133//133 156//156 154//154 
f 128//128 157//157 134//134 
f 155//155 157//157 128//128 
f 129//129 158//158 133//133 
f 129//129 135//135 159//159 
f 144//144 134//134 157//157 
f 159//159 135//135 160//160 
f 136//136 144//144 161//161 
f 130//130 136//136 162//162 
f 162//162 136//136 161//161 
f 163//163 164//164 165//165 
f 164//164 145//145 165//165 
f 145//145 166//166 165//165 
f 145//145 164//164 139//139 
f 146//146 139//139 164//164 
f 148//148 166//166 145//145 
f 145//145 140//140 148//148 
f 147//147 146//146 167//167 
f 148//148 149//149 168//168 
f 147//147 167//167 169//169 
f 151//151 168//168 149//149 
f 147//147 169//169 150//150 
f 152//152 151//151 142//142 
f 126//126 170//170 143//143 
f 170//170 126//126 131//131 
f 170//170 131//131 154//154 
f 155//155 132//132 153//153 
f 133//133 158//158 156//156 
f 129//129 159//159 158//158 
f 144//144 157//157 171//171 
f 161//161 144//144 171//171 
f 162//162 135//135 130//130 
f 160//160 135//135 162//162 
f 164//164 163//163 146//146 
f 166//166 148//148 172//172 
f 173//173 167//167 146//146 
f 168//168 172//172 148//148 
f 150//150 169//169 174//174 
f 150//150 174//174 175//175 
f 150//150 175//175 152//152 
f 151//151 152//152 175//175 
f 170//170 176//176 143//143 
f 143//143 176//176 153//153 
f 154//154 176//176 170//170 
f 153//153 176//176 155//155 
f 177//177 158//158 159//159 
f 178//178 171//171 157//157 
f 159//159 160//160 179//179 
f 159//159 179//179 177//177 
f 180//180 171//171 178//178 
f 161//161 171//171 181//181 
f 181//181 162//162 161//161 
f 182//182 163//163 165//165 
f 165//165 166//166 182//182 
f 163//163 173//173 146//146 
f 182//182 166//166 172//172 
f 174//174 169//169 167//167 
f 174//174 167//167 183//183 
f 168//168 151//151 184//184 
f 174//174 185//185 175//175 
f 175//175 184//184 151//151 
f 155//155 176//176 186//186 
f 157//157 155//155 186//186 
f 157//157 186//186 178//178 
f 179//179 160//160 187//187 
f 181//181 171//171 188//188 
f 162//162 189//189 160//160 
f 162//162 181//181 190//190 
f 189//189 162//162 190//190 
f 163//163 191//191 173//173 
f 182//182 191//191 163//163 
f 172//172 192//192 182//182 
f 182//182 192//192 191//191 
f 173//173 191//191 167//167 
f 172//172 168//168 192//192 
f 167//167 191//191 183//183 
f 185//185 174//174 183//183 
f 192//192 168//168 184//184 
f 175//175 185//185 184//184 
f 176//176 193//193 186//186 
f 194//194 186//186 193//193 
f 176//176 195//195 193//193 
f 176//176 154//154 195//195 
f 154//154 156//156 195//195 
f 186//186 194//194 178//178 
f 195//195 156//156 158//158 
f 180//180 178//178 194//194 
f 158//158 177//177 196//196 
f 180//180 188//188 171//171 
f 160//160 197//197 187//187 
f 160//160 189//189 197//197 
f 191//191 185//185 183//183 
f 192//192 185//185 191//191 
f 192//192 184//184 185//185 
f 196//196 195//195 158//158 
f 177//177 179//179 187//187 
f 190//190 188//188 198//198 
f 190//190 181//181 188//188 
f 196//196 199//199 195//195 
f 200//200 180//180 194//194 
f 187//187 201//201 177//177 
f 180//180 198//198 188//188 
f 202//202 187//187 197//197 
f 189//189 202//202 197//197 
f 190//190 203//203 189//189 
f 202//202 189//189 203//203 
f 203//203 190//190 204//204 
f 199//199 196//196 177//177 
f 177//177 201//201 199//199 
f 193//193 200//200 194//194 
f 205//205 200//200 193//193 
f 180//180 200//200 198//198 
f 201//201 187//187 202//202 
f 198//198 204//204 190//190 
f 193//193 195//195 205//205 
f 199//199 205//205 195//195 
f 206//206 205//205 199//199 
f 201//201 206//206 199//199 
f 205//205 207//207 200//200 
f 206//206 201//201 202//202 
f 198//198 200//200 207//207 
f 204//204 198//198 207//207 
f 204//204 202//202 203//203 
f 206//206 207//207 205//205 
f 202//202 204//204 207//207 
f 206//206 202//202 207//207 
