# wavefront obj file written by the visualization toolkit


v 8249.9 3228.48 5357.27
v 8202.2 3285.29 5349
v 8191.11 3326.48 5351.97
v 8253.08 3241.46 5377.53
v 7976.47 3292.27 5369.88
v 8078.77 3337.73 5349.98
v 8028.79 3286.58 5356.39
v 8068.23 3357.55 5363.92
v 8120.09 3292.56 5355.3
v 8136.7 3367.23 5358.8
v 8177.73 3364.82 5367.52
v 8222.67 3156.25 5385.53
v 8260.15 3140.35 5397.52
v 8245.13 3091.2 5429.32
v 8151.12 3229.5 5374.4
v 8262.08 3164.74 5405.89
v 7969.56 3170.13 5417.99
v 7970.74 3233.89 5381.35
v 8048.21 3235.73 5382.46
v 8123.98 3372 5369.77
v 7862.56 3146.05 5408.56
v 7904.22 3172.62 5405.46
v 7881.35 3119.91 5444.06
v 7910.51 3194.78 5418.1
v 8071.77 3190.6 5411.61
v 8144.66 3146.46 5422.64
v 8011.83 3307.42 5419.43
v 8220.79 3283.61 5395.41
v 8084.61 3343.6 5405.34
v 8204.66 3088.27 5444.12
v 8254.92 3082.82 5486.39
v 8241.38 3180.66 5464.83
v 7954.02 3247.08 5444.39
v 8142.58 3357.43 5390.29
v 8175.21 3317.2 5407.87
v 8233.02 3056 5483.16
v 7753.98 3041 5465.97
v 7830.86 3113.77 5459.71
v 7796.58 3039.94 5479.61
v 8149.74 3080.48 5488.18
v 8062.76 3112.74 5493.59
v 8194.58 3257.43 5449.52
v 8049.11 3291.68 5473.7
v 8138.93 3288.19 5452.4
v 8195.83 3037.27 5530.26
v 7791.13 3054.96 5524.99
v 7869.49 3059.39 5506.03
v 7949.53 3096.37 5505.39
v 7905.53 3173.24 5523.96
v 7985.38 3247.05 5516.85
v 7733.66 2995.41 5515
v 7762.78 2972.16 5532.63
v 7833.57 2998.52 5559.46
v 7734.54 2980.53 5558.73
v 8105.94 3239.94 5537.21
v 7703.33 2943.52 5579.52
v 7731.97 2930.95 5602.29
v 8115.7 3044.98 5561.49
v 8187.98 3196.97 5531.89
v 8231.36 3024.35 5563.01
v 7914.94 3030.21 5578.47
v 7860.9 3109.53 5663.57
v 8041.17 3241.87 5583.72
v 7708.75 2954.71 5636.05
v 7757.62 3008.48 5663.02
v 8173.64 3004.51 5610.45
v 8236.83 3107.84 5600.04
v 8010.84 3046.59 5576.83
v 8137.3 3200.52 5616.77
v 8085.2 3223.28 5627.53
v 7795.19 2949.45 5602.92
v 8246.15 3030.17 5661.97
v 8190.16 3159.5 5635
v 7693.69 2920.35 5646.41
v 7711.02 2910.33 5706.1
v 7792.38 2930.37 5675.09
v 7687.8 2934.04 5708.21
v 7868.2 2980.16 5627.23
v 8217.78 2997.04 5669.85
v 7970.45 3203.56 5646.51
v 7966.16 3004.06 5638.01
v 8087.73 3002.81 5635.32
v 8252.83 3073.7 5763.52
v 8049.52 3228.14 5698.88
v 8138.7 3208.27 5744.54
v 8167.01 2988.88 5678.88
v 8232.57 3000.35 5747.05
v 8188.04 3168.88 5718.92
v 7691.8 2928.84 5745.17
v 7887.86 2964.02 5682.9
v 8004.43 2990.53 5700.86
v 8118.51 2988.61 5704.08
v 8229.27 3128.68 5741.26
v 7713.8 2971.71 5760.45
v 7787.31 3057.8 5803.19
v 7927.29 3183.07 5744.15
v 7750.43 2916.52 5747.37
v 7819.95 2942.03 5728.77
v 8183.62 2995.76 5753.04
v 7878.82 2965.72 5735.43
v 8089.94 3035.37 5783.91
v 7911.97 3002.96 5781.69
v 7997.51 3032.78 5771.26
v 8247.64 3033.33 5804.89
v 7871.26 3155.95 5839.13
v 8015 3238.98 5802.63
v 7713.02 2938.06 5793.25
v 7793.76 2975.89 5816.92
v 8157.6 3036.38 5838.77
v 7949.02 3064.33 5841.79
v 8226.58 3015.15 5824.53
v 8012.06 3080.58 5843.61
v 8259.21 3127.39 5855.62
v 7953.6 3244.8 5896.88
v 8229.11 3196.31 5861.93
v 7698.34 2962.04 5816.78
v 8112.28 3244.45 5823.4
v 8183.56 3240.58 5867.61
v 8039.35 3306.04 5926.74
v 7732.81 3008.59 5862.47
v 8198.13 3037.65 5867.66
v 7862.08 3050.12 5884.18
v 8154.32 3097.13 5916.24
v 8264.9 3094.49 5888.95
v 8056.98 3125.91 5906.74
v 7957.32 3122.41 5922.82
v 7902.35 3205.34 5961.09
v 8092.68 3286.44 5891.39
v 7714.8 2985.67 5888.22
v 8240.28 3064.54 5903.67
v 7849.66 3128.92 5919.83
v 7739.66 2995.98 5868.44
v 7798.72 3020.76 5878.81
v 7797.22 3064.31 5904.17
v 8210.16 3076.62 5924.23
v 8162.86 3311.57 5932.95
v 8225.84 3294.76 5956.14
v 7756.54 3024.26 5887.61
v 8268.25 3168.92 5942.89
v 8106.6 3342.88 5954.85
v 7801.81 3047.29 5898.01
v 8260.66 3133.26 5967.71
v 7869.42 3123.77 5940.58
v 8099.94 3185.28 5972.21
v 8032.36 3187.08 5971.51
v 8254.62 3244.78 5966.24
v 7962.73 3277.91 5985.29
v 8022.65 3327.49 5985.24
v 8164.05 3191.39 5998.31
v 7879.65 3164.01 5956.55
v 8206.97 3355.94 5993.85
v 8095.01 3368.32 5992.77
v 8160.13 3368.17 5993.19
v 8216.62 3140.46 5969.23
v 7979.34 3219.09 5995.54
v 8233.23 3321.27 6012.06
v 7914.93 3196.68 5974.97
v 8250.36 3223.15 6004.6
v 7972.44 3264.85 5999.84
v 8020.26 3320.97 6010.85
v 8083.58 3361.34 6021.15
v 8193.06 3372.28 6015.59
v 8146.39 3375.38 6022.17
v 8240.61 3200.81 6006.07
v 8206.09 3230.82 6019.88
v 8112.15 3240.26 6010.48
v 8232.2 3244.16 6022.31
v 8076.69 3307.28 6022
v 8183.21 3294.78 6025.36
v 8139.53 3350.47 6028.36
v 8179.93 3346.47 6017.07
v 7768.42 3024.42 5455.12
v 7841.19 3098.06 5447.6
v 7744.64 2977.5 5507.34
v 7704.48 3005.67 5880.45
vn 0.51809 -0.0739208 -0.852126
vn 0.00503914 -0.0995452 -0.99502
vn 0.46466 0.363042 -0.807646
vn 0.928914 0.369364 -0.0262537
vn -0.655812 0.473404 -0.588047
vn -0.129975 0.218849 -0.967063
vn -0.117252 -0.197765 -0.973212
vn -0.385999 0.892087 -0.234917
vn -0.0378527 -0.199794 -0.979107
vn 0.0372398 0.705073 -0.708156
vn 0.52512 0.84499 0.101194
vn -0.110796 -0.490184 -0.864549
vn 0.734839 -0.374112 -0.565731
vn 0.328963 -0.710802 -0.621727
vn -0.152393 -0.397669 -0.904785
vn 0.998433 0.0507679 -0.0235347
vn 0.104196 -0.631654 -0.768216
vn -0.242464 -0.220651 -0.944735
vn -0.0164146 -0.469698 -0.882675
vn -0.0472542 0.987358 0.151301
vn -0.414779 -0.129323 -0.900685
vn -0.113218 -0.201576 -0.972907
vn 0.153776 -0.651414 -0.742975
vn -0.775264 0.530293 -0.343153
vn -0.0840848 -0.608036 -0.789444
vn -0.303547 -0.595337 -0.743931
vn -0.487843 0.814477 0.314065
vn 0.768719 0.547553 0.330541
vn -0.13862 0.825779 0.546693
vn -0.251859 -0.730028 -0.635316
vn 0.96596 -0.252379 -0.0568086
vn 0.847584 0.390841 0.35895
vn -0.712553 0.678537 0.178482
vn 0.18339 0.738374 0.648977
vn 0.462826 0.596034 0.656151
vn 0.274401 -0.85918 -0.431873
vn 0.235821 -0.578128 -0.781125
vn -0.0226309 -0.473429 -0.880541
vn 0.223617 -0.60981 -0.760347
vn -0.323085 -0.752226 -0.574258
vn -0.121883 -0.752745 -0.64693
vn 0.562166 0.596242 0.573118
vn -0.0555749 0.864147 0.500162
vn 0.281766 0.707928 0.647646
vn -0.160602 -0.875766 -0.455237
vn -0.767141 0.64128 -0.0159558
vn 0.376064 -0.724593 -0.577531
vn 0.19412 -0.768153 -0.61013
vn -0.713104 0.692539 0.108963
vn -0.481354 0.819737 0.31037
vn -0.0581949 -0.752146 -0.656422
vn 0.195208 -0.783612 -0.589785
vn 0.434703 -0.745481 -0.505263
vn -0.80426 0.586438 -0.0962154
vn 0.332206 0.863604 0.379245
vn -0.934415 -0.0247404 -0.355326
vn -0.00492567 -0.922642 -0.385627
vn -0.199223 -0.822553 -0.532651
vn 0.588288 0.708292 0.39018
vn 0.468222 -0.84619 -0.254423
vn 0.284639 -0.792668 -0.539127
vn -0.685992 0.726835 -0.0335503
vn -0.0322415 0.963623 0.265314
vn -0.787162 0.613909 -0.0590941
vn -0.732677 0.679878 -0.0308279
vn -0.0198421 -0.941222 -0.337205
vn 0.911096 0.401661 0.0925852
vn 0.0154498 -0.810976 -0.584875
vn 0.516133 0.850539 0.100942
vn 0.304161 0.946265 0.109856
vn 0.381376 -0.852815 -0.356735
vn 0.940048 -0.337989 -0.0455215
vn 0.690246 0.721372 0.0564241
vn -0.665194 -0.728979 -0.161574
vn -0.130079 -0.990613 0.0420276
vn 0.304215 -0.942246 -0.140094
vn -0.978197 0.205688 -0.028698
vn 0.365648 -0.841535 -0.397643
vn 0.361526 -0.927356 -0.0964895
vn -0.482806 0.873827 0.0576552
vn 0.150011 -0.892162 -0.426079
vn -0.0596367 -0.935798 -0.347457
vn 0.993281 0.0760918 -0.0871894
vn 0.0437552 0.997626 -0.0531852
vn 0.427806 0.88008 -0.206015
vn 0.0433243 -0.994742 -0.0927937
vn 0.568119 -0.820507 0.0633159
vn 0.647169 0.74448 -0.164079
vn -0.748046 -0.634413 0.194803
vn 0.302274 -0.942162 -0.144781
vn 0.136691 -0.97477 0.176464
vn -0.064256 -0.988654 0.135771
vn 0.838746 0.520991 -0.158345
vn -0.773451 0.630554 -0.0646264
vn -0.73177 0.680362 -0.0402464
vn -0.573152 0.802562 -0.165505
vn 0.213238 -0.940864 0.263256
vn 0.356053 -0.912171 0.202904
vn -0.0486565 -0.970593 0.235757
vn 0.303695 -0.904206 0.3003
vn -0.173174 -0.84656 0.503336
vn 0.33626 -0.795417 0.504222
vn 0.157612 -0.82962 0.53562
vn 0.882748 -0.456779 0.110043
vn -0.722345 0.684942 -0.0952484
vn -0.224012 0.930093 -0.291112
vn -0.180784 -0.854568 0.486859
vn 0.290976 -0.81374 0.503149
vn -0.329116 -0.825905 0.457781
vn 0.298374 -0.786993 0.540014
vn 0.340529 -0.880892 0.328739
vn 0.0880278 -0.82892 0.552398
vn 0.94954 0.244968 -0.19587
vn -0.580646 0.77649 -0.244772
vn 0.758219 0.536256 -0.370855
vn -0.938439 -0.136522 0.317324
vn 0.180595 0.893507 -0.411135
vn 0.450639 0.723311 -0.523208
vn -0.281562 0.827213 -0.486252
vn -0.743337 0.659541 0.111607
vn -0.154261 -0.851515 0.501125
vn 0.283118 -0.705745 0.649437
vn -0.308956 -0.683714 0.661121
vn 0.969665 -0.233165 0.0733726
vn -0.0568772 -0.766702 0.639478
vn 0.157512 -0.715475 0.680651
vn -0.789138 0.506112 0.348013
vn 0.0117287 0.820532 -0.57148
vn -0.70636 0.696713 0.125082
vn 0.4376 -0.72496 0.531921
vn -0.833361 0.437337 0.338002
vn 0.0369663 -0.71126 0.701957
vn 0.217812 -0.69788 0.682292
vn -0.654973 0.349915 0.669754
vn -0.0776199 -0.700566 0.709354
vn 0.25291 0.71945 -0.64686
vn 0.678228 0.543901 -0.494145
vn -0.345029 0.0052127 0.938578
vn 0.993472 0.112771 -0.0172016
vn -0.0137336 0.778174 -0.627898
vn 0.0138801 -0.466364 0.884484
vn 0.669182 -0.418955 0.613737
vn -0.233806 -0.336527 0.912187
vn -0.169047 -0.616379 0.769091
vn 0.0183331 -0.639214 0.76881
vn 0.948452 0.289675 -0.128563
vn -0.724174 0.635296 0.268273
vn -0.547648 0.832161 -0.0871157
vn -0.171023 -0.529124 0.831131
vn -0.683183 0.083958 0.725405
vn 0.555338 0.714331 -0.42583
vn -0.23694 0.939579 -0.247084
vn 0.112025 0.896681 -0.428269
vn -0.0362538 -0.567625 0.822488
vn -0.086606 -0.375818 0.922638
vn 0.797294 0.366095 0.479892
vn -0.430205 -0.0224793 0.902451
vn 0.842906 0.0890862 0.530634
vn -0.453639 0.138135 0.880415
vn -0.515803 0.479179 0.710166
vn -0.346739 0.638022 0.687532
vn 0.422242 0.800083 0.426121
vn 0.0416335 0.80079 0.597496
vn 0.276485 -0.36478 0.889096
vn -0.0298562 -0.313835 0.949008
vn -0.0978341 -0.371986 0.923068
vn 0.446399 0.043591 0.893772
vn -0.133013 -0.0549534 0.98959
vn 0.190998 0.0795019 0.978366
vn 0.0571307 0.158717 0.98567
vn 0.241375 0.181635 0.953282
vn -0.795434 0.60601 -0.00611545
vn -0.760528 0.649131 -0.0150285
vn -0.842709 0.527271 -0.108753
vn 0.0305971 -0.732454 0.680129

g grp1
usemtl mtl1
f 1//1 2//2 3//3 
f 3//3 4//4 1//1 
f 5//5 6//6 7//7 
f 5//5 8//8 6//6 
f 9//9 7//7 6//6 
f 3//3 9//9 6//6 
f 2//2 9//9 3//3 
f 3//3 6//6 10//10 
f 11//11 3//3 10//10 
f 10//10 6//6 8//8 
f 12//12 13//13 14//14 
f 13//13 12//12 1//1 
f 1//1 12//12 15//15 
f 1//1 16//16 13//13 
f 17//17 18//18 19//19 
f 4//4 16//16 1//1 
f 7//7 18//18 5//5 
f 7//7 19//19 18//18 
f 9//9 19//19 7//7 
f 9//9 15//15 19//19 
f 1//1 15//15 2//2 
f 15//15 9//9 2//2 
f 10//10 8//8 20//20 
f 11//11 10//10 20//20 
f 21//21 22//22 23//23 
f 18//18 22//22 24//24 
f 22//22 21//21 24//24 
f 18//18 17//17 22//22 
f 17//17 19//19 25//25 
f 19//19 15//15 25//25 
f 25//25 15//15 26//26 
f 18//18 24//24 5//5 
f 27//27 8//8 5//5 
f 4//4 3//3 28//28 
f 28//28 3//3 11//11 
f 8//8 29//29 20//20 
f 14//14 30//30 12//12 
f 30//30 26//26 12//12 
f 13//13 16//16 31//31 
f 15//15 12//12 26//26 
f 16//16 4//4 32//32 
f 33//33 5//5 24//24 
f 4//4 28//28 32//32 
f 33//33 27//27 5//5 
f 27//27 29//29 8//8 
f 34//34 35//35 11//11 
f 28//28 11//11 35//35 
f 29//29 34//34 20//20 
f 34//34 11//11 20//20 
f 30//30 14//14 36//36 
f 37//37 38//38 39//39 
f 23//23 39//39 38//38 
f 23//23 38//38 21//21 
f 13//13 31//31 14//14 
f 22//22 17//17 23//23 
f 40//40 41//41 26//26 
f 21//21 173//173 24//24 
f 41//41 25//25 26//26 
f 28//28 42//42 32//32 
f 43//43 29//29 27//27 
f 29//29 44//44 34//34 
f 34//34 44//44 35//35 
f 36//36 45//45 30//30 
f 31//31 36//36 14//14 
f 172//172 46//46 173//173 
f 39//39 23//23 47//47 
f 40//40 26//26 30//30 
f 23//23 48//48 47//47 
f 31//31 16//16 32//32 
f 23//23 17//17 48//48 
f 17//17 25//25 41//41 
f 49//49 33//33 24//24 
f 27//27 33//33 50//50 
f 42//42 28//28 35//35 
f 50//50 43//43 27//27 
f 29//29 43//43 44//44 
f 42//42 35//35 44//44 
f 51//51 39//39 52//52 
f 52//52 39//39 53//53 
f 37//37 39//39 51//51 
f 174//174 54//54 46//46 
f 172//172 174//174 46//46 
f 39//39 47//47 53//53 
f 30//30 45//45 40//40 
f 49//49 24//24 173//173 
f 43//43 55//55 44//44 
f 174//174 56//56 54//54 
f 56//56 51//51 57//57 
f 51//51 52//52 57//57 
f 45//45 58//58 40//40 
f 41//41 40//40 58//58 
f 17//17 41//41 48//48 
f 173//173 46//46 49//49 
f 59//59 44//44 55//55 
f 42//42 44//44 59//59 
f 36//36 31//31 60//60 
f 47//47 48//48 61//61 
f 46//46 62//62 49//49 
f 59//59 32//32 42//42 
f 43//43 50//50 63//63 
f 56//56 64//64 54//54 
f 65//65 54//54 64//64 
f 58//58 45//45 66//66 
f 45//45 36//36 60//60 
f 46//46 54//54 65//65 
f 53//53 47//47 61//61 
f 31//31 32//32 67//67 
f 41//41 68//68 48//48 
f 32//32 59//59 67//67 
f 49//49 50//50 33//33 
f 55//55 69//69 59//59 
f 63//63 70//70 55//55 
f 55//55 43//43 63//63 
f 52//52 53//53 71//71 
f 45//45 60//60 66//66 
f 31//31 72//72 60//60 
f 68//68 61//61 48//48 
f 58//58 68//68 41//41 
f 31//31 67//67 72//72 
f 65//65 62//62 46//46 
f 73//73 59//59 69//69 
f 70//70 69//69 55//55 
f 74//74 57//57 75//75 
f 57//57 71//71 76//76 
f 74//74 77//77 56//56 
f 57//57 74//74 56//56 
f 57//57 52//52 71//71 
f 77//77 64//64 56//56 
f 53//53 78//78 71//71 
f 53//53 61//61 78//78 
f 60//60 79//79 66//66 
f 79//79 60//60 72//72 
f 80//80 50//50 49//49 
f 57//57 76//76 75//75 
f 61//61 81//81 78//78 
f 61//61 68//68 81//81 
f 68//68 82//82 81//81 
f 68//68 58//58 82//82 
f 67//67 83//83 72//72 
f 59//59 73//73 67//67 
f 50//50 80//80 63//63 
f 63//63 84//84 70//70 
f 69//69 70//70 85//85 
f 71//71 78//78 76//76 
f 82//82 58//58 66//66 
f 82//82 66//66 86//86 
f 79//79 86//86 66//66 
f 72//72 87//87 79//79 
f 88//88 73//73 69//69 
f 49//49 62//62 80//80 
f 85//85 88//88 69//69 
f 63//63 80//80 84//84 
f 70//70 84//84 85//85 
f 77//77 74//74 89//89 
f 78//78 90//90 76//76 
f 81//81 90//90 78//78 
f 91//91 82//82 92//92 
f 92//92 82//82 86//86 
f 90//90 81//81 91//91 
f 82//82 91//91 81//81 
f 67//67 73//73 93//93 
f 74//74 75//75 89//89 
f 94//94 64//64 77//77 
f 94//94 65//65 64//64 
f 95//95 62//62 65//65 
f 83//83 67//67 93//93 
f 93//93 73//73 88//88 
f 80//80 62//62 96//96 
f 76//76 97//97 75//75 
f 76//76 98//98 97//97 
f 98//98 76//76 90//90 
f 86//86 99//99 92//92 
f 79//79 99//99 86//86 
f 91//91 100//100 90//90 
f 91//91 92//92 101//101 
f 91//91 102//102 100//100 
f 103//103 102//102 91//91 
f 101//101 103//103 91//91 
f 104//104 87//87 72//72 
f 72//72 83//83 104//104 
f 95//95 105//105 62//62 
f 62//62 105//105 96//96 
f 106//106 80//80 96//96 
f 107//107 89//89 75//75 
f 107//107 75//75 97//97 
f 98//98 100//100 108//108 
f 90//90 100//100 98//98 
f 99//99 101//101 92//92 
f 79//79 87//87 99//99 
f 65//65 94//94 95//95 
f 99//99 109//109 101//101 
f 103//103 110//110 102//102 
f 80//80 106//106 84//84 
f 98//98 108//108 97//97 
f 99//99 87//87 111//111 
f 103//103 101//101 112//112 
f 83//83 93//93 113//113 
f 105//105 114//114 96//96 
f 115//115 88//88 85//85 
f 115//115 93//93 88//88 
f 97//97 108//108 107//107 
f 77//77 89//89 116//116 
f 94//94 77//77 116//116 
f 110//110 103//103 112//112 
f 117//117 85//85 84//84 
f 118//118 85//85 117//117 
f 84//84 106//106 117//117 
f 102//102 108//108 100//100 
f 104//104 111//111 87//87 
f 93//93 115//115 113//113 
f 115//115 85//85 118//118 
f 106//106 114//114 119//119 
f 107//107 116//116 89//89 
f 94//94 116//116 120//120 
f 99//99 121//121 109//109 
f 110//110 122//122 102//102 
f 123//123 101//101 109//109 
f 104//104 83//83 124//124 
f 101//101 125//125 112//112 
f 112//112 126//126 110//110 
f 105//105 127//127 114//114 
f 106//106 96//96 114//114 
f 128//128 117//117 106//106 
f 128//128 106//106 119//119 
f 116//116 129//129 120//120 
f 94//94 120//120 95//95 
f 111//111 121//121 99//99 
f 111//111 130//130 121//121 
f 130//130 111//111 104//104 
f 108//108 102//102 122//122 
f 109//109 121//121 123//123 
f 101//101 123//123 125//125 
f 83//83 113//113 124//124 
f 131//131 105//105 95//95 
f 105//105 131//131 127//127 
f 125//125 126//126 112//112 
f 116//116 107//107 132//132 
f 108//108 132//132 107//107 
f 132//132 108//108 133//133 
f 132//132 175//175 116//116 
f 95//95 120//120 134//134 
f 121//121 135//135 123//123 
f 131//131 95//95 134//134 
f 118//118 117//117 136//136 
f 118//118 136//136 137//137 
f 117//117 128//128 136//136 
f 108//108 122//122 133//133 
f 134//134 120//120 138//138 
f 104//104 124//124 130//130 
f 110//110 126//126 122//122 
f 113//113 115//115 139//139 
f 115//115 118//118 137//137 
f 119//119 140//140 128//128 
f 133//133 141//141 132//132 
f 132//132 138//138 175//175 
f 129//129 138//138 120//120 
f 122//122 141//141 133//133 
f 121//121 130//130 135//135 
f 130//130 124//124 142//142 
f 122//122 126//126 143//143 
f 125//125 123//123 144//144 
f 124//124 113//113 139//139 
f 125//125 145//145 126//126 
f 139//139 115//115 146//146 
f 115//115 137//137 146//146 
f 114//114 127//127 147//147 
f 114//114 147//147 148//148 
f 119//119 114//114 148//148 
f 136//136 128//128 140//140 
f 138//138 132//132 141//141 
f 134//134 138//138 141//141 
f 134//134 141//141 143//143 
f 122//122 143//143 141//141 
f 124//124 139//139 142//142 
f 125//125 144//144 145//145 
f 123//123 149//149 144//144 
f 131//131 150//150 127//127 
f 151//151 137//137 136//136 
f 119//119 148//148 152//152 
f 152//152 140//140 119//119 
f 136//136 140//140 153//153 
f 135//135 130//130 154//154 
f 150//150 131//131 143//143 
f 131//131 134//134 143//143 
f 143//143 126//126 155//155 
f 135//135 154//154 123//123 
f 145//145 155//155 126//126 
f 156//156 146//146 137//137 
f 137//137 151//151 156//156 
f 152//152 153//153 140//140 
f 136//136 153//153 151//151 
f 154//154 130//130 142//142 
f 123//123 154//154 149//149 
f 155//155 157//157 143//143 
f 157//157 150//150 143//143 
f 142//142 139//139 158//158 
f 127//127 150//150 157//157 
f 158//158 139//139 146//146 
f 157//157 159//159 127//127 
f 147//147 127//127 159//159 
f 160//160 148//148 147//147 
f 148//148 160//160 161//161 
f 152//152 148//148 161//161 
f 151//151 153//153 162//162 
f 163//163 152//152 161//161 
f 153//153 152//152 163//163 
f 162//162 153//153 163//163 
f 154//154 142//142 164//164 
f 142//142 158//158 164//164 
f 149//149 154//154 165//165 
f 165//165 154//154 164//164 
f 166//166 155//155 145//145 
f 159//159 157//157 155//155 
f 145//145 144//144 166//166 
f 166//166 144//144 149//149 
f 146//146 156//156 158//158 
f 159//159 160//160 147//147 
f 151//151 162//162 156//156 
f 164//164 158//158 167//167 
f 164//164 167//167 165//165 
f 155//155 166//166 168//168 
f 155//155 168//168 159//159 
f 166//166 149//149 165//165 
f 168//168 160//160 159//159 
f 169//169 166//166 165//165 
f 165//165 167//167 169//169 
f 158//158 169//169 167//167 
f 169//169 168//168 166//166 
f 158//158 156//156 169//169 
f 168//168 161//161 160//160 
f 168//168 170//170 161//161 
f 156//156 162//162 171//171 
f 156//156 171//171 169//169 
f 170//170 171//171 163//163 
f 163//163 161//161 170//170 
f 162//162 163//163 171//171 
f 168//168 169//169 170//170 
f 169//169 171//171 170//170 
