# wavefront obj file written by the visualization toolkit


v 10643.9 4570.95 5291.78
v 10638.8 4626.75 5299.44
v 10710.7 4606.59 5299.89
v 10696.3 4543.21 5316.92
v 10763.9 4579.27 5318.63
v 10586.7 4589.64 5327.85
v 10590.3 4647.65 5340.31
v 10784.2 4639.21 5337.19
v 10633.6 4684.27 5340.09
v 10717.9 4685.27 5350.65
v 10613 4539.35 5345.23
v 10755.3 4524.74 5349.04
v 10804.5 4581.11 5363.77
v 10793.8 4689.45 5383.34
v 10671.9 4499.94 5387.31
v 10557.8 4627.16 5398.45
v 10820.4 4641.23 5401.31
v 10602.1 4688.65 5386.5
v 10765.6 4722.9 5409.42
v 10657.6 4712.63 5387.66
v 10590.6 4518.95 5421.98
v 10757.4 4494.51 5418.72
v 10799.9 4535.08 5397.57
v 10578.1 4567.16 5394.92
v 10719.4 4729.83 5433.57
v 10827.3 4580 5429.97
v 10582.2 4681.33 5441.44
v 10768.9 4730.99 5445.97
v 10709.6 4482.42 5455.36
v 10654.4 4497.66 5473.09
v 10827.5 4631.36 5477.41
v 10791.8 4693.83 5446.01
v 10612.2 4524.24 5501.48
v 10805.8 4532.63 5457.2
v 10762.4 4508.6 5490.24
v 10579.8 4576.81 5470.76
v 10643.8 4711.32 5445.51
v 10577 4647.24 5467.33
v 10755.8 4716.28 5488
v 10818.9 4575.02 5489.18
v 10632.5 4684.69 5507.71
v 10709.8 4504.56 5509.37
v 10794 4549.89 5512.45
v 10696.1 4710.52 5487.39
v 10679.9 4535.06 5547.45
v 10792.1 4597.46 5536.3
v 10615.5 4625.87 5531.62
v 10778.4 4664.25 5515.96
v 10634.4 4574.32 5542.03
v 10658.2 4656.73 5561.21
v 10714.8 4672.99 5535.31
v 10745.4 4544.36 5531.52
v 10745 4629.92 5558.6
v 10656 4614.45 5568.36
v 10678.4 4587.98 5572.73
v 10721.9 4591.62 5557.82
v 10692.9 4624.5 5557.87
v 10715.8 4535.17 5820.12
v 10645.9 4551.21 5819.56
v 10696 4606.57 5810.32
v 10755.4 4568.14 5824.75
v 10594.6 4603.51 5855.74
v 10787.7 4611.82 5846.42
v 10640.5 4667.31 5842
v 10747 4664.09 5828.46
v 10689.6 4690.66 5847.6
v 10649.5 4508.8 5870.73
v 10600.4 4540.16 5880.9
v 10781.7 4551.34 5867.88
v 10785.9 4677.36 5860.56
v 10742.4 4710.95 5873.88
v 10593 4668.73 5879.2
v 10789.7 4709.97 5930.56
v 10629.7 4703.55 5891.88
v 10731.2 4507.89 5898.22
v 10826.1 4592.12 5914.87
v 10555.9 4638.8 5915.89
v 10815.5 4654.36 5941.27
v 10687.6 4722.48 5896.21
v 10723.5 4730.51 5941.85
v 10664.5 4486.77 5936.28
v 10561.8 4553.19 5921.33
v 10552.4 4594.02 5932.79
v 10601.7 4514.19 5946.89
v 10799.7 4542.36 5954.67
v 10584.9 4682.93 5936.31
v 10719.7 4496.69 5970.68
v 10557.9 4622.98 5979.63
v 10820.5 4610.04 5989.6
v 10652.2 4716.93 5945.04
v 10654.8 4494.1 5985.03
v 10765.2 4521.64 6016.67
v 10568.9 4556.35 5975.51
v 10797.2 4686.32 6002.55
v 10750.7 4715.34 5989.3
v 10610.9 4683.96 5995.38
v 10682.6 4706.69 6000.8
v 10614.6 4526.12 6021.39
v 10810.9 4646.79 6001.28
v 10698.4 4513.06 6023.46
v 10573 4586.27 6019.62
v 10789.1 4565.06 6031.25
v 10591.1 4633.1 6037.95
v 10735.9 4534.18 6048.14
v 10779.5 4629.48 6040.74
v 10656.2 4666.17 6050.95
v 10672.6 4545.81 6062.21
v 10617.1 4582.95 6055.35
v 10645.9 4614.46 6071.43
v 10733.5 4673.38 6030.05
v 10724.7 4575.36 6065.27
v 10676.6 4589.9 6072.04
v 10701.1 4623.3 6054.39
vn -0.219246 -0.324303 -0.920195
vn -0.227066 0.352296 -0.907925
vn 0.218307 0.120677 -0.96839
vn 0.0771564 -0.629453 -0.773198
vn 0.486867 -0.243235 -0.838926
vn -0.782839 -0.162228 -0.600705
vn -0.693922 0.432408 -0.575757
vn 0.602742 0.286553 -0.744707
vn -0.264604 0.739959 -0.618421
vn 0.138316 0.714087 -0.686257
vn -0.512725 -0.699797 -0.49739
vn 0.417802 -0.702687 -0.575909
vn 0.831586 -0.213609 -0.512676
vn 0.663375 0.613459 -0.428488
vn -0.133278 -0.935078 -0.328431
vn -0.984312 0.144138 -0.101758
vn 0.938274 0.239182 -0.249866
vn -0.594836 0.766539 -0.242051
vn 0.399441 0.849547 -0.344553
vn -0.176983 0.935981 -0.304329
vn -0.700725 -0.711918 -0.0464413
vn 0.398853 -0.905515 -0.144771
vn 0.764976 -0.574312 -0.291509
vn -0.917172 -0.365933 -0.157762
vn -0.0698759 0.996331 -0.049413
vn 0.97201 -0.21283 -0.0995015
vn -0.728335 0.667503 0.154816
vn 0.459694 0.883198 0.0929708
vn 0.0413385 -0.992138 0.118128
vn -0.274401 -0.929799 0.24531
vn 0.929323 0.238743 0.28171
vn 0.810297 0.570901 0.132251
vn -0.614252 -0.599895 0.512661
vn 0.774105 -0.620907 0.123436
vn 0.419266 -0.809379 0.411244
vn -0.916919 -0.195824 0.347724
vn -0.338534 0.932817 0.123479
vn -0.870448 0.255982 0.420469
vn 0.299626 0.8026 0.515807
vn 0.903361 -0.258393 0.342305
vn -0.450109 0.723948 0.522783
vn 0.0857374 -0.828801 0.552937
vn 0.625834 -0.51892 0.582284
vn -0.142211 0.88569 0.44196
vn -0.0787925 -0.608169 0.789888
vn 0.612589 -0.0809137 0.786249
vn -0.744916 0.140981 0.652092
vn 0.585987 0.509004 0.630503
vn -0.608981 -0.26171 0.748766
vn -0.202667 0.455257 0.866987
vn 0.0977122 0.642443 0.760079
vn 0.316718 -0.517409 0.79497
vn 0.251242 0.257559 0.933028
vn -0.320076 0.0570405 0.945673
vn -0.0365776 -0.130312 0.990798
vn 0.252349 -0.185034 0.94978
vn 0.140939 0.235836 0.961518
vn 0.207555 -0.629995 -0.74835
vn -0.416415 -0.385548 -0.823378
vn -0.0185303 0.127629 -0.991649
vn 0.502838 -0.212446 -0.837867
vn -0.711815 -0.00472442 -0.702352
vn 0.723692 0.0333535 -0.689317
vn -0.386262 0.46019 -0.799392
vn 0.276567 0.418077 -0.865288
vn -0.114851 0.670986 -0.732521
vn -0.256374 -0.87156 -0.417919
vn -0.650665 -0.586548 -0.482283
vn 0.690358 -0.573543 -0.440971
vn 0.709023 0.472395 -0.523574
vn 0.219148 0.849435 -0.480035
vn -0.670803 0.525017 -0.523814
vn 0.60495 0.793204 -0.0697317
vn -0.404242 0.832845 -0.378098
vn 0.335852 -0.907627 -0.251827
vn 0.962669 -0.170969 -0.209851
vn -0.925008 0.284027 -0.252365
vn 0.953304 0.28828 -0.0900308
vn -0.135643 0.941853 -0.307431
vn 0.050803 0.997776 0.0431608
vn -0.0833588 -0.992359 -0.0909727
vn -0.855117 -0.455188 -0.248151
vn -0.986694 -0.107142 -0.122293
vn -0.568763 -0.822222 -0.0214281
vn 0.746785 -0.664385 0.0300816
vn -0.686076 0.727467 0.00958745
vn 0.269177 -0.956128 0.115602
vn -0.934963 0.234812 0.265911
vn 0.945301 -0.0701578 0.318567
vn -0.320834 0.94186 0.0998295
vn -0.174748 -0.944263 0.278981
vn 0.463332 -0.796015 0.389466
vn -0.876276 -0.423647 0.229485
vn 0.659413 0.566133 0.494639
vn 0.212511 0.865029 0.454493
vn -0.526818 0.751292 0.397522
vn -0.117852 0.86639 0.485262
vn -0.489664 -0.686649 0.537347
vn 0.891543 0.210337 0.401135
vn 0.0256489 -0.859017 0.511303
vn -0.810385 -0.205287 0.548756
vn 0.697655 -0.318665 0.641662
vn -0.642647 0.316058 0.697934
vn 0.269064 -0.57787 0.770501
vn 0.511626 0.198134 0.836051
vn -0.110075 0.587958 0.801367
vn -0.100287 -0.490821 0.86547
vn -0.449616 -0.222425 0.865085
vn -0.148368 0.181474 0.972139
vn 0.172837 0.556078 0.812961
vn 0.259338 -0.0619744 0.963796
vn 0.00654288 -0.0171621 0.999831
vn 0.191949 0.311918 0.930517

g grp1
usemtl mtl1
f 1//1 2//2 3//3 
f 3//3 4//4 1//1 
f 3//3 5//5 4//4 
f 2//2 6//6 7//7 
f 1//1 6//6 2//2 
f 5//5 3//3 8//8 
f 2//2 7//7 9//9 
f 2//2 10//10 3//3 
f 8//8 3//3 10//10 
f 11//11 1//1 4//4 
f 1//1 11//11 6//6 
f 12//12 4//4 5//5 
f 5//5 8//8 13//13 
f 9//9 10//10 2//2 
f 8//8 10//10 14//14 
f 11//11 4//4 15//15 
f 4//4 12//12 15//15 
f 13//13 12//12 5//5 
f 16//16 7//7 6//6 
f 17//17 13//13 8//8 
f 18//18 7//7 16//16 
f 7//7 18//18 9//9 
f 14//14 10//10 19//19 
f 10//10 9//9 20//20 
f 21//21 11//11 15//15 
f 15//15 12//12 22//22 
f 12//12 23//23 22//22 
f 11//11 21//21 24//24 
f 11//11 24//24 6//6 
f 24//24 16//16 6//6 
f 8//8 14//14 17//17 
f 9//9 18//18 20//20 
f 25//25 10//10 20//20 
f 19//19 10//10 25//25 
f 12//12 13//13 23//23 
f 23//23 13//13 26//26 
f 26//26 13//13 17//17 
f 18//18 16//16 27//27 
f 19//19 25//25 28//28 
f 15//15 29//29 30//30 
f 15//15 22//22 29//29 
f 15//15 30//30 21//21 
f 26//26 17//17 31//31 
f 14//14 19//19 32//32 
f 21//21 30//30 33//33 
f 22//22 34//34 35//35 
f 23//23 34//34 22//22 
f 36//36 24//24 21//21 
f 23//23 26//26 34//34 
f 17//17 14//14 32//32 
f 20//20 18//18 37//37 
f 19//19 28//28 32//32 
f 20//20 37//37 25//25 
f 22//22 35//35 29//29 
f 24//24 36//36 16//16 
f 36//36 38//38 16//16 
f 16//16 38//38 27//27 
f 27//27 37//37 18//18 
f 28//28 25//25 39//39 
f 36//36 21//21 33//33 
f 26//26 40//40 34//34 
f 26//26 31//31 40//40 
f 41//41 27//27 38//38 
f 37//37 27//27 41//41 
f 39//39 32//32 28//28 
f 29//29 35//35 42//42 
f 43//43 34//34 40//40 
f 17//17 32//32 31//31 
f 37//37 41//41 44//44 
f 37//37 44//44 25//25 
f 39//39 25//25 44//44 
f 42//42 30//30 29//29 
f 30//30 45//45 33//33 
f 34//34 43//43 35//35 
f 31//31 46//46 40//40 
f 47//47 41//41 38//38 
f 32//32 48//48 31//31 
f 32//32 39//39 48//48 
f 42//42 45//45 30//30 
f 33//33 49//49 36//36 
f 46//46 43//43 40//40 
f 36//36 47//47 38//38 
f 46//46 31//31 48//48 
f 41//41 50//50 51//51 
f 44//44 51//51 39//39 
f 51//51 48//48 39//39 
f 41//41 51//51 44//44 
f 35//35 52//52 42//42 
f 35//35 43//43 52//52 
f 33//33 45//45 49//49 
f 52//52 43//43 46//46 
f 36//36 49//49 47//47 
f 46//46 48//48 53//53 
f 41//41 47//47 50//50 
f 48//48 51//51 53//53 
f 45//45 42//42 52//52 
f 49//49 54//54 47//47 
f 54//54 50//50 47//47 
f 49//49 45//45 55//55 
f 45//45 52//52 56//56 
f 55//55 45//45 56//56 
f 54//54 49//49 55//55 
f 52//52 46//46 56//56 
f 53//53 56//56 46//46 
f 57//57 50//50 54//54 
f 57//57 53//53 51//51 
f 50//50 57//57 51//51 
f 57//57 54//54 55//55 
f 56//56 57//57 55//55 
f 56//56 53//53 57//57 
f 58//58 59//59 60//60 
f 60//60 61//61 58//58 
f 62//62 60//60 59//59 
f 61//61 60//60 63//63 
f 64//64 60//60 62//62 
f 60//60 65//65 63//63 
f 60//60 64//64 66//66 
f 66//66 65//65 60//60 
f 67//67 68//68 59//59 
f 58//58 67//67 59//59 
f 58//58 61//61 69//69 
f 59//59 68//68 62//62 
f 65//65 70//70 63//63 
f 66//66 71//71 65//65 
f 71//71 70//70 65//65 
f 69//69 61//61 63//63 
f 64//64 62//62 72//72 
f 70//70 71//71 73//73 
f 74//74 64//64 72//72 
f 66//66 64//64 74//74 
f 58//58 75//75 67//67 
f 58//58 69//69 75//75 
f 63//63 76//76 69//69 
f 62//62 77//77 72//72 
f 63//63 70//70 78//78 
f 63//63 78//78 76//76 
f 66//66 74//74 79//79 
f 71//71 66//66 79//79 
f 73//73 71//71 80//80 
f 81//81 67//67 75//75 
f 62//62 68//68 82//82 
f 62//62 82//82 83//83 
f 77//77 62//62 83//83 
f 80//80 71//71 79//79 
f 84//84 67//67 81//81 
f 85//85 75//75 69//69 
f 68//68 84//84 82//82 
f 67//67 84//84 68//68 
f 76//76 85//85 69//69 
f 86//86 72//72 77//77 
f 72//72 86//86 74//74 
f 75//75 87//87 81//81 
f 75//75 85//85 87//87 
f 88//88 77//77 83//83 
f 76//76 78//78 89//89 
f 88//88 86//86 77//77 
f 73//73 78//78 70//70 
f 90//90 74//74 86//86 
f 79//79 74//74 90//90 
f 81//81 91//91 84//84 
f 92//92 87//87 85//85 
f 84//84 93//93 82//82 
f 83//83 82//82 93//93 
f 85//85 76//76 89//89 
f 94//94 78//78 73//73 
f 80//80 95//95 73//73 
f 79//79 90//90 80//80 
f 81//81 87//87 91//91 
f 96//96 86//86 88//88 
f 86//86 96//96 90//90 
f 94//94 73//73 95//95 
f 80//80 90//90 97//97 
f 93//93 84//84 98//98 
f 83//83 93//93 88//88 
f 89//89 78//78 99//99 
f 94//94 99//99 78//78 
f 90//90 96//96 97//97 
f 80//80 97//97 95//95 
f 87//87 100//100 91//91 
f 91//91 98//98 84//84 
f 87//87 92//92 100//100 
f 101//101 93//93 98//98 
f 102//102 92//92 85//85 
f 85//85 89//89 102//102 
f 103//103 96//96 88//88 
f 100//100 98//98 91//91 
f 92//92 104//104 100//100 
f 92//92 102//102 104//104 
f 88//88 93//93 101//101 
f 101//101 103//103 88//88 
f 99//99 105//105 89//89 
f 103//103 106//106 96//96 
f 96//96 106//106 97//97 
f 107//107 98//98 100//100 
f 103//103 101//101 108//108 
f 102//102 89//89 105//105 
f 109//109 103//103 108//108 
f 99//99 94//94 105//105 
f 95//95 110//110 94//94 
f 106//106 110//110 97//97 
f 95//95 97//97 110//110 
f 104//104 107//107 100//100 
f 98//98 108//108 101//101 
f 98//98 107//107 108//108 
f 104//104 102//102 111//111 
f 102//102 105//105 111//111 
f 106//106 103//103 109//109 
f 94//94 110//110 105//105 
f 108//108 107//107 112//112 
f 104//104 111//111 107//107 
f 111//111 112//112 107//107 
f 109//109 108//108 112//112 
f 111//111 105//105 113//113 
f 109//109 113//113 106//106 
f 105//105 110//110 113//113 
f 113//113 110//110 106//106 
f 111//111 113//113 112//112 
f 113//113 109//109 112//112 
