# wavefront obj file written by the visualization toolkit


v 8376.05 4206.31 3180.69
v 8338.36 4194.09 3187.37
v 8321.29 4223.98 3190.47
v 8390.76 4194.19 3198.39
v 8375.56 4275.36 3200.18
v 8436.46 4263.23 3205.54
v 8298.97 4215.26 3211.83
v 8489.74 4226.18 3230.08
v 8292.41 4277.54 3249.5
v 8336.99 4297.9 3232.93
v 8446.67 4321.5 3232.88
v 8356.98 4209 3233.83
v 8464.43 4207.79 3238.7
v 8539.32 4218.66 3258.28
v 8279.67 4276.94 3281.64
v 8535.16 4301.5 3262.44
v 8611.8 4266.46 3294.89
v 8398.25 4356.86 3268.4
v 8290.74 4274.6 3302.56
v 8577.47 4233.99 3281.93
v 8618.21 4304.42 3304.33
v 8423.22 4259.56 3338.91
v 8526.07 4231.24 3293.06
v 8286.95 4360.6 3355.93
v 8335.04 4355.85 3300.98
v 8500.52 4379.15 3318.38
v 8578.99 4236.88 3301.65
v 8279.78 4329.1 3356.64
v 8607.55 4340.25 3333.28
v 8371.79 4412.58 3345.78
v 8421.36 4421.78 3362.86
v 8325.1 4282.31 3344.57
v 8635.79 4261.49 3337.65
v 8686.52 4287.1 3362.3
v 8661.57 4310.97 3351.36
v 8548.83 4271.55 3377.61
v 8332.82 4416.63 3386.72
v 8700.31 4282.46 3401.26
v 8288.79 4344.58 3408.59
v 8714.44 4317.21 3411.33
v 8658.31 4348.63 3387.37
v 8571.03 4400.77 3407.62
v 8451.92 4450.5 3433.61
v 8654.73 4284.14 3459.09
v 8334.83 4355.79 3477.36
v 8717.12 4297.15 3419.44
v 8287.68 4400.53 3456.28
v 8369.29 4455.5 3442.25
v 8447.69 4338.1 3502.65
v 8315.52 4434.95 3458.29
v 8713.83 4295.66 3470.6
v 8723.62 4315.04 3466.5
v 8636.54 4382.36 3476.83
v 8570.15 4309.53 3521.63
v 8495.84 4457.35 3513.32
v 8690.7 4298.06 3531.96
v 8703.21 4336.52 3518.87
v 8309.52 4458.15 3556.04
v 8340.16 4473.11 3525.35
v 8701.33 4316.01 3528.36
v 8563.7 4435.56 3560.05
v 8393.76 4477.69 3543.37
v 8643.01 4306.67 3552.45
v 8519.68 4344.77 3582.23
v 8303.65 4411.48 3523.76
v 8639.9 4379.5 3568.82
v 8368.45 4395.17 3584.66
v 8324.06 4415.16 3571.73
v 8573.95 4348.49 3614.28
v 8675.76 4340.9 3568.59
v 8463.41 4395.7 3632.9
v 8556.86 4426.9 3623.46
v 8341.31 4474.78 3586.47
v 8471.42 4460.5 3596
v 8650.19 4335.3 3581.62
v 8614.09 4376.85 3613.44
v 8318.33 4443.09 3589.98
v 8347.97 4460.79 3623.85
v 8401.93 4467.43 3618.61
v 8365.85 4430.54 3612.49
v 8555.57 4410.71 3655.04
v 8578.9 4377.93 3640.53
v 8540 4383.92 3646.92
v 8485.2 4440.45 3649.64
v 8407.23 4443.73 3645.02
v 8419.37 4449.23 3642.95
v 8517.35 4409.8 3650.16
v 8457.94 4430.29 3641.84
v 8447.88 4414.27 7720.84
v 8474.67 4434.21 7710.39
v 8545.16 4399.27 7727.17
v 8505.48 4444.49 7737.76
v 8619.91 4357.99 7755.88
v 8544.09 4369.9 7761.77
v 8451.46 4373.83 7801.42
v 8603.24 4388.33 7768.98
v 8359.97 4443.99 7731.71
v 8349.08 4467.48 7738.35
v 8406.05 4449.26 7728.48
v 8417.67 4463.89 7737.62
v 8445.41 4480.87 7790.16
v 8629.89 4322.02 7827.01
v 8361.7 4399.95 7809.43
v 8321.72 4445.09 7790.93
v 8314.88 4465.67 7807.72
v 8364.4 4479.42 7809.17
v 8671.86 4332.3 7797.9
v 8666.46 4340.66 7795.39
v 8578.16 4420.23 7819.19
v 8705.77 4322.05 7827.15
v 8672.85 4353.39 7831.24
v 8705.46 4314.69 7859.65
v 8530.84 4340.95 7837.04
v 8441.75 4333.95 7891.79
v 8294.84 4393.15 7889.5
v 8294.87 4422.81 7882.12
v 8540.03 4440.67 7899.61
v 8356.73 4491.96 7866.07
v 8425.99 4464.98 7920.56
v 8573.53 4308.95 7898.22
v 8717.75 4320.87 7890.74
v 8332.1 4454.1 7898.32
v 8655.27 4287.21 7942.39
v 8711.84 4305.08 7927.28
v 8330.36 4355.97 7911.1
v 8649.39 4373.55 7916.98
v 8276.88 4369.09 7955.77
v 8376.15 4456.34 7952.05
v 8720.88 4306.58 7954.49
v 8285.98 4328.81 7983.98
v 8517.52 4295.46 7951.9
v 8701.49 4326.85 7955.67
v 8288.48 4351.84 8025.63
v 8514.44 4429.41 7991.68
v 8691.82 4291.47 7989.87
v 8585.33 4401.35 7978.73
v 8411.46 4434.37 8019.14
v 8412.51 4278.33 8006.67
v 8688.03 4310.68 8002.92
v 8639.05 4354.77 7999.39
v 8353.03 4391.28 8042.1
v 8467.44 4423.6 8026.15
v 8565.1 4255.79 8029.82
v 8273.49 4288.05 8056.8
v 8631.67 4261.35 8042.96
v 8314.81 4241.51 8083.64
v 8304.97 4331.27 8097.55
v 8457.17 4217.7 8098.32
v 8385.41 4225.13 8086.36
v 8643.09 4279.08 8054.64
v 8612.56 4323.54 8061.78
v 8545.16 4381.35 8042.72
v 8554 4232.67 8092.15
v 8288.83 4278.96 8138.12
v 8374.25 4201.95 8121.66
v 8577.53 4242.77 8103.08
v 8283.44 4226.46 8127.14
v 8282.28 4265.2 8107.08
v 8572.49 4282.12 8108.47
v 8328.87 4197.51 8158.75
v 8407.81 4191.11 8158.33
v 8488.31 4213.93 8136.98
v 8526.92 4330.91 8111.45
v 8435.35 4360.4 8098.09
v 8342.44 4314.29 8130.83
v 8488.39 4273.39 8159.47
v 8303.85 4225.83 8163.51
v 8431.29 4196.69 8180.16
v 8499.68 4234.87 8146.33
v 8462.57 4310.38 8144.36
v 8335.68 4193.77 8191.85
v 8371.78 4198.45 8183.17
v 8327.32 4259.76 8170.91
v 8435.24 4232.69 8182.79
v 8397.82 4265.09 8167.76
v 8382.07 4209.95 8185.65
v 8347.36 4226.95 8174.12
vn 0.13816 -0.191855 -0.97165
vn -0.297924 -0.819776 -0.48909
vn -0.478601 0.166036 -0.862191
vn 0.194021 -0.932456 -0.304765
vn -0.0750037 0.468468 -0.880291
vn 0.313588 0.212883 -0.925388
vn -0.847924 -0.508374 -0.150268
vn 0.458368 -0.369954 -0.808105
vn -0.738662 0.412705 -0.532966
vn -0.388416 0.612349 -0.688594
vn 0.19602 0.58381 -0.787872
vn -0.197138 -0.903962 0.379459
vn 0.120229 -0.989739 0.0772053
vn 0.30594 -0.934468 -0.182129
vn -0.995254 -0.0784489 -0.0575705
vn 0.408481 0.38289 -0.828576
vn 0.631577 -0.158854 -0.758864
vn -0.0980606 0.749184 -0.655063
vn -0.648134 -0.660632 0.378797
vn 0.573702 -0.688976 -0.44292
vn 0.537802 0.381927 -0.751599
vn -0.108278 -0.882315 0.458034
vn 0.0166012 -0.926298 0.376427
vn -0.805221 0.5036 -0.31306
vn -0.456489 0.689518 -0.562302
vn 0.257631 0.783078 -0.566052
vn 0.21743 -0.945438 0.242635
vn -0.980755 -0.14825 0.127052
vn 0.413998 0.691256 -0.592259
vn -0.22842 0.824964 -0.51697
vn 0.067624 0.873238 -0.482578
vn -0.33774 -0.810133 0.479183
vn 0.409226 -0.909472 -0.0734454
vn 0.780954 -0.283584 -0.556499
vn 0.63775 0.409931 -0.652098
vn -0.0400089 -0.933061 0.357487
vn -0.478616 0.772633 -0.41709
vn 0.526293 -0.846586 -0.0794204
vn -0.752301 -0.535971 0.383117
vn 0.801087 0.463636 -0.378552
vn 0.513999 0.752003 -0.412669
vn 0.37315 0.863461 -0.339402
vn 0.169186 0.932166 -0.320066
vn 0.0512285 -0.98084 0.187961
vn -0.419198 -0.793838 0.440561
vn 0.920245 -0.339694 -0.194314
vn -0.984334 0.169949 0.0469553
vn -0.172057 0.928168 -0.330001
vn -0.234614 -0.889508 0.392088
vn -0.622646 0.736386 -0.264664
vn 0.689368 -0.702727 0.175915
vn 0.977702 0.198053 0.0698126
vn 0.545077 0.830828 -0.112316
vn -0.182635 -0.932042 0.312956
vn 0.303893 0.944935 -0.121435
vn 0.397824 -0.789332 0.467645
vn 0.81569 0.530053 0.23172
vn -0.843946 0.516873 0.143516
vn -0.343498 0.925576 -0.159116
vn 0.833779 -0.235407 0.499397
vn 0.445586 0.894295 0.0411045
vn 0.0628784 0.996838 -0.0485744
vn -0.00225682 -0.888691 0.458501
vn -0.268985 -0.867238 0.418981
vn -0.87477 -0.349555 0.335543
vn 0.644537 0.722807 0.249243
vn -0.354115 -0.761557 0.542801
vn -0.604304 -0.60367 0.519998
vn -0.0584509 -0.792787 0.60669
vn 0.756569 0.168123 0.631932
vn -0.26542 -0.624624 0.734436
vn 0.472107 0.804063 0.361383
vn -0.288253 0.936687 0.198815
vn 0.233326 0.955998 0.177841
vn 0.430258 -0.468265 0.771755
vn 0.665125 0.292631 0.687005
vn -0.798562 -0.207911 0.564865
vn -0.499105 0.393056 0.77227
vn 0.0299049 0.913173 0.406473
vn -0.445697 -0.505066 0.739095
vn 0.353001 0.281473 0.89228
vn 0.282421 -0.313484 0.906624
vn -0.0700546 -0.475582 0.876878
vn 0.0869286 0.567499 0.818772
vn -0.214645 -0.171984 0.961431
vn -0.0564025 0.414136 0.908466
vn -0.0934554 -0.16225 0.982314
vn -0.0810633 -0.11492 0.990062
vn -0.194697 -0.58096 -0.790303
vn 0.069153 0.328507 -0.941967
vn 0.294021 -0.0519235 -0.954388
vn 0.406262 0.771897 -0.489005
vn 0.32544 -0.367523 -0.871215
vn -0.147151 -0.828301 -0.540614
vn -0.238464 -0.875286 -0.420724
vn 0.596448 0.61742 -0.512877
vn -0.493003 -0.326256 -0.806539
vn -0.464173 0.574372 -0.674271
vn -0.131859 0.24521 -0.960461
vn 0.036314 0.833048 -0.552007
vn 0.212086 0.972327 -0.0979816
vn -0.0825778 -0.922294 -0.377563
vn -0.415447 -0.784799 -0.459884
vn -0.866852 -0.224839 -0.444989
vn -0.750866 0.650227 -0.11578
vn -0.186195 0.975851 -0.114215
vn 0.367649 -0.652597 -0.662535
vn 0.683062 0.320754 -0.656157
vn 0.517165 0.848779 -0.110066
vn 0.856745 -0.0475227 -0.513546
vn 0.663476 0.719137 -0.206501
vn 0.450411 -0.848401 -0.27811
vn -0.19151 -0.90555 -0.378554
vn -0.196858 -0.884044 -0.423925
vn -0.761722 -0.474212 -0.441478
vn -0.948371 0.315347 -0.0339097
vn 0.388272 0.914169 0.11636
vn -0.295532 0.945386 0.137499
vn 0.150805 0.96598 0.210095
vn -0.14051 -0.9316 -0.33523
vn 0.971945 0.216237 -0.0925401
vn -0.632352 0.735443 0.243421
vn 0.111833 -0.964296 -0.240058
vn 0.622103 -0.774181 -0.116757
vn -0.34683 -0.804225 -0.482629
vn 0.579213 0.809443 0.0965136
vn -0.988769 -0.0359695 -0.145058
vn -0.286909 0.866871 0.407698
vn 0.963936 -0.112733 0.241078
vn -0.552619 -0.675602 -0.488032
vn -0.0941513 -0.912554 -0.397971
vn 0.693825 0.672787 0.256835
vn -0.816696 0.507102 0.275418
vn 0.296162 0.885186 0.358795
vn 0.663791 -0.706948 0.244143
vn 0.469584 0.820529 0.325919
vn -0.0848712 0.854423 0.5126
vn -0.135232 -0.845884 -0.515939
vn 0.755697 0.288642 0.587884
vn 0.535111 0.727802 0.428905
vn -0.384228 0.762298 0.520836
vn 0.170747 0.835278 0.522643
vn 0.0416163 -0.928155 -0.369859
vn -0.953869 -0.255331 -0.157924
vn 0.4301 -0.901731 0.0435389
vn -0.330463 -0.788408 -0.518852
vn -0.499922 0.69132 0.521684
vn 0.0797736 -0.917672 -0.389249
vn -0.0789293 -0.820561 -0.566083
vn 0.727132 -0.202046 0.656092
vn 0.53563 0.500657 0.680032
vn 0.345331 0.73952 0.577804
vn 0.254517 -0.961783 -0.100964
vn -0.726343 0.390965 0.565306
vn -0.094162 -0.900673 -0.424171
vn 0.560666 -0.61356 0.556056
vn -0.848005 -0.529989 -6.72488e-07
vn -0.963137 0.091437 0.252993
vn 0.546354 0.121198 0.828739
vn -0.355964 -0.934435 -0.0110223
vn 0.080846 -0.996441 -0.0238632
vn 0.374721 -0.906077 0.196489
vn 0.325416 0.587556 0.740866
vn 0.00328175 0.705192 0.709009
vn -0.186984 0.661273 0.726467
vn 0.320175 0.261896 0.910439
vn -0.739243 -0.126357 0.661478
vn 0.299699 -0.621203 0.724076
vn 0.52203 -0.296918 0.799578
vn 0.0731913 0.570788 0.817829
vn -0.277987 -0.381711 0.881487
vn 0.0379801 -0.835476 0.548214
vn -0.252344 0.315034 0.914919
vn 0.227244 0.0654578 0.971635
vn -0.0313873 0.432109 0.901275
vn 0.0186202 0.000485733 0.999826
vn -0.161793 0.235195 0.958387

g grp1
usemtl mtl1
f 1//1 2//2 3//3 
f 2//2 1//1 4//4 
f 1//1 3//3 5//5 
f 6//6 1//1 5//5 
f 2//2 7//7 3//3 
f 1//1 8//8 4//4 
f 3//3 7//7 9//9 
f 1//1 6//6 8//8 
f 9//9 10//10 3//3 
f 5//5 3//3 10//10 
f 6//6 5//5 11//11 
f 2//2 12//12 7//7 
f 4//4 12//12 2//2 
f 8//8 13//13 4//4 
f 13//13 8//8 14//14 
f 7//7 15//15 9//9 
f 16//16 17//17 8//8 
f 6//6 16//16 8//8 
f 5//5 18//18 11//11 
f 10//10 18//18 5//5 
f 6//6 11//11 16//16 
f 4//4 13//13 12//12 
f 19//19 7//7 12//12 
f 19//19 15//15 7//7 
f 14//14 8//8 20//20 
f 20//20 8//8 17//17 
f 21//21 17//17 16//16 
f 13//13 22//22 12//12 
f 13//13 23//23 22//22 
f 13//13 14//14 23//23 
f 24//24 9//9 15//15 
f 9//9 24//24 25//25 
f 9//9 25//25 10//10 
f 25//25 18//18 10//10 
f 11//11 26//26 16//16 
f 11//11 18//18 26//26 
f 14//14 27//27 23//23 
f 20//20 27//27 14//14 
f 28//28 24//24 15//15 
f 16//16 26//26 29//29 
f 29//29 21//21 16//16 
f 18//18 25//25 30//30 
f 31//31 18//18 30//30 
f 26//26 18//18 31//31 
f 32//32 12//12 22//22 
f 27//27 20//20 33//33 
f 34//34 33//33 17//17 
f 33//33 20//20 17//17 
f 17//17 21//21 35//35 
f 29//29 35//35 21//21 
f 23//23 36//36 22//22 
f 12//12 32//32 19//19 
f 19//19 28//28 15//15 
f 34//34 17//17 35//35 
f 30//30 25//25 37//37 
f 27//27 36//36 23//23 
f 27//27 33//33 36//36 
f 34//34 38//38 33//33 
f 19//19 39//39 28//28 
f 40//40 34//34 35//35 
f 35//35 29//29 41//41 
f 40//40 35//35 41//41 
f 25//25 24//24 37//37 
f 42//42 29//29 26//26 
f 26//26 31//31 43//43 
f 44//44 36//36 33//33 
f 33//33 38//38 44//44 
f 22//22 45//45 32//32 
f 38//38 34//34 46//46 
f 40//40 46//46 34//34 
f 28//28 47//47 24//24 
f 41//41 29//29 42//42 
f 30//30 37//37 48//48 
f 42//42 26//26 43//43 
f 31//31 30//30 48//48 
f 36//36 49//49 22//22 
f 32//32 39//39 19//19 
f 37//37 24//24 50//50 
f 38//38 51//51 44//44 
f 45//45 22//22 49//49 
f 51//51 38//38 46//46 
f 32//32 45//45 39//39 
f 46//46 40//40 52//52 
f 47//47 50//50 24//24 
f 53//53 41//41 42//42 
f 43//43 31//31 48//48 
f 36//36 44//44 54//54 
f 40//40 41//41 53//53 
f 53//53 52//52 40//40 
f 53//53 42//42 55//55 
f 55//55 42//42 43//43 
f 37//37 50//50 48//48 
f 51//51 56//56 44//44 
f 52//52 51//51 46//46 
f 36//36 54//54 49//49 
f 52//52 53//53 57//57 
f 28//28 39//39 47//47 
f 58//58 50//50 47//47 
f 48//48 50//50 59//59 
f 60//60 51//51 52//52 
f 55//55 61//61 53//53 
f 59//59 62//62 48//48 
f 48//48 62//62 43//43 
f 55//55 43//43 62//62 
f 44//44 63//63 54//54 
f 44//44 56//56 63//63 
f 51//51 60//60 56//56 
f 54//54 64//64 49//49 
f 52//52 57//57 60//60 
f 39//39 45//45 65//65 
f 39//39 65//65 47//47 
f 57//57 53//53 66//66 
f 53//53 61//61 66//66 
f 67//67 45//45 49//49 
f 65//65 45//45 68//68 
f 47//47 65//65 58//58 
f 50//50 58//58 59//59 
f 54//54 69//69 64//64 
f 54//54 63//63 69//69 
f 57//57 70//70 60//60 
f 49//49 71//71 67//67 
f 64//64 71//71 49//49 
f 57//57 66//66 70//70 
f 72//72 66//66 61//61 
f 62//62 59//59 73//73 
f 55//55 62//62 74//74 
f 74//74 61//61 55//55 
f 60//60 70//70 75//75 
f 60//60 75//75 56//56 
f 70//70 66//66 76//76 
f 67//67 68//68 45//45 
f 77//77 65//65 68//68 
f 65//65 77//77 58//58 
f 59//59 58//58 73//73 
f 75//75 69//69 63//63 
f 56//56 75//75 63//63 
f 66//66 72//72 76//76 
f 58//58 78//78 73//73 
f 73//73 79//79 62//62 
f 69//69 71//71 64//64 
f 75//75 70//70 76//76 
f 80//80 68//68 67//67 
f 76//76 72//72 81//81 
f 77//77 78//78 58//58 
f 61//61 74//74 72//72 
f 73//73 78//78 79//79 
f 62//62 79//79 74//74 
f 69//69 75//75 82//82 
f 69//69 83//83 71//71 
f 76//76 82//82 75//75 
f 76//76 81//81 82//82 
f 80//80 67//67 71//71 
f 68//68 80//80 77//77 
f 77//77 80//80 78//78 
f 74//74 84//84 72//72 
f 79//79 84//84 74//74 
f 69//69 82//82 83//83 
f 80//80 71//71 85//85 
f 85//85 78//78 80//80 
f 84//84 81//81 72//72 
f 86//86 78//78 85//85 
f 86//86 79//79 78//78 
f 86//86 84//84 79//79 
f 83//83 82//82 87//87 
f 82//82 81//81 87//87 
f 71//71 83//83 87//87 
f 71//71 87//87 88//88 
f 85//85 71//71 88//88 
f 87//87 84//84 88//88 
f 88//88 86//86 85//85 
f 81//81 84//84 87//87 
f 84//84 86//86 88//88 
f 89//89 90//90 91//91 
f 92//92 91//91 90//90 
f 91//91 93//93 94//94 
f 89//89 94//94 95//95 
f 94//94 89//89 91//91 
f 96//96 93//93 91//91 
f 96//96 91//91 92//92 
f 97//97 98//98 99//99 
f 89//89 97//97 99//99 
f 90//90 89//89 99//99 
f 99//99 100//100 90//90 
f 100//100 92//92 90//90 
f 100//100 99//99 98//98 
f 92//92 100//100 101//101 
f 94//94 93//93 102//102 
f 103//103 89//89 95//95 
f 104//104 97//97 103//103 
f 89//89 103//103 97//97 
f 97//97 104//104 98//98 
f 105//105 98//98 104//104 
f 106//106 98//98 105//105 
f 106//106 100//100 98//98 
f 107//107 102//102 93//93 
f 107//107 93//93 108//108 
f 93//93 96//96 108//108 
f 109//109 96//96 92//92 
f 109//109 92//92 101//101 
f 101//101 100//100 106//106 
f 107//107 108//108 110//110 
f 108//108 111//111 110//110 
f 102//102 107//107 112//112 
f 110//110 112//112 107//107 
f 113//113 94//94 102//102 
f 113//113 95//95 94//94 
f 103//103 95//95 114//114 
f 108//108 96//96 111//111 
f 103//103 115//115 104//104 
f 116//116 105//105 104//104 
f 101//101 117//117 109//109 
f 106//106 118//118 119//119 
f 106//106 119//119 101//101 
f 102//102 120//120 113//113 
f 110//110 121//121 112//112 
f 111//111 121//121 110//110 
f 95//95 113//113 114//114 
f 109//109 111//111 96//96 
f 104//104 115//115 116//116 
f 116//116 122//122 105//105 
f 106//106 105//105 122//122 
f 101//101 119//119 117//117 
f 102//102 123//123 120//120 
f 102//102 112//112 123//123 
f 124//124 112//112 121//121 
f 115//115 103//103 125//125 
f 114//114 125//125 103//103 
f 122//122 118//118 106//106 
f 126//126 111//111 109//109 
f 115//115 127//127 116//116 
f 109//109 117//117 126//126 
f 118//118 128//128 119//119 
f 124//124 121//121 129//129 
f 120//120 114//114 113//113 
f 130//130 115//115 125//125 
f 112//112 124//124 123//123 
f 114//114 120//120 131//131 
f 121//121 126//126 132//132 
f 111//111 126//126 121//121 
f 132//132 129//129 121//121 
f 115//115 130//130 127//127 
f 133//133 122//122 116//116 
f 122//122 128//128 118//118 
f 117//117 119//119 134//134 
f 120//120 123//123 131//131 
f 124//124 135//135 123//123 
f 124//124 129//129 135//135 
f 127//127 133//133 116//116 
f 117//117 136//136 126//126 
f 134//134 136//136 117//117 
f 128//128 137//137 119//119 
f 138//138 114//114 131//131 
f 125//125 138//138 130//130 
f 114//114 138//138 125//125 
f 129//129 132//132 139//139 
f 126//126 136//136 140//140 
f 122//122 133//133 141//141 
f 141//141 128//128 122//122 
f 137//137 142//142 119//119 
f 119//119 142//142 134//134 
f 138//138 131//131 143//143 
f 123//123 143//143 131//131 
f 130//130 144//144 127//127 
f 144//144 133//133 127//127 
f 132//132 126//126 140//140 
f 137//137 128//128 141//141 
f 123//123 145//145 143//143 
f 135//135 145//145 123//123 
f 130//130 138//138 146//146 
f 129//129 139//139 135//135 
f 132//132 140//140 139//139 
f 147//147 141//141 133//133 
f 138//138 143//143 148//148 
f 149//149 138//138 148//148 
f 150//150 145//145 135//135 
f 130//130 146//146 144//144 
f 138//138 149//149 146//146 
f 139//139 150//150 135//135 
f 139//139 140//140 151//151 
f 134//134 152//152 136//136 
f 148//148 143//143 153//153 
f 145//145 153//153 143//143 
f 150//150 139//139 151//151 
f 133//133 154//154 147//147 
f 152//152 151//151 140//140 
f 140//140 136//136 152//152 
f 142//142 152//152 134//134 
f 155//155 146//146 149//149 
f 156//156 153//153 145//145 
f 150//150 156//156 145//145 
f 144//144 157//157 158//158 
f 146//146 157//157 144//144 
f 159//159 150//150 151//151 
f 158//158 133//133 144//144 
f 158//158 154//154 133//133 
f 146//146 160//160 157//157 
f 146//146 155//155 160//160 
f 155//155 148//148 161//161 
f 161//161 148//148 162//162 
f 148//148 155//155 149//149 
f 162//162 148//148 153//153 
f 159//159 156//156 150//150 
f 151//151 163//163 159//159 
f 152//152 164//164 163//163 
f 151//151 152//152 163//163 
f 165//165 141//141 147//147 
f 164//164 137//137 141//141 
f 142//142 137//137 164//164 
f 152//152 142//142 164//164 
f 162//162 153//153 156//156 
f 159//159 163//163 166//166 
f 141//141 165//165 164//164 
f 155//155 161//161 160//160 
f 167//167 157//157 160//160 
f 161//161 162//162 168//168 
f 157//157 167//167 158//158 
f 156//156 169//169 162//162 
f 156//156 159//159 169//169 
f 165//165 147//147 154//154 
f 166//166 163//163 170//170 
f 170//170 163//163 164//164 
f 160//160 171//171 167//167 
f 160//160 172//172 171//171 
f 161//161 172//172 160//160 
f 161//161 168//168 172//172 
f 167//167 154//154 158//158 
f 167//167 173//173 154//154 
f 166//166 174//174 169//169 
f 169//169 159//159 166//166 
f 154//154 173//173 165//165 
f 165//165 175//175 164//164 
f 164//164 175//175 170//170 
f 168//168 162//162 169//169 
f 174//174 168//168 169//169 
f 174//174 166//166 175//175 
f 166//166 170//170 175//175 
f 165//165 173//173 175//175 
f 171//171 172//172 176//176 
f 176//176 172//172 168//168 
f 176//176 177//177 171//171 
f 174//174 176//176 168//168 
f 171//171 177//177 167//167 
f 177//177 173//173 167//167 
f 176//176 175//175 177//177 
f 174//174 175//175 176//176 
f 175//175 173//173 177//177 
