# wavefront obj file written by the visualization toolkit


v 11102.9 7142.43 4783.7
v 10890 7116.84 4790.81
v 11021.4 7168.83 4788.87
v 11156.9 7192.11 4803.34
v 10777.9 7036.36 4808.79
v 10708 7050.12 4808.78
v 10977.7 7074.51 4808.16
v 10783.4 7115.69 4807.01
v 11166.2 7099.69 4827.15
v 11217.8 7148.26 4831.97
v 10892.6 7158.28 4806.16
v 11241.1 7195.84 4844.86
v 11028.5 7195.79 4810.68
v 11200.1 7214.46 4821.87
v 11140.6 7219.18 4828.98
v 10622.7 6970.7 4825.95
v 10585.3 7003.72 4830.53
v 10832 7008.81 4833.77
v 10687.8 6950.97 4845.1
v 10974.7 7009.23 4872.76
v 11119.8 7054.02 4861.85
v 10673.4 7073.27 4826.38
v 10579.9 7032.78 4847.3
v 10772 7133.88 4836.39
v 10914.9 7181.18 4832.05
v 11211 7221.64 4855.17
v 10567.4 6888.2 4865.72
v 10529.6 6922.01 4859.7
v 10506.5 6956.21 4862.46
v 10771 6942.35 4876.29
v 10527.5 6988.97 4859.21
v 11220.4 7062.15 4890.19
v 11259.4 7099.01 4901.7
v 10632.4 7070.59 4863.22
v 11269.2 7149.29 4892.58
v 11012.2 7208.99 4849.28
v 10502 6837.52 4929.61
v 10542.1 6825.24 4924.23
v 10644.5 6875.2 4914.65
v 10477.9 6894.2 4912.79
v 10481 6945.16 4909.71
v 11169.7 7033.6 4926.42
v 10545.3 7011.1 4884.57
v 10706.4 7110.73 4893.15
v 10864.1 7168.55 4870.65
v 11256.8 7204.57 4896.54
v 11116.1 7219.54 4896.38
v 10772.1 6917.49 4920.16
v 10900 6959.88 4912.03
v 10580.3 7034.59 4920.16
v 11273.4 7171.89 4914.22
v 10969.2 7195.12 4897.1
v 11216.8 7208.98 4923.53
v 10512 6792.58 4982.07
v 10448.7 6875.59 4976.03
v 11020.6 6988.72 4939.51
v 10851.5 7143.94 4939.93
v 10560.1 6806.91 4977.31
v 10462.2 6832.69 5001.94
v 10725.5 6888.98 4952.43
v 10853.2 6936.2 4955.92
v 10465.5 6910.26 4995.68
v 10514.7 6973.63 4940.54
v 11245.2 7062.44 4936.38
v 10646.9 7044.64 4967.39
v 11278.9 7131.62 4960.36
v 11252.3 7173.82 4966.48
v 11027.9 7186.25 4952.44
v 10621 6836.67 4993.02
v 10446.1 6860.62 5023.84
v 10538.4 6975.12 4976.35
v 11266.4 7086.76 4963.72
v 11148.3 7183.12 4980.91
v 10488 6798.15 5023.11
v 10547.6 6792.08 5030.15
v 10452 6842.14 5037.17
v 10738.4 6899.99 4991.85
v 10965.8 6970.11 4978.94
v 10844.2 6936.77 4982.23
v 11117 7019.8 4982.22
v 11219 7063.87 4980.9
v 10759 7061.21 5011.84
v 10520 6793.09 5020.06
v 10982 7141.33 4997.66
v 11262.9 7141.32 5011.26
v 10610.4 6855 5045.47
v 10555.3 6807.1 5050.71
v 10849 6950.46 5003
v 10991.5 7007.63 5015.15
v 10568.6 6957.83 5025.62
v 11244.1 7113.55 5011.35
v 11216.9 7152.56 5023.02
v 10472.7 6817.82 5056.09
v 10735.5 6936.07 5027.24
v 10869.2 6996.76 5027.37
v 10992.4 7055.28 5042.4
v 10677 6977.24 5053.14
v 11128.7 7071.38 5023.79
v 10962.1 7081.45 5043.27
v 11101.3 7137.77 5022.8
v 10514.9 6803.8 5054.06
v 10483.5 6866.55 5047.43
v 10658.2 6930.98 5056.66
v 10788.4 6994.26 5042.23
v 10664.9 6939.94 5063.18
v 11231 7137.51 5026.99
v 10544.6 6824.69 5071.72
v 10592.6 6888.96 5071.17
v 10563.1 6900.45 5063.24
v 11068 7083.25 5045.05
v 11137.6 7111.17 5025.73
v 10529.6 6846.26 5058.07
v 10518.5 6833.92 6292.09
v 10497.4 6812.35 6298.04
v 10494.9 6865.65 6314.18
v 10556.3 6820.8 6326.97
v 10529.4 6798.58 6335.82
v 10467.8 6831.17 6327.26
v 10492.5 6797.05 6341.82
v 10581.1 6871.87 6325.1
v 10552.8 6895.86 6322.55
v 10649.4 6937.95 6336.49
v 10456.6 6820.39 6377.51
v 10445.9 6866.49 6387.36
v 10474.4 6911.52 6389.85
v 10667 6904.83 6351.71
v 10550.4 6952.75 6366.63
v 11150.5 7117.21 6320.55
v 11024.9 7071.84 6334.2
v 11021.5 7111.05 6339.03
v 11163.1 7087.79 6337.68
v 11225.5 7135.41 6349.15
v 11147.2 7152.04 6351.6
v 10644.6 6866.04 6367.23
v 10631.3 6964.6 6347.36
v 10782 6962.64 6359.79
v 10670.3 7013.87 6366.67
v 10821 7031.63 6351.14
v 10909.7 7014.43 6353.18
v 11058.4 7039.13 6350.24
v 11179.7 7049.65 6366.79
v 11242.5 7100.49 6368.38
v 10901 7106.04 6365.47
v 11269.2 7143.24 6390.76
v 10995.8 7159.8 6394.22
v 11227.2 7180.94 6405.96
v 10480.6 6801.57 6395.93
v 10525.3 6801.68 6392.13
v 10595 6829.3 6387.4
v 10732.6 6912.25 6378.97
v 10948.7 6988.69 6372.73
v 10862.3 6945.98 6407.05
v 11074.7 7012.57 6377.09
v 11154.8 7023.23 6386.67
v 11236.2 7060.54 6398.55
v 10769 7066.82 6379.12
v 11122.4 7191.74 6413.82
v 10456.1 6915.3 6437.68
v 11048.6 6994.26 6399.39
v 10662 7043.22 6403.89
v 11278.2 7115.65 6433.76
v 10802 7106.32 6410.85
v 10463 6839.09 6446.22
v 10453.8 6877.89 6439.52
v 10693.1 6877.9 6412.62
v 11010.8 6977.48 6430
v 10566.3 7009.93 6437.09
v 11139.4 7020.37 6439.85
v 11249 7081.38 6467.96
v 10855.8 7158.39 6460.82
v 11035.5 7204.86 6468.99
v 11178 7216.19 6472.53
v 10510.2 6827.56 6452.31
v 10571.7 6831.15 6442.73
v 10620.7 6847.53 6431.14
v 10766.8 6914.57 6454.6
v 10887.9 6952.35 6452.14
v 10700.6 7094.6 6469.87
v 11269.4 7170.06 6461.5
v 11235.8 7201.04 6489.22
v 10651.2 6874.29 6459.82
v 10504.8 6972.43 6466.43
v 11278.5 7128.23 6506.08
v 11275.3 7150.76 6507.35
v 10908.3 7190.02 6509.01
v 10463.8 6891.6 6484.56
v 10475.8 6931.08 6479.63
v 10863.3 6962.79 6495.75
v 11006.5 6991.45 6474.28
v 11123.7 7040.05 6507.81
v 11201.4 7079.91 6515.87
v 10597.2 7044.19 6498.7
v 10492.5 6881.7 6495.25
v 10587.5 6891.86 6494.82
v 10729 6937.79 6499.73
v 10531.7 6987.53 6512.12
v 10687.1 7102.85 6523.04
v 10802.6 7149.22 6524.82
v 11122 7223.32 6529.85
v 11199.8 7212.03 6530.07
v 10498.5 6930.33 6510.79
v 10840.5 7002.36 6541.95
v 11008.3 7028.91 6531.43
v 11246.3 7126.01 6540.45
v 11241.1 7182.61 6534.28
v 10923.3 7188.29 6551.91
v 11016 7206.48 6528.29
v 10633.5 7053.21 6541.67
v 11131.6 7099.06 6561.91
v 11256 7152.2 6535.68
v 10568.3 6949.18 6530.14
v 10689.5 6980.28 6538.55
v 10575.5 6990.29 6531.81
v 10944.7 7070.27 6573.32
v 10732.7 7111.99 6550.25
v 10815.4 7142.35 6561.18
v 11031.9 7202.14 6560.2
v 11129.4 7193.71 6564.94
v 10656.7 7022.65 6552.22
v 10780.8 7045.55 6565.28
v 10766.7 7093.71 6565.47
v 10952.6 7157.99 6572.64
v 10947.1 7106.75 6584.33
v 11045.3 7108.68 6584.51
v 11196.5 7154.15 6556.76
v 11067.1 7134.93 6570.08
vn 0.167947 -0.158544 -0.972963
vn -0.0700713 0.0243002 -0.997246
vn -0.0648233 0.409553 -0.909981
vn 0.195175 0.359172 -0.912635
vn 0.0541936 -0.363647 -0.929959
vn -0.162888 0.0674142 -0.984339
vn 0.122361 -0.556314 -0.821914
vn -0.262259 0.476666 -0.839053
vn 0.354311 -0.548425 -0.757426
vn 0.564239 -0.209366 -0.798624
vn -0.215564 0.643473 -0.734489
vn 0.733911 0.320235 -0.59902
vn -0.121079 0.783988 -0.608854
vn 0.301718 0.695227 -0.6524
vn -0.0385863 0.920596 -0.388606
vn -0.0712378 -0.286574 -0.955406
vn -0.359064 0.163534 -0.918874
vn 0.168277 -0.614557 -0.770715
vn 0.166405 -0.603005 -0.780189
vn 0.229694 -0.785861 -0.574163
vn 0.202735 -0.782194 -0.589127
vn -0.382107 0.579311 -0.719996
vn -0.544406 0.67161 -0.502557
vn -0.368125 0.859134 -0.35549
vn -0.259355 0.908794 -0.326845
vn 0.264839 0.956853 -0.119553
vn -0.0195112 -0.595269 -0.803289
vn -0.37991 -0.322907 -0.866833
vn -0.684913 0.0714488 -0.725114
vn 0.233018 -0.759371 -0.607501
vn -0.687987 0.529874 -0.495892
vn 0.440727 -0.748756 -0.495099
vn 0.795085 -0.42492 -0.432763
vn -0.502065 0.846978 -0.174813
vn 0.908919 -0.0981651 -0.405252
vn -0.184887 0.975925 -0.1157
vn -0.515683 -0.61446 -0.597085
vn 0.0597753 -0.804724 -0.590633
vn 0.314628 -0.81902 -0.479807
vn -0.778259 -0.273894 -0.565063
vn -0.873616 0.454465 -0.173943
vn 0.305538 -0.938354 -0.161675
vn -0.655587 0.75434 -0.0342929
vn -0.398127 0.89989 0.178025
vn -0.302188 0.951032 0.0649732
vn 0.636723 0.769897 0.0429399
vn -0.0649635 0.978352 0.196485
vn 0.300499 -0.884327 -0.357305
vn 0.280166 -0.881897 -0.379164
vn -0.535136 0.808481 0.244924
vn 0.943369 0.329415 -0.0392396
vn -0.224687 0.94592 0.233988
vn 0.172721 0.925441 0.337235
vn -0.158669 -0.93961 -0.303246
vn -0.985446 -0.0217945 -0.168585
vn 0.292978 -0.939321 -0.178437
vn -0.284054 0.853062 0.43772
vn 0.311383 -0.915883 -0.253377
vn -0.798805 -0.559712 -0.220527
vn 0.363364 -0.920145 -0.145944
vn 0.311292 -0.949228 -0.0454242
vn -0.699774 0.615343 0.362863
vn -0.653416 0.726854 0.211496
vn 0.589276 -0.806485 -0.0483309
vn -0.383724 0.780081 0.494196
vn 0.988291 -0.0357811 0.148324
vn 0.542555 0.731365 0.413206
vn -0.16719 0.868502 0.466638
vn 0.508388 -0.858716 0.0644146
vn -0.862482 0.287702 0.416356
vn -0.505388 0.73816 0.446882
vn 0.811769 -0.534551 0.235131
vn -0.0149703 0.834043 0.551496
vn -0.506226 -0.862268 0.0151489
vn 0.245009 -0.954048 0.172518
vn -0.914437 -0.185913 0.359501
vn 0.390003 -0.839443 0.378463
vn 0.280835 -0.907048 0.313679
vn 0.297985 -0.902571 0.310757
vn 0.316273 -0.862719 0.394571
vn 0.412908 -0.783017 0.46518
vn -0.259848 0.690644 0.6749
vn -0.0289462 -0.997045 0.0711619
vn -0.173623 0.723545 0.668085
vn 0.696231 0.245329 0.674593
vn 0.482037 -0.542242 0.688196
vn 0.407354 -0.726807 0.553004
vn 0.2443 -0.707579 0.663061
vn 0.201759 -0.623228 0.755566
vn -0.386316 0.637766 0.666345
vn 0.504091 -0.413835 0.758045
vn 0.127155 0.573179 0.809505
vn -0.566536 -0.420181 0.708862
vn 0.30999 -0.522431 0.794338
vn 0.169942 -0.500441 0.848928
vn 0.106416 -0.358636 0.927392
vn -0.103137 0.333964 0.936926
vn 0.246604 -0.459618 0.853193
vn -0.0468684 0.305557 0.95102
vn -0.0634904 0.509858 0.857913
vn -0.152015 -0.730248 0.666055
vn -0.437056 0.33974 0.832802
vn 0.386384 -0.483279 0.785589
vn 0.186709 -0.305987 0.933548
vn 0.252206 -0.21375 0.943771
vn 0.245911 -0.0159452 0.969161
vn 0.0496406 -0.316267 0.947371
vn 0.109607 -0.0888038 0.99
vn -0.24933 0.299282 0.921013
vn 0.127576 -0.0343626 0.991233
vn 0.0875039 0.0615073 0.994264
vn -0.255698 0.0433072 0.965786
vn 0.159738 0.00194695 -0.987158
vn -0.227721 -0.547045 -0.805534
vn -0.473776 0.422368 -0.772749
vn 0.509523 -0.614479 -0.602331
vn 0.270671 -0.931094 -0.244541
vn -0.84986 -0.0865774 -0.519848
vn -0.372176 -0.910041 -0.182512
vn 0.405645 -0.187415 -0.89461
vn -0.0260988 0.394226 -0.918643
vn 0.143406 -0.0103059 -0.98961
vn -0.869723 -0.493493 -0.00677859
vn -0.974138 0.136124 -0.180349
vn -0.67601 0.599482 -0.428523
vn 0.354562 -0.448696 -0.82034
vn -0.374391 0.654267 -0.657089
vn 0.074139 0.158345 -0.984597
vn -0.0190417 -0.203923 -0.978802
vn -0.161041 0.456209 -0.87518
vn 0.251302 -0.387806 -0.886822
vn 0.428004 0.288413 -0.856522
vn -0.00620585 0.736451 -0.676463
vn 0.493117 -0.676032 -0.547554
vn -0.154626 0.444952 -0.882104
vn 0.210821 -0.466005 -0.859298
vn -0.244822 0.581314 -0.775974
vn -0.0858737 0.182161 -0.979512
vn 0.0436427 -0.359403 -0.932161
vn 0.110708 -0.534257 -0.838041
vn 0.312129 -0.635834 -0.705897
vn 0.648541 -0.35409 -0.673806
vn -0.234666 0.611265 -0.755835
vn 0.822749 0.299533 -0.483077
vn -0.193924 0.797265 -0.571631
vn 0.32952 0.833582 -0.443348
vn -0.340506 -0.904875 0.255456
vn 0.149977 -0.967524 0.203481
vn 0.449603 -0.892528 -0.0353584
vn 0.382309 -0.701047 -0.601974
vn 0.152429 -0.705875 -0.691741
vn 0.278473 -0.906972 -0.315997
vn 0.17248 -0.756048 -0.631382
vn 0.310255 -0.889637 -0.335095
vn 0.61776 -0.753363 -0.225424
vn -0.252525 0.621617 -0.741501
vn -0.0429189 0.885197 -0.463233
vn -0.902683 0.43028 0.00481631
vn 0.234396 -0.92027 -0.313307
vn -0.362699 0.759718 -0.539702
vn 0.968182 -0.219388 -0.120382
vn -0.304905 0.781593 -0.544192
vn -0.665824 -0.565343 0.486893
vn -0.974718 -0.039644 0.219894
vn 0.424696 -0.904568 -0.0372836
vn 0.263628 -0.962781 0.0596094
vn -0.512934 0.784193 -0.3492
vn 0.356184 -0.916734 0.18092
vn 0.608893 -0.745018 0.272394
vn -0.307113 0.881624 -0.358359
vn -0.145151 0.952084 -0.269197
vn 0.113295 0.973736 -0.197493
vn -0.0390298 -0.78777 0.614731
vn 0.270278 -0.851509 0.449313
vn 0.395928 -0.882223 0.254801
vn 0.299802 -0.899806 0.316967
vn 0.255245 -0.94521 0.203537
vn -0.409943 0.859366 -0.305673
vn 0.817914 0.572645 -0.0556375
vn 0.507213 0.861768 -0.00953684
vn 0.316543 -0.804943 0.501863
vn -0.694662 0.718519 -0.0342724
vn 0.873604 -0.28359 0.395465
vn 0.922216 0.287753 0.258295
vn -0.254267 0.965021 -0.0639035
vn -0.79939 -0.088352 0.594281
vn -0.846669 0.386654 0.365583
vn 0.208731 -0.818146 0.535788
vn 0.2465 -0.885299 0.394314
vn 0.276337 -0.799081 0.533954
vn 0.377664 -0.762152 0.525827
vn -0.574761 0.816902 0.048177
vn -0.231545 -0.472062 0.850614
vn 0.129659 -0.608555 0.782847
vn 0.176295 -0.701477 0.690543
vn -0.638665 0.541147 0.547053
vn -0.478799 0.862173 0.165558
vn -0.372402 0.923823 0.0886994
vn -0.0126023 0.972748 0.231523
vn 0.290498 0.882859 0.369013
vn -0.508163 0.0798606 0.85755
vn 0.0999764 -0.593676 0.798469
vn 0.182544 -0.707343 0.682894
vn 0.482349 -0.433399 0.761252
vn 0.581614 0.559488 0.590507
vn -0.228036 0.858283 0.459729
vn -0.15062 0.983906 0.0961366
vn -0.441719 0.483919 0.755451
vn 0.224806 -0.41407 0.882048
vn 0.6402 0.11471 0.759596
vn -0.104337 -0.268189 0.9577
vn 0.0512824 -0.464763 0.883949
vn -0.340443 0.136049 0.930371
vn 0.0735455 -0.455266 0.887313
vn -0.366304 0.675836 0.639584
vn -0.266425 0.624797 0.733925
vn -0.0891961 0.773366 0.627654
vn 0.125313 0.43757 0.890409
vn -0.154018 -0.0564499 0.986454
vn -0.0306642 -0.26166 0.964673
vn -0.174421 0.186891 0.966773
vn -0.0659398 0.318289 0.945698
vn -0.0278627 0.0515756 0.99828
vn 0.119517 -0.0356325 0.992193
vn 0.2439 0.0558704 0.96819
vn 0.103769 0.154534 0.982523

g grp1
usemtl mtl1
f 1//1 2//2 3//3 
f 4//4 1//1 3//3 
f 2//2 5//5 6//6 
f 7//7 5//5 2//2 
f 1//1 7//7 2//2 
f 2//2 6//6 8//8 
f 1//1 9//9 7//7 
f 1//1 10//10 9//9 
f 8//8 11//11 2//2 
f 11//11 3//3 2//2 
f 10//10 1//1 4//4 
f 4//4 12//12 10//10 
f 13//13 3//3 11//11 
f 3//3 13//13 4//4 
f 12//12 4//4 14//14 
f 15//15 4//4 13//13 
f 14//14 4//4 15//15 
f 5//5 16//16 6//6 
f 6//6 16//16 17//17 
f 18//18 19//19 5//5 
f 20//20 7//7 21//21 
f 22//22 17//17 23//23 
f 6//6 17//17 22//22 
f 7//7 18//18 5//5 
f 9//9 21//21 7//7 
f 6//6 22//22 8//8 
f 8//8 22//22 24//24 
f 8//8 24//24 11//11 
f 11//11 24//24 25//25 
f 11//11 25//25 13//13 
f 12//12 14//14 26//26 
f 26//26 14//14 15//15 
f 27//27 28//28 16//16 
f 17//17 28//28 29//29 
f 16//16 28//28 17//17 
f 19//19 27//27 16//16 
f 5//5 19//19 16//16 
f 19//19 18//18 30//30 
f 17//17 29//29 31//31 
f 17//17 31//31 23//23 
f 20//20 18//18 7//7 
f 21//21 9//9 32//32 
f 32//32 9//9 33//33 
f 22//22 23//23 34//34 
f 9//9 10//10 33//33 
f 22//22 34//34 24//24 
f 12//12 35//35 10//10 
f 15//15 13//13 36//36 
f 37//37 27//27 38//38 
f 27//27 37//37 28//28 
f 19//19 39//39 27//27 
f 40//40 29//29 28//28 
f 30//30 39//39 19//19 
f 41//41 29//29 40//40 
f 29//29 41//41 31//31 
f 20//20 30//30 18//18 
f 20//20 21//21 42//42 
f 23//23 31//31 43//43 
f 23//23 43//43 34//34 
f 10//10 35//35 33//33 
f 44//44 24//24 34//34 
f 24//24 44//44 45//45 
f 24//24 45//45 25//25 
f 25//25 45//45 36//36 
f 13//13 25//25 36//36 
f 12//12 26//26 46//46 
f 47//47 15//15 36//36 
f 15//15 47//47 26//26 
f 39//39 38//38 27//27 
f 37//37 40//40 28//28 
f 39//39 30//30 48//48 
f 49//49 30//30 20//20 
f 31//31 41//41 43//43 
f 42//42 21//21 32//32 
f 50//50 34//34 43//43 
f 35//35 12//12 51//51 
f 51//51 12//12 46//46 
f 36//36 45//45 52//52 
f 36//36 52//52 47//47 
f 47//47 53//53 26//26 
f 46//46 26//26 53//53 
f 37//37 38//38 54//54 
f 49//49 48//48 30//30 
f 41//41 40//40 55//55 
f 49//49 20//20 56//56 
f 34//34 50//50 44//44 
f 44//44 57//57 45//45 
f 58//58 54//54 38//38 
f 58//58 38//38 39//39 
f 37//37 59//59 40//40 
f 60//60 39//39 48//48 
f 60//60 48//48 61//61 
f 61//61 48//48 49//49 
f 55//55 62//62 41//41 
f 61//61 49//49 56//56 
f 63//63 41//41 62//62 
f 41//41 63//63 43//43 
f 42//42 56//56 20//20 
f 32//32 64//64 42//42 
f 50//50 43//43 63//63 
f 32//32 33//33 64//64 
f 65//65 44//44 50//50 
f 33//33 35//35 66//66 
f 35//35 51//51 66//66 
f 52//52 45//45 57//57 
f 53//53 67//67 46//46 
f 67//67 51//51 46//46 
f 47//47 52//52 68//68 
f 39//39 69//69 58//58 
f 39//39 60//60 69//69 
f 59//59 55//55 40//40 
f 55//55 70//70 62//62 
f 63//63 71//71 50//50 
f 72//72 64//64 33//33 
f 33//33 66//66 72//72 
f 44//44 65//65 57//57 
f 52//52 57//57 68//68 
f 47//47 68//68 73//73 
f 47//47 73//73 53//53 
f 59//59 37//37 74//74 
f 74//74 37//37 54//54 
f 58//58 69//69 75//75 
f 55//55 59//59 76//76 
f 61//61 77//77 60//60 
f 61//61 78//78 79//79 
f 56//56 78//78 61//61 
f 42//42 80//80 56//56 
f 42//42 81//81 80//80 
f 64//64 81//81 42//42 
f 50//50 71//71 65//65 
f 72//72 81//81 64//64 
f 57//57 65//65 82//82 
f 66//66 51//51 67//67 
f 73//73 67//67 53//53 
f 74//74 54//54 83//83 
f 58//58 83//83 54//54 
f 58//58 75//75 83//83 
f 60//60 77//77 69//69 
f 76//76 70//70 55//55 
f 77//77 61//61 79//79 
f 62//62 71//71 63//63 
f 56//56 80//80 78//78 
f 82//82 84//84 57//57 
f 67//67 85//85 66//66 
f 68//68 57//57 84//84 
f 69//69 86//86 87//87 
f 69//69 77//77 86//86 
f 77//77 79//79 88//88 
f 78//78 88//88 79//79 
f 80//80 89//89 78//78 
f 71//71 90//90 65//65 
f 72//72 91//91 81//81 
f 72//72 66//66 91//91 
f 68//68 84//84 73//73 
f 73//73 92//92 67//67 
f 85//85 67//67 92//92 
f 93//93 59//59 74//74 
f 69//69 87//87 75//75 
f 59//59 93//93 76//76 
f 77//77 94//94 86//86 
f 88//88 94//94 77//77 
f 94//94 88//88 95//95 
f 95//95 88//88 89//89 
f 88//88 78//78 89//89 
f 95//95 89//89 96//96 
f 90//90 97//97 82//82 
f 80//80 81//81 98//98 
f 82//82 65//65 90//90 
f 80//80 98//98 89//89 
f 81//81 91//91 98//98 
f 82//82 97//97 99//99 
f 91//91 66//66 85//85 
f 84//84 82//82 99//99 
f 84//84 100//100 73//73 
f 75//75 101//101 83//83 
f 75//75 87//87 101//101 
f 76//76 102//102 70//70 
f 86//86 94//94 103//103 
f 102//102 62//62 70//70 
f 62//62 102//102 90//90 
f 90//90 71//71 62//62 
f 94//94 104//104 103//103 
f 104//104 105//105 103//103 
f 95//95 104//104 94//94 
f 96//96 104//104 95//95 
f 104//104 97//97 105//105 
f 98//98 96//96 89//89 
f 97//97 104//104 99//99 
f 96//96 99//99 104//104 
f 91//91 85//85 106//106 
f 84//84 99//99 100//100 
f 85//85 92//92 106//106 
f 92//92 73//73 100//100 
f 101//101 74//74 83//83 
f 101//101 93//93 74//74 
f 87//87 107//107 101//101 
f 87//87 86//86 107//107 
f 103//103 105//105 108//108 
f 97//97 90//90 109//109 
f 108//108 97//97 109//109 
f 105//105 97//97 108//108 
f 96//96 98//98 110//110 
f 110//110 99//99 96//96 
f 111//111 110//110 98//98 
f 98//98 91//91 111//111 
f 111//111 99//99 110//110 
f 106//106 111//111 91//91 
f 100//100 99//99 111//111 
f 106//106 92//92 111//111 
f 92//92 100//100 111//111 
f 93//93 102//102 76//76 
f 86//86 108//108 107//107 
f 86//86 103//103 108//108 
f 90//90 102//102 109//109 
f 101//101 112//112 93//93 
f 112//112 101//101 107//107 
f 107//107 108//108 112//112 
f 112//112 102//102 93//93 
f 109//109 102//102 112//112 
f 108//108 109//109 112//112 
f 113//113 114//114 115//115 
f 114//114 116//116 117//117 
f 118//118 114//114 119//119 
f 113//113 116//116 114//114 
f 113//113 120//120 116//116 
f 118//118 115//115 114//114 
f 113//113 121//121 120//120 
f 121//121 122//122 120//120 
f 115//115 121//121 113//113 
f 117//117 119//119 114//114 
f 123//123 118//118 119//119 
f 118//118 123//123 124//124 
f 118//118 125//125 115//115 
f 126//126 120//120 122//122 
f 127//127 121//121 115//115 
f 128//128 129//129 130//130 
f 131//131 129//129 128//128 
f 131//131 128//128 132//132 
f 132//132 128//128 133//133 
f 133//133 128//128 130//130 
f 120//120 134//134 116//116 
f 126//126 134//134 120//120 
f 118//118 124//124 125//125 
f 127//127 115//115 125//125 
f 127//127 135//135 121//121 
f 121//121 135//135 122//122 
f 136//136 126//126 122//122 
f 127//127 137//137 135//135 
f 136//136 122//122 138//138 
f 122//122 135//135 138//138 
f 139//139 136//136 138//138 
f 129//129 139//139 138//138 
f 140//140 139//139 129//129 
f 140//140 129//129 131//131 
f 141//141 140//140 131//131 
f 141//141 131//131 142//142 
f 129//129 138//138 130//130 
f 130//130 138//138 143//143 
f 142//142 131//131 132//132 
f 142//142 132//132 144//144 
f 145//145 130//130 143//143 
f 133//133 146//146 132//132 
f 132//132 146//146 144//144 
f 133//133 130//130 145//145 
f 123//123 119//119 147//147 
f 117//117 148//148 119//119 
f 119//119 148//148 147//147 
f 149//149 117//117 116//116 
f 149//149 116//116 134//134 
f 150//150 134//134 126//126 
f 136//136 150//150 126//126 
f 136//136 151//151 152//152 
f 139//139 151//151 136//136 
f 135//135 137//137 138//138 
f 140//140 151//151 139//139 
f 153//153 141//141 154//154 
f 154//154 141//141 155//155 
f 156//156 138//138 137//137 
f 141//141 153//153 140//140 
f 138//138 156//156 143//143 
f 141//141 142//142 155//155 
f 133//133 145//145 157//157 
f 146//146 133//133 157//157 
f 117//117 149//149 148//148 
f 158//158 125//125 124//124 
f 150//150 136//136 152//152 
f 151//151 159//159 152//152 
f 151//151 153//153 159//159 
f 153//153 151//151 140//140 
f 137//137 127//127 160//160 
f 160//160 156//156 137//137 
f 155//155 142//142 161//161 
f 156//156 160//160 162//162 
f 144//144 161//161 142//142 
f 162//162 143//143 156//156 
f 162//162 145//145 143//143 
f 147//147 163//163 123//123 
f 124//124 123//123 164//164 
f 123//123 163//163 164//164 
f 134//134 165//165 149//149 
f 134//134 150//150 165//165 
f 150//150 152//152 165//165 
f 159//159 166//166 152//152 
f 125//125 167//167 127//127 
f 153//153 154//154 159//159 
f 127//127 167//167 160//160 
f 154//154 155//155 168//168 
f 169//169 168//168 155//155 
f 155//155 161//161 169//169 
f 162//162 170//170 145//145 
f 157//157 145//145 171//171 
f 157//157 172//172 146//146 
f 147//147 173//173 163//163 
f 148//148 173//173 147//147 
f 149//149 174//174 148//148 
f 175//175 149//149 165//165 
f 124//124 164//164 158//158 
f 176//176 165//165 152//152 
f 152//152 177//177 176//176 
f 152//152 166//166 177//177 
f 159//159 168//168 166//166 
f 154//154 168//168 159//159 
f 162//162 160//160 178//178 
f 161//161 144//144 179//179 
f 146//146 179//179 144//144 
f 145//145 170//170 171//171 
f 180//180 179//179 146//146 
f 172//172 180//180 146//146 
f 148//148 174//174 173//173 
f 149//149 175//175 174//174 
f 175//175 165//165 181//181 
f 158//158 182//182 125//125 
f 182//182 167//167 125//125 
f 160//160 167//167 178//178 
f 161//161 183//183 169//169 
f 162//162 178//178 170//170 
f 161//161 179//179 184//184 
f 185//185 171//171 170//170 
f 171//171 172//172 157//157 
f 175//175 181//181 174//174 
f 163//163 186//186 164//164 
f 165//165 176//176 181//181 
f 164//164 187//187 158//158 
f 176//176 177//177 188//188 
f 166//166 189//189 177//177 
f 187//187 182//182 158//158 
f 168//168 189//189 166//166 
f 168//168 190//190 189//189 
f 168//168 191//191 190//190 
f 168//168 169//169 191//191 
f 167//167 182//182 192//192 
f 167//167 192//192 178//178 
f 183//183 161//161 184//184 
f 163//163 173//173 193//193 
f 174//174 194//194 173//173 
f 174//174 181//181 194//194 
f 186//186 163//163 193//193 
f 181//181 176//176 195//195 
f 164//164 186//186 187//187 
f 176//176 188//188 195//195 
f 177//177 189//189 188//188 
f 196//196 182//182 187//187 
f 178//178 192//192 197//197 
f 178//178 197//197 198//198 
f 178//178 198//198 170//170 
f 170//170 198//198 185//185 
f 172//172 171//171 199//199 
f 180//180 172//172 200//200 
f 172//172 199//199 200//200 
f 173//173 194//194 193//193 
f 186//186 201//201 187//187 
f 202//202 195//195 188//188 
f 188//188 189//189 203//203 
f 203//203 202//202 188//188 
f 189//189 190//190 203//203 
f 182//182 196//196 192//192 
f 169//169 204//204 191//191 
f 204//204 169//169 183//183 
f 179//179 205//205 184//184 
f 185//185 206//206 207//207 
f 171//171 185//185 207//207 
f 205//205 179//179 180//180 
f 171//171 207//207 199//199 
f 193//193 201//201 186//186 
f 194//194 181//181 195//195 
f 187//187 201//201 196//196 
f 192//192 196//196 208//208 
f 191//191 209//209 190//190 
f 192//192 208//208 197//197 
f 183//183 210//210 204//204 
f 183//183 184//184 210//210 
f 205//205 210//210 184//184 
f 185//185 198//198 206//206 
f 180//180 200//200 205//205 
f 193//193 194//194 211//211 
f 193//193 211//211 201//201 
f 212//212 211//211 194//194 
f 194//194 195//195 212//212 
f 211//211 213//213 201//201 
f 201//201 213//213 196//196 
f 202//202 212//212 195//195 
f 202//202 203//203 214//214 
f 208//208 196//196 213//213 
f 190//190 209//209 203//203 
f 204//204 209//209 191//191 
f 197//197 208//208 215//215 
f 197//197 215//215 198//198 
f 198//198 215//215 216//216 
f 206//206 198//198 216//216 
f 207//207 206//206 217//217 
f 199//199 207//207 217//217 
f 199//199 217//217 218//218 
f 199//199 218//218 200//200 
f 212//212 219//219 211//211 
f 219//219 213//213 211//211 
f 208//208 213//213 219//219 
f 220//220 219//219 212//212 
f 212//212 202//202 220//220 
f 202//202 214//214 220//220 
f 221//221 208//208 219//219 
f 209//209 214//214 203//203 
f 215//215 208//208 221//221 
f 206//206 222//222 217//217 
f 216//216 222//222 206//206 
f 205//205 200//200 218//218 
f 220//220 221//221 219//219 
f 214//214 223//223 220//220 
f 224//224 223//223 214//214 
f 214//214 209//209 224//224 
f 223//223 221//221 220//220 
f 216//216 215//215 221//221 
f 223//223 222//222 221//221 
f 222//222 216//216 221//221 
f 209//209 204//204 225//225 
f 204//204 210//210 225//225 
f 210//210 205//205 225//225 
f 217//217 222//222 218//218 
f 225//225 205//205 218//218 
f 226//226 222//222 223//223 
f 224//224 226//226 223//223 
f 209//209 226//226 224//224 
f 209//209 225//225 226//226 
f 218//218 222//222 226//226 
f 225//225 218//218 226//226 
