# wavefront obj file written by the visualization toolkit


v 5120.95 5913.44 4815.29
v 5066.36 5863.22 4814.21
v 5037.69 5892.82 4819.12
v 5127.48 5854.54 4825.47
v 5062.08 5799.33 4868.47
v 4990.76 5850 4844.93
v 5001.19 5916.57 4839.27
v 5199.57 5873.04 4846.82
v 5182.43 5940.6 4854.69
v 5038.56 5946.88 4845.98
v 5103.68 5968.52 4868.84
v 5168.39 5799.13 4899.24
v 4944.23 5898.32 4880.38
v 4925.72 5816.59 4898.87
v 5236.63 5906.77 4880.51
v 4980.35 5947.75 4883.94
v 4974.12 5789.77 4897.31
v 5231.54 5815.6 4914.77
v 5254.29 5859.15 4911.84
v 4888.55 5825.69 4946.07
v 5219.37 5952.54 4916.45
v 5156.93 5976.78 4903.58
v 5018.91 5976.73 4905.44
v 5009.78 5744.13 4935.88
v 5083.26 5700.45 4989.98
v 4898.46 5896.65 4949.15
v 5260.07 5888.13 4967.66
v 5087.75 5988.76 4927.38
v 5208.43 5755.38 4983.33
v 4928.05 5734.69 4959.63
v 4900.26 5771.74 4954.33
v 4870.17 5841.73 4999.26
v 4940.49 5941.84 4960.54
v 5254.34 5806.62 4963.56
v 5273.94 5805.78 5023.02
v 5033.59 5983.62 4973.15
v 5140.93 5979.01 4981.38
v 4975.36 5665.8 5007.05
v 4868.36 5709.93 5022.02
v 5225.6 5931.58 5008.16
v 4989.74 5618.47 5045.77
v 4858.2 5774.99 5025.21
v 4886.56 5877.87 5005.43
v 5263.49 5857.66 5072.47
v 4900.54 5654.97 5029.75
v 5250.5 5733.21 5075.24
v 4969.84 5954.38 5034.16
v 4922.61 5599.18 5071.87
v 4872.61 5622.48 5073.3
v 4841.33 5714.13 5072.72
v 5275.02 5815.68 5075.52
v 4902.28 5872.48 5054.95
v 5184.17 5941.48 5068.73
v 5057.18 5977.09 5023.62
v 5107.26 5964.41 5052.63
v 5038.55 5605.31 5093.23
v 5163.03 5675.99 5076.89
v 4861.78 5788.99 5057.8
v 5270.43 5758.18 5116.71
v 5236.3 5862.84 5115.74
v 4877.13 5580.56 5109.39
v 4857.03 5637.87 5099.34
v 4944.37 5882.32 5103.55
v 5044.98 5928.64 5090.78
v 4946.74 5568.88 5130.09
v 5035.62 5578.11 5146.9
v 5134.63 5626.56 5153.76
v 4849.87 5703.03 5103.68
v 5214.18 5682.63 5133.83
v 5246.13 5710.62 5145.57
v 5142.34 5906.29 5125.77
v 4887.57 5762.59 5118.42
v 5261.06 5796.7 5129.66
v 5014.14 5873.39 5139.67
v 4892.33 5585.39 5137.87
v 4997.4 5567.03 5156.27
v 4876.39 5649.62 5136.72
v 5197.73 5872.56 5140.58
v 5178.56 5844.11 5177.09
v 4985.78 5576.7 5163.98
v 5064.98 5595.62 5170.4
v 4969.48 5787.29 5164.28
v 5078.49 5847.19 5160.86
v 4965.52 5626.8 5180.77
v 4925.87 5699.93 5161.38
v 5203.25 5671.79 5175.75
v 5139.37 5635.56 5186.07
v 5236.52 5731.7 5173.39
v 5213.94 5804.84 5169.99
v 5080.53 5626.76 5191.79
v 5019.83 5716.22 5196.13
v 5069.74 5772.76 5197.41
v 5098.78 5685.88 5211.13
v 5163.51 5679.07 5193.01
v 5114.99 5738.65 5213.64
v 5166.52 5737.89 5197.34
v 5137.53 5790.82 5185.27
v 5040.23 5619.26 6183.4
v 5178.1 5672.72 6178.52
v 5114.25 5616.18 6207.93
v 5123.68 5717.98 6170.06
v 4995.74 5670.6 6180.84
v 5020.07 5747.8 6186.43
v 5200.74 5715.92 6175.65
v 5240.45 5718.7 6203.03
v 5212.03 5772.6 6193.56
v 5128.12 5804.11 6194.35
v 4927.77 5579.67 6215.31
v 5017.82 5580.22 6218.56
v 4941.25 5634.08 6197.83
v 4940.66 5689.38 6197.56
v 5196.12 5665.51 6222.57
v 4940.11 5755.25 6212.6
v 5256.51 5770.13 6220.82
v 5020.48 5843.25 6227.42
v 5182.04 5874.75 6238.9
v 5232.26 5856.21 6265.27
v 4941.55 5560.72 6243.15
v 5072.74 5588.14 6224.38
v 4888.35 5660.52 6231.3
v 5254.55 5722.29 6265.05
v 5266.11 5756 6249.15
v 4934.76 5837.03 6249.44
v 5107.42 5891.14 6247.09
v 4886.97 5588.92 6251.88
v 5042.42 5582.8 6246.2
v 4854.94 5629.31 6266.39
v 5126.17 5621.54 6242.79
v 4848.2 5705.63 6282.06
v 4892.13 5797.15 6280.88
v 5269.49 5824.49 6328.63
v 4965.91 5899.24 6277.03
v 5028.7 5931.57 6293.4
v 5107.87 5947.35 6305.17
v 5182.82 5941.71 6328.3
v 4859.23 5602.49 6280.14
v 4924.42 5890.62 6305.79
v 4915.83 5634.63 6328.66
v 5028.24 5632.77 6318.73
v 5126.75 5657.74 6314.91
v 4855.53 5695.54 6328.72
v 5202.29 5698.57 6300.88
v 4849.69 5750.16 6323.41
v 5267.87 5770.53 6301.99
v 5235.35 5915.34 6382.21
v 4874.02 5661.23 6328.03
v 4864.48 5796.05 6328.08
v 4955.7 5948.67 6357.74
v 5255.2 5773.65 6347.78
v 5271.47 5832.51 6428.02
v 4898.9 5873.46 6360.93
v 5037.45 5969.46 6353.12
v 5094.86 5981.6 6386.32
v 5020.34 5695.94 6404.83
v 5201.59 5752.16 6413.08
v 4874.57 5815.09 6386.61
v 4920.91 5683.91 6383.27
v 4918.72 5727.6 6419.06
v 5108.66 5721.72 6421.8
v 4900.14 5884.21 6438.74
v 5164.58 5970.48 6425.25
v 4971.33 5723.79 6436.98
v 4899.22 5806.93 6444.97
v 5256.1 5886.32 6444.54
v 4938.51 5927.85 6442.55
v 5019.57 5971.24 6439.38
v 5159.55 5795.53 6508.23
v 5248.48 5806.24 6444.91
v 4899.85 5851.94 6449.46
v 5207.85 5942.34 6475.68
v 5098.52 5983.4 6460.59
v 5219.13 5814.02 6489.98
v 5238.34 5860.73 6493.6
v 4993.73 5936.21 6515.81
v 5010.38 5794.93 6520.55
v 5062.07 5763.51 6481.21
v 4935.13 5877.79 6483.44
v 5140.97 5967.01 6504
v 5072.75 5956.75 6513.4
v 4962.4 5828.88 6502.83
v 5224.35 5909.79 6503.24
v 5183.39 5932.54 6531.84
v 4997.95 5886.23 6535
v 5179.75 5861.48 6543.54
v 5200.8 5898.55 6528.97
v 5130.04 5941.21 6542.07
v 5094.69 5827.11 6539.63
v 5039.18 5859.48 6546.38
v 5146.29 5911.21 6553.54
v 5071.2 5912.3 6541.59
v 5107.47 5874.58 6543.84
vn 0.136837 0.287771 -0.947873
vn -0.0848738 -0.316828 -0.944678
vn -0.258002 0.165077 -0.951937
vn 0.226392 -0.47271 -0.851641
vn -0.0186147 -0.696948 -0.71688
vn -0.42082 -0.292442 -0.858713
vn -0.48502 0.334371 -0.808054
vn 0.5309 -0.219085 -0.818625
vn 0.422584 0.606663 -0.673337
vn -0.204744 0.668632 -0.714851
vn 0.0410074 0.848937 -0.526901
vn 0.2935 -0.71182 -0.638099
vn -0.725978 0.286314 -0.625283
vn -0.600386 -0.328931 -0.728932
vn 0.810499 0.295298 -0.505857
vn -0.540649 0.687321 -0.485065
vn -0.236069 -0.625674 -0.743508
vn 0.565611 -0.594965 -0.571052
vn 0.886849 -0.174189 -0.427968
vn -0.863584 -0.036348 -0.502894
vn 0.631338 0.763359 -0.136731
vn 0.252394 0.935748 -0.24632
vn -0.272459 0.920466 -0.280194
vn -0.0645836 -0.704752 -0.706508
vn 0.21502 -0.750409 -0.625022
vn -0.854617 0.438417 -0.278245
vn 0.943516 0.32769 -0.0489489
vn 0.0107497 0.992823 -0.11911
vn 0.448883 -0.751966 -0.482754
vn -0.354114 -0.574553 -0.737897
vn -0.666382 -0.383327 -0.639527
vn -0.964203 0.241355 -0.10982
vn -0.628901 0.77523 -0.0591849
vn 0.758278 -0.527757 -0.382737
vn 0.96913 -0.184368 -0.163693
vn -0.193789 0.978364 0.0724514
vn 0.229953 0.961611 0.14975
vn -0.059729 -0.646359 -0.760692
vn -0.770624 -0.313038 -0.555108
vn 0.665617 0.716255 0.209603
vn 0.10926 -0.762971 -0.637133
vn -0.968587 0.0528463 -0.242994
vn -0.831293 0.533703 0.155283
vn 0.858698 0.436895 0.267882
vn -0.361767 -0.567315 -0.739783
vn 0.724458 -0.630235 -0.279221
vn -0.424132 0.828736 0.365115
vn -0.10858 -0.782773 -0.612761
vn -0.641121 -0.509037 -0.574321
vn -0.9976 -0.000311629 -0.0692455
vn 0.981192 0.145907 0.126387
vn -0.738472 0.554508 0.383639
vn 0.386717 0.807291 0.445792
vn -0.0742953 0.932931 0.352307
vn 0.0561791 0.877886 0.475563
vn 0.281014 -0.845975 -0.453165
vn 0.435385 -0.794134 -0.424019
vn -0.905582 0.332266 0.263668
vn 0.967031 -0.185367 0.174617
vn 0.658485 0.541843 0.522306
vn -0.592914 -0.785221 -0.178551
vn -0.958481 -0.273249 0.0815376
vn -0.478981 0.566205 0.670812
vn -0.136732 0.737244 0.661646
vn -0.0672783 -0.995904 -0.0604121
vn 0.313018 -0.940143 -0.134723
vn 0.483505 -0.872438 -0.0712334
vn -0.871519 0.121454 0.475083
vn 0.598099 -0.783066 -0.170543
vn 0.827565 -0.538281 0.159342
vn 0.0592702 0.71276 0.698899
vn -0.663094 0.311038 0.680853
vn 0.825915 0.24028 0.51003
vn -0.197932 0.552035 0.809988
vn -0.5564 -0.545519 0.62676
vn 0.0742421 -0.937288 0.340557
vn -0.666205 -0.0227263 0.745422
vn 0.442709 0.602776 0.66383
vn 0.168551 0.431045 0.886448
vn -0.124064 -0.660715 0.740313
vn 0.276761 -0.8109 0.515601
vn -0.357353 0.319625 0.877575
vn -0.102227 0.488081 0.866791
vn -0.283941 -0.175596 0.942626
vn -0.460823 0.124639 0.878696
vn 0.612694 -0.637109 0.467652
vn 0.360559 -0.660208 0.65888
vn 0.648788 -0.0833201 0.756394
vn 0.467832 0.284442 0.836795
vn 0.0785227 -0.432456 0.898229
vn -0.265461 0.0940164 0.959527
vn -0.128027 0.353719 0.926548
vn 0.0481055 -0.150866 0.987383
vn 0.297394 -0.24197 0.923584
vn 0.0443319 0.183202 0.982075
vn 0.281181 0.0835051 0.956015
vn 0.0983027 0.30795 0.946311
vn 0.0136614 -0.41892 -0.90792
vn 0.376353 -0.494954 -0.783185
vn 0.39197 -0.80231 -0.450176
vn 0.0100135 0.0729922 -0.997282
vn -0.176598 -0.0118242 -0.984212
vn -0.189222 0.254804 -0.948299
vn 0.345143 -0.0135276 -0.938453
vn 0.767815 -0.303724 -0.564103
vn 0.373241 0.323212 -0.869612
vn 5.8329e-05 0.403425 -0.915013
vn -0.348849 -0.56999 -0.743919
vn 0.135237 -0.873344 -0.467954
vn -0.358831 -0.132753 -0.923914
vn -0.398353 0.103557 -0.911368
vn 0.621814 -0.778704 -0.0834732
vn -0.485434 0.284728 -0.82661
vn 0.812488 0.229869 -0.535746
vn -0.182181 0.4835 -0.856176
vn 0.271322 0.624609 -0.732289
vn 0.678738 0.545934 -0.491194
vn -0.0822359 -0.984061 0.157676
vn 0.351587 -0.928682 -0.118053
vn -0.658243 0.012295 -0.752705
vn 0.814078 -0.570319 0.109602
vn 0.976419 -0.139895 -0.164422
vn -0.524948 0.433222 -0.732631
vn -0.0321782 0.6194 -0.784416
vn -0.607073 -0.753818 -0.251438
vn 0.26491 -0.917345 0.297155
vn -0.917722 -0.212029 -0.335902
vn 0.502233 -0.840606 0.202839
vn -0.929964 0.143683 -0.338411
vn -0.760913 0.356231 -0.542319
vn 0.981781 0.169934 -0.0850215
vn -0.349682 0.65299 -0.671809
vn -0.156788 0.74872 -0.644078
vn 0.069129 0.833042 -0.548873
vn 0.421475 0.8255 -0.375377
vn -0.684612 -0.614527 0.391998
vn -0.712405 0.546755 -0.43993
vn -0.289681 -0.740501 0.606418
vn 0.130587 -0.799389 0.586451
vn 0.361138 -0.805254 0.470261
vn -0.900442 -0.198499 0.387044
vn 0.570302 -0.747545 0.340489
vn -0.989814 0.11969 0.0770823
vn 0.961564 -0.231122 0.148246
vn 0.746124 0.64888 -0.149177
vn -0.552147 -0.486182 0.677319
vn -0.896867 0.387872 -0.212568
vn -0.506419 0.823575 -0.255469
vn 0.818848 -0.507847 0.267545
vn 0.957015 -0.156783 0.244012
vn -0.847186 0.512372 -0.140536
vn -0.152718 0.936809 -0.314747
vn 0.0579962 0.981269 -0.183705
vn 0.047366 -0.780006 0.623977
vn 0.484614 -0.758503 0.435686
vn -0.960392 0.158329 0.229301
vn -0.678823 -0.50904 0.529223
vn -0.626814 -0.448905 0.636858
vn 0.195373 -0.798323 0.569657
vn -0.863724 0.403892 0.301417
vn 0.38357 0.923085 -0.0280564
vn -0.145845 -0.713829 0.684965
vn -0.766238 -0.160442 0.622204
vn 0.912449 0.374597 0.164662
vn -0.674848 0.697485 0.241028
vn -0.287953 0.948111 0.134792
vn 0.23705 -0.69071 0.683175
vn 0.725203 -0.541923 0.424735
vn -0.848705 0.0690152 0.524344
vn 0.629374 0.752108 0.195505
vn -0.00503451 0.984836 0.173418
vn 0.554218 -0.54768 0.626809
vn 0.790612 -0.101097 0.603915
vn -0.436529 0.61414 0.657476
vn -0.219677 -0.530111 0.818978
vn 0.0549208 -0.739951 0.670415
vn -0.698145 0.192962 0.689463
vn 0.213321 0.89803 0.384755
vn -0.167614 0.801842 0.573546
vn -0.544138 -0.215843 0.810756
vn 0.778483 0.369255 0.507558
vn 0.471428 0.562353 0.679348
vn -0.427164 0.104815 0.898078
vn 0.337275 -0.248916 0.907902
vn 0.583695 0.117544 0.80342
vn 0.00852663 0.606276 0.795208
vn 0.0457186 -0.422779 0.905079
vn -0.173581 -0.10656 0.979038
vn 0.138642 0.134448 0.981174
vn -0.152726 0.281077 0.947455
vn -0.0202101 -0.0850731 0.99617

g grp1
usemtl mtl1
f 1//1 2//2 3//3 
f 4//4 2//2 1//1 
f 2//2 4//4 5//5 
f 5//5 6//6 2//2 
f 2//2 6//6 3//3 
f 3//3 6//6 7//7 
f 8//8 4//4 1//1 
f 9//9 8//8 1//1 
f 3//3 10//10 1//1 
f 7//7 10//10 3//3 
f 11//11 1//1 10//10 
f 11//11 9//9 1//1 
f 4//4 12//12 5//5 
f 13//13 6//6 14//14 
f 8//8 12//12 4//4 
f 7//7 6//6 13//13 
f 8//8 9//9 15//15 
f 7//7 13//13 16//16 
f 7//7 16//16 10//10 
f 6//6 5//5 17//17 
f 6//6 17//17 14//14 
f 12//12 8//8 18//18 
f 18//18 8//8 19//19 
f 20//20 13//13 14//14 
f 15//15 19//19 8//8 
f 15//15 9//9 21//21 
f 9//9 11//11 22//22 
f 21//21 9//9 22//22 
f 10//10 16//16 23//23 
f 10//10 23//23 11//11 
f 24//24 5//5 25//25 
f 25//25 5//5 12//12 
f 26//26 13//13 20//20 
f 27//27 19//19 15//15 
f 28//28 11//11 23//23 
f 22//22 11//11 28//28 
f 29//29 25//25 12//12 
f 30//30 31//31 14//14 
f 17//17 30//30 14//14 
f 14//14 31//31 20//20 
f 32//32 26//26 20//20 
f 13//13 26//26 33//33 
f 15//15 21//21 27//27 
f 13//13 33//33 16//16 
f 24//24 17//17 5//5 
f 29//29 12//12 18//18 
f 18//18 19//19 34//34 
f 34//34 19//19 35//35 
f 19//19 27//27 35//35 
f 16//16 33//33 23//23 
f 23//23 36//36 28//28 
f 22//22 28//28 37//37 
f 38//38 30//30 24//24 
f 24//24 25//25 38//38 
f 24//24 30//30 17//17 
f 30//30 39//39 31//31 
f 18//18 34//34 29//29 
f 20//20 31//31 39//39 
f 21//21 40//40 27//27 
f 22//22 37//37 21//21 
f 38//38 25//25 41//41 
f 39//39 42//42 20//20 
f 20//20 42//42 32//32 
f 32//32 43//43 26//26 
f 33//33 26//26 43//43 
f 44//44 27//27 40//40 
f 36//36 23//23 33//33 
f 21//21 37//37 40//40 
f 28//28 36//36 37//37 
f 45//45 39//39 30//30 
f 38//38 45//45 30//30 
f 29//29 34//34 46//46 
f 46//46 34//34 35//35 
f 33//33 47//47 36//36 
f 48//48 45//45 38//38 
f 41//41 48//48 38//38 
f 45//45 49//49 39//39 
f 42//42 39//39 50//50 
f 35//35 27//27 51//51 
f 33//33 43//43 52//52 
f 52//52 47//47 33//33 
f 53//53 40//40 37//37 
f 37//37 36//36 54//54 
f 37//37 54//54 55//55 
f 41//41 25//25 56//56 
f 25//25 29//29 57//57 
f 50//50 58//58 42//42 
f 46//46 35//35 59//59 
f 59//59 35//35 51//51 
f 42//42 58//58 32//32 
f 58//58 43//43 32//32 
f 27//27 44//44 51//51 
f 60//60 44//44 40//40 
f 60//60 40//40 53//53 
f 47//47 54//54 36//36 
f 55//55 53//53 37//37 
f 61//61 49//49 48//48 
f 45//45 48//48 49//49 
f 56//56 48//48 41//41 
f 25//25 57//57 56//56 
f 39//39 49//49 62//62 
f 62//62 50//50 39//39 
f 29//29 46//46 57//57 
f 58//58 52//52 43//43 
f 63//63 47//47 52//52 
f 47//47 64//64 54//54 
f 48//48 56//56 65//65 
f 65//65 56//56 66//66 
f 61//61 62//62 49//49 
f 56//56 57//57 67//67 
f 62//62 68//68 50//50 
f 46//46 69//69 57//57 
f 70//70 69//69 46//46 
f 46//46 59//59 70//70 
f 64//64 47//47 63//63 
f 64//64 71//71 55//55 
f 55//55 54//54 64//64 
f 53//53 55//55 71//71 
f 65//65 61//61 48//48 
f 56//56 67//67 66//66 
f 68//68 58//58 50//50 
f 68//68 72//72 58//58 
f 72//72 52//52 58//58 
f 44//44 60//60 73//73 
f 44//44 73//73 51//51 
f 72//72 63//63 52//52 
f 74//74 64//64 63//63 
f 75//75 61//61 65//65 
f 66//66 76//76 65//65 
f 61//61 75//75 62//62 
f 68//68 62//62 77//77 
f 57//57 69//69 67//67 
f 78//78 60//60 53//53 
f 78//78 71//71 79//79 
f 53//53 71//71 78//78 
f 65//65 80//80 75//75 
f 65//65 76//76 80//80 
f 66//66 81//81 76//76 
f 75//75 77//77 62//62 
f 72//72 68//68 77//77 
f 59//59 51//51 73//73 
f 74//74 63//63 82//82 
f 83//83 64//64 74//74 
f 71//71 64//64 83//83 
f 79//79 71//71 83//83 
f 84//84 75//75 80//80 
f 81//81 80//80 76//76 
f 77//77 75//75 84//84 
f 67//67 81//81 66//66 
f 84//84 85//85 77//77 
f 69//69 86//86 67//67 
f 67//67 86//86 87//87 
f 86//86 69//69 70//70 
f 88//88 86//86 70//70 
f 77//77 85//85 72//72 
f 88//88 70//70 59//59 
f 85//85 82//82 72//72 
f 88//88 59//59 73//73 
f 82//82 63//63 72//72 
f 89//89 60//60 78//78 
f 73//73 60//60 89//89 
f 74//74 82//82 83//83 
f 80//80 81//81 90//90 
f 84//84 80//80 90//90 
f 87//87 90//90 81//81 
f 81//81 67//67 87//87 
f 91//91 85//85 84//84 
f 82//82 85//85 91//91 
f 92//92 82//82 91//91 
f 88//88 73//73 89//89 
f 92//92 83//83 82//82 
f 89//89 78//78 79//79 
f 93//93 84//84 90//90 
f 93//93 91//91 84//84 
f 90//90 87//87 94//94 
f 87//87 86//86 94//94 
f 93//93 95//95 91//91 
f 86//86 88//88 94//94 
f 96//96 94//94 88//88 
f 88//88 89//89 96//96 
f 95//95 92//92 91//91 
f 97//97 92//92 95//95 
f 96//96 89//89 97//97 
f 97//97 83//83 92//92 
f 79//79 83//83 97//97 
f 89//89 79//79 97//97 
f 93//93 90//90 94//94 
f 94//94 96//96 93//93 
f 96//96 95//95 93//93 
f 96//96 97//97 95//95 
f 98//98 99//99 100//100 
f 101//101 98//98 102//102 
f 99//99 98//98 101//101 
f 101//101 102//102 103//103 
f 101//101 104//104 99//99 
f 105//105 99//99 104//104 
f 101//101 106//106 104//104 
f 107//107 101//101 103//103 
f 106//106 101//101 107//107 
f 108//108 98//98 109//109 
f 109//109 98//98 100//100 
f 108//108 110//110 98//98 
f 102//102 110//110 111//111 
f 98//98 110//110 102//102 
f 99//99 105//105 112//112 
f 102//102 111//111 103//103 
f 103//103 111//111 113//113 
f 105//105 104//104 106//106 
f 114//114 105//105 106//106 
f 113//113 115//115 103//103 
f 103//103 115//115 107//107 
f 107//107 116//116 106//106 
f 117//117 106//106 116//116 
f 118//118 108//108 109//109 
f 109//109 100//100 119//119 
f 110//110 108//108 120//120 
f 99//99 112//112 100//100 
f 110//110 120//120 111//111 
f 105//105 121//121 112//112 
f 111//111 120//120 113//113 
f 105//105 122//122 121//121 
f 114//114 122//122 105//105 
f 106//106 117//117 114//114 
f 113//113 123//123 115//115 
f 115//115 124//124 107//107 
f 107//107 124//124 116//116 
f 125//125 108//108 118//118 
f 109//109 126//126 118//118 
f 119//119 126//126 109//109 
f 108//108 125//125 120//120 
f 127//127 120//120 125//125 
f 119//119 100//100 128//128 
f 100//100 112//112 128//128 
f 129//129 120//120 127//127 
f 130//130 120//120 129//129 
f 120//120 130//130 113//113 
f 113//113 130//130 123//123 
f 122//122 114//114 131//131 
f 123//123 132//132 115//115 
f 115//115 132//132 133//133 
f 133//133 124//124 115//115 
f 116//116 124//124 134//134 
f 117//117 116//116 135//135 
f 125//125 136//136 127//127 
f 119//119 128//128 126//126 
f 130//130 137//137 123//123 
f 114//114 117//117 131//131 
f 137//137 132//132 123//123 
f 116//116 134//134 135//135 
f 133//133 134//134 124//124 
f 125//125 138//138 136//136 
f 118//118 138//138 125//125 
f 126//126 139//139 118//118 
f 126//126 140//140 139//139 
f 128//128 140//140 126//126 
f 141//141 127//127 136//136 
f 128//128 142//142 140//140 
f 112//112 142//142 128//128 
f 127//127 141//141 129//129 
f 142//142 112//112 121//121 
f 143//143 129//129 141//141 
f 121//121 122//122 144//144 
f 144//144 122//122 131//131 
f 145//145 131//131 117//117 
f 135//135 145//145 117//117 
f 118//118 139//139 138//138 
f 136//136 138//138 146//146 
f 146//146 141//141 136//136 
f 143//143 147//147 129//129 
f 130//130 129//129 147//147 
f 132//132 137//137 148//148 
f 148//148 133//133 132//132 
f 121//121 149//149 142//142 
f 121//121 144//144 149//149 
f 144//144 131//131 149//149 
f 149//149 131//131 150//150 
f 151//151 130//130 147//147 
f 137//137 130//130 151//151 
f 137//137 151//151 148//148 
f 133//133 148//148 152//152 
f 133//133 152//152 134//134 
f 135//135 134//134 153//153 
f 154//154 138//138 139//139 
f 142//142 155//155 140//140 
f 142//142 149//149 155//155 
f 141//141 156//156 143//143 
f 143//143 156//156 147//147 
f 147//147 156//156 151//151 
f 152//152 153//153 134//134 
f 157//157 158//158 138//138 
f 158//158 146//146 138//138 
f 141//141 146//146 158//158 
f 159//159 154//154 139//139 
f 159//159 139//139 140//140 
f 155//155 159//159 140//140 
f 156//156 160//160 151//151 
f 135//135 153//153 161//161 
f 161//161 145//145 135//135 
f 162//162 138//138 154//154 
f 138//138 162//162 157//157 
f 141//141 163//163 156//156 
f 141//141 158//158 163//163 
f 150//150 131//131 164//164 
f 164//164 131//131 145//145 
f 165//165 148//148 151//151 
f 148//148 165//165 166//166 
f 152//152 148//148 166//166 
f 152//152 166//166 153//153 
f 155//155 167//167 159//159 
f 149//149 168//168 155//155 
f 156//156 169//169 160//160 
f 145//145 161//161 170//170 
f 153//153 166//166 171//171 
f 163//163 169//169 156//156 
f 149//149 150//150 168//168 
f 145//145 170//170 164//164 
f 160//160 165//165 151//151 
f 153//153 171//171 161//161 
f 158//158 157//157 162//162 
f 168//168 172//172 155//155 
f 173//173 168//168 150//150 
f 150//150 164//164 173//173 
f 165//165 174//174 166//166 
f 175//175 158//158 162//162 
f 176//176 162//162 154//154 
f 159//159 176//176 154//154 
f 155//155 172//172 167//167 
f 160//160 177//177 165//165 
f 174//174 165//165 177//177 
f 178//178 170//170 161//161 
f 171//171 166//166 179//179 
f 161//161 171//171 178//178 
f 158//158 175//175 180//180 
f 176//176 175//175 162//162 
f 167//167 176//176 159//159 
f 158//158 180//180 163//163 
f 168//168 173//173 172//172 
f 177//177 169//169 163//163 
f 177//177 160//160 169//169 
f 164//164 181//181 173//173 
f 170//170 181//181 164//164 
f 170//170 182//182 181//181 
f 174//174 179//179 166//166 
f 182//182 170//170 178//178 
f 171//171 179//179 178//178 
f 180//180 177//177 163//163 
f 177//177 183//183 174//174 
f 167//167 172//172 184//184 
f 172//172 173//173 184//184 
f 184//184 173//173 185//185 
f 173//173 181//181 185//185 
f 181//181 182//182 185//185 
f 179//179 186//186 178//178 
f 182//182 178//178 186//186 
f 175//175 176//176 187//187 
f 187//187 176//176 167//167 
f 180//180 175//175 188//188 
f 187//187 188//188 175//175 
f 187//187 167//167 184//184 
f 180//180 183//183 177//177 
f 183//183 180//180 188//188 
f 185//185 189//189 184//184 
f 190//190 174//174 183//183 
f 185//185 182//182 189//189 
f 179//179 174//174 190//190 
f 179//179 190//190 186//186 
f 182//182 186//186 189//189 
f 187//187 191//191 188//188 
f 184//184 191//191 187//187 
f 190//190 183//183 188//188 
f 191//191 190//190 188//188 
f 184//184 189//189 191//191 
f 189//189 190//190 191//191 
f 189//189 186//186 190//190 
