# wavefront obj file written by the visualization toolkit


v 7012.41 5668.09 4310.36
v 7060.01 5697.48 4321.91
v 7036.58 5634.9 4339.1
v 7070.73 5640.95 4355.06
v 7031.18 5755.48 4307.35
v 7012.01 5770.63 4315.2
v 7044.95 5799.38 4327.08
v 7002.59 5656.06 4335.44
v 6997.72 5707.11 4327.78
v 7005.86 5771.85 4335.73
v 7072.09 5782.02 4346.1
v 7030.3 5808.48 4333.04
v 7046.91 5812.75 4349.4
v 7080.63 5721.75 4367.29
v 7016.88 5707.26 4362.96
v 7034.24 5802.51 4355.82
v 7070.84 5650.9 4376.95
v 7041 5671.32 4364.82
v 7080.39 5689.03 4386.27
v 7069.9 5781.65 4371.06
v 7038.06 5769.09 4374.06
v 7063.28 5773.22 4378.02
v 7077.21 5723.71 4388.42
v 7078.85 5693.24 4393.09
v 7059.7 5712.29 4375.3
v 7070.36 5639.45 6993.84
v 7039.82 5684.04 6991.33
v 7069.74 5717.48 6995.11
v 7035.12 5762.48 7015.74
v 7029.21 5629.65 7026.5
v 7056.95 5611.58 7026.27
v 7002.93 5697.75 7039.93
v 7086.06 5725.49 7006.28
v 7063.15 5794.41 7024.1
v 7078.56 5774.26 7038.59
v 7040 5813.06 7040.33
v 7076.04 5679.07 7035.33
v 7007.81 5759.39 7056.72
v 7055.93 5811.37 7046.16
v 7033.45 5618.68 7049.32
v 7005.69 5658.33 7061.9
v 7051.96 5638.27 7055.73
v 6995.07 5715.39 7067.91
v 7068.02 5780.15 7062.86
v 7075.23 5717.65 7064.04
v 6997.91 5747.84 7072.04
v 7028.39 5754.52 7063.91
v 7036.08 5655.75 7072.91
v 7059.71 5676 7065.85
v 7017.23 5704.77 7070.15
v 7049.61 5714.33 7064.27
vn -0.38296 -0.316348 -0.867909
vn 0.637082 -0.139404 -0.758085
vn -0.120758 -0.985975 -0.115196
vn 0.829557 -0.539413 -0.144459
vn 0.122128 0.139607 -0.982647
vn -0.590954 0.33199 -0.735225
vn 0.347771 0.537868 -0.767954
vn -0.824924 -0.498211 0.266995
vn -0.994138 -0.00110467 -0.108118
vn -0.910247 0.328136 0.252543
vn 0.877969 0.37006 -0.303688
vn -0.473314 0.84192 -0.259122
vn 0.314233 0.926409 0.207424
vn 0.998187 0.0534436 -0.0276913
vn -0.662556 -0.0619612 0.746445
vn -0.462984 0.643469 0.609585
vn 0.00532669 -0.580941 0.813928
vn -0.439458 -0.367722 0.819547
vn 0.874442 -0.175264 0.452365
vn 0.765825 0.453353 0.456051
vn -0.464549 0.169956 0.869085
vn 0.00705842 0.382221 0.924044
vn 0.496573 0.20281 0.843969
vn 0.0899494 -0.0882194 0.992032
vn -0.354393 -0.0309363 0.934585
vn 0.455587 -0.416225 -0.786891
vn -0.465425 -0.0587582 -0.883135
vn 0.1822 0.211618 -0.960219
vn -0.529863 0.354263 -0.770547
vn -0.650454 -0.605661 -0.458349
vn 0.455382 -0.889722 0.0319572
vn -0.915989 -0.0309297 -0.400008
vn 0.891359 0.117712 -0.437748
vn 0.396394 0.623904 -0.67351
vn 0.95031 0.286543 0.121668
vn -0.482382 0.875221 -0.0359937
vn 0.945785 -0.232003 0.227298
vn -0.85649 0.516151 0.00361868
vn 0.369635 0.828718 0.420235
vn -0.232662 -0.831902 0.503793
vn -0.789167 -0.392421 0.472464
vn 0.588287 -0.481195 0.6499
vn -0.919861 -0.0156855 0.391932
vn 0.393344 0.273196 0.877863
vn 0.697691 -0.0360317 0.715492
vn -0.45041 0.383642 0.806195
vn -0.123959 0.417558 0.900155
vn 0.0556628 -0.248308 0.967081
vn 0.555351 -0.181244 0.811626
vn -0.13896 -0.020823 0.990079
vn 0.137001 0.0567839 0.988942

g grp1
usemtl mtl1
f 1//1 2//2 3//3 
f 3//3 2//2 4//4 
f 2//2 1//1 5//5 
f 5//5 1//1 6//6 
f 5//5 6//6 7//7 
f 2//2 5//5 7//7 
f 1//1 8//8 9//9 
f 1//1 9//9 6//6 
f 10//10 6//6 9//9 
f 7//7 11//11 2//2 
f 6//6 10//10 12//12 
f 12//12 7//7 6//6 
f 13//13 7//7 12//12 
f 1//1 3//3 8//8 
f 2//2 14//14 4//4 
f 8//8 15//15 9//9 
f 14//14 2//2 11//11 
f 16//16 12//12 10//10 
f 7//7 13//13 11//11 
f 3//3 4//4 17//17 
f 8//8 18//18 15//15 
f 14//14 19//19 4//4 
f 15//15 10//10 9//9 
f 11//11 13//13 20//20 
f 13//13 12//12 16//16 
f 8//8 3//3 18//18 
f 17//17 18//18 3//3 
f 4//4 19//19 17//17 
f 10//10 15//15 21//21 
f 21//21 16//16 10//10 
f 14//14 11//11 20//20 
f 21//21 22//22 16//16 
f 16//16 22//22 13//13 
f 19//19 14//14 23//23 
f 23//23 14//14 20//20 
f 20//20 13//13 22//22 
f 19//19 24//24 17//17 
f 24//24 19//19 23//23 
f 23//23 20//20 22//22 
f 17//17 25//25 18//18 
f 17//17 24//24 25//25 
f 18//18 25//25 15//15 
f 15//15 25//25 21//21 
f 22//22 21//21 25//25 
f 23//23 22//22 25//25 
f 24//24 23//23 25//25 
f 26//26 27//27 28//28 
f 28//28 27//27 29//29 
f 30//30 26//26 31//31 
f 26//26 30//30 27//27 
f 27//27 30//30 32//32 
f 26//26 28//28 33//33 
f 27//27 32//32 29//29 
f 33//33 28//28 34//34 
f 35//35 33//33 34//34 
f 29//29 34//34 28//28 
f 36//36 34//34 29//29 
f 26//26 33//33 37//37 
f 29//29 38//38 36//36 
f 34//34 36//36 39//39 
f 40//40 30//30 31//31 
f 30//30 40//40 41//41 
f 31//31 37//37 42//42 
f 26//26 37//37 31//31 
f 30//30 41//41 32//32 
f 32//32 38//38 29//29 
f 39//39 35//35 34//34 
f 31//31 42//42 40//40 
f 32//32 41//41 43//43 
f 37//37 33//33 35//35 
f 43//43 38//38 32//32 
f 44//44 35//35 39//39 
f 37//37 35//35 45//45 
f 43//43 46//46 38//38 
f 47//47 36//36 38//38 
f 35//35 44//44 45//45 
f 36//36 47//47 39//39 
f 48//48 40//40 42//42 
f 42//42 49//49 48//48 
f 37//37 49//49 42//42 
f 43//43 41//41 50//50 
f 37//37 45//45 49//49 
f 38//38 46//46 47//47 
f 47//47 44//44 39//39 
f 41//41 40//40 48//48 
f 48//48 49//49 51//51 
f 41//41 48//48 50//50 
f 49//49 45//45 51//51 
f 43//43 50//50 46//46 
f 47//47 46//46 50//50 
f 51//51 45//45 44//44 
f 44//44 47//47 51//51 
f 51//51 50//50 48//48 
f 51//51 47//47 50//50 
