# wavefront obj file written by the visualization toolkit


v 7591.51 6978.93 5231.06
v 7604.2 6932.9 5238.87
v 7540.26 6977.58 5241.2
v 7567.95 7016.55 5246.61
v 7482.47 7035.9 5245.94
v 7505.85 7053.98 5250.92
v 7662.94 6850.12 5268.81
v 7660.37 6900.54 5262.44
v 7611.64 6874.41 5268.61
v 7552.44 6874.51 5287.48
v 7489.69 6961.7 5275.68
v 7626.45 6963.79 5257.18
v 7460.44 7036.47 5282.76
v 7473.82 7073.57 5273.71
v 7491.67 7092.68 5286.09
v 7540.06 7065.08 5285.11
v 7704.66 6824.19 5283.94
v 7687.19 6911.83 5291.31
v 7621.17 6998.01 5303.73
v 7454.77 7089.22 5350.25
v 7742.11 6763.56 5305.03
v 7718.4 6774.62 5299.81
v 7663.02 6762.88 5319.19
v 7741.12 6805.38 5309.21
v 7484.34 6872.47 5325.95
v 7458.34 6936.61 5336.3
v 7584.5 7064.92 5409.31
v 7509.21 7105.38 5410.93
v 7788.85 6705.67 5332.65
v 7758.44 6703.94 5329.55
v 7818.03 6710.35 5360.37
v 7552.61 6789.95 5347
v 7733.96 6863.28 5326.13
v 7692.95 6929.92 5341.95
v 7445.38 7018.34 5464.4
v 7476.15 7095.51 5345.49
v 7763.86 6628.09 5377.03
v 7800.09 6655.92 5351.16
v 7834.91 6637.89 5368.09
v 7770.59 6806.88 5350.61
v 7490.54 6815.89 5361.21
v 7467.02 6832.4 5383.54
v 7748.68 6869.07 5399.68
v 7678.32 6967.79 5444.21
v 7830.24 6594.92 5391.39
v 7863.38 6588.42 5409.17
v 7867.99 6626.32 5419.95
v 7624.41 6702.68 5382.22
v 7824.56 6746.47 5433.44
v 7470.26 7107.29 5477.49
v 7819.77 6558.85 5429.27
v 7855.78 6676.46 5430.72
v 7517.37 6760.66 5403.1
v 7446.78 6895.17 5474.82
v 7858.16 6555.31 5455.84
v 7780.15 6554.61 5471.96
v 7690.66 6629.25 5423.97
v 7615.11 6662.98 5447.2
v 7464.32 6792.57 5473.66
v 7454.46 7082.83 5535.28
v 7490.41 7116.31 5516.04
v 7716.66 6585.17 5492.32
v 7884.42 6577.97 5483.14
v 7517.4 6719.27 5499.33
v 7632.53 7036.53 5554.93
v 7559.8 7088.4 5554.79
v 7875.79 6652.56 5512.31
v 7839.83 6528.3 5507.44
v 7879.78 6537 5597.62
v 7671.38 6607.52 5523.22
v 7587.33 6656.78 5549.24
v 7799.33 6808.46 5554.63
v 7436.97 6926.69 5663.21
v 7483.89 7113.57 5633.8
v 7511.11 7108.07 5561.68
v 7768.66 6538.81 5544.54
v 7816.09 6516.37 5586.03
v 7732.36 6578.83 5581.99
v 7466 6755.58 5559.8
v 7450.49 6823.12 5589.69
v 7719.11 6931.38 5602.26
v 7847.31 6508.56 5663.61
v 7895.78 6576.08 5597.58
v 7508.31 6711.22 5597.11
v 7662.53 6620.15 5585.29
v 7550.57 6676.67 5624.51
v 7886.98 6663.91 5657.31
v 7783.67 6544.74 5625.26
v 7621.13 6648.15 5622.19
v 7900.04 6603.47 5667.41
v 7459.44 7101.28 5671.71
v 7827.47 6498.66 5708.98
v 7512.22 6703.12 5709.81
v 7469.74 6761.34 5652.91
v 7852.97 6736.23 5758.88
v 7672.18 6997.7 5710.32
v 7445.06 7051.22 5699.07
v 7529.12 7107.39 5687.2
v 7809.3 6515.23 5704.14
v 7784.05 6548.07 5697.73
v 7898.74 6558.53 5749.56
v 7757.25 6577.79 5657.68
v 7682.01 6619.02 5658.24
v 7593.4 6656.74 5686.59
v 7903.04 6608.69 5780.84
v 7445.83 6816.51 5698
v 7592.38 7071 5695.04
v 7489.71 7118.15 5753.56
v 7744.78 6898.94 5752.81
v 7469.32 7118.76 5824.04
v 7746.41 6572.7 5718.28
v 7692.5 6601.51 5737.65
v 7648.38 6622.35 5735.17
v 7891.52 6652.26 5800.16
v 7770.24 6540.61 5785.86
v 7870.6 6520.11 5779.12
v 7585.05 6653.84 5767.31
v 7816.5 6509.36 5804.46
v 7841.44 6507.31 5764.98
v 7661.47 6610.05 5795.61
v 7510.57 6705.4 5845.71
v 7464.02 6770.86 5796.86
v 7439.83 6887.62 5841.73
v 7620.78 7047.6 5866.35
v 7677.96 6988.02 5813.85
v 7450.73 7094.46 5877.67
v 7559.11 7093.5 5825.88
v 7483.58 7125.3 5847.97
v 7716.47 6581.12 5782.97
v 7794.89 6808.06 5911.26
v 7439.83 6998.45 5864.08
v 7506 7117.48 5882.54
v 7771.33 6546.89 5881.44
v 7705.17 6584.07 5842.57
v 7894.29 6577.82 5884.67
v 7612.34 6643.78 5870.07
v 7890.8 6620.6 5891.1
v 7861.97 6691.32 5870.57
v 7462.92 6800.04 5933.36
v 7844.29 6514.88 5835.89
v 7883.7 6546.96 5859.51
v 7449.7 6847.72 5896.6
v 7692.91 6955.09 5912.97
v 7855.81 6536.11 5893.15
v 7533.12 6705.86 5928.77
v 7494.99 6743.36 5923.58
v 7446.63 6943.53 5989.75
v 7478.09 7123.1 5950.84
v 7821.55 6535.54 5895.58
v 7701.14 6597.61 5915.55
v 7465.66 7111.67 5990.67
v 7559.4 7079.86 5995.33
v 7864.65 6569.42 5942.28
v 7627.38 6662.58 5951.28
v 7773.65 6573.87 5946.53
v 7840.35 6693.47 5967.91
v 7492.67 6780.54 5979.73
v 7827.96 6576.13 5962.53
v 7715.57 6618.26 5966.74
v 7862.91 6611.1 5955.28
v 7780.1 6799.59 6011.17
v 7641.64 7001.57 6011.26
v 7758.71 6631.79 5998.02
v 7589.33 6757.82 6023.18
v 7725.67 6881.85 6018.83
v 7454.12 7057.08 5998.46
v 7504.2 7106.81 6027.84
v 7842.77 6603.51 5983.73
v 7686.33 6677.89 6000.97
v 7512.83 6829.55 6042.59
v 7480.49 6902.25 6056.87
v 7803.81 6642.01 6014.2
v 7824.12 6660.97 6003.89
v 7795 6732.76 6028.73
v 7724.69 6722.9 6047.7
v 7752.68 6804.89 6055.77
v 7484.44 7106.85 6048.67
v 7781.82 6701.14 6032.29
v 7546.05 6882.17 6093.71
v 7458.9 6987.87 6082.81
v 7754.44 6762.52 6057.75
v 7725 6818.68 6088.78
v 7704.76 6869.52 6088.22
v 7665.22 6944.53 6077.35
v 7461.93 7032.05 6087.95
v 7546.3 7072.22 6091.55
v 7606.19 7012.38 6078.6
v 7479.23 7072.19 6086.24
v 7710.53 6799.38 6087.15
v 7633.93 6845.74 6099.54
v 7508.15 6966.53 6129.84
v 7479.71 7002.35 6114.56
v 7519.1 7067.05 6106.64
v 7676.8 6864.17 6105.06
v 7636.84 6941.3 6114.3
v 7478.52 7035.47 6114.91
v 7579.15 7011.83 6118.32
v 7624.47 6916.51 6126.09
v 7569.5 6947.97 6135.7
v 7591.41 6968.53 6133.32
v 7507.36 7015.74 6120.94
v 7554.73 7002.59 6121.56
vn 0.276029 0.205427 -0.93894
vn -0.000882293 -0.259998 -0.965609
vn -0.228058 -0.153585 -0.961458
vn 0.385847 0.55975 -0.73335
vn -0.534654 0.0538009 -0.843357
vn 0.058681 0.510859 -0.857659
vn 0.0317605 -0.328599 -0.943935
vn 0.5093 0.0870891 -0.856171
vn -0.255941 -0.457993 -0.851315
vn -0.359542 -0.469505 -0.806409
vn -0.642481 -0.334972 -0.689211
vn 0.659164 0.481096 -0.577971
vn -0.932756 -0.00160142 -0.360504
vn -0.587412 0.608926 -0.533063
vn -0.00818891 0.907784 -0.419357
vn 0.499273 0.778928 -0.37947
vn 0.356415 -0.0941699 -0.92957
vn 0.738093 0.435861 -0.515019
vn 0.694882 0.656399 -0.293734
vn -0.840317 0.524641 -0.136455
vn 0.307282 -0.171396 -0.936056
vn -0.00230911 -0.370777 -0.928719
vn -0.260568 -0.520615 -0.813059
vn 0.678475 0.185591 -0.710794
vn -0.63496 -0.412236 -0.653366
vn -0.934902 -0.167972 -0.312641
vn 0.612354 0.77986 -0.129777
vn 0.223189 0.969673 -0.0996067
vn 0.437717 -0.110622 -0.892281
vn -0.039737 -0.427574 -0.903107
vn 0.820742 0.254558 -0.511452
vn -0.396121 -0.580364 -0.711524
vn 0.815778 0.430564 -0.386161
vn 0.770648 0.599076 -0.217278
vn -0.997331 0.052063 -0.0511898
vn -0.337153 0.928053 -0.158257
vn -0.280676 -0.650542 -0.705703
vn 0.0814258 -0.441821 -0.8934
vn 0.586148 -0.177595 -0.7905
vn 0.841779 0.390432 -0.372788
vn -0.597999 -0.564666 -0.568814
vn -0.870324 -0.379055 -0.31441
vn 0.833069 0.533567 -0.145954
vn 0.771007 0.628666 -0.101622
vn 0.153462 -0.641422 -0.751683
vn 0.711814 -0.414823 -0.566782
vn 0.929668 0.12586 -0.346231
vn -0.419213 -0.65785 -0.625695
vn 0.88163 0.440299 -0.1699
vn -0.477024 0.877344 -0.0521074
vn -0.0631629 -0.844168 -0.532344
vn 0.912936 0.341034 -0.224149
vn -0.610456 -0.666714 -0.427595
vn -0.990952 -0.106071 -0.0822427
vn 0.504578 -0.766689 -0.396975
vn -0.361446 -0.865224 -0.347483
vn -0.440842 -0.766918 -0.466364
vn -0.530861 -0.782059 -0.326453
vn -0.891624 -0.413984 -0.183368
vn -0.93309 0.35951 -0.00978739
vn 0.0233089 0.999161 -0.0336858
vn -0.529959 -0.829154 -0.177894
vn 0.950318 -0.238351 -0.20021
vn -0.65978 -0.719761 -0.215949
vn 0.694133 0.71841 -0.045453
vn 0.480717 0.876163 -0.0353623
vn 0.955614 0.27441 -0.107242
vn 0.149184 -0.957404 -0.247228
vn 0.74669 -0.655889 -0.110746
vn -0.503906 -0.863039 -0.0352561
vn -0.528524 -0.847687 -0.0457128
vn 0.851463 0.521387 -0.0562659
vn -0.99951 -0.024215 -0.019858
vn -0.13174 0.991127 -0.0176323
vn 0.302565 0.953044 -0.012719
vn -0.540022 -0.841438 -0.0189061
vn -0.323458 -0.940312 -0.105777
vn -0.564123 -0.817062 0.119057
vn -0.855362 -0.513725 -0.0666554
vn -0.978823 -0.200818 -0.0397121
vn 0.805443 0.59106 -0.0436964
vn 0.342641 -0.936374 -0.0761611
vn 0.988999 -0.122172 -0.0833976
vn -0.680937 -0.730561 -0.0510494
vn -0.48976 -0.864441 0.113481
vn -0.494872 -0.868933 -0.0075954
vn 0.93899 0.340448 -0.0489208
vn -0.683508 -0.724173 0.0916006
vn -0.426587 -0.903526 0.0407915
vn 0.995601 0.0734084 -0.0582197
vn -0.794749 0.60639 -0.0257894
vn -0.140942 -0.989919 -0.0140223
vn -0.670385 -0.741962 -0.00876641
vn -0.876967 -0.480499 0.0070376
vn 0.870341 0.491195 0.0351203
vn 0.748524 0.663099 -0.00344209
vn -0.985741 0.167801 -0.0125474
vn 0.336174 0.941486 -0.0242965
vn -0.667283 -0.743722 -0.0401332
vn -0.712882 -0.695595 -0.0891458
vn 0.94533 -0.325986 0.0091872
vn -0.608854 -0.793221 0.0098869
vn -0.463912 -0.885335 -0.0311178
vn -0.449544 -0.89134 -0.0585066
vn 0.995372 0.0914883 0.0294104
vn -0.972523 -0.232592 -0.0099897
vn 0.589339 0.807839 -0.0087167
vn 0.0697527 0.996295 -0.0502997
vn 0.821768 0.569463 0.0202355
vn -0.50863 0.860579 -0.0264351
vn -0.544339 -0.824742 -0.153281
vn -0.465347 -0.87661 -0.122503
vn -0.443314 -0.88978 -0.108466
vn 0.93248 0.354457 0.0695881
vn -0.60142 -0.796339 -0.064326
vn 0.598252 -0.798321 0.0691211
vn -0.513812 -0.857664 -0.0202562
vn -0.296207 -0.946502 0.128042
vn 0.256901 -0.963946 0.069351
vn -0.484565 -0.873653 -0.0438971
vn -0.709158 -0.699701 0.0866803
vn -0.915304 -0.401229 0.0351219
vn -0.992978 -0.110698 0.0417134
vn 0.684174 0.726838 0.0601002
vn 0.779939 0.623875 0.0497476
vn -0.940032 0.340429 0.0211628
vn 0.510857 0.859285 0.0255754
vn -0.0110509 0.99957 -0.027152
vn -0.530458 -0.840833 -0.107769
vn 0.851071 0.508618 0.130334
vn -0.997822 0.0567221 0.0336639
vn 0.355002 0.934451 0.0278476
vn -0.445201 -0.869306 0.214716
vn -0.530091 -0.847027 0.0393462
vn 0.950641 -0.188932 0.246144
vn -0.522171 -0.840698 0.143401
vn 0.948374 0.219482 0.228943
vn 0.88659 0.436545 0.152925
vn -0.907124 -0.367613 0.204907
vn 0.187203 -0.960204 0.207276
vn 0.766499 -0.609121 0.203594
vn -0.979556 -0.186727 0.0748604
vn 0.79773 0.594255 0.102412
vn 0.359962 -0.856634 0.369602
vn -0.556843 -0.735341 0.386263
vn -0.769888 -0.589577 0.244277
vn -0.984571 -0.0879073 0.1513
vn -0.11382 0.989821 0.0854404
vn -0.116438 -0.912582 0.391965
vn -0.493322 -0.81558 0.302428
vn -0.775567 0.610289 0.161377
vn 0.580559 0.804335 0.126481
vn 0.657179 -0.537193 0.528714
vn -0.463628 -0.72894 0.503683
vn -0.296953 -0.79769 0.524891
vn 0.883319 0.299984 0.360217
vn -0.669515 -0.549646 0.499639
vn 0.0404673 -0.742216 0.668938
vn -0.396067 -0.693295 0.602057
vn 0.864422 0.00491319 0.502743
vn 0.844241 0.411255 0.343694
vn 0.738127 0.648833 0.184888
vn -0.231398 -0.610805 0.757214
vn -0.361919 -0.602519 0.711327
vn 0.813905 0.521129 0.25687
vn -0.971291 0.195365 0.135742
vn 0.302497 0.926327 0.224532
vn 0.541149 -0.337774 0.770108
vn -0.350579 -0.589526 0.727704
vn -0.512129 -0.509025 0.691822
vn -0.754794 -0.374098 0.538829
vn 0.174418 -0.392332 0.903136
vn 0.680491 -0.00408077 0.732745
vn 0.721912 0.107954 0.683513
vn -0.0787136 -0.462519 0.883108
vn 0.78326 0.273559 0.558274
vn -0.213308 0.897147 0.386815
vn 0.372621 -0.175197 0.911296
vn -0.360166 -0.487972 0.795087
vn -0.897992 -0.165015 0.407897
vn 0.462597 -0.180303 0.868041
vn 0.546341 0.0153249 0.837423
vn 0.707637 0.34866 0.614561
vn 0.742745 0.539235 0.396933
vn -0.92198 0.154812 0.354946
vn 0.489246 0.759533 0.428659
vn 0.686702 0.623067 0.374471
vn -0.617025 0.536714 0.575516
vn 0.139627 -0.322967 0.936054
vn -0.128575 -0.423817 0.896576
vn -0.411509 -0.226909 0.882708
vn -0.651011 -0.10057 0.752377
vn 0.0387874 0.61691 0.786078
vn 0.301178 -0.0406333 0.952702
vn 0.584645 0.349396 0.732197
vn -0.501538 0.283969 0.817203
vn 0.413751 0.474679 0.776846
vn 0.23714 -0.0838882 0.967847
vn -0.0678908 -0.103696 0.992289
vn 0.227786 0.227924 0.94666
vn -0.117134 0.259221 0.958689
vn 0.0311193 0.277751 0.960149

g grp1
usemtl mtl1
f 1//1 2//2 3//3 
f 1//1 3//3 4//4 
f 3//3 5//5 6//6 
f 6//6 4//4 3//3 
f 7//7 2//2 8//8 
f 7//7 9//9 2//2 
f 3//3 10//10 11//11 
f 2//2 9//9 3//3 
f 8//8 2//2 1//1 
f 1//1 12//12 8//8 
f 3//3 11//11 5//5 
f 13//13 5//5 11//11 
f 4//4 12//12 1//1 
f 14//14 5//5 13//13 
f 5//5 14//14 6//6 
f 14//14 15//15 6//6 
f 4//4 6//6 16//16 
f 17//17 7//7 8//8 
f 3//3 9//9 10//10 
f 8//8 12//12 18//18 
f 12//12 4//4 19//19 
f 4//4 16//16 19//19 
f 20//20 14//14 13//13 
f 16//16 6//6 15//15 
f 21//21 22//22 17//17 
f 23//23 10//10 9//9 
f 23//23 9//9 7//7 
f 22//22 23//23 7//7 
f 17//17 22//22 7//7 
f 24//24 21//21 17//17 
f 24//24 8//8 18//18 
f 17//17 8//8 24//24 
f 10//10 25//25 11//11 
f 26//26 11//11 25//25 
f 26//26 13//13 11//11 
f 18//18 12//12 19//19 
f 16//16 27//27 19//19 
f 16//16 15//15 28//28 
f 29//29 30//30 21//21 
f 30//30 23//23 22//22 
f 21//21 30//30 22//22 
f 24//24 29//29 21//21 
f 24//24 31//31 29//29 
f 32//32 10//10 23//23 
f 32//32 25//25 10//10 
f 24//24 18//18 33//33 
f 18//18 34//34 33//33 
f 18//18 19//19 34//34 
f 13//13 35//35 20//20 
f 14//14 20//20 36//36 
f 15//15 14//14 36//36 
f 28//28 15//15 36//36 
f 16//16 28//28 27//27 
f 37//37 30//30 38//38 
f 38//38 30//30 29//29 
f 39//39 38//38 29//29 
f 37//37 23//23 30//30 
f 31//31 39//39 29//29 
f 31//31 24//24 40//40 
f 32//32 41//41 25//25 
f 24//24 33//33 40//40 
f 42//42 25//25 41//41 
f 25//25 42//42 26//26 
f 33//33 34//34 43//43 
f 26//26 35//35 13//13 
f 19//19 27//27 44//44 
f 45//45 37//37 38//38 
f 46//46 45//45 39//39 
f 46//46 39//39 47//47 
f 39//39 45//45 38//38 
f 48//48 23//23 37//37 
f 23//23 48//48 32//32 
f 40//40 43//43 49//49 
f 40//40 33//33 43//43 
f 44//44 34//34 19//19 
f 50//50 36//36 20//20 
f 36//36 50//50 28//28 
f 37//37 45//45 51//51 
f 39//39 31//31 47//47 
f 31//31 49//49 52//52 
f 48//48 53//53 32//32 
f 32//32 53//53 41//41 
f 31//31 40//40 49//49 
f 42//42 41//41 53//53 
f 42//42 54//54 26//26 
f 26//26 54//54 35//35 
f 55//55 51//51 45//45 
f 45//45 46//46 55//55 
f 37//37 56//56 57//57 
f 37//37 57//57 48//48 
f 57//57 58//58 48//48 
f 47//47 31//31 52//52 
f 48//48 58//58 53//53 
f 42//42 53//53 59//59 
f 35//35 60//60 20//20 
f 20//20 60//60 50//50 
f 28//28 50//50 61//61 
f 51//51 56//56 37//37 
f 56//56 62//62 57//57 
f 46//46 47//47 63//63 
f 58//58 57//57 62//62 
f 64//64 53//53 58//58 
f 42//42 59//59 54//54 
f 34//34 44//44 43//43 
f 65//65 44//44 27//27 
f 66//66 27//27 28//28 
f 55//55 46//46 63//63 
f 47//47 52//52 67//67 
f 52//52 49//49 67//67 
f 59//59 53//53 64//64 
f 66//66 65//65 27//27 
f 56//56 51//51 68//68 
f 55//55 68//68 51//51 
f 69//69 55//55 63//63 
f 63//63 47//47 67//67 
f 62//62 70//70 58//58 
f 58//58 70//70 71//71 
f 49//49 43//43 72//72 
f 44//44 72//72 43//43 
f 54//54 73//73 35//35 
f 50//50 74//74 61//61 
f 28//28 61//61 75//75 
f 76//76 56//56 77//77 
f 77//77 56//56 68//68 
f 55//55 69//69 68//68 
f 56//56 76//76 62//62 
f 70//70 62//62 78//78 
f 71//71 64//64 58//58 
f 59//59 79//79 80//80 
f 59//59 64//64 79//79 
f 49//49 72//72 67//67 
f 59//59 80//80 54//54 
f 65//65 81//81 44//44 
f 68//68 69//69 82//82 
f 69//69 63//63 83//83 
f 78//78 62//62 76//76 
f 63//63 67//67 83//83 
f 64//64 71//71 84//84 
f 85//85 70//70 78//78 
f 70//70 85//85 71//71 
f 71//71 86//86 84//84 
f 64//64 84//84 79//79 
f 67//67 72//72 87//87 
f 54//54 80//80 73//73 
f 44//44 81//81 72//72 
f 28//28 75//75 66//66 
f 68//68 82//82 77//77 
f 76//76 88//88 78//78 
f 71//71 85//85 89//89 
f 83//83 67//67 90//90 
f 61//61 74//74 75//75 
f 90//90 67//67 87//87 
f 89//89 86//86 71//71 
f 91//91 50//50 60//60 
f 76//76 77//77 88//88 
f 82//82 92//92 77//77 
f 93//93 84//84 86//86 
f 94//94 79//79 84//84 
f 87//87 72//72 95//95 
f 81//81 65//65 96//96 
f 73//73 97//97 35//35 
f 35//35 97//97 60//60 
f 60//60 97//97 91//91 
f 50//50 91//91 74//74 
f 74//74 98//98 75//75 
f 88//88 77//77 99//99 
f 88//88 99//99 100//100 
f 101//101 69//69 83//83 
f 88//88 102//102 78//78 
f 88//88 100//100 102//102 
f 83//83 90//90 101//101 
f 103//103 85//85 78//78 
f 85//85 103//103 89//89 
f 89//89 103//103 104//104 
f 90//90 87//87 105//105 
f 89//89 104//104 86//86 
f 86//86 104//104 93//93 
f 84//84 93//93 94//94 
f 79//79 94//94 80//80 
f 80//80 94//94 106//106 
f 80//80 106//106 73//73 
f 65//65 107//107 96//96 
f 66//66 107//107 65//65 
f 66//66 98//98 107//107 
f 74//74 108//108 98//98 
f 66//66 75//75 98//98 
f 99//99 77//77 92//92 
f 101//101 90//90 105//105 
f 102//102 103//103 78//78 
f 109//109 72//72 81//81 
f 96//96 109//109 81//81 
f 74//74 91//91 110//110 
f 74//74 110//110 108//108 
f 100//100 111//111 102//102 
f 102//102 111//111 103//103 
f 103//103 112//112 113//113 
f 113//113 104//104 103//103 
f 87//87 95//95 114//114 
f 109//109 95//95 72//72 
f 100//100 99//99 115//115 
f 82//82 69//69 116//116 
f 69//69 101//101 116//116 
f 111//111 112//112 103//103 
f 105//105 87//87 114//114 
f 113//113 117//117 104//104 
f 99//99 118//118 115//115 
f 99//99 92//92 118//118 
f 118//118 92//92 119//119 
f 82//82 119//119 92//92 
f 119//119 82//82 116//116 
f 100//100 115//115 111//111 
f 117//117 113//113 120//120 
f 112//112 120//120 113//113 
f 104//104 117//117 93//93 
f 121//121 93//93 117//117 
f 94//94 93//93 122//122 
f 94//94 122//122 106//106 
f 122//122 123//123 106//106 
f 107//107 124//124 96//96 
f 124//124 125//125 96//96 
f 91//91 97//97 126//126 
f 110//110 91//91 126//126 
f 98//98 127//127 107//107 
f 108//108 110//110 128//128 
f 112//112 129//129 120//120 
f 112//112 111//111 129//129 
f 93//93 121//121 122//122 
f 130//130 95//95 109//109 
f 106//106 123//123 73//73 
f 125//125 109//109 96//96 
f 73//73 131//131 97//97 
f 127//127 124//124 107//107 
f 132//132 98//98 108//108 
f 98//98 132//132 127//127 
f 132//132 108//108 128//128 
f 129//129 111//111 115//115 
f 131//131 126//126 97//97 
f 115//115 118//118 133//133 
f 129//129 115//115 134//134 
f 105//105 135//135 101//101 
f 117//117 120//120 136//136 
f 105//105 137//137 135//135 
f 105//105 114//114 137//137 
f 137//137 114//114 138//138 
f 114//114 95//95 138//138 
f 95//95 130//130 138//138 
f 139//139 122//122 121//121 
f 119//119 140//140 118//118 
f 140//140 119//119 116//116 
f 115//115 133//133 134//134 
f 101//101 141//141 116//116 
f 134//134 120//120 129//129 
f 117//117 136//136 121//121 
f 122//122 142//142 123//123 
f 123//123 131//131 73//73 
f 143//143 109//109 125//125 
f 125//125 124//124 143//143 
f 116//116 144//144 140//140 
f 144//144 116//116 141//141 
f 141//141 101//101 135//135 
f 120//120 134//134 136//136 
f 121//121 145//145 146//146 
f 121//121 136//136 145//145 
f 139//139 142//142 122//122 
f 142//142 147//147 123//123 
f 123//123 147//147 131//131 
f 128//128 110//110 148//148 
f 149//149 133//133 118//118 
f 150//150 134//134 133//133 
f 121//121 146//146 139//139 
f 143//143 130//130 109//109 
f 151//151 110//110 126//126 
f 152//152 124//124 127//127 
f 110//110 151//151 148//148 
f 140//140 149//149 118//118 
f 140//140 144//144 149//149 
f 153//153 144//144 141//141 
f 134//134 150//150 136//136 
f 154//154 136//136 150//150 
f 145//145 136//136 154//154 
f 127//127 132//132 152//152 
f 128//128 148//148 132//132 
f 133//133 149//149 155//155 
f 135//135 153//153 141//141 
f 137//137 138//138 156//156 
f 156//156 138//138 130//130 
f 146//146 157//157 139//139 
f 149//149 144//144 158//158 
f 144//144 153//153 158//158 
f 155//155 150//150 133//133 
f 155//155 159//159 150//150 
f 160//160 153//153 135//135 
f 159//159 154//154 150//150 
f 137//137 160//160 135//135 
f 137//137 156//156 160//160 
f 130//130 161//161 156//156 
f 146//146 145//145 157//157 
f 162//162 143//143 124//124 
f 155//155 149//149 158//158 
f 163//163 159//159 155//155 
f 154//154 164//164 145//145 
f 145//145 164//164 157//157 
f 139//139 147//147 142//142 
f 130//130 143//143 165//165 
f 131//131 166//166 126//126 
f 126//126 166//166 151//151 
f 132//132 167//167 152//152 
f 132//132 148//148 167//167 
f 155//155 158//158 163//163 
f 153//153 160//160 168//168 
f 153//153 168//168 158//158 
f 159//159 163//163 169//169 
f 154//154 159//159 169//169 
f 154//154 169//169 164//164 
f 157//157 164//164 170//170 
f 139//139 157//157 171//171 
f 165//165 161//161 130//130 
f 147//147 166//166 131//131 
f 124//124 152//152 162//162 
f 172//172 163//163 158//158 
f 168//168 172//172 158//158 
f 168//168 160//160 173//173 
f 160//160 156//156 173//173 
f 174//174 173//173 156//156 
f 175//175 164//164 169//169 
f 156//156 161//161 174//174 
f 161//161 176//176 174//174 
f 170//170 171//171 157//157 
f 139//139 171//171 147//147 
f 161//161 165//165 176//176 
f 143//143 162//162 165//165 
f 148//148 151//151 177//177 
f 168//168 173//173 172//172 
f 163//163 175//175 169//169 
f 172//172 175//175 163//163 
f 173//173 178//178 172//172 
f 178//178 175//175 172//172 
f 173//173 174//174 178//178 
f 170//170 164//164 179//179 
f 171//171 180//180 147//147 
f 177//177 167//167 148//148 
f 178//178 181//181 175//175 
f 174//174 181//181 178//178 
f 182//182 181//181 176//176 
f 181//181 174//174 176//176 
f 170//170 179//179 171//171 
f 176//176 165//165 183//183 
f 165//165 184//184 183//183 
f 180//180 185//185 147//147 
f 165//165 162//162 184//184 
f 147//147 185//185 166//166 
f 152//152 186//186 187//187 
f 187//187 162//162 152//152 
f 188//188 151//151 166//166 
f 177//177 151//151 188//188 
f 186//186 152//152 167//167 
f 175//175 189//189 190//190 
f 181//181 189//189 175//175 
f 164//164 175//175 190//190 
f 182//182 189//189 181//181 
f 179//179 164//164 190//190 
f 182//182 176//176 183//183 
f 171//171 179//179 191//191 
f 171//171 192//192 180//180 
f 162//162 187//187 184//184 
f 185//185 188//188 166//166 
f 167//167 177//177 193//193 
f 177//177 188//188 193//193 
f 193//193 186//186 167//167 
f 189//189 194//194 190//190 
f 182//182 183//183 194//194 
f 189//189 182//182 194//194 
f 183//183 195//195 194//194 
f 183//183 184//184 195//195 
f 171//171 191//191 192//192 
f 184//184 187//187 195//195 
f 185//185 180//180 192//192 
f 196//196 185//185 192//192 
f 186//186 193//193 197//197 
f 197//197 187//187 186//186 
f 194//194 198//198 190//190 
f 194//194 195//195 198//198 
f 190//190 199//199 179//179 
f 199//199 190//190 198//198 
f 198//198 195//195 200//200 
f 199//199 191//191 179//179 
f 195//195 197//197 200//200 
f 187//187 197//197 195//195 
f 185//185 196//196 188//188 
f 198//198 200//200 199//199 
f 199//199 201//201 191//191 
f 200//200 202//202 199//199 
f 199//199 202//202 201//201 
f 200//200 197//197 202//202 
f 192//192 191//191 201//201 
f 192//192 201//201 196//196 
f 202//202 193//193 201//201 
f 202//202 197//197 193//193 
f 196//196 201//201 188//188 
f 193//193 188//188 201//201 
