# wavefront obj file written by the visualization toolkit


v 10684.8 4689.91 4831.14
v 10623.3 4651.88 4834.5
v 10645 4750.89 4836.03
v 10583.9 4724.97 4842.94
v 10616.9 4807.39 4847.74
v 10681.4 4613.12 4866.39
v 10605.5 4590.78 4879.22
v 10726 4701.15 4872.25
v 10558.8 4648.59 4871.72
v 10567.5 4809.59 4890.67
v 10541 4716.99 4886
v 10705.7 4784.9 4875.36
v 10633.8 4859.1 4878.03
v 10666.9 4836.58 4882.04
v 10653.9 4572.99 4913.22
v 10544.3 4599.12 4923.99
v 10735.2 4654.18 4917.74
v 10749.9 4734.69 4922.53
v 10743.9 4790.79 4939.87
v 10661.5 4884.48 4910.1
v 10603.6 4579.54 4947.3
v 10701 4601.86 4942.98
v 10521.7 4673.54 4923.64
v 10526.2 4747.2 4928.64
v 10622.4 4874.33 4912.83
v 10545 4806.24 4972.27
v 10612.1 4875.44 4956.73
v 10697.5 4863.87 4950.61
v 10651.9 4884.68 4944.08
v 10547.1 4608.73 4987.77
v 10520.1 4651.41 4968.02
v 10735 4671.98 4990.17
v 10523.9 4719.06 4978.22
v 10658.3 4587.33 4969.55
v 10745.7 4752.41 4986.58
v 10732.1 4824.81 4996.7
v 10685.3 4640.25 5022.55
v 10660 4882.69 4998.2
v 10605.6 4612.67 5008.12
v 10613.4 4850.07 5024.11
v 10563.2 4641.02 5035.35
v 10540.3 4678.24 5018.1
v 10578 4765.25 5039.74
v 10703.4 4856.43 5026.79
v 10712.1 4716.84 5048.28
v 10719.1 4798.62 5039.93
v 10667.3 4857.99 5045.02
v 10667.5 4671.15 5065.04
v 10620 4658.47 5053.39
v 10597.6 4696.73 5060.56
v 10642.9 4818.67 5061
v 10678.3 4814.79 5062.79
v 10657.7 4711.59 5072.74
v 10645.1 4765.37 5065.15
v 10682.3 4761.66 5056.34
v 10630.8 4649.16 6314.26
v 10570.9 4666.62 6327.03
v 10649.2 4723.36 6302.56
v 10593.9 4756.77 6311.05
v 10698.6 4673.33 6345.27
v 10707.3 4787.67 6321.26
v 10661.9 4804.19 6311.88
v 10622 4839.27 6329.36
v 10679.1 4864.14 6354.81
v 10597.1 4619.96 6341.19
v 10547.3 4712.69 6336.86
v 10560 4785 6356.93
v 10593.5 4853.71 6357.64
v 10623.9 4879.64 6378.23
v 10627.9 4598.77 6381.26
v 10561.4 4611.43 6383.5
v 10739 4745.72 6360.16
v 10730.5 4821.4 6376.88
v 10667.6 4900.19 6408.4
v 10534.5 4686.61 6382.55
v 10737.8 4673.19 6396.4
v 10748.6 4737.33 6430.73
v 10573.4 4843.93 6402.37
v 10697.5 4611.61 6425.23
v 10530.1 4757.05 6421.91
v 10738.3 4827.49 6440.27
v 10701.6 4867.04 6434.43
v 10587.1 4576.87 6441.6
v 10638.4 4578.21 6451.67
v 10540.1 4620.44 6440.32
v 10521.6 4681.86 6444.96
v 10621.1 4876.2 6447.55
v 10726.8 4639.94 6469.07
v 10667.2 4878.98 6465.38
v 10619 4571.77 6478.97
v 10523.9 4728.14 6481.36
v 10740.1 4770.76 6484.24
v 10562.1 4808.06 6466.42
v 10721.7 4819.04 6483.33
v 10601.2 4593.47 6494.01
v 10666.5 4601.25 6485.9
v 10548.8 4656.98 6491.15
v 10728.8 4692.67 6502.23
v 10564.7 4779.02 6518.44
v 10607 4837.77 6501.06
v 10684.3 4843.27 6498.57
v 10643.1 4855.55 6491.54
v 10697.6 4637.97 6515.56
v 10554.8 4705.83 6519.55
v 10694.5 4773.45 6519.59
v 10645.2 4628.8 6529.33
v 10588.3 4667.76 6525.89
v 10672.2 4697.15 6532.36
v 10598.4 4742.84 6541.34
v 10632.1 4803.73 6517.42
v 10628.1 4704.2 6538.2
v 10644.2 4743.28 6529.44
vn 0.421175 -0.0468728 -0.905767
vn -0.146375 -0.281296 -0.948392
vn 0.126903 0.215528 -0.968217
vn -0.488561 0.0888207 -0.867997
vn -0.141929 0.39005 -0.909789
vn 0.502331 -0.601657 -0.621025
vn -0.233391 -0.784004 -0.57521
vn 0.821176 -0.0338779 -0.569669
vn -0.664115 -0.27551 -0.695015
vn -0.725753 0.499023 -0.47356
vn -0.818419 0.0916848 -0.567261
vn 0.624832 0.376144 -0.684179
vn -0.136023 0.674888 -0.725275
vn 0.476191 0.462915 -0.74763
vn 0.219149 -0.966034 -0.136939
vn -0.722929 -0.653536 -0.224197
vn 0.925957 -0.344828 -0.153937
vn 0.981289 0.001621 -0.192535
vn 0.909432 0.317447 -0.268629
vn 0.260583 0.871131 -0.416206
vn -0.18497 -0.968647 0.165857
vn 0.67717 -0.727459 0.110655
vn -0.958552 -0.0853152 -0.271845
vn -0.951891 0.22907 -0.203545
vn -0.40711 0.867084 -0.287102
vn -0.851674 0.48585 0.196471
vn -0.521601 0.852064 0.0438165
vn 0.66275 0.722872 -0.195493
vn 0.0329654 0.999312 -0.0170031
vn -0.591746 -0.684414 0.425927
vn -0.958403 -0.228383 0.171185
vn 0.859242 -0.37805 0.344647
vn -0.954448 0.138164 0.264462
vn 0.223224 -0.881607 0.415861
vn 0.973902 -0.00610186 0.226889
vn 0.904955 0.391875 0.165803
vn 0.429807 -0.666484 0.609151
vn 0.0462558 0.967254 0.249561
vn -0.0280074 -0.791983 0.6099
vn -0.517133 0.650504 0.556254
vn -0.404312 -0.468129 0.78574
vn -0.790074 -0.0683866 0.609185
vn -0.622058 0.22816 0.74899
vn 0.599259 0.651076 0.465821
vn 0.655935 -0.144596 0.740838
vn 0.717613 0.139506 0.682327
vn 0.00322222 0.671881 0.740652
vn 0.277525 -0.428714 0.859759
vn -0.0554599 -0.520316 0.852171
vn -0.361413 -0.045256 0.931307
vn -0.271514 0.305101 0.912794
vn 0.282466 0.198913 0.938428
vn 0.0995798 -0.041966 0.994144
vn -0.0911294 0.0884234 0.991906
vn 0.343968 0.0375607 0.93823
vn 0.136773 -0.511814 -0.848139
vn -0.529762 -0.291473 -0.79649
vn 0.121558 -0.0889362 -0.988592
vn -0.392845 0.160405 -0.905507
vn 0.587341 -0.445838 -0.675469
vn 0.584877 0.150884 -0.796965
vn 0.0943578 0.316326 -0.943946
vn -0.281277 0.541881 -0.79199
vn 0.385445 0.702496 -0.598274
vn -0.239693 -0.721191 -0.649947
vn -0.801183 0.0353288 -0.597376
vn -0.818928 0.319413 -0.476794
vn -0.624314 0.616778 -0.479392
vn -0.334171 0.88066 -0.335808
vn 0.17197 -0.874385 -0.453737
vn -0.612306 -0.675886 -0.410194
vn 0.895405 -0.0538963 -0.441978
vn 0.861294 0.410155 -0.29991
vn 0.159116 0.986673 -0.0340266
vn -0.94059 -0.131755 -0.312938
vn 0.881141 -0.38584 -0.273348
vn 0.999359 -0.0242525 0.0263335
vn -0.780449 0.622953 -0.0531795
vn 0.590049 -0.78045 -0.206738
vn -0.957038 0.271355 -0.102201
vn 0.906609 0.402173 0.127739
vn 0.674255 0.726224 0.134088
vn -0.354681 -0.933733 -0.0484275
vn 0.305503 -0.948121 -0.0879464
vn -0.846219 -0.522396 0.104958
vn -0.987767 -0.142646 0.0630008
vn -0.444707 0.846953 0.291386
vn 0.839454 -0.506186 0.197718
vn 0.173218 0.856249 0.486655
vn 0.0470196 -0.926421 0.373542
vn -0.925963 0.116415 0.359221
vn 0.862921 0.146344 0.483686
vn -0.786781 0.558895 0.261939
vn 0.678994 0.464904 0.568183
vn -0.370725 -0.649253 0.664104
vn 0.416415 -0.79606 0.439189
vn -0.751295 -0.35516 0.556253
vn 0.778045 -0.0996231 0.620259
vn -0.557354 0.374871 0.740829
vn -0.389797 0.638713 0.663403
vn 0.346927 0.566583 0.747412
vn -0.0870772 0.680053 0.727973
vn 0.532304 -0.444638 0.720381
vn -0.616798 -0.1028 0.78038
vn 0.383757 0.194867 0.902639
vn 0.0639242 -0.429304 0.900895
vn -0.352285 -0.28692 0.890827
vn 0.281905 -0.00997978 0.95939
vn -0.124054 0.0974643 0.987477
vn 0.0115044 0.360479 0.932696
vn 0.0409783 -0.0383226 0.998425
vn 0.160564 0.168344 0.972563

g grp1
usemtl mtl1
f 1//1 2//2 3//3 
f 2//2 4//4 3//3 
f 3//3 4//4 5//5 
f 6//6 7//7 2//2 
f 1//1 6//6 2//2 
f 8//8 6//6 1//1 
f 2//2 9//9 4//4 
f 7//7 9//9 2//2 
f 10//10 4//4 11//11 
f 4//4 10//10 5//5 
f 8//8 1//1 12//12 
f 3//3 12//12 1//1 
f 10//10 13//13 5//5 
f 5//5 14//14 3//3 
f 12//12 3//3 14//14 
f 14//14 5//5 13//13 
f 7//7 6//6 15//15 
f 7//7 16//16 9//9 
f 17//17 8//8 18//18 
f 4//4 9//9 11//11 
f 12//12 19//19 8//8 
f 14//14 13//13 20//20 
f 16//16 7//7 21//21 
f 7//7 15//15 21//21 
f 6//6 22//22 15//15 
f 6//6 17//17 22//22 
f 6//6 8//8 17//17 
f 23//23 9//9 16//16 
f 9//9 23//23 11//11 
f 18//18 8//8 19//19 
f 24//24 10//10 11//11 
f 25//25 13//13 10//10 
f 20//20 13//13 25//25 
f 23//23 24//24 11//11 
f 26//26 10//10 24//24 
f 10//10 26//26 27//27 
f 12//12 14//14 28//28 
f 12//12 28//28 19//19 
f 25//25 10//10 27//27 
f 20//20 28//28 14//14 
f 20//20 25//25 29//29 
f 21//21 30//30 16//16 
f 16//16 30//30 31//31 
f 32//32 22//22 17//17 
f 23//23 16//16 31//31 
f 23//23 33//33 24//24 
f 15//15 34//34 21//21 
f 15//15 22//22 34//34 
f 31//31 33//33 23//23 
f 17//17 18//18 35//35 
f 18//18 19//19 35//35 
f 19//19 28//28 36//36 
f 29//29 25//25 27//27 
f 28//28 20//20 29//29 
f 37//37 22//22 32//32 
f 24//24 33//33 26//26 
f 35//35 19//19 36//36 
f 38//38 29//29 27//27 
f 29//29 38//38 28//28 
f 34//34 39//39 21//21 
f 37//37 34//34 22//22 
f 32//32 17//17 35//35 
f 40//40 38//38 27//27 
f 39//39 30//30 21//21 
f 39//39 41//41 30//30 
f 34//34 37//37 39//39 
f 31//31 30//30 42//42 
f 31//31 42//42 33//33 
f 33//33 43//43 26//26 
f 43//43 40//40 26//26 
f 40//40 27//27 26//26 
f 44//44 36//36 28//28 
f 44//44 28//28 38//38 
f 30//30 41//41 42//42 
f 32//32 45//45 37//37 
f 45//45 32//32 35//35 
f 33//33 42//42 43//43 
f 46//46 35//35 36//36 
f 38//38 40//40 47//47 
f 44//44 38//38 47//47 
f 37//37 45//45 48//48 
f 45//45 35//35 46//46 
f 36//36 44//44 46//46 
f 39//39 49//49 41//41 
f 39//39 37//37 49//49 
f 41//41 49//49 50//50 
f 37//37 48//48 49//49 
f 41//41 50//50 42//42 
f 42//42 50//50 43//43 
f 43//43 51//51 40//40 
f 46//46 44//44 52//52 
f 47//47 40//40 51//51 
f 44//44 47//47 52//52 
f 49//49 53//53 50//50 
f 53//53 49//49 48//48 
f 48//48 45//45 53//53 
f 53//53 54//54 50//50 
f 53//53 45//45 55//55 
f 54//54 43//43 50//50 
f 54//54 51//51 43//43 
f 45//45 46//46 55//55 
f 46//46 52//52 55//55 
f 52//52 47//47 51//51 
f 53//53 55//55 54//54 
f 55//55 52//52 54//54 
f 52//52 51//51 54//54 
f 56//56 57//57 58//58 
f 58//58 57//57 59//59 
f 58//58 60//60 56//56 
f 60//60 58//58 61//61 
f 58//58 59//59 62//62 
f 61//61 58//58 62//62 
f 59//59 63//63 62//62 
f 64//64 61//61 62//62 
f 64//64 62//62 63//63 
f 57//57 56//56 65//65 
f 59//59 57//57 66//66 
f 67//67 59//59 66//66 
f 59//59 67//67 63//63 
f 67//67 68//68 63//63 
f 69//69 63//63 68//68 
f 64//64 63//63 69//69 
f 56//56 60//60 70//70 
f 65//65 71//71 57//57 
f 70//70 65//65 56//56 
f 60//60 61//61 72//72 
f 72//72 61//61 73//73 
f 73//73 61//61 64//64 
f 64//64 69//69 74//74 
f 57//57 71//71 75//75 
f 57//57 75//75 66//66 
f 76//76 72//72 77//77 
f 77//77 72//72 73//73 
f 68//68 67//67 78//78 
f 70//70 71//71 65//65 
f 70//70 60//60 79//79 
f 79//79 60//60 76//76 
f 60//60 72//72 76//76 
f 66//66 75//75 67//67 
f 80//80 67//67 75//75 
f 77//77 73//73 81//81 
f 67//67 80//80 78//78 
f 68//68 78//78 69//69 
f 82//82 73//73 64//64 
f 74//74 82//82 64//64 
f 70//70 83//83 71//71 
f 70//70 79//79 84//84 
f 71//71 85//85 75//75 
f 86//86 80//80 75//75 
f 87//87 69//69 78//78 
f 84//84 83//83 70//70 
f 83//83 85//85 71//71 
f 88//88 79//79 76//76 
f 75//75 85//85 86//86 
f 76//76 77//77 88//88 
f 73//73 82//82 81//81 
f 87//87 74//74 69//69 
f 74//74 89//89 82//82 
f 83//83 84//84 90//90 
f 86//86 91//91 80//80 
f 77//77 81//81 92//92 
f 80//80 93//93 78//78 
f 78//78 93//93 87//87 
f 94//94 81//81 82//82 
f 74//74 87//87 89//89 
f 85//85 83//83 95//95 
f 90//90 95//95 83//83 
f 84//84 79//79 96//96 
f 97//97 85//85 95//95 
f 79//79 88//88 96//96 
f 85//85 97//97 86//86 
f 88//88 77//77 98//98 
f 98//98 77//77 92//92 
f 91//91 93//93 80//80 
f 84//84 96//96 90//90 
f 97//97 91//91 86//86 
f 91//91 99//99 93//93 
f 94//94 92//92 81//81 
f 87//87 93//93 100//100 
f 82//82 101//101 94//94 
f 89//89 87//87 102//102 
f 89//89 102//102 101//101 
f 101//101 82//82 89//89 
f 103//103 96//96 88//88 
f 98//98 103//103 88//88 
f 91//91 97//97 104//104 
f 104//104 99//99 91//91 
f 92//92 105//105 98//98 
f 92//92 94//94 105//105 
f 100//100 93//93 99//99 
f 87//87 100//100 102//102 
f 90//90 96//96 95//95 
f 105//105 94//94 101//101 
f 95//95 96//96 106//106 
f 95//95 106//106 107//107 
f 96//96 103//103 106//106 
f 95//95 107//107 97//97 
f 103//103 98//98 108//108 
f 97//97 107//107 104//104 
f 105//105 108//108 98//98 
f 104//104 109//109 99//99 
f 110//110 99//99 109//109 
f 110//110 100//100 99//99 
f 105//105 101//101 110//110 
f 102//102 100//100 110//110 
f 101//101 102//102 110//110 
f 106//106 103//103 108//108 
f 106//106 111//111 107//107 
f 108//108 111//111 106//106 
f 107//107 109//109 104//104 
f 111//111 109//109 107//107 
f 111//111 112//112 109//109 
f 108//108 112//112 111//111 
f 105//105 112//112 108//108 
f 112//112 110//110 109//109 
f 105//105 110//110 112//112 
