# wavefront obj file written by the visualization toolkit


v 7550.2 4400.33 5410.92
v 7486.97 4496.86 5414.73
v 7545.9 4521.77 5430.87
v 7595.46 4398.37 5436.4
v 7579.83 3673.98 5430.12
v 7555.14 3725.35 5434.43
v 7595.1 3736.86 5443.35
v 7556.07 3864.42 5443.77
v 7558.51 4216.51 5426.88
v 7503.97 4366.75 5423.92
v 7574.43 4312.99 5426.67
v 7470.89 4362.58 5436.61
v 7449.18 4444.08 5435.38
v 7589.01 4558.77 5471.18
v 7417.63 4564.97 5457.53
v 7490.25 4601.57 5461.22
v 7447.34 4655.29 5490.77
v 7550.59 3646.76 5463.75
v 7592.17 3649.9 5479.82
v 7553.65 3594.43 5523.58
v 7509.69 3685.93 5470.3
v 7617.85 3692.49 5485.52
v 7622.27 3839.98 5477.84
v 7510.56 3799.58 5464.25
v 7599.08 3908.51 5454.83
v 7503.52 3992.11 5465.35
v 7544.39 4058.69 5442.4
v 7608.06 4084.7 5451.67
v 7619.19 4028.23 5472.23
v 7577.9 4061.24 5443.32
v 7499.19 4222.63 5448.89
v 7590.51 4224.06 5442.01
v 7614.38 4198.28 5462.72
v 7626.83 4370.82 5492.27
v 7449.45 4352.01 5454.96
v 7411.54 4472.07 5465.97
v 7613.75 4526.31 5500.35
v 7385.48 4566.71 5499.28
v 7552.6 4651.86 5501.74
v 7509.1 3637.14 5491.24
v 7483.71 3737.92 5492.44
v 7455.05 4190.16 5488.73
v 7419.44 4355.77 5494.66
v 7414.8 4668.02 5510.52
v 7494.02 4713.04 5521.23
v 7510.98 3584.59 5546.31
v 7487.15 3620.93 5548.52
v 7477.88 3847.12 5498.01
v 7630.14 4058.16 5506.05
v 7461.56 4009.23 5509.66
v 7386.55 4479.5 5565.85
v 7628.67 4518 5532.8
v 7391.69 4655.3 5531.46
v 7439.27 4717.08 5528.12
v 7616.74 3653.25 5568.48
v 7465.64 3718.46 5592.8
v 7625.47 3792.71 5516.51
v 7445.83 4098.34 5518.78
v 7427.35 4169.31 5564.51
v 7374.47 4639.2 5582.79
v 7591.92 4638.19 5531.37
v 7536.14 4727.8 5540.44
v 7498.07 3520.12 5624.1
v 7530.2 3553.74 5577.4
v 7556.32 3558.08 5581.01
v 7581.96 3598.4 5565.6
v 7457.99 3890.31 5567.3
v 7443.55 4015.3 5589.51
v 7632.64 4299.9 5574.52
v 7408.38 4298.63 5598.99
v 7614.97 4561.93 5600.18
v 7409.43 4742.19 5560.31
v 7489.33 3539.62 5615.82
v 7387.79 4756.01 5610.82
v 7556.07 4720.02 5558.07
v 7575.15 4695.24 5615.44
v 7511.99 4766.36 5568.42
v 7454.29 4777.15 5571.02
v 7556.94 3544.45 5632.96
v 7587 3585.24 5669.27
v 7629.47 3956.15 5597.19
v 7413.39 4235.4 5702.76
v 7420.39 4795.56 5596.32
v 7450.18 4826.88 5611.96
v 7487.15 4802.6 5602.82
v 7523.47 3525.21 5630.3
v 7475.17 3570.96 5670.85
v 7445.87 3867.93 5682.14
v 7394.3 4379.48 5678.81
v 7376.24 4482.73 5742.97
v 7369.79 4586.08 5691.04
v 7371.65 4695.61 5702.47
v 7530.79 4770.71 5633.97
v 7414.67 4821.21 5643.5
v 7615.38 3635.68 5706.14
v 7624.77 3776.23 5653.77
v 7431.99 4072.42 5699.08
v 7635.66 4212.15 5675.46
v 7589.41 4682.42 5696.35
v 7480.83 4824.57 5674.66
v 7436.88 4837.68 5667.76
v 7487.23 3516.99 5663.8
v 7509.62 3512.39 5682.47
v 7533.53 3525.43 5668
v 7461.15 3718.52 5746.09
v 7634.63 3943.06 5715.6
v 7632.37 4427.01 5696.42
v 7619.66 4581.05 5719.13
v 7562.98 4733.31 5681.38
v 7395.25 4802.42 5705.32
v 7423.22 4836.25 5697.65
v 7630.22 3739.84 5744.28
v 7444.43 4842.25 5719.59
v 7500.56 3546.41 5758.07
v 7554.84 3547.78 5728.84
v 7549.05 4755.54 5743.84
v 7480.69 4821.51 5740.71
v 7530.64 3544.5 5767.52
v 7484.39 3622.6 5818.32
v 7370.61 4628.09 5789.02
v 7381.57 4735.58 5758.51
v 7426.98 4826.94 5752.5
v 7601.1 3608.22 5800.53
v 7636.45 3861.85 5826.02
v 7441.2 3989.21 5785
v 7638.68 4204.56 5782.75
v 7630.01 4487.07 5795.43
v 7602.79 4628.8 5782.55
v 7401 4767.77 5783.02
v 7464.26 4827.12 5760.91
v 7534.46 3561.19 5816.48
v 7622.6 3699.29 5797.43
v 7456.38 3828.93 5814.83
v 7426.94 4165.25 5804.58
v 7398.38 4359.37 5785.73
v 7510.46 4791.51 5785.3
v 7506.54 3583.83 5835.09
v 7559.98 3585.36 5841.91
v 7468.59 3717.35 5818.65
v 7388.48 4499.45 5858.6
v 7387.35 4676.83 5838.54
v 7582.77 4672.53 5838.22
v 7429.15 4764.23 5818.54
v 7476.62 4776.59 5811.99
v 7526.33 3583.07 5845.53
v 7546.83 4742.23 5814.76
v 7451.27 4013.23 5845.65
v 7443.74 4198.96 5870.57
v 7637.1 4080.84 5871.94
v 7421.47 4347.26 5871.66
v 7632.42 4327.88 5866.2
v 7609.04 4523.8 5873.29
v 7412.44 4707.69 5849.65
v 7525.35 4753.25 5826.91
v 7613.34 3694.33 5877.18
v 7589.92 3627.45 5862.91
v 7484.87 3731.81 5869.11
v 7486.82 3902.19 5892.12
v 7387.82 4600.59 5874.33
v 7550.87 4699.37 5858.87
v 7452.03 4695.6 5878.92
v 7505.09 4708.64 5865.8
v 7517.59 3604.84 5868.58
v 7622.15 3867.15 5904.62
v 7624.15 4036.14 5908.26
v 7471.5 4098.27 5892.71
v 7626.44 4210.74 5910.21
v 7435.15 4430.78 5923.9
v 7414.92 4638.24 5893.28
v 7521.77 4637.66 5914.86
v 7542.87 3623.98 5902.09
v 7517.69 3660.38 5894.3
v 7577.97 3647.86 5899.19
v 7470.1 4264.51 5915.13
v 7610.4 4385.3 5931.87
v 7443.22 4348.63 5904.87
v 7570.01 4601.12 5899.74
v 7485.45 4657.81 5906.92
v 7530.69 3775.44 5927.15
v 7598.72 3739.21 5925.19
v 7607.6 3859.39 5932.59
v 7525.4 3913.54 5926.51
v 7611.64 3960.89 5925.21
v 7516.95 4056.14 5925.51
v 7605.78 4104.85 5930
v 7607.55 4251 5936.9
v 7585.16 4516.03 5928.37
v 7423.79 4545.31 5923.56
v 7539.68 3680.63 5920.43
v 7566.09 3712.51 5926.8
v 7558.7 3895.9 5942.26
v 7591.77 3937.27 5938.9
v 7584.24 3817.29 5937.33
v 7568.54 4075.54 5939.57
v 7580.27 4269.98 5955.88
v 7530.9 4230.78 5943.38
v 7486.05 4354.03 5946.05
v 7597.97 4324.52 5950.06
v 7544.79 4569.59 5937.25
v 7487.34 4588.87 5932.25
v 7560.23 3800.19 5932.72
v 7523.11 4357.85 5962.74
v 7542.13 4417.77 5973.39
v 7581.08 4378.8 5958.73
v 7480.81 4451.15 5955.7
v 7553.19 4478.1 5948.98
v 7476.25 4519.31 5949.44
v 7506.16 4489.7 5951.53
vn 0.199633 0.0110093 -0.979809
vn -0.164349 0.140594 -0.976331
vn 0.328591 0.306395 -0.893392
vn 0.686065 0.06772 -0.724382
vn 0.256087 -0.384616 -0.886843
vn -0.293531 -0.0635986 -0.953832
vn 0.579779 -0.0410743 -0.813738
vn -0.0924699 0.0136065 -0.995623
vn 0.0516379 -0.0888233 -0.994708
vn -0.290183 -0.114925 -0.950045
vn 0.453304 -0.0515185 -0.889866
vn -0.470588 -0.154687 -0.868688
vn -0.527924 -0.0878799 -0.844733
vn 0.683975 0.311672 -0.659575
vn -0.540809 0.232946 -0.808246
vn 0.019711 0.432274 -0.901527
vn -0.187608 0.450798 -0.872688
vn -0.20516 -0.607096 -0.767687
vn 0.673271 -0.574674 -0.465247
vn 0.266583 -0.77036 -0.579206
vn -0.67694 -0.200096 -0.708318
vn 0.919113 -0.20197 -0.338289
vn 0.900572 -0.015807 -0.43442
vn -0.611583 -0.00721516 -0.791148
vn 0.529241 -0.00885816 -0.848425
vn -0.596222 -0.0494853 -0.801293
vn -0.229219 -0.0559158 -0.971768
vn 0.618663 -0.0173758 -0.785465
vn 0.861738 -0.0114491 -0.507224
vn 0.231018 -0.0417274 -0.972054
vn -0.465768 -0.126032 -0.875886
vn 0.509368 -0.0337846 -0.859885
vn 0.838044 0.00240299 -0.545598
vn 0.949463 0.0384478 -0.311515
vn -0.679629 -0.175261 -0.712312
vn -0.833257 -0.115079 -0.540776
vn 0.89952 0.242725 -0.363247
vn -0.925834 0.0385059 -0.375963
vn 0.441649 0.470553 -0.763889
vn -0.641322 -0.452463 -0.619664
vn -0.878618 -0.0934863 -0.468285
vn -0.797913 -0.116242 -0.591458
vn -0.919505 -0.153036 -0.362064
vn -0.519234 0.411613 -0.74898
vn 0.075604 0.549942 -0.831774
vn -0.426293 -0.665341 -0.612859
vn -0.899107 -0.266663 -0.347128
vn -0.883731 -0.0439399 -0.465927
vn 0.984033 -0.00439084 -0.17793
vn -0.89691 -0.0908363 -0.432783
vn -0.98529 -0.118175 -0.123447
vn 0.972958 0.189872 -0.131536
vn -0.83544 0.268992 -0.479253
vn -0.240518 0.536758 -0.808729
vn 0.95548 -0.284016 -0.0799609
vn -0.985845 -0.0933799 -0.139248
vn 0.997583 -0.0406436 -0.0563595
vn -0.941097 -0.0986669 -0.323421
vn -0.977748 -0.114207 -0.175969
vn -0.988257 0.0627698 -0.139314
vn 0.865323 0.377092 -0.330178
vn 0.43233 0.588091 -0.68355
vn -0.25137 -0.877623 -0.408155
vn 0.0745527 -0.831077 -0.551138
vn 0.503994 -0.777805 -0.375513
vn 0.772055 -0.588504 -0.239987
vn -0.979365 -0.0775954 -0.18661
vn -0.983949 -0.104538 -0.144622
vn 0.999658 0.0198319 -0.0170519
vn -0.986898 -0.131123 -0.0940164
vn 0.969538 0.236779 -0.0626978
vn -0.573372 0.489314 -0.657127
vn -0.833531 -0.427485 -0.349976
vn -0.90151 0.33811 -0.270115
vn 0.746087 0.56201 -0.357071
vn 0.90179 0.42134 -0.0961696
vn 0.407513 0.726999 -0.552634
vn -0.0626974 0.646078 -0.760692
vn 0.693604 -0.713666 -0.0979505
vn 0.839417 -0.542377 -0.0347485
vn 0.999442 -0.0256224 -0.0214397
vn -0.991656 -0.128885 -0.00270721
vn -0.529274 0.612074 -0.587567
vn -0.0234662 0.878343 -0.477455
vn 0.448567 0.778513 -0.438982
vn 0.341141 -0.903773 -0.258491
vn -0.977551 -0.21055 0.00788734
vn -0.996374 -0.0806681 -0.0270422
vn -0.989656 -0.141551 -0.0233487
vn -0.993497 -0.110269 0.028351
vn -0.999088 -0.0330731 -0.0269899
vn -0.992074 0.125387 -0.00818586
vn 0.746493 0.649838 -0.143033
vn -0.644823 0.718709 -0.260116
vn 0.967407 -0.253099 -0.00807648
vn 0.996901 -0.0577172 -0.0534547
vn -0.995694 -0.092344 -0.00808889
vn 0.999516 0.000866081 -0.0311088
vn 0.930153 0.366782 -0.0169243
vn 0.516131 0.85161 -0.0914834
vn -0.0990309 0.982241 -0.159358
vn -0.74044 -0.672092 0.00640927
vn 0.105413 -0.988764 0.105986
vn 0.519392 -0.854422 -0.0139369
vn -0.99174 -0.116695 0.0532271
vn 0.998893 -0.0213796 -0.0419099
vn 0.998055 0.0531853 -0.0325097
vn 0.982103 0.188302 -0.00389984
vn 0.854224 0.515992 -0.0636668
vn -0.887091 0.45599 0.0717124
vn -0.531203 0.846995 0.0205707
vn 0.996303 -0.0827091 -0.0232091
vn 0.0768536 0.991602 0.104016
vn -0.573927 -0.739467 0.351847
vn 0.623859 -0.769532 0.136461
vn 0.810041 0.583977 0.0529558
vn 0.555096 0.825737 0.100139
vn 0.215531 -0.927166 0.306448
vn -0.914825 -0.258812 0.310018
vn -0.991654 0.0357744 0.123866
vn -0.955915 0.241037 0.167716
vn -0.44363 0.771222 0.456518
vn 0.856135 -0.493958 0.151783
vn 0.995917 -0.0523294 0.0735646
vn -0.991395 -0.0800234 0.103594
vn 0.999936 0.0107935 0.00344814
vn 0.990437 0.109641 0.083752
vn 0.951114 0.289343 0.107995
vn -0.781066 0.463443 0.418518
vn 0.189261 0.872823 0.449844
vn -0.000250786 -0.893691 0.448684
vn 0.983135 -0.164455 0.0799961
vn -0.969917 -0.0807736 0.229643
vn -0.979412 -0.112084 0.167896
vn -0.982766 -0.148292 0.110365
vn 0.513322 0.771419 0.376049
vn -0.642242 -0.609143 0.465264
vn 0.450847 -0.774483 0.443749
vn -0.966343 -0.130932 0.221446
vn -0.940726 -0.106954 0.321864
vn -0.866529 0.276862 0.4153
vn 0.862585 0.391972 0.319852
vn -0.383056 0.617388 0.687096
vn 0.0278791 0.699523 0.714066
vn -0.196114 -0.800522 0.566308
vn 0.715399 0.605208 0.349182
vn -0.926377 -0.0866601 0.366491
vn -0.86983 -0.108138 0.481354
vn 0.982652 -0.00619392 0.185355
vn -0.888217 -0.162112 0.429872
vn 0.982977 0.0578034 0.174401
vn 0.929757 0.198228 0.310253
vn -0.595492 0.46553 0.654729
vn 0.350213 0.677485 0.646811
vn 0.919684 -0.236201 0.313673
vn 0.741909 -0.525743 0.416131
vn -0.864073 -0.11729 0.48951
vn -0.778869 -0.0584565 0.624457
vn -0.882254 0.0848521 0.463064
vn 0.527724 0.530511 0.663374
vn -0.212363 0.524828 0.824292
vn 0.132893 0.608003 0.782733
vn -0.622211 -0.491812 0.609076
vn 0.923317 -0.0544576 0.380158
vn 0.863073 -0.0115136 0.504948
vn -0.759227 -0.0857763 0.645149
vn 0.889226 0.00121845 0.457466
vn -0.736614 -0.138756 0.661926
vn -0.549342 0.324293 0.770102
vn 0.259732 0.460535 0.848792
vn -0.0947644 -0.560396 0.822786
vn -0.725154 -0.227049 0.650077
vn 0.547232 -0.469545 0.692867
vn -0.688373 -0.145512 0.710611
vn 0.803361 0.105526 0.586068
vn -0.818087 -0.20187 0.5385
vn 0.692303 0.360276 0.625234
vn -0.0457288 0.480823 0.875624
vn -0.483738 -0.0791109 0.87163
vn 0.618744 -0.194961 0.761017
vn 0.619757 -0.0370242 0.78392
vn -0.547384 -0.0219293 0.836594
vn 0.731845 0.00439446 0.681457
vn -0.480924 -0.0460054 0.875555
vn 0.583849 -0.0233501 0.811526
vn 0.702826 -0.0347314 0.710514
vn 0.675131 0.227749 0.701661
vn -0.600393 0.0815616 0.795535
vn -0.359995 -0.215905 0.907628
vn 0.0680846 -0.195864 0.978265
vn -0.169401 -0.0302401 0.985083
vn 0.311992 0.00578329 0.950067
vn 0.132441 -0.0764292 0.98824
vn -0.00489895 -0.0297972 0.999544
vn 0.225327 -0.0848574 0.970581
vn -0.314411 -0.122946 0.941292
vn -0.486915 -0.15067 0.860356
vn 0.607128 -0.0056904 0.794584
vn 0.330683 0.2888 0.898467
vn -0.111658 0.278554 0.953908
vn -0.12729 -0.0907521 0.987705
vn -0.254381 -0.12636 0.958814
vn 0.0746555 0.0980882 0.992374
vn 0.510381 0.105939 0.853398
vn -0.343712 0.00291534 0.939071
vn 0.329771 0.21039 0.920319
vn -0.157915 0.163868 0.973761
vn 0.0430094 0.214651 0.975743

g grp1
usemtl mtl1
f 1//1 2//2 3//3 
f 3//3 4//4 1//1 
f 5//5 6//6 7//7 
f 7//7 6//6 8//8 
f 9//9 10//10 1//1 
f 11//11 9//9 1//1 
f 11//11 1//1 4//4 
f 12//12 13//13 10//10 
f 1//1 10//10 2//2 
f 10//10 13//13 2//2 
f 3//3 14//14 4//4 
f 2//2 13//13 15//15 
f 16//16 2//2 15//15 
f 3//3 2//2 16//16 
f 16//16 15//15 17//17 
f 18//18 19//19 20//20 
f 6//6 18//18 21//21 
f 5//5 18//18 6//6 
f 19//19 18//18 5//5 
f 7//7 19//19 5//5 
f 7//7 22//22 19//19 
f 23//23 22//22 7//7 
f 6//6 21//21 24//24 
f 25//25 23//23 7//7 
f 6//6 24//24 8//8 
f 7//7 8//8 25//25 
f 26//26 8//8 24//24 
f 27//27 8//8 26//26 
f 28//28 29//29 25//25 
f 8//8 27//27 30//30 
f 25//25 8//8 30//30 
f 25//25 30//30 28//28 
f 30//30 27//27 9//9 
f 31//31 27//27 26//26 
f 9//9 27//27 31//31 
f 30//30 9//9 32//32 
f 28//28 30//30 32//32 
f 33//33 28//28 32//32 
f 9//9 11//11 32//32 
f 9//9 31//31 10//10 
f 10//10 31//31 12//12 
f 32//32 11//11 4//4 
f 4//4 33//33 32//32 
f 33//33 4//4 34//34 
f 13//13 12//12 35//35 
f 36//36 13//13 35//35 
f 34//34 4//4 37//37 
f 4//4 14//14 37//37 
f 13//13 36//36 15//15 
f 38//38 15//15 36//36 
f 14//14 3//3 39//39 
f 40//40 21//21 18//18 
f 41//41 24//24 21//21 
f 23//23 25//25 29//29 
f 26//26 42//42 31//31 
f 42//42 35//35 31//31 
f 31//31 35//35 12//12 
f 36//36 35//35 43//43 
f 15//15 44//44 17//17 
f 3//3 16//16 39//39 
f 39//39 16//16 45//45 
f 18//18 46//46 40//40 
f 46//46 18//18 20//20 
f 21//21 40//40 47//47 
f 21//21 47//47 41//41 
f 41//41 48//48 24//24 
f 24//24 48//48 26//26 
f 23//23 29//29 49//49 
f 48//48 50//50 26//26 
f 26//26 50//50 42//42 
f 28//28 33//33 29//29 
f 43//43 35//35 42//42 
f 36//36 43//43 51//51 
f 34//34 37//37 52//52 
f 38//38 36//36 51//51 
f 38//38 53//53 15//15 
f 53//53 44//44 15//15 
f 17//17 45//45 16//16 
f 54//54 45//45 17//17 
f 17//17 44//44 54//54 
f 19//19 22//22 55//55 
f 56//56 41//41 47//47 
f 22//22 23//23 57//57 
f 48//48 41//41 56//56 
f 23//23 49//49 57//57 
f 50//50 58//58 42//42 
f 29//29 33//33 49//49 
f 59//59 42//42 58//58 
f 42//42 59//59 43//43 
f 33//33 34//34 49//49 
f 51//51 60//60 38//38 
f 53//53 38//38 60//60 
f 37//37 14//14 61//61 
f 14//14 39//39 61//61 
f 39//39 45//45 62//62 
f 63//63 46//46 64//64 
f 20//20 64//64 46//46 
f 65//65 64//64 20//20 
f 65//65 20//20 66//66 
f 46//46 47//47 40//40 
f 66//66 20//20 19//19 
f 55//55 66//66 19//19 
f 55//55 22//22 57//57 
f 56//56 67//67 48//48 
f 50//50 48//48 67//67 
f 50//50 67//67 68//68 
f 68//68 58//58 50//50 
f 49//49 34//34 69//69 
f 43//43 70//70 51//51 
f 34//34 52//52 69//69 
f 37//37 61//61 71//71 
f 52//52 37//37 71//71 
f 44//44 53//53 72//72 
f 44//44 72//72 54//54 
f 73//73 47//47 46//46 
f 68//68 59//59 58//58 
f 59//59 70//70 43//43 
f 52//52 71//71 69//69 
f 74//74 53//53 60//60 
f 61//61 39//39 75//75 
f 61//61 75//75 76//76 
f 71//71 61//61 76//76 
f 39//39 62//62 75//75 
f 75//75 62//62 77//77 
f 72//72 78//78 54//54 
f 45//45 77//77 62//62 
f 78//78 77//77 45//45 
f 45//45 54//54 78//78 
f 46//46 63//63 73//73 
f 65//65 66//66 79//79 
f 66//66 55//55 80//80 
f 55//55 57//57 81//81 
f 57//57 49//49 81//81 
f 81//81 49//49 69//69 
f 59//59 82//82 70//70 
f 74//74 72//72 53//53 
f 83//83 72//72 74//74 
f 72//72 83//83 78//78 
f 83//83 84//84 78//78 
f 78//78 85//85 77//77 
f 85//85 78//78 84//84 
f 63//63 64//64 86//86 
f 64//64 65//65 86//86 
f 47//47 73//73 87//87 
f 47//47 87//87 56//56 
f 67//67 88//88 68//68 
f 89//89 51//51 70//70 
f 90//90 91//91 51//51 
f 51//51 91//91 60//60 
f 60//60 92//92 74//74 
f 75//75 93//93 76//76 
f 77//77 93//93 75//75 
f 77//77 85//85 93//93 
f 83//83 94//94 84//84 
f 86//86 65//65 79//79 
f 80//80 79//79 66//66 
f 80//80 55//55 95//95 
f 55//55 96//96 95//95 
f 96//96 55//55 81//81 
f 56//56 88//88 67//67 
f 68//68 97//97 59//59 
f 81//81 69//69 98//98 
f 91//91 92//92 60//60 
f 71//71 76//76 99//99 
f 94//94 83//83 74//74 
f 93//93 85//85 100//100 
f 84//84 94//94 101//101 
f 85//85 84//84 100//100 
f 84//84 101//101 100//100 
f 102//102 63//63 103//103 
f 63//63 86//86 103//103 
f 63//63 102//102 73//73 
f 104//104 86//86 79//79 
f 87//87 105//105 56//56 
f 56//56 105//105 88//88 
f 96//96 81//81 106//106 
f 88//88 97//97 68//68 
f 59//59 97//97 82//82 
f 106//106 81//81 98//98 
f 82//82 89//89 70//70 
f 98//98 69//69 107//107 
f 90//90 51//51 89//89 
f 71//71 108//108 107//107 
f 69//69 71//71 107//107 
f 71//71 99//99 108//108 
f 76//76 109//109 99//99 
f 110//110 94//94 74//74 
f 94//94 111//111 101//101 
f 86//86 104//104 103//103 
f 102//102 87//87 73//73 
f 95//95 96//96 112//112 
f 76//76 93//93 109//109 
f 92//92 110//110 74//74 
f 94//94 110//110 111//111 
f 101//101 111//111 113//113 
f 113//113 100//100 101//101 
f 102//102 114//114 87//87 
f 114//114 102//102 103//103 
f 115//115 103//103 104//104 
f 104//104 79//79 115//115 
f 96//96 106//106 112//112 
f 109//109 93//93 116//116 
f 117//117 100//100 113//113 
f 118//118 103//103 115//115 
f 87//87 119//119 105//105 
f 91//91 120//120 92//92 
f 92//92 121//121 110//110 
f 111//111 122//122 113//113 
f 103//103 118//118 114//114 
f 115//115 79//79 80//80 
f 123//123 115//115 80//80 
f 80//80 95//95 123//123 
f 112//112 106//106 124//124 
f 88//88 125//125 97//97 
f 106//106 98//98 126//126 
f 98//98 107//107 126//126 
f 90//90 120//120 91//91 
f 107//107 108//108 127//127 
f 99//99 109//109 116//116 
f 116//116 128//128 99//99 
f 121//121 129//129 110//110 
f 93//93 100//100 116//116 
f 110//110 129//129 122//122 
f 122//122 111//111 110//110 
f 100//100 117//117 116//116 
f 113//113 122//122 130//130 
f 118//118 131//131 114//114 
f 114//114 119//119 87//87 
f 123//123 95//95 132//132 
f 132//132 95//95 112//112 
f 132//132 112//112 124//124 
f 105//105 133//133 88//88 
f 88//88 133//133 125//125 
f 97//97 125//125 134//134 
f 97//97 134//134 82//82 
f 106//106 126//126 124//124 
f 82//82 135//135 89//89 
f 126//126 107//107 127//127 
f 108//108 128//128 127//127 
f 108//108 99//99 128//128 
f 116//116 117//117 136//136 
f 117//117 113//113 130//130 
f 114//114 137//137 119//119 
f 118//118 138//138 131//131 
f 115//115 138//138 118//118 
f 105//105 119//119 139//139 
f 105//105 139//139 133//133 
f 89//89 135//135 90//90 
f 90//90 135//135 140//140 
f 92//92 120//120 121//121 
f 120//120 141//141 121//121 
f 128//128 116//116 142//142 
f 141//141 129//129 121//121 
f 129//129 143//143 122//122 
f 130//130 136//136 117//117 
f 130//130 144//144 136//136 
f 145//145 137//137 114//114 
f 145//145 114//114 131//131 
f 115//115 123//123 138//138 
f 134//134 135//135 82//82 
f 90//90 140//140 120//120 
f 142//142 116//116 146//146 
f 146//146 116//116 136//136 
f 122//122 143//143 144//144 
f 130//130 122//122 144//144 
f 138//138 145//145 131//131 
f 133//133 147//147 125//125 
f 125//125 147//147 134//134 
f 147//147 148//148 134//134 
f 124//124 126//126 149//149 
f 134//134 150//150 135//135 
f 126//126 127//127 151//151 
f 128//128 142//142 152//152 
f 152//152 127//127 128//128 
f 141//141 153//153 129//129 
f 143//143 129//129 153//153 
f 146//146 136//136 154//154 
f 136//136 144//144 154//154 
f 123//123 155//155 156//156 
f 155//155 123//123 132//132 
f 132//132 124//124 155//155 
f 139//139 157//157 133//133 
f 157//157 158//158 133//133 
f 133//133 158//158 147//147 
f 149//149 126//126 151//151 
f 135//135 150//150 140//140 
f 151//151 127//127 152//152 
f 159//159 141//141 120//120 
f 146//146 160//160 142//142 
f 153//153 161//161 143//143 
f 146//146 154//154 160//160 
f 160//160 154//154 162//162 
f 144//144 143//143 161//161 
f 154//154 144//144 162//162 
f 163//163 137//137 145//145 
f 163//163 119//119 137//137 
f 138//138 123//123 156//156 
f 119//119 157//157 139//139 
f 155//155 124//124 164//164 
f 124//124 149//149 164//164 
f 164//164 149//149 165//165 
f 148//148 147//147 166//166 
f 165//165 149//149 167//167 
f 149//149 151//151 167//167 
f 148//148 150//150 134//134 
f 150//150 168//168 140//140 
f 159//159 169//169 141//141 
f 153//153 141//141 169//169 
f 170//170 160//160 162//162 
f 162//162 144//144 161//161 
f 171//171 163//163 145//145 
f 138//138 171//171 145//145 
f 163//163 172//172 119//119 
f 138//138 173//173 171//171 
f 119//119 172//172 157//157 
f 158//158 166//166 147//147 
f 174//174 148//148 166//166 
f 148//148 174//174 150//150 
f 167//167 151//151 175//175 
f 174//174 176//176 150//150 
f 175//175 151//151 152//152 
f 140//140 159//159 120//120 
f 152//152 142//142 177//177 
f 169//169 161//161 153//153 
f 177//177 160//160 170//170 
f 177//177 142//142 160//160 
f 161//161 178//178 162//162 
f 170//170 162//162 178//178 
f 163//163 171//171 172//172 
f 138//138 156//156 173//173 
f 156//156 155//155 173//173 
f 172//172 179//179 157//157 
f 164//164 180//180 155//155 
f 181//181 180//180 164//164 
f 179//179 158//158 157//157 
f 158//158 179//179 182//182 
f 183//183 181//181 164//164 
f 165//165 183//183 164//164 
f 182//182 184//184 158//158 
f 158//158 184//184 166//166 
f 165//165 185//185 183//183 
f 167//167 185//185 165//165 
f 184//184 174//174 166//166 
f 186//186 185//185 167//167 
f 167//167 175//175 186//186 
f 176//176 168//168 150//150 
f 152//152 187//187 175//175 
f 159//159 140//140 188//188 
f 159//159 188//188 169//169 
f 172//172 171//171 189//189 
f 173//173 190//190 171//171 
f 190//190 189//189 171//171 
f 173//173 155//155 180//180 
f 172//172 189//189 179//179 
f 191//191 182//182 179//179 
f 192//192 193//193 181//181 
f 181//181 183//183 192//192 
f 182//182 191//191 184//184 
f 194//194 184//184 191//191 
f 192//192 194//194 191//191 
f 192//192 185//185 194//194 
f 183//183 185//185 192//192 
f 194//194 185//185 195//195 
f 184//184 196//196 174//174 
f 194//194 196//196 184//184 
f 185//185 186//186 195//195 
f 197//197 174//174 196//196 
f 195//195 186//186 198//198 
f 175//175 198//198 186//186 
f 174//174 168//168 176//176 
f 174//174 197//197 168//168 
f 168//168 188//188 140//140 
f 187//187 177//177 199//199 
f 187//187 152//152 177//177 
f 200//200 199//199 170//170 
f 177//177 170//170 199//199 
f 161//161 169//169 200//200 
f 178//178 161//161 200//200 
f 170//170 178//178 200//200 
f 190//190 173//173 180//180 
f 180//180 193//193 190//190 
f 190//190 179//179 189//189 
f 193//193 201//201 190//190 
f 190//190 201//201 179//179 
f 180//180 181//181 193//193 
f 201//201 191//191 179//179 
f 193//193 191//191 201//201 
f 193//193 192//192 191//191 
f 194//194 195//195 196//196 
f 195//195 202//202 196//196 
f 195//195 203//203 202//202 
f 198//198 204//204 195//195 
f 204//204 203//203 195//195 
f 197//197 196//196 202//202 
f 198//198 175//175 204//204 
f 202//202 205//205 197//197 
f 206//206 204//204 175//175 
f 197//197 205//205 168//168 
f 175//175 187//187 206//206 
f 168//168 205//205 188//188 
f 207//207 188//188 205//205 
f 187//187 199//199 206//206 
f 207//207 200//200 188//188 
f 206//206 199//199 200//200 
f 200//200 169//169 188//188 
f 205//205 202//202 203//203 
f 204//204 206//206 203//203 
f 203//203 208//208 205//205 
f 206//206 208//208 203//203 
f 208//208 207//207 205//205 
f 208//208 200//200 207//207 
f 206//206 200//200 208//208 
