# wavefront obj file written by the visualization toolkit


v 7620.43 4605.84 5213.38
v 7575.71 4636.73 5207.36
v 7589.53 4677.94 5205.84
v 7630.85 4686.45 5238.51
v 7544.85 4731.69 5219.83
v 7575.9 4763.88 5243.37
v 7638.77 4561.26 5243.12
v 7599.32 4571.31 5248.33
v 7529.74 4665.34 5255.55
v 7652.67 4608.71 5261.74
v 7490.97 4762.01 5250.79
v 7500.18 4845.87 5267.86
v 7476.15 4822.88 5264.46
v 7637.58 4534.68 5277.4
v 7551.45 4578.32 5301.21
v 7438.43 4756.56 5329.19
v 7611.72 4776.89 5295.27
v 7413.26 4846.12 5320.95
v 7522.87 4868.47 5309.21
v 7437.96 4901.24 5305.92
v 7651.74 4547.86 5294.21
v 7655.35 4684.18 5314.11
v 7405.71 4901.6 5326
v 7598.81 4537.47 5313.51
v 7637.03 4530.96 5317.29
v 7663.37 4611.64 5343.82
v 7418.84 4957.8 5347.29
v 7537 4572.45 5349
v 7644.13 4560.29 5366.85
v 7484.62 4652.03 5352.25
v 7634.74 4774.21 5369.03
v 7544.45 4882.35 5377.11
v 7385.88 4946.36 5349.57
v 7459.62 4960.15 5379.79
v 7556.69 4562.56 5374.22
v 7346.74 4951.57 5387.94
v 7609.51 4547.82 5355.45
v 7389.37 4775.5 5413.6
v 7375.88 4855.15 5379.5
v 7360.36 4990.9 5383.78
v 7500.29 4616.94 5382.73
v 7446.69 4683.11 5411.16
v 7652.61 4705.51 5394.05
v 7579.63 4853.03 5411.85
v 7438.89 5002.47 5439.92
v 7387.18 5021.38 5414.09
v 7358.46 5018.2 5404.69
v 7644.9 4633.88 5419.16
v 7339.57 4889.14 5442.54
v 7516.34 4917.96 5459.08
v 7328.25 5025.62 5439.93
v 7588.45 4591.8 5415.64
v 7630.13 4598.82 5413.73
v 7490.53 4648.31 5428.85
v 7405.33 4747.56 5472.91
v 7601.33 4805.69 5431.48
v 7323.71 4966.4 5458.62
v 7346.21 5042.07 5446.74
v 7615.79 4739.89 5453.55
v 7331.09 5049.18 5473.15
v 7365.85 5038.03 5466.38
v 7616.88 4618.85 5437.16
v 7526.91 4655.01 5462.11
v 7577.79 4652 5461.47
v 7460.58 4722.11 5492.22
v 7359.88 4829.1 5481.5
v 7403.54 5011.33 5493.76
v 7325.21 5007.46 5491.68
v 7586.64 4706.06 5473.53
v 7359.99 4854.39 5523.23
v 7549.04 4847.63 5487.38
v 7339.45 4924.78 5492.67
v 7348.9 5023.25 5499.16
v 7516.98 4717.49 5494.57
v 7405.61 4795.72 5521.02
v 7562.36 4789.04 5495.26
v 7450.52 4938.22 5522.74
v 7451.78 4799.59 5531.36
v 7514.39 4795.01 5516.25
v 7502.08 4853.71 5518.67
v 7354.01 4959.29 5525.58
v 7382.33 4984.31 5520.92
v 7391.5 4880.3 5539.96
v 7444.47 4874.59 5533.47
v 7403.42 4927.5 5527.15
v 7463.9 4818.74 5837.98
v 7394.01 4829.32 5839.14
v 7404.14 4904.81 5829.22
v 7354.9 4910.51 5842.42
v 7472.89 4879.8 5843.59
v 7430.69 4962.12 5855.81
v 7362.31 4976 5852.13
v 7455.08 4767.74 5863.6
v 7534.54 4724.78 5883.99
v 7347.37 4860.32 5882.69
v 7547.51 4800.45 5877.24
v 7504.26 4885.22 5871.56
v 7324.04 4967.61 5878.99
v 7329.5 5031.98 5879.28
v 7366 5035.08 5885.46
v 7501.82 4675.81 5909.02
v 7416.45 4765.52 5888.92
v 7524.49 4906.76 5924.7
v 7314.82 5024.1 5904.66
v 7439.86 4988.38 5908.93
v 7328.15 5054.17 5912.96
v 7336.44 5050.24 5899.71
v 7609.96 4695.66 5916.21
v 7602.23 4624.5 5933.34
v 7611.42 4764.56 5921.73
v 7382.98 4784.85 5921.87
v 7565.66 4829.93 5911.71
v 7312.62 4995.17 5929.29
v 7406.6 5020.18 5940.52
v 7352.25 5045.73 5917.11
v 7563.03 4586.98 5972.69
v 7643.77 4628.06 5949.86
v 7479.53 4656.75 5961.12
v 7651.91 4687.02 5991.02
v 7323.11 4940.38 5921.27
v 7643.68 4589.1 5965.43
v 7628.54 4561.44 5995.27
v 7366.04 4856.87 5971.97
v 7602.13 4801.11 5970.93
v 7486.22 4949.5 5967.32
v 7652.66 4579.4 6022.35
v 7428.13 4741.99 5991.83
v 7336.4 5020.78 5954.42
v 7379.22 5018.37 5958.23
v 7553.07 4557.29 6033.44
v 7516.09 4593.3 6027.21
v 7491.69 4655.52 6058.32
v 7666.58 4623.69 6065.81
v 7557.23 4871.05 6006.37
v 7343.91 4951.98 5971.08
v 7475.82 4931.93 6030.26
v 7608.38 4533.19 6055.72
v 7635.14 4544.78 6045.49
v 7622.85 4767.63 6055.69
v 7391.84 4901.4 6042.39
v 7373.6 4962.84 6009.02
v 7402.07 4960.69 6018.86
v 7546.8 4573.46 6084.67
v 7651.6 4663.67 6105.31
v 7453.93 4767.54 6076.65
v 7571 4823.3 6088.58
v 7586.15 4538.79 6090.4
v 7639.25 4541.99 6090.11
v 7651.8 4588.16 6103.8
v 7540.67 4637.77 6133.51
v 7418.51 4916.42 6060.83
v 7622.47 4545.49 6127.01
v 7612.5 4743.32 6121.51
v 7454.09 4902.23 6076.15
v 7584.12 4573.1 6123.58
v 7637.49 4566.48 6136.37
v 7468.42 4840.02 6103.28
v 7513.58 4843.94 6104.9
v 7523.56 4728.53 6147.99
v 7572.25 4765.38 6145.52
v 7635.64 4600.81 6149.22
v 7610.2 4676.39 6150.4
v 7629.52 4572.18 6147.73
v 7599.18 4616.76 6151.33
v 7530.99 4777.57 6140.1
v 7556.2 4672.67 6157.48
v 7563.45 4705.71 6147.41
vn 0.371227 -0.220279 -0.902035
vn -0.406146 -0.280203 -0.869789
vn 0.236539 0.200239 -0.950765
vn 0.760806 0.285386 -0.582863
vn -0.285883 0.137387 -0.948365
vn 0.432197 0.513179 -0.741521
vn 0.519881 -0.535724 -0.665374
vn -0.421284 -0.668675 -0.612694
vn -0.734688 -0.375867 -0.564764
vn 0.931925 -0.0181703 -0.362197
vn -0.670289 -0.163048 -0.723967
vn 0.103832 0.527986 -0.842882
vn -0.465832 0.163879 -0.869565
vn 0.169924 -0.911274 -0.375106
vn -0.691493 -0.603148 -0.397555
vn -0.810232 -0.34917 -0.470749
vn 0.749606 0.541142 -0.381124
vn -0.764782 -0.134313 -0.630134
vn 0.514393 0.683035 -0.51852
vn -0.30217 0.390383 -0.869652
vn 0.883627 -0.457897 -0.0976406
vn 0.959695 0.222739 -0.171385
vn -0.627319 0.0933018 -0.773153
vn -0.367119 -0.925735 -0.0907651
vn 0.307353 -0.935954 0.171829
vn 0.992088 -0.0920597 0.0853603
vn 0.0757508 0.667253 -0.740969
vn -0.693135 -0.714247 -0.0970366
vn 0.61594 -0.629151 0.474118
vn -0.811078 -0.497426 -0.307766
vn 0.883038 0.467975 -0.0352576
vn 0.697039 0.685128 -0.211509
vn -0.486101 0.315459 -0.81498
vn 0.511164 0.744019 -0.430287
vn -0.403274 -0.83575 0.372683
vn -0.841255 -0.014595 -0.540441
vn -0.00987492 -0.892873 0.4502
vn -0.875426 -0.43478 -0.211177
vn -0.86271 -0.268148 -0.428753
vn -0.517618 0.412733 -0.749482
vn -0.740086 -0.66453 0.103309
vn -0.788111 -0.614867 0.0286365
vn 0.954254 0.180563 0.238321
vn 0.791151 0.607547 0.0704731
vn 0.592914 0.803592 -0.0518997
vn 0.295558 0.863961 -0.407698
vn -0.232143 0.720657 -0.653272
vn 0.794543 -0.181428 0.579469
vn -0.956552 -0.256029 -0.139491
vn 0.728836 0.62111 0.288134
vn -0.829157 0.40791 -0.382242
vn -0.0279525 -0.726629 0.686461
vn 0.442267 -0.586059 0.678922
vn -0.514262 -0.707431 0.484846
vn -0.722607 -0.598391 0.346074
vn 0.839328 0.418565 0.346887
vn -0.995522 -0.0818386 -0.0473219
vn -0.10653 0.928694 -0.355216
vn 0.77405 0.14519 0.616251
vn -0.431748 0.875357 0.217588
vn 0.313065 0.93716 0.154019
vn 0.362194 -0.440438 0.821481
vn -0.183084 -0.614977 0.766996
vn 0.110615 -0.450321 0.885988
vn -0.298873 -0.576795 0.760251
vn -0.921786 -0.369473 0.117476
vn 0.442367 0.719188 0.535798
vn -0.884706 0.167485 0.435023
vn 0.440223 -0.167095 0.882204
vn -0.734758 -0.288313 0.614008
vn 0.69544 0.365953 0.618419
vn -0.936026 -0.167284 0.309632
vn -0.107291 0.624604 0.773536
vn 0.0854074 -0.366554 0.926469
vn -0.382114 -0.438324 0.813549
vn 0.549475 0.0760463 0.832042
vn 0.404933 0.36837 0.836859
vn 0.0172634 -0.252086 0.967551
vn 0.292331 -0.0976365 0.95132
vn 0.423504 0.151986 0.893054
vn -0.433294 0.128015 0.892115
vn 0.0946416 0.370792 0.923881
vn -0.122875 -0.0277826 0.992033
vn 0.18417 0.0854073 0.979177
vn 0.0723448 0.178744 0.981232
vn 0.154936 -0.188441 -0.969786
vn -0.412244 -0.397052 -0.820003
vn 0.00794141 0.111107 -0.993777
vn -0.59227 -0.0623642 -0.803322
vn 0.432476 0.208001 -0.877326
vn 0.459169 0.514868 -0.723931
vn -0.196982 0.320184 -0.92665
vn -0.189365 -0.518808 -0.833654
vn 0.173187 -0.322347 -0.930644
vn -0.88561 -0.387924 -0.255362
vn 0.554934 0.107244 -0.824953
vn 0.668285 0.405725 -0.623525
vn -0.888598 -0.0373315 -0.457166
vn -0.497991 0.522279 -0.692264
vn 0.342452 0.779384 -0.524678
vn -0.296227 -0.607801 -0.736769
vn -0.603895 -0.612436 -0.510131
vn 0.75594 0.596737 -0.269182
vn -0.949367 0.310665 -0.0467983
vn 0.643635 0.725014 -0.245129
vn -0.390471 0.907728 0.153497
vn 0.0284271 0.932145 -0.360968
vn 0.605567 -0.0627848 -0.793314
vn 0.149621 -0.496584 -0.854996
vn 0.82193 0.282297 -0.494711
vn -0.850084 -0.526289 -0.0194245
vn 0.763819 0.439144 -0.473004
vn -0.969628 0.00838811 0.244441
vn 0.496211 0.854642 0.152843
vn 0.291328 0.948662 0.123162
vn -0.272948 -0.778082 -0.565763
vn 0.801707 -0.130076 -0.583392
vn -0.730122 -0.647152 -0.219353
vn 0.963917 0.18681 -0.189649
vn -0.960144 -0.240606 0.142241
vn 0.607495 -0.532977 -0.588969
vn 0.290895 -0.811358 -0.507029
vn -0.887801 -0.314493 0.33601
vn 0.864648 0.483637 -0.135936
vn 0.67358 0.732573 0.0981179
vn 0.920371 -0.355165 -0.163631
vn -0.84974 -0.458179 0.260795
vn -0.584981 0.479649 0.654013
vn 0.11953 0.811837 0.571518
vn -0.548836 -0.819068 -0.167053
vn -0.802945 -0.593324 0.0569802
vn -0.855887 -0.427536 0.290983
vn 0.997977 -0.0285739 0.0567935
vn 0.751536 0.646871 0.129429
vn -0.845818 -0.055376 0.53059
vn 0.423197 0.752698 0.504331
vn 0.0143433 -0.987792 -0.155115
vn 0.584045 -0.780691 -0.22229
vn 0.874752 0.463001 0.142969
vn -0.749424 -0.0284902 0.661477
vn -0.578394 0.336141 0.743283
vn -0.0572994 0.688639 0.722837
vn -0.720742 -0.590099 0.363752
vn 0.90963 0.211856 0.357338
vn -0.797827 -0.256344 0.545674
vn 0.616376 0.636767 0.463258
vn -0.447557 -0.841022 0.303933
vn 0.700917 -0.703677 0.116424
vn 0.952329 -0.185282 0.242362
vn -0.63812 -0.363926 0.678499
vn -0.376441 0.400564 0.835369
vn -0.00865105 -0.798918 0.601378
vn 0.740921 0.410203 0.531761
vn 0.0326342 0.59361 0.804091
vn -0.482712 -0.524528 0.701327
vn 0.74115 -0.436782 0.509822
vn -0.405907 0.194425 0.892994
vn 0.180587 0.574639 0.798235
vn -0.413962 0.00627865 0.910272
vn 0.289985 0.380612 0.878091
vn 0.645182 -0.0186503 0.763801
vn 0.401084 0.157696 0.902366
vn 0.215179 -0.381282 0.899067
vn -0.126833 -0.196478 0.972271
vn -0.0873372 0.271859 0.958366
vn -0.155742 -0.0638709 0.985731
vn 0.0640792 0.113411 0.99148

g grp1
usemtl mtl1
f 1//1 2//2 3//3 
f 1//1 3//3 4//4 
f 2//2 5//5 3//3 
f 4//4 3//3 6//6 
f 6//6 3//3 5//5 
f 7//7 8//8 1//1 
f 1//1 8//8 2//2 
f 8//8 9//9 2//2 
f 10//10 7//7 1//1 
f 4//4 10//10 1//1 
f 2//2 9//9 5//5 
f 11//11 5//5 9//9 
f 6//6 5//5 12//12 
f 5//5 11//11 13//13 
f 5//5 13//13 12//12 
f 14//14 8//8 7//7 
f 9//9 8//8 15//15 
f 11//11 9//9 16//16 
f 4//4 6//6 17//17 
f 13//13 11//11 18//18 
f 6//6 12//12 19//19 
f 20//20 12//12 13//13 
f 21//21 7//7 10//10 
f 10//10 4//4 22//22 
f 4//4 17//17 22//22 
f 11//11 16//16 18//18 
f 23//23 13//13 18//18 
f 6//6 19//19 17//17 
f 20//20 13//13 23//23 
f 8//8 24//24 15//15 
f 14//14 24//24 8//8 
f 14//14 21//21 25//25 
f 7//7 21//21 14//14 
f 21//21 10//10 26//26 
f 20//20 27//27 12//12 
f 12//12 27//27 19//19 
f 24//24 14//14 25//25 
f 24//24 28//28 15//15 
f 29//29 25//25 21//21 
f 26//26 29//29 21//21 
f 15//15 30//30 9//9 
f 26//26 10//10 22//22 
f 16//16 9//9 30//30 
f 22//22 17//17 31//31 
f 17//17 19//19 32//32 
f 23//23 33//33 20//20 
f 19//19 27//27 34//34 
f 35//35 28//28 24//24 
f 15//15 28//28 30//30 
f 23//23 18//18 36//36 
f 33//33 23//23 36//36 
f 19//19 34//34 32//32 
f 33//33 27//27 20//20 
f 25//25 37//37 24//24 
f 16//16 30//30 38//38 
f 16//16 38//38 39//39 
f 18//18 16//16 39//39 
f 31//31 17//17 32//32 
f 36//36 18//18 39//39 
f 36//36 40//40 33//33 
f 33//33 40//40 27//27 
f 37//37 35//35 24//24 
f 25//25 29//29 37//37 
f 30//30 28//28 41//41 
f 41//41 28//28 35//35 
f 30//30 41//41 42//42 
f 26//26 22//22 43//43 
f 22//22 31//31 43//43 
f 44//44 31//31 32//32 
f 45//45 32//32 34//34 
f 27//27 46//46 34//34 
f 40//40 47//47 27//27 
f 47//47 46//46 27//27 
f 48//48 29//29 26//26 
f 48//48 26//26 43//43 
f 30//30 42//42 38//38 
f 36//36 39//39 49//49 
f 50//50 32//32 45//45 
f 51//51 40//40 36//36 
f 40//40 51//51 47//47 
f 45//45 34//34 46//46 
f 35//35 37//37 52//52 
f 37//37 29//29 52//52 
f 29//29 53//53 52//52 
f 41//41 35//35 54//54 
f 48//48 53//53 29//29 
f 42//42 41//41 54//54 
f 38//38 42//42 55//55 
f 31//31 56//56 43//43 
f 44//44 56//56 31//31 
f 39//39 38//38 49//49 
f 57//57 36//36 49//49 
f 36//36 57//57 51//51 
f 58//58 47//47 51//51 
f 58//58 46//46 47//47 
f 52//52 54//54 35//35 
f 55//55 42//42 54//54 
f 59//59 48//48 43//43 
f 56//56 59//59 43//43 
f 44//44 32//32 50//50 
f 58//58 51//51 60//60 
f 46//46 58//58 61//61 
f 52//52 53//53 62//62 
f 54//54 52//52 63//63 
f 63//63 52//52 64//64 
f 62//62 64//64 52//52 
f 53//53 48//48 62//62 
f 54//54 65//65 55//55 
f 38//38 55//55 66//66 
f 49//49 38//38 66//66 
f 56//56 44//44 50//50 
f 45//45 67//67 50//50 
f 57//57 68//68 51//51 
f 51//51 68//68 60//60 
f 61//61 45//45 46//46 
f 58//58 60//60 61//61 
f 69//69 64//64 62//62 
f 65//65 54//54 63//63 
f 62//62 48//48 69//69 
f 69//69 48//48 59//59 
f 55//55 70//70 66//66 
f 59//59 56//56 71//71 
f 66//66 72//72 49//49 
f 56//56 50//50 71//71 
f 49//49 72//72 57//57 
f 67//67 45//45 61//61 
f 61//61 60//60 73//73 
f 63//63 64//64 74//74 
f 69//69 74//74 64//64 
f 55//55 65//65 75//75 
f 76//76 69//69 59//59 
f 55//55 75//75 70//70 
f 66//66 70//70 72//72 
f 76//76 59//59 71//71 
f 77//77 71//71 50//50 
f 72//72 68//68 57//57 
f 77//77 50//50 67//67 
f 73//73 60//60 68//68 
f 65//65 63//63 74//74 
f 78//78 65//65 74//74 
f 65//65 78//78 75//75 
f 69//69 79//79 74//74 
f 69//69 76//76 79//79 
f 76//76 80//80 79//79 
f 80//80 76//76 71//71 
f 71//71 77//77 80//80 
f 68//68 72//72 81//81 
f 73//73 68//68 81//81 
f 73//73 67//67 61//61 
f 74//74 79//79 78//78 
f 81//81 72//72 70//70 
f 77//77 67//67 82//82 
f 67//67 73//73 82//82 
f 75//75 78//78 83//83 
f 75//75 83//83 70//70 
f 79//79 84//84 78//78 
f 84//84 83//83 78//78 
f 79//79 80//80 84//84 
f 81//81 70//70 83//83 
f 80//80 77//77 84//84 
f 85//85 81//81 83//83 
f 85//85 84//84 77//77 
f 77//77 82//82 85//85 
f 85//85 82//82 81//81 
f 81//81 82//82 73//73 
f 84//84 85//85 83//83 
f 86//86 87//87 88//88 
f 87//87 89//89 88//88 
f 86//86 88//88 90//90 
f 90//90 88//88 91//91 
f 88//88 89//89 92//92 
f 88//88 92//92 91//91 
f 86//86 93//93 87//87 
f 94//94 93//93 86//86 
f 87//87 95//95 89//89 
f 90//90 96//96 86//86 
f 97//97 96//96 90//90 
f 95//95 98//98 89//89 
f 90//90 91//91 97//97 
f 89//89 98//98 92//92 
f 99//99 92//92 98//98 
f 92//92 100//100 91//91 
f 92//92 99//99 100//100 
f 93//93 94//94 101//101 
f 102//102 87//87 93//93 
f 87//87 102//102 95//95 
f 94//94 86//86 96//96 
f 97//97 91//91 103//103 
f 98//98 104//104 99//99 
f 91//91 100//100 105//105 
f 103//103 91//91 105//105 
f 106//106 99//99 104//104 
f 100//100 99//99 107//107 
f 94//94 108//108 109//109 
f 93//93 101//101 102//102 
f 94//94 96//96 108//108 
f 96//96 110//110 108//108 
f 95//95 102//102 111//111 
f 96//96 97//97 112//112 
f 112//112 97//97 103//103 
f 98//98 113//113 104//104 
f 107//107 99//99 106//106 
f 105//105 100//100 114//114 
f 100//100 107//107 115//115 
f 114//114 100//100 115//115 
f 109//109 116//116 101//101 
f 109//109 101//101 94//94 
f 117//117 109//109 108//108 
f 101//101 118//118 102//102 
f 108//108 119//119 117//117 
f 102//102 118//118 111//111 
f 110//110 96//96 112//112 
f 98//98 95//95 120//120 
f 98//98 120//120 113//113 
f 107//107 106//106 115//115 
f 109//109 121//121 122//122 
f 121//121 109//109 117//117 
f 119//119 108//108 110//110 
f 95//95 111//111 123//123 
f 110//110 112//112 124//124 
f 95//95 123//123 120//120 
f 112//112 103//103 124//124 
f 103//103 105//105 125//125 
f 109//109 122//122 116//116 
f 116//116 118//118 101//101 
f 126//126 117//117 119//119 
f 121//121 117//117 126//126 
f 127//127 111//111 118//118 
f 110//110 124//124 119//119 
f 123//123 111//111 127//127 
f 113//113 128//128 104//104 
f 105//105 114//114 125//125 
f 128//128 106//106 104//104 
f 106//106 128//128 129//129 
f 106//106 129//129 115//115 
f 129//129 114//114 115//115 
f 122//122 121//121 126//126 
f 130//130 131//131 118//118 
f 116//116 130//130 118//118 
f 132//132 118//118 131//131 
f 126//126 119//119 133//133 
f 103//103 125//125 134//134 
f 135//135 120//120 123//123 
f 120//120 135//135 113//113 
f 135//135 128//128 113//113 
f 125//125 114//114 136//136 
f 130//130 116//116 137//137 
f 122//122 137//137 116//116 
f 122//122 138//138 137//137 
f 132//132 127//127 118//118 
f 119//119 124//124 139//139 
f 103//103 134//134 124//124 
f 129//129 136//136 114//114 
f 126//126 138//138 122//122 
f 124//124 134//134 139//139 
f 135//135 123//123 140//140 
f 141//141 128//128 135//135 
f 142//142 128//128 141//141 
f 136//136 129//129 142//142 
f 128//128 142//142 129//129 
f 130//130 143//143 131//131 
f 131//131 143//143 132//132 
f 133//133 119//119 144//144 
f 144//144 119//119 139//139 
f 127//127 145//145 123//123 
f 123//123 145//145 140//140 
f 146//146 139//139 134//134 
f 125//125 136//136 134//134 
f 140//140 141//141 135//135 
f 130//130 137//137 147//147 
f 147//147 143//143 130//130 
f 126//126 148//148 138//138 
f 126//126 133//133 149//149 
f 132//132 150//150 145//145 
f 132//132 145//145 127//127 
f 136//136 146//146 134//134 
f 140//140 151//151 141//141 
f 142//142 141//141 151//151 
f 152//152 147//147 137//137 
f 138//138 148//148 137//137 
f 149//149 148//148 126//126 
f 132//132 143//143 150//150 
f 149//149 133//133 144//144 
f 139//139 153//153 144//144 
f 139//139 146//146 153//153 
f 154//154 142//142 151//151 
f 142//142 154//154 136//136 
f 137//137 148//148 152//152 
f 155//155 147//147 152//152 
f 155//155 143//143 147//147 
f 148//148 149//149 156//156 
f 140//140 145//145 157//157 
f 140//140 157//157 151//151 
f 154//154 151//151 157//157 
f 136//136 158//158 146//146 
f 154//154 158//158 136//136 
f 148//148 156//156 152//152 
f 145//145 150//150 159//159 
f 157//157 145//145 159//159 
f 146//146 158//158 160//160 
f 155//155 150//150 143//143 
f 161//161 156//156 149//149 
f 149//149 144//144 161//161 
f 153//153 162//162 144//144 
f 160//160 153//153 146//146 
f 158//158 154//154 157//157 
f 152//152 156//156 163//163 
f 155//155 152//152 164//164 
f 163//163 164//164 152//152 
f 155//155 164//164 150//150 
f 163//163 156//156 161//161 
f 162//162 161//161 144//144 
f 153//153 160//160 162//162 
f 165//165 157//157 159//159 
f 165//165 160//160 158//158 
f 158//158 157//157 165//165 
f 164//164 166//166 150//150 
f 161//161 164//164 163//163 
f 162//162 164//164 161//161 
f 150//150 166//166 159//159 
f 167//167 159//159 166//166 
f 167//167 165//165 159//159 
f 162//162 160//160 167//167 
f 160//160 165//165 167//167 
f 164//164 167//167 166//166 
f 164//164 162//162 167//167 
