# wavefront obj file written by the visualization toolkit


v 11434.6 4144.84 4280.89
v 11446.8 4183.58 4285.63
v 11491.5 4164.42 4295.82
v 11501.6 4231.71 4302
v 11529.7 4182.98 4348
v 11375.4 4050.65 4343.67
v 11373 4094.88 4305.79
v 11433.4 4109.62 4313.09
v 11339.9 4114.74 4305.59
v 11446.5 4251.12 4346.46
v 11495.1 4257.51 4335.09
v 11269.4 4050.08 4345.45
v 11267.2 4089.86 4329.44
v 11281.7 4124.21 4341.04
v 11466.3 4072.57 4378.05
v 11512 4117.58 4383.37
v 11355.9 4188.11 4350.57
v 11514.9 4241.02 4367.55
v 11321.5 3986.27 4420.02
v 11214.5 4093.88 4386.84
v 11333.7 4242.74 4416.03
v 11469.7 4272.45 4394.87
v 11210.8 3989.33 4430.31
v 11195.3 4039.56 4399.02
v 11410.6 4015.04 4416.32
v 11161.9 4062.24 4428.47
v 11243 4184.22 4434.85
v 11534.2 4180.96 4448.63
v 11527.5 4119.81 4466.14
v 11495.2 4256.76 4439.05
v 11514.3 4211.47 4484.52
v 11381.3 4276.19 4442.14
v 11164.6 4022.27 4437.65
v 11456.9 4012.66 4471.4
v 11495.5 4064.56 4467.74
v 11265 3959.15 4478.25
v 11156.8 3991.26 4498.24
v 11120.7 4062.49 4534.32
v 11159.6 4130.43 4491.78
v 11263.5 4254.15 4499.33
v 11435.2 4258.54 4514.15
v 11215.6 3968.66 4529
v 11323 3961.59 4478.07
v 11374.3 3981.59 4479.35
v 11518.6 4129.86 4563.5
v 11325 4273.65 4542.61
v 11122.5 4013.36 4590.41
v 11477.5 4027.22 4533.56
v 11168.5 4200.54 4543.43
v 11511.4 4177.66 4548.08
v 11483.4 4210.49 4550.99
v 11312.4 3970.95 4538.09
v 11408 4005.01 4560.13
v 11498.2 4075.55 4547.31
v 11231.6 4263.45 4569.23
v 11163.7 3989.52 4582.11
v 11098.4 4054.31 4610.82
v 11117.8 4146.27 4593.25
v 11189.6 4238.09 4576.08
v 11380.6 4242.03 4609.06
v 11306.5 4002.8 4630.7
v 11454.5 4053.88 4610.5
v 11101.3 4091.07 4639.04
v 11235 4252.21 4622.18
v 11307.3 4238.22 4636.02
v 11206.4 3998.14 4624.32
v 11140.3 4014.91 4637
v 11148.9 4203.76 4619.8
v 11191.8 4234.51 4614.56
v 11113.9 4049.64 4653.19
v 11476.7 4104.04 4630.21
v 11435.6 4204.01 4625.5
v 11353.3 4041.62 4662.4
v 11476.7 4156.51 4616.74
v 11150.9 4045.59 4687.54
v 11246.2 4043.36 4686.31
v 11410 4087.92 4680.16
v 11121.7 4147.78 4668.06
v 11172.8 4193.9 4672.43
v 11342.6 4188.54 4687.32
v 11247.4 4206.59 4673.48
v 11127.1 4095.5 4690.48
v 11443.2 4124.28 4672.57
v 11420.6 4157.6 4667.32
v 11313.5 4085.01 4714.74
v 11370.7 4134.71 4701.77
v 11151.4 4138.08 4708.56
v 11301 4154.51 4725.07
v 11240 4156.7 4712.72
v 11218.3 4099.01 4707.31
v 11289.7 4128.13 4711.88
v 11223 4068.4 6650.25
v 11136 4066.14 6678.17
v 11177.6 4113.6 6644.03
v 11265.8 4129.57 6642.93
v 11337.7 4103.82 6657.15
v 11139.3 4132.84 6667.22
v 11204.1 4150.51 6652.62
v 11359 4146.02 6665.47
v 11273.1 4164.09 6659.61
v 11168.4 4032.59 6692.5
v 11255.5 4011.98 6723.04
v 11353 4062.69 6692.67
v 11104.3 4099.35 6702.69
v 11417 4110.33 6699.6
v 11206.7 4202.12 6711.07
v 11350.9 4209.58 6727.41
v 11118.3 4149.71 6722.92
v 11430.9 4159.91 6723.86
v 11317.1 4264.45 6799.89
v 11301.6 3974.49 6786
v 11392.3 4017.31 6767.57
v 11159.7 4005.86 6757.73
v 11111.2 4052.01 6756.04
v 11446.5 4066.62 6750.85
v 11478.2 4118.41 6760.1
v 11101.7 4095.17 6777.58
v 11143.6 4204.04 6764.96
v 11231.1 3975.78 6793.28
v 11484.1 4193.42 6816.87
v 11426.4 4224.85 6795.57
v 11183.4 4233.54 6763.61
v 11400.5 4259.36 6830.49
v 11235.9 4257.79 6800.03
v 11466 4042.35 6797.4
v 11112.5 4046.49 6848.06
v 11120.1 4148.9 6796.16
v 11500.9 4084.37 6831.87
v 11517.5 4163.98 6876.85
v 11161.4 4181.49 6859.24
v 11203 4238.5 6820.93
v 11193 3967.85 6851.58
v 11294.5 3959.91 6853.34
v 11377.2 3984.35 6831.66
v 11451.9 4024.9 6854.45
v 11142.6 4011.19 6849.67
v 11134.3 4100.84 6881.84
v 11463.6 4254.09 6887.66
v 11273.6 4271.36 6868.46
v 11347.7 4283.07 6889.67
v 11532.7 4131.95 6932.67
v 11511.9 4226.79 6944.87
v 11245.1 4232.07 6892.06
v 11415.2 4276.47 6902.73
v 11229.7 3963.78 6920.5
v 11369.1 3982.95 6901.09
v 11283.5 3970.5 6919.94
v 11501.9 4073.65 6935.29
v 11174.2 4125.96 6949.55
v 11530.1 4193.46 6993.77
v 11176.2 3991.92 6929.28
v 11446.6 4022.02 6923.08
v 11151.3 4039.97 6925.29
v 11256.1 4172.1 6976.62
v 11469.4 4052.82 6981.91
v 11369.4 4246.27 6986.33
v 11428.6 4273.81 6979.55
v 11205.9 3990.84 6981.64
v 11288.1 4002.82 6979.77
v 11400.8 4033.01 6982.03
v 11188.5 4078.31 6990.3
v 11523.1 4149.44 7020.81
v 11196 4023.12 6986.35
v 11229.5 4015.46 7001.22
v 11447.3 4085.53 7047.37
v 11491.5 4111.79 7034.97
v 11517 4241.09 7033.79
v 11472.4 4256.54 6975.44
v 11474.4 4240.91 7045.77
v 11364.8 4070.79 7043.64
v 11216.3 4118.9 6993.94
v 11275.3 4120.9 7029.93
v 11351.1 4181.69 7038.6
v 11510.9 4200.05 7053.29
v 11272.3 4062.68 7014.92
v 11413.3 4200.3 7057.68
v 11374.6 4136.79 7060.11
v 11437.5 4124.94 7078.4
v 11479.7 4137.7 7079.34
v 11499.8 4159.63 7063.91
v 11457.9 4169.31 7061.32
vn 0.093946 -0.288517 -0.952855
vn -0.177033 0.368651 -0.912555
vn 0.56576 -0.350373 -0.746427
vn 0.483059 0.477914 -0.733657
vn 0.960112 -0.0630051 -0.272424
vn 0.209567 -0.730336 -0.650147
vn 0.017004 -0.521338 -0.853181
vn 0.341219 -0.648894 -0.680078
vn -0.325475 0.107965 -0.939367
vn -0.29546 0.77641 -0.556678
vn 0.290718 0.890708 -0.34946
vn -0.301744 -0.499787 -0.811889
vn -0.547144 0.0643272 -0.834563
vn -0.509255 0.51593 -0.688822
vn 0.554018 -0.685694 -0.47211
vn 0.800122 -0.515864 -0.306087
vn -0.450661 0.579259 -0.679237
vn 0.829478 0.556298 -0.0499909
vn 0.107786 -0.866738 -0.486978
vn -0.691164 0.251465 -0.677538
vn -0.440267 0.71265 -0.546164
vn 0.21888 0.974136 -0.0561358
vn -0.345187 -0.802432 -0.486775
vn -0.602528 -0.263849 -0.753223
vn 0.344808 -0.835123 -0.428575
vn -0.820681 0.0949164 -0.563448
vn -0.58973 0.574492 -0.567607
vn 0.978773 0.180082 0.0978478
vn 0.94616 -0.323345 -0.0151509
vn 0.600972 0.772066 0.206754
vn 0.829942 0.507094 0.232489
vn -0.135936 0.973836 -0.182112
vn -0.763626 -0.406949 -0.501266
vn 0.53617 -0.82826 -0.162811
vn 0.822086 -0.553663 -0.132788
vn -0.0719129 -0.98663 -0.146252
vn -0.638302 -0.742338 -0.203729
vn -0.950137 -0.0423566 -0.308943
vn -0.789204 0.401021 -0.465123
vn -0.437817 0.820261 -0.368087
vn 0.317037 0.908128 0.273479
vn -0.19018 -0.979403 0.0678368
vn 0.204158 -0.97308 -0.106937
vn 0.334937 -0.937833 -0.0910328
vn 0.94218 -0.0421701 0.332443
vn 0.0153358 0.988409 0.151037
vn -0.756976 -0.652759 0.0298686
vn 0.70093 -0.691828 0.173411
vn -0.720394 0.574497 -0.38857
vn 0.840562 0.397159 0.368403
vn 0.641309 0.647319 0.411947
vn 0.138882 -0.962016 0.235027
vn 0.345649 -0.890199 0.29677
vn 0.865469 -0.447601 0.224981
vn -0.340297 0.940317 -0.00109048
vn -0.331438 -0.926986 0.175627
vn -0.970744 -0.240114 0.00138078
vn -0.912601 0.35945 -0.19482
vn -0.606412 0.779735 -0.155818
vn 0.248927 0.848144 0.46764
vn 0.155094 -0.857566 0.490434
vn 0.574757 -0.651361 0.495361
vn -0.98541 0.0842362 0.147888
vn -0.150718 0.883058 0.444402
vn 0.0884667 0.833116 0.545977
vn -0.0559253 -0.90024 0.431788
vn -0.417278 -0.818212 0.395485
vn -0.731552 0.676422 0.0853557
vn -0.485274 0.838164 0.248978
vn -0.78674 -0.440784 0.432145
vn 0.783108 -0.266366 0.561953
vn 0.505678 0.648337 0.569165
vn 0.278288 -0.7341 0.619397
vn 0.73388 0.359949 0.57607
vn -0.276817 -0.574754 0.770084
vn 0.0239379 -0.652542 0.757374
vn 0.448255 -0.430095 0.783636
vn -0.830717 0.406022 0.380861
vn -0.380798 0.702112 0.60169
vn 0.208172 0.634998 0.743937
vn -0.0409066 0.692318 0.720432
vn -0.650201 -0.115644 0.75091
vn 0.599538 0.103121 0.793675
vn 0.47986 0.449293 0.753572
vn 0.121155 -0.313148 0.941945
vn 0.322364 0.0882208 0.942496
vn -0.391243 0.222051 0.893097
vn 0.0768422 0.118045 0.990031
vn -0.103557 0.331364 0.937803
vn -0.0943037 -0.191716 0.976909
vn -0.0105409 -0.146655 0.989132
vn 0.00648878 -0.50873 -0.860902
vn -0.583378 -0.467297 -0.664307
vn -0.258288 0.0100637 -0.966016
vn 0.0762788 0.146313 -0.986293
vn 0.312092 -0.256614 -0.914739
vn -0.588803 0.377287 -0.714818
vn -0.164297 0.529557 -0.832211
vn 0.359411 0.352792 -0.863922
vn 0.0608005 0.635255 -0.769906
vn -0.229704 -0.785255 -0.574987
vn 0.0555742 -0.828955 -0.556548
vn 0.332278 -0.633723 -0.698561
vn -0.934664 -0.0245348 -0.354685
vn 0.588693 -0.170723 -0.790123
vn -0.229995 0.782867 -0.578119
vn 0.231895 0.763422 -0.602836
vn -0.828109 0.500339 -0.252777
vn 0.582623 0.467716 -0.664675
vn 0.0662222 0.91849 -0.38986
vn 0.143657 -0.913219 -0.381305
vn 0.376855 -0.798074 -0.470169
vn -0.450839 -0.838439 -0.306209
vn -0.847246 -0.510609 -0.14647
vn 0.630795 -0.492819 -0.599356
vn 0.839916 0.00294303 -0.542708
vn -0.991345 0.0994753 0.0856702
vn -0.728214 0.67986 -0.0865743
vn -0.112708 -0.93648 -0.332116
vn 0.744887 0.503698 -0.437529
vn 0.461315 0.722626 -0.514782
vn -0.434531 0.865198 -0.25023
vn 0.304379 0.860429 -0.408675
vn -0.221807 0.954149 -0.201002
vn 0.655922 -0.678165 -0.331449
vn -0.939413 -0.259135 0.224395
vn -0.906335 0.376512 0.191822
vn 0.891197 -0.377911 -0.250899
vn 0.947756 0.16952 -0.270224
vn -0.715159 0.578915 0.39167
vn -0.568494 0.790078 0.229331
vn -0.372392 -0.926808 -0.0484921
vn 0.0910996 -0.995311 -0.0325248
vn 0.376706 -0.912345 -0.160373
vn 0.590309 -0.803796 -0.0738018
vn -0.742552 -0.664588 0.0833068
vn -0.898961 0.210209 0.384293
vn 0.518177 0.809091 -0.277245
vn -0.405117 0.871877 0.275157
vn -0.101734 0.993517 0.0507406
vn 0.982711 -0.181193 -0.0380451
vn 0.7937 0.57688 -0.193005
vn -0.549646 0.679991 0.485284
vn 0.246671 0.958586 -0.142362
vn -0.10401 -0.959519 0.261734
vn 0.315501 -0.922047 0.224252
vn 0.160438 -0.933034 0.322035
vn 0.789008 -0.603482 0.115225
vn -0.714468 0.44831 0.537172
vn 0.987791 0.141814 0.0644866
vn -0.696241 -0.650065 0.304408
vn 0.489617 -0.85066 0.191448
vn -0.864007 -0.245437 0.439605
vn -0.512191 0.613961 0.600593
vn 0.516158 -0.769105 0.376907
vn -0.38065 0.741469 0.552567
vn 0.0419181 0.965699 0.25626
vn -0.328115 -0.706968 0.626527
vn 0.128023 -0.768457 0.626964
vn 0.228342 -0.844362 0.484678
vn -0.667298 0.0618268 0.74222
vn 0.902466 -0.266269 0.33861
vn -0.623925 -0.218958 0.750183
vn -0.13296 -0.370387 0.919312
vn 0.282848 -0.706019 0.649257
vn 0.702045 -0.547523 0.455359
vn 0.694775 0.657514 0.291483
vn 0.391707 0.919782 0.0238112
vn 0.0447655 0.683565 0.728516
vn -0.0716891 -0.553705 0.829621
vn -0.53993 0.454042 0.708747
vn -0.417108 0.214099 0.883279
vn -0.415587 0.473931 0.776323
vn 0.616174 0.168063 0.76947
vn -0.226468 -0.243898 0.942988
vn -0.223375 0.398369 0.88961
vn -0.254542 0.055212 0.965484
vn -0.0787744 -0.136305 0.98753
vn 0.370734 -0.188838 0.909338
vn 0.606609 -0.0466692 0.793629
vn 0.00201673 0.287569 0.957758

g grp1
usemtl mtl1
f 1//1 2//2 3//3 
f 4//4 5//5 3//3 
f 3//3 2//2 4//4 
f 6//6 7//7 8//8 
f 1//1 7//7 9//9 
f 8//8 7//7 1//1 
f 8//8 1//1 3//3 
f 1//1 9//9 2//2 
f 10//10 4//4 2//2 
f 4//4 10//10 11//11 
f 9//9 12//12 13//13 
f 7//7 12//12 9//9 
f 13//13 14//14 9//9 
f 8//8 3//3 15//15 
f 15//15 3//3 16//16 
f 17//17 9//9 14//14 
f 9//9 17//17 2//2 
f 16//16 3//3 5//5 
f 2//2 17//17 10//10 
f 4//4 18//18 5//5 
f 18//18 4//4 11//11 
f 12//12 6//6 19//19 
f 13//13 12//12 20//20 
f 6//6 12//12 7//7 
f 15//15 6//6 8//8 
f 20//20 14//14 13//13 
f 10//10 17//17 21//21 
f 11//11 10//10 22//22 
f 23//23 24//24 12//12 
f 19//19 23//23 12//12 
f 12//12 24//24 20//20 
f 22//22 18//18 11//11 
f 25//25 19//19 6//6 
f 6//6 15//15 25//25 
f 20//20 24//24 26//26 
f 14//14 20//20 27//27 
f 28//28 29//29 5//5 
f 29//29 16//16 5//5 
f 17//17 14//14 27//27 
f 28//28 5//5 18//18 
f 18//18 30//30 31//31 
f 10//10 21//21 32//32 
f 10//10 32//32 22//22 
f 30//30 18//18 22//22 
f 23//23 33//33 24//24 
f 15//15 34//34 25//25 
f 33//33 26//26 24//24 
f 35//35 34//34 15//15 
f 15//15 16//16 35//35 
f 28//28 18//18 31//31 
f 27//27 21//21 17//17 
f 19//19 36//36 23//23 
f 23//23 37//37 33//33 
f 33//33 38//38 26//26 
f 26//26 39//39 20//20 
f 35//35 16//16 29//29 
f 27//27 20//20 39//39 
f 21//21 27//27 40//40 
f 22//22 32//32 41//41 
f 23//23 42//42 37//37 
f 23//23 36//36 42//42 
f 36//36 19//19 43//43 
f 19//19 44//44 43//43 
f 25//25 44//44 19//19 
f 33//33 37//37 38//38 
f 21//21 40//40 32//32 
f 41//41 30//30 22//22 
f 25//25 34//34 44//44 
f 29//29 28//28 45//45 
f 32//32 46//46 41//41 
f 47//47 38//38 37//37 
f 34//34 35//35 48//48 
f 27//27 39//39 49//49 
f 50//50 28//28 31//31 
f 27//27 49//49 40//40 
f 51//51 31//31 30//30 
f 46//46 32//32 40//40 
f 43//43 52//52 36//36 
f 44//44 52//52 43//43 
f 44//44 53//53 52//52 
f 34//34 53//53 44//44 
f 53//53 34//34 48//48 
f 54//54 35//35 29//29 
f 29//29 45//45 54//54 
f 39//39 26//26 38//38 
f 31//31 51//51 50//50 
f 30//30 41//41 51//51 
f 55//55 46//46 40//40 
f 36//36 52//52 42//42 
f 56//56 37//37 42//42 
f 47//47 37//37 56//56 
f 38//38 47//47 57//57 
f 54//54 48//48 35//35 
f 38//38 58//58 39//39 
f 45//45 28//28 50//50 
f 49//49 39//39 58//58 
f 49//49 59//59 40//40 
f 40//40 59//59 55//55 
f 41//41 46//46 60//60 
f 53//53 61//61 52//52 
f 48//48 62//62 53//53 
f 57//57 63//63 38//38 
f 58//58 38//38 63//63 
f 46//46 55//55 64//64 
f 46//46 64//64 65//65 
f 46//46 65//65 60//60 
f 42//42 66//66 56//56 
f 52//52 66//66 42//42 
f 67//67 47//47 56//56 
f 62//62 48//48 54//54 
f 68//68 49//49 58//58 
f 68//68 59//59 49//49 
f 55//55 59//59 69//69 
f 55//55 69//69 64//64 
f 66//66 52//52 61//61 
f 70//70 57//57 47//47 
f 54//54 71//71 62//62 
f 54//54 45//45 71//71 
f 60//60 72//72 41//41 
f 72//72 51//51 41//41 
f 59//59 68//68 69//69 
f 47//47 67//67 70//70 
f 53//53 73//73 61//61 
f 73//73 53//53 62//62 
f 50//50 74//74 45//45 
f 51//51 72//72 74//74 
f 74//74 50//50 51//51 
f 66//66 67//67 56//56 
f 66//66 75//75 67//67 
f 61//61 76//76 66//66 
f 62//62 77//77 73//73 
f 62//62 71//71 77//77 
f 57//57 70//70 63//63 
f 71//71 45//45 74//74 
f 63//63 78//78 58//58 
f 58//58 78//78 68//68 
f 69//69 68//68 79//79 
f 65//65 80//80 60//60 
f 80//80 72//72 60//60 
f 64//64 69//69 79//79 
f 64//64 81//81 65//65 
f 70//70 67//67 75//75 
f 73//73 76//76 61//61 
f 70//70 82//82 63//63 
f 71//71 83//83 77//77 
f 71//71 74//74 83//83 
f 84//84 83//83 74//74 
f 72//72 80//80 84//84 
f 74//74 72//72 84//84 
f 68//68 78//78 79//79 
f 81//81 80//80 65//65 
f 64//64 79//79 81//81 
f 75//75 66//66 76//76 
f 75//75 82//82 70//70 
f 77//77 85//85 73//73 
f 82//82 78//78 63//63 
f 76//76 73//73 85//85 
f 85//85 77//77 86//86 
f 86//86 77//77 83//83 
f 82//82 87//87 78//78 
f 84//84 86//86 83//83 
f 86//86 80//80 88//88 
f 86//86 84//84 80//80 
f 87//87 79//79 78//78 
f 79//79 87//87 89//89 
f 89//89 88//88 80//80 
f 81//81 79//79 89//89 
f 80//80 81//81 89//89 
f 75//75 76//76 90//90 
f 75//75 90//90 82//82 
f 85//85 90//90 76//76 
f 86//86 91//91 85//85 
f 90//90 87//87 82//82 
f 90//90 89//89 87//87 
f 86//86 88//88 91//91 
f 88//88 89//89 91//91 
f 85//85 91//91 90//90 
f 91//91 89//89 90//90 
f 92//92 93//93 94//94 
f 95//95 92//92 94//94 
f 96//96 92//92 95//95 
f 94//94 93//93 97//97 
f 94//94 97//97 98//98 
f 94//94 98//98 95//95 
f 96//96 95//95 99//99 
f 95//95 98//98 100//100 
f 99//99 95//95 100//100 
f 101//101 92//92 102//102 
f 102//102 92//92 103//103 
f 92//92 101//101 93//93 
f 96//96 103//103 92//92 
f 104//104 97//97 93//93 
f 96//96 99//99 105//105 
f 98//98 97//97 106//106 
f 100//100 107//107 99//99 
f 100//100 98//98 106//106 
f 105//105 103//103 96//96 
f 108//108 97//97 104//104 
f 109//109 105//105 99//99 
f 106//106 97//97 108//108 
f 106//106 107//107 100//100 
f 107//107 106//106 110//110 
f 111//111 102//102 112//112 
f 93//93 113//113 114//114 
f 113//113 93//93 101//101 
f 112//112 102//102 103//103 
f 104//104 93//93 114//114 
f 103//103 105//105 115//115 
f 105//105 116//116 115//115 
f 104//104 117//117 108//108 
f 109//109 116//116 105//105 
f 99//99 107//107 109//109 
f 106//106 108//108 118//118 
f 102//102 119//119 113//113 
f 113//113 101//101 102//102 
f 112//112 103//103 115//115 
f 114//114 117//117 104//104 
f 116//116 109//109 120//120 
f 121//121 109//109 107//107 
f 122//122 106//106 118//118 
f 110//110 123//123 107//107 
f 121//121 107//107 123//123 
f 106//106 122//122 124//124 
f 106//106 124//124 110//110 
f 112//112 115//115 125//125 
f 114//114 126//126 117//117 
f 117//117 127//127 108//108 
f 108//108 127//127 118//118 
f 111//111 119//119 102//102 
f 128//128 115//115 116//116 
f 128//128 125//125 115//115 
f 128//128 116//116 129//129 
f 116//116 120//120 129//129 
f 130//130 118//118 127//127 
f 121//121 120//120 109//109 
f 118//118 130//130 131//131 
f 131//131 122//122 118//118 
f 122//122 131//131 124//124 
f 119//119 132//132 113//113 
f 111//111 133//133 119//119 
f 112//112 134//134 111//111 
f 125//125 128//128 135//135 
f 119//119 133//133 132//132 
f 134//134 133//133 111//111 
f 114//114 113//113 136//136 
f 112//112 135//135 134//134 
f 114//114 136//136 126//126 
f 112//112 125//125 135//135 
f 126//126 137//137 117//117 
f 117//117 137//137 127//127 
f 120//120 121//121 138//138 
f 124//124 131//131 139//139 
f 124//124 139//139 140//140 
f 110//110 124//124 140//140 
f 132//132 136//136 113//113 
f 129//129 141//141 128//128 
f 137//137 130//130 127//127 
f 120//120 142//142 129//129 
f 120//120 138//138 142//142 
f 130//130 143//143 131//131 
f 131//131 143//143 139//139 
f 138//138 121//121 123//123 
f 110//110 140//140 144//144 
f 123//123 110//110 144//144 
f 133//133 145//145 132//132 
f 134//134 146//146 133//133 
f 133//133 146//146 147//147 
f 134//134 135//135 146//146 
f 135//135 128//128 148//148 
f 137//137 149//149 130//130 
f 129//129 142//142 150//150 
f 129//129 150//150 141//141 
f 132//132 145//145 151//151 
f 151//151 136//136 132//132 
f 135//135 152//152 146//146 
f 126//126 136//136 153//153 
f 148//148 152//152 135//135 
f 126//126 153//153 137//137 
f 154//154 143//143 130//130 
f 123//123 144//144 138//138 
f 133//133 147//147 145//145 
f 136//136 151//151 153//153 
f 148//148 155//155 152//152 
f 128//128 141//141 148//148 
f 149//149 154//154 130//130 
f 143//143 156//156 139//139 
f 139//139 156//156 140//140 
f 144//144 140//140 157//157 
f 145//145 158//158 151//151 
f 147//147 159//159 145//145 
f 147//147 146//146 159//159 
f 152//152 160//160 146//146 
f 152//152 155//155 160//160 
f 161//161 149//149 137//137 
f 157//157 140//140 156//156 
f 145//145 159//159 158//158 
f 146//146 160//160 159//159 
f 153//153 161//161 137//137 
f 148//148 141//141 162//162 
f 154//154 156//156 143//143 
f 158//158 163//163 151//151 
f 159//159 164//164 158//158 
f 163//163 153//153 151//151 
f 155//155 165//165 160//160 
f 155//155 148//148 166//166 
f 141//141 150//150 162//162 
f 167//167 150//150 142//142 
f 138//138 168//168 142//142 
f 168//168 167//167 142//142 
f 156//156 169//169 157//157 
f 144//144 157//157 168//168 
f 168//168 138//138 144//144 
f 170//170 159//159 160//160 
f 165//165 170//170 160//160 
f 149//149 161//161 171//171 
f 166//166 148//148 162//162 
f 149//149 171//171 154//154 
f 154//154 172//172 173//173 
f 154//154 173//173 156//156 
f 158//158 164//164 163//163 
f 163//163 161//161 153//153 
f 155//155 166//166 165//165 
f 154//154 171//171 172//172 
f 162//162 150//150 174//174 
f 168//168 157//157 169//169 
f 159//159 175//175 164//164 
f 164//164 175//175 163//163 
f 175//175 161//161 163//163 
f 170//170 175//175 159//159 
f 172//172 161//161 175//175 
f 172//172 171//171 161//161 
f 173//173 176//176 156//156 
f 150//150 167//167 174//174 
f 176//176 169//169 156//156 
f 169//169 167//167 168//168 
f 177//177 172//172 175//175 
f 170//170 177//177 175//175 
f 165//165 178//178 170//170 
f 165//165 179//179 178//178 
f 166//166 179//179 165//165 
f 173//173 172//172 177//177 
f 166//166 180//180 179//179 
f 166//166 162//162 180//180 
f 180//180 162//162 174//174 
f 177//177 170//170 178//178 
f 173//173 177//177 176//176 
f 167//167 169//169 174//174 
f 177//177 178//178 181//181 
f 179//179 181//181 178//178 
f 179//179 180//180 181//181 
f 176//176 177//177 181//181 
f 180//180 174//174 181//181 
f 181//181 169//169 176//176 
f 174//174 169//169 181//181 
