<?xml version="1.0" encoding="UTF-8" standalone="no"?>
<!DOCTYPE svg PUBLIC "-//W3C//DTD SVG 1.1//EN" "http://www.w3.org/Graphics/SVG/1.1/DTD/svg11.dtd">
<svg width="100%" height="100%" viewBox="0 0 1909 1909" version="1.1" xmlns="http://www.w3.org/2000/svg" xmlns:xlink="http://www.w3.org/1999/xlink" xml:space="preserve" xmlns:serif="http://www.serif.com/" style="fill-rule:evenodd;clip-rule:evenodd;stroke-linecap:round;stroke-linejoin:round;stroke-miterlimit:1.5;">
    <g transform="matrix(1,0,0,1,-771.916,-315.581)">
        <g transform="matrix(1,0,0,1,-27.9433,229.033)">
            <g transform="matrix(1.5123,0,0,1.9351,-306.613,-421.868)">
                <path d="M1753.02,603.181C1753.02,518.965 1665.53,450.592 1557.77,450.592L1167.28,450.592C1059.52,450.592 972.026,518.965 972.026,603.181L972.026,908.359C972.026,992.576 1059.52,1060.95 1167.28,1060.95L1557.77,1060.95C1665.53,1060.95 1753.02,992.576 1753.02,908.359L1753.02,603.181Z" style="fill:none;stroke:white;stroke-width:119.96px;"/>
            </g>
            <g transform="matrix(2.44323,0,0,3.1263,-1575.03,-1322.14)">
                <path d="M1753.02,603.181C1753.02,518.965 1665.53,450.592 1557.77,450.592L1167.28,450.592C1059.52,450.592 972.026,518.965 972.026,603.181L972.026,908.359C972.026,992.576 1059.52,1060.95 1167.28,1060.95L1557.77,1060.95C1665.53,1060.95 1753.02,992.576 1753.02,908.359L1753.02,603.181Z" style="fill:none;"/>
            </g>
        </g>
    </g>
</svg>
