<?xml version="1.0" encoding="UTF-8" standalone="no"?>
<!DOCTYPE svg PUBLIC "-//W3C//DTD SVG 1.1//EN" "http://www.w3.org/Graphics/SVG/1.1/DTD/svg11.dtd">
<svg width="100%" height="100%" viewBox="0 0 640 512" version="1.1" xmlns="http://www.w3.org/2000/svg" xmlns:xlink="http://www.w3.org/1999/xlink" xml:space="preserve" xmlns:serif="http://www.serif.com/" style="fill-rule:evenodd;clip-rule:evenodd;stroke-linejoin:round;stroke-miterlimit:2;">
    <path d="M634,471L36,3.51C33.163,1.238 29.635,0 26,0C21.145,0 16.544,2.21 13.51,6L3.51,18.49C1.232,21.329 -0.01,24.862 -0.01,28.502C-0.01,33.362 2.204,37.966 6,41L604,508.49C606.837,510.762 610.365,512 614,512C618.855,512 623.456,509.79 626.49,506L636.49,493.51C638.768,490.671 640.01,487.138 640.01,483.498C640.01,478.638 637.796,474.034 634,471ZM296.79,146.47L431.58,251.85C429.36,191.91 380.48,144 320,144C312.199,144.015 304.42,144.842 296.79,146.47ZM343.21,365.54L208.42,260.16C210.65,320.09 259.53,368 320,368C327.801,367.983 335.579,367.159 343.21,365.54ZM320,112C418.65,112 509.09,167 557.93,256C545.958,277.904 531.165,298.143 513.93,316.2L551.67,345.7C572.682,323.222 590.484,297.946 604.57,270.59C609.206,261.42 609.206,250.57 604.57,241.4C550.29,135.59 442.93,64 320,64C283.3,64 248.29,71 215.37,82.81L261.78,119.1C280.72,114.8 300.12,112 320,112ZM320,400C221.35,400 130.92,345 82.07,256C94.058,234.097 108.868,213.86 126.12,195.81L88.38,166.31C67.372,188.785 49.573,214.058 35.49,241.41C30.854,250.58 30.854,261.43 35.49,270.6C89.72,376.41 197.08,448 320,448C356.7,448 391.71,440.95 424.63,429.19L378.22,392.91C359.28,397.2 339.89,400 320,400Z" style="fill:rgb(181,179,179);fill-rule:nonzero;stroke:black;stroke-width:2px;"/>
</svg>
