<?xml version="1.0" encoding="UTF-8" standalone="no"?>
<!DOCTYPE svg PUBLIC "-//W3C//DTD SVG 1.1//EN" "http://www.w3.org/Graphics/SVG/1.1/DTD/svg11.dtd">
<svg width="100%" height="100%" viewBox="0 0 576 512" version="1.1" xmlns="http://www.w3.org/2000/svg" xmlns:xlink="http://www.w3.org/1999/xlink" xml:space="preserve" xmlns:serif="http://www.serif.com/" style="fill-rule:evenodd;clip-rule:evenodd;stroke-linejoin:round;stroke-miterlimit:2;">
    <path d="M288,144C277.401,144.166 266.881,145.849 256.76,149C261.441,157.233 263.934,166.53 264,176C264,206.721 238.721,232 208,232C198.53,231.934 189.233,229.441 181,224.76C178.099,234.821 176.627,245.239 176.627,255.709C176.627,316.992 227.055,367.419 288.337,367.419C349.619,367.419 400.047,316.992 400.047,255.709C400.047,194.427 349.619,143.999 288.337,143.999C288.225,143.999 288.112,144 288,144ZM572.52,241.4C518.29,135.59 410.93,64 288,64C165.07,64 57.68,135.64 3.48,241.41C-1.156,250.58 -1.156,261.43 3.48,270.6C57.71,376.41 165.07,448 288,448C410.93,448 518.32,376.36 572.52,270.59C577.156,261.42 577.156,250.57 572.52,241.4ZM288,400C189.35,400 98.91,345 50.07,256C98.91,167 189.34,112 288,112C386.66,112 477.09,167 525.93,256C477.1,345 386.66,400 288,400Z" style="fill:rgb(255,248,248);fill-rule:nonzero;stroke:black;stroke-width:2px;"/>
</svg>
